<svg width="301" height="68" viewBox="0 0 301 68" fill="none" xmlns="http://www.w3.org/2000/svg">
<rect x="0.5" y="0.5" width="300" height="67" rx="33.5" fill="url(#paint0_linear_340_1675)" fill-opacity="0.4" style="mix-blend-mode:screen"/>
<rect x="0.5" y="0.5" width="300" height="67" rx="33.5" stroke="url(#paint1_linear_340_1675)"/>
<g filter="url(#filter0_d_340_1675)">
<rect x="10" y="7" width="283" height="54" rx="27" fill="url(#paint2_radial_340_1675)"/>
</g>
<g opacity="0.2">
<path opacity="0.2" d="M51.6194 10.6676C58.2159 24.218 39.221 25.0013 35.724 28.6826C32.227 32.364 29.0479 51.1622 15.06 40.0399C10.2119 33.9305 14.1858 22.4165 24.1999 14.3489C34.2139 6.28134 46.5328 4.55816 51.6194 10.6676Z" fill="white"/>
</g>
<g style="mix-blend-mode:screen">
<g style="mix-blend-mode:screen" opacity="0.03">
<path d="M37.2622 13.131C35.8329 13.3906 34.4389 13.7845 33.1039 14.3059C31.8042 14.7707 30.5595 15.3479 29.3879 16.029V16.029C27.0285 17.3928 24.9615 19.1166 23.283 21.1202C21.7625 22.8577 20.5401 24.7844 19.6555 26.838C19.6555 27.6213 19.1247 28.4046 18.8592 29.1095C18.2399 31.5376 18.8592 33.2608 18.8592 33.4958C18.8592 33.7307 20.0979 33.4958 21.1596 32.0076L23.1946 29.5795L25.8488 26.838C26.2568 26.3927 26.7003 25.9739 27.176 25.5848C27.6184 25.1932 28.0607 24.7232 28.5916 24.3316L30.2726 23.0784L32.2191 21.9035L32.9269 21.4335C36.8378 19.3213 41.111 17.787 45.5789 16.8906C49.118 16.029 51.4184 15.5591 51.3299 14.6975C51.2414 13.8359 50.6221 13.8359 49.4719 13.4443H48.4102H47.26H45.8444H44.8711C42.369 12.9881 39.8014 12.8824 37.2622 13.131V13.131Z" fill="#080808"/>
</g>
<g style="mix-blend-mode:screen" opacity="0.06">
<path d="M37.0851 13.2873C35.6975 13.5558 34.3365 13.9225 33.0152 14.3839C31.7633 14.855 30.5511 15.4047 29.3877 16.0287V16.0287C27.0431 17.3165 25.0005 18.9919 23.3713 20.9633C21.9312 22.6773 20.742 24.5459 19.8323 26.5244C19.5114 27.2654 19.2454 28.0242 19.036 28.7959C18.4167 31.1457 19.036 32.7905 19.036 33.1038C19.036 33.4171 20.2747 33.1038 21.3364 31.6156C22.3981 30.1274 22.575 30.1274 23.3713 29.2658C24.1748 28.3401 25.0312 27.4512 25.9371 26.6027C26.468 26.1328 26.9104 25.5845 27.5297 25.1145L28.9453 23.8613L30.6263 22.6864C31.1898 22.2075 31.8131 21.787 32.4843 21.4332H33.1921C37.0119 19.3282 41.1966 17.7935 45.5788 16.8903C49.0293 16.107 51.3297 15.6371 51.2412 14.7755C51.1527 13.9139 50.5334 13.9922 49.3832 13.6006H48.41H47.2598H45.8442H44.3401C41.948 13.2128 39.5084 13.1074 37.0851 13.2873Z" fill="#101010"/>
</g>
<g style="mix-blend-mode:screen" opacity="0.1">
<path d="M36.9083 13.3661C35.5561 13.6877 34.2266 14.08 32.9269 14.541C31.7118 15.0273 30.5301 15.5765 29.3879 16.1858V16.1858C27.1418 17.465 25.1656 19.082 23.5485 20.9637C22.1031 22.633 20.9407 24.4801 20.0979 26.4466C19.7654 27.1572 19.499 27.8906 19.3016 28.6397C18.6823 30.9112 19.3016 32.556 19.3016 32.791C19.3016 33.026 20.5403 32.791 21.5135 31.3028L23.5485 29.0313L26.0258 26.4466L27.6184 25.0367L28.9455 23.8618L30.6265 22.6869L32.4845 21.512L33.1923 21.1204C36.9518 19.1293 41.0425 17.6754 45.3135 16.8124C48.6756 16.0292 50.8875 15.5592 50.8875 14.776C50.8875 13.9927 50.2682 13.9927 49.118 13.6011H48.1448H46.9946H45.579H44.1633C41.7678 13.2357 39.3276 13.1567 36.9083 13.3661V13.3661Z" fill="#191919"/>
</g>
<g style="mix-blend-mode:screen" opacity="0.13">
<path d="M36.7312 13.5226C35.4129 13.8279 34.1135 14.1939 32.8383 14.6191C31.6584 15.0299 30.5063 15.5006 29.3877 16.029V16.029C27.1962 17.2812 25.278 18.8732 23.7252 20.7286C22.327 22.3266 21.1948 24.0939 20.3632 25.9764C20.0306 26.687 19.7643 27.4205 19.5669 28.1696C18.9476 30.3627 19.1245 31.9292 19.5669 32.2425C20.0093 32.5558 20.7171 32.2425 21.6903 30.7543L23.7252 28.5612L26.2026 25.9764L27.7067 24.6449L29.0338 23.8616L30.7148 22.6084L32.4844 21.5118L33.1922 21.0419C36.8225 19.1197 40.7598 17.6938 44.871 16.8123C48.1446 16.029 50.3565 15.6374 50.3565 14.7758C50.3565 13.9142 49.7371 13.9925 48.6754 13.6009H47.7022H46.552H45.1364H43.8977C41.5279 13.246 39.1102 13.2196 36.7312 13.5226V13.5226Z" fill="#212121"/>
</g>
<g style="mix-blend-mode:screen" opacity="0.16">
<path d="M36.5548 13.6789C35.2657 13.9848 33.9958 14.3508 32.7503 14.7754C31.6886 15.2454 30.5385 15.7153 29.3883 16.342C27.2773 17.5646 25.4214 19.1016 23.9028 20.8849C22.5327 22.4575 21.4298 24.1991 20.6292 26.0544C20.2986 26.7119 20.0322 27.3932 19.8329 28.0909C19.2135 30.284 19.8329 31.8505 19.8329 32.0855C19.8329 32.3205 20.9831 32.0855 21.9563 30.6756L23.9028 28.4825L26.2916 26.2111L27.7957 24.8795L29.1228 23.8613L30.7154 22.6864L32.4849 21.5115H33.1927C36.7769 19.4024 40.7199 17.8157 44.8715 16.8119C48.0567 16.0287 50.2686 15.637 50.1801 14.8538C50.0916 14.0705 49.6492 14.0705 48.676 13.6789H47.6143H46.4641L44.8715 13.0523H43.6329C41.2524 12.979 38.8717 13.1898 36.5548 13.6789V13.6789Z" fill="#292929"/>
</g>
<g style="mix-blend-mode:screen" opacity="0.19">
<path d="M36.0242 13.8359C34.7486 14.0948 33.5041 14.462 32.3082 14.9325C31.2111 15.3668 30.1472 15.864 29.1231 16.4207V16.4207C27.0651 17.6116 25.2419 19.0933 23.726 20.807C22.3785 22.336 21.2768 24.023 20.4524 25.8198C20.4524 26.5248 19.9216 27.2297 19.7446 27.8563C19.1253 29.9711 19.3022 31.4593 19.7446 31.6943C20.187 31.9293 20.8948 31.6943 21.868 30.3627C22.8413 29.0312 23.0182 29.0312 23.8145 28.2479L26.2034 25.8198L27.619 24.4883L29.2115 23.8617L30.7156 22.6868L32.4851 21.5902L33.1929 21.1986C36.7731 19.1547 40.7236 17.671 44.8718 16.8123C47.9684 16.0291 50.0034 15.6374 50.0034 14.8542C50.0034 14.0709 49.4725 14.1492 48.4993 13.7576H47.526H46.3758L44.8718 13.131H43.3677C40.8929 13.0129 38.4128 13.2509 36.0242 13.8359V13.8359Z" fill="#313131"/>
</g>
<g style="mix-blend-mode:screen" opacity="0.23">
<path d="M36.024 13.9925C34.8373 14.2261 33.681 14.5673 32.5734 15.0108C31.4672 15.4284 30.4019 15.9262 29.3883 16.499V16.499C27.3891 17.6357 25.6237 19.0661 24.1682 20.7286C22.8632 22.2407 21.792 23.9002 20.9831 25.6631C20.9831 26.3681 20.4522 26.9947 20.2753 27.6213C19.6559 29.6578 20.2753 31.146 20.2753 31.381C20.2753 31.6159 21.4254 31.381 22.3102 30.0494C23.0185 29.389 23.6692 28.6821 24.2567 27.9346L26.557 25.5848C26.557 25.1932 27.4418 24.7232 27.9727 24.3316L29.2998 23.8616L30.8039 22.6868L32.4849 21.6685H33.1927C36.6363 19.7698 40.3994 18.3685 44.3407 17.5172C47.3489 16.8123 49.3838 16.4207 49.3838 15.6374C49.3838 14.8541 49.3838 14.9325 47.9682 14.6192H46.995H45.8448L44.8715 13.2093H43.102C40.7136 13.1872 38.3328 13.4507 36.024 13.9925V13.9925Z" fill="#3A3A3A"/>
</g>
<g style="mix-blend-mode:screen" opacity="0.26">
<path d="M36.0236 14.1495C34.8693 14.3948 33.7437 14.7357 32.6615 15.1677C31.5859 15.5588 30.5499 16.0305 29.5649 16.5776V16.5776C27.6389 17.7393 25.9361 19.1674 24.5217 20.8072C23.2494 22.2397 22.2073 23.8212 21.4251 25.5068C21.4251 26.2117 20.8942 26.8383 20.7173 27.4649C20.0979 29.4231 20.2749 30.8329 20.7173 31.0679C21.1597 31.3029 21.8675 31.0679 22.7522 29.8147L24.6102 27.7782L26.8221 25.5068L28.2377 24.2535L29.4764 23.2353L30.9805 22.1387L32.6615 21.1205L33.3693 20.6505C36.7438 18.8325 40.4143 17.4851 44.2518 16.6559C47.1715 15.951 49.118 15.5593 49.2065 14.8544C49.295 14.1495 49.2065 14.1495 47.8794 13.8362H46.9061H45.7559H44.4288H42.8362C40.5596 13.6807 38.2698 13.786 36.0236 14.1495V14.1495Z" fill="#424242"/>
</g>
<g style="mix-blend-mode:screen" opacity="0.29">
<path d="M36.0234 14.2277L32.4843 15.246C31.4372 15.6376 30.4307 16.1094 29.4762 16.6558V16.6558C27.5837 17.7639 25.9098 19.1399 24.5215 20.7288C23.2768 22.1354 22.2639 23.6913 21.5133 25.35C21.2128 25.9291 20.9757 26.5323 20.8055 27.1515C20.1862 29.1097 20.8055 30.5196 20.8055 30.7545C20.8055 30.9895 21.8672 30.7545 22.752 29.5013L24.61 27.5432C25.4087 26.762 26.266 26.0293 27.1758 25.35L28.149 23.8618L29.3877 22.9219L30.8918 21.8254C31.3913 21.4492 31.9239 21.1087 32.4843 20.8071L33.1037 20.4155C36.4267 18.6361 40.0367 17.3155 43.8092 16.4992C46.6405 15.7942 48.5869 15.4026 48.6754 14.6977C48.7639 13.9927 48.6754 14.0711 47.3483 13.6794H46.375H45.3133H43.9862H42.6591C40.4297 13.6069 38.1991 13.7912 36.0234 14.2277V14.2277Z" fill="#4A4A4A"/>
</g>
<g style="mix-blend-mode:screen" opacity="0.32">
<path d="M36.024 14.3838C34.9354 14.6535 33.8708 14.9939 32.8388 15.4021L30.0076 16.7336C28.2141 17.8327 26.6056 19.1513 25.2299 20.6499C24.0156 22.0039 23.032 23.5081 22.3102 25.1145C22.0096 25.6936 21.7726 26.2969 21.6024 26.916C20.9831 28.7959 21.6024 30.1274 21.6024 30.3624C21.6024 30.5974 22.7526 30.3624 23.5489 29.1875C24.1763 28.5621 24.7669 27.9085 25.3184 27.2293L27.1764 25.1145L28.2381 23.8613L29.4768 22.9214L30.8924 21.9032L32.4849 20.8849H33.1043C36.3565 19.1657 39.8732 17.8729 43.5444 17.0469C46.2872 16.342 48.2336 15.9504 48.3221 15.3238C48.4106 14.6972 48.3221 14.6972 47.0834 14.3055H46.1102L44.8716 13.6006H43.5444H42.3942C40.2417 13.619 38.1007 13.8823 36.024 14.3838V14.3838Z" fill="#525252"/>
</g>
<g style="mix-blend-mode:screen" opacity="0.35">
<path d="M35.4045 14.5413C34.3547 14.8072 33.3211 15.121 32.3078 15.4812C31.3654 15.878 30.4497 16.3226 29.5651 16.8127V16.8127C27.8309 17.8587 26.2806 19.1256 24.9643 20.5724C23.8145 21.9365 22.8355 23.4073 22.0446 24.9587C21.7983 25.5212 21.5914 26.0967 21.4253 26.6818C20.806 28.4833 20.9829 29.7366 21.4253 29.9715C21.8677 30.2065 22.487 29.9715 23.3718 28.875L25.0528 26.9951C25.6721 26.2902 26.4684 25.5853 27.2647 24.802L28.3264 23.8621L29.5651 22.9222L30.8922 21.9039L32.4848 20.964L33.1041 20.5724C36.2482 18.8481 39.683 17.5789 43.2788 16.8127C46.0216 16.1078 47.7911 15.7162 47.8796 15.0896C47.968 14.4629 47.8796 14.4629 46.8179 14.1496C46.4964 14.0947 46.1661 14.0947 45.8446 14.1496L44.8714 13.6797H43.5442H42.1286C39.8534 13.6941 37.591 13.984 35.4045 14.5413V14.5413Z" fill="#5A5A5A"/>
</g>
<g style="mix-blend-mode:screen" opacity="0.39">
<path d="M35.1386 14.6979C34.1317 15.0813 33.1561 15.5262 32.2189 16.0295C31.2988 16.3857 30.4114 16.8047 29.5646 17.2827V17.2827C27.9131 18.3038 26.4505 19.5457 25.2293 20.964C24.0257 22.2099 23.0414 23.6094 22.3096 25.1153C22.3096 25.7419 21.8672 26.2902 21.6903 26.8385C21.071 28.5617 21.6903 29.8149 21.6903 30.0499C21.6903 30.2848 22.752 30.0499 23.5483 28.875C24.1473 28.3036 24.7085 27.7021 25.2293 27.0735L27.1758 24.7237C27.5728 24.419 27.9862 24.1315 28.4145 23.8621L29.5646 22.9222L30.9803 21.9039L32.4843 20.729H33.1037C36.1762 19.0448 39.5163 17.7775 43.013 16.9694C45.6672 16.3428 47.4368 15.9511 47.5252 15.3245C47.6137 14.6979 47.5252 14.7763 46.552 14.4629H45.5788L44.871 13.6797H42.2167C39.8112 13.6842 37.4219 14.0279 35.1386 14.6979V14.6979Z" fill="#636363"/>
</g>
<g style="mix-blend-mode:screen" opacity="0.42">
<path d="M34.9621 14.854L32.1309 16.0289L29.5651 17.2821C27.9276 18.2281 26.4902 19.4211 25.3182 20.8068C24.1544 22.0344 23.2004 23.4067 22.487 24.8797C22.487 25.428 22.487 25.9763 21.8677 26.4462C21.2483 28.1694 21.4253 29.3443 21.8677 29.5793C22.31 29.8143 22.8409 29.5793 23.6372 28.4827L25.3182 26.7595L27.1762 24.4881C27.6109 24.1424 28.0244 23.7764 28.4149 23.3915L29.5651 22.5299L30.8922 21.59L32.3963 20.6501H33.0156C36.0371 19.0786 39.2798 17.8671 42.6595 17.0471C45.2253 16.4205 46.9063 16.0289 47.0833 15.4806C47.2602 14.9323 47.0833 14.9323 46.11 14.619C45.8187 14.5615 45.5166 14.5615 45.2253 14.619H44.1636H41.5093C39.3245 14.451 37.1244 14.53 34.9621 14.854V14.854Z" fill="#6B6B6B"/>
</g>
<g style="mix-blend-mode:screen" opacity="0.45">
<path d="M34.7847 15.0104C33.8386 15.2782 32.9208 15.6189 32.042 16.0287L29.5646 17.2036C28.027 18.1415 26.6554 19.2766 25.4948 20.5716C24.3803 21.7584 23.4572 23.0764 22.752 24.4879C22.4835 24.9892 22.2759 25.5143 22.1327 26.0544C21.5133 27.6993 22.1327 28.8742 22.1327 29.1091C22.1327 29.3441 23.1944 29.1091 23.9907 28.0126L25.5832 26.3677C26.2026 25.7411 26.8219 25.0362 27.6182 24.3312C28.0234 24.0118 28.4075 23.6718 28.7684 23.313L29.9186 22.4514L31.2457 21.5115L32.6613 20.6499L33.2806 20.2583C36.2169 18.6666 39.4088 17.4782 42.7476 16.7336C44.871 16.0287 46.6405 16.0287 46.8174 15.0888C46.9944 14.1488 46.8174 14.5405 45.9327 14.2272L44.871 13.9922H43.8977H41.4204C39.1675 14.0711 36.9362 14.4135 34.7847 15.0104V15.0104Z" fill="#737373"/>
</g>
<g style="mix-blend-mode:screen" opacity="0.48">
<path d="M34.6077 15.1677C33.6961 15.3855 32.8079 15.6738 31.9534 16.0293L29.6531 17.1259C28.1941 18.032 26.8839 19.1127 25.7601 20.3372C24.705 21.5179 23.8138 22.8064 23.1059 24.1752C22.8326 24.6567 22.5962 25.1539 22.398 25.6634C21.8672 27.2299 22.398 28.3265 22.398 28.5615C22.398 28.7965 23.3713 28.5615 24.1676 27.5432L25.7601 25.8984C26.1827 25.1937 26.6555 24.5135 27.1757 23.8619L28.4144 22.8437C28.7478 22.5373 29.1024 22.2495 29.4761 21.9821L30.7148 21.1205C31.1506 20.7894 31.6252 20.5006 32.1304 20.2589H32.7497C35.507 18.7573 38.4839 17.5977 41.5973 16.8126C44.8709 16.0293 46.2865 16.0293 46.4635 15.1677C46.6404 14.3061 46.4635 14.6194 45.6672 14.3061L44.8709 14.0711H43.8092H42.1282C41.8101 13.9906 41.473 13.9906 41.1549 14.0711C38.9271 14.1768 36.7252 14.5456 34.6077 15.1677V15.1677Z" fill="#7B7B7B"/>
</g>
<g style="mix-blend-mode:screen" opacity="0.52">
<path d="M34.431 15.2455L31.8652 16.0287L29.6533 17.1253C28.2242 18.0051 26.9433 19.06 25.8489 20.2584C24.7456 21.3215 23.8487 22.5389 23.1946 23.8614L22.4868 25.2712C21.956 26.8378 22.0444 27.9343 22.4868 28.1693C22.9292 28.4043 23.46 28.1693 24.1678 27.1511L25.7604 25.5845C26.3445 24.9555 26.9964 24.3784 27.7069 23.8614L28.8571 22.9215C29.1688 22.596 29.5255 22.3065 29.9188 22.0599L31.1574 21.1983C31.5686 20.8752 32.0129 20.5868 32.4846 20.3367H33.1039C35.8524 18.839 38.833 17.7044 41.9515 16.9687C44.2519 16.3421 45.756 16.0287 46.0214 15.4805C46.2868 14.9322 46.0214 15.0105 45.2251 14.6972C44.9349 14.6309 44.6305 14.6309 44.3403 14.6972H43.2786C42.8669 14.6577 42.4516 14.6577 42.04 14.6972H40.8898C38.7189 14.6248 36.5468 14.8092 34.431 15.2455V15.2455Z" fill="#848484"/>
</g>
<g style="mix-blend-mode:screen" opacity="0.55">
<path d="M34.2544 15.4028C33.409 15.5454 32.5799 15.7551 31.7771 16.0294L29.6537 17.0477C28.3033 17.8958 27.0838 18.8964 26.0261 20.0241C24.9809 21.2108 24.0905 22.4983 23.3719 23.862L22.7525 25.2719C22.2217 26.7601 22.7525 27.7783 22.7525 28.0133C22.7525 28.2483 23.6373 28.0133 24.4336 27.0734L25.9377 25.5069L27.7957 23.862L28.9458 22.9221L29.9191 22.1389L31.1577 21.2773L32.4849 20.494H33.1042C35.8763 19.0562 38.8514 17.9501 41.9518 17.2043C44.1637 16.656 45.6678 16.3427 45.8447 15.7944C46.0217 15.2462 45.8447 15.3245 45.2254 15.0895C44.9352 15.0232 44.6308 15.0232 44.3406 15.0895H43.2789C42.8672 15.05 42.452 15.05 42.0403 15.0895H40.6247C38.4949 14.946 36.3531 15.0513 34.2544 15.4028V15.4028Z" fill="#8C8C8C"/>
</g>
<g style="mix-blend-mode:screen" opacity="0.58">
<path d="M33.9891 15.5595L31.6887 16.0294L29.6538 17.0477C28.382 17.8638 27.2237 18.8103 26.2032 19.8674C25.1674 21.1015 24.3057 22.443 23.6374 23.862C23.6374 24.332 23.195 24.8019 23.0181 25.1936C22.8411 25.5852 23.0181 27.6217 23.0181 27.7783C23.0181 27.935 23.9913 27.7783 24.6991 26.9168L26.2032 25.4286L27.8843 23.862L29.0345 22.9221L30.0077 22.1389L31.1579 21.3556L32.485 20.5723H33.1043C35.8704 19.1426 38.8483 18.0617 41.9519 17.361C43.633 16.0294 44.8716 16.0294 45.314 15.2462C45.7564 14.4629 45.314 14.7762 44.7832 14.4629H43.8099H40.3594C38.1908 14.5795 36.049 14.9482 33.9891 15.5595V15.5595Z" fill="#949494"/>
</g>
<g style="mix-blend-mode:screen" opacity="0.61">
<path d="M33.8121 16.0292L31.6887 16.8125C31.0123 17.0788 30.3613 17.3931 29.7422 17.7524V17.7524C28.5289 18.5147 27.429 19.4095 26.4686 20.4155C25.5104 21.3843 24.7067 22.4648 24.0798 23.6269C24.0798 24.0968 24.0798 24.5668 23.4604 24.9584C22.8411 25.35 23.0181 27.2299 23.4604 27.4648C23.9028 27.6998 24.3452 27.4648 25.053 26.6032L26.4686 25.1151L28.3266 23.4702L29.3883 22.6086L30.3616 21.8254L31.5117 21.0421L32.7504 20.2588H33.3697C35.9001 18.8758 38.6412 17.8207 41.5095 17.1258C43.279 16.0292 44.8716 16.0292 44.8716 15.246C44.8716 14.4627 44.8716 15.246 44.8716 14.541H43.8984H40.1824C37.9948 14.7892 35.8532 15.2895 33.8121 16.0292V16.0292Z" fill="#9C9C9C"/>
</g>
<g style="mix-blend-mode:screen" opacity="0.65">
<path d="M33.635 16.029L31.6001 16.7339L29.7421 17.6739C28.5598 18.4112 27.4893 19.2799 26.5569 20.2586C25.6397 21.1815 24.8661 22.2089 24.2566 23.3133C24.2566 23.705 23.8142 24.1749 23.6372 24.4882C23.4603 24.8015 23.6372 26.7597 23.6372 26.9164C23.6372 27.073 24.522 26.9164 25.2298 26.1331L26.5569 24.7232L28.3265 23.0784L29.3882 22.2168L30.3614 21.5118L31.4231 20.7286L32.4848 19.9453H33.0157C35.4948 18.6012 38.1754 17.5729 40.9785 16.8906C42.925 16.029 44.3406 16.029 44.8714 15.3241C45.4023 14.6191 44.8714 14.8541 44.8714 14.6191H43.9867H39.9168C37.7544 14.8054 35.6364 15.2808 33.635 16.029V16.029Z" fill="#A5A5A5"/>
</g>
<g style="mix-blend-mode:screen" opacity="0.68">
<path d="M33.4578 16.0288C32.7938 16.2294 32.1438 16.4648 31.5114 16.7337C30.8739 16.9708 30.2781 17.2873 29.7418 17.6737V17.6737C28.6369 18.3779 27.6275 19.1926 26.7337 20.1018C25.8669 20.9852 25.1242 21.9583 24.5218 22.9998L23.814 23.8614C23.2831 25.1146 23.3716 25.9762 23.814 26.2112C24.2563 26.4462 24.6102 26.2112 25.318 25.3496L26.6452 24.0964C27.19 23.5358 27.7815 23.0122 28.4147 22.5299L29.3879 21.6683L30.3612 20.9634L31.4229 20.2584L32.5731 19.5535H33.1039C35.4937 18.2371 38.0865 17.2346 40.8013 16.5771C42.0525 16.3394 43.2491 15.9156 44.3404 15.3239C44.3404 15.3239 44.3404 15.3239 44.3404 14.6973H43.4556H39.6511C37.5214 14.8555 35.4323 15.3046 33.4578 16.0288V16.0288Z" fill="#ADADAD"/>
</g>
<g style="mix-blend-mode:screen" opacity="0.71">
<path d="M33.2812 16.0295L31.4232 16.6561C30.8434 16.9412 30.2821 17.255 29.7421 17.596C28.8027 18.3323 27.9437 19.1452 27.1763 20.0241C26.3246 20.8894 25.5828 21.835 24.9644 22.8438L24.0797 23.8621C23.5488 25.037 24.0797 25.8986 24.0797 26.0552C24.0797 26.2119 24.9644 26.0552 25.5838 25.2719C26.171 24.8547 26.705 24.3819 27.1763 23.8621L28.8574 22.3739L29.8306 21.5906L30.7154 20.8857L31.7771 20.1807C32.127 19.9272 32.5139 19.7164 32.9273 19.5541H33.4581C35.8371 18.3465 38.3591 17.3747 40.9786 16.6561C42.1786 16.4734 43.3232 16.0735 44.3407 15.4812C44.3407 15.4812 44.3407 15.4812 44.3407 14.9329C44.1868 14.8747 44.0213 14.8447 43.854 14.8447C43.6868 14.8447 43.5212 14.8747 43.3674 14.9329H39.386C37.3016 15.033 35.2449 15.4024 33.2812 16.0295V16.0295Z" fill="#B5B5B5"/>
</g>
<g style="mix-blend-mode:screen" opacity="0.74">
<path d="M33.0158 16.029L31.3348 16.734L29.7422 17.5956C28.7738 18.305 27.9115 19.121 27.1764 20.0237C26.3751 20.8219 25.6639 21.6876 25.053 22.6084L24.3452 23.8617C23.8144 24.9582 23.9028 25.7415 24.3452 25.9765C24.7876 26.2114 25.1415 25.9765 25.8493 25.1932L27.1764 23.8617L28.769 22.3735L29.7422 21.6685L30.627 20.9636L31.6002 20.337L32.7504 19.632H33.2813C35.5523 18.4194 37.9909 17.4717 40.5363 16.8123C41.6598 16.6069 42.7364 16.2363 43.7214 15.7157C43.7214 15.7157 43.7214 15.7157 43.7214 15.0891C43.4341 15.0054 43.124 15.0054 42.8367 15.0891H39.1207C37.0492 15.1742 34.9981 15.49 33.0158 16.029V16.029Z" fill="#BDBDBD"/>
</g>
<g style="mix-blend-mode:screen" opacity="0.77">
<path d="M32.8382 16.4204L31.2456 17.047L29.83 17.9086C28.8649 18.5007 27.975 19.1835 27.1758 19.9451C26.4316 20.737 25.7515 21.5746 25.1408 22.4515L24.61 23.3914C24.0791 24.488 24.61 25.2712 24.61 25.4279C24.61 25.5845 25.4062 25.4279 26.0256 24.723L27.1758 23.8614L28.7683 22.5298C29.085 22.2888 29.3808 22.0269 29.6531 21.7466L30.5378 21.1983L31.5111 20.4933L32.5728 19.8667H33.1036C35.2853 18.6816 37.6359 17.7596 40.0932 17.1253C41.1794 16.8928 42.2222 16.5235 43.1899 16.0288C43.1899 16.0288 43.1899 16.0288 43.1899 15.4805H42.3051H38.8546C36.813 15.5728 34.7922 15.8885 32.8382 16.4204V16.4204Z" fill="#C5C5C5"/>
</g>
<g style="mix-blend-mode:screen" opacity="0.81">
<path d="M32.6612 16.5776L31.1571 17.2042L29.8299 17.9875C28.8584 18.5115 27.9664 19.1432 27.1757 19.8673C26.4085 20.587 25.7266 21.3744 25.1407 22.2171C24.9287 22.5139 24.7508 22.8288 24.6099 23.157C24.079 24.1753 24.1675 24.8802 24.6099 25.0369C25.0522 25.1935 25.4061 25.0369 25.937 24.4103L27.1757 23.3137L28.6797 21.9821L29.5645 21.2772L30.4493 20.7289L31.334 20.024L32.3957 19.4757H32.9266C35.0383 18.351 37.2961 17.4568 39.6507 16.8126C40.6967 16.5833 41.707 16.2414 42.6589 15.7944C42.6589 15.7944 42.6589 15.7944 42.6589 15.2461H41.7742H39.5623H38.6775C36.6077 15.4188 34.5793 15.8678 32.6612 16.5776V16.5776Z" fill="#CECECE"/>
</g>
<g style="mix-blend-mode:screen" opacity="0.84">
<path d="M32.4841 16.7343L31.0685 17.3609C30.6176 17.5389 30.1999 17.7766 29.8298 18.0658V18.0658C29.0822 18.6005 28.373 19.1761 27.7064 19.789C26.9682 20.4827 26.3156 21.2442 25.76 22.0605C25.5165 22.3114 25.3356 22.605 25.2291 22.9221C24.6982 23.862 25.2291 24.5669 25.2291 24.7236C25.2291 24.8802 26.0254 24.7236 26.6447 24.097L27.1756 23.0787C27.6315 22.5964 28.1349 22.1508 28.6797 21.7472L29.4759 21.1206L30.2722 20.5723L31.2455 19.9457L32.2187 19.3191H32.7495C34.7525 18.1898 36.9274 17.3194 39.2083 16.7343C40.2223 16.4949 41.202 16.1532 42.128 15.7161C42.128 15.7161 42.128 15.7161 42.128 15.2461H41.2432H38.412C36.3627 15.4753 34.3642 15.977 32.4841 16.7343V16.7343Z" fill="#D6D6D6"/>
</g>
<g style="mix-blend-mode:screen" opacity="0.87">
<path d="M32.308 16.8908L30.9809 17.4391L29.8307 18.144C29.0726 18.6095 28.3883 19.1627 27.7958 19.7888C27.0922 20.4251 26.4416 21.1057 25.8493 21.8253C25.6659 22.097 25.5175 22.386 25.4069 22.6869C24.8761 23.5485 24.8761 24.1751 25.4069 24.3318C25.9378 24.4884 26.2032 24.3318 26.7341 23.7835L27.8843 22.7652C28.3135 22.3352 28.7875 21.9419 29.2999 21.5903L30.0962 20.9637L30.8924 20.4154L31.7772 19.7888L32.7504 19.2406H33.2813C35.2526 18.2354 37.3261 17.3963 39.4746 16.7341C40.4622 16.5361 41.4147 16.2199 42.3058 15.7942C42.3058 15.7942 42.3058 15.7942 42.3058 15.4026C42.3058 15.0109 42.3058 15.4026 41.4211 15.4026H38.1475C36.1284 15.6394 34.1603 16.141 32.308 16.8908V16.8908Z" fill="#DEDEDE"/>
</g>
<g style="mix-blend-mode:screen" opacity="0.9">
<path d="M32.1307 17.0474L30.892 17.5957L29.9188 18.2223C29.2397 18.6565 28.6166 19.1556 28.0608 19.7105C27.3903 20.3238 26.7694 20.9781 26.2028 21.6687C26.1736 21.9029 26.1736 22.1393 26.2028 22.3736C25.672 23.2352 25.672 23.8618 26.2028 24.0185C26.7337 24.1751 26.1144 23.8618 26.6452 23.8618L27.7069 22.9219L29.1225 21.747L29.9188 21.1204L30.7151 20.6504L31.5999 20.1021L32.4846 19.5539H33.0155C34.8895 18.5623 36.8765 17.7484 38.9433 17.1258C39.8793 16.8959 40.7958 16.608 41.6861 16.2642C41.6861 16.2642 41.6861 16.2642 41.6861 15.7942C41.3988 15.7105 41.0887 15.7105 40.8013 15.7942H37.8816C35.9063 15.9636 33.9692 16.3858 32.1307 17.0474V17.0474Z" fill="#E6E6E6"/>
</g>
<g style="mix-blend-mode:screen" opacity="0.94">
<path d="M31.8655 17.1256L30.8038 17.6739L29.919 18.3005C29.3181 18.7024 28.7558 19.1478 28.238 19.632C27.5951 20.1901 27.0034 20.7925 26.4685 21.4335C26.2881 21.6511 26.1395 21.888 26.0261 22.1385C25.4952 22.9217 25.4952 23.47 26.0261 23.6267C26.5569 23.7833 26.38 23.8616 27.1763 23.1567L28.1495 22.2168L29.5651 21.1202L30.2729 20.5719L31.0692 20.102L31.8655 19.5537L32.7502 19.0837H33.2811C35.0465 18.0881 36.9497 17.2983 38.9435 16.734C39.8196 16.498 40.6768 16.2101 41.5093 15.8724C41.5093 15.8724 41.5093 15.8724 41.5093 15.4807C41.222 15.397 40.9119 15.397 40.6246 15.4807H37.6164C35.6183 15.7748 33.6803 16.3291 31.8655 17.1256V17.1256Z" fill="#EFEFEF"/>
</g>
<g style="mix-blend-mode:screen" opacity="0.97">
<path d="M31.6886 17.2818L30.7154 17.8301L29.9191 18.3784L28.415 19.5533C27.7957 20.1799 27.1764 20.7282 26.734 21.2764L26.2031 21.903C26.2031 22.608 26.2031 23.1563 26.2031 23.2346C26.2031 23.3129 26.9109 23.2346 27.4418 22.7646L28.415 21.9814L29.7422 20.9631L30.5384 20.4148L31.2462 19.9449L31.9541 19.3966L32.8388 18.9266H33.3697C35.0868 17.9744 36.9289 17.2116 38.8552 16.6552L40.8901 16.0286C40.8901 16.0286 40.8901 16.0286 40.8901 15.6369C40.8901 15.2453 40.8901 15.6369 40.0938 15.6369H38.2358H37.4396C35.4302 15.8892 33.4849 16.4456 31.6886 17.2818V17.2818Z" fill="#F7F7F7"/>
</g>
<g style="mix-blend-mode:screen">
<path d="M31.5112 17.4389L30.715 17.9089L29.9187 18.4572C29.4068 18.7802 28.9326 19.1475 28.5031 19.5537C27.723 20.1706 27.0119 20.8526 26.3796 21.5902C25.9373 22.2951 25.9373 22.7651 26.3796 22.9217C26.822 23.0784 27.1759 22.8434 27.1759 22.4518L29.4763 20.7286L30.8034 19.7887L31.5997 19.3187L32.396 18.8488C36.7313 16.3423 41.2436 15.7941 41.2436 15.3241C41.2436 14.8541 41.2436 15.3241 40.3588 15.3241C39.6528 15.2613 38.9414 15.2613 38.2354 15.3241C35.855 15.6175 33.5671 16.337 31.5112 17.4389V17.4389Z" fill="white"/>
</g>
</g>
<g opacity="0.3">
<path opacity="0.3" d="M282.33 45.8798C282.917 45.8798 283.392 45.459 283.392 44.9399C283.392 44.4208 282.917 44 282.33 44C281.744 44 281.269 44.4208 281.269 44.9399C281.269 45.459 281.744 45.8798 282.33 45.8798Z" fill="white"/>
<path opacity="0.3" d="M282.33 44C282.573 44.0384 282.79 44.1567 282.937 44.3312C283.085 44.5056 283.153 44.7231 283.126 44.9399C283.085 45.1403 282.964 45.3211 282.786 45.4502C282.608 45.5793 282.383 45.6482 282.153 45.6449V45.6449C282.057 45.6864 281.951 45.708 281.844 45.708C281.736 45.708 281.63 45.6864 281.534 45.6449C281.459 45.4681 281.459 45.2734 281.534 45.0966C281.554 44.8948 281.653 44.7056 281.815 44.5624C281.977 44.4191 282.191 44.331 282.419 44.3133V44.3133L282.33 44ZM282.419 44.3133C282.185 44.3401 281.967 44.4296 281.793 44.5696C281.619 44.7097 281.498 44.8936 281.445 45.0966C281.42 45.2157 281.424 45.3383 281.455 45.4562C281.487 45.5741 281.547 45.6848 281.631 45.7809C281.714 45.877 281.82 45.9564 281.94 46.014C282.061 46.0715 282.194 46.1059 282.33 46.1148C282.584 46.1179 282.83 46.0407 283.025 45.897C283.219 45.7534 283.35 45.5528 283.392 45.3315C283.418 45.0941 283.341 44.8568 283.177 44.6677C283.012 44.4787 282.773 44.3519 282.507 44.3133H282.419Z" fill="url(#paint3_linear_340_1675)"/>
</g>
<g opacity="0.01">
<path opacity="0.01" d="M277.157 53.9994C280.365 52.0214 281.991 49.1806 280.79 47.6543C279.589 46.128 276.016 46.4941 272.808 48.4722C269.6 50.4502 267.974 53.291 269.175 54.8173C270.375 56.3437 273.949 55.9775 277.157 53.9994Z" fill="white"/>
<path opacity="0.01" d="M278.26 47.2119C278.66 47.166 279.067 47.2142 279.44 47.3517C279.813 47.4892 280.138 47.7111 280.383 47.9952C280.914 48.5434 280.826 49.4834 280.383 50.5799C279.594 51.8645 278.473 52.9651 277.11 53.7913C275.577 54.7602 273.769 55.33 271.89 55.4361C271.476 55.4807 271.057 55.4322 270.67 55.2953C270.284 55.1584 269.942 54.9375 269.678 54.6529C268.616 53.3213 270.297 50.6582 273.217 48.8567C274.73 47.8555 276.549 47.2822 278.437 47.2119H278.26ZM278.437 46.7419C276.447 46.8494 274.539 47.4763 272.951 48.5434C269.766 50.5016 268.085 53.3997 269.324 54.8879C269.614 55.2407 270.004 55.5203 270.454 55.6989C270.904 55.8775 271.399 55.9489 271.89 55.9061C273.969 55.8355 275.974 55.2072 277.641 54.1046C280.826 52.1464 282.418 49.2484 281.268 47.7602C280.966 47.4183 280.575 47.1468 280.128 46.9693C279.681 46.7919 279.191 46.7138 278.702 46.7419H278.437Z" fill="url(#paint4_linear_340_1675)"/>
</g>
<g opacity="0.03">
<path opacity="0.03" d="M276.904 53.6776C279.751 51.9221 281.198 49.4056 280.137 48.0567C279.076 46.7079 275.908 47.0376 273.061 48.7931C270.214 50.5486 268.767 53.0651 269.828 54.414C270.889 55.7628 274.057 55.4331 276.904 53.6776Z" fill="white"/>
<path opacity="0.03" d="M277.641 47.6807C278.006 47.646 278.375 47.6922 278.714 47.8153C279.054 47.9383 279.354 48.1343 279.587 48.3856C279.821 48.7282 279.945 49.1209 279.945 49.5214C279.945 49.9218 279.821 50.3145 279.587 50.6571C278.915 51.8105 277.907 52.784 276.667 53.4768C275.322 54.3463 273.728 54.8622 272.067 54.965C271.714 55.001 271.358 54.9549 271.032 54.8312C270.706 54.7076 270.422 54.5107 270.209 54.2601C269.974 53.9176 269.851 53.5248 269.851 53.1244C269.851 52.7239 269.974 52.3312 270.209 51.9886C270.916 50.7448 271.985 49.6904 273.305 48.9339C274.602 48.188 276.097 47.7559 277.641 47.6807ZM277.641 47.6807C275.909 47.7769 274.247 48.3216 272.863 49.2472C270.032 50.9704 268.616 53.5552 269.678 54.8867C269.943 55.175 270.282 55.4035 270.666 55.5533C271.051 55.703 271.47 55.7699 271.89 55.7483C273.652 55.6674 275.346 55.1219 276.756 54.1818C279.587 52.4586 281.003 49.8738 279.941 48.5423C279.719 48.1702 279.389 47.8577 278.984 47.6373C278.58 47.4168 278.116 47.2966 277.641 47.2891V47.6807Z" fill="url(#paint5_linear_340_1675)"/>
</g>
<g opacity="0.05">
<path opacity="0.05" d="M276.702 53.4201C279.228 51.8624 280.506 49.6213 279.556 48.4144C278.607 47.2076 275.789 47.492 273.263 49.0497C270.737 50.6074 269.459 52.8485 270.409 54.0553C271.358 55.2622 274.176 54.9778 276.702 53.4201Z" fill="white"/>
<path opacity="0.05" d="M277.641 47.7595C277.959 47.7272 278.28 47.7679 278.574 47.8776C278.869 47.9874 279.126 48.1625 279.322 48.3861C280.118 49.4044 278.88 51.5192 276.579 52.9291C275.408 53.7301 273.988 54.1947 272.51 54.2606C272.192 54.2929 271.871 54.2522 271.576 54.1425C271.282 54.0327 271.024 53.8576 270.828 53.634C269.944 52.6157 270.828 50.5009 273.571 49.0911C274.784 48.4014 276.2 48.0469 277.641 48.0728V48.0728V47.7595ZM277.641 48.0728C276.107 48.0153 274.582 48.3123 273.217 48.9344C270.74 50.5009 269.413 52.7724 270.386 53.9473C270.623 54.2192 270.934 54.4336 271.29 54.5705C271.646 54.7074 272.035 54.7625 272.421 54.7306C273.967 54.6587 275.45 54.1664 276.668 53.3207C279.234 51.8325 280.472 49.561 279.499 48.3078C279.258 48.0963 278.965 47.9368 278.642 47.8417C278.32 47.7466 277.978 47.7185 277.641 47.7595V48.0728Z" fill="url(#paint6_linear_340_1675)"/>
</g>
<g opacity="0.1">
<path opacity="0.1" d="M276.601 53.2923C278.967 51.8335 280.16 49.7301 279.266 48.5942C278.372 47.4584 275.73 47.7201 273.364 49.1789C270.999 50.6377 269.806 52.7411 270.699 53.877C271.593 55.0128 274.235 54.751 276.601 53.2923Z" fill="white"/>
<path opacity="0.1" d="M277.641 47.9947C277.937 47.9667 278.236 48.0018 278.513 48.0972C278.79 48.1926 279.037 48.3455 279.234 48.543C279.42 48.8288 279.518 49.153 279.518 49.4829C279.518 49.8129 279.42 50.1371 279.234 50.4229C278.687 51.3802 277.863 52.1913 276.845 52.7726C275.737 53.5023 274.417 53.9371 273.04 54.0259C272.745 54.054 272.446 54.0188 272.169 53.9234C271.891 53.828 271.644 53.6751 271.448 53.4776C270.651 52.4593 271.448 50.5012 274.014 49.1696C275.108 48.5872 276.365 48.2887 277.641 48.308V48.308V47.9947ZM277.641 48.308C276.209 48.3929 274.831 48.8266 273.66 49.5613C271.271 51.0495 270.032 53.1643 271.005 54.2608C271.219 54.5115 271.503 54.7083 271.828 54.832C272.154 54.9556 272.511 55.0018 272.863 54.9658C274.293 54.8693 275.667 54.4367 276.845 53.7126C279.234 52.2244 280.384 50.1096 279.499 49.013C279.315 48.7154 279.048 48.4651 278.722 48.2866C278.396 48.1081 278.024 48.0075 277.641 47.9947V48.308Z" fill="url(#paint7_linear_340_1675)"/>
</g>
<g opacity="0.1">
<path opacity="0.1" d="M276.5 53.1635C278.705 51.8036 279.814 49.8379 278.976 48.773C278.138 47.7082 275.671 47.9473 273.466 49.3072C271.26 50.6671 270.152 52.6328 270.99 53.6977C271.828 54.7625 274.295 54.5234 276.5 53.1635Z" fill="white"/>
<path opacity="0.1" d="M277.641 48.464C277.921 48.4589 278.199 48.505 278.458 48.5993C278.717 48.6937 278.951 48.8342 279.145 49.0123C279.853 49.9522 278.703 51.7537 276.756 53.0069C275.719 53.6753 274.496 54.0814 273.217 54.1818C272.937 54.1919 272.657 54.1481 272.397 54.0534C272.138 53.9588 271.904 53.8155 271.713 53.6335C271.005 52.6936 271.713 50.8921 274.102 49.6389C275.131 48.9558 276.359 48.548 277.641 48.464V48.464ZM277.641 48.464C276.299 48.5225 275.006 48.9313 273.925 49.6389C271.713 50.9704 270.563 52.9286 271.448 54.0252C271.671 54.2398 271.946 54.4074 272.252 54.5158C272.559 54.6243 272.888 54.6707 273.217 54.6518C274.557 54.5799 275.846 54.1724 276.933 53.4769C279.145 52.1453 280.207 50.1872 279.411 49.0906C279.201 48.8606 278.928 48.6822 278.618 48.5725C278.309 48.4627 277.972 48.4254 277.641 48.464V48.464Z" fill="url(#paint8_linear_340_1675)"/>
</g>
<g opacity="0.1">
<path opacity="0.1" d="M276.398 53.0348C278.483 51.7491 279.539 49.9011 278.757 48.9073C277.975 47.9134 275.651 48.15 273.566 49.4357C271.481 50.7214 270.425 52.5694 271.207 53.5633C271.989 54.5571 274.313 54.3205 276.398 53.0348Z" fill="white"/>
<path opacity="0.1" d="M277.021 48.3857V48.934C277.29 48.9185 277.558 48.9602 277.804 49.0556C278.051 49.151 278.268 49.2974 278.437 49.4823C278.609 49.7295 278.7 50.0143 278.7 50.3047C278.7 50.5952 278.609 50.8799 278.437 51.1272C277.931 51.9729 277.203 52.6984 276.313 53.242C275.312 53.8354 274.153 54.1864 272.951 54.2602C272.657 54.3029 272.355 54.262 272.088 54.1435C271.821 54.025 271.603 53.8349 271.466 53.6003C271.329 53.3657 271.279 53.0987 271.323 52.8374C271.367 52.5762 271.504 52.3339 271.713 52.1454C272.188 51.2816 272.923 50.5501 273.836 50.0306C274.751 49.3921 275.86 49.0102 277.021 48.934V48.3857ZM277.021 48.934C275.762 49.0005 274.556 49.411 273.571 50.1089C271.447 51.3621 270.474 53.1636 271.182 54.1819C271.392 54.3903 271.652 54.5547 271.943 54.6631C272.233 54.7715 272.548 54.8212 272.863 54.8085C274.151 54.7478 275.386 54.3376 276.402 53.6336C278.437 52.3804 279.499 50.5789 278.702 49.5606C278.496 49.3476 278.237 49.18 277.946 49.0713C277.654 48.9625 277.337 48.9155 277.021 48.934V48.934Z" fill="url(#paint9_linear_340_1675)"/>
</g>
<g opacity="0.1">
<path opacity="0.1" d="M276.297 52.9072C278.262 51.6956 279.266 49.9653 278.54 49.0424C277.814 48.1196 275.632 48.3536 273.668 49.5651C271.703 50.7766 270.699 52.5069 271.425 53.4298C272.151 54.3527 274.333 54.1187 276.297 52.9072Z" fill="white"/>
<path opacity="0.1" d="M276.933 48.9355C277.18 48.9102 277.432 48.94 277.663 49.022C277.895 49.104 278.1 49.2358 278.26 49.4055C278.415 49.6579 278.496 49.9406 278.496 50.2279C278.496 50.5152 278.415 50.7979 278.26 51.0503C277.749 51.8038 277.053 52.4462 276.225 52.9301C275.319 53.5819 274.205 53.9654 273.04 54.0267C272.788 54.0197 272.541 53.9675 272.313 53.8732C272.084 53.7789 271.88 53.6446 271.713 53.4784C271.093 52.6952 271.713 51.1286 273.924 49.9537C274.792 49.3597 275.839 49.0055 276.933 48.9355V48.9355ZM276.933 48.9355C275.744 49.0103 274.606 49.3915 273.659 50.0321C271.713 51.207 270.651 52.9301 271.447 53.87C271.621 54.0756 271.849 54.2402 272.111 54.3494C272.373 54.4587 272.662 54.5093 272.951 54.4967C274.168 54.4278 275.337 54.0468 276.313 53.4001C278.26 52.2252 279.233 50.502 278.525 49.5621C278.333 49.3553 278.089 49.191 277.813 49.0822C277.536 48.9734 277.235 48.9232 276.933 48.9355Z" fill="url(#paint10_linear_340_1675)"/>
</g>
<g opacity="0.1">
<path opacity="0.1" d="M276.247 52.8426C278.091 51.7053 279.021 50.0639 278.322 49.1765C277.624 48.2891 275.563 48.4917 273.718 49.6291C271.874 50.7665 270.945 52.4079 271.643 53.2952C272.341 54.1826 274.403 53.98 276.247 52.8426Z" fill="white"/>
<path opacity="0.1" d="M276.845 48.9349C277.08 48.9159 277.315 48.949 277.532 49.031C277.748 49.1131 277.938 49.2416 278.084 49.4049C278.231 49.6311 278.309 49.8877 278.309 50.149C278.309 50.4102 278.231 50.6668 278.084 50.893C277.553 51.6483 276.843 52.2919 276.003 52.7789C275.162 53.2659 274.212 53.5846 273.218 53.7128C272.983 53.7395 272.744 53.71 272.526 53.6274C272.308 53.5447 272.119 53.4119 271.979 53.2428C271.979 53.2428 271.979 52.3812 271.979 51.7546C272.424 51.0297 273.062 50.4115 273.837 49.9531C274.712 49.3708 275.754 49.018 276.845 48.9349V48.9349ZM276.845 48.9349C275.727 49.0159 274.655 49.3682 273.749 49.9531C271.891 51.128 270.917 52.6946 271.625 53.6345C271.812 53.8209 272.045 53.9671 272.306 54.0621C272.566 54.1571 272.848 54.1983 273.129 54.1828C274.248 54.1017 275.319 53.7494 276.226 53.1645C278.084 51.9896 278.969 50.3448 278.261 49.4832C278.087 49.303 277.869 49.16 277.624 49.065C277.379 48.97 277.113 48.9256 276.845 48.9349V48.9349Z" fill="url(#paint11_linear_340_1675)"/>
</g>
<g opacity="0.1">
<path opacity="0.1" d="M275.925 52.9732C277.648 51.9129 278.525 50.392 277.885 49.5762C277.244 48.7603 275.328 48.9584 273.605 50.0187C271.882 51.079 271.005 52.5999 271.645 53.4157C272.286 54.2316 274.202 54.0334 275.925 52.9732Z" fill="white"/>
<path opacity="0.1" d="M276.756 48.9341C276.968 48.9238 277.18 48.9533 277.379 49.0208C277.577 49.0883 277.757 49.1923 277.906 49.3257C278.038 49.5424 278.107 49.7846 278.107 50.0307C278.107 50.2767 278.038 50.5189 277.906 50.7356C277.492 51.4343 276.883 52.0275 276.137 52.4588C275.321 53.0167 274.335 53.3442 273.306 53.3987C273.085 53.4114 272.864 53.3751 272.663 53.293C272.462 53.211 272.288 53.0857 272.155 52.9287C272.003 52.7329 271.922 52.5007 271.922 52.263C271.922 52.0252 272.003 51.7931 272.155 51.5972C272.569 50.8985 273.179 50.3053 273.925 49.874C274.735 49.3072 275.725 48.9786 276.756 48.9341V48.9341ZM276.756 48.9341C275.672 48.9857 274.628 49.312 273.748 49.874C272.067 50.9706 271.182 52.5371 271.801 53.3204C271.965 53.5106 272.181 53.6608 272.429 53.7567C272.677 53.8526 272.948 53.8911 273.217 53.8687C274.277 53.8299 275.297 53.5016 276.137 52.9287C277.906 51.8322 278.791 50.2656 278.083 49.4824C277.933 49.2985 277.732 49.1515 277.5 49.0556C277.268 48.9596 277.012 48.9178 276.756 48.9341Z" fill="url(#paint12_linear_340_1675)"/>
</g>
<g opacity="0.1">
<path opacity="0.1" d="M276.095 52.6486C277.739 51.6349 278.574 50.18 277.959 49.3991C277.345 48.6182 275.514 48.807 273.87 49.8207C272.226 50.8345 271.392 52.2893 272.006 53.0702C272.621 53.8511 274.451 53.6624 276.095 52.6486Z" fill="white"/>
<path opacity="0.1" d="M276.579 48.934C277.021 48.934 277.464 48.934 277.729 48.934C277.995 48.934 277.729 49.7172 277.729 50.2655C277.29 50.8799 276.719 51.4122 276.048 51.832C275.279 52.3454 274.355 52.6453 273.394 52.6936C273.394 52.6936 272.509 52.6936 272.332 52.302C272.18 52.1061 272.098 51.8739 272.098 51.6362C272.098 51.3985 272.18 51.1663 272.332 50.9704C272.693 50.3053 273.281 49.7574 274.013 49.4039C274.804 49.0425 275.691 48.88 276.579 48.934ZM276.579 48.934C275.593 48.9934 274.644 49.2914 273.836 49.7955C272.244 50.8138 271.359 52.302 271.978 53.0852C272.147 53.2451 272.353 53.3701 272.582 53.4513C272.812 53.5325 273.059 53.568 273.305 53.5552C274.294 53.5083 275.247 53.2091 276.048 52.6936C277.729 51.6754 278.525 50.1872 277.906 49.4039C277.741 49.2394 277.536 49.1113 277.305 49.0297C277.075 48.9481 276.826 48.9153 276.579 48.934V48.934Z" fill="url(#paint13_linear_340_1675)"/>
</g>
<g opacity="0.1">
<path opacity="0.1" d="M275.824 52.8448C277.347 51.9078 278.107 50.5443 277.522 49.7994C276.937 49.0545 275.229 49.2102 273.706 50.1472C272.184 51.0842 271.423 52.4476 272.008 53.1925C272.593 53.9374 274.302 53.7817 275.824 52.8448Z" fill="white"/>
<path opacity="0.1" d="M276.49 49.3262C276.658 49.2615 276.838 49.2281 277.021 49.2281C277.204 49.2281 277.384 49.2615 277.552 49.3262C277.552 49.3262 277.552 50.0311 277.552 50.5794C277.195 51.2015 276.642 51.7185 275.959 52.0676C275.262 52.5873 274.392 52.89 273.482 52.9292C273.315 52.9939 273.134 53.0273 272.951 53.0273C272.768 53.0273 272.588 52.9939 272.42 52.9292C272.311 52.7345 272.254 52.52 272.254 52.3026C272.254 52.0852 272.311 51.8707 272.42 51.676C272.826 51.0638 273.368 50.5309 274.013 50.1095C274.751 49.6685 275.603 49.3992 276.49 49.3262V49.3262ZM276.49 49.3262C275.566 49.3577 274.674 49.6302 273.924 50.1095C272.42 51.1277 271.624 52.4592 272.155 53.1642C272.306 53.3224 272.496 53.4473 272.711 53.5288C272.926 53.6104 273.16 53.6465 273.394 53.6341C274.363 53.6237 275.3 53.3197 276.048 52.7726C277.552 51.8326 278.348 50.5011 277.729 49.7962C277.109 49.0912 277.109 48.9346 276.49 48.9346V49.3262Z" fill="url(#paint14_linear_340_1675)"/>
</g>
<g opacity="0.1">
<path opacity="0.1" d="M275.994 52.5207C277.437 51.6305 278.155 50.3335 277.596 49.6236C277.037 48.9136 275.414 49.0597 273.971 49.9498C272.528 50.8399 271.81 52.137 272.369 52.8469C272.927 53.5569 274.55 53.4108 275.994 52.5207Z" fill="white"/>
<path opacity="0.1" d="M276.402 49.4829C276.556 49.4247 276.722 49.3947 276.889 49.3947C277.056 49.3947 277.222 49.4247 277.376 49.4829C277.906 50.1095 277.376 51.2844 275.872 52.1459C275.167 52.5768 274.338 52.8213 273.483 52.8509C273.167 52.9464 272.825 52.9464 272.509 52.8509C272.067 52.2243 272.509 51.0494 274.102 50.1878C274.775 49.7591 275.574 49.5141 276.402 49.4829V49.4829ZM276.402 49.4829C275.54 49.5438 274.713 49.8149 274.014 50.2661C272.509 51.206 271.802 52.4592 272.332 53.1642C272.465 53.3212 272.639 53.4464 272.84 53.5285C273.041 53.6106 273.262 53.6469 273.483 53.6341C274.385 53.5648 275.246 53.2655 275.96 52.7726C277.376 51.911 278.083 50.6577 277.553 49.9528C277.532 49.6888 277.404 49.4403 277.193 49.2531C276.981 49.066 276.701 48.9528 276.402 48.9346V49.4829Z" fill="url(#paint15_linear_340_1675)"/>
</g>
<g opacity="0.2">
<path opacity="0.2" d="M275.893 52.393C277.216 51.5771 277.881 50.3977 277.379 49.7588C276.876 49.1198 275.396 49.2633 274.073 50.0793C272.749 50.8952 272.084 52.0746 272.587 52.7135C273.09 53.3524 274.57 53.2089 275.893 52.393Z" fill="white"/>
<path opacity="0.2" d="M276.314 49.6404C276.314 49.6404 277.021 49.6404 277.198 49.6404C277.375 49.6404 277.198 51.2852 275.783 51.9902C275.175 52.4153 274.433 52.6617 273.659 52.6951C273.509 52.7638 273.342 52.7996 273.173 52.7996C273.003 52.7996 272.836 52.7638 272.686 52.6951C272.244 52.1468 272.686 51.0502 274.19 50.267C274.824 49.8972 275.556 49.6811 276.314 49.6404ZM276.314 49.6404C275.506 49.7049 274.737 49.9772 274.102 50.4236C272.686 51.2069 272.067 52.3818 272.598 53.0084C273.128 53.635 273.128 53.0084 273.659 53.0084C274.457 52.9624 275.223 52.718 275.871 52.3035C277.198 51.5202 277.906 50.3453 277.375 49.6404C277.243 49.5088 277.079 49.4052 276.895 49.3374C276.711 49.2697 276.512 49.2393 276.314 49.2487V49.6404Z" fill="url(#paint16_linear_340_1675)"/>
</g>
<defs>
<filter id="filter0_d_340_1675" x="6" y="7" width="289" height="61" filterUnits="userSpaceOnUse" color-interpolation-filters="sRGB">
<feFlood flood-opacity="0" result="BackgroundImageFix"/>
<feColorMatrix in="SourceAlpha" type="matrix" values="0 0 0 0 0 0 0 0 0 0 0 0 0 0 0 0 0 0 127 0" result="hardAlpha"/>
<feOffset dx="-1" dy="4"/>
<feGaussianBlur stdDeviation="1.5"/>
<feComposite in2="hardAlpha" operator="out"/>
<feColorMatrix type="matrix" values="0 0 0 0 0 0 0 0 0 0 0 0 0 0 0 0 0 0 0.47 0"/>
<feBlend mode="normal" in2="BackgroundImageFix" result="effect1_dropShadow_340_1675"/>
<feBlend mode="normal" in="SourceGraphic" in2="effect1_dropShadow_340_1675" result="shape"/>
</filter>
<linearGradient id="paint0_linear_340_1675" x1="243.709" y1="139.356" x2="154.936" y2="-96.5545" gradientUnits="userSpaceOnUse">
<stop stop-color="#FAFAFA" stop-opacity="0.09"/>
<stop offset="0.145833" stop-color="white"/>
<stop offset="0.541667" stop-color="white"/>
<stop offset="0.864583" stop-color="#E0E0E0" stop-opacity="0"/>
<stop offset="1" stop-color="white" stop-opacity="0"/>
</linearGradient>
<linearGradient id="paint1_linear_340_1675" x1="30.5934" y1="-5.50001" x2="292.209" y2="73.566" gradientUnits="userSpaceOnUse">
<stop stop-color="white"/>
<stop offset="0.333692" stop-color="white" stop-opacity="0.17"/>
<stop offset="0.537787" stop-color="white" stop-opacity="0"/>
<stop offset="1" stop-color="#FEFEFE"/>
</linearGradient>
<radialGradient id="paint2_radial_340_1675" cx="0" cy="0" r="1" gradientUnits="userSpaceOnUse" gradientTransform="translate(149.528 29) rotate(86.4734) scale(32.0607 168.04)">
<stop stop-color="#69AEFF"/>
<stop offset="0.338695" stop-color="#61A2EF"/>
<stop offset="0.647248" stop-color="#609DE4"/>
<stop offset="1" stop-color="#5990D0"/>
</radialGradient>
<linearGradient id="paint3_linear_340_1675" x1="282.242" y1="45.8015" x2="282.45" y2="43.9935" gradientUnits="userSpaceOnUse">
<stop stop-color="white" stop-opacity="0"/>
<stop offset="1" stop-color="white" stop-opacity="0.6"/>
</linearGradient>
<linearGradient id="paint4_linear_340_1675" x1="269.147" y1="54.8879" x2="279.872" y2="46.5358" gradientUnits="userSpaceOnUse">
<stop stop-color="white" stop-opacity="0"/>
<stop offset="1" stop-color="white" stop-opacity="0.6"/>
</linearGradient>
<linearGradient id="paint5_linear_340_1675" x1="269.855" y1="54.4951" x2="279.267" y2="47.0714" gradientUnits="userSpaceOnUse">
<stop stop-color="white" stop-opacity="0"/>
<stop offset="1" stop-color="white" stop-opacity="0.6"/>
</linearGradient>
<linearGradient id="paint6_linear_340_1675" x1="270.386" y1="54.1039" x2="278.742" y2="47.5059" gradientUnits="userSpaceOnUse">
<stop stop-color="white" stop-opacity="0"/>
<stop offset="1" stop-color="white" stop-opacity="0.6"/>
</linearGradient>
<linearGradient id="paint7_linear_340_1675" x1="270.74" y1="53.9475" x2="278.53" y2="47.8066" gradientUnits="userSpaceOnUse">
<stop stop-color="white" stop-opacity="0"/>
<stop offset="1" stop-color="white" stop-opacity="0.6"/>
</linearGradient>
<linearGradient id="paint8_linear_340_1675" x1="271.005" y1="53.7902" x2="278.306" y2="48.0178" gradientUnits="userSpaceOnUse">
<stop stop-color="white" stop-opacity="0"/>
<stop offset="1" stop-color="white" stop-opacity="0.6"/>
</linearGradient>
<linearGradient id="paint9_linear_340_1675" x1="271.182" y1="53.6336" x2="278.083" y2="48.2226" gradientUnits="userSpaceOnUse">
<stop stop-color="white" stop-opacity="0"/>
<stop offset="1" stop-color="white" stop-opacity="0.6"/>
</linearGradient>
<linearGradient id="paint10_linear_340_1675" x1="271.447" y1="53.4784" x2="277.949" y2="48.4289" gradientUnits="userSpaceOnUse">
<stop stop-color="white" stop-opacity="0"/>
<stop offset="1" stop-color="white" stop-opacity="0.6"/>
</linearGradient>
<linearGradient id="paint11_linear_340_1675" x1="271.625" y1="53.3995" x2="277.702" y2="48.5485" gradientUnits="userSpaceOnUse">
<stop stop-color="white" stop-opacity="0"/>
<stop offset="1" stop-color="white" stop-opacity="0.6"/>
</linearGradient>
<linearGradient id="paint12_linear_340_1675" x1="271.801" y1="53.242" x2="277.57" y2="48.7453" gradientUnits="userSpaceOnUse">
<stop stop-color="white" stop-opacity="0"/>
<stop offset="1" stop-color="white" stop-opacity="0.6"/>
</linearGradient>
<linearGradient id="paint13_linear_340_1675" x1="271.978" y1="53.1636" x2="277.412" y2="48.8582" gradientUnits="userSpaceOnUse">
<stop stop-color="white" stop-opacity="0"/>
<stop offset="1" stop-color="white" stop-opacity="0.6"/>
</linearGradient>
<linearGradient id="paint14_linear_340_1675" x1="272.155" y1="53.0075" x2="277.279" y2="49.0566" gradientUnits="userSpaceOnUse">
<stop stop-color="white" stop-opacity="0"/>
<stop offset="1" stop-color="white" stop-opacity="0.6"/>
</linearGradient>
<linearGradient id="paint15_linear_340_1675" x1="272.332" y1="52.9292" x2="277.122" y2="49.1695" gradientUnits="userSpaceOnUse">
<stop stop-color="white" stop-opacity="0"/>
<stop offset="1" stop-color="white" stop-opacity="0.6"/>
</linearGradient>
<linearGradient id="paint16_linear_340_1675" x1="272.598" y1="52.7734" x2="276.975" y2="49.2937" gradientUnits="userSpaceOnUse">
<stop stop-color="white" stop-opacity="0"/>
<stop offset="1" stop-color="white" stop-opacity="0.6"/>
</linearGradient>
</defs>
</svg>
