<svg width="34" height="34" viewBox="0 0 34 34" fill="none" xmlns="http://www.w3.org/2000/svg">
<path fill-rule="evenodd" clip-rule="evenodd" d="M16.4088 0.0561809C15.192 0.295067 14.185 1.36726 14.0102 2.60975C13.9718 2.8826 13.9442 5.25005 13.9435 8.33357L13.9421 13.5921L13.7669 13.7673L13.5916 13.9425L8.33278 13.9439C5.24906 13.9446 2.88144 13.9722 2.60857 14.0106C0.96158 14.2422 -0.229741 15.8353 0.037545 17.4486C0.257436 18.7752 1.29361 19.7987 2.60857 19.988C2.88928 20.0284 5.16012 20.0555 8.33278 20.0563L13.5916 20.0576L13.7669 20.2328L13.9421 20.4081L13.9435 25.6666C13.9442 28.7501 13.9718 31.1175 14.0102 31.3904C14.1947 32.7021 15.226 33.7416 16.5626 33.9631C18.1643 34.2284 19.7587 33.0315 19.9895 31.3904C20.0279 31.1175 20.0555 28.7501 20.0563 25.6666L20.0576 20.4081L20.2328 20.2328L20.4081 20.0576L25.667 20.0563C28.8396 20.0555 31.1105 20.0284 31.3912 19.988C32.7061 19.7987 33.7423 18.7752 33.9622 17.4486C34.2298 15.8333 33.0455 14.2503 31.3912 14.0121C31.1105 13.9717 28.8396 13.9447 25.667 13.9439L20.4081 13.9425L20.2328 13.7673L20.0576 13.5921L20.0563 8.33357C20.0555 5.16112 20.0284 2.89044 19.988 2.60975C19.7415 0.897533 18.0975 -0.275428 16.4088 0.0561809Z" fill="white"/>
</svg>
