<svg width="28" height="35" viewBox="0 0 28 35" fill="none" xmlns="http://www.w3.org/2000/svg">
<path d="M2.99512 4C2.99512 1.79086 4.78598 0 6.99512 0H20.7447C22.9539 0 24.7447 1.79086 24.7447 4V11.4609H2.99512V4Z" fill="white"/>
<path fill-rule="evenodd" clip-rule="evenodd" d="M12.2412 1.73746C9.09515 2.03596 6.28411 3.05188 4.13396 4.66734C3.48994 5.15117 2.51518 6.1077 2.04522 6.71701C1.3168 7.66136 0.690623 8.93801 0.3593 10.154C0.0150828 11.4175 0.00140798 11.6938 0.000105604 17.4023C-0.00100141 22.4642 0.00433818 22.7041 0.12878 23.1979C0.490774 24.6336 1.51346 25.8936 2.80704 26.4974C3.21937 26.6899 3.24295 26.7136 3.34434 27.035C3.61627 27.8978 4.48319 29.385 5.29867 30.3876C7.64535 33.2729 11.265 35.146 14.1948 34.9914C18.1879 34.7806 22.6142 31.3767 24.2883 27.2294L24.4986 26.7084L24.997 26.4649C26.2758 25.8401 27.2696 24.5725 27.6125 23.1285C27.7413 22.5861 27.7443 22.4189 27.7215 17.0533C27.6987 11.6846 27.6943 11.5183 27.5571 10.8881C26.8311 7.55307 24.8103 5.03174 21.5511 3.39492C20.1231 2.67777 18.3523 2.13462 16.5656 1.86581C15.526 1.70939 13.2493 1.64186 12.2412 1.73746ZM14.5591 13.2603C16.501 15.5914 19.1313 17.0925 21.9765 17.4933C22.263 17.5337 22.5948 17.5814 22.7139 17.5994L22.9304 17.6321L22.9021 21.1935C22.8715 25.024 22.8737 24.9971 22.5026 26.0789C21.4717 29.0834 18.317 31.9849 15.2547 32.7452C14.5099 32.93 13.2739 32.9464 12.5878 32.7804C10.8132 32.3511 9.22435 31.4138 7.71002 29.9027C6.21287 28.4087 5.41146 27.047 4.96774 25.2432C4.88068 24.8891 4.85919 24.2327 4.83627 21.226L4.80892 17.6319L5.02492 17.5993C5.14376 17.5814 5.47541 17.5337 5.76193 17.4933C7.65427 17.2267 9.43175 16.4883 11.0691 15.2884C11.7134 14.8163 12.8565 13.6978 13.4332 12.9755L13.8953 12.3966L13.9962 12.5511C14.0517 12.6361 14.305 12.9552 14.5591 13.2603ZM8.43179 18.4278C8.00403 18.5696 7.78835 18.7057 7.506 19.012C7.17123 19.3752 7.06697 19.5769 6.96942 20.05C6.78266 20.9564 7.29391 21.9242 8.17132 22.325C8.6657 22.5509 9.41228 22.5378 9.90744 22.2947C10.3124 22.0959 10.6572 21.7537 10.887 21.3228C11.0124 21.0877 11.0361 20.9444 11.0361 20.4245C11.0361 19.7315 10.9395 19.4697 10.5069 18.9909C10.0344 18.4677 9.08701 18.2107 8.43179 18.4278ZM18.0501 18.46C17.6192 18.6139 17.284 18.8784 17.0121 19.2794C16.7347 19.6882 16.6485 20.0324 16.6843 20.5873C16.7332 21.3418 17.1477 21.9592 17.8309 22.2947C18.1422 22.4475 18.2807 22.4754 18.7205 22.4741C19.4015 22.4719 19.8078 22.2969 20.2466 21.8167C20.9886 21.0049 20.9886 19.8441 20.2466 19.0322C19.6888 18.4219 18.8032 18.1912 18.0501 18.46ZM10.0717 26.0523C9.45324 26.2769 9.19993 26.9038 9.48502 27.5045C9.73136 28.0237 11.239 28.9611 12.274 29.2386C13.5055 29.5688 15.0153 29.4733 16.1809 28.9914C17.0564 28.6295 18.0189 27.9439 18.242 27.5234C18.4739 27.0864 18.3662 26.5164 17.997 26.226C17.5654 25.8865 17.0467 25.9257 16.5566 26.3348C15.696 27.0534 14.9237 27.3432 13.8692 27.3432C12.8014 27.3432 12.0937 27.0755 11.168 26.3215C10.9676 26.1583 10.7534 26.0243 10.6921 26.0238C10.6308 26.0233 10.5221 26.0092 10.4505 25.9925C10.3788 25.9758 10.2084 26.0027 10.0717 26.0523Z" fill="white"/>
</svg>
