<svg width="36" height="41" viewBox="0 0 36 41" fill="none" xmlns="http://www.w3.org/2000/svg">
<path d="M2.22331 16.4861C3.20959 15.3259 4.31444 14.2747 5.5194 13.3499L9.14509 10.5474C12.3753 8.07852 15.7373 5.67633 18.9674 3.40761C19.6881 2.85755 20.4362 2.34531 21.2088 1.8729C21.9261 1.26429 22.8451 0.954251 23.7797 1.00547C24.283 1.05573 24.7652 1.23537 25.1805 1.52733C25.5959 1.8193 25.9306 2.21389 26.1529 2.67364C26.3873 3.17324 26.5003 3.7223 26.4825 4.27507V10.0136C26.4825 11.2147 28.0647 10.9478 28.7898 10.9478C29.5149 10.9478 31.4926 10.9478 32.811 10.9478C33.3723 10.9737 33.914 11.164 34.3704 11.4957C34.8268 11.8274 35.1782 12.2861 35.382 12.8161C35.581 13.7844 35.581 14.7838 35.382 15.7521C35.382 18.0208 35.382 20.2228 35.382 22.4248C35.382 23.5591 35.382 24.6935 35.382 25.8278C35.4479 26.8276 35.4479 27.8308 35.382 28.8306C35.3053 29.3697 35.0787 29.8756 34.7284 30.2892C34.3782 30.7028 33.919 31.0069 33.4043 31.166C32.8375 31.2684 32.2572 31.2684 31.6904 31.166H27.9328C27.5373 31.166 27.0099 31.166 26.6803 31.166C26.3507 31.166 26.6803 31.8333 26.6803 32.2337V36.2373C26.8819 37.4664 26.6234 38.7274 25.9552 39.7738C25.6369 40.1521 25.225 40.438 24.7617 40.6022C24.2983 40.7663 23.8002 40.8028 23.3183 40.7079C22.3982 40.7107 21.492 40.4814 20.6814 40.0407C18.9674 38.8396 17.3194 37.5718 15.7373 36.2373C12.4412 33.5682 9.14509 30.7656 6.11269 27.7629C4.62673 26.4585 3.29901 24.9802 2.15738 23.359C1.40849 22.4122 1.00046 21.2355 1.00046 20.0226C1.00046 18.8098 1.40849 17.6331 2.15738 16.6863L2.22331 16.4861Z" fill="#FDFBF5" stroke="#A47E00" stroke-width="0.07" stroke-miterlimit="10"/>
</svg>
