<svg width="35" height="125" viewBox="0 0 35 125" fill="none" xmlns="http://www.w3.org/2000/svg">
<g clip-path="url(#clip0_57_2043)">
<path d="M1.86279 116.656V120.522C1.86279 122.662 8.86279 124.4 17.5001 124.4C26.1374 124.4 33.1374 122.662 33.1374 120.522V116.656H1.86279Z" fill="#3D5B02"/>
<path d="M17.5 1.64084C14.2966 1.64084 11.6983 1.35712 11.6983 1.01428L10.9034 14.4913C10.8793 14.8727 11.0021 15.249 11.2468 15.5434C11.4915 15.8377 11.8397 16.028 12.2203 16.0754C13.9744 16.2549 15.7367 16.3417 17.5 16.3355C19.2632 16.3419 21.0256 16.2551 22.7796 16.0754C23.1603 16.028 23.5085 15.8377 23.7532 15.5434C23.9979 15.249 24.1207 14.8727 24.0966 14.4913L23.3017 1.01428C23.3017 1.35712 20.7034 1.64084 17.5 1.64084Z" fill="#FFEE50"/>
<path d="M17.4999 0.399536C14.2965 0.399536 11.6982 0.67144 11.6982 1.01428C11.6982 1.35711 14.2965 1.64084 17.4999 1.64084C20.7033 1.64084 23.3016 1.35711 23.3016 1.01428C23.3016 0.67144 20.7033 0.399536 17.4999 0.399536Z" fill="#EAB50A"/>
<path d="M30.8475 64.096L28.4746 55.4542C24.5502 42.9608 22.55 29.9466 22.5424 16.8556V16.0872C20.8406 16.2743 19.1289 16.3572 17.417 16.3355C16.3136 16.3355 13.3593 16.2054 12.3034 16.0872V17.033C12.3052 30.0073 10.3454 42.9079 6.48983 55.3005L4.06949 64.2378C1.3684 74.0483 -0.000296026 84.1753 4.80244e-08 94.3482L4.80244e-08 116.514C4.80244e-08 118.879 7.83051 120.841 17.5 120.841C27.1695 120.841 35 118.902 35 116.514V94.4783C34.9931 84.2109 33.5963 73.9913 30.8475 64.096Z" fill="#4F7F03"/>
<g opacity="0.5">
<path d="M34.5493 90.3643C34.2527 81.0368 31.8323 71.9221 29.4238 62.902L25.7221 49.0349V49.3422L20.5967 49.4486C20.3476 49.4486 20.0628 49.4486 19.9442 49.6851C19.8792 49.8524 19.8792 50.0379 19.9442 50.2052C22.4476 60.1829 25.4967 70.0424 27.0628 80.1856C28.6289 90.3288 28.8543 100.886 25.5798 110.674C25.0645 112.468 24.2064 114.146 23.0527 115.616C21.5209 117.194 19.7007 118.466 17.6899 119.363C21.7476 120.049 25.8764 119.233 29.9103 118.406C31.5594 118.075 33.4696 117.543 34.1221 116.041C34.3915 115.177 34.4484 114.261 34.2882 113.37C33.5882 105.697 34.7866 98.0249 34.5493 90.3643Z" fill="#204400"/>
</g>
<path d="M17.5 59.982C13.4859 60.0287 9.479 59.6322 5.55254 58.7998L4.85254 61.3651C8.99821 62.322 13.245 62.7745 17.5 62.7128C21.7427 62.7765 25.9775 62.328 30.1119 61.377L29.4119 58.8116C25.4958 59.6325 21.5015 60.025 17.5 59.982Z" fill="#FFEE50"/>
<g opacity="0.5">
<path d="M33.3271 91.7711C33.1017 89.6195 32.7576 87.4797 32.4254 85.3518C31.3023 78.2035 30.1791 71.0512 29.056 63.895C28.5556 59.7271 27.5926 55.6274 26.1848 51.6712C25.9475 51.0682 25.4492 50.3707 24.8678 50.3826H25.117C23.9305 50.3826 22.4356 50.619 22.3288 51.7657C22.3237 52.1353 22.4092 52.5005 22.578 52.8297C26.413 61.535 29.2008 70.6619 30.8831 80.0201C32.5462 89.3929 32.1414 99.0141 29.6966 108.215C28.7119 111.691 27.1695 115.308 24.0966 117.224C23.3729 117.661 22.5068 118.134 22.4 118.973C24.8696 118.823 27.3098 118.358 29.661 117.59C30.387 117.436 31.0753 117.141 31.6862 116.721C32.2971 116.301 32.8185 115.765 33.2204 115.143C33.5591 114.299 33.705 113.39 33.6475 112.483C33.6475 110.331 33.6475 108.18 33.7068 106.028C33.8476 101.273 33.7208 96.5127 33.3271 91.7711Z" fill="#193301"/>
</g>
<path d="M7.75927 51.0328C7.36775 52.4632 6.95249 53.8937 6.57283 55.3005L5.61182 58.8471C9.53828 59.6795 13.5452 60.0759 17.5593 60.0292C21.5454 60.0649 25.5236 59.6685 29.4237 58.8471L28.4745 55.4542C28.0118 53.9883 27.5847 52.5223 27.1813 51.0446C23.9793 51.549 20.7416 51.7941 17.5 51.7776C14.238 51.7973 10.98 51.5482 7.75927 51.0328Z" fill="#3F0501"/>
<path d="M17.5 51.7776C20.7416 51.7941 23.9794 51.549 27.1813 51.0446C26.944 50.1698 26.7305 49.295 26.505 48.4083C23.5232 48.8403 20.5131 49.0497 17.5 49.0349C14.4633 49.0438 11.43 48.8344 8.42368 48.4083C8.21012 49.2831 7.99657 50.158 7.75928 51.0328C10.98 51.5482 14.238 51.7973 17.5 51.7776Z" fill="#FFEE50"/>
<path d="M26.5052 48.4083C23.8888 38.0928 22.5578 27.4954 22.5425 16.8556V16.0872C20.8407 16.2743 19.129 16.3572 17.417 16.3355C16.3137 16.3355 13.3594 16.2054 12.3035 16.0872V17.033C12.3031 27.6102 11.0001 38.1473 8.42383 48.4083C11.4302 48.8344 14.4635 49.0438 17.5001 49.0349C20.5133 49.0497 23.5233 48.8403 26.5052 48.4083Z" fill="#EAB50A"/>
<path d="M17.4762 105.023C23.249 105.023 27.9288 97.714 27.9288 88.6974C27.9288 79.6807 23.249 72.3713 17.4762 72.3713C11.7034 72.3713 7.02368 79.6807 7.02368 88.6974C7.02368 97.714 11.7034 105.023 17.4762 105.023Z" fill="white"/>
<path d="M17.4762 70.5153C10.6779 70.5153 5.17285 78.6724 5.17285 88.6974C5.17285 98.7224 10.6779 106.868 17.4762 106.868C24.2745 106.868 29.7915 98.7224 29.7915 88.6974C29.7915 78.6724 24.2745 70.5153 17.4762 70.5153ZM17.4762 105.023C11.7101 105.023 7.0237 97.6939 7.0237 88.6974C7.0237 79.7009 11.7101 72.3713 17.4762 72.3713C23.2423 72.3713 27.9406 79.6891 27.9406 88.6974C27.9406 97.7057 23.2423 105.023 17.4762 105.023Z" fill="#EF1414"/>
<path d="M20.5491 97.8712C20.1153 97.7423 19.6566 97.7202 19.2124 97.8066C18.7681 97.8931 18.3515 98.0856 17.9983 98.3677L17.5949 98.2022C18.2135 97.8129 18.9099 97.5628 19.6356 97.4692C19.7661 97.4692 19.7898 97.2328 19.6356 97.2446C18.7924 97.3475 17.9823 97.6341 17.2627 98.084C16.8276 97.8492 16.3464 97.7117 15.8526 97.6811C15.3588 97.6505 14.8643 97.7274 14.4034 97.9066C13.5135 98.344 13.9051 99.1834 14.8305 99.1834C15.7185 99.1254 16.5747 98.8315 17.3101 98.3322L17.7966 98.5214C17.3457 98.8051 16.9305 99.0888 16.6101 99.278C16.4915 99.3371 16.5271 99.5617 16.6101 99.4789C17.0847 99.2189 17.5356 98.8997 18.0101 98.6278C18.6507 98.9481 19.3578 99.1141 20.0745 99.1125C20.9051 99.0534 21.4627 98.3204 20.5491 97.8712ZM16.9186 98.2967C16.7525 98.3913 16.5864 98.4859 16.4084 98.5687L16.0644 98.7105C15.7493 98.8305 15.4167 98.8984 15.0796 98.9115C14.9141 98.9115 14.7511 98.8709 14.6051 98.7933C14.5575 98.7741 14.5152 98.7437 14.4819 98.7048C14.4485 98.6659 14.425 98.6196 14.4134 98.5698C14.4018 98.5199 14.4023 98.468 14.415 98.4185C14.4277 98.3689 14.4522 98.3231 14.4864 98.2849C14.5793 98.1652 14.7082 98.0782 14.8542 98.0367C15.5887 97.8331 16.3722 97.9002 17.061 98.2258L16.9186 98.2967ZM20.5491 98.4623C20.4912 98.5503 20.4163 98.626 20.3287 98.6849C20.2411 98.7437 20.1426 98.7846 20.039 98.8051C19.4539 98.8757 18.8609 98.7772 18.3305 98.5214L18.8644 98.2849C19.1102 98.1783 19.3698 98.1067 19.6356 98.0721C20.122 98.0721 20.4186 98.0721 20.5966 98.3086C20.61 98.3448 20.6127 98.3842 20.6043 98.4219C20.5959 98.4597 20.5767 98.4942 20.5491 98.5214V98.4623Z" fill="#4F7F03"/>
<path d="M31.678 85.9665H2.89492L4.0339 88.7328L2.88306 91.4873H31.678L30.5271 88.7328L31.678 85.9665Z" fill="white"/>
<path d="M32.9236 85.1863H1.63721L3.10839 88.7328L1.63721 92.2794H32.9236L31.4643 88.7328L32.9236 85.1863ZM2.88297 91.4873L4.06941 88.7328L2.88297 85.9665H31.6779L30.4914 88.7328L31.6779 91.4873H2.88297Z" fill="#3F0501"/>
<path d="M19.2915 100.98C19.1814 100.891 19.0421 100.844 18.9 100.85C18.8099 100.832 18.7172 100.832 18.6271 100.85V100.661H18.7932C18.9679 100.709 19.1524 100.709 19.3271 100.661C19.3629 100.65 19.3944 100.628 19.4176 100.598C19.4408 100.569 19.4548 100.533 19.4576 100.496C19.4564 100.473 19.4505 100.451 19.4403 100.43C19.4301 100.41 19.4158 100.392 19.3983 100.377C19.3526 100.359 19.3016 100.359 19.2559 100.377H19.1491C19.1414 100.388 19.1373 100.4 19.1373 100.413C19.1373 100.426 19.1414 100.438 19.1491 100.448H18.983H18.722H18.4729C18.4729 100.448 18.4136 100.448 18.4017 100.448V100.886C18.4075 100.933 18.4075 100.981 18.4017 101.028V101.158C18.4 101.167 18.4002 101.177 18.4023 101.186C18.4044 101.195 18.4083 101.204 18.4138 101.212C18.4193 101.219 18.4264 101.226 18.4345 101.231C18.4426 101.236 18.4516 101.239 18.461 101.24V101.394L18.5559 101.252C18.5788 101.261 18.6043 101.261 18.6271 101.252C18.6539 101.242 18.6834 101.242 18.7102 101.252H18.8525C18.8914 101.25 18.9301 101.258 18.9652 101.274C19.0004 101.291 19.031 101.316 19.0542 101.347C19.1021 101.407 19.1273 101.483 19.1254 101.56C19.1255 101.626 19.1118 101.692 19.0853 101.753C19.0588 101.814 19.0199 101.869 18.9712 101.914C18.8761 102.008 18.749 102.063 18.6152 102.068C18.5609 102.083 18.5035 102.083 18.4491 102.068C18.4631 102.078 18.4796 102.083 18.4966 102.083C18.5136 102.083 18.5301 102.078 18.5441 102.068C18.5579 102.034 18.5579 101.996 18.5441 101.962C18.5437 101.939 18.5368 101.917 18.5242 101.898C18.5115 101.879 18.4937 101.864 18.4729 101.855C18.43 101.823 18.378 101.806 18.3246 101.806C18.2712 101.806 18.2192 101.823 18.1763 101.855C18.1402 101.889 18.1189 101.936 18.1169 101.985C18.1196 102.033 18.1369 102.079 18.1666 102.117C18.1963 102.156 18.2369 102.184 18.283 102.198C18.3738 102.248 18.4762 102.272 18.5797 102.269C18.8041 102.273 19.0227 102.198 19.1966 102.056C19.2696 101.995 19.3285 101.919 19.3694 101.834C19.4104 101.748 19.4324 101.654 19.4339 101.56C19.4784 101.461 19.4885 101.351 19.4627 101.246C19.4369 101.141 19.3767 101.047 19.2915 100.98Z" fill="#4F7F03"/>
<path d="M11.2949 94.9748C11.3515 94.9396 11.3985 94.8909 11.4317 94.8332C11.4648 94.7754 11.483 94.7103 11.4847 94.6438C11.4847 94.3837 11.2949 94.2419 10.9745 94.2419H10.405V94.3837H10.5355V95.4122C10.5355 95.5068 10.5355 95.5304 10.405 95.5423V95.7669H10.4881H10.7254H11.0338C11.178 95.7769 11.3205 95.7307 11.4311 95.638C11.5418 95.5454 11.612 95.4136 11.6271 95.2704C11.61 95.1925 11.5687 95.122 11.509 95.069C11.4494 95.0159 11.3744 94.9829 11.2949 94.9748ZM10.8321 95.1285H10.9982C11.1762 95.1285 11.2593 95.2349 11.2593 95.3768C11.2612 95.4078 11.2563 95.4389 11.2449 95.4678C11.2335 95.4967 11.2158 95.5228 11.1932 95.5442C11.1706 95.5656 11.1435 95.5818 11.114 95.5917C11.0844 95.6016 11.053 95.6049 11.022 95.6014C10.8203 95.6014 10.8203 95.6014 10.8203 95.495L10.8321 95.1285ZM11.022 94.9748H10.8321C10.8321 94.8211 10.8321 94.6674 10.8321 94.5256C11.1169 94.5256 11.1644 94.6438 11.1644 94.7502C11.1644 94.7972 11.1511 94.8433 11.1259 94.8831C11.1006 94.9228 11.0646 94.9547 11.022 94.9748Z" fill="#4F7F03"/>
<path d="M12.6949 95.3295C12.6949 95.5304 12.6949 95.5541 12.3034 95.5541H12.1847V95.1049H12.6712V94.9039H12.3983H12.2203V94.5138H12.3271C12.6237 94.5138 12.6237 94.5138 12.6237 94.6201V94.7738H12.8491C12.8409 94.6518 12.8409 94.5294 12.8491 94.4074V94.3364C12.6241 94.3543 12.3979 94.3543 12.1729 94.3364H11.7695V94.4783H11.8644V95.5068C11.8644 95.5895 11.8644 95.625 11.7339 95.6368V95.8615H11.8051C11.9078 95.8539 12.0109 95.8539 12.1135 95.8615H12.8254C12.8344 95.7378 12.8543 95.6152 12.8847 95.495L12.6949 95.3295Z" fill="#4F7F03"/>
<path d="M13.6797 94.9039C13.5255 94.8329 13.4069 94.7502 13.4069 94.6556C13.4069 94.561 13.5018 94.4901 13.6323 94.4901C13.7628 94.4901 13.8458 94.4901 13.8458 94.6438V94.7856H14.0001C14.0001 94.5847 14.0001 94.4073 14.0001 94.4073C13.8854 94.3535 13.7589 94.3291 13.6323 94.3364C13.5621 94.3299 13.4914 94.3373 13.4241 94.3582C13.3568 94.3791 13.2943 94.4131 13.2403 94.4581C13.1863 94.5032 13.1417 94.5585 13.1092 94.6208C13.0767 94.6831 13.0569 94.7512 13.0509 94.8211C13.0509 95.0576 13.2764 95.1639 13.4543 95.2585C13.6086 95.3413 13.7509 95.4122 13.7509 95.5186C13.7509 95.625 13.6204 95.7196 13.4899 95.7196C13.3594 95.7196 13.2526 95.7196 13.2526 95.3767V95.3176H13.0391C13.0498 95.4475 13.0498 95.5779 13.0391 95.7078C13.1555 95.7699 13.2869 95.7986 13.4187 95.7905C13.7747 95.7905 14.0357 95.5895 14.0357 95.294C14.0357 94.9984 13.8814 94.9748 13.6797 94.9039Z" fill="#4F7F03"/>
<path d="M15.4237 94.301H15.222H14.4745H14.261C14.261 94.4901 14.261 94.6911 14.261 94.6911V94.762H14.4864C14.4864 94.5492 14.4864 94.5374 14.783 94.5256V95.4477C14.783 95.6605 14.783 95.6605 14.6051 95.6723V95.8733H15.3644V95.7196H15.2101C15.2101 95.7196 15.139 95.7196 15.139 95.625C15.139 95.2822 15.139 94.7975 15.139 94.5847C15.3881 94.5847 15.3881 94.5847 15.4237 94.8329H15.6373C15.6373 94.8329 15.4237 94.4901 15.4237 94.301Z" fill="#4F7F03"/>
<path d="M17.7965 96.0151C17.7414 96.023 17.6855 96.023 17.6304 96.0151C17.4147 95.9918 17.2095 95.9101 17.0372 95.7787C17.174 95.6966 17.2845 95.5774 17.356 95.4351C17.4274 95.2927 17.4567 95.1331 17.4406 94.9748C17.4487 94.8793 17.4371 94.7832 17.4063 94.6925C17.3755 94.6017 17.3263 94.5182 17.2618 94.4472C17.1972 94.3763 17.1187 94.3193 17.031 94.2799C16.9434 94.2405 16.8486 94.2195 16.7524 94.2182C16.6423 94.2212 16.5339 94.2461 16.4335 94.2912C16.3331 94.3364 16.2428 94.4011 16.1677 94.4814C16.0926 94.5617 16.0343 94.6561 15.9962 94.7591C15.9581 94.862 15.9409 94.9715 15.9457 95.0812C15.9357 95.1745 15.9455 95.2688 15.9742 95.3581C16.003 95.4474 16.0502 95.5297 16.1127 95.5999C16.1753 95.67 16.2518 95.7263 16.3374 95.7652C16.4231 95.8042 16.5159 95.8249 16.6101 95.826C17.144 96.2161 17.2982 96.2989 17.5236 96.2989C17.5236 96.2989 17.5829 96.2989 17.7728 96.1215V96.0506L17.7965 96.0151ZM17.1677 95.0812C17.1677 95.4004 17.0016 95.6132 16.7406 95.6132C16.4796 95.6132 16.2897 95.3649 16.2897 95.0103C16.2897 94.6556 16.4558 94.4783 16.705 94.4783C16.9541 94.4783 17.1321 94.7265 17.1321 95.0812H17.1677Z" fill="#4F7F03"/>
<path d="M18.9831 94.4428V94.23H18.7814H18.4729V94.3719H18.6272C18.6238 94.3954 18.6238 94.4193 18.6272 94.4428C18.6272 94.4428 18.6272 95.0221 18.6272 95.1876C18.6272 95.3531 18.5204 95.5068 18.295 95.5068C18.0695 95.5068 17.9746 95.3768 17.9746 95.1048V94.431C17.9746 94.431 17.9746 94.3719 18.0814 94.3601V94.1473H18.0102H17.7848H17.4763V94.301H17.6068C17.6068 94.301 17.6068 94.301 17.6068 94.3719V95.1167C17.5995 95.1915 17.6088 95.267 17.6342 95.3377C17.6596 95.4085 17.7005 95.4727 17.7538 95.5258C17.8071 95.579 17.8716 95.6197 17.9426 95.645C18.0136 95.6703 18.0894 95.6796 18.1645 95.6723C18.5441 95.6723 18.7814 95.4713 18.7814 95.1285V94.3601C18.7814 94.301 18.7814 94.301 18.8882 94.2891L18.9831 94.4428Z" fill="#4F7F03"/>
<path d="M20.3948 95.6132C20.2762 95.6132 20.2525 95.6132 20.2287 95.4832C20.0626 94.9866 19.8728 94.301 19.8609 94.301H19.6592L19.2084 95.4832C19.2084 95.6014 19.1253 95.6132 19.0779 95.6132V95.826H19.7542V95.6723H19.4575C19.3745 95.6723 19.3745 95.6723 19.3745 95.6723C19.3727 95.6487 19.3727 95.625 19.3745 95.6014L19.4457 95.4004H19.8491L19.9084 95.6014C19.9139 95.6366 19.9139 95.6725 19.9084 95.7078H19.7542V95.8615V95.9324C19.8648 95.9249 19.9757 95.9249 20.0864 95.9324H20.3711V95.7669L20.3948 95.6132ZM19.4694 95.1403L19.683 94.5374L19.8609 95.1285H19.4575L19.4694 95.1403Z" fill="#4F7F03"/>
<path d="M21.5458 95.2703H21.356C21.356 95.5186 21.2848 95.5423 21.0475 95.5423C20.8102 95.5423 20.917 95.5423 20.917 95.424C20.917 95.3058 20.917 94.8093 20.917 94.5492C20.917 94.4428 20.917 94.4428 21.0238 94.431V94.2182H20.9526H20.7153H20.4187V94.3601H20.5492C20.5525 94.3836 20.5525 94.4075 20.5492 94.431V95.3886C20.5492 95.495 20.5492 95.5068 20.4424 95.5186V95.7314H20.5136C20.6123 95.7234 20.7115 95.7234 20.8102 95.7314H21.4153C21.4153 95.5068 21.4746 95.3058 21.4746 95.3058L21.5458 95.2703Z" fill="#4F7F03"/>
<path d="M22.2339 95.6014H22.1153C22.1153 95.6014 22.1153 95.6014 22.1153 95.5068C22.1153 95.4122 22.1153 94.8684 22.1153 94.5256C22.1153 94.5256 22.1153 94.4665 22.2339 94.4546V94.2419H22.1628H21.9136H21.5933V94.3837H21.7475V95.4122C21.7475 95.495 21.7475 95.5186 21.617 95.5423V95.7669H21.6882H21.9492H22.2814V95.6132L22.2339 95.6014Z" fill="#4F7F03"/>
<path d="M24.9152 94.2537H24.6779H24.4288H24.3695V94.4192H24.4881C24.4971 94.446 24.4971 94.4751 24.4881 94.5019L24.2745 94.9039C24.1965 94.747 24.1291 94.585 24.0728 94.4192H24.2389V94.2773V94.2182H23.9305H23.6695H23.4678H22.7678H22.5542H22.4949C22.4949 94.4074 22.4949 94.6083 22.4949 94.6083V94.6793H22.7203C22.7203 94.4665 22.7203 94.4546 23.0169 94.4428V95.3649C23.0169 95.5777 23.0169 95.5777 22.8389 95.5895V95.7905H23.5983V95.6368H23.444C23.444 95.6368 23.3728 95.6368 23.3728 95.5423C23.3728 95.2112 23.3728 94.7147 23.3728 94.5019C23.622 94.5019 23.622 94.5019 23.6576 94.7502H23.8711V94.5492C23.9542 94.5492 23.9898 94.5492 24.061 94.7384L24.2745 95.1758C24.3137 95.2485 24.3341 95.3297 24.3339 95.4122V95.5068C24.3339 95.6605 24.3339 95.6723 24.2033 95.6959V95.9206H24.2864H24.5356H24.8678V95.7669C24.8205 95.7728 24.7727 95.7728 24.7254 95.7669C24.719 95.7357 24.719 95.7035 24.7254 95.6723C24.6956 95.5639 24.6956 95.4496 24.7254 95.3413L24.9745 94.9039C25.0694 94.7265 25.0932 94.6911 25.2118 94.6793V94.5374L24.9152 94.2537Z" fill="#4F7F03"/>
<path d="M22.1272 77.7148C22.062 77.7142 21.9979 77.7314 21.9419 77.7646C21.8859 77.7978 21.8402 77.8456 21.8096 77.9029C21.779 77.9602 21.7647 78.0248 21.7684 78.0896C21.7721 78.1544 21.7936 78.217 21.8305 78.2705L19.1966 80.0437L18.0102 76.4262C18.08 76.3998 18.1401 76.3529 18.1825 76.2917C18.2249 76.2304 18.2475 76.1578 18.2475 76.0834C18.2491 76.0358 18.2411 75.9884 18.2239 75.944C18.2067 75.8996 18.1807 75.8591 18.1475 75.8249C18.1143 75.7907 18.0745 75.7636 18.0306 75.745C17.9866 75.7264 17.9393 75.7169 17.8916 75.7169C17.8433 75.7169 17.7954 75.7264 17.7508 75.7448C17.7062 75.7632 17.6656 75.7902 17.6315 75.8243C17.5973 75.8583 17.5702 75.8987 17.5518 75.9432C17.5333 75.9876 17.5238 76.0353 17.5238 76.0834C17.5263 76.1588 17.5513 76.2317 17.5957 76.2928C17.6401 76.3539 17.7018 76.4003 17.7729 76.4262L16.5153 80.0437L13.8458 78.2468C13.8616 78.1928 13.8616 78.1353 13.8458 78.0813C13.8474 78.0337 13.8394 77.9864 13.8222 77.942C13.805 77.8975 13.779 77.857 13.7458 77.8228C13.7126 77.7886 13.6728 77.7615 13.6289 77.7429C13.5849 77.7243 13.5376 77.7148 13.4899 77.7148C13.3923 77.7148 13.2988 77.7534 13.2298 77.8222C13.1608 77.8909 13.1221 77.9841 13.1221 78.0813C13.122 78.1289 13.1316 78.176 13.1503 78.2198C13.1689 78.2636 13.1962 78.3033 13.2305 78.3364C13.2648 78.3695 13.3054 78.3953 13.35 78.4124C13.3946 78.4295 13.4421 78.4375 13.4899 78.436C13.5487 78.4466 13.609 78.4466 13.6678 78.436L14.2729 79.3817C15.163 80.7756 15.7416 82.344 15.9695 83.9804H19.7187C19.9218 82.3322 20.4804 80.7473 21.356 79.3344L21.9373 78.4123H22.0797C22.1274 78.4139 22.175 78.4059 22.2196 78.3888C22.2641 78.3717 22.3048 78.3458 22.3391 78.3127C22.3734 78.2796 22.4007 78.24 22.4193 78.1962C22.4379 78.1523 22.4475 78.1052 22.4475 78.0577C22.4427 77.9722 22.408 77.8912 22.3495 77.8286C22.291 77.766 22.2123 77.7257 22.1272 77.7148Z" fill="#EAB50A"/>
<g opacity="0.5">
<path d="M12.1016 2.07825H12.2083C12.2083 1.99549 12.2083 1.91274 12.2083 1.82999L12.1016 2.07825Z" fill="white"/>
<path d="M15.8864 12.3515C15.5102 11.1609 15.3065 9.92284 15.2813 8.67486C15.388 6.83218 15.388 4.9849 15.2813 3.14221C15.275 2.95817 15.2035 2.7823 15.0796 2.64569C14.9609 2.56201 14.8213 2.51289 14.6762 2.50383L12.1728 2.0546C12.272 5.77093 12.0497 9.48888 11.5084 13.1672C11.4451 13.3834 11.4451 13.613 11.5084 13.8292C11.5269 13.8806 11.5555 13.9277 11.5924 13.968C11.6293 14.0083 11.6739 14.041 11.7235 14.064C11.7731 14.0871 11.8268 14.1002 11.8816 14.1025C11.9363 14.1048 11.9909 14.0963 12.0423 14.0775C12.1078 14.0335 12.163 13.9758 12.204 13.9084C12.2449 13.841 12.2707 13.7656 12.2796 13.6874C12.4457 13.1081 12.683 12.3988 13.2762 12.3042C13.3481 12.6512 13.3481 13.0093 13.2762 13.3563C13.2762 13.711 13.5253 14.1366 13.8813 14.0657C14.2372 13.9947 14.1898 13.0017 14.6643 12.718C15.2274 13.1031 15.6451 13.6649 15.8508 14.3139C16.0029 14.0101 16.085 13.6762 16.0912 13.3367C16.0973 12.9972 16.0274 12.6606 15.8864 12.3515Z" fill="white"/>
</g>
<g opacity="0.5">
<path d="M23.3609 12.4934C22.2935 9.16804 22.1622 5.61465 22.9812 2.22011L22.8626 2.04279L19.505 2.56295C19.3856 2.57181 19.2708 2.61266 19.1728 2.68117C18.9948 2.83485 19.0304 3.11858 19.0778 3.35502C19.46 5.06783 19.6707 6.81421 19.7067 8.56848C19.7493 9.27679 19.6772 9.98732 19.4931 10.6728C19.327 11.2048 19.0541 11.6895 18.8999 12.2214C18.69 12.9603 18.719 13.7462 18.9829 14.4676C19.3389 14.2548 19.4338 13.7938 19.6117 13.4155C19.7897 13.0372 20.2524 12.6943 20.5846 12.9544C20.9168 13.2145 20.81 13.4273 20.8338 13.6992C20.8575 13.9711 20.9999 14.3021 21.2728 14.3021C21.5456 14.3021 21.7117 13.8411 21.7236 13.4982C21.7355 13.1554 21.9609 12.718 22.2694 12.848C22.5778 12.9781 22.4592 13.4746 22.6965 13.6992C22.9338 13.9238 23.3372 13.6992 23.4439 13.4155C23.5105 13.1068 23.4816 12.7853 23.3609 12.4934Z" fill="#EAB50A"/>
</g>
<g opacity="0.5">
<path d="M14.6762 17.163C14.2017 16.6783 13.0983 16.9857 13.2406 17.6477C13.2406 17.6477 12.1729 34.4821 10.6305 43.0057C10.3276 44.0362 10.3276 45.1316 10.6305 46.1621C10.7174 46.4139 10.8548 46.6455 11.0343 46.8426C11.2139 47.0398 11.4318 47.1986 11.6749 47.3091C11.9179 47.4197 12.1811 47.4799 12.4482 47.4859C12.7153 47.492 12.9809 47.4438 13.2288 47.3443C14.0593 46.836 14.1305 45.6893 14.1186 44.7199C14.0237 36.1844 14.3203 27.6372 15.0203 19.1373C15.1115 18.8031 15.128 18.4532 15.0686 18.112C15.0091 17.7709 14.8752 17.4469 14.6762 17.163Z" fill="#FFEE50"/>
</g>
<g opacity="0.2">
<path d="M24.4171 45.8311C22.7205 42.6392 22.5543 38.8917 22.4238 35.286L21.7476 16.501L21.5103 16.7729C21.0238 17.3049 20.134 16.9266 19.4577 17.1394C18.4255 17.4704 18.4018 18.9008 18.5679 19.9648C19.9096 28.764 20.3351 37.6778 19.8374 46.5641C19.8062 46.7291 19.8079 46.8986 19.8425 47.0629C19.8771 47.2272 19.9439 47.3831 20.0391 47.5217C20.1897 47.635 20.363 47.7148 20.5472 47.7556C20.7314 47.7964 20.9223 47.7972 21.1069 47.7581C21.9611 47.6754 22.8272 47.569 23.6815 47.4389C24.0493 47.4389 24.4764 47.2852 24.6425 46.9542C24.6962 46.7625 24.7038 46.5609 24.6646 46.3658C24.6255 46.1707 24.5406 45.9875 24.4171 45.8311Z" fill="#EF1414"/>
</g>
<g opacity="0.3">
<path d="M24.3221 44.4598C21.5695 36.1845 22.4831 27.2944 21.7475 18.6526C21.7477 18.3839 21.6694 18.121 21.5221 17.896C21.4776 17.8476 21.4236 17.809 21.3633 17.7825C21.303 17.7561 21.2379 17.7424 21.1721 17.7424C21.1063 17.7424 21.0411 17.7561 20.9809 17.7825C20.9206 17.809 20.8666 17.8476 20.8221 17.896L21.2492 17.8014C20.5729 18.0378 20.5136 18.9836 20.5611 19.6456C21.2018 28.0943 21.8385 36.5194 22.4712 44.9209C22.5424 45.7838 22.9577 46.9306 23.8119 46.7769C24.0305 46.7159 24.2236 46.5864 24.3625 46.4076C24.5014 46.2287 24.5788 46.01 24.5831 45.7838C24.5859 45.3295 24.4972 44.8793 24.3221 44.4598Z" fill="#EF1414"/>
</g>
<g opacity="0.5">
<path d="M3.41697 103.25C1.73222 95.755 1.10341 87.8817 3.10849 80.3747C5.11358 72.8678 10.0729 65.9993 17.1797 62.9374C13.7014 63.4379 10.1574 63.2287 6.76273 62.3227C6.53339 62.2479 6.29132 62.2198 6.05086 62.2399C5.26781 62.3582 5.07798 63.4221 5.07798 64.1669C5.07798 64.1669 0.438999 95.8023 1.51866 112.176C1.6373 114.055 1.92205 116.195 3.48815 117.235C4.15805 117.609 4.88916 117.861 5.64747 117.98C9.05558 118.878 12.5767 119.276 16.1 119.162C13.6802 118.68 11.4372 117.552 9.61019 115.9C6.039 112.708 4.46103 107.979 3.41697 103.25Z" fill="#9FC303"/>
</g>
<g opacity="0.7">
<path d="M7.20161 63.0556C7.07182 63.0112 6.93338 62.9976 6.79739 63.0161C6.6614 63.0346 6.53165 63.0846 6.41856 63.162C6.07469 63.5181 5.86508 63.9817 5.82534 64.4743C4.74567 69.8178 3.70161 75.1849 2.93042 80.5994C4.22396 75.5762 5.84896 70.6436 7.79483 65.8338C8.10448 65.2145 8.25144 64.5271 8.22195 63.8359C8.11517 63.162 7.20161 63.0556 7.20161 63.0556Z" fill="white"/>
<g opacity="0.5">
<path d="M3.12027 111.1C2.39421 108.568 1.95643 105.962 1.81519 103.333C1.81519 106.265 1.98129 109.303 1.98129 112.235C2.01523 113.346 2.23165 114.444 2.62197 115.486C2.84956 115.99 3.21045 116.423 3.66603 116.739C4.85247 117.803 8.4118 117.921 9.98976 117.992C4.57959 116.018 3.99824 113.89 3.12027 111.1Z" fill="white"/>
</g>
</g>
<g opacity="0.15">
<path d="M13.4542 54.1183C13.4939 52.292 13.8972 50.4918 14.6406 48.8221C14.7082 48.6945 14.7435 48.5525 14.7435 48.4083C14.7435 48.2641 14.7082 48.1221 14.6406 47.9945C14.3559 47.6635 13.8339 47.9236 13.4542 48.1128C12.9054 48.3557 12.2925 48.4157 11.7068 48.2836C11.121 48.1515 10.5937 47.8345 10.2033 47.3798C10.0372 47.1788 9.79996 46.9187 9.57453 47.0488C9.34911 47.1788 9.39657 47.2734 9.36098 47.4153C9.02877 48.5265 7.1186 55.4305 5.93216 59.1426C5.86148 59.3374 5.86148 59.5507 5.93216 59.7455C6.03894 59.9701 6.32369 60.0411 6.56098 60.0884C10.4509 60.9734 14.4366 61.3706 18.4254 61.2705C15.8864 59.6037 13.6322 57.1447 13.4542 54.1183Z" fill="white"/>
</g>
<g opacity="0.5">
<path d="M9.3491 51.1273C9.13554 51.7539 8.16266 54.4375 7.96096 55.1704C7.88977 55.3596 7.29655 57.1447 7.14232 57.7121C7.06067 57.9026 7.02769 58.1103 7.04632 58.3166C7.06496 58.5229 7.13463 58.7214 7.2491 58.8943C7.42586 59.0284 7.64757 59.0897 7.86839 59.0655C8.08921 59.0413 8.29225 58.9334 8.43554 58.7643C8.71629 58.4261 8.89704 58.0168 8.95757 57.5821C9.42028 55.7734 9.88299 53.9646 10.322 52.144C11.6745 46.434 9.95418 49.2595 9.3491 51.1273Z" fill="white"/>
</g>
<g opacity="0.5">
<path d="M9.74056 121.61C8.92304 121.461 8.12639 121.215 7.36768 120.877C6.62023 120.51 5.95582 119.99 5.17277 119.694C4.53758 119.497 3.87969 119.382 3.21514 119.352C3.09109 119.316 2.95953 119.316 2.83548 119.352C2.45582 119.541 2.71684 120.108 3.00158 120.416L2.76429 120.274C3.19653 120.677 3.67903 121.022 4.19989 121.302C5.0584 121.723 5.96748 122.033 6.90497 122.224C9.00989 122.709 11.154 123.006 13.3118 123.111C13.9406 123.111 14.6999 123.111 15.0202 122.543C13.2406 122.307 11.4846 121.988 9.74056 121.61Z" fill="#9FC303"/>
</g>
<path d="M32.3188 119.612C32.2666 119.545 32.2 119.492 32.1239 119.455C32.0479 119.418 31.9644 119.399 31.8798 119.399C31.7952 119.399 31.7117 119.418 31.6356 119.455C31.5596 119.492 31.493 119.545 31.4408 119.612C28.1191 120.835 24.585 121.381 21.0476 121.219C20.6086 121.219 20.051 121.219 19.8611 121.645L24.7018 121.728C24.83 121.717 24.9584 121.746 25.0696 121.811C25.1045 121.853 25.1305 121.901 25.1458 121.954C25.1612 122.006 25.1657 122.061 25.1591 122.115C25.1524 122.17 25.1347 122.222 25.1071 122.269C25.0795 122.316 25.0425 122.357 24.9984 122.39C24.8082 122.503 24.5912 122.564 24.3696 122.567L17.8086 123.075C18.2556 123.411 18.8034 123.586 19.3628 123.572C23.659 123.908 27.9617 123.009 31.7611 120.983C31.9502 120.89 32.1226 120.766 32.2713 120.617C32.3991 120.483 32.4743 120.307 32.483 120.123C32.4917 119.938 32.4334 119.757 32.3188 119.612Z" fill="#193301"/>
<g opacity="0.3">
<path d="M17.9982 17.7186C19.5115 17.966 21.0447 18.0728 22.5779 18.0378C22.5779 17.6477 22.5779 17.2576 22.5779 16.8556V16.099H22.3762C21.605 16.2054 20.2406 16.2645 19.0067 16.2882H18.9236H17.5592H16.8711C15.3999 16.2882 13.9643 16.2054 12.849 16.099H12.3389V16.9502L13.1101 17.0921L17.9982 17.7186Z" fill="#EF1414"/>
</g>
<path d="M8.36433 88.2481H8.30501C8.27185 88.0477 8.17148 87.8643 8.02026 87.728C7.9562 87.6654 7.88008 87.6163 7.79647 87.5838C7.71287 87.5513 7.62352 87.536 7.53382 87.5388C7.43565 87.5377 7.33873 87.5609 7.25176 87.6063C7.16479 87.6517 7.09049 87.7179 7.03552 87.7989C6.90742 88.0127 6.84551 88.2595 6.85755 88.5082C6.83728 88.7813 6.91277 89.0529 7.07111 89.2767C7.14169 89.3651 7.23215 89.4358 7.3352 89.4831C7.43824 89.5303 7.55098 89.5527 7.66433 89.5486C7.79576 89.5522 7.9261 89.5238 8.04399 89.4658C8.17041 89.391 8.28614 89.2995 8.38806 89.1939V89.3121C8.28617 89.4577 8.14898 89.5752 7.98925 89.6538C7.82952 89.7323 7.65244 89.7693 7.4745 89.7613C7.31551 89.7738 7.15571 89.7518 7.0061 89.6967C6.85648 89.6417 6.72061 89.5551 6.60784 89.4427C6.49508 89.3303 6.4081 89.195 6.35289 89.0459C6.29768 88.8968 6.27557 88.7376 6.28806 88.5792C6.28553 88.4188 6.31578 88.2596 6.37697 88.1112C6.43816 87.9628 6.52901 87.8284 6.64399 87.7162C6.75666 87.6016 6.89155 87.5111 7.04044 87.4501C7.18934 87.3891 7.34913 87.359 7.51009 87.3615C7.67232 87.3677 7.83251 87.3997 7.98467 87.4561H8.13891C8.13891 87.4561 8.24569 87.4561 8.28128 87.3379L8.36433 88.2481Z" fill="#EF1414"/>
<path d="M10.5356 89.2766V88.6264H9.4915V89.3358C9.46794 89.4007 9.46794 89.4718 9.4915 89.5367C9.5513 89.5981 9.63136 89.6359 9.71692 89.6431V89.7141H8.67285V89.6431H8.85082C8.85082 89.6431 8.922 89.6431 8.93387 89.5486C8.94426 89.478 8.94426 89.4063 8.93387 89.3358V87.8817C8.95573 87.8124 8.95573 87.7381 8.93387 87.6689C8.86891 87.6172 8.7909 87.5845 8.70845 87.5743V87.5034H9.72878V87.5743C9.64894 87.581 9.5737 87.6143 9.51523 87.6689C9.49634 87.7006 9.48446 87.736 9.48037 87.7727C9.47627 87.8094 9.48007 87.8465 9.4915 87.8817V88.5082H10.5712V87.8817C10.5746 87.8062 10.5538 87.7317 10.5118 87.6689C10.4469 87.6172 10.3689 87.5845 10.2864 87.5743V87.5034H11.3542V87.5743C11.2647 87.5798 11.1804 87.6176 11.1169 87.6807C11.1169 87.6807 11.1169 87.7989 11.1169 87.9289V89.3712C11.0934 89.4362 11.0934 89.5073 11.1169 89.5722C11.182 89.6328 11.2655 89.6702 11.3542 89.6786V89.7495H10.2864V89.6786C10.3709 89.6677 10.4499 89.6305 10.5118 89.5722C10.5561 89.48 10.5646 89.3747 10.5356 89.2766Z" fill="#EF1414"/>
<path d="M12.8965 89.7141V89.6431C12.9591 89.6569 13.0238 89.6569 13.0864 89.6431C13.106 89.6305 13.1218 89.6129 13.1322 89.5921C13.1427 89.5713 13.1473 89.5481 13.1457 89.5249C13.1535 89.47 13.1535 89.4143 13.1457 89.3594L13.0152 89.0166H12.2084L12.1016 89.3121C12.0895 89.3706 12.0895 89.431 12.1016 89.4894C12.1016 89.5958 12.1728 89.6668 12.327 89.7022V89.7732H11.5203V89.7022C11.6088 89.6877 11.689 89.6415 11.7457 89.5722C11.8327 89.4594 11.8971 89.3309 11.9355 89.1939L12.5881 87.4679H12.8965L13.5728 89.2648C13.6193 89.3839 13.6832 89.4955 13.7626 89.5958C13.8278 89.6564 13.9112 89.6939 13.9999 89.7022V89.7732L12.8965 89.7141ZM12.244 88.7919H12.9084L12.5762 87.8817L12.244 88.7919Z" fill="#EF1414"/>
<path d="M17.1559 87.4679V87.5388C17.0845 87.5417 17.0167 87.5712 16.9661 87.6216C16.9419 87.6441 16.923 87.6717 16.9107 87.7023C16.8984 87.733 16.893 87.766 16.8949 87.7989C16.8898 87.8302 16.8898 87.8622 16.8949 87.8935L17.0966 89.3003C17.105 89.3887 17.1426 89.4718 17.2034 89.5367C17.2713 89.593 17.3534 89.6298 17.4407 89.6431V89.7141H16.3254V89.6431C16.4026 89.6307 16.4734 89.5933 16.5271 89.5367C16.5674 89.4688 16.588 89.391 16.5864 89.3121C16.5912 89.257 16.5912 89.2017 16.5864 89.1466L16.4085 87.8817L15.661 89.7259H15.578L14.8542 87.8817L14.6526 89.1939C14.6526 89.253 14.6526 89.3003 14.6526 89.3476C14.6473 89.3872 14.6508 89.4274 14.6629 89.4655C14.675 89.5036 14.6954 89.5385 14.7225 89.5678C14.7497 89.5972 14.7831 89.6202 14.8202 89.6352C14.8573 89.6503 14.8973 89.657 14.9373 89.6549V89.7259H14.1187V89.6549C14.1701 89.6568 14.2214 89.6472 14.2686 89.6268C14.3158 89.6063 14.3578 89.5755 14.3915 89.5367C14.4623 89.4217 14.5068 89.2925 14.522 89.1584L14.7356 87.7043C14.697 87.6567 14.6482 87.6182 14.5928 87.5916C14.5374 87.565 14.4767 87.551 14.4153 87.5506V87.4797H15.2339L15.8153 88.9575L16.4085 87.4797L17.1559 87.4679Z" fill="#EF1414"/>
<path d="M17.6306 87.4679H18.8171C19.0163 87.4592 19.2127 87.5175 19.3747 87.6334C19.441 87.6822 19.4942 87.7466 19.5294 87.8209C19.5646 87.8951 19.5807 87.977 19.5764 88.059C19.5778 88.1498 19.5582 88.2396 19.5191 88.3217C19.48 88.4037 19.4225 88.4756 19.351 88.5319C19.1673 88.6597 18.9458 88.7222 18.7221 88.7092H18.4374V89.3594C18.4339 89.4348 18.4547 89.5094 18.4967 89.5722C18.5613 89.6244 18.6395 89.6572 18.7221 89.6668V89.7377H17.6543V89.6668C17.7424 89.656 17.8251 89.6189 17.8916 89.5604C17.9178 89.4837 17.9178 89.4006 17.8916 89.3239V87.8817C17.9171 87.813 17.9171 87.7375 17.8916 87.6689C17.8249 87.6126 17.7416 87.5794 17.6543 87.5743L17.6306 87.4679ZM18.6035 87.5979H18.4137V88.5555C18.4685 88.5663 18.5249 88.5663 18.5798 88.5555C18.6398 88.5617 18.7004 88.553 18.7562 88.5304C18.8121 88.5077 18.8615 88.4717 18.9001 88.4255C18.9864 88.3235 19.029 88.1919 19.0188 88.059C19.0247 87.9302 18.9824 87.8038 18.9001 87.7043C18.8617 87.6658 18.8151 87.6363 18.7638 87.6179C18.7125 87.5995 18.6578 87.5927 18.6035 87.5979Z" fill="#EF1414"/>
<path d="M20.6797 89.7141V89.6431C20.7422 89.6569 20.807 89.6569 20.8695 89.6431C20.8891 89.6305 20.905 89.6129 20.9154 89.5921C20.9258 89.5713 20.9305 89.5481 20.9288 89.5249C20.9366 89.47 20.9366 89.4143 20.9288 89.3594L20.7983 89.0166H19.9916L19.8848 89.3121C19.8726 89.3706 19.8726 89.431 19.8848 89.4894C19.8848 89.5958 19.956 89.6668 20.1102 89.7022V89.7732H19.3865V89.7022C19.475 89.6877 19.5552 89.6415 19.6119 89.5722C19.6989 89.4594 19.7633 89.3309 19.8017 89.1939L20.4543 87.4679H20.7627L21.356 89.2057C21.4024 89.3248 21.4664 89.4364 21.5458 89.5367C21.6109 89.5973 21.6944 89.6347 21.7831 89.6431V89.7141H20.6797ZM20.0272 88.7919H20.6916L20.3594 87.8817L20.0272 88.7919Z" fill="#EF1414"/>
<path d="M23.9781 87.4679V88.0945H23.9069C23.8502 87.9309 23.742 87.7899 23.5984 87.6925C23.4677 87.5877 23.3034 87.5331 23.1357 87.5388C23.0311 87.5349 22.9274 87.5592 22.8355 87.6091C22.7436 87.6591 22.667 87.7328 22.6137 87.8225C22.4718 88.0745 22.4059 88.3618 22.4238 88.6501C22.4048 88.9085 22.4715 89.1661 22.6137 89.383C22.6718 89.4693 22.7518 89.5388 22.8456 89.5845C22.9393 89.6302 23.0435 89.6504 23.1476 89.6431C23.373 89.6431 23.4916 89.5604 23.4916 89.4067V89.0639C23.495 88.9968 23.4721 88.931 23.4279 88.8803C23.3837 88.8296 23.3215 88.798 23.2544 88.7919H24.2035C24.134 88.8067 24.0714 88.8442 24.0255 88.8983C24.0096 88.9764 24.0096 89.0568 24.0255 89.1348V89.6077C23.7517 89.7218 23.456 89.7742 23.1594 89.7613C22.9377 89.7649 22.7182 89.7163 22.5188 89.6195C22.3378 89.5221 22.1894 89.3742 22.0916 89.1939C21.9892 89.0137 21.936 88.8099 21.9374 88.6028C21.9349 88.4452 21.9641 88.2888 22.0232 88.1426C22.0823 87.9964 22.1701 87.8635 22.2815 87.7516C22.3965 87.6377 22.5338 87.5485 22.6848 87.4896C22.8358 87.4306 22.9973 87.4031 23.1594 87.4088C23.3139 87.4153 23.4663 87.4472 23.6103 87.5034H23.8001C23.8301 87.5005 23.8591 87.4917 23.8856 87.4775C23.9121 87.4633 23.9355 87.444 23.9544 87.4206L23.9781 87.4679Z" fill="#EF1414"/>
<path d="M26.1018 87.5388V87.4679H26.8611V87.5388C26.6475 87.5388 26.5408 87.6689 26.5408 87.9053V89.7377H26.4577L24.7848 87.8817V89.253C24.7752 89.3418 24.8007 89.4309 24.856 89.5013C24.9294 89.5636 25.0208 89.6009 25.117 89.6077V89.6786H24.3458V89.6077C24.4317 89.6015 24.5121 89.5636 24.5713 89.5013C24.6145 89.4216 24.635 89.3316 24.6306 89.2412V87.7516L24.4526 87.5861C24.4139 87.5749 24.3727 87.5749 24.334 87.5861V87.5152H25.0103L26.3272 89.0166V88.0117C26.3349 87.9058 26.3145 87.7998 26.2679 87.7043C26.2337 87.6315 26.1749 87.5729 26.1018 87.5388Z" fill="#EF1414"/>
<path d="M28.4747 88.2363H28.5458V88.9338H28.4747C28.4748 88.8945 28.4667 88.8555 28.4509 88.8195C28.4352 88.7834 28.4121 88.751 28.383 88.7243C28.354 88.6977 28.3198 88.6773 28.2824 88.6645C28.2451 88.6517 28.2055 88.6468 28.1662 88.6501H27.7628V89.3121C27.7595 89.3505 27.7641 89.3892 27.7764 89.4258C27.7886 89.4624 27.8082 89.4961 27.834 89.5249C27.9113 89.5486 27.994 89.5486 28.0713 89.5249H28.2018C28.4272 89.5249 28.5814 89.383 28.6763 89.1111H28.7475V89.6549H26.9797V89.584C27.0232 89.5832 27.066 89.5728 27.105 89.5536C27.144 89.5345 27.1783 89.507 27.2055 89.4731C27.2327 89.4393 27.252 89.3999 27.2622 89.3578C27.2724 89.3157 27.2732 89.2718 27.2645 89.2294V87.8817C27.2697 87.8024 27.2489 87.7235 27.2052 87.657C27.1402 87.6073 27.0616 87.5784 26.9797 87.5743V87.5034H28.6645V87.9999H28.5933C28.5736 87.8925 28.5289 87.7913 28.4628 87.7043C28.3821 87.6514 28.2862 87.6265 28.1899 87.6334H27.7509V88.5555H28.1543C28.2261 88.5573 28.2966 88.5366 28.356 88.4964C28.4237 88.4254 28.4654 88.3338 28.4747 88.2363Z" fill="#EF1414"/>
</g>
<defs>
<clipPath id="clip0_57_2043">
<rect width="35" height="124" fill="white" transform="translate(0 0.399536)"/>
</clipPath>
</defs>
</svg>
