<svg width="49" height="125" viewBox="0 0 49 125" fill="none" xmlns="http://www.w3.org/2000/svg">
<g clip-path="url(#clip0_57_2284)">
<path d="M24.4926 0.399521C20.362 0.399521 16.8713 0.952248 16.8713 1.63588C16.8846 1.70805 16.9202 1.77421 16.9731 1.82498C17.5404 2.40679 20.682 2.8577 24.4926 2.8577C28.3032 2.8577 31.4593 2.40679 31.9975 1.85407C32.0504 1.8033 32.0861 1.73714 32.0993 1.66498C32.1284 0.952248 28.7105 0.399521 24.4926 0.399521Z" fill="#541849"/>
<path d="M49 64.1377C49.029 61.8741 48.5502 59.6329 47.5988 57.5788C46.6474 55.5248 45.2475 53.7102 43.5022 52.2686L36.7391 46.6832C35.6781 45.9261 34.8131 44.9267 34.2161 43.768C33.6191 42.6093 33.3073 41.3248 33.3066 40.0213L34.9065 36.4868C35.835 34.3519 36.0443 31.9729 35.5028 29.7086L31.6486 12.4577H17.3514L13.5699 29.7232C13.0239 31.981 13.2281 34.3553 14.1517 36.4868L15.6934 40.0213C15.6927 41.3248 15.3809 42.6093 14.7839 43.768C14.1868 44.9267 13.3219 45.9261 12.2609 46.6832L5.49777 52.2686C3.74686 53.7053 2.34303 55.5189 1.39106 57.5741C0.43909 59.6293 -0.0364296 61.873 -8.14989e-06 64.1377L0.814477 118.698C0.839656 118.936 0.947789 119.157 1.11991 119.323C2.90887 121.243 12.6827 124.4 24.4927 124.4C36.3027 124.4 46.0911 121.243 47.851 119.323C48.0317 119.162 48.1458 118.939 48.171 118.698L49 64.1377Z" fill="#F9EAAC"/>
<path d="M47.1818 65.025C47.2201 62.9033 46.7827 60.7999 45.9018 58.8694C45.0209 56.9389 43.7189 55.2301 42.0913 53.8686L35.8227 48.6177H13.1625L6.89392 53.8686C5.27112 55.2342 3.97244 56.9437 3.09198 58.8733C2.21153 60.8029 1.77137 62.9042 1.80339 65.025L2.5597 116.312C2.58354 116.535 2.68682 116.741 2.85058 116.894C4.4941 118.698 13.5407 121.665 24.4781 121.665C35.4154 121.665 44.4766 118.756 46.1201 116.894C46.279 116.738 46.3813 116.533 46.411 116.312L47.1818 65.025Z" fill="#FC9F24"/>
<path d="M24.4926 2.8577C20.6383 2.8577 17.4386 2.34861 16.8713 1.63588V10.3632C17.4386 11.0759 20.6383 11.6141 24.4926 11.6141C28.3468 11.6141 31.5466 11.0759 32.1284 10.3632V1.63588C31.5466 2.34861 28.3614 2.8577 24.4926 2.8577Z" fill="#401335"/>
<path d="M24.4926 12.8795C26.0925 12.8795 30.6449 12.5595 32.3902 11.5413C32.4634 11.4959 32.5225 11.4311 32.561 11.354C32.5996 11.277 32.6159 11.1908 32.6084 11.105L32.5211 9.5777C32.5363 9.50852 32.5324 9.43654 32.51 9.36937C32.4876 9.30219 32.4474 9.24233 32.3937 9.19613C32.3401 9.14992 32.2749 9.11908 32.2052 9.10687C32.1354 9.09467 32.0637 9.10155 31.9975 9.12679C29.6495 9.89712 27.1964 10.2995 24.7253 10.3195H24.289C21.825 10.2951 19.3768 9.92298 17.0168 9.21407C16.9556 9.19822 16.8915 9.19686 16.8296 9.21009C16.7677 9.22333 16.7098 9.2508 16.6604 9.29033C16.611 9.32985 16.5715 9.38035 16.545 9.4378C16.5185 9.49526 16.5057 9.5581 16.5078 9.62134L16.4059 11.0759C16.3964 11.1553 16.4074 11.2358 16.438 11.3097C16.4685 11.3835 16.5176 11.4483 16.5805 11.4977C18.0204 12.4868 22.9218 12.8795 24.4926 12.8795Z" fill="#1C103A"/>
<g opacity="0.8">
<path d="M30.3249 1.24316C28.1644 0.75774 25.9402 0.620254 23.7363 0.835885C22.3303 0.675705 20.9072 0.902005 19.6203 1.49043C19.5185 1.56316 19.4021 1.65043 19.4021 1.78134C19.4021 1.91225 19.533 2.01407 19.6494 2.07225C20.3032 2.29731 20.9961 2.3864 21.6856 2.33407C24.2307 2.5433 26.791 2.47502 29.3214 2.13043C29.6833 2.07549 30.0271 1.93596 30.3249 1.72316C30.7467 1.38861 30.3249 1.24316 30.3249 1.24316Z" fill="#772A65"/>
</g>
<path d="M23.7799 5.03952C24.0126 4.76316 24.1435 4.23952 23.8672 4.00679C23.7165 3.8962 23.5285 3.84919 23.3436 3.87588C21.6564 3.87588 19.6638 4.58861 18.2821 3.43952C17.2495 2.56679 17.6567 4.41407 17.6422 5.17043C17.6276 5.92679 17.7585 6.6977 17.6422 7.46861C17.6026 7.66632 17.6046 7.87008 17.648 8.06697C17.6914 8.26387 17.7753 8.44959 17.8942 8.61235C18.0132 8.77511 18.1647 8.91135 18.3392 9.01244C18.5136 9.11352 18.7072 9.17723 18.9075 9.19952C19.1702 9.28666 19.4452 9.33086 19.722 9.33043C20.6674 9.33043 21.5982 9.33043 22.5291 9.33043C22.6107 9.34119 22.6937 9.33078 22.7701 9.30022C22.8465 9.26965 22.9137 9.21995 22.9654 9.15588C23.0268 9.02428 23.0519 8.87864 23.0381 8.73407C23.0381 8.23952 22.8345 7.75952 22.7618 7.27952C22.6418 6.78478 22.7201 6.26272 22.98 5.82498C23.2312 5.54789 23.4983 5.28563 23.7799 5.03952Z" fill="#6B365B"/>
<g opacity="0.3">
<path d="M31.5902 3.03225C31.081 3.35151 30.5338 3.60562 29.9613 3.78861C29.5599 3.8823 29.1511 3.94071 28.7395 3.96316L26.0343 4.19588C25.8932 4.1885 25.7527 4.21862 25.627 4.28316C25.1762 4.54498 25.2053 5.40316 24.7689 5.7377L24.4199 5.91225C24.2279 6.09574 24.0898 6.3283 24.0205 6.58471C23.9513 6.84112 23.9536 7.11159 24.0272 7.36679C24.1648 7.88139 24.1648 8.42311 24.0272 8.9377C23.9425 9.08245 23.9116 9.25242 23.9399 9.4177C24.0126 9.59225 24.2162 9.56316 24.3908 9.5777C25.9366 9.65277 27.485 9.50085 28.9868 9.12679C29.6983 8.97227 30.3982 8.76813 31.0812 8.51588C31.1384 8.50485 31.19 8.47394 31.2266 8.42861C31.2266 8.42861 31.5321 8.2977 31.5466 8.22498C31.5466 7.67225 31.4012 7.10498 31.4593 6.55225C31.6765 5.38691 31.7206 4.19591 31.5902 3.0177V3.03225Z" fill="#0B0108"/>
</g>
<g opacity="0.4">
<path d="M36.8554 46.785L36.739 46.6832C35.678 45.9261 34.8131 44.9267 34.216 43.768C33.619 42.6093 33.3072 41.3248 33.3065 40.0213L33.5392 39.4832C30.6128 39.8761 27.6635 40.0753 24.7108 40.0795C21.6064 40.073 18.5061 39.8543 15.4315 39.425L15.6933 40.0213C15.6929 41.3161 15.3856 42.5923 14.7965 43.7453C14.2075 44.8983 13.3534 45.8951 12.3044 46.6541C16.4603 47.4515 20.6827 47.8509 24.9144 47.8468C28.9184 47.8498 32.9147 47.4945 36.8554 46.785Z" fill="#F26001"/>
</g>
<g opacity="0.2">
<path d="M13.9189 33.025L14.0644 33.1995C14.0644 32.9522 13.9771 32.705 13.948 32.4577L13.9189 33.025Z" fill="#E63E03"/>
</g>
<g opacity="0.2">
<path d="M34.47 29.3886C33.2774 24.1135 32.0799 18.8141 30.8776 13.4904C30.8551 13.2412 30.7348 13.0111 30.5431 12.8504C30.3447 12.785 30.1305 12.785 29.9322 12.8504L25.0744 13.4904C28.3577 17.9905 29.9724 23.4932 29.6413 29.0541C29.6048 30.6073 29.2222 32.1329 28.5214 33.5195C27.7661 34.7426 26.6867 35.7326 25.403 36.3796C24.1194 37.0266 22.6816 37.3054 21.2492 37.185C19.8537 37.0289 18.5033 36.5961 17.2771 35.9117C16.0509 35.2274 14.9735 34.3053 14.1079 33.1995C14.246 35.3325 15.162 37.3407 16.6823 38.8432C17.9729 39.7249 19.4841 40.2287 21.0456 40.2977C23.4616 40.5769 25.9017 40.5769 28.3178 40.2977C29.4584 40.2272 30.57 39.9096 31.5757 39.3668C32.649 38.6142 33.4904 37.5763 34.0046 36.3704C34.495 35.3975 34.8007 34.3421 34.9064 33.2577C34.9707 31.9529 34.8233 30.6463 34.47 29.3886Z" fill="#E63E03"/>
</g>
<path d="M35.3137 29.2141L31.6485 12.4577V11.8759C29.3108 12.5379 26.8932 12.8756 24.4636 12.8795C22.0407 12.8483 19.6315 12.5111 17.2932 11.8759V12.4577L13.6716 29.2141C17.238 29.8555 20.8545 30.1768 24.4781 30.1741C28.1114 30.178 31.7377 29.8568 35.3137 29.2141Z" fill="#390C2D"/>
<path d="M24.58 67.0468C17.7296 67.0468 12.1445 71.4104 12.1445 76.865V109.345C12.1464 109.658 12.2101 109.967 12.3319 110.255C12.4537 110.542 12.6313 110.803 12.8543 111.022C13.0773 111.241 13.3415 111.414 13.6315 111.531C13.9216 111.647 14.2318 111.705 14.5444 111.701H34.6592C35.2855 111.701 35.8863 111.454 36.3305 111.012C36.7746 110.571 37.0261 109.971 37.03 109.345V76.865C37.03 71.4541 31.4449 67.0468 24.58 67.0468Z" fill="#BC0A01"/>
<path d="M24.5799 65.3595C16.7986 65.3595 10.4573 70.5232 10.4573 76.865V109.345C10.4592 109.879 10.5665 110.408 10.7731 110.9C10.9797 111.393 11.2815 111.84 11.6612 112.215C12.0409 112.591 12.491 112.888 12.9858 113.089C13.4805 113.291 14.0101 113.392 14.5442 113.389H34.6591C35.7303 113.385 36.7565 112.958 37.514 112.2C38.2714 111.443 38.6986 110.416 38.7025 109.345V76.865C38.7025 70.5232 32.3756 65.3595 24.5799 65.3595ZM37.0298 109.345C37.026 109.971 36.7745 110.571 36.3304 111.012C35.8862 111.454 35.2854 111.701 34.6591 111.701H14.5442C14.2317 111.705 13.9215 111.647 13.6314 111.531C13.3414 111.414 13.0772 111.241 12.8542 111.022C12.6312 110.803 12.4536 110.542 12.3318 110.255C12.21 109.967 12.1463 109.658 12.1444 109.345V76.865C12.1444 71.4541 17.7295 67.0468 24.5799 67.0468C31.4303 67.0468 37.0298 71.4104 37.0298 76.865V109.345Z" fill="black"/>
<g opacity="0.2">
<path d="M12.1445 76.865V109.345C12.1499 109.859 12.3213 110.358 12.6332 110.767C12.9451 111.176 13.3808 111.473 13.8753 111.614V71.8904C12.7731 73.3164 12.1655 75.0627 12.1445 76.865Z" fill="#491507"/>
</g>
<g opacity="0.2">
<path d="M15.0388 111.701H16.7696V69.2286C16.1534 69.6268 15.5741 70.0796 15.0388 70.5813V111.701Z" fill="#491507"/>
</g>
<g opacity="0.2">
<path d="M17.9331 111.701H19.6639V67.8468C19.0703 68.0475 18.4919 68.2905 17.9331 68.5741V111.701Z" fill="#491507"/>
</g>
<g opacity="0.2">
<path d="M20.8274 111.701H22.5582V67.1922C21.9761 67.262 21.3982 67.364 20.8274 67.4977V111.701Z" fill="#491507"/>
</g>
<g opacity="0.2">
<path d="M23.7217 67.0759V111.701H25.4525V67.0759H24.5798H23.7217Z" fill="#491507"/>
</g>
<g opacity="0.2">
<path d="M26.6162 67.1922V111.701H28.347V67.4977C27.7756 67.3665 27.198 67.2645 26.6162 67.1922Z" fill="#491507"/>
</g>
<g opacity="0.2">
<path d="M29.5105 111.701H31.2413V68.5741C30.6813 68.2932 30.103 68.0502 29.5105 67.8468V111.701Z" fill="#491507"/>
</g>
<g opacity="0.2">
<path d="M32.4048 111.701H34.1356V70.5813C33.6003 70.0796 33.021 69.6268 32.4048 69.2286V111.701Z" fill="#491507"/>
</g>
<g opacity="0.2">
<path d="M35.2991 71.8904V111.614C35.7936 111.473 36.2293 111.176 36.5412 110.767C36.8531 110.358 37.0245 109.859 37.0299 109.345V76.865C37.0089 75.0627 36.4013 73.3164 35.2991 71.8904Z" fill="#491507"/>
</g>
<path d="M40.3023 78.785H8.84277L10.0936 82.1595L8.84277 85.5195H40.3023L39.0514 82.1595L40.3023 78.785Z" fill="#42210B"/>
<path d="M41.6697 77.8395H7.47583L9.09026 82.2032L7.47583 86.5668H41.6697L40.0698 82.2032L41.6697 77.8395ZM8.843 85.5195L10.0938 82.1595L8.843 78.785H40.3025L39.0517 82.1595L40.3025 85.5195H8.843Z" fill="#FFFDBB"/>
<path d="M14.5443 82.2759C14.4204 82.5153 14.2845 82.7483 14.1371 82.9741C14.0018 83.1707 13.8561 83.3601 13.7008 83.5413C13.6334 83.6044 13.5543 83.6538 13.4681 83.6868C13.3963 83.7268 13.3171 83.7516 13.2354 83.7595H13.0899H13.0172C12.8865 83.5393 12.8162 83.2884 12.8136 83.0322C12.7482 82.5503 12.7191 82.064 12.7263 81.5777C12.7114 81.2736 12.7457 80.969 12.8281 80.6759C12.8547 80.6188 12.8946 80.5689 12.9445 80.5304L13.1626 80.3995L13.439 80.3122H13.6571H13.7735C13.7803 80.3284 13.7838 80.3457 13.7838 80.3632C13.7838 80.3806 13.7803 80.3979 13.7735 80.4141C13.7735 80.5741 13.7735 80.7922 13.6717 81.0832C13.5699 81.3741 13.6717 81.4322 13.6717 81.5486C13.6717 81.665 13.6717 81.825 13.6717 82.0286C13.6717 82.2322 13.6717 82.4359 13.6717 82.6395C13.7609 82.5281 13.8435 82.4116 13.9189 82.2904C13.9494 82.2396 13.9834 82.191 14.0207 82.145L14.108 81.985C14.1807 81.8395 14.2535 81.7086 14.3116 81.5777C14.3467 81.5176 14.3759 81.4543 14.3989 81.3886C14.5336 81.0365 14.7146 80.7039 14.937 80.3995C15.0141 80.341 15.1037 80.3012 15.1988 80.2832C15.3144 80.2644 15.4323 80.2644 15.5479 80.2832C15.6002 80.2682 15.6556 80.2682 15.7079 80.2832C15.7169 80.3012 15.7215 80.3211 15.7215 80.3413C15.7215 80.3615 15.7169 80.3814 15.7079 80.3995C15.701 80.4907 15.6763 80.5797 15.6352 80.6613C15.5418 80.9358 15.4737 81.2182 15.4316 81.505C15.3775 81.7732 15.3483 82.0459 15.3443 82.3195C15.3443 82.8141 15.4316 83.0468 15.6206 83.0468C15.6575 83.0451 15.6933 83.0333 15.724 83.0128C15.7548 82.9923 15.7794 82.9638 15.7952 82.9304C15.8554 82.8346 15.9042 82.7321 15.9406 82.625C15.9808 82.477 16.0099 82.3263 16.0279 82.1741C16.0427 82.0047 16.0427 81.8343 16.0279 81.665C16.0346 81.539 16.0346 81.4128 16.0279 81.2868V81.1704C16.0367 81.0599 16.0684 80.9523 16.121 80.8547C16.1735 80.757 16.2459 80.6714 16.3333 80.6032C16.4351 80.5159 16.5078 80.4577 16.5515 80.4577C16.5951 80.4577 16.7405 80.6904 16.7405 81.1268C16.737 81.4301 16.7029 81.7322 16.6387 82.0286C16.5674 82.3424 16.4446 82.6423 16.2751 82.9159C16.1985 83.057 16.1058 83.1888 15.9988 83.3086C15.9033 83.4172 15.796 83.5148 15.6788 83.5995C15.5544 83.6841 15.4075 83.7297 15.257 83.7304C15.1334 83.7403 15.0094 83.7156 14.8989 83.6591C14.7885 83.6026 14.6959 83.5165 14.6316 83.4104C14.4705 83.1018 14.3999 82.7538 14.428 82.4068L14.5443 82.2759Z" fill="white"/>
<path d="M18.1804 82.625V82.7995C18.1765 82.8479 18.1765 82.8966 18.1804 82.945C18.1266 83.1662 18.0485 83.3808 17.9477 83.585C17.9477 83.585 17.9477 83.585 17.9477 83.6722C17.8357 83.7713 17.6898 83.8233 17.5404 83.8177C17.434 83.8212 17.3285 83.7961 17.235 83.745C17.2 83.7201 17.1713 83.6875 17.1511 83.6496C17.1309 83.6118 17.1198 83.5697 17.1187 83.5268C17.132 83.4132 17.1563 83.3011 17.1914 83.1922C17.229 83.0339 17.2776 82.8784 17.3368 82.7268C17.2059 82.7268 17.1332 82.6395 17.1332 82.5522C17.1414 82.4751 17.1662 82.4007 17.2059 82.3341C17.246 82.2605 17.2948 82.1922 17.3514 82.1304C17.3769 82.0809 17.4114 82.0365 17.4532 81.9995C17.4532 81.9268 17.4532 81.7813 17.5986 81.5341C17.6967 81.1829 17.8282 80.8419 17.9913 80.5159L18.0349 80.3995C18.081 80.3548 18.1357 80.3201 18.1958 80.2976C18.2559 80.2751 18.3199 80.2652 18.384 80.2686C18.4558 80.2519 18.5304 80.2519 18.6022 80.2686C18.6675 80.2951 18.7233 80.3407 18.7622 80.3995C18.7791 80.4565 18.7791 80.5171 18.7622 80.5741C18.6765 80.9911 18.5549 81.3999 18.3986 81.7959V81.9413H19.3439V81.7813C19.3885 81.609 19.4419 81.4391 19.5039 81.2722C19.5039 81.0977 19.6203 80.9668 19.6494 80.865C19.6844 80.769 19.7282 80.6765 19.7803 80.5886C19.81 80.5249 19.8493 80.4661 19.8966 80.4141C19.9458 80.3645 20.0049 80.3259 20.0701 80.3008C20.1353 80.2758 20.2051 80.2648 20.2748 80.2686C20.5366 80.2686 20.6675 80.385 20.6675 80.6032C20.6336 81.0338 20.5305 81.4562 20.362 81.8541C20.362 81.9413 20.362 81.985 20.362 81.9995C20.4375 81.974 20.5193 81.974 20.5948 81.9995C20.604 82.0201 20.6088 82.0424 20.6088 82.065C20.6088 82.0875 20.604 82.1098 20.5948 82.1304C20.6105 82.1826 20.6105 82.2383 20.5948 82.2904C20.5546 82.3594 20.5057 82.423 20.4493 82.4795C20.4131 82.5221 20.3686 82.5567 20.3184 82.5813C20.251 82.5927 20.1822 82.5927 20.1148 82.5813C20.1089 82.6296 20.1089 82.6785 20.1148 82.7268C20.1148 82.8286 20.1148 82.9304 19.9984 83.0177C19.9692 83.0973 19.9352 83.175 19.8966 83.2504C19.9045 83.2986 19.9045 83.3477 19.8966 83.3959L19.8094 83.4977C19.7228 83.568 19.6242 83.6222 19.5185 83.6577C19.4321 83.6753 19.3431 83.6753 19.2567 83.6577C19.1958 83.6813 19.1284 83.6813 19.0676 83.6577C19.0212 83.6115 18.995 83.5487 18.9949 83.4832C19.0338 83.2241 19.1021 82.9704 19.1985 82.7268V82.5377L18.1804 82.625Z" fill="white"/>
<path d="M22.5872 80.7486C22.3442 80.7737 22.105 80.8274 21.8746 80.9086C21.7207 80.9723 21.5595 81.0163 21.3946 81.0395C21.3471 81.0533 21.2967 81.0533 21.2492 81.0395C21.2336 80.9973 21.2336 80.9509 21.2492 80.9086C21.2645 80.7941 21.3154 80.6873 21.3946 80.6032C21.4674 80.5052 21.562 80.4255 21.6709 80.3704C21.9552 80.2946 22.2499 80.2651 22.5436 80.2832H23.0672L23.5181 80.3559C23.6006 80.3695 23.6797 80.3991 23.7508 80.4432C23.7613 80.4812 23.7613 80.5214 23.7508 80.5595C23.7596 80.6514 23.7596 80.744 23.7508 80.8359C23.7237 80.9685 23.6897 81.0996 23.649 81.2286C23.4268 81.9279 23.1395 82.6048 22.7909 83.2504C22.7271 83.3754 22.649 83.4926 22.5581 83.5995C22.4936 83.6796 22.4079 83.74 22.3109 83.7741C22.2001 83.7917 22.0872 83.7917 21.9764 83.7741C21.8048 83.7737 21.6356 83.7339 21.4819 83.6577C21.336 83.6036 21.2094 83.5074 21.1183 83.3813C21.0215 83.2738 20.9694 83.1333 20.9728 82.9886C20.9791 82.8786 21.0036 82.7705 21.0455 82.6686L21.1764 82.4068C21.1925 82.4 21.2099 82.3965 21.2273 82.3965C21.2448 82.3965 21.2621 82.4 21.2782 82.4068C21.3073 82.41 21.3354 82.4195 21.3605 82.4346C21.3856 82.4496 21.4071 82.4699 21.4237 82.4941C21.5018 82.5662 21.5617 82.656 21.5982 82.7559C21.6663 82.9286 21.7594 83.0903 21.8746 83.2359L21.8164 83.3086L21.9909 82.8722C21.9909 82.7559 22.0927 82.6104 22.1509 82.4068C22.2091 82.2032 22.2527 82.0577 22.34 81.7086C22.4272 81.3595 22.5291 81.0977 22.5872 80.7486Z" fill="white"/>
<path d="M28.1433 81.5922L28.6524 81.025L28.9869 80.7195L29.2778 80.5013C29.4395 80.3834 29.6309 80.3129 29.8305 80.2977C29.9614 80.2977 30.0196 80.2977 30.0196 80.4432C30.0333 80.5152 30.0333 80.5893 30.0196 80.6613C29.9794 80.7303 29.9305 80.7939 29.8741 80.8504C29.6909 81.0118 29.491 81.1532 29.2778 81.2722C29.096 81.3826 28.9211 81.504 28.7542 81.6359C28.7542 81.7668 28.7542 81.8686 28.8269 81.9704L28.9142 82.2468C28.9515 82.3418 28.9952 82.4341 29.0451 82.5232C29.1043 82.6397 29.1724 82.7515 29.2487 82.8577C29.3821 83.0719 29.5738 83.2434 29.8014 83.3522H29.8741C29.8741 83.3522 29.8741 83.4395 29.7869 83.4977C29.7069 83.5769 29.6133 83.641 29.5105 83.6868C29.3951 83.7078 29.2769 83.7078 29.1614 83.6868C28.9648 83.6942 28.771 83.6381 28.6088 83.5268C28.4382 83.4138 28.3063 83.2514 28.2306 83.0613C28.1168 82.8034 28.0479 82.5279 28.027 82.2468C28.027 82.2468 28.027 82.1304 28.027 82.0722C27.9649 82.1487 27.9113 82.2316 27.867 82.3195L27.7216 82.6541C27.6633 82.818 27.5953 82.9783 27.5179 83.1341C27.4525 83.2272 27.3795 83.3147 27.2998 83.3959C27.2195 83.4639 27.1317 83.5225 27.038 83.5704C26.9563 83.5861 26.8724 83.5861 26.7907 83.5704C26.7726 83.5794 26.7527 83.5841 26.7325 83.5841C26.7123 83.5841 26.6924 83.5794 26.6744 83.5704C26.6574 83.5284 26.6574 83.4815 26.6744 83.4395C26.6744 83.105 26.8343 82.785 26.9216 82.4504L27.2125 81.5195C27.3143 81.2141 27.4016 80.9668 27.4888 80.7632C27.5207 80.6359 27.5696 80.5136 27.6343 80.3995C27.6991 80.3332 27.7789 80.2833 27.867 80.2541C27.9775 80.2332 28.091 80.2332 28.2015 80.2541C28.2777 80.233 28.3581 80.233 28.4342 80.2541C28.4445 80.2744 28.4498 80.2968 28.4498 80.3195C28.4498 80.3423 28.4445 80.3647 28.4342 80.385C28.3738 80.688 28.2861 80.9849 28.1724 81.2722V81.4322C28.1639 81.4901 28.1639 81.5489 28.1724 81.6068L28.1433 81.5922Z" fill="white"/>
<path d="M32.1722 82.625H31.2268C31.2299 82.7459 31.2705 82.8628 31.3431 82.9595C31.3662 83.0029 31.3994 83.0402 31.4399 83.068C31.4804 83.0959 31.5271 83.1135 31.5759 83.1195C31.7107 83.103 31.8427 83.0688 31.9686 83.0177C32.1634 82.9378 32.3528 82.8455 32.5358 82.7413H32.6231H32.754C32.8123 82.6993 32.8759 82.6651 32.943 82.6395C32.943 82.6395 32.943 82.6395 32.943 82.7268C32.9485 82.7994 32.9485 82.8723 32.943 82.945L32.8558 83.1632C32.8321 83.2224 32.7976 83.2767 32.754 83.3232C32.6027 83.4377 32.4363 83.5307 32.2594 83.5995C32.0241 83.7014 31.7809 83.784 31.5322 83.8468H31.3141C31.0927 83.8453 30.8744 83.7956 30.6741 83.7013C30.4929 83.6108 30.3377 83.4757 30.2232 83.3086C30.1179 83.1436 30.0623 82.9517 30.0632 82.7559C30.0655 82.5672 30.0999 82.3803 30.1651 82.2032C30.2413 81.9949 30.3388 81.7951 30.4559 81.6068C30.5814 81.4076 30.7276 81.2223 30.8923 81.0541C31.0305 80.9044 31.1869 80.7724 31.3577 80.6613C31.5097 80.5517 31.6761 80.4636 31.8522 80.3995C31.9909 80.3413 32.1384 80.3069 32.2885 80.2977C32.4896 80.2916 32.686 80.3588 32.8412 80.4868C32.9094 80.5372 32.9647 80.603 33.0026 80.6788C33.0405 80.7547 33.06 80.8384 33.0594 80.9232C33.0709 81.0052 33.0709 81.0884 33.0594 81.1704C33.0344 81.2516 33.0002 81.3297 32.9576 81.4032C32.8916 81.4779 32.8185 81.5461 32.7394 81.6068C32.6429 81.6818 32.5348 81.7408 32.4194 81.7813C32.2862 81.8375 32.142 81.8624 31.9976 81.8541C31.8958 81.8541 31.8522 81.8541 31.8522 81.8541C31.8522 81.8541 31.8522 81.8541 31.9395 81.7086C32.0115 81.6481 32.0708 81.574 32.114 81.4904C32.1738 81.3791 32.2225 81.2622 32.2594 81.1413C32.2744 81.0352 32.2744 80.9275 32.2594 80.8213V80.7195C32.2594 80.7195 32.0995 80.7922 31.9395 80.9232C31.8033 81.0339 31.6812 81.1609 31.5759 81.3013C31.4957 81.4179 31.4229 81.5394 31.3577 81.665C31.3122 81.7827 31.2781 81.9044 31.2559 82.0286H32.6231C32.7685 82.0286 32.8412 82.0286 32.8412 82.145C32.8412 82.2613 32.754 82.3341 32.594 82.4941C32.4708 82.5813 32.3231 82.6271 32.1722 82.625Z" fill="white"/>
<path d="M34.4556 80.8941V81.0832C34.4556 81.0832 34.4556 81.1704 34.4556 81.2432C34.4852 81.6636 34.5436 82.0815 34.6301 82.4941C34.6698 82.6471 34.7184 82.7976 34.7756 82.945L34.9937 82.4795L35.0664 82.305C35.0735 82.2714 35.0735 82.2367 35.0664 82.2032V82.0868L35.241 81.6359C35.241 81.4904 35.3282 81.4032 35.3428 81.3595C35.3705 81.2747 35.4045 81.192 35.4446 81.1122C35.5046 80.9736 35.5939 80.8495 35.7064 80.7486C35.767 80.6782 35.8353 80.6148 35.91 80.5595L36.1282 80.4286H36.3027C36.3754 80.4286 36.4045 80.4286 36.4045 80.4286C36.4199 80.4907 36.4199 80.5556 36.4045 80.6177C36.3173 80.8504 36.1864 81.1413 36.0264 81.4759C35.8664 81.8104 35.6919 82.145 35.5319 82.465C35.3719 82.785 35.2119 83.0468 35.0955 83.2213C34.9792 83.3959 34.9065 83.5268 34.8046 83.6577C34.6656 83.8635 34.5046 84.0537 34.3247 84.225C34.1785 84.358 34.0114 84.4661 33.8302 84.545L33.5102 84.6468H33.452C33.3803 84.6635 33.3056 84.6635 33.2339 84.6468C33.212 84.6326 33.1939 84.6132 33.1812 84.5904C33.1686 84.5676 33.1617 84.542 33.1611 84.5159C33.1724 84.4144 33.202 84.3159 33.2484 84.225C33.2959 84.1188 33.3597 84.0206 33.4375 83.9341C33.5123 83.9049 33.5954 83.9049 33.6702 83.9341C33.7713 83.9504 33.8745 83.9504 33.9756 83.9341H34.1502L34.3683 83.8177C34.2374 83.5995 34.1211 83.3813 34.0193 83.1922C33.9293 83.0085 33.8516 82.819 33.7865 82.625C33.6899 82.3704 33.6169 82.1075 33.5684 81.8395C33.5147 81.5958 33.4855 81.3473 33.4811 81.0977C33.4622 81.0115 33.4622 80.9221 33.4811 80.8359C33.5085 80.7666 33.5602 80.7097 33.6266 80.6759L33.9465 80.5159C34.0444 80.4772 34.1472 80.4527 34.252 80.4432C34.3247 80.4432 34.3683 80.4432 34.3829 80.5159C34.4069 80.6163 34.4069 80.7209 34.3829 80.8213C34.4077 80.845 34.4319 80.8693 34.4556 80.8941Z" fill="white"/>
<path d="M24.5799 100.356C23.388 100.356 22.2448 100.829 21.402 101.672C20.5592 102.515 20.0857 103.658 20.0857 104.85V111.76H29.0887V104.85C29.0887 104.259 28.9719 103.673 28.7452 103.127C28.5184 102.581 28.1861 102.085 27.7672 101.667C27.3483 101.25 26.8512 100.919 26.3042 100.694C25.7573 100.469 25.1713 100.354 24.5799 100.356Z" fill="white"/>
<path d="M19.2422 104.85V112.603H29.9323V104.85C29.9323 104.148 29.7938 103.453 29.5246 102.804C29.2554 102.156 28.861 101.566 28.3638 101.071C27.8666 100.575 27.2764 100.182 26.6271 99.9144C25.9778 99.647 25.2822 99.5103 24.58 99.5122C23.1643 99.5122 21.8066 100.075 20.8056 101.076C19.8046 102.077 19.2422 103.435 19.2422 104.85ZM29.0887 111.76H20.0858V104.85C20.0858 103.658 20.5593 102.515 21.4021 101.672C22.2449 100.829 23.388 100.356 24.58 100.356C25.1714 100.354 25.7574 100.469 26.3043 100.694C26.8512 100.919 27.3484 101.25 27.7673 101.667C28.1861 102.085 28.5185 102.581 28.7452 103.127C28.972 103.673 29.0887 104.259 29.0887 104.85V111.76Z" fill="black"/>
<path d="M23.7946 108.036H23.5764L22.2529 106.232V107.192C22.2828 107.366 22.2828 107.543 22.2529 107.716C22.2143 107.819 22.1427 107.906 22.0493 107.963C21.9496 108.026 21.8326 108.057 21.7148 108.05C21.6441 108.075 21.5673 108.075 21.4966 108.05C21.4657 108.023 21.4408 107.989 21.4233 107.952C21.4058 107.914 21.3961 107.874 21.3948 107.832C21.384 107.807 21.3784 107.78 21.3784 107.752C21.3784 107.725 21.384 107.698 21.3948 107.672C21.4178 107.663 21.4425 107.658 21.4675 107.658C21.4925 107.658 21.5172 107.663 21.5402 107.672H21.642C21.6913 107.705 21.7314 107.75 21.7584 107.803C21.7584 107.89 21.8602 107.934 21.9038 107.934C21.9475 107.934 22.0929 107.73 22.0929 107.323V106.392C22.1118 106.306 22.1118 106.217 22.0929 106.13C22.0647 106.074 22.0187 106.028 21.962 106C21.8658 105.982 21.7673 105.982 21.6711 106V105.869H22.4711L23.7219 107.614V106.494C23.7041 106.364 23.7041 106.232 23.7219 106.101C23.7477 106.012 23.8044 105.935 23.8819 105.883C23.9673 105.824 24.0691 105.794 24.1728 105.796C24.2726 105.789 24.3715 105.82 24.4491 105.883C24.4823 105.909 24.5089 105.942 24.5266 105.98C24.5443 106.018 24.5526 106.059 24.5509 106.101C24.5617 106.127 24.5673 106.154 24.5673 106.181C24.5673 106.209 24.5617 106.236 24.5509 106.261C24.5041 106.279 24.4523 106.279 24.4055 106.261H24.3037C24.2544 106.228 24.2143 106.183 24.1873 106.13C24.1873 106.043 24.0855 106 24.0419 106C24.0172 105.999 23.9933 106.008 23.9746 106.024C23.9558 106.04 23.9436 106.062 23.9401 106.087C23.9118 106.246 23.9118 106.408 23.9401 106.567C23.9401 106.669 23.9401 106.756 23.9401 106.829C23.9401 106.901 23.9401 107.309 23.9401 107.44V108.036H23.7946ZM24.8418 107.44C24.6732 107.44 24.5094 107.383 24.3764 107.28C24.3138 107.229 24.2641 107.165 24.2312 107.091C24.1984 107.018 24.1833 106.938 24.1873 106.858C24.1853 106.777 24.1998 106.697 24.2298 106.622C24.2598 106.547 24.3047 106.478 24.3618 106.421C24.4261 106.362 24.5016 106.315 24.5841 106.285C24.6666 106.255 24.7542 106.242 24.8418 106.247C24.9304 106.244 25.0187 106.26 25.1012 106.292C25.1837 106.325 25.2588 106.373 25.3218 106.436C25.4258 106.535 25.4882 106.67 25.4963 106.814C25.5015 106.9 25.4886 106.985 25.4585 107.065C25.4285 107.146 25.3819 107.219 25.3218 107.28C25.1849 107.386 25.0154 107.443 24.8418 107.44ZM24.3618 107.643H25.3363V108.036H24.3473V107.789L24.3618 107.643ZM24.8418 106.378C24.806 106.379 24.7707 106.387 24.7382 106.402C24.7057 106.417 24.6766 106.438 24.6527 106.465C24.592 106.597 24.5669 106.742 24.58 106.887C24.58 107.178 24.6673 107.323 24.8418 107.323C25.0163 107.323 25.1036 107.149 25.1036 106.829C25.1036 106.509 25.0163 106.378 24.8418 106.378Z" fill="#BC0A01"/>
<path d="M27.6343 104.792H28.027V107.614C28.0169 107.647 28.0169 107.683 28.027 107.716C28.0888 107.733 28.1543 107.733 28.2161 107.716H28.4488V108.036H26.9944C26.9969 108.007 26.9969 107.978 26.9944 107.949C26.9958 107.924 26.9958 107.9 26.9944 107.876H27.2125C27.2846 107.889 27.3586 107.889 27.4307 107.876C27.4407 107.848 27.4407 107.817 27.4307 107.789C27.4307 107.789 27.4307 105.563 27.4307 105.476L27.038 105.738L26.8198 105.84L26.718 105.665L27.0671 105.461L27.4016 105.2L27.6343 104.792Z" fill="#BC0A01"/>
<path d="M24.9725 94.9159L24.5798 94.1159L24.1726 94.9159L23.2854 95.0468L23.9254 95.6722L23.7799 96.5741L24.5798 96.1522L25.3798 96.5741L25.2198 95.6722L25.8743 95.0468L24.9725 94.9159Z" fill="white"/>
<path d="M30.7903 95.0468L29.8886 94.9159L29.4959 94.1159L29.1032 94.9159L28.2014 95.0468L28.8559 95.6722L28.6959 96.5741L29.4959 96.1522L30.2958 96.5741L30.1504 95.6722L30.7903 95.0468Z" fill="white"/>
<path d="M20.0421 94.9159L19.6494 94.1159L19.2422 94.9159L18.355 95.0468L18.9949 95.6722L18.8495 96.5741L19.6494 96.1522L20.4348 96.5741L20.2894 95.6722L20.9293 95.0468L20.0421 94.9159Z" fill="white"/>
<g opacity="0.3">
<path d="M22.4564 32.0504C21.5611 26.881 21.4239 21.6086 22.0492 16.3995C22.2215 15.5561 22.1405 14.6806 21.8165 13.8832C21.4092 13.1122 20.2457 12.705 19.6494 13.345L19.2712 13.1704C17.6979 18.0364 16.4539 23.0028 15.5479 28.0359C15.0416 29.7121 15.1978 31.5187 15.9842 33.0832C16.5828 33.8074 17.3759 34.3455 18.27 34.6341C19.1641 34.9227 20.1221 34.9498 21.0311 34.7122C21.4646 34.6552 21.8704 34.4675 22.1946 34.1741C22.3926 33.8615 22.5187 33.5089 22.564 33.1417C22.6093 32.7744 22.5725 32.4017 22.4564 32.0504Z" fill="#F1BD51"/>
</g>
<g opacity="0.3">
<path d="M21.1039 14.5959C21.0141 14.4547 20.8774 14.3496 20.7178 14.2991C20.5583 14.2485 20.386 14.2558 20.2313 14.3195C20.1323 14.3774 20.0477 14.4569 19.984 14.5522V14.4504C19.9772 14.4938 19.9772 14.538 19.984 14.5813C19.9001 14.6897 19.8541 14.8225 19.8531 14.9595C18.5804 18.7647 17.5697 22.6526 16.8279 26.5959C16.6759 27.2633 16.6317 27.9508 16.697 28.6322C16.7384 28.9702 16.8622 29.2929 17.0575 29.5719C17.2527 29.8509 17.5135 30.0776 17.8169 30.2322C17.95 30.3075 18.1003 30.347 18.2532 30.347C18.4061 30.347 18.5564 30.3075 18.6896 30.2322C18.8993 30.0169 19.0234 29.7325 19.0386 29.4322C19.7513 24.8359 20.4931 20.2541 21.2057 15.6577C21.3075 15.3036 21.2711 14.9242 21.1039 14.5959Z" fill="white"/>
</g>
<g opacity="0.5">
<path d="M43.633 54.305C40.9406 51.5002 38.0218 48.9218 34.9064 46.5959C34.1313 46.0054 33.4624 45.2873 32.9284 44.4722C31.3867 41.8541 32.652 38.5522 33.9174 35.745C31.5153 38.0904 28.4835 39.6873 25.1908 40.3413C23.5366 40.65 21.8373 40.6237 20.1934 40.2639C18.5496 39.9042 16.9946 39.2183 15.6206 38.2468L15.9115 38.4941C17.5695 40.225 16.755 43.2213 15.0824 44.9377C14.9214 45.0725 14.809 45.2565 14.7625 45.4613C14.7625 45.8395 15.1406 46.0577 15.4897 46.1886C17.916 47.0577 20.4962 47.4143 23.0673 47.2359C24.5823 47.0463 26.1074 46.9491 27.6342 46.945C29.6522 47.1143 31.623 47.6464 33.452 48.5159C37.0213 49.8961 40.2689 51.9953 42.9931 54.6832C44.3475 56.0329 45.4074 57.6487 46.1058 59.4288C46.8042 61.2088 47.1261 63.1143 47.051 65.025C47.7927 61.2286 46.091 57.2723 43.633 54.305Z" fill="#E63E03"/>
</g>
<g opacity="0.3">
<path d="M31.3284 60.8213C28.8745 59.1449 26.3087 57.6383 23.649 56.3122C20.9741 54.9579 18.8699 52.6938 17.7149 49.9268C17.3076 48.6613 17.0458 47.0904 15.8096 46.5959C14.5733 46.1013 13.0752 47.3232 12.1589 48.5159C8.89774 50.7537 5.96113 53.4311 3.43231 56.4722C3.07742 56.8066 2.79886 57.2136 2.61562 57.6654C2.43239 58.1173 2.3488 58.6033 2.37057 59.0904C2.58873 60.2104 3.825 60.8068 4.8722 61.185C12.9734 64.0068 21.8164 63.5268 30.2812 63.0177C31.0375 63.0177 32.0266 62.6977 32.0556 61.9413C32.0327 61.7101 31.9547 61.4878 31.8281 61.2929C31.7016 61.0981 31.5303 60.9364 31.3284 60.8213Z" fill="white"/>
</g>
<g opacity="0.05">
<path d="M16.9878 120.196C15.4596 119.813 14.0448 119.07 12.861 118.031C11.6772 116.991 10.7584 115.684 10.1811 114.218C9.10374 111.306 8.53311 108.231 8.49392 105.127C8.0285 97.7959 7.89275 90.4601 8.08668 83.1195C8.30484 75.265 9.00297 67.1195 13.0172 60.3413C13.8753 58.8868 14.908 57.3013 14.4717 55.6868C14.2223 54.9429 13.7486 54.2945 13.1157 53.8309C12.4828 53.3673 11.7218 53.1111 10.9374 53.0977C9.36298 53.1113 7.82288 53.5592 6.4868 54.3922C5.48176 54.9788 4.68381 55.8632 4.20333 56.9232C2.57077 59.0901 1.61448 61.691 1.45444 64.3995C0.683591 71.1632 1.78896 77.985 2.25438 84.7632C2.65444 91.4626 2.65444 98.18 2.25438 104.88C2.03156 107.817 1.983 110.765 2.10894 113.709C2.14038 114.774 2.41393 115.819 2.90888 116.763C3.97953 118.212 5.523 119.241 7.27219 119.672C11.3883 121.127 15.7952 122.669 20.0131 121.578C19.4895 120.487 18.1078 120.4 16.9878 120.196Z" fill="#E63E03"/>
</g>
<g opacity="0.7">
<path d="M14.9805 48.7777C14.6176 48.6739 14.235 48.6594 13.8653 48.7353C13.4955 48.8113 13.1496 48.9756 12.8571 49.2141C11.9527 49.7959 11.1596 50.5348 10.5154 51.3959C8.78428 53.0597 7.46034 55.1005 6.64662 57.3595C6.44112 57.8673 6.34212 58.4119 6.35573 58.9595C6.36645 59.2315 6.44702 59.4962 6.58967 59.728C6.73232 59.9598 6.93225 60.151 7.17021 60.2832C7.49592 60.386 7.84152 60.4092 8.17808 60.351C8.51463 60.2928 8.83234 60.1548 9.10461 59.9486C11.9262 58.305 13.657 55.3522 15.1696 52.4722C15.5297 51.8755 15.7671 51.2128 15.8677 50.5232C15.9074 50.1773 15.8444 49.8273 15.6867 49.517C15.5289 49.2066 15.2833 48.9495 14.9805 48.7777Z" fill="white"/>
</g>
<g opacity="0.3">
<path d="M3.69409 64.1959C3.73862 64.0378 3.79204 63.8824 3.85408 63.7304L3.69409 64.1959Z" fill="#F1BD51"/>
</g>
<g opacity="0.3">
<path d="M7.3447 64.1813C6.69021 62.9304 4.69763 63.1341 3.72315 64.1813C2.60324 67.4104 2.93776 70.9741 3.27228 74.3632C4.33886 85.3207 5.01275 96.2929 5.29395 107.28C5.50112 107.052 5.66064 106.786 5.76307 106.496C5.8655 106.206 5.90875 105.899 5.89026 105.592C6.61748 92.5886 3.63589 79.2068 7.24289 66.6977C7.60176 65.9038 7.63826 65.0016 7.3447 64.1813Z" fill="#F1BD51"/>
</g>
<g opacity="0.5">
<g opacity="0.5">
<path d="M32.4485 38.2177L33.5248 36.6468C33.0572 37.0869 32.6901 37.6228 32.4485 38.2177Z" fill="#E63E03"/>
</g>
<g opacity="0.5">
<path d="M47.0947 65.0977C47.146 63.4735 47.0143 61.8488 46.702 60.2541C45.2476 54.4359 39.4298 51.0468 35.2847 46.7413C33.8788 45.4325 32.8322 43.7848 32.2449 41.9559C31.8991 40.7214 31.9707 39.4073 32.4485 38.2177L32.2158 38.5522C31.5322 39.9195 29.816 40.2977 28.3179 40.5304L22.9947 41.345C28.6815 43.0468 32.6812 48.0504 35.9682 52.9813C36.8947 54.2152 37.5581 55.6261 37.9172 57.1268C38.0869 57.8737 38.0403 58.6535 37.7827 59.3748C37.5251 60.0962 37.0672 60.7291 36.4627 61.1995C35.5901 61.7813 34.2956 62.0577 34.1066 63.0904C35.229 63.3605 36.2641 63.9123 37.1141 64.6936C37.9641 65.4749 38.6009 66.46 38.9644 67.5559C39.6654 69.7545 39.9851 72.0567 39.9098 74.3632C40.1037 81.9171 40.2879 89.4662 40.4624 97.0104C40.6761 101.377 40.5545 105.753 40.0988 110.101C39.9604 112.489 39.1707 114.793 37.8154 116.763C35.8904 118.81 33.3252 120.139 30.5432 120.53C27.7849 120.908 25.0579 121.487 22.3838 122.261C30.1084 123.226 37.9417 121.762 44.7967 118.072C45.4506 117.789 46.0178 117.337 46.4402 116.763C46.7375 116.117 46.8723 115.408 46.8329 114.698C47.1383 98.1595 47.1092 81.6213 47.0947 65.0977Z" fill="#E63E03"/>
</g>
</g>
<g opacity="0.2">
<path d="M40.2442 58.3341C40.2668 59.2151 40.0668 60.0876 39.6625 60.8707C39.2583 61.6539 38.6629 62.3223 37.9316 62.8141C39.4567 63.0832 41.0171 63.0832 42.5422 62.8141C43.1729 62.744 43.7694 62.4912 44.2584 62.0868C44.6477 61.5438 44.8678 60.8979 44.8911 60.2302C44.9144 59.5625 44.7398 58.9028 44.3893 58.3341C42.2368 53.3886 37.5826 50.1159 33.7865 46.2904C32.1284 44.6177 30.514 42.2177 31.4885 40.065L31.3721 39.9486C30.503 39.8936 29.6317 40.0173 28.8123 40.3122C28.4632 40.4286 28.0705 40.6904 28.1142 41.0541C28.1578 41.4177 28.4051 41.4613 28.6087 41.5922C31.7503 43.6141 32.972 47.4832 35.2846 50.4359C37.2335 52.8941 40.1278 55.1486 40.2442 58.3341Z" fill="#491507"/>
</g>
<g opacity="0.2">
<path d="M45.1747 63.8322L40.8114 64.5159C40.5932 64.5159 40.3459 64.5886 40.2441 64.7777C40.1423 64.9668 40.2441 65.3159 40.4041 65.5486C41.8586 67.9341 41.8586 70.9013 41.8586 73.6941C42.0767 84.9086 43.5021 96.1086 42.9348 107.309C43.0176 110.366 42.2524 113.387 40.7241 116.036C39.0079 118.523 36.2008 119.963 33.4519 121.316C36.2789 121.193 39.0593 120.552 41.6549 119.425C42.6539 119.079 43.5223 118.434 44.142 117.578C44.5476 116.801 44.762 115.938 44.7674 115.061C44.9129 112.952 44.942 110.829 44.9565 108.705L45.3492 63.8613L45.1747 63.8322Z" fill="#491507"/>
</g>
<path d="M44.1421 59.5413C44.3457 60.1959 44.5639 60.8504 44.7093 61.5195C44.5734 60.846 44.3837 60.1845 44.1421 59.5413Z" fill="#42210B"/>
<g opacity="0.5">
<path d="M33.3501 29.7668C32.4503 29.7448 31.5552 29.9031 30.7175 30.2322C31.5149 30.652 32.1479 31.3278 32.5146 32.151C32.8813 32.9742 32.9604 33.8968 32.7392 34.7704C33.4497 34.1648 33.9068 33.3144 34.02 32.3877C34.1331 31.461 33.894 30.5256 33.3501 29.7668Z" fill="#E63E03"/>
</g>
<g opacity="0.5">
<path d="M44.1421 59.5413C43.7462 58.2625 43.2602 57.0133 42.6877 55.8032C42.2254 54.7697 41.6445 53.7935 40.9569 52.8941C39.6621 51.5195 38.2825 50.2272 36.8263 49.025C34.2549 46.5649 32.4514 43.4123 31.634 39.9486L31.4885 40.2541C30.6108 40.5165 29.7549 40.8472 28.9287 41.2432C30.9001 44.0939 33.1352 46.7529 35.6046 49.185C38.8043 52.385 42.5713 55.4686 44.1421 59.5413Z" fill="#BC0A01"/>
<path d="M46.2947 65.8541C46.911 63.2051 46.5059 60.4212 45.1603 58.0577C45.7847 59.3676 46.1219 60.7959 46.1493 62.2468C46.196 62.8684 46.0755 63.4912 45.8002 64.0504C45.6683 64.3162 45.4583 64.5353 45.1983 64.6783C44.9383 64.8213 44.6409 64.8814 44.3458 64.8504C45.6257 66.305 45.582 68.545 45.4511 70.5086C45.1166 75.9341 44.8112 81.3741 44.9857 86.8141C45.1893 93.3595 46.0911 99.9922 44.6803 106.392C44.5186 107.001 44.4211 107.625 44.3894 108.254C44.3894 109.2 44.5785 110.509 43.6767 110.785C43.3858 110.785 43.0368 110.785 42.8332 111.018C42.6295 111.25 42.8332 111.789 43.1531 111.963C43.4731 112.138 43.8949 112.138 44.2585 112.298C44.479 112.433 44.6702 112.611 44.8208 112.821C44.9714 113.031 45.0783 113.269 45.1352 113.521C45.1922 113.774 45.198 114.035 45.1523 114.289C45.1067 114.544 45.0105 114.786 44.8694 115.003C44.2478 115.857 43.4021 116.521 42.4259 116.923L37.2917 119.614C39.056 119.553 40.7808 119.075 42.3241 118.218C43.5303 117.835 44.5613 117.036 45.233 115.963C45.4662 115.345 45.5844 114.689 45.582 114.029C45.8729 108.21 46.1056 102.392 46.2802 96.5741C46.6001 85.8832 46.7311 75.1922 47.2256 64.5741L46.2947 65.8541Z" fill="#BC0A01"/>
</g>
<g opacity="0.2">
<path d="M11.4173 117.563C9.28503 116.349 7.58634 114.497 6.55949 112.269C5.4832 110.087 3.89787 101.883 3.37427 99.5122C3.44699 102.567 3.50517 108.647 3.60698 110.698C3.60698 110.698 3.60698 111.658 3.75242 113.476C3.73712 114.261 3.89089 115.039 4.2033 115.76C4.65207 116.449 5.28077 117.002 6.02134 117.36C8.89582 118.822 12.0183 119.735 15.2279 120.05C16.5803 120.361 17.9951 120.255 19.2858 119.745C16.6969 118.887 13.8462 118.814 11.4173 117.563Z" fill="#E63E03"/>
</g>
<path d="M15.1697 35.5413C15.4617 36.3243 15.9065 37.0413 16.4783 37.6507C17.0502 38.26 17.7375 38.7494 18.5003 39.0904C19.2709 39.4325 20.1183 39.5642 20.9563 39.4722C21.7942 39.3802 22.5929 39.0678 23.2709 38.5668C22.4362 38.2762 21.5646 38.1048 20.682 38.0577C19.594 37.7237 18.6441 37.0451 17.9751 36.1243C17.3062 35.2035 16.9546 34.0903 16.9732 32.9522C17.0038 32.3313 16.945 31.7092 16.7987 31.105C16.7074 30.8043 16.5087 30.5478 16.2405 30.3842C15.9723 30.2206 15.6533 30.1613 15.3442 30.2177C15.2063 30.2637 15.0795 30.3378 14.9718 30.4355C14.8641 30.5332 14.778 30.6522 14.7188 30.785C14.4507 32.3826 14.6062 34.0226 15.1697 35.5413Z" fill="white"/>
<path d="M14.6898 30.8577C14.5711 31.1327 14.5164 31.4312 14.5298 31.7304L14.6898 30.8577Z" fill="white"/>
<path d="M14.7333 30.625V30.8577V30.785C14.7253 30.7319 14.7253 30.678 14.7333 30.625Z" fill="white"/>
<path d="M8.87191 57.5632C9.02856 57.5131 9.15919 57.4034 9.23552 57.2577L15.8387 47.8032C16.1005 47.425 16.3623 46.8868 16.0277 46.5668C15.6932 46.2468 15.0969 46.5668 14.7333 46.9159C13.2333 48.4275 11.8569 50.057 10.6172 51.7886L11.0681 51.3813C10.3054 52.4005 9.59665 53.459 8.94463 54.5522C8.6376 54.9118 8.42282 55.3408 8.31892 55.8021C8.21501 56.2634 8.2251 56.743 8.34831 57.1995C8.45012 57.4032 8.72647 57.6068 8.87191 57.5632Z" fill="white"/>
<path d="M6.60303 60.5304C5.8113 60.1674 5.16212 59.5523 4.7569 58.7812C4.35167 58.0102 4.21323 57.1267 4.3632 56.2686C4.17156 56.3284 3.99923 56.4381 3.8638 56.5863C3.72837 56.7345 3.6347 56.916 3.59234 57.1123C3.43977 57.5098 3.37632 57.936 3.40648 58.3607C3.43663 58.7855 3.55966 59.1984 3.76688 59.5704C4.3842 60.5263 5.29916 61.2522 6.37032 61.6359C8.73322 62.5413 11.2619 62.9331 13.788 62.785C15.8502 62.7565 17.9091 62.6108 19.9548 62.3486C20.1528 62.3441 20.3478 62.2993 20.5279 62.2167C20.708 62.1342 20.8693 62.0157 21.002 61.8686L11.6354 61.4904C9.90745 61.5483 8.18833 61.2204 6.60303 60.5304Z" fill="white"/>
<path d="M4.87226 95.1922C4.50865 88.7486 3.50509 82.2904 4.20322 75.8759C4.53774 72.9668 5.22132 70.0577 5.5413 67.1486C5.65558 66.6032 5.60495 66.0361 5.39586 65.5195C5.34029 65.3851 5.25693 65.2638 5.15125 65.1638C5.04557 65.0638 4.91996 64.9873 4.78264 64.9392C4.64532 64.8912 4.49939 64.8727 4.35442 64.8849C4.20945 64.8972 4.06871 64.94 3.94142 65.0104L4.94498 64.3995C4.60534 64.3691 4.26479 64.447 3.97215 64.6221C3.67951 64.7971 3.44982 65.0604 3.31601 65.3741C3.06524 66.0073 2.95124 66.6864 2.98149 67.3668C2.75325 78.9396 3.23899 90.5156 4.43593 102.029C4.93214 99.7858 5.07932 97.4799 4.87226 95.1922Z" fill="white"/>
<path d="M4.10141 110.858C3.98713 111.462 3.93354 112.076 3.94143 112.69C3.85593 114.025 4.29424 115.34 5.16315 116.356C6.33864 117.647 7.96083 118.442 9.701 118.581C7.10044 116.628 5.14901 113.937 4.10141 110.858Z" fill="white"/>
<g opacity="0.4">
<path d="M36.5207 117.316C36.0663 117.236 35.5988 117.281 35.1681 117.447C29.9321 118.901 24.2307 117.68 19.082 119.381H19.6347C25.2003 120.195 30.8672 119.993 36.3608 118.785C36.5103 118.774 36.656 118.732 36.7886 118.662C36.9213 118.592 37.038 118.495 37.1316 118.378C37.3061 117.985 36.9571 117.461 36.5207 117.316Z" fill="#BC0A01"/>
</g>
</g>
<defs>
<clipPath id="clip0_57_2284">
<rect width="49" height="124" fill="white" transform="translate(0 0.399521)"/>
</clipPath>
</defs>
</svg>
