<svg width="34" height="124" viewBox="0 0 34 124" fill="none" xmlns="http://www.w3.org/2000/svg">
<g clip-path="url(#clip0_57_2176)">
<path d="M30.8152 58.8066C24.6664 48.0695 21.4365 35.9203 21.4447 23.5593V8.20557H12.5554V23.6016C12.5636 35.9626 9.33372 48.1118 3.1849 58.8489C0.843693 62.9225 -0.262512 67.5845 5.18076e-05 72.2711L3.08581 121.251C3.08581 122.802 9.31396 124.07 17.0001 124.07C24.6861 124.07 30.8718 122.816 30.9001 121.251L33.9717 72.2711C34.2653 67.5719 33.1677 62.8903 30.8152 58.8066Z" fill="#F9A12D"/>
<path d="M25.5778 72.4966H8.42212V103.909H25.5778V72.4966Z" fill="#C63205"/>
<path d="M6.18579 70.269V106.137H27.8144V70.269H6.18579ZM25.578 103.909H8.49304V72.4966H25.578V103.909Z" fill="#56261B"/>
<path d="M10.3047 78.5451V97.8606H23.6952V78.5451H10.3047ZM22.492 96.6622H11.5079V79.7435H22.492V96.6622Z" fill="#56261B"/>
<path d="M2.61865 113.539L3.08576 121.251C3.08576 122.802 9.31391 124.071 17 124.071C24.6861 124.071 30.8718 122.816 30.9001 121.251L31.3672 113.567C29.5129 114.723 23.7802 115.555 16.9858 115.555C10.1915 115.555 4.50125 114.681 2.61865 113.539Z" fill="#F98B06"/>
<g opacity="0.1">
<path d="M4.51538 114.54L4.81263 119.954C4.81263 121.039 10.2623 121.927 17.0566 121.927C23.8509 121.927 29.3572 121.039 29.3996 119.954L29.9375 114.511C28.2673 115.315 23.1857 115.921 17.1981 115.921C11.2106 115.921 6.1715 115.357 4.51538 114.54Z" fill="#663224"/>
</g>
<path d="M21.5154 26.9289V8.20557C20.0133 8.3946 18.4998 8.4794 16.9859 8.45935C15.5003 8.47552 14.0153 8.39073 12.5413 8.20557V26.9148C14.0381 27.1118 15.5468 27.2061 17.0567 27.1968C18.5473 27.207 20.0369 27.1175 21.5154 26.9289Z" fill="#C63205"/>
<path d="M32.811 63.3183C32.2987 61.7517 31.63 60.2403 30.8151 58.8066C29.9941 57.3967 29.2298 55.8881 28.5079 54.3936C24.7892 55.6308 20.9054 56.3057 16.9858 56.3957C13.0663 56.2992 9.17724 55.6829 5.42128 54.5628C4.72769 55.9727 4.00579 57.3826 3.18481 58.7925C2.37225 60.2157 1.70822 61.718 1.20312 63.276C6.37507 62.0814 11.6784 61.5461 16.9858 61.6828C22.309 61.5598 27.6265 62.1094 32.811 63.3183Z" fill="#F98B06"/>
<path d="M13.9427 90.078L13.2915 88.8232H12.8669V90.0639H12.0884V86.6661H13.3199C14.0418 86.6661 14.6504 86.9198 14.6504 87.7235C14.6601 87.9298 14.6072 88.1343 14.4987 88.3103C14.3901 88.4863 14.2309 88.6257 14.0418 88.7104L14.8061 90.1203L13.9427 90.078ZM12.8669 88.231H13.2632C13.6596 88.231 13.886 88.0619 13.886 87.7235C13.886 87.3851 13.6596 87.2723 13.2632 87.2723H12.8669V88.231Z" fill="white"/>
<path d="M15.3015 86.6661H16.0658V88.5694C16.0658 89.2462 16.2782 89.4717 16.6603 89.4717C17.0425 89.4717 17.269 89.2462 17.269 88.5694V86.6661H18.0192V88.4989C18.0192 89.6409 17.5521 90.1344 16.6037 90.1344C15.6553 90.1344 15.1882 89.6409 15.1882 88.4989L15.3015 86.6661Z" fill="white"/>
<path d="M18.7834 86.6661H19.6044L20.1848 88.1887L20.3829 88.795L20.5811 88.1887L21.2322 86.6661H22.0532V90.078H21.2322V88.8232C21.2322 88.4848 21.303 87.9914 21.3313 87.6671L21.0482 88.4566L20.5103 89.7678H20.2131L19.6894 88.4566L19.4063 87.6671C19.4063 87.9914 19.5053 88.4848 19.5053 88.8232V90.078H18.7834V86.6661Z" fill="white"/>
<g opacity="0.5">
<path d="M22.4922 79.7435H11.5081V84.9601H22.4922V79.7435Z" fill="#56261B"/>
</g>
<g opacity="0.5">
<path d="M22.4922 91.4456H11.5081V96.6622H22.4922V91.4456Z" fill="#56261B"/>
</g>
<path d="M17.0001 93.1375L17.2974 93.7437L17.9768 93.8424L17.4814 94.3077L17.6088 94.9703L17.0001 94.6602L16.4056 94.9703L16.5189 94.3077L16.0376 93.8424L16.7029 93.7437L17.0001 93.1375Z" fill="#C63205"/>
<path d="M19.548 93.1375L19.8452 93.7437L20.5247 93.8424L20.0292 94.3077L20.1425 94.9703L19.548 94.6602L18.9535 94.9703L19.0667 94.3077L18.5854 93.8424L19.2507 93.7437L19.548 93.1375Z" fill="#C63205"/>
<path d="M14.3815 93.1375L14.6929 93.7437L15.3582 93.8424L14.8769 94.3077L14.9901 94.9703L14.3815 94.6602L13.787 94.9703L13.9002 94.3077L13.4189 93.8424L14.0842 93.7437L14.3815 93.1375Z" fill="#C63205"/>
<path d="M18.9535 81.238C18.9318 81.2379 18.9104 81.2423 18.8905 81.251C18.8706 81.2596 18.8528 81.2723 18.8381 81.2883C18.8235 81.3042 18.8123 81.323 18.8054 81.3435C18.7984 81.364 18.7959 81.3856 18.7978 81.4072C18.7915 81.4204 18.7883 81.4348 18.7883 81.4495C18.7883 81.4641 18.7915 81.4785 18.7978 81.4918L17.6088 82.2954L17.0426 80.6599C17.074 80.647 17.1012 80.6257 17.1212 80.5983C17.1412 80.5709 17.1532 80.5386 17.1559 80.5048C17.1559 80.46 17.138 80.4169 17.1061 80.3852C17.0743 80.3535 17.0311 80.3356 16.986 80.3356C16.941 80.3356 16.8978 80.3535 16.8659 80.3852C16.834 80.4169 16.8161 80.46 16.8161 80.5048C16.8188 80.5386 16.8308 80.5709 16.8508 80.5983C16.8708 80.6257 16.898 80.647 16.9294 80.6599L16.3632 82.2954L15.16 81.4777C15.16 81.4328 15.1421 81.3898 15.1103 81.358C15.0784 81.3263 15.0352 81.3085 14.9902 81.3085C14.9451 81.3085 14.9019 81.3263 14.8701 81.358C14.8382 81.3898 14.8203 81.4328 14.8203 81.4777C14.8239 81.52 14.8433 81.5595 14.8748 81.5883C14.9063 81.617 14.9475 81.6329 14.9902 81.6328H15.0751L15.344 82.0698C15.7488 82.6962 16.0098 83.4039 16.1084 84.1424H17.807C17.9121 83.4055 18.1726 82.6992 18.5714 82.0698L18.8403 81.6468C18.8619 81.6488 18.8837 81.6463 18.9042 81.6394C18.9248 81.6324 18.9437 81.6213 18.9597 81.6067C18.9757 81.5921 18.9884 81.5744 18.9971 81.5546C19.0058 81.5348 19.0102 81.5134 19.0102 81.4918C19.0254 81.4721 19.0361 81.4494 19.0415 81.4252C19.0469 81.401 19.0469 81.3759 19.0415 81.3517C19.0361 81.3274 19.0254 81.3047 19.0102 81.2851C18.995 81.2654 18.9757 81.2493 18.9535 81.238Z" fill="#C63205"/>
<path d="M22.0109 0.521667C22.0109 0.803646 19.7603 1.04333 17.0001 1.04333C14.2399 1.04333 11.9893 0.803646 11.9893 0.521667V9.95385C11.9893 10.2499 14.2399 10.4755 17.0001 10.4755C19.7603 10.4755 22.0109 10.2499 22.0109 9.95385V0.521667Z" fill="#56261B"/>
<path d="M16.9859 0C14.2399 0 11.9893 0.239682 11.9893 0.52166C11.9893 0.803638 14.2399 1.04332 16.9859 1.04332C19.732 1.04332 22.0109 0.803638 22.0109 0.52166C22.0109 0.239682 19.8169 0 16.9859 0Z" fill="#C63205"/>
<g opacity="0.2">
<path d="M14.0134 10.3768C13.5383 10.3442 13.0656 10.283 12.5979 10.1935V26.9148C13.6312 27.0699 14.1266 27.0981 14.1266 27.0981L14.0134 10.3768Z" fill="#56261B"/>
</g>
<g opacity="0.5">
<path d="M19.9868 27.0981C20.4991 27.0689 21.0094 27.0124 21.5155 26.9289V10.1935C21.0479 10.283 20.5752 10.3442 20.1001 10.3768L19.9868 27.0981Z" fill="#56261B"/>
</g>
<g opacity="0.3">
<path d="M18.0193 10.4755H15.981V27.1827H18.0193V10.4755Z" fill="#56261B"/>
</g>
<path d="M16.9859 25.7023C15.4798 25.6959 13.9759 25.5876 12.4846 25.3781V26.8725C13.9815 27.0695 15.4902 27.1638 17 27.1545C18.5095 27.1672 20.0181 27.0777 21.5154 26.8866V25.3781C20.0139 25.581 18.5011 25.6893 16.9859 25.7023Z" fill="#56261B"/>
<g opacity="0.1">
<path d="M14.891 8.89642C14.5304 6.74477 14.5304 4.54847 14.891 2.39682C14.9308 2.3181 14.9515 2.23118 14.9515 2.14304C14.9515 2.05489 14.9308 1.96797 14.891 1.88926C14.7872 1.80122 14.6587 1.74708 14.5229 1.73417C13.9709 1.64958 13.1075 1.3535 12.5554 1.25481C12.5554 1.25481 12.6545 6.25992 12.7253 8.52985C12.6872 8.73541 12.692 8.94658 12.7394 9.1502C12.9518 9.54497 13.4896 9.64366 13.9426 9.68596C14.3956 9.72826 14.6928 9.68596 14.8344 9.41808C14.9102 9.25511 14.9301 9.07178 14.891 8.89642Z" fill="white"/>
</g>
<path d="M21.3316 1.55088C21.3316 1.45218 21.3316 1.33939 21.2466 1.283C21.1823 1.2615 21.1128 1.2615 21.0485 1.283L19.1659 1.59317C18.3848 1.73975 17.5831 1.73975 16.802 1.59317C17.2266 2.22762 17.991 2.5519 18.5289 3.10176C18.9769 3.69979 19.2867 4.3891 19.436 5.12033C19.5852 5.85155 19.5703 6.60661 19.3923 7.33143C19.3548 7.84599 19.1624 8.33732 18.8403 8.74132C18.444 9.12199 17.8353 9.23479 17.4248 9.60136C18.4718 9.74926 19.5344 9.74926 20.5814 9.60136C20.7286 9.59809 20.873 9.56072 21.0033 9.4922C21.1335 9.42368 21.2459 9.32589 21.3316 9.20659C21.3677 9.05359 21.3677 8.89432 21.3316 8.74132C21.374 6.37271 21.3599 3.96179 21.3316 1.55088Z" fill="#491A12"/>
<g opacity="0.2">
<path d="M14.3249 12.1392C14.3198 11.7673 14.1958 11.4068 13.971 11.11C13.8669 10.9915 13.7224 10.9158 13.5654 10.8976C13.4085 10.8793 13.2503 10.9199 13.1217 11.0113C12.9235 12.2661 13.0226 21.0074 13.2208 24.0951C13.2134 24.2945 13.2677 24.4914 13.3765 24.659C13.4033 24.6992 13.4381 24.7334 13.4788 24.7596C13.5195 24.7858 13.5651 24.8034 13.6129 24.8113C13.6606 24.8193 13.7095 24.8174 13.7565 24.8057C13.8035 24.7941 13.8476 24.7729 13.8861 24.7436C13.953 24.668 13.9971 24.5752 14.0134 24.4757C14.8531 20.4147 14.9586 16.2371 14.3249 12.1392Z" fill="white"/>
</g>
<g opacity="0.5">
<path d="M21.105 10.4896L18.274 10.8139H18.1467C18.0051 10.8985 18.1467 11.124 18.1467 11.265C19.0857 13.0168 19.5216 14.9926 19.4064 16.9751C19.4064 19.104 19.4064 21.2048 19.4064 23.3901C19.4445 23.7172 19.4069 24.0486 19.2965 24.359C19.1861 24.6694 19.0058 24.9504 18.7695 25.1807C19.364 25.1807 19.9726 25.1102 20.5671 25.0397C20.6796 25.0322 20.7876 24.9931 20.8785 24.9269C20.9532 24.8252 20.9884 24.7 20.9776 24.5744C21.2324 19.8372 21.105 10.4896 21.105 10.4896Z" fill="#56261B"/>
</g>
<g opacity="0.5">
<path d="M15.6411 56.6636C14.1685 49.2914 13.5888 41.77 13.9142 34.2604C14.0558 32.3839 14.0841 30.5007 13.9992 28.6208L13.7585 28.3952C13.2007 38.4877 10.4375 48.3372 5.66195 57.2557C5.12941 58.1203 4.7645 59.0768 4.58618 60.0755L14.5654 58.8771C14.7763 58.8759 14.9842 58.8277 15.174 58.7361C15.8393 58.3413 15.7827 57.3967 15.6411 56.6636Z" fill="#FFD03B"/>
</g>
<g opacity="0.5">
<path d="M11.7911 43.5375C10.1517 47.6895 8.73421 51.9251 7.54463 56.2265C7.40308 56.7482 7.304 57.4108 7.72865 57.7633C7.92275 57.8912 8.15632 57.9458 8.38728 57.9174C8.61825 57.8889 8.83143 57.7793 8.98843 57.6082C9.31585 57.269 9.54987 56.8513 9.66786 56.3957C11.2414 50.8631 12.3121 45.2007 12.8669 39.477C12.4239 40.8069 12.0646 42.163 11.7911 43.5375Z" fill="white"/>
</g>
<g opacity="0.5">
<path d="M6.86507 107.307C6.13025 104.823 5.72575 102.254 5.6619 99.6653C5.09571 90.7266 4.54367 81.7173 5.80345 72.8773C6.36965 68.8732 7.81344 64.3193 11.6069 62.8812C8.55168 62.2363 5.36457 62.7705 2.68938 64.3757C0.849247 70.5933 1.41544 77.3326 1.89671 83.8463C2.51952 90.8299 3.10931 97.8042 3.66607 104.769C3.66026 107.138 4.28023 109.467 5.46373 111.522C6.87922 113.454 9.7102 114.54 11.6353 113.172C9.32776 111.924 7.61207 109.814 6.86507 107.307Z" fill="#FFD03B"/>
</g>
<g opacity="0.5">
<path d="M7.07757 64.2206C7.1017 63.9764 7.02952 63.7325 6.8763 63.5404C6.72307 63.3483 6.50083 63.2231 6.25659 63.1914C5.98239 63.2059 5.72196 63.3156 5.52054 63.5015C3.9635 64.6295 3.83611 65.3626 2.90188 68.4221C2.03916 74.3418 2.1108 80.3595 3.11421 86.2572C3.11421 82.7184 3.43977 80.2652 3.38315 78.8976C3.2176 74.248 4.32852 69.6415 6.59631 65.5741C6.8713 65.1718 7.0371 64.7056 7.07757 64.2206Z" fill="white"/>
</g>
<g opacity="0.3">
<path d="M10.2906 118.868C9.25687 118.331 8.35346 117.576 7.64366 116.654C6.5035 115.316 5.5028 113.866 4.65698 112.326C4.65698 113.863 4.92593 115.71 4.92593 115.71C5.01085 116.781 5.09578 117.853 5.19487 118.924C5.18603 119.22 5.25951 119.513 5.40719 119.77C5.58176 119.974 5.7988 120.138 6.04323 120.25C6.28766 120.362 6.55363 120.42 6.82268 120.419L10.5171 120.983C12.1411 121.317 13.8055 121.412 15.4571 121.265C14.4663 119.587 12.0458 119.686 10.2906 118.868Z" fill="#FFD03B"/>
</g>
<g opacity="0.4">
<path d="M30.8011 61.7533C29.5738 58.8436 28.1553 56.0177 26.5547 53.2939C22.6479 45.469 20.4822 28.508 20.4822 28.508C20.0576 27.9723 19.0667 28.2824 18.8119 28.9028C18.5919 29.5473 18.5919 30.2462 18.8119 30.8907C20.1425 36.8875 21.4636 42.8795 22.7753 48.8668C23.2487 50.5634 23.4447 52.3248 23.3557 54.0835C23.3006 54.9641 23.0388 55.8196 22.5914 56.5811C22.1439 57.3427 21.5233 57.989 20.7795 58.4682C23.1292 58.9335 25.6346 59.4692 27.2907 61.1893C28.6678 62.8586 29.489 64.9133 29.6404 67.0686C30.0342 70.2201 30.1951 73.3962 30.1217 76.5712C30.0626 87.3589 29.049 98.1205 27.0925 108.731C26.4697 112.086 25.6771 115.611 23.2849 118.078C21.7275 119.51 19.9374 120.669 17.991 121.504C21.2081 121.972 24.4909 121.657 27.5597 120.588C27.8875 120.514 28.1964 120.373 28.4668 120.174C28.7372 119.975 28.9633 119.722 29.1308 119.432C29.2328 119.166 29.2855 118.884 29.2866 118.6C30.2302 105.601 31.1456 92.6064 32.0326 79.6166C32.4289 73.6246 32.8253 67.421 30.8011 61.7533Z" fill="#F72806"/>
</g>
<g opacity="0.5">
<path d="M21.4447 10.1935C21.2438 10.2378 21.0406 10.2707 20.836 10.2922L20.0292 10.3768C19.1941 10.3768 18.1608 10.4755 17.0425 10.4755C15.5557 10.5061 14.0689 10.4118 12.5979 10.1935C13.1216 10.3063 13.6312 10.4614 14.1408 10.6165C16.0396 11.2598 18.0244 11.6162 20.0292 11.6739C20.5004 11.7075 20.9735 11.7075 21.4447 11.6739V10.1935Z" fill="#56261B"/>
</g>
</g>
<defs>
<clipPath id="clip0_57_2176">
<rect width="34" height="124" fill="white"/>
</clipPath>
</defs>
</svg>
