<svg width="36" height="124" viewBox="0 0 36 124" fill="none" xmlns="http://www.w3.org/2000/svg">
<g clip-path="url(#clip0_57_1519)">
<path d="M35.2491 62.0305C35.7391 61.3896 36.0035 60.6004 36 59.789V57.9439C35.9944 55.1629 35.4125 52.4142 34.2921 49.8764C33.1717 47.3387 31.5379 45.0687 29.4969 43.214L28.1302 41.9941C27.2247 41.1919 26.491 40.2097 25.9743 39.1081C25.4577 38.0065 25.1691 36.8091 25.1264 35.5898L24.2403 10.3232L23.5494 4.36104H12.4506L11.7146 10.3232L10.8285 35.6203C10.7859 36.8396 10.4973 38.037 9.98061 39.1386C9.46396 40.2402 8.73022 41.2224 7.82478 42.0246L6.45807 43.2445C4.42901 45.0999 2.80585 47.3668 1.69345 49.8988C0.581049 52.4307 0.00414302 55.1715 0 57.9439L0 59.7585C0.00323514 60.5687 0.266904 61.3558 0.750939 62C1.23349 62.6216 1.49777 63.389 1.50188 64.1805L2.403 106.739C2.42806 108.133 2.08031 109.509 1.39675 110.719C1.32165 110.825 1.2766 110.947 1.2015 111.054C0.428085 112.279 0.0115622 113.701 0 115.156L0 119.608C0.317681 120.245 0.851048 120.743 1.50188 121.011C6.78456 123.024 12.3802 124.057 18.0225 124.061C23.7498 124.199 29.4456 123.162 34.7685 121.011C35.3095 120.754 35.7489 120.319 36.015 119.776V115.202C36.0149 113.726 35.5979 112.281 34.8135 111.039C33.996 109.755 33.5774 108.252 33.612 106.724L34.5432 64.1805C34.5474 63.4059 34.7947 62.6528 35.2491 62.0305Z" fill="#649941"/>
<path d="M18.0225 1.82981C14.5081 1.82981 12.1201 1.4181 12.1201 0.914902L11.6846 4.10182C11.6846 4.60502 14.5081 5.00147 18.0075 5.00147C21.5068 5.00147 24.3304 4.57452 24.3304 4.10182L23.7597 0.914902C23.7597 1.4181 21.4918 1.82981 18.0225 1.82981Z" fill="#808080"/>
<path d="M18.0225 0C14.5081 0 12.1201 0.411707 12.1201 0.914904C12.1201 1.4181 14.5081 1.82981 18.0075 1.82981C21.5069 1.82981 23.7597 1.4181 23.7597 0.914904C23.7597 0.411707 21.4918 0 18.0225 0Z" fill="#B3B3B3"/>
<path d="M18.0224 10.2012C16.0105 10.2308 14 10.0777 12.0149 9.74372C11.8526 9.70961 11.6849 9.71278 11.5239 9.75301C11.363 9.79324 11.213 9.86951 11.0848 9.97623C10.9567 10.0829 10.8536 10.2174 10.7833 10.3698C10.7129 10.5222 10.6771 10.6886 10.6783 10.8569V12.1987C10.6761 12.4384 10.7492 12.6725 10.887 12.8671C11.0247 13.0618 11.2199 13.2069 11.4442 13.2814C13.6081 13.8007 15.8302 14.0263 18.0525 13.9523C20.3014 14.0583 22.5534 13.8271 24.7358 13.2661C24.9366 13.1745 25.1055 13.0238 25.2207 12.8334C25.3358 12.643 25.3919 12.4219 25.3816 12.1987V10.8569C25.3806 10.6879 25.3426 10.5213 25.2706 10.369C25.1985 10.2167 25.0941 10.0825 24.9648 9.97605C24.8356 9.86961 24.6847 9.79357 24.5231 9.7534C24.3614 9.71323 24.193 9.70993 24.03 9.74372C22.045 10.0788 20.0344 10.2319 18.0224 10.2012Z" fill="#58823D"/>
<path d="M25.4418 37.5263C25.2826 36.9031 25.1919 36.2638 25.1715 35.6203L24.3755 13.2966C22.2886 13.7837 20.1474 13.9888 18.0076 13.9065C15.8634 13.9662 13.7201 13.7614 11.6246 13.2966L10.8286 35.6203C10.7996 36.2812 10.6938 36.9364 10.5132 37.5721C12.9443 37.9369 15.4 38.1051 17.8574 38.0753C20.3964 38.1145 22.934 37.9308 25.4418 37.5263Z" fill="#EF3030"/>
<path d="M25.2766 36.5962L25.1715 35.6508C22.6875 36.0417 20.1755 36.2202 17.6621 36.1845C15.3598 36.2185 13.0588 36.0553 10.7835 35.6965L10.5132 37.5721C12.883 37.9437 15.2795 38.1121 17.6771 38.0753C20.2661 38.1183 22.8539 37.9346 25.4118 37.5263L25.2766 36.5962Z" fill="#BA0909"/>
<g opacity="0.3">
<path d="M14.0426 110.703C13.9162 110.49 13.7343 110.316 13.5169 110.2C10.8955 108.443 8.89989 105.877 7.8248 102.881C6.76057 99.906 6.10362 96.7968 5.87236 93.6404C5.24176 87.5111 5.13623 81.3377 5.55696 75.1899C5.59932 73.7158 5.85747 72.2563 6.32292 70.8593C6.55286 70.159 6.91664 69.5116 7.39342 68.9543C7.8702 68.397 8.45061 67.9406 9.10139 67.6114C9.49188 67.4284 11.2641 66.3763 11.0989 65.9798C10.626 65.7486 10.1184 65.5991 9.59701 65.5376C7.24735 65.2094 4.91624 64.7564 2.61328 64.1805C2.8686 64.638 3.00377 92.1918 3.70965 105.351C3.71457 106.083 3.8363 106.809 4.0701 107.501C4.73281 108.756 5.82955 109.718 7.14895 110.2C8.82358 110.967 10.5995 111.48 12.4205 111.725C12.8182 111.84 13.2394 111.84 13.6371 111.725C13.817 111.636 13.958 111.482 14.0328 111.293C14.1077 111.105 14.1112 110.894 14.0426 110.703Z" fill="#D9E021"/>
</g>
<path d="M17.7373 15.8126C19.9939 15.901 22.252 15.6804 24.4507 15.1569L24.3756 13.2966C22.1918 13.746 19.9646 13.9404 17.7373 13.876C15.6793 13.9305 13.6223 13.736 11.6096 13.2966V15.2789C13.622 15.7175 15.6808 15.8968 17.7373 15.8126Z" fill="#BA0909"/>
<path d="M35.6095 61.3443C29.8341 62.9301 23.8698 63.6948 17.8874 63.6163C11.9762 63.6265 6.08909 62.8525 0.375488 61.3138C0.470488 61.5678 0.596639 61.8086 0.750958 62.0305C0.938766 62.2875 1.09041 62.5697 1.20152 62.8692C6.6586 64.2529 12.2627 64.9494 17.8874 64.9429C23.5769 65.0076 29.2509 64.326 34.7685 62.9149C34.8791 62.595 35.0416 62.2961 35.2491 62.0305C35.3954 61.817 35.5164 61.5866 35.6095 61.3443Z" fill="#466D2D"/>
<path d="M33.2967 64.455C33.0264 64.1348 32.3956 64.1348 32.2755 64.5465L32.9663 64.455L26.8387 65.4309C26.7132 65.4295 26.589 65.456 26.4748 65.5087C26.3606 65.5614 26.2593 65.639 26.1778 65.7359C25.8474 66.2696 26.6885 66.6965 27.2442 66.9557C27.667 67.1823 28.0355 67.5006 28.3236 67.888C28.6117 68.2754 28.8123 68.7224 28.9113 69.1973C29.0864 70.1523 29.1268 71.1278 29.0314 72.0944C28.5358 81.396 28.5358 90.728 28.9863 100.03C29.1463 101.506 29.0394 102.999 28.671 104.436C27.7098 107.379 24.721 109.011 21.8675 110.2C21.3568 110.414 20.711 110.886 20.9663 111.39C21.2216 111.893 21.4169 111.756 21.7022 111.817C24.1921 112.066 26.7042 111.689 29.0164 110.719C29.8488 110.511 30.6241 110.115 31.2842 109.56C32.4707 108.401 32.4257 106.51 32.3506 104.848C32.1205 97.5921 32.2659 90.329 32.7861 83.0885C32.9062 80.8928 33.0414 78.6818 33.1616 76.4707C33.3568 72.8721 33.5521 69.2735 33.5821 65.6749C33.6301 65.2469 33.5292 64.8153 33.2967 64.455Z" fill="#466D2D"/>
<path d="M1.3967 110.658C1.32161 110.764 1.27655 110.886 1.20146 110.993C1.12637 111.1 1.32161 110.764 1.3967 110.658Z" fill="#581F0F"/>
<g opacity="0.5">
<path d="M31.4193 111.313C27.032 112.404 22.5389 112.998 18.0226 113.082C13.4912 113.001 8.98286 112.408 4.58079 111.313C4.13262 111.229 3.67032 111.271 3.24412 111.435L3.07891 111.71C2.38313 112.652 2.00402 113.796 1.99756 114.973V118.48C2.29128 119.001 2.76073 119.396 3.31921 119.593C8.06876 121.146 13.0332 121.913 18.0226 121.865C23.0864 121.981 28.129 121.165 32.9062 119.456C33.3726 119.272 33.7642 118.933 34.0176 118.495V114.897C34.0092 113.722 33.6361 112.58 32.9513 111.634C32.8854 111.549 32.8299 111.457 32.786 111.359C32.343 111.218 31.8705 111.202 31.4193 111.313Z" fill="#466D2D"/>
</g>
<path d="M34.1828 109.788C29.0625 111.931 23.5593 112.97 18.0226 112.838C12.5517 112.828 7.1295 111.794 2.02762 109.788H1.83237C1.70561 110.102 1.56016 110.408 1.39683 110.703C1.32173 110.81 1.27668 110.932 1.20158 111.039L1.03638 111.313C1.28962 111.654 1.6261 111.922 2.0126 112.091C7.11238 114.104 12.536 115.138 18.0076 115.141C23.5591 115.275 29.0776 114.237 34.2128 112.091C34.5171 111.926 34.7874 111.704 35.0088 111.435L34.7986 111.054C34.5604 110.65 34.3545 110.226 34.1828 109.788Z" fill="#6EA848"/>
<path d="M28.9411 75.0984C28.055 74.8849 27.1238 74.6867 26.1175 74.5037L25.5318 74.3817L25.4267 73.7108C25.219 71.8565 24.3486 70.1439 22.9804 68.8976C21.6122 67.6512 19.8413 66.9577 18.0032 66.9483C16.1651 66.9389 14.3874 67.6143 13.0069 68.8466C11.6265 70.0789 10.7391 71.7824 10.513 73.6345L10.3929 74.3207L9.73206 74.4274C8.7258 74.5952 7.79464 74.7782 6.93857 74.9916C6.34623 75.1202 5.81489 75.4503 5.43252 75.9272C5.05014 76.4042 4.83967 76.9994 4.83594 77.6144V103.994C4.83657 104.601 5.03845 105.189 5.40903 105.665C5.77961 106.141 6.29726 106.476 6.87849 106.617C14.1302 108.34 21.6713 108.382 28.9411 106.739C29.5264 106.604 30.049 106.271 30.4229 105.794C30.7969 105.317 30.9999 104.725 30.9986 104.116V77.7668C31.0103 77.1496 30.812 76.5472 30.4372 76.0612C30.0624 75.5751 29.534 75.2351 28.9411 75.0984Z" fill="#267F31"/>
<path d="M29.3768 73.1923C28.6559 73.0093 27.875 72.8416 27.094 72.6891C26.6079 70.5972 25.4428 68.7321 23.7861 67.3939C22.1294 66.0558 20.0775 65.3224 17.9605 65.3119C15.8435 65.3013 13.7846 66.0142 12.115 67.3357C10.4455 68.6572 9.26235 70.5106 8.75606 72.5976C7.96007 72.7501 7.25418 72.9026 6.48823 73.0703C5.48255 73.3078 4.58769 73.8887 3.95342 74.7158C3.31914 75.543 2.98393 76.5663 3.00387 77.6144V103.994C2.97768 105.049 3.31182 106.082 3.94963 106.915C4.58743 107.749 5.48964 108.333 6.50325 108.569C10.2657 109.49 14.1223 109.955 17.9926 109.956C21.8485 109.983 25.6942 109.553 29.4519 108.675C30.4711 108.446 31.3802 107.864 32.0239 107.03C32.6677 106.196 33.0061 105.16 32.9813 104.101V77.7668C33.0026 76.6967 32.6535 75.6528 31.9949 74.8169C31.3363 73.9811 30.4099 73.4062 29.3768 73.1923ZM30.9989 104.07C31.0105 104.688 30.8122 105.29 30.4374 105.776C30.0626 106.262 29.5342 106.602 28.9413 106.739C21.6726 108.387 14.1316 108.35 6.87872 106.632C6.29498 106.491 5.77544 106.153 5.40459 105.675C5.03374 105.196 4.8334 104.603 4.83616 103.994V77.6144C4.83914 77.0015 5.04747 76.4079 5.42689 75.9312C5.8063 75.4546 6.33421 75.1232 6.92377 74.9916C7.77984 74.7782 8.71101 74.5952 9.71726 74.4274L10.3781 74.3207L10.5133 73.6345C10.7882 71.8292 11.6925 70.1842 13.0615 68.9988C14.4305 67.8133 16.1732 67.1664 17.9724 67.1756C19.7716 67.1849 21.5078 67.8497 22.8649 69.0491C24.222 70.2485 25.1098 71.9027 25.3668 73.7108L25.472 74.3817L26.1328 74.5037C27.139 74.6867 28.0702 74.8849 28.9563 75.0984C29.5465 75.2381 30.0714 75.5794 30.4433 76.0652C30.8151 76.551 31.0112 77.1517 30.9989 77.7668V104.07Z" fill="#EF3030"/>
<path d="M23.7446 74.8849C23.7476 76.0419 23.412 77.1737 22.7804 78.1368C22.1488 79.0999 21.2497 79.8508 20.1971 80.2942C19.1446 80.7377 17.986 80.8537 16.8683 80.6276C15.7507 80.4015 14.7244 79.8435 13.9197 79.0243C13.1149 78.205 12.568 77.1616 12.3482 76.0263C12.1284 74.891 12.2458 73.715 12.6853 72.6475C13.1248 71.58 13.8668 70.6692 14.817 70.0304C15.7672 69.3917 16.8829 69.054 18.0224 69.06C19.5414 69.064 20.9969 69.6795 22.0695 70.7715C23.1422 71.8634 23.7446 73.3427 23.7446 74.8849Z" fill="#F2F2F2"/>
<path d="M29.3167 84.6134H6.5332V92.8323H29.3167V84.6134Z" fill="#F2F2F2"/>
<g opacity="0.2">
<path d="M6.5332 94.0979V104.772C6.64352 104.829 6.75925 104.875 6.87863 104.909L8.54572 105.214V94.0979H6.5332Z" fill="#D9E021"/>
</g>
<g opacity="0.2">
<path d="M9.49194 94.0979V105.366L11.5195 105.61V94.0979H9.49194Z" fill="#D9E021"/>
</g>
<g opacity="0.2">
<path d="M12.4507 94.0979V105.732L14.4782 105.87V94.0979H12.4507Z" fill="#D9E021"/>
</g>
<g opacity="0.2">
<path d="M15.4243 94.0979V105.946H17.4518V94.0521L15.4243 94.0979Z" fill="#D9E021"/>
</g>
<g opacity="0.2">
<path d="M18.3831 94.0979V105.992C19.0739 105.992 19.7347 105.992 20.4106 105.992V94.0979H18.3831Z" fill="#D9E021"/>
</g>
<g opacity="0.2">
<path d="M21.3567 94.0979V105.915L23.3692 105.778V94.0979H21.3567Z" fill="#D9E021"/>
</g>
<g opacity="0.2">
<path d="M27.2891 94.0979V105.214C27.8448 105.122 28.4005 105.046 28.9411 104.939C29.0645 104.903 29.185 104.857 29.3016 104.802V94.0979H27.2891Z" fill="#D9E021"/>
</g>
<g opacity="0.2">
<path d="M24.3154 94.0979V105.671C25.0063 105.61 25.6821 105.534 26.343 105.443V94.0979H24.3154Z" fill="#D9E021"/>
</g>
<path d="M11.5945 86.8244H12.8711C13.6521 86.8244 14.2528 87.0379 14.2528 87.7698C14.2568 87.958 14.196 88.1417 14.0809 88.2893C13.9657 88.4368 13.8034 88.5389 13.622 88.578C13.7325 88.5819 13.8411 88.6079 13.9417 88.6545C14.0422 88.7011 14.1328 88.7673 14.2081 88.8495C14.2834 88.9316 14.3421 89.028 14.3807 89.1332C14.4192 89.2384 14.437 89.3502 14.433 89.4624C14.433 90.24 13.7872 90.5755 12.9312 90.5755H11.5945V86.8244ZM12.826 88.3492C13.2465 88.3492 13.4268 88.1663 13.4268 87.8918C13.4268 87.6173 13.2315 87.4801 12.841 87.4801H12.4355V88.3492H12.826ZM12.9161 89.9656C13.3667 89.9656 13.607 89.7978 13.607 89.4471C13.607 89.0964 13.3667 88.9744 12.9161 88.9744H12.4355V89.9656H12.9161Z" fill="#BA0909"/>
<path d="M15.0188 86.8244H17.3467V87.5411H15.8448V88.3035H17.1214V89.0202H15.8448V89.9656H17.3467V90.6822H15.0188V86.8244Z" fill="#BA0909"/>
<path d="M18.1577 86.8244H20.5007V87.5411H18.9988V88.3035H20.2754V89.0202H18.9988V89.9656H20.5007V90.6822H18.0977L18.1577 86.8244Z" fill="#BA0909"/>
<path d="M23.294 90.606L22.5281 89.2489H22.0625V90.606H21.2214V86.8244H22.5581C23.3541 86.8244 24.06 87.0989 24.06 87.9985C24.0731 88.2281 24.0169 88.4563 23.8988 88.6525C23.7807 88.8487 23.6064 89.0036 23.3992 89.0964L24.2402 90.6212L23.294 90.606ZM22.1226 88.5627H22.5281C22.9636 88.5627 23.2039 88.3797 23.2039 87.9985C23.2039 87.6173 22.9636 87.5106 22.5281 87.5106H22.0925L22.1226 88.5627Z" fill="#BA0909"/>
<g opacity="0.4">
<path d="M18.3829 81.274L18.7283 81.9754L19.4792 82.0821L18.9386 82.6158L19.0587 83.3783L18.3829 83.0275L17.707 83.3783L17.8422 82.6158L17.3015 82.0821L18.0525 81.9754L18.3829 81.274Z" fill="#D9E021"/>
</g>
<g opacity="0.4">
<path d="M15.0488 81.274L15.3792 81.9754L16.1301 82.0821L15.5894 82.6158L15.7096 83.3783L15.0488 83.0275L14.3729 83.3783L14.4931 82.6158L13.9524 82.0821L14.7033 81.9754L15.0488 81.274Z" fill="#D9E021"/>
</g>
<g opacity="0.4">
<path d="M22.1226 81.274L22.468 81.9754L23.219 82.0821L22.6633 82.6158L22.7985 83.3783L22.1226 83.0275L21.4468 83.3783L21.5819 82.6158L21.0413 82.0821L21.7922 81.9754L22.1226 81.274Z" fill="#D9E021"/>
</g>
<path d="M14.1477 76.7757V73.0093H15.0939L15.6946 74.397C15.8598 74.7782 16.0401 75.2509 16.1903 75.6626C16.1903 75.1746 16.1903 74.6562 16.1903 74.1377V73.0856H16.9262V76.8519H16.0551L15.4243 75.4186C15.2441 75.0221 15.0789 74.5342 14.9287 74.1072C14.9287 74.5952 14.9287 75.1289 14.9287 75.7693V76.8519L14.1477 76.7757ZM19.164 74.092C19.1814 74.2356 19.1685 74.3813 19.1262 74.5195C19.084 74.6576 19.0133 74.7851 18.9189 74.8935C18.8245 75.0019 18.7085 75.0886 18.5785 75.1481C18.4486 75.2075 18.3077 75.2382 18.1652 75.2382C18.0227 75.2382 17.8818 75.2075 17.7519 75.1481C17.622 75.0886 17.506 75.0019 17.4116 74.8935C17.3171 74.7851 17.2465 74.6576 17.2042 74.5195C17.162 74.3813 17.1491 74.2356 17.1665 74.092C17.1579 73.9548 17.1779 73.8174 17.2252 73.6887C17.2725 73.5599 17.346 73.4428 17.441 73.3449C17.536 73.247 17.6503 73.1706 17.7764 73.1207C17.9025 73.0707 18.0376 73.0484 18.1727 73.0551C18.3079 73.0455 18.4436 73.0661 18.5701 73.1152C18.6967 73.1644 18.8112 73.241 18.9056 73.3398C19 73.4385 19.072 73.557 19.1166 73.6869C19.1613 73.8168 19.1774 73.9551 19.164 74.092ZM17.3317 75.7998V75.3728H19.0138V75.7998H17.3317ZM17.8273 74.1225C17.8273 74.4427 17.9775 74.7019 18.1727 74.7019C18.368 74.7019 18.5031 74.4579 18.5031 74.1072C18.5031 73.7565 18.398 73.5278 18.1727 73.5278C17.9475 73.5278 17.8273 73.8633 17.8273 74.1225Z" fill="#EF3030"/>
<path d="M19.7046 76.0895H20.5006V73.9547H19.8097V73.4211C20.1302 73.3758 20.4375 73.2614 20.7108 73.0856H21.3416V76.1353H22.0175V76.8214H19.7046V76.0895Z" fill="#EF3030"/>
<path d="M9.37168 41.9941C12.1603 42.6624 15.0235 42.9547 17.8873 42.8633C20.7891 43.0044 23.6953 42.7011 26.5081 41.9636C26.6954 41.891 26.8641 41.7765 27.0019 41.6287C27.1397 41.4809 27.243 41.3035 27.3041 41.1097C26.4295 40.0701 25.7933 38.8461 25.4418 37.5263C22.9586 37.9265 20.4463 38.1101 17.9324 38.0753C15.45 38.1092 12.969 37.9409 10.5131 37.5721C10.1626 38.9581 9.49929 40.2423 8.57568 41.3232C8.65164 41.4875 8.76235 41.6329 8.89993 41.7488C9.03752 41.8648 9.19859 41.9485 9.37168 41.9941Z" fill="#58823D"/>
<g opacity="0.1">
<path d="M23.4893 43.5037C23.069 42.5214 22.4257 41.654 21.612 40.9725C19.9808 39.8773 18.0337 39.3724 16.085 39.5391C15.0771 39.4509 14.0621 39.5747 13.1034 39.9026C12.1447 40.2306 11.2629 40.7557 10.5131 41.4452C8.84823 42.8903 7.28263 44.4492 5.82722 46.1112C4.01737 48.1922 2.82494 50.7509 2.38792 53.4914C2.11641 55.04 2.44464 56.6352 3.30407 57.9439C4.32656 59.0944 5.69345 59.8713 7.19393 60.155C9.20312 60.6905 11.2746 60.947 13.3516 60.9174C14.192 60.9231 15.0297 60.8206 15.8447 60.6124C17.7806 59.9497 19.4724 58.7054 20.6958 57.0443C23.7596 53.3694 25.5319 47.941 23.4893 43.5037Z" fill="#D9E021"/>
</g>
<g opacity="0.5">
<path d="M27.8599 43.6104L29.1065 44.7541C31.1855 46.6929 32.5166 49.3201 32.8612 52.1648C33.2817 54.6808 33.1315 57.5932 31.2692 59.3163C30.3209 60.1083 29.2138 60.6807 28.0251 60.9936C25.7133 61.7218 23.3403 62.2323 20.9363 62.5184C21.2322 62.7804 21.5862 62.9658 21.9681 63.0588C22.3499 63.1517 22.7482 63.1494 23.129 63.0521C26.1089 62.7144 29.0506 62.0915 31.915 61.1918C32.5725 61.044 33.1822 60.7292 33.6872 60.2769C34.2645 59.566 34.5686 58.6668 34.5433 57.7457C34.6909 55.0089 34.1557 52.2786 32.9875 49.8077C31.8192 47.3367 30.0555 45.2052 27.8599 43.6104Z" fill="#466D2D"/>
</g>
<g opacity="0.2">
<path d="M8.18523 117.245C6.30788 115.995 4.95619 114.012 3.00375 112.838C2.75701 112.654 2.45275 112.567 2.14768 112.594C1.65206 112.686 1.42678 113.25 1.27659 113.738C1.27659 113.738 0.660824 117.016 1.90738 118.099C3.15394 119.181 5.58698 119.303 7.20901 119.532C8.33542 119.685 9.47684 119.776 10.6033 119.822C11.0839 119.822 11.6546 119.822 11.8949 119.38C10.7534 118.526 9.37171 118.053 8.18523 117.245Z" fill="#DADADA"/>
</g>
<g opacity="0.7">
<path d="M16.1451 113.799C12.3146 113.656 8.52508 112.947 4.89603 111.695C4.19346 111.32 3.42036 111.102 2.6282 111.054L2.53809 111.542C3.70826 112.439 5.08235 113.021 6.53308 113.235C10.1183 114.3 13.858 114.728 17.5869 114.5C22.1226 114.363 16.6858 113.845 16.1451 113.799Z" fill="#DADADA"/>
</g>
<g opacity="0.7">
<path d="M33.3267 112.838L31.8248 113.448C30.5932 113.921 29.3166 114.15 28.0851 114.622C27.7971 114.697 27.5492 114.883 27.3942 115.141C27.3631 115.333 27.3631 115.528 27.3942 115.72C27.3072 116.308 27.0797 116.866 26.7315 117.345C26.3833 117.823 25.925 118.208 25.3967 118.465C23.8367 119.282 22.1668 119.863 20.4406 120.188L16.8811 121.027C21.7458 121.374 26.6321 120.816 31.2991 119.38C32.151 119.215 32.9234 118.764 33.4919 118.099C33.8373 117.596 33.7021 117.108 33.6871 116.574C33.5369 115.339 33.4018 114.256 33.3267 112.838Z" fill="#466D2D"/>
</g>
<g opacity="0.5">
<path d="M33.0413 110.719L28.1301 112.533C28.4906 113.006 29.2115 112.93 29.7822 112.808L32.1401 112.304C32.5434 112.255 32.9214 112.079 33.2215 111.801C33.5069 111.435 33.4618 110.841 33.0413 110.719Z" fill="#466D2D"/>
</g>
<path d="M22.5282 5.67241C22.9384 5.69488 23.3457 5.75614 23.7447 5.85539L23.5645 4.57452C21.7358 4.94681 19.8719 5.11047 18.0075 5.06247C16.1381 5.1111 14.2692 4.94744 12.4355 4.57452V4.97098C13.9206 5.62818 15.5328 5.93574 17.1514 5.87064C18.8936 5.80964 20.7109 5.56567 22.5282 5.67241Z" fill="#466D2D"/>
<g opacity="0.3">
<path d="M13.0513 9.25579C14.2974 9.50486 15.5662 9.61732 16.836 9.59125C16.5343 9.20448 16.3167 8.75718 16.1976 8.27882C16.0785 7.80047 16.0606 7.30192 16.1451 6.81604C16.2202 6.55682 16.3554 6.25185 16.2202 6.00788C16.1784 5.90071 16.106 5.80864 16.0124 5.74345C15.9188 5.67826 15.8081 5.64291 15.6946 5.64192C13.9374 5.85539 12.9762 5.00148 12.856 6.20611C12.7809 6.95328 12.6307 7.73095 12.5106 8.41712C12.473 8.56206 12.473 8.71439 12.5106 8.85933C12.5604 8.96637 12.6361 9.05886 12.7307 9.12819C12.8252 9.19751 12.9355 9.24141 13.0513 9.25579Z" fill="#DADADA"/>
</g>
<g opacity="0.5">
<path d="M23.159 9.14904C23.4425 8.82096 23.5928 8.39589 23.5795 7.95967C23.607 7.31207 23.5361 6.66404 23.3693 6.03837C23.3314 5.79901 23.2086 5.58201 23.0238 5.42843C22.8286 5.2912 22.4831 5.42843 22.4531 5.59617C22.4231 5.7639 22.1077 7.02952 21.8073 7.85293C21.4018 9.05755 19.5545 9.30153 18.9688 9.65224C20.0373 9.65385 21.1051 9.59786 22.1677 9.48451C22.5271 9.49674 22.8788 9.37771 23.159 9.14904Z" fill="#466D2D"/>
</g>
<g opacity="0.3">
<path d="M15.1991 17.2154C15.1159 16.9599 14.9717 16.7291 14.7794 16.5439C14.587 16.3586 14.3526 16.2245 14.0968 16.1535C13.8411 16.0826 13.572 16.077 13.3136 16.1372C13.0552 16.1974 12.8155 16.3217 12.6158 16.4988C12.6158 16.4988 12.3905 26.5475 11.97 31.5947C11.8263 32.3569 11.8417 33.1413 12.0151 33.8972C12.0633 34.047 12.1415 34.1851 12.2447 34.3028C12.348 34.4205 12.4741 34.5152 12.6151 34.5811C12.7561 34.6469 12.909 34.6825 13.0642 34.6855C13.2194 34.6885 13.3735 34.6589 13.517 34.5986C14.2228 34.4309 14.5382 33.5922 14.7335 32.8756C15.795 27.724 15.9526 22.4226 15.1991 17.2154Z" fill="#DADADA"/>
</g>
<g opacity="0.7">
<path d="M18.7583 10.6739C18.6832 10.5519 18.503 10.5366 18.3678 10.5214C17.2264 10.5214 16.3253 10.5214 15.1839 10.5214C14.3428 10.5214 13.2464 10.3384 12.4054 10.2012C10.9035 9.95721 11.1138 10.6281 11.1138 10.6281C10.9936 10.8721 11.324 11.0856 11.5944 11.1313C13.7709 11.5732 16.0057 11.6351 18.2026 11.3143C18.518 11.2381 18.9235 10.9941 18.7583 10.6739Z" fill="#DADADA"/>
</g>
<g opacity="0.5">
<path d="M24.4204 33.4245C24.4204 27.3251 23.8197 14.9129 23.8197 14.9129C23.2996 14.9234 22.7938 15.0876 22.3643 15.3855C21.9348 15.6835 21.6003 16.1021 21.4017 16.5903C21.196 17.297 21.1246 18.037 21.1914 18.7708C21.2917 23.1373 20.7295 27.4934 19.5243 31.6862C19.2239 32.7688 19.0137 34.2174 19.9899 34.7359C20.32 34.8837 20.6824 34.9415 21.0412 34.9036C21.5518 34.9036 22.0775 34.8273 22.5431 34.7968C24.8109 34.6291 24.4204 33.821 24.4204 33.4245Z" fill="#BA0909"/>
</g>
<g opacity="0.1">
<path d="M15.4692 41.4452C14.6395 41.1024 13.7431 40.9585 12.8497 41.0246C11.9562 41.0907 11.0898 41.3651 10.3178 41.8264C10.3178 41.8264 6.12757 45.3945 4.85098 48.2002C3.57438 51.0059 3.88977 54.818 6.35285 56.6478C6.69357 56.9358 7.11274 57.1114 7.55436 57.151C7.86478 57.1207 8.16342 57.0148 8.42489 56.8422C8.68636 56.6697 8.90294 56.4356 9.05623 56.1599C9.36605 55.6015 9.62253 55.0143 9.82219 54.4063C10.3807 52.9816 11.3035 51.734 12.4955 50.7924C13.4567 50.03 14.5681 49.4811 15.4993 48.7644C16.5407 48.098 17.3212 47.0845 17.707 45.8977C17.872 45.0087 17.7418 44.0893 17.3369 43.2835C16.9319 42.4778 16.275 41.8312 15.4692 41.4452Z" fill="#D9E021"/>
</g>
<g opacity="0.7">
<path d="M11.234 42.5583C10.9586 42.3779 10.6442 42.2681 10.3179 42.2381C9.97359 42.2495 9.63777 42.3492 9.34163 42.5278C8.05798 43.5322 6.93353 44.7304 6.00746 46.0807C5.53163 46.939 5.15373 47.8496 4.88105 48.7949C4.73854 49.422 4.73854 50.0738 4.88105 50.7009C4.93298 51.0214 5.07792 51.3188 5.29731 51.5552C5.51671 51.7915 5.80058 51.956 6.11259 52.0275C6.57818 52.0275 7.239 51.3871 7.61447 51.0211C7.8946 50.6319 8.14083 50.2186 8.35039 49.786C8.81253 48.9562 9.42385 48.2218 10.1526 47.6208C10.6483 47.209 11.204 46.8736 11.6545 46.4314C12.1358 46.0067 12.4548 45.4238 12.5556 44.7846C12.5644 44.3247 12.445 43.8717 12.2112 43.4778C11.9773 43.0839 11.6386 42.7652 11.234 42.5583Z" fill="#DADADA"/>
</g>
<g opacity="0.5">
<path d="M27.7097 54.8942C27.4624 54.5579 27.1443 54.2818 26.7785 54.0861L26.2829 53.9183C25.4569 53.6286 24.8561 52.8815 24.0451 52.5612C23.562 52.3944 23.0533 52.3169 22.5432 52.3325C22.123 52.301 21.7005 52.3475 21.2967 52.4697C21.1401 52.5213 20.993 52.5985 20.8611 52.6985C20.6778 52.7344 20.5068 52.8178 20.3646 52.9407C20.2225 53.0637 20.1142 53.2218 20.0501 53.3999C19.9878 53.7579 19.9477 54.1195 19.93 54.4825C19.8685 54.6705 19.8282 54.8648 19.8098 55.062C19.863 55.4083 19.9589 55.7464 20.0952 56.0684C20.107 56.2701 20.1423 56.4697 20.2003 56.6631C20.2973 56.8722 20.4477 57.0512 20.6358 57.1815C20.7824 57.3115 20.9501 57.4147 21.1315 57.4865C21.3494 57.5325 21.5744 57.5325 21.7923 57.4865L23.2942 57.3797C23.5532 57.3689 23.8102 57.328 24.0601 57.2577C24.2457 57.1893 24.4264 57.1077 24.6008 57.0138C25.1269 56.8263 25.6703 56.6934 26.2228 56.6173C26.7712 56.5261 27.2879 56.2953 27.7247 55.9464C27.8055 55.8794 27.8719 55.7964 27.92 55.7024C28.1302 55.4737 27.92 55.1535 27.7097 54.8942Z" fill="#466D2D"/>
</g>
<path d="M27.5294 54.391C27.4312 54.3585 27.3308 54.333 27.2291 54.3148C26.96 54.2776 26.6871 54.2776 26.418 54.3148C24.3755 55.0162 26.8836 55.8396 27.5294 55.6872C27.8749 55.5957 28.1302 55.4584 28.1903 55.1535C28.2503 54.8485 27.8749 54.5435 27.5294 54.391Z" fill="#8FD860"/>
<path d="M19.6144 54.3758C19.2333 54.1103 18.7848 53.9621 18.3228 53.9488C17.5774 53.8918 16.8354 53.7951 16.1 53.6591C15.8032 53.5962 15.5367 53.4315 15.3453 53.1927C15.1539 52.954 15.0492 52.6556 15.0487 52.3478C15.0487 51.6768 15.9198 51.2804 16.4154 50.9907C17.1692 50.5711 17.9646 50.2338 18.7884 49.9843C18.8101 49.9783 18.8304 49.968 18.8482 49.954C18.8659 49.94 18.8808 49.9226 18.892 49.9028C18.9031 49.883 18.9103 49.8611 18.9132 49.8385C18.916 49.8158 18.9144 49.7928 18.9085 49.7708C18.9026 49.7488 18.8925 49.7281 18.8787 49.7101C18.8649 49.692 18.8478 49.6769 18.8283 49.6656C18.8087 49.6543 18.7872 49.6469 18.7649 49.6441C18.7426 49.6412 18.72 49.6428 18.6983 49.6488C17.6407 49.9738 16.6306 50.4404 15.6945 51.0364C15.1088 51.4176 14.6131 51.8293 14.7033 52.5612C14.732 52.8544 14.8437 53.1327 15.025 53.3627C15.2062 53.5928 15.4492 53.7645 15.7245 53.8574C16.1293 53.9826 16.5483 54.0543 16.9711 54.0708C17.5268 54.0708 18.9386 54.0708 19.3591 54.574C19.5093 54.7418 19.7946 54.574 19.6294 54.3301L19.6144 54.3758Z" fill="#58823D"/>
<path d="M26.8236 55.5499C26.5062 55.2257 26.1055 54.9985 25.6672 54.8942C25.4862 54.8735 25.3034 54.911 25.1444 55.0012C24.9855 55.0915 24.8584 55.2301 24.7811 55.3974C24.6815 55.6336 24.6304 55.8878 24.6309 56.1446C24.6362 56.2616 24.6783 56.3738 24.751 56.4648C24.8309 56.5354 24.9309 56.5781 25.0364 56.5868C25.3593 56.6391 25.6896 56.6183 26.0037 56.5261C26.3178 56.4338 26.608 56.2723 26.8536 56.0531C26.8918 56.0279 26.9237 55.9942 26.9472 55.9546C26.9706 55.9149 26.9848 55.8704 26.9888 55.8244C27.0339 55.7177 26.9137 55.6262 26.8236 55.5499Z" fill="#7EC152"/>
<path d="M27.4092 54.1318C27.2282 53.8618 26.9793 53.646 26.6883 53.5066C26.4482 53.3312 26.1784 53.202 25.8923 53.1254C25.5543 53.1102 25.218 53.1837 24.9161 53.3389C24.8571 53.5005 24.8516 53.6772 24.9004 53.8423C24.9491 54.0074 25.0496 54.1519 25.1865 54.2538C25.3841 54.3688 25.605 54.4365 25.8323 54.452C26.2678 54.452 26.7184 54.5435 27.1539 54.6198H27.3041C27.4993 54.574 27.4993 54.2996 27.4092 54.1318Z" fill="#7EC152"/>
<path d="M24.8712 56.1446C24.6128 55.9652 24.3293 55.8264 24.0301 55.7329C23.8855 55.6811 23.7318 55.6611 23.579 55.6743C23.4262 55.6874 23.278 55.7334 23.144 55.8092C22.8737 55.9769 21.6421 56.907 22.7986 57.0138L24.3005 57.1358C24.504 57.1742 24.7127 57.1742 24.9162 57.1358C25.0164 57.1025 25.103 57.0367 25.1627 56.9485C25.2224 56.8603 25.2519 56.7547 25.2466 56.6478C25.2316 56.4191 25.0364 56.2514 24.8712 56.1446Z" fill="#7EC152"/>
<path d="M25.9224 54.574C25.8838 54.4781 25.8152 54.3978 25.7271 54.3453C25.4575 54.1473 25.1508 54.0072 24.826 53.9336C24.6489 53.873 24.4602 53.8553 24.2751 53.8817C24.09 53.9082 23.9135 53.9782 23.7597 54.0861C23.6426 54.2009 23.5543 54.3424 23.5021 54.4989C23.4498 54.6554 23.4352 54.8223 23.4593 54.9857C23.493 55.205 23.5642 55.4165 23.6696 55.6109C23.9875 55.7415 24.3429 55.7415 24.6608 55.6109C25.038 55.4717 25.3848 55.2594 25.6821 54.9857C25.8173 54.8942 25.9674 54.757 25.9224 54.574Z" fill="#8FD860"/>
<path d="M26.1026 52.8967C25.9223 52.729 25.7271 52.5765 25.5318 52.424C25.3012 52.2414 25.0261 52.1254 24.7358 52.0885C24.6431 52.0834 24.5502 52.0969 24.4626 52.1283C24.3749 52.1597 24.2943 52.2084 24.2252 52.2715C24.0547 52.421 23.9297 52.6167 23.8648 52.8357C23.8298 52.9849 23.8366 53.141 23.8844 53.2865C23.9322 53.432 24.019 53.561 24.1351 53.6591C24.3448 53.7957 24.5924 53.8599 24.841 53.8421C25.2188 53.8293 25.5929 53.7626 25.9524 53.6439C26.1176 53.6439 26.3128 53.4914 26.3429 53.3237C26.3407 53.2379 26.3177 53.1539 26.2757 53.0794C26.2338 53.0049 26.1743 52.9421 26.1026 52.8967Z" fill="#7EC152"/>
<path d="M23.9099 56.1599C23.8246 55.9995 23.7069 55.8592 23.5645 55.7482C23.2499 55.4269 22.9025 55.1407 22.5282 54.8942C22.2729 54.7418 21.9275 54.635 21.7172 54.8942C21.6101 55.011 21.5463 55.1619 21.537 55.3212C21.4698 55.6121 21.4698 55.9148 21.537 56.2056C21.537 56.4953 21.7773 56.9223 22.0626 56.9528L23.4293 56.8613C23.526 56.8746 23.6244 56.8665 23.7178 56.8376C23.8111 56.8086 23.8972 56.7595 23.97 56.6936C24.0167 56.6095 24.036 56.5127 24.0252 56.4168C24.0145 56.321 23.9741 56.231 23.9099 56.1599Z" fill="#7EC152"/>
<path d="M24.2403 51.8446C23.4234 51.5552 22.5341 51.5552 21.7172 51.8446C21.6297 51.8835 21.5518 51.9416 21.4891 52.0148C21.4265 52.0879 21.3805 52.1743 21.3547 52.2676C21.3288 52.3609 21.3237 52.4589 21.3396 52.5545C21.3556 52.6501 21.3922 52.741 21.4468 52.8205L21.6271 53.0949C21.71 53.2092 21.8232 53.2971 21.9535 53.3484C22.0839 53.3997 22.2259 53.4123 22.363 53.3846C23.0293 53.2563 23.6629 52.9917 24.2253 52.607C24.4055 52.485 24.5858 52.3173 24.5407 52.119C24.5142 52.0533 24.4734 51.9945 24.4214 51.947C24.3694 51.8995 24.3075 51.8645 24.2403 51.8446Z" fill="#7EC152"/>
<path d="M24.5257 53.7354C24.4963 53.6926 24.4542 53.6606 24.4056 53.6439C24.0593 53.422 23.6855 53.2477 23.2942 53.1254C22.9102 52.9883 22.4917 52.9883 22.1077 53.1254C21.9199 53.206 21.7567 53.3362 21.6352 53.5024C21.5137 53.6687 21.4383 53.865 21.4168 54.0708C21.4128 54.2429 21.4457 54.4139 21.5131 54.5718C21.5805 54.7298 21.6809 54.871 21.8073 54.9857C21.9794 55.0654 22.1664 55.1066 22.3555 55.1066C22.5446 55.1066 22.7316 55.0654 22.9037 54.9857C23.2476 54.832 23.5666 54.6264 23.8499 54.3758L24.3755 53.9793C24.4656 53.9793 24.5858 53.8574 24.5257 53.7354Z" fill="#8FD860"/>
<path d="M21.9875 51.5853C21.9197 51.5517 21.8452 51.5342 21.7697 51.5342C21.6942 51.5342 21.6197 51.5517 21.5519 51.5853C21.0474 51.6075 20.5587 51.7711 20.1402 52.058C19.92 52.3125 19.765 52.6182 19.689 52.948C19.613 53.2779 19.6184 53.6216 19.7046 53.9488L21.2065 53.0339C21.5609 52.8571 21.8542 52.5753 22.0476 52.2258C22.0626 51.9818 22.1227 51.7226 21.9875 51.5853Z" fill="#7EC152"/>
<path d="M22.1227 56.6631L21.7172 56.0379C21.5767 55.8249 21.3926 55.6452 21.1775 55.5111C20.9624 55.3769 20.7213 55.2913 20.4707 55.2602L19.6897 55.184C19.7003 55.7753 19.8496 56.3555 20.1252 56.8765C20.3669 57.0679 20.6603 57.1796 20.9663 57.1967L21.6572 57.2882C21.8824 57.2882 22.1528 57.2882 22.2429 57.1205C22.2601 57.04 22.2581 56.9566 22.2372 56.877C22.2164 56.7975 22.1771 56.7241 22.1227 56.6631Z" fill="#7EC152"/>
<path d="M21.7773 53.7201C21.6353 53.5356 21.4558 53.3842 21.2511 53.2763C21.0464 53.1685 20.8212 53.1066 20.5908 53.0949C20.4257 53.1054 20.2662 53.1604 20.129 53.2542C19.9917 53.348 19.8815 53.4772 19.8098 53.6286C19.6854 53.8849 19.5945 54.1566 19.5395 54.4368C19.5193 54.5941 19.5315 54.754 19.5755 54.9063C19.6195 55.0585 19.6941 55.1998 19.7948 55.3212C19.9257 55.4337 20.0817 55.5119 20.2493 55.5492C20.4168 55.5864 20.5908 55.5814 20.756 55.5347C21.0835 55.4449 21.3899 55.2893 21.6571 55.0772C21.8189 54.9816 21.9534 54.845 22.0476 54.6808C22.0954 54.511 22.0954 54.331 22.0476 54.1612C21.9999 53.9914 21.9062 53.8386 21.7773 53.7201Z" fill="#8FD860"/>
<path d="M17.7823 55.3974C17.7385 55.3607 17.6983 55.3199 17.6621 55.2755L17.7823 55.3974Z" fill="#8EBE20"/>
<path d="M19.5243 54.4063C19.5729 54.4666 19.6133 54.5333 19.6445 54.6045C19.7341 54.1583 19.7644 53.7018 19.7346 53.2474C19.7569 53.1625 19.7569 53.0731 19.7346 52.9882C19.6812 52.921 19.6118 52.8689 19.5329 52.8369C19.454 52.8048 19.3683 52.7939 19.284 52.8052C19.0883 52.8016 18.8945 52.8438 18.7174 52.9284C18.5403 53.013 18.3847 53.1378 18.2627 53.2932C18.1401 53.445 18.0646 53.6304 18.0458 53.8259C18.0271 54.0214 18.066 54.2181 18.1576 54.391C18.2112 54.5098 18.3081 54.6028 18.4279 54.6503C18.4891 54.6729 18.5559 54.6747 18.6182 54.6555C18.6805 54.6362 18.735 54.5969 18.7734 54.5435C18.712 54.5362 18.6546 54.5088 18.6098 54.4655C18.5651 54.4222 18.5354 54.3653 18.5252 54.3034C18.5151 54.2415 18.525 54.1779 18.5535 54.1222C18.582 54.0665 18.6275 54.0217 18.6833 53.9946C18.7811 53.964 18.8858 53.964 18.9836 53.9946C19.2156 54.0598 19.4209 54.1988 19.5694 54.391L19.5243 54.4063Z" fill="#7EC152"/>
<path d="M19.5244 54.6045C19.5322 54.7009 19.5322 54.7978 19.5244 54.8942V54.4215C19.473 54.6466 19.372 54.8569 19.2289 55.0365C19.0858 55.2162 18.9044 55.3604 18.6983 55.4584C18.5547 55.5631 18.3788 55.6119 18.2027 55.5957C18.1016 55.5871 18.0064 55.5441 17.9324 55.4737C18.1394 55.626 18.3743 55.7349 18.6232 55.7939C18.7863 55.8318 18.9558 55.8318 19.1189 55.7939C19.3164 55.7433 19.4886 55.6203 19.6022 55.4486C19.7159 55.2769 19.7631 55.0686 19.7346 54.8637C19.6853 54.762 19.6133 54.6732 19.5244 54.6045Z" fill="#7EC152"/>
<path d="M17.6621 55.2755C17.6172 55.2233 17.577 55.1672 17.542 55.1077C17.577 55.1672 17.6172 55.2233 17.6621 55.2755Z" fill="#8EBE20"/>
<path d="M15.3493 54.391V54.2691C15.34 54.288 15.3352 54.3089 15.3352 54.3301C15.3352 54.3512 15.34 54.3721 15.3493 54.391Z" fill="#83AA18"/>
<g opacity="0.5">
<path d="M16.0402 49.8623C15.964 49.7783 15.8644 49.7199 15.7548 49.6945C15.6347 49.6945 15.5295 49.8318 15.5896 49.9233C15.5232 49.8923 15.4637 49.8479 15.4146 49.7928C15.3656 49.7378 15.328 49.6732 15.3042 49.6031C15.2367 49.4656 15.1391 49.3456 15.0189 49.2523C14.9884 49.233 14.9544 49.2199 14.919 49.214C14.8835 49.2081 14.8472 49.2095 14.8122 49.218C14.7773 49.2265 14.7443 49.242 14.7153 49.2637C14.6863 49.2853 14.6619 49.3125 14.6434 49.3438C14.6434 49.3438 14.6434 49.4658 14.6434 49.4963C14.6268 49.5034 14.6089 49.5071 14.5909 49.5071C14.5728 49.5071 14.5549 49.5034 14.5383 49.4963C14.3581 49.4201 14.2679 49.2218 14.1478 49.0541C14.0276 48.8864 13.8024 48.7644 13.6372 48.8864C13.472 49.0084 13.6372 48.8864 13.547 48.9626C13.4569 49.0389 13.4269 48.9626 13.3818 48.8559C13.1776 48.6081 12.9339 48.3968 12.6609 48.2307C12.5408 48.1545 12.3455 48.1087 12.3005 48.2307C12.2893 48.2572 12.2836 48.2857 12.2836 48.3146C12.2836 48.3434 12.2893 48.3719 12.3005 48.3984C12.4087 48.8088 12.5977 49.1927 12.8562 49.5268C12.7956 49.5463 12.74 49.5789 12.6932 49.6225C12.6464 49.6661 12.6095 49.7195 12.5852 49.7791C12.5609 49.8386 12.5497 49.9029 12.5524 49.9673C12.5551 50.0317 12.5716 50.0948 12.6009 50.152C12.7191 50.3834 12.902 50.5744 13.1265 50.7009C13.0898 50.6945 13.0523 50.6957 13.0161 50.7047C12.9799 50.7137 12.946 50.7301 12.9164 50.753C12.8868 50.7759 12.8621 50.8048 12.844 50.8378C12.8259 50.8708 12.8147 50.9073 12.8111 50.9449C12.8079 51.0224 12.8241 51.0994 12.8583 51.1688C12.8924 51.2381 12.9434 51.2975 13.0064 51.3414C13.1265 51.4481 13.2617 51.5091 13.3818 51.6006C13.6544 51.7686 13.8614 52.0272 13.9676 52.3325C14.0577 52.5917 13.9676 52.9577 13.7573 53.0034C13.547 53.0492 13.4269 52.912 13.3067 52.7747C13.0345 52.4955 12.7974 52.183 12.6009 51.8446C12.4831 51.5815 12.3316 51.3354 12.1503 51.1126C11.843 50.8142 11.4569 50.6128 11.0389 50.5332C10.9257 50.5028 10.8067 50.5028 10.6935 50.5332C10.5883 50.5332 10.4682 50.6552 10.4682 50.7772H10.5133C10.2394 50.6379 9.92767 50.595 9.62715 50.6552C9.62715 50.6552 9.47696 50.6552 9.47696 50.7772C9.46596 50.7927 9.46004 50.8114 9.46004 50.8305C9.46004 50.8497 9.46596 50.8684 9.47696 50.8839C9.5688 51.0386 9.70507 51.1609 9.86745 51.2346C9.50704 51.0269 9.10819 50.8971 8.69598 50.8534H8.51576C8.45986 50.8856 8.41799 50.9381 8.3985 51.0003C8.37901 51.0624 8.38334 51.1298 8.41063 51.1889C8.43012 51.2328 8.45538 51.2738 8.48572 51.3109C8.37162 51.2411 8.24305 51.1993 8.11025 51.1889C7.64467 51.1889 7.16407 51.0669 6.69849 51.0364C7.21848 51.5791 7.88016 51.96 8.60587 52.1343C8.44659 52.1401 8.29145 52.1874 8.15531 52.2715C8.08978 52.3144 8.03973 52.3777 8.01265 52.452C7.98557 52.5262 7.98293 52.6073 8.00512 52.6832C8.04373 52.7577 8.10064 52.8207 8.17033 52.8662C8.37977 52.9989 8.61584 53.0823 8.86119 53.1102H8.68096C8.59255 53.1442 8.51863 53.2086 8.47201 53.2921C8.42539 53.3757 8.40899 53.4731 8.42565 53.5676C8.46617 53.6493 8.52561 53.7197 8.59887 53.7728C8.67212 53.8259 8.75699 53.8602 8.84617 53.8726C9.2416 53.9641 9.65224 53.9641 10.0477 53.8726C9.92682 53.9034 9.81406 53.9607 9.71726 54.0403C9.67695 54.0896 9.65489 54.1516 9.65489 54.2157C9.65489 54.2797 9.67695 54.3418 9.71726 54.391C9.71726 54.391 9.83741 54.4978 9.9125 54.5283C10.3529 54.6659 10.8238 54.6659 11.2642 54.5283C11.6997 54.4063 12.1353 54.2386 12.5708 54.1166C12.7145 54.0862 12.8627 54.0862 13.0064 54.1166C13.0778 54.1307 13.1445 54.1634 13.1998 54.2115C13.2551 54.2596 13.2971 54.3215 13.3218 54.391C13.3305 54.471 13.315 54.5517 13.2775 54.6225C13.2399 54.6933 13.182 54.7509 13.1115 54.7875C12.9717 54.8629 12.8186 54.9096 12.6609 54.9247L11.6847 55.0467C11.538 55.0587 11.395 55.1002 11.2642 55.1687C11.2017 55.2046 11.1511 55.2585 11.119 55.3237C11.0869 55.3889 11.0747 55.4624 11.084 55.5347C11.0912 55.5698 11.1066 55.6026 11.1287 55.6306C11.1508 55.6586 11.179 55.6809 11.2112 55.6958C11.2434 55.7106 11.2785 55.7176 11.3138 55.7161C11.3491 55.7146 11.3835 55.7047 11.4144 55.6872L10.4532 56.1599C10.4072 56.1815 10.3663 56.2126 10.333 56.2514C10.3001 56.2922 10.2821 56.3434 10.2821 56.3962C10.2821 56.449 10.3001 56.5002 10.333 56.5411C10.441 56.5724 10.5555 56.5724 10.6634 56.5411L9.16157 57.1968C9.05643 57.1968 8.9513 57.3187 8.99636 57.4255C9.56341 57.4729 10.1342 57.4108 10.6785 57.2425C10.6785 57.3797 10.5133 57.4865 10.5283 57.6237C10.5433 57.761 10.7686 57.7914 10.9338 57.7457L11.7598 57.517C11.8499 57.6237 11.6547 57.7457 11.6697 57.8829C11.6847 58.0202 11.88 58.0659 12.0302 58.0202C12.3075 57.9413 12.564 57.8007 12.7811 57.6085C12.8025 57.7141 12.8025 57.8231 12.7811 57.9287C12.7811 58.0354 12.7811 58.1727 12.8862 58.2031C12.93 58.2183 12.9776 58.2183 13.0214 58.2031C13.1373 58.148 13.241 58.0696 13.3262 57.9726C13.4114 57.8757 13.4763 57.7621 13.517 57.639C13.547 57.7192 13.6061 57.7846 13.6822 57.8219C13.8241 57.8666 13.9759 57.8666 14.1178 57.8219C14.5252 57.659 14.8961 57.4143 15.2084 57.1025C15.5206 56.7907 15.7677 56.4183 15.935 56.0074C16.0251 55.7939 16.0702 55.5042 15.935 55.3517C15.7999 55.1992 15.6347 55.3517 15.4845 55.245C15.3919 55.2114 15.3105 55.1522 15.2495 55.074C15.1884 54.9958 15.1502 54.9019 15.139 54.8028C15.1333 54.7093 15.1526 54.616 15.1949 54.5327C15.2372 54.4495 15.301 54.3795 15.3793 54.3301C15.3793 54.1928 15.5596 54.0708 15.7248 54.0708C15.9147 54.1286 16.1004 54.1999 16.2805 54.2843C16.5118 54.335 16.7531 54.3073 16.9674 54.2054C17.1818 54.1035 17.3572 53.933 17.4669 53.7201C17.6366 53.3962 17.7253 53.0349 17.7253 52.668C17.7253 52.3011 17.6366 51.9398 17.4669 51.6158C17.1039 50.9457 16.6198 50.3508 16.0402 49.8623Z" fill="#466D2D"/>
</g>
<path d="M16.6257 52.2715C16.6773 52.1105 16.6806 51.9375 16.6351 51.7746C16.5897 51.6117 16.4975 51.4662 16.3704 51.3566C16.3277 51.2994 16.2735 51.2521 16.2113 51.2179C16.1491 51.1837 16.0805 51.1634 16.01 51.1584C15.9731 51.1664 15.9393 51.185 15.9127 51.2121C15.886 51.2391 15.8676 51.2734 15.8598 51.3109C15.756 50.9294 15.5477 50.5857 15.259 50.3197C15.2009 50.2638 15.1277 50.2267 15.0488 50.213C14.9912 50.2195 14.9376 50.2457 14.8967 50.2873C14.8557 50.3289 14.8299 50.3833 14.8235 50.4417C14.8158 50.5606 14.8475 50.6787 14.9136 50.7772C14.5725 50.391 14.1655 50.0708 13.7121 49.8318C13.607 49.8318 13.4718 49.725 13.3967 49.8318C13.3782 49.8809 13.3782 49.9352 13.3967 49.9843C13.4287 50.2256 13.5528 50.4446 13.7421 50.5942L14.1777 50.9449H14.0425C13.9808 50.9312 13.9163 50.9427 13.8629 50.977C13.8095 51.0112 13.7715 51.0654 13.7571 51.1279C13.7674 51.2047 13.8048 51.2751 13.8623 51.3261C14.1426 51.6519 14.4546 51.9483 14.7934 52.2105C14.9357 52.307 15.0624 52.4253 15.1689 52.5612C15.2547 52.7517 15.2902 52.9615 15.2717 53.1701C15.2533 53.3787 15.1816 53.5787 15.0638 53.7506C15.0103 53.8453 14.9388 53.9282 14.8535 53.9946C14.7803 54.0278 14.7009 54.045 14.6207 54.045C14.5405 54.045 14.4612 54.0278 14.3879 53.9946C13.6993 53.8556 13.0848 53.4649 12.6608 52.8967C12.5106 52.6375 12.4355 52.3325 12.3003 52.0733C12.1222 51.752 11.849 51.4959 11.5193 51.3414C11.4874 51.3226 11.4511 51.3128 11.4142 51.3128C11.3773 51.3128 11.341 51.3226 11.3091 51.3414C11.2835 51.3738 11.2695 51.4142 11.2695 51.4557C11.2695 51.4973 11.2835 51.5376 11.3091 51.5701C11.5494 52.058 12.015 52.4393 12.1201 52.9729C11.9399 52.9729 11.8197 52.79 11.7296 52.6375C11.4479 52.1861 11.074 51.8013 10.6332 51.5091C10.5281 51.5091 10.3629 51.4176 10.3178 51.5091C10.3067 51.5356 10.3009 51.5641 10.3009 51.593C10.3009 51.6218 10.3067 51.6503 10.3178 51.6768C10.5289 51.9723 10.782 52.2344 11.0688 52.4545C10.2759 52.1827 9.46208 51.9787 8.63574 51.8446C8.89803 52.1821 9.26203 52.4231 9.67204 52.5307C10.0826 52.6225 10.508 52.6225 10.9186 52.5307C11.0175 52.5079 11.1201 52.5079 11.219 52.5307C11.3091 52.5307 11.3842 52.6832 11.3391 52.7747C11.3197 52.8072 11.2935 52.835 11.2624 52.8561C11.2312 52.8772 11.1959 52.891 11.1589 52.8967C10.6332 53.0644 10.0325 53.0187 9.50683 53.2169C9.50683 53.2169 9.41672 53.2169 9.4017 53.2169C9.38668 53.2169 9.49181 53.4304 9.62698 53.4609C9.98934 53.5292 10.361 53.5292 10.7234 53.4609C11.0523 53.3267 11.4054 53.2643 11.7596 53.2779C11.8498 53.2779 11.9699 53.3694 11.9249 53.4609C11.8798 53.5524 11.9249 53.4609 11.8197 53.5371C11.4508 53.6748 11.0748 53.7919 10.6933 53.8878C10.6032 53.8878 10.4981 53.8878 10.468 54.0556C10.438 54.2233 10.468 54.2081 10.6032 54.2386C10.6817 54.2614 10.765 54.2614 10.8435 54.2386C11.219 54.1166 11.5494 53.8878 11.9399 53.7964C12.7799 53.6776 13.6339 53.8727 14.3429 54.3453C14.3429 54.3453 14.433 54.3453 14.448 54.4368C14.463 54.5283 14.448 54.5283 14.448 54.574C14.1556 54.9732 13.7451 55.2671 13.2765 55.4127L11.7747 56.0074C11.6695 56.0074 11.5494 56.1294 11.5494 56.2361C11.5494 56.3428 11.7897 56.4191 12.015 56.4191C11.7267 56.4528 11.4495 56.5518 11.204 56.7088C11.204 56.7088 11.0387 56.846 11.0538 56.9528C11.0688 57.0595 11.249 57.1205 11.3692 57.1205C11.6967 57.121 12.0235 57.0904 12.3454 57.029C12.2703 57.1663 12.4505 57.3035 12.6007 57.3187C12.8199 57.3412 13.0406 57.2932 13.2315 57.1815C13.3366 57.1815 13.4568 57.0138 13.5769 57.0443C13.639 57.0594 13.696 57.0909 13.7421 57.1358C13.9146 57.2406 14.1118 57.2959 14.3128 57.2959C14.5138 57.2959 14.7111 57.2406 14.8836 57.1358C15.2125 56.899 15.4804 56.5851 15.6645 56.2208C15.7089 56.1632 15.7411 56.0969 15.7592 56.0261C15.7773 55.9553 15.7809 55.8814 15.7697 55.8091C15.7697 55.5652 15.3642 55.5499 15.1539 55.4432C15.0705 55.4016 14.9972 55.3418 14.9392 55.2681C14.8812 55.1943 14.8399 55.1085 14.8184 55.0167C14.7969 54.9249 14.7956 54.8295 14.8147 54.7371C14.8337 54.6448 14.8726 54.5578 14.9286 54.4825V54.6808C14.9815 54.4121 15.1209 54.169 15.3248 53.9895C15.5287 53.8101 15.7856 53.7046 16.055 53.6896C16.2245 53.7125 16.3962 53.7125 16.5657 53.6896C16.6771 53.6582 16.7812 53.6042 16.8716 53.5308C16.9619 53.4574 17.0367 53.3662 17.0913 53.2627C17.238 53.038 17.3018 52.768 17.2715 52.5002C17.2603 52.4291 17.2327 52.3616 17.191 52.3033C17.1492 52.245 17.0945 52.1975 17.0312 52.1648C17 52.1376 16.9628 52.1185 16.9227 52.1091C16.8826 52.0997 16.8409 52.1002 16.801 52.1107C16.7612 52.1212 16.7245 52.1413 16.694 52.1693C16.6634 52.1973 16.64 52.2324 16.6257 52.2715Z" fill="#7EC152"/>
</g>
<defs>
<clipPath id="clip0_57_1519">
<rect width="36" height="124" fill="white"/>
</clipPath>
</defs>
</svg>
