<svg width="55" height="124" viewBox="0 0 55 124" fill="none" xmlns="http://www.w3.org/2000/svg">
<path d="M1.87335 113.699V118.18C1.86966 118.726 2.02816 119.259 2.32871 119.714C2.62926 120.169 3.05828 120.524 3.56122 120.735C9.25216 123.214 18.035 123.976 27.3706 123.976C35.4207 124.188 43.4466 123 51.0903 120.466C51.61 120.287 52.0643 119.957 52.3945 119.518C52.7246 119.078 52.9155 118.55 52.9425 118.001V113.699H1.87335Z" fill="#305B13"/>
<path d="M27.2959 0C24.6969 0 20.8582 0.224053 20.8582 0.507853C22.9769 0.926894 25.1381 1.09236 27.2959 1.00077C29.4588 1.09284 31.6249 0.927374 33.7487 0.507853C33.7487 0.224053 29.9099 0 27.2959 0Z" fill="#F72806"/>
<path d="M27.3705 108.905C17.0939 108.905 1.87329 111.056 1.87329 113.699C1.87329 116.343 17.0939 118.494 27.3705 118.494C37.6471 118.494 52.9424 116.343 52.9424 113.699C52.9424 111.056 37.6769 108.905 27.3705 108.905Z" fill="#3B6D14"/>
<path d="M54.0627 66.2748C54.2153 63.8012 53.5509 61.346 52.1719 59.2869C50.7928 57.2277 48.7754 55.6787 46.43 54.878L40.3208 52.7868C38.5803 52.1888 37.0613 51.0786 35.963 49.6018C34.8648 48.1251 34.2387 46.3508 34.1669 44.5118L32.8076 7.55804C30.992 7.90981 29.1451 8.07498 27.2959 8.05096C25.4615 8.07549 23.6295 7.91031 21.829 7.55804L20.4249 44.5417C20.3535 46.373 19.7306 48.14 18.6379 49.6113C17.5451 51.0825 16.0334 52.1894 14.3008 52.7868L8.3261 54.8631C5.97652 55.6606 3.954 57.2079 2.56957 59.267C1.18513 61.3262 0.515444 63.783 0.66349 66.2599L3.65086 113.699C3.65086 115.805 17.7961 117.523 27.4005 117.523C37.0049 117.523 51.1501 115.805 51.1501 113.699L54.0627 66.2748Z" fill="#305B13"/>
<path d="M27.2959 6.39296C25.1374 6.30298 22.9759 6.4735 20.8582 6.90082C20.8582 7.18462 24.6969 7.40867 27.2959 7.40867C29.8949 7.40867 33.7487 7.18462 33.7487 6.90082C31.6259 6.47316 29.4594 6.30265 27.2959 6.39296Z" fill="#F72806"/>
<path d="M27.296 4.48106C25.4139 4.53767 23.5303 4.43775 21.6648 4.18233V6.90083C23.5318 7.13993 25.4144 7.23482 27.296 7.18463C29.1825 7.23517 31.0702 7.14029 32.9421 6.90083V4.24207C31.0699 4.47795 29.1814 4.55789 27.296 4.48106Z" fill="#740402"/>
<path d="M27.2959 7.46842C24.6969 7.46842 20.8582 7.24437 20.8582 6.96057V11.591C22.9769 12.01 25.1381 12.1755 27.2959 12.0839C29.4588 12.176 31.6249 12.0105 33.7487 11.591V6.90082C33.7487 7.18462 29.9099 7.46842 27.2959 7.46842Z" fill="#020405"/>
<path d="M27.2959 1.00076C25.1381 1.09235 22.9769 0.926884 20.8582 0.507843V5.18308C20.8582 5.46688 24.6969 5.69093 27.2959 5.69093C29.8949 5.69093 33.7487 5.46688 33.7487 5.18308V0.507843C31.6249 0.927364 29.4588 1.09283 27.2959 1.00076Z" fill="#020405"/>
<path d="M50.7465 66.2748C51.1349 57.9699 43.6515 56.5211 40.2907 54.878L36.1234 52.7868C33.6886 51.562 32.0307 48.724 31.9261 44.9599H22.5607C22.4561 48.7091 20.8131 51.5321 18.3933 52.757L14.3604 54.8631C11.1191 56.5211 3.56101 57.9998 3.99418 66.2599L6.638 113.699C6.638 115.805 19.0207 117.523 27.4301 117.523C35.8396 117.523 48.1625 115.805 48.1625 113.699L50.7465 66.2748Z" fill="#376B0F"/>
<path d="M35.108 48.1564C34.5449 47.02 34.2245 45.7788 34.167 44.5118L32.9571 11.8001C31.0763 11.9933 29.1867 12.0881 27.2961 12.0839C25.4153 12.0873 23.5357 11.9926 21.6649 11.8001L20.4251 44.5417C20.3653 45.797 20.0502 47.027 19.499 48.1564C22.0741 48.6082 24.6818 48.848 27.2961 48.8734C29.9153 48.8488 32.5281 48.6091 35.108 48.1564Z" fill="#EF1414"/>
<path d="M27.2961 45.423C24.9839 45.3885 22.6774 45.1838 20.3952 44.8106C20.3038 45.9617 20 47.086 19.499 48.1265C22.0741 48.5784 24.6818 48.8182 27.2961 48.8435C29.9153 48.819 32.5281 48.5792 35.108 48.1265C34.5956 47.0895 34.2863 45.9639 34.1969 44.8106C31.9148 45.1844 29.6083 45.3891 27.2961 45.423Z" fill="#020405"/>
<g opacity="0.2">
<path d="M46.4298 54.878L43.2782 53.7727C38.0095 54.7627 32.6563 55.233 27.2957 55.1767C21.7951 55.2404 16.2988 54.8407 10.8652 53.9818L8.32594 54.8481C6.14595 55.5869 4.2438 56.9743 2.8743 58.8243C1.5048 60.6743 0.733359 62.8987 0.66333 65.1994C9.47671 66.365 18.3612 66.9091 27.2509 66.8275C36.2081 66.9036 45.1547 66.1939 53.9879 64.7065C53.8223 62.5101 53.0188 60.41 51.6761 58.6639C50.3334 56.9179 48.51 55.6021 46.4298 54.878Z" fill="#51AA02"/>
</g>
<g opacity="0.5">
<path d="M41.7698 53.2798L40.2761 52.7868C39.145 52.3965 38.1022 51.7865 37.2076 50.9919C36.313 50.1972 35.5842 49.2336 35.0632 48.1564C32.4832 48.6091 29.8704 48.8489 27.2512 48.8734C24.637 48.848 22.0292 48.6082 19.4542 48.1564C18.404 50.3281 16.5342 51.9936 14.2561 52.7868L12.6131 53.3843L10.8655 53.9967C16.2991 54.8556 21.7953 55.2554 27.296 55.1917C32.6571 55.243 38.0103 54.7678 43.2785 53.7727L41.7698 53.2798Z" fill="#224C01"/>
</g>
<path d="M43.4278 77.821H10.8057V104.155H43.4278V77.821Z" fill="#FFE45C"/>
<path d="M8.20654 75.2369V106.754H46.0117V75.2369H8.20654ZM43.4276 104.155H10.8056V77.821H43.4276V104.155Z" fill="#BF0202"/>
<g opacity="0.5">
<path d="M13.33 77.821H10.8057V104.155H13.33V77.821Z" fill="#FFB624"/>
</g>
<g opacity="0.5">
<path d="M17.0942 77.821H14.5698V104.155H17.0942V77.821Z" fill="#FFB624"/>
</g>
<g opacity="0.5">
<path d="M20.8581 77.821H18.3337V104.155H20.8581V77.821Z" fill="#FFB624"/>
</g>
<g opacity="0.5">
<path d="M24.6073 77.821H22.083V104.155H24.6073V77.821Z" fill="#FFB624"/>
</g>
<g opacity="0.5">
<path d="M28.3715 77.821H25.8472V104.155H28.3715V77.821Z" fill="#FFB624"/>
</g>
<g opacity="0.5">
<path d="M32.1357 77.821H29.6113V104.155H32.1357V77.821Z" fill="#FFB624"/>
</g>
<g opacity="0.5">
<path d="M35.8996 77.821H33.3752V104.155H35.8996V77.821Z" fill="#FFB624"/>
</g>
<g opacity="0.5">
<path d="M39.6637 77.821H37.1394V104.155H39.6637V77.821Z" fill="#FFB624"/>
</g>
<g opacity="0.5">
<path d="M43.4279 77.821H40.9036V104.155H43.4279V77.821Z" fill="#FFB624"/>
</g>
<path d="M16.8997 94.5802V94.8341C16.8511 94.8942 16.8201 94.9666 16.8101 95.0432L16.9296 96.4323H16.9445C16.9445 96.4323 16.84 96.2979 16.7802 96.2531C16.7205 96.2083 16.7802 96.3427 16.7802 96.3726C16.7802 96.3726 16.7802 96.4024 16.7802 96.3726H16.4964V95.8797H16.347C16.347 95.8797 16.347 95.8797 16.2724 95.8797C16.1977 95.8797 16.2724 95.8797 16.2724 95.8797H15.9736V96.8207C15.9736 96.8207 15.8691 96.9701 15.8392 97.0597H15.9288V98.2397L16.4815 98.1351V98.5832C16.4815 98.5832 16.362 98.7475 16.3172 98.8521H16.4068V99.6288H15.7346C15.7346 99.6288 15.645 99.7334 15.6002 99.7334H14.5397V99.2405C14.5493 99.1911 14.5493 99.1404 14.5397 99.0911C14.5504 99.0469 14.5504 99.0008 14.5397 98.9567V98.4189C14.5397 98.4189 14.5397 98.4189 14.6144 98.4189H15.2567V98.0306C15.2567 97.926 15.3761 98.0306 15.421 97.9409C15.421 97.9409 15.2268 97.7916 15.2268 97.7468V96.2531H15.0625V96.1186C15.0625 96.2083 14.9729 96.268 14.943 96.268H14.7936V96.7311H14.1812V95.5062C14.1812 95.5062 14.1812 95.5062 14.3604 95.3419C14.5397 95.1776 14.1663 95.3419 14.1663 95.2075V94.9536L16.8997 94.5802Z" fill="#020405"/>
<path d="M20.0814 94.7743H20.9478V94.9386C20.9478 94.9386 20.9478 95.0731 20.9478 95.1029V95.2523L21.0673 95.9245V96.2979H20.425V95.7602H20.0366C19.9619 95.7602 19.8723 95.6556 19.7827 95.6556H18.9462L18.8417 96.3726H19.7229H20.0814H20.1561V97.0298H19.708H19.6184H18.8417V97.7617H20.0665L20.2159 97.8513H20.4847V97.4032H21.1121L21.0374 98.6131C21.0347 98.6429 21.0347 98.6729 21.0374 98.7027V99.121H20.0217H18.528C18.4533 99.121 18.4384 98.9716 18.3338 98.9716C18.2293 98.9716 18.1396 99.1359 18.0799 99.1359H17.4824V98.8073C17.4824 98.8073 17.4824 98.8073 17.5571 98.8073C17.5571 98.8073 17.4824 98.8073 17.4824 98.7027L17.6318 97.7916H17.811C17.811 97.7916 17.811 97.8812 17.9455 97.8812C18.0799 97.8812 17.9455 97.8812 18.05 97.8812H18.1845V97.687V97.2389H17.9007V96.6414H18.1546V96.3576V96.044H18.065C17.9604 96.044 18.065 95.9394 17.9156 95.9394C17.9156 96.0141 17.9156 96.029 17.9156 96.029H17.7363V95.5212C17.7511 95.4776 17.7511 95.4303 17.7363 95.3867C17.7513 95.3483 17.7513 95.3057 17.7363 95.2672V94.7445H18.5131C18.5801 94.7717 18.6374 94.8185 18.6774 94.8789C18.6774 94.8789 18.7521 94.8789 18.7969 94.8789C18.7969 94.8789 18.7969 94.8789 18.8715 94.8789H20.0366L20.0814 94.7743Z" fill="#020405"/>
<path d="M25.4883 97.6571L25.563 97.7468C25.563 97.8812 25.4883 98.2098 25.3987 98.2098H25.2941C25.2941 98.2098 25.3987 98.2994 25.3987 98.3293C25.2941 98.5683 24.9506 99.0911 24.9506 99.121C25.051 99.2041 25.1788 99.2467 25.3091 99.2405H25.4435H25.6078C25.6078 99.2405 25.6078 99.3151 25.6974 99.3599C25.787 99.4048 25.6974 99.2554 25.6974 99.2255C25.8468 99.2255 25.8617 99.0612 25.9215 99.0612V99.9126L25.6974 100.152C25.7517 100.142 25.8074 100.142 25.8617 100.152V100.271C25.8617 100.271 25.7273 100.271 25.6377 100.271C25.548 100.271 24.8609 100.271 24.8609 100.062V99.9724L24.7415 100.062C24.4998 99.9646 24.292 99.7984 24.144 99.584C23.9979 99.6487 23.8406 99.6842 23.6809 99.6886C23.4295 99.7003 23.1802 99.638 22.964 99.5093C22.8146 99.5093 22.8445 99.3749 22.7997 99.3151C22.4775 99.1056 22.2022 98.8314 21.9914 98.5101C21.7806 98.1887 21.6387 97.827 21.5748 97.448C21.5748 97.448 21.5748 97.3136 21.5748 97.224V96.9103H21.7093C21.7093 96.9103 21.53 96.8207 21.53 96.746C21.6346 96.1933 22.0678 95.2523 22.2918 95.2523H22.3964C22.3964 95.2523 22.486 95.2523 22.5009 95.1478H22.5905C22.8131 95.0108 23.0629 94.9241 23.3225 94.8938C23.6361 94.8938 24.2635 95.1328 24.2635 95.2673C24.2635 95.4017 24.2635 95.3569 24.2635 95.4017L24.3531 95.327H24.4278C24.7605 95.6374 25.0074 96.0284 25.1447 96.4622C25.1447 96.4622 25.1447 96.4622 25.1447 96.5966C25.1428 96.6375 25.1514 96.6782 25.1697 96.7149C25.188 96.7515 25.2154 96.7828 25.2493 96.8057C25.324 96.8057 25.324 97.2539 25.324 97.4331C25.324 97.6123 25.324 97.7617 25.2493 97.7617C25.1746 97.7617 25.2493 97.7617 25.2493 97.7617L25.4883 97.6571ZM22.8594 98.2546H22.9341C23.1157 98.3524 23.3127 98.4181 23.5166 98.4488C23.4231 98.1693 23.3727 97.8772 23.3673 97.5825C23.3673 97.5825 23.3673 97.463 23.4419 97.463H23.7706C23.7706 97.463 23.8901 97.687 23.8901 97.8065C23.8633 97.8678 23.8334 97.9276 23.8004 97.9858H23.905C23.9599 98.1199 24.0248 98.2497 24.0992 98.3741C24.0992 98.3741 24.0992 98.4637 24.2187 98.5384C24.223 98.4937 24.223 98.4487 24.2187 98.404C24.4306 98.164 24.5521 97.8576 24.5622 97.5377C24.5563 97.2298 24.4373 96.9348 24.228 96.7089C24.0186 96.4831 23.7336 96.3421 23.427 96.3128C23.2671 96.3155 23.1095 96.3511 22.964 96.4174C22.8608 96.3932 22.7535 96.3932 22.6503 96.4174V96.5369C22.5438 96.6478 22.4623 96.7802 22.4113 96.9252V97.0746V97.1642V97.4182C22.4113 97.7766 22.6204 98.2397 22.8743 98.3144C22.8678 98.306 22.863 98.2964 22.8604 98.2861C22.8579 98.2758 22.8575 98.2651 22.8594 98.2546ZM25.3688 97.6721H25.2493H25.3688Z" fill="#020405"/>
<path d="M28.8493 96.0738H28.5655V95.5959C28.5655 95.5959 28.7298 95.4316 28.7298 95.327C28.7298 95.327 28.5954 95.327 28.5954 95.2374V94.8789H30.2683H30.343V95.1029C30.3309 95.1671 30.3309 95.233 30.343 95.2971C30.343 95.3718 30.4177 95.4017 30.4177 95.4465V96.0141H29.8202V96.7908C29.7986 96.8537 29.7986 96.9221 29.8202 96.985C29.8246 97.065 29.8504 97.1424 29.8949 97.209V98.1799C29.8949 98.4189 29.8949 98.9716 29.7156 98.9716L29.626 98.882C29.626 98.9716 29.7007 99.0612 29.7007 99.1508C29.545 99.3452 29.3433 99.4976 29.1137 99.5941C28.8841 99.6907 28.6341 99.7283 28.3863 99.7035C28.222 99.7035 27.8187 99.7035 27.8187 99.5691V99.4496C27.8187 99.4496 27.6992 99.4496 27.6693 99.4496C27.4516 99.2707 27.2817 99.0406 27.1748 98.7799C27.0679 98.5192 27.0274 98.2361 27.0569 97.9559L27.1913 96.8655L27.266 96.2083L26.564 96.1037V95.1776C26.564 95.1776 26.6536 95.1029 26.6984 95.088C26.6984 95.088 26.5789 95.088 26.5789 94.9685V94.849H28.2668C28.2668 94.849 28.2668 94.849 28.2668 94.9237V95.1328L28.1622 95.2523C28.1622 95.2523 28.2966 95.2523 28.2817 95.2523V96.1037H27.968V97.7617C27.9134 97.819 27.868 97.8846 27.8336 97.9559H27.5498C27.5498 98.2248 27.8187 98.3592 28.1921 98.3592H28.4012C28.4012 98.2696 28.4012 98.2696 28.4012 98.2248C28.4523 98.221 28.5021 98.2071 28.5477 98.184C28.5934 98.161 28.6341 98.1291 28.6674 98.0902C28.7007 98.0513 28.726 98.0062 28.7419 97.9576C28.7577 97.9089 28.7638 97.8576 28.7597 97.8065V96.522C28.8215 96.4475 28.8673 96.361 28.8941 96.268C28.8801 96.2747 28.8648 96.2781 28.8493 96.2781C28.8338 96.2781 28.8185 96.2747 28.8045 96.268L28.8493 96.0738Z" fill="#020405"/>
<path d="M30.851 98.404C30.8859 98.45 30.9322 98.4861 30.9855 98.5085H31.2244V97.0149C31.2743 96.9538 31.3193 96.8889 31.3589 96.8207H31.2693C31.2693 96.8207 31.2693 96.8207 31.2693 96.746V96.044H30.7913V95.4465C30.7913 95.4465 30.9108 95.3121 30.9257 95.2374C30.9406 95.1627 30.7913 95.2374 30.7913 95.1328V94.6847L32.5389 94.7743V95.0133C32.5389 95.0133 32.4343 95.1627 32.4194 95.1926H32.509L32.5837 95.9992H32.285C32.285 95.9992 32.1953 95.8797 32.1505 95.8199V95.9095V95.9842H32.031V98.3592H32.1207C32.1207 98.3592 32.1207 98.4787 32.1207 98.5235C32.1207 98.5683 32.2551 98.2994 32.2999 98.2994H32.5389V99.5243L30.8809 99.6736H30.8062V99.3898C30.8062 99.3898 30.8958 99.2255 30.9108 99.1658H30.8212L30.7017 98.3442L30.851 98.404Z" fill="#020405"/>
<path d="M39.1859 96.7609C39.1859 96.8954 39.3203 96.985 39.3203 97.0298L39.6041 98.2994H39.873C39.873 98.2994 39.873 98.5534 39.873 98.643C39.873 98.7326 40.1568 98.2845 40.2165 98.2845H40.336V98.6728C40.3312 98.7325 40.3312 98.7924 40.336 98.8521C40.336 98.8521 40.336 98.8521 40.336 98.9566V99.5541C40.336 99.5541 40.336 99.5541 40.2613 99.5541H39.2158C39.1672 99.5382 39.1149 99.5382 39.0664 99.5541H38.9618H38.5735V98.9566C38.5735 98.9566 38.678 98.9566 38.678 98.7774C38.678 98.5982 38.5884 98.6729 38.5884 98.5982V98.3592H38.917L38.8274 98.0007H37.6623L37.5727 98.3741H38.0059V99.5989H37.3188H37.1843C37.1262 99.5796 37.0633 99.5796 37.0051 99.5989H36.4375V98.9716C36.469 98.9534 36.4952 98.9273 36.5136 98.8958C36.5319 98.8644 36.5417 98.8287 36.5421 98.7923C36.5629 98.7395 36.5629 98.6808 36.5421 98.628V98.2397L37.0499 98.3293L37.1395 98.0007H36.9454V97.3136H37.3188L37.5727 96.4622L37.6474 96.1933H37.0947V95.7154C37.151 95.6602 37.1832 95.585 37.1843 95.5062C37.1843 95.3867 37.0798 95.3121 37.0798 95.2672V94.9834H38.7826L38.9021 95.4764C38.802 95.6362 38.6869 95.7863 38.5585 95.9245C38.6735 95.8603 38.7933 95.8053 38.917 95.7602L39.1859 96.7609ZM37.8714 97.3136H38.6631L38.2598 96.1037L38.1702 96.4323C38.1702 96.5219 38.0059 96.5219 38.0059 96.6713C37.9989 96.7158 37.9989 96.7612 38.0059 96.8057L37.8714 97.3136Z" fill="#020405"/>
<path d="M27.3556 84.2588C27.3796 84.2632 27.4042 84.2623 27.4277 84.256C27.4513 84.2498 27.4731 84.2384 27.4917 84.2227C27.5103 84.2069 27.5251 84.1873 27.5352 84.1651C27.5452 84.143 27.5502 84.1188 27.5498 84.0945V83.8854C27.5498 83.8418 27.5325 83.8 27.5017 83.7692C27.4709 83.7384 27.4291 83.7211 27.3855 83.7211C27.3419 83.7211 27.3001 83.7384 27.2693 83.7692C27.2385 83.8 27.2212 83.8418 27.2212 83.8854V84.0945C27.2206 84.1334 27.2337 84.1712 27.2583 84.2013C27.2829 84.2314 27.3174 84.2517 27.3556 84.2588Z" fill="#214902"/>
<path d="M29.8054 85.6778C29.849 85.6778 29.8908 85.6605 29.9216 85.6297C29.9524 85.5989 29.9697 85.5571 29.9697 85.5135V85.3193C29.9697 85.2757 29.9524 85.2339 29.9216 85.2031C29.8908 85.1723 29.849 85.155 29.8054 85.155C29.7845 85.1549 29.7637 85.1592 29.7446 85.1676C29.7254 85.176 29.7082 85.1884 29.6941 85.2039C29.68 85.2194 29.6694 85.2377 29.6628 85.2576C29.6562 85.2774 29.6539 85.2985 29.656 85.3193V85.5135C29.6539 85.5343 29.6562 85.5554 29.6628 85.5752C29.6694 85.5951 29.68 85.6134 29.6941 85.6289C29.7082 85.6444 29.7254 85.6568 29.7446 85.6652C29.7637 85.6736 29.7845 85.6779 29.8054 85.6778Z" fill="#214902"/>
<path d="M30.2982 85.6031C30.2546 85.6031 30.2128 85.6204 30.182 85.6512C30.1512 85.682 30.1339 85.7238 30.1339 85.7674C30.038 85.6734 29.9096 85.62 29.7754 85.6181C29.6532 85.6219 29.5366 85.6696 29.4468 85.7525C29.4468 85.7089 29.4295 85.6671 29.3987 85.6363C29.3678 85.6055 29.3261 85.5882 29.2825 85.5882C29.2389 85.5882 29.1971 85.6055 29.1663 85.6363C29.1355 85.6671 29.1182 85.7089 29.1182 85.7525V85.9616C29.1209 85.9979 29.1356 86.0322 29.1599 86.0592C29.1842 86.0863 29.2168 86.1045 29.2526 86.111C29.2526 86.111 29.2526 86.111 29.2526 86.2006V88.1274C29.2526 88.2899 29.1881 88.4456 29.0732 88.5605C28.9584 88.6753 28.8026 88.7399 28.6402 88.7399H28.446V88.1723C28.4727 88.1777 28.5003 88.1765 28.5264 88.1687C28.5524 88.1609 28.5761 88.1467 28.5954 88.1274V87.9183C28.5954 87.8748 28.5781 87.833 28.5473 87.8021C28.5164 87.7713 28.4747 87.754 28.4311 87.754V87.2163C28.4747 87.2163 28.5164 87.199 28.5473 87.1682C28.5781 87.1374 28.5954 87.0956 28.5954 87.052V86.8429C28.5955 86.8219 28.5912 86.8012 28.5828 86.782C28.5743 86.7629 28.562 86.7457 28.5465 86.7316C28.531 86.7175 28.5127 86.7068 28.4928 86.7003C28.473 86.6937 28.4519 86.6914 28.4311 86.6935V86.1259C28.4747 86.1259 28.5164 86.1086 28.5473 86.0778C28.5781 86.047 28.5954 86.0052 28.5954 85.9616V85.7525C28.5954 85.7089 28.5781 85.6671 28.5473 85.6363C28.5164 85.6055 28.4747 85.5882 28.4311 85.5882V85.3791C28.4278 85.2561 28.4025 85.1347 28.3564 85.0206C28.4 85.0206 28.4418 85.0033 28.4726 84.9725C28.5034 84.9416 28.5207 84.8999 28.5207 84.8563V84.6472C28.5207 84.6036 28.5034 84.5618 28.4726 84.531C28.4418 84.5002 28.4 84.4829 28.3564 84.4829C28.3128 84.4829 28.271 84.5002 28.2402 84.531C28.2094 84.5618 28.1921 84.6036 28.1921 84.6472V84.7517L28.0128 84.6173C28.035 84.6196 28.0574 84.617 28.0784 84.6096C28.0994 84.6022 28.1185 84.5901 28.1342 84.5744C28.15 84.5586 28.162 84.5395 28.1694 84.5185C28.1769 84.4975 28.1795 84.4751 28.1771 84.453V84.2588C28.1771 84.2152 28.1598 84.1734 28.129 84.1426C28.0982 84.1118 28.0564 84.0945 28.0128 84.0945C27.9919 84.0944 27.9712 84.0987 27.952 84.1071C27.9328 84.1155 27.9157 84.1279 27.9016 84.1434C27.8875 84.1589 27.8768 84.1772 27.8703 84.197C27.8637 84.2169 27.8614 84.238 27.8635 84.2588V84.453C27.8546 84.4873 27.8546 84.5232 27.8635 84.5575C27.7444 84.5431 27.6241 84.5431 27.505 84.5575C27.391 84.542 27.2754 84.542 27.1614 84.5575C27.1697 84.5232 27.1697 84.4873 27.1614 84.453V84.2588C27.1614 84.2152 27.1441 84.1734 27.1133 84.1426C27.0825 84.1118 27.0407 84.0945 26.9971 84.0945C26.9536 84.0945 26.9118 84.1118 26.881 84.1426C26.8501 84.1734 26.8328 84.2152 26.8328 84.2588V84.453C26.8305 84.4751 26.8331 84.4975 26.8405 84.5185C26.848 84.5395 26.86 84.5586 26.8757 84.5744C26.8915 84.5901 26.9106 84.6022 26.9316 84.6096C26.9526 84.617 26.975 84.6196 26.9971 84.6173L26.7133 84.8563V84.7667C26.7133 84.7231 26.696 84.6813 26.6652 84.6505C26.6344 84.6197 26.5926 84.6023 26.549 84.6023C26.5281 84.6022 26.5074 84.6065 26.4882 84.615C26.469 84.6234 26.4518 84.6357 26.4378 84.6512C26.4237 84.6667 26.413 84.685 26.4064 84.7049C26.3999 84.7248 26.3976 84.7458 26.3997 84.7667V84.9758C26.3973 84.996 26.3995 85.0164 26.4061 85.0357C26.4128 85.0549 26.4237 85.0723 26.4381 85.0867C26.4525 85.1011 26.4699 85.112 26.4891 85.1187C26.5084 85.1253 26.5288 85.1275 26.549 85.1251C26.5013 85.2491 26.476 85.3806 26.4743 85.5135V85.7226C26.4308 85.7226 26.389 85.7399 26.3582 85.7707C26.3274 85.8015 26.31 85.8433 26.31 85.8869V86.096C26.31 86.1396 26.3274 86.1814 26.3582 86.2122C26.389 86.243 26.4308 86.2603 26.4743 86.2603V86.6338C26.4308 86.6338 26.389 86.6511 26.3582 86.6819C26.3274 86.7127 26.31 86.7545 26.31 86.7981V86.9922C26.31 87.0358 26.3274 87.0776 26.3582 87.1084C26.389 87.1392 26.4308 87.1565 26.4743 87.1565V87.7839C26.4308 87.7839 26.389 87.8012 26.3582 87.832C26.3274 87.8628 26.31 87.9046 26.31 87.9482V88.1274C26.31 88.171 26.3274 88.2128 26.3582 88.2436C26.389 88.2744 26.4308 88.2917 26.4743 88.2917V91.3986H26.0561C25.9352 91.3994 25.8168 91.3643 25.7158 91.2978C25.6148 91.2314 25.5357 91.1365 25.4885 91.0252C25.4728 90.9463 25.4728 90.8651 25.4885 90.7862V88.3963C25.5321 88.3963 25.5739 88.379 25.6047 88.3482C25.6355 88.3174 25.6528 88.2756 25.6528 88.232V88.0378C25.6528 87.9942 25.6355 87.9525 25.6047 87.9216C25.5739 87.8908 25.5321 87.8735 25.4885 87.8735V87.1416C25.497 87.0972 25.497 87.0516 25.4885 87.0072C25.5295 87.0034 25.5675 86.9845 25.5952 86.9541C25.6228 86.9237 25.6381 86.884 25.6379 86.8429V86.6338C25.6379 86.5902 25.6206 86.5484 25.5898 86.5176C25.5589 86.4868 25.5172 86.4695 25.4736 86.4695C25.43 86.4695 25.3882 86.4868 25.3574 86.5176C25.3266 86.5484 25.3093 86.5902 25.3093 86.6338C25.2241 86.553 25.1128 86.5054 24.9956 86.4993C25.0392 86.4993 25.081 86.482 25.1118 86.4512C25.1426 86.4204 25.1599 86.3786 25.1599 86.335V86.1259C25.1599 86.0823 25.1426 86.0405 25.1118 86.0097C25.081 85.9789 25.0392 85.9616 24.9956 85.9616C24.952 85.9616 24.9102 85.9789 24.8794 86.0097C24.8486 86.0405 24.8313 86.0823 24.8313 86.1259V86.335C24.8313 86.3786 24.8486 86.4204 24.8794 86.4512C24.9102 86.482 24.952 86.4993 24.9956 86.4993C24.875 86.5098 24.7604 86.5567 24.667 86.6338C24.667 86.5902 24.6497 86.5484 24.6189 86.5176C24.5881 86.4868 24.5463 86.4695 24.5027 86.4695C24.4591 86.4695 24.4173 86.4868 24.3865 86.5176C24.3557 86.5484 24.3384 86.5902 24.3384 86.6338V86.8429C24.3384 86.8864 24.3557 86.9282 24.3865 86.9591C24.4173 86.9899 24.4591 87.0072 24.5027 87.0072C24.5027 87.0072 24.5027 87.0072 24.5027 87.0819V87.8586C24.4591 87.8586 24.4173 87.8759 24.3865 87.9067C24.3557 87.9375 24.3384 87.9793 24.3384 88.0229V88.2171C24.3384 88.2606 24.3557 88.3024 24.3865 88.3332C24.4173 88.3641 24.4591 88.3814 24.5027 88.3814V90.7265C24.4978 91.1528 24.6558 91.5649 24.9446 91.8786C25.2333 92.1923 25.6309 92.3839 26.0561 92.4143H26.2652V92.9222C25.7215 92.9679 25.2027 93.1703 24.7715 93.5047C26.4546 93.684 28.152 93.684 29.8351 93.5047C29.4058 93.1672 28.886 92.9645 28.3415 92.9222V89.8452H28.5356C28.7666 89.8577 28.9976 89.8221 29.2141 89.7408C29.4306 89.6595 29.6279 89.5342 29.7935 89.3728C29.9592 89.2113 30.0895 89.0173 30.1764 88.803C30.2632 88.5886 30.3047 88.3586 30.2982 88.1274V86.2155C30.2982 86.2155 30.2982 86.2155 30.2982 86.1259C30.319 86.128 30.3401 86.1257 30.3599 86.1191C30.3798 86.1126 30.3981 86.1019 30.4136 86.0878C30.4291 86.0737 30.4414 86.0565 30.4499 86.0374C30.4583 86.0182 30.4626 85.9975 30.4625 85.9765V85.7674C30.4625 85.7238 30.4452 85.682 30.4144 85.6512C30.3836 85.6204 30.3418 85.6031 30.2982 85.6031Z" fill="#214902"/>
<path d="M27.1916 79.7031L27.5948 80.5246L28.4911 80.6441L27.8488 81.2714L27.9981 82.1676L27.1916 81.7494L26.3999 82.1676L26.5493 81.2714L25.907 80.6441L26.8032 80.5246L27.1916 79.7031Z" fill="#BF0202"/>
<path d="M18.3187 83.2132L18.722 84.0198L19.6183 84.1393L18.976 84.7816L19.1253 85.6629L18.3187 85.2446L17.5271 85.6629L17.6765 84.7816L17.0342 84.1393L17.9304 84.0198L18.3187 83.2132Z" fill="#BF0202"/>
<path d="M15.1523 90.2186L15.5556 91.0252L16.4369 91.1447L15.7946 91.787L15.9439 92.6682L15.1523 92.25L14.3457 92.6682L14.51 91.787L13.8528 91.1447L14.749 91.0252L15.1523 90.2186Z" fill="#BF0202"/>
<path d="M39.0661 90.6816L39.4545 91.4882L40.3507 91.6227L39.7084 92.25L39.8578 93.1313L39.0661 92.7131L38.2595 93.1313L38.4089 92.25L37.7666 91.6227L38.6628 91.4882L39.0661 90.6816Z" fill="#BF0202"/>
<g opacity="0.4">
<path d="M32.6731 5.57144C32.6145 5.54459 32.5509 5.53069 32.4864 5.53069C32.422 5.53069 32.3583 5.54459 32.2997 5.57144C28.8831 5.80299 25.4547 5.80299 22.0381 5.57144L22.2472 5.8403C23.854 6.32916 25.5269 6.56598 27.2062 6.54233L31.2541 6.67676C31.5864 6.71699 31.9235 6.68124 32.24 6.57221C32.3943 6.51078 32.5259 6.40322 32.6168 6.2642C32.7077 6.12518 32.7534 5.96149 32.7478 5.79549C32.7468 5.71486 32.7207 5.63656 32.6731 5.57144Z" fill="#020405"/>
</g>
<path d="M35.8994 83.2132L36.3027 84.0198L37.1839 84.1393L36.5416 84.7816L36.691 85.6629L35.8994 85.2446L35.0928 85.6629L35.2571 84.7816L34.5999 84.1393L35.4961 84.0198L35.8994 83.2132Z" fill="#BF0202"/>
<g opacity="0.15">
<path d="M21.3362 1.31445C21.3065 1.32927 21.3362 1.31445 21.3362 1.31445V1.31445Z" fill="white"/>
<path d="M24.0548 4.89929C24.2191 4.89929 24.3984 4.89929 24.4731 4.72004C24.5099 4.62386 24.5099 4.51749 24.4731 4.42131C24.3536 4.07776 24.0399 3.83877 23.9503 3.48028C23.89 3.19444 23.9379 2.89639 24.0847 2.64382C24.2192 2.38989 24.4133 2.16584 24.5627 1.91192C24.7121 1.65799 24.6971 1.67293 24.5627 1.5833C24.5136 1.57128 24.4624 1.57128 24.4133 1.5833C24.1054 1.55342 23.7952 1.55342 23.4872 1.5833C22.8305 1.58133 22.1807 1.44934 21.5753 1.19495L21.426 1.2995C21.426 2.24053 21.426 3.18155 21.426 4.12257C21.3893 4.23925 21.3893 4.36438 21.426 4.48105C21.5033 4.58856 21.6074 4.67404 21.7279 4.72904C21.8484 4.78405 21.9811 4.80669 22.1131 4.79473C22.7576 4.86831 23.4061 4.90322 24.0548 4.89929Z" fill="white"/>
<path d="M24.9659 7.84185C23.7959 7.87435 22.6254 7.79432 21.4707 7.60286V7.79704C21.4707 8.55882 21.4707 9.29072 21.4707 10.0973C21.4445 10.315 21.5034 10.5344 21.635 10.7097C21.7554 10.8347 21.9122 10.9184 22.0831 10.9487C22.8908 11.1649 23.7322 11.2258 24.5626 11.128L23.9651 10.4558C23.8369 10.3485 23.739 10.2094 23.6813 10.0525C23.661 9.93074 23.6678 9.80599 23.7014 9.6872C23.735 9.5684 23.7944 9.45851 23.8755 9.36541C24.1903 8.89855 24.6032 8.50603 25.0854 8.21527C25.2049 8.21527 25.3393 8.0659 25.3094 7.93147C25.2796 7.79704 25.1003 7.84185 24.9659 7.84185Z" fill="white"/>
</g>
<g opacity="0.1">
<path d="M28.8938 4.39143L27.8184 4.97397H32.4936C32.7774 4.97397 33.1209 4.97397 33.2554 4.67523C33.3225 4.48173 33.3225 4.27125 33.2554 4.07776C33.0045 3.14803 32.9536 2.17566 33.106 1.22482V1.0157C31.509 1.57018 29.8206 1.81356 28.132 1.73267C28.0573 1.73267 27.9528 1.73267 27.9379 1.83723C27.9229 1.94179 27.9379 1.92685 27.9379 1.97166C28.2163 2.23062 28.5552 2.41552 28.9237 2.50939C29.2672 2.65876 29.6407 2.91268 29.6855 3.2861C29.7303 3.65952 29.3419 4.15244 28.8938 4.39143Z" fill="white"/>
<path d="M33.3003 7.46843C32.3299 7.7481 31.3226 7.87904 30.3129 7.85679C30.1636 7.85679 29.9694 7.85679 29.9246 8.02109C29.8798 8.1854 29.9992 8.27502 30.0739 8.39451C30.3279 8.81275 30.0739 9.35047 29.6856 9.70896C29.1458 10.2489 28.4927 10.6622 27.7737 10.9188C27.6691 10.9188 27.5347 11.0085 27.5347 11.128C27.5347 11.2475 27.7438 11.352 27.923 11.352L32.7327 11.2026C32.8566 11.2085 32.9799 11.1828 33.0912 11.128C33.3152 10.9935 33.3451 10.6649 33.3302 10.3961L33.2405 7.6178L33.3003 7.46843Z" fill="white"/>
</g>
<g opacity="0.2">
<path d="M24.8315 13.8913C24.5925 13.1146 23.7113 12.771 22.9346 12.5171C22.8282 12.4795 22.7123 12.4795 22.6059 12.5171C22.5843 12.5305 22.5665 12.5492 22.5541 12.5714C22.5417 12.5936 22.5353 12.6186 22.5353 12.644C22.5353 12.6695 22.5417 12.6945 22.5541 12.7167C22.5665 12.7389 22.5843 12.7576 22.6059 12.771C22.6059 12.771 22.0533 31.3674 21.5753 40.673C21.4738 41.4844 21.5398 42.308 21.7695 43.0928C21.8777 43.4936 22.106 43.8516 22.4238 44.1186C22.7416 44.3857 23.1336 44.549 23.547 44.5865C23.6922 44.5999 23.8382 44.5686 23.9652 44.4969C24.3237 44.3027 24.3685 43.8098 24.3685 43.4065C24.3685 33.9067 23.9801 24.3919 24.9212 14.9369C24.9631 14.5859 24.9326 14.23 24.8315 13.8913Z" fill="white"/>
</g>
<g opacity="0.5">
<path d="M23.4271 14.0556C23.4407 13.8319 23.3656 13.6118 23.218 13.4432C23.0388 13.2938 22.6803 13.4432 22.755 13.6672V13.5925C22.6275 13.8417 22.5658 14.1194 22.5757 14.3991L22.0529 31.3674C21.9158 33.5982 21.9658 35.8366 22.2023 38.0591C22.501 37.9396 22.5608 37.5811 22.5907 37.2674C23.0654 33.3275 23.2849 29.3609 23.2479 25.3926C23.2479 24.4666 23.2479 23.5554 23.1583 22.6293C23.1433 19.8063 23.5466 16.9235 23.4271 14.0556Z" fill="white"/>
</g>
<g opacity="0.5">
<path d="M33.6441 43.3169C33.1164 37.667 32.902 31.9923 33.0018 26.3187C33.0018 24.7504 33.0765 23.1671 33.0018 21.5987C32.9271 18.5217 32.479 15.4298 32.6881 12.3378C32.7325 12.1867 32.7325 12.0259 32.6881 11.8748C32.5388 11.591 32.1355 11.591 31.8218 11.6059C28.4441 11.8549 25.0515 11.8199 21.6797 11.5014V11.6507C24.0845 12.4573 26.7134 12.3229 29.1481 12.8009C29.445 12.8407 29.7273 12.9536 29.9696 13.1295C30.1693 13.316 30.3139 13.5536 30.3879 13.8166C30.7349 14.7863 30.9899 15.7865 31.1497 16.804C31.7121 19.2547 32.0125 21.7582 32.0459 24.2724C32.0459 25.4076 31.8816 26.5278 31.8218 27.663C31.6276 31.7856 32.4492 36.0128 31.3588 40.0009C31.0859 41.2531 30.4645 42.4027 29.5663 43.3169C28.7075 44.0004 27.7374 44.531 26.6985 44.8852C28.6499 44.9798 30.6053 44.9549 32.5537 44.8106C32.8618 44.8175 33.1628 44.7172 33.4051 44.5268C33.5365 44.3577 33.6265 44.1602 33.668 43.9501C33.7095 43.7401 33.7013 43.5232 33.6441 43.3169Z" fill="#740402"/>
</g>
<g opacity="0.5">
<g opacity="0.5">
<path d="M20.3057 51.0392C20.4322 50.7429 20.5926 50.4622 20.7836 50.2028L20.3057 51.0392Z" fill="#020405"/>
</g>
<g opacity="0.5">
<path d="M21.3659 49.5007C21.1437 49.7101 20.9481 49.9458 20.7833 50.2028C20.7833 50.9197 20.0365 51.3977 19.3942 51.6965C18.0798 52.3985 16.7802 53.1901 15.5405 53.9818C15.3015 54.1461 15.0326 54.4 15.1521 54.6539C15.2062 54.7377 15.2775 54.809 15.3612 54.8631C16.0252 55.2007 16.7769 55.3259 17.5144 55.2217C18.2519 55.1175 18.9394 54.7889 19.4838 54.2805C20.5293 53.2418 21.255 51.9251 21.575 50.4866C21.7243 50.1281 21.7243 49.6053 21.3659 49.5007Z" fill="#020405"/>
</g>
</g>
<g opacity="0.2">
<path d="M7.14624 72.5035C7.68191 70.4835 8.48569 68.5444 9.53613 66.7379C10.5733 64.5588 11.9894 62.5813 13.7185 60.8976C15.3615 59.4039 17.4377 58.433 18.7074 56.6406C17.9882 55.9676 17.116 55.4799 16.1661 55.2196C15.2162 54.9594 14.2171 54.9344 13.2554 55.1469C11.2846 55.4074 9.41762 56.1843 7.84375 57.3988C6.26987 58.6133 5.04502 60.2222 4.2933 62.0626C2.79961 65.9462 3.59127 70.2928 4.15887 74.4303C5.65255 85.5284 5.35381 96.8356 6.95206 107.904C7.04951 110.077 7.82227 112.165 9.16271 113.879C11.1792 116.015 14.4802 116.224 17.3929 115.895C15.5235 115.459 13.7609 114.651 12.2098 113.52C9.49132 111.354 8.5503 107.68 7.99764 104.259C6.85276 95.5661 6.42313 86.7936 6.71307 78.0301C6.66339 76.1778 6.80858 74.3254 7.14624 72.5035Z" fill="white"/>
</g>
<g opacity="0.2">
<path d="M21.1718 60.1208C20.171 59.0006 19.4839 57.6413 18.6026 56.4314C17.7852 55.1629 16.5481 54.2219 15.1074 53.7727C14.6572 53.6706 14.1911 53.6604 13.7368 53.7425C13.2826 53.8246 12.8496 53.9974 12.4636 54.2507C10.3262 55.0136 8.39072 56.2535 6.80418 57.8762C5.21764 59.499 4.02174 61.462 3.30729 63.6161C3.03547 64.2496 2.9984 64.9592 3.20274 65.6176C3.59109 66.5287 4.69642 66.8574 5.65238 67.1113C12.0857 68.5034 18.6796 69.006 25.2495 68.605C27.5963 68.5105 29.9232 68.1344 32.1802 67.4847C29.0435 64.2285 24.0994 63.4219 21.1718 60.1208Z" fill="#51AA02"/>
</g>
<g opacity="0.5">
<path d="M51.7924 63.0036C50.7767 59.135 47.0425 56.6256 43.3382 55.1319C41.4588 54.5522 39.6911 53.6582 38.1103 52.4881C36.8108 51.338 35.8698 49.68 34.2715 49.0526L26.355 50.382L32.3297 51.8757C32.6784 51.9181 33.0011 52.082 33.2409 52.3387C33.7637 53.0408 32.8077 53.8324 31.9862 54.1909C30.4513 54.7549 28.8496 55.1164 27.2213 55.2664C27.2213 55.8041 27.9234 56.0281 28.476 56.0729L35.0632 56.6704C37.8414 56.9243 40.8885 57.3127 42.7706 59.3591C43.9373 60.801 44.6449 62.5596 44.802 64.4077C44.9222 64.868 44.9222 65.3515 44.802 65.8118C44.578 66.2845 44.2126 66.676 43.7564 66.932C40.5898 69.0232 36.4374 68.844 32.9272 70.3376C36.1237 72.1898 40.9184 70.5169 43.383 73.325C44.334 74.6274 44.856 76.1935 44.8767 77.8061C45.4835 83.0205 45.6833 88.2742 45.4742 93.5196C45.4902 97.9226 44.6638 102.288 43.0394 106.38C42.204 108.414 40.9343 110.24 39.3192 111.731C37.704 113.223 35.7824 114.343 33.689 115.014C31.7024 115.537 29.5365 115.566 27.7889 116.657C29.385 116.865 31.0061 116.774 32.5687 116.388C37.3634 115.716 42.3972 116.567 46.9977 115.014C47.7572 114.809 48.4384 114.383 48.9544 113.789C49.2982 113.26 49.5084 112.655 49.5669 112.026C49.7823 110.541 49.912 109.045 49.9552 107.545C50.6523 94.3611 51.3443 81.1669 52.0314 67.9627C52.2133 66.3074 52.1326 64.6338 51.7924 63.0036Z" fill="#214902"/>
</g>
<g opacity="0.5">
<g opacity="0.5">
<path d="M32.0312 50.2028L34.7199 52.0549C34.8801 52.1445 35.0101 52.2797 35.0933 52.4433C35.2277 52.8167 34.8394 53.1603 34.4958 53.3544C34.1523 53.5486 33.734 53.8324 33.7789 54.2208C33.8237 54.6091 34.5556 54.7734 35.0634 54.6988L40.4407 53.7876C39.9416 53.2467 39.2491 52.9246 38.5138 52.8914C37.4146 52.6858 36.3862 52.2024 35.5265 51.4873C35.1132 51.1248 34.7771 50.6826 34.5385 50.1873C34.2998 49.692 34.1634 49.1537 34.1373 48.6045C33.3745 48.5696 32.6163 48.7398 31.9416 49.0974C31.8491 49.1368 31.7664 49.1961 31.6993 49.2709C31.6322 49.3457 31.5824 49.4344 31.5533 49.5306C31.5085 49.8144 31.7624 50.0385 32.0312 50.2028Z" fill="#020405"/>
</g>
<g opacity="0.5">
<path d="M42.0387 112.46C39.9527 113.445 38.0084 114.706 36.2581 116.209C36.1527 116.29 36.067 116.394 36.0075 116.513C35.948 116.632 35.9162 116.763 35.9146 116.896C35.9146 117.269 36.4373 117.404 36.8108 117.434C38.756 117.415 40.6696 116.939 42.3971 116.044C43.7717 115.586 45.0233 114.82 46.0567 113.804C46.8212 112.808 47.3567 111.655 47.625 110.428C49.0815 104.273 49.8628 97.9771 49.9552 91.6525L50.717 76.9397C50.926 73.6569 50.926 70.3642 50.717 67.0814C50.5676 65.2292 50.4929 63.3024 50.4929 63.3024C50.111 61.6503 49.2493 60.1478 48.0163 58.9838C46.7832 57.8198 45.2336 57.0462 43.5622 56.76C45.0888 57.8895 46.4036 59.2802 47.4458 60.8677C47.9548 61.6686 48.2472 62.5879 48.2943 63.5357C48.3414 64.4835 48.1417 65.4274 47.7147 66.2748C46.684 67.9776 44.4883 68.7842 43.622 70.5916C44.802 71.1592 46.5048 70.5019 47.2964 71.5177C47.5689 71.9664 47.6991 72.4872 47.6699 73.0113C47.879 82.6904 45.9969 92.4293 46.923 102.019C47.2658 103.866 47.2098 105.766 46.7587 107.59C45.8032 109.715 44.133 111.438 42.0387 112.46Z" fill="#020405"/>
</g>
<g opacity="0.5">
<path d="M51.7627 116.821C51.7375 116.749 51.6962 116.683 51.6419 116.628C51.5876 116.574 51.5216 116.533 51.449 116.507C51.3596 116.468 51.2629 116.448 51.1652 116.448C51.0675 116.448 50.9708 116.468 50.8814 116.507L51.5685 116.209C48.0148 117.6 44.2845 118.49 40.4853 118.853C40.2519 118.841 40.0188 118.881 39.8022 118.969C39.5855 119.056 39.3905 119.19 39.2307 119.36C39.1257 119.583 39.0358 119.813 38.9618 120.048C38.7968 120.31 38.5786 120.534 38.3213 120.707C38.064 120.879 37.7733 120.995 37.4681 121.048C34.4585 122.08 31.3123 122.659 28.1326 122.766C34.8525 122.686 41.5438 121.875 48.0882 120.346C49.0296 120.191 49.9264 119.835 50.7171 119.301C51.1217 119.042 51.4383 118.666 51.6249 118.223C51.8116 117.781 51.8596 117.292 51.7627 116.821Z" fill="#020405"/>
</g>
</g>
<path d="M13.2255 117.867C11.5526 117.613 9.86472 117.359 8.19179 117.03C6.51887 116.702 4.77125 116.268 3.08339 115.776L2.62035 115.417C2.53862 116.624 2.82509 117.827 3.44187 118.867C3.84928 119.404 4.36377 119.849 4.95264 120.176C5.54151 120.502 6.19188 120.703 6.86241 120.764C8.20497 120.881 9.55726 120.811 10.8804 120.555L18.6924 119.39C19.0359 119.39 19.4841 119.181 19.4691 118.838L13.2255 117.867Z" fill="#376B0F"/>
<g opacity="0.7">
<path d="M15.6003 54.8332C15.1601 54.57 14.6568 54.431 14.144 54.431C13.6311 54.431 13.1278 54.57 12.6876 54.8332C11.4017 55.1956 10.2204 55.8587 9.24128 56.7677C8.26215 57.6767 7.51326 58.8056 7.05643 60.0611C6.89213 60.5391 6.83238 61.1365 7.22074 61.4353C7.3777 61.5472 7.56568 61.6074 7.75846 61.6074C7.95125 61.6074 8.13923 61.5472 8.29619 61.4353C8.59509 61.1952 8.85246 60.9075 9.05797 60.5839C10.5327 58.8937 12.5034 57.7123 14.6892 57.2082C15.436 56.9841 16.377 56.5808 16.3173 55.7891C16.2818 55.5845 16.1983 55.3912 16.0737 55.225C15.9491 55.0588 15.7868 54.9246 15.6003 54.8332Z" fill="white"/>
</g>
<g opacity="0.5">
<path d="M5.53305 69.6655C5.3538 67.4548 4.57709 67.2308 4.65177 68.4556C4.98038 78.5081 5.30899 88.5755 6.42926 98.5832C6.73603 88.9347 6.4367 79.2765 5.53305 69.6655Z" fill="white"/>
</g>
</svg>
