<svg width="33" height="125" viewBox="0 0 33 125" fill="none" xmlns="http://www.w3.org/2000/svg">
<path d="M25.9824 57.2014C22.7923 51.6192 21.1133 45.3014 21.1113 38.8719V8.50366C21.1113 8.79593 18.954 9.01861 16.2679 9.01861C13.5818 9.01861 11.4385 8.79593 11.4385 8.50366V36.826C11.435 43.8738 9.7961 50.8247 6.65085 57.1318L6.55343 57.2849C1.66578 65.9719 -0.569603 75.9005 0.123489 85.8439L2.60082 120.972C2.60082 122.837 8.76633 124.34 16.3514 124.34C23.9365 124.34 30.116 122.837 30.116 120.972L32.5655 85.997C33.2718 75.9583 30.9806 65.936 25.9824 57.2014Z" fill="#030506"/>
<path d="M16.3515 1.21084C13.2061 1.21084 10.6592 0.946404 10.6592 0.612381V11.8996C10.6592 12.2336 13.2061 12.498 16.3515 12.498C19.4969 12.498 22.0438 12.2336 22.0438 11.8996V0.612381C22.0438 0.946404 19.4829 1.21084 16.3515 1.21084Z" fill="#BC1B41"/>
<path d="M16.3515 0C13.2061 0 10.6592 0.278352 10.6592 0.612375C10.6592 0.946398 13.2061 1.21083 16.3515 1.21083C19.4969 1.21083 22.0438 0.946398 22.0438 0.612375C22.0438 0.278352 19.4829 0 16.3515 0Z" fill="#E16470"/>
<path d="M28.1675 61.5437C27.4995 60.0684 26.7758 58.6071 25.9825 57.2014C22.7923 51.6192 21.1133 45.3014 21.1113 38.8719V12.2197C19.5334 12.4266 17.9427 12.5196 16.3515 12.498C14.7083 12.5255 13.0656 12.4231 11.4385 12.1918V36.826C11.435 43.8738 9.79614 50.8247 6.65089 57.1318L6.55346 57.2849C5.78799 58.6767 5.1617 60.0684 4.46582 61.4602C8.29963 62.7073 12.3224 63.2726 16.3515 63.1303C20.3521 63.2852 24.3495 62.7485 28.1675 61.5437Z" fill="#A50835"/>
<path d="M21.0555 78.4675C20.7598 77.5099 20.1651 76.6722 19.3586 76.0771C18.5521 75.4821 17.5763 75.161 16.574 75.161C15.5718 75.161 14.5959 75.4821 13.7894 76.0771C12.9829 76.6722 12.3882 77.5099 12.0925 78.4675L11.8838 79.0799H7.80591V110.353H25.3282V79.0799H21.2503L21.0555 78.4675Z" fill="#E5235B"/>
<path d="M22.5168 77.3124C22.021 76.1465 21.1933 75.1521 20.1366 74.4532C19.0799 73.7543 17.8409 73.3816 16.574 73.3816C15.307 73.3816 14.0681 73.7543 13.0114 74.4532C11.9547 75.1521 11.1269 76.1465 10.6311 77.3124H6.03833V112.106H27.1096V77.3124H22.5168ZM25.3003 110.353H7.80587V79.0799H11.8837L12.0925 78.4675C12.3882 77.5099 12.9829 76.6722 13.7893 76.0771C14.5958 75.4821 15.5717 75.161 16.574 75.161C17.5762 75.161 18.5521 75.4821 19.3586 76.0771C20.1651 76.6722 20.7598 77.5099 21.0554 78.4675L21.2503 79.0799H25.3282L25.3003 110.353Z" fill="#A50835"/>
<path d="M28.0146 88.6134H4.8418V94.9877H28.0146V88.6134Z" fill="white"/>
<path d="M3.95068 87.681V95.8228H28.905V87.681H3.95068ZM28.0142 94.946H4.84141V88.6135H28.0142V94.946Z" fill="#FCEE21"/>
<path d="M8.08441 91.1604V91.0212C8.09194 90.9751 8.09194 90.9281 8.08441 90.882C8.10033 90.837 8.10033 90.7879 8.08441 90.7429H7.93131V90.6315H8.72462V90.7429H8.59936L8.51585 90.8403C8.47832 90.9074 8.44576 90.9772 8.41843 91.0491L7.66688 93.081H7.24935L6.66481 91.0212V90.8403C6.67118 90.8081 6.67118 90.775 6.66481 90.7429C6.62366 90.7328 6.5807 90.7328 6.53955 90.7429V90.6315H7.54162V90.7429C7.49606 90.7304 7.448 90.7304 7.40244 90.7429C7.38847 90.7787 7.38847 90.8184 7.40244 90.8542V90.9795V91.1604L7.7643 92.4687L8.08441 91.1604Z" fill="#030506"/>
<path d="M11.9952 93.0532H11.0488V92.9279H11.1463C11.1545 92.896 11.1545 92.8625 11.1463 92.8305V90.882C11.1463 90.882 11.1463 90.882 11.1463 90.7846H11.0767H10.9792V90.6733H12.1066C12.2267 90.6575 12.3483 90.6575 12.4684 90.6733C12.559 90.6927 12.6475 90.7207 12.7329 90.7568C12.7903 90.7956 12.8419 90.8425 12.886 90.896C12.9346 90.946 12.9684 91.0087 12.9834 91.0769C13.0003 91.1548 13.0003 91.2355 12.9834 91.3135C13.0044 91.4145 13.0044 91.5187 12.9834 91.6197C12.9438 91.7007 12.8867 91.772 12.8164 91.8284C12.7207 91.8514 12.6224 91.8608 12.5241 91.8563C12.611 91.8859 12.688 91.9389 12.7468 92.0094C12.8118 92.0783 12.8636 92.1585 12.8999 92.246L13.0112 92.4965C13.0547 92.5844 13.1059 92.6682 13.1643 92.747C13.2129 92.7977 13.2762 92.8318 13.3452 92.8444V92.9697H12.6494C12.5579 92.8331 12.4787 92.6888 12.4128 92.5382L12.2736 92.2181L12.1622 92.0233C12.1367 91.9882 12.1034 91.9596 12.0648 91.9398H11.8004V92.5243C11.7918 92.589 11.7918 92.6545 11.8004 92.7192C11.8004 92.7192 11.8004 92.7192 11.8004 92.8027C11.8459 92.8151 11.894 92.8151 11.9396 92.8027L11.9952 93.0532ZM11.8004 90.7846V91.8563H11.9813C12.0593 91.8732 12.14 91.8732 12.2179 91.8563C12.2766 91.831 12.3289 91.7929 12.371 91.7449C12.3812 91.6897 12.3812 91.6331 12.371 91.5779C12.3796 91.5086 12.3796 91.4385 12.371 91.3692C12.3788 91.2367 12.3338 91.1066 12.2458 91.0073C12.2028 90.963 12.1505 90.9289 12.0928 90.9072C12.035 90.8855 11.9732 90.877 11.9117 90.882L11.8004 90.7846Z" fill="#030506"/>
<path d="M17.7292 93.081C17.5816 93.0895 17.4339 93.0652 17.2967 93.0099C17.1595 92.9546 17.0363 92.8695 16.9359 92.7609C16.7551 92.4957 16.6715 92.1761 16.6993 91.8563C16.6942 91.6183 16.7368 91.3817 16.8246 91.1604C16.9022 90.9776 17.0332 90.8224 17.2004 90.7151C17.3887 90.6156 17.5999 90.5676 17.8127 90.5759C17.9616 90.5635 18.1113 90.5846 18.251 90.6376C18.3907 90.6906 18.5167 90.7741 18.62 90.8821C18.8187 91.1456 18.9174 91.4711 18.8983 91.8006C18.903 92.0033 18.8748 92.2054 18.8148 92.3991C18.7666 92.5494 18.6858 92.6872 18.5782 92.8027C18.4827 92.9049 18.3631 92.9815 18.2303 93.0254C18.0688 93.0777 17.8983 93.0966 17.7292 93.081ZM17.2421 91.8563C17.2241 92.1326 17.2718 92.4092 17.3813 92.6635C17.4121 92.7417 17.4658 92.8088 17.5353 92.8559C17.6048 92.9031 17.687 92.9282 17.771 92.928C17.852 92.9566 17.9405 92.9566 18.0215 92.928C18.0834 92.8671 18.1351 92.7966 18.1746 92.7192C18.2205 92.618 18.2487 92.5098 18.2581 92.3991C18.2724 92.2649 18.2724 92.1296 18.2581 91.9955C18.2827 91.7921 18.2827 91.5865 18.2581 91.3831C18.2553 91.2029 18.1969 91.0279 18.0911 90.8821C18.0518 90.8407 18.0042 90.8082 17.9514 90.7866C17.8986 90.765 17.8419 90.7549 17.7849 90.7568C17.7025 90.7554 17.6215 90.7785 17.5521 90.8231C17.4828 90.8676 17.4282 90.9318 17.3952 91.0073C17.278 91.2743 17.2256 91.5652 17.2421 91.8563Z" fill="#030506"/>
<path d="M20.8749 91.0212C20.8843 90.9613 20.8843 90.9002 20.8749 90.8403C20.8845 90.8133 20.8845 90.7838 20.8749 90.7568H20.7357V90.6454H21.529V90.7568H21.4316C21.4234 90.7887 21.4234 90.8223 21.4316 90.8542V92.1346C21.4486 92.2593 21.4486 92.3857 21.4316 92.5104C21.4118 92.6006 21.374 92.6858 21.3203 92.7609C21.2688 92.8307 21.2022 92.8878 21.1254 92.9279C21.0465 92.9711 20.9623 93.0038 20.8749 93.0254H20.5548C20.412 93.0495 20.2662 93.0495 20.1234 93.0254C20.012 92.9988 19.9105 92.9408 19.8311 92.8584C19.7599 92.7863 19.7032 92.7012 19.6641 92.6078C19.6466 92.4739 19.6466 92.3382 19.6641 92.2042V90.8125C19.6723 90.7805 19.6723 90.747 19.6641 90.715H19.5527V90.6037H20.513V90.715H20.4017C20.3999 90.7475 20.3999 90.78 20.4017 90.8125V92.2042C20.3942 92.2876 20.3942 92.3714 20.4017 92.4547C20.4143 92.5274 20.4378 92.5978 20.4713 92.6635C20.4998 92.7217 20.5496 92.7666 20.6105 92.7888C20.6791 92.8048 20.7506 92.8048 20.8192 92.7888C20.9089 92.823 21.008 92.823 21.0976 92.7888C21.1652 92.7384 21.2102 92.6634 21.2228 92.58C21.2411 92.4507 21.2411 92.3196 21.2228 92.1903L20.8749 91.0212Z" fill="#030506"/>
<path d="M22.2664 93.0532V92.9279H22.3917C22.4146 92.9328 22.4383 92.9328 22.4613 92.9279C22.4709 92.8962 22.4709 92.8623 22.4613 92.8305V90.8821H22.3221C22.267 90.8704 22.2101 90.8704 22.1551 90.8821C22.1338 90.8881 22.114 90.8987 22.0972 90.9131C22.0804 90.9275 22.0669 90.9454 22.0577 90.9656C22.0577 90.9656 22.0577 91.0491 21.9741 91.1047C21.9802 91.1649 21.9802 91.2255 21.9741 91.2857H21.7375V90.6454H23.8669V91.2857H23.6164C23.6218 91.2208 23.6218 91.1556 23.6164 91.0908V90.9934H23.5468H23.2963V92.9419C23.2855 92.9686 23.2855 92.9986 23.2963 93.0254H23.3937V93.1506L22.2664 93.0532Z" fill="#030506"/>
<path d="M17.3953 79.2469L16.5463 78.5928L15.6556 79.2052L16.0174 78.1892L15.1685 77.5351L16.2401 77.5629L16.602 76.5469L16.9082 77.5768L17.9798 77.6046L17.0891 78.217L17.3953 79.2469Z" fill="#030506"/>
<path d="M14.5004 80.082L13.9298 79.7897L13.4566 80.2351L13.5679 79.5949L12.9834 79.3026L13.6236 79.2052L13.7349 78.565L14.0272 79.1356L14.6674 79.0382L14.2081 79.4974L14.5004 80.082Z" fill="#030506"/>
<path d="M20.0119 80.082L19.4413 79.7897L18.982 80.2351L19.0794 79.5949L18.5088 79.3026L19.149 79.2052L19.2464 78.565L19.5387 79.1356L20.1928 79.0382L19.7196 79.4974L20.0119 80.082Z" fill="#030506"/>
<path d="M13.916 102.893H14.4727C14.8207 102.893 15.0851 103.004 15.0851 103.31C15.0906 103.4 15.0642 103.488 15.0107 103.559C14.9571 103.63 14.8799 103.681 14.7928 103.7C14.8458 103.702 14.898 103.714 14.9463 103.736C14.9945 103.758 15.038 103.789 15.0742 103.828C15.1104 103.867 15.1386 103.912 15.1572 103.962C15.1758 104.012 15.1844 104.065 15.1825 104.118C15.1825 104.466 14.9042 104.619 14.5145 104.619H13.916V102.893ZM14.4449 103.603C14.6815 103.603 14.7928 103.519 14.7928 103.352C14.7928 103.185 14.6815 103.13 14.4449 103.13H14.2222V103.603H14.4449ZM14.4449 104.382C14.6954 104.382 14.8346 104.285 14.8346 104.09C14.8346 103.895 14.6954 103.825 14.4449 103.825H14.1804V104.382H14.4449Z" fill="#A50835"/>
<path d="M15.4885 102.893H16.5323V103.143H15.7947V103.589H16.4071V103.853H15.7947V104.382H16.5463V104.633H15.4885V102.893Z" fill="#A50835"/>
<path d="M16.9641 104.187C17.0855 104.31 17.2506 104.38 17.4234 104.382C17.6183 104.382 17.7157 104.299 17.7157 104.159C17.7157 104.02 17.6043 103.979 17.4512 103.909L17.2146 103.811C17.1164 103.78 17.0303 103.719 16.9681 103.637C16.9058 103.555 16.8704 103.455 16.8667 103.352C16.8702 103.281 16.8879 103.212 16.9187 103.148C16.9495 103.085 16.9928 103.028 17.046 102.981C17.0992 102.934 17.1613 102.899 17.2285 102.876C17.2957 102.854 17.3667 102.846 17.4373 102.851C17.6392 102.857 17.8321 102.936 17.9801 103.074L17.827 103.269C17.7166 103.18 17.5792 103.13 17.4373 103.13C17.2842 103.13 17.1729 103.199 17.1729 103.324C17.1729 103.45 17.3121 103.519 17.4512 103.575L17.6878 103.672C17.7894 103.703 17.8784 103.765 17.9412 103.851C18.004 103.936 18.0372 104.04 18.0358 104.146C18.0307 104.221 18.0102 104.295 17.9755 104.363C17.9407 104.43 17.8926 104.49 17.8339 104.538C17.7752 104.587 17.7073 104.622 17.6343 104.643C17.5613 104.664 17.4848 104.67 17.4095 104.66C17.174 104.659 16.9488 104.564 16.7832 104.396L16.9641 104.187Z" fill="#A50835"/>
<path d="M18.648 103.143H18.0913V102.893H19.4831V103.143H18.982V104.619H18.648V103.143Z" fill="#A50835"/>
<path d="M13.4428 108.223C13.3508 108.241 13.2563 108.241 13.1644 108.223C13.0181 108.232 12.8726 108.195 12.748 108.118C12.6234 108.041 12.5258 107.927 12.4685 107.792C12.2718 107.748 12.0985 107.633 11.9826 107.468C11.8667 107.303 11.8166 107.101 11.8422 106.901C11.8263 106.791 11.8342 106.679 11.8653 106.572C11.8964 106.465 11.95 106.366 12.0225 106.282C12.095 106.197 12.1848 106.13 12.2857 106.083C12.3866 106.036 12.4964 106.011 12.6077 106.01C13.067 106.01 13.3732 106.344 13.3732 106.901C13.3947 107.095 13.3481 107.289 13.2414 107.452C13.1347 107.615 12.9745 107.735 12.7886 107.792C12.8327 107.857 12.8932 107.91 12.9641 107.944C13.035 107.978 13.1137 107.993 13.1922 107.987C13.2562 108.003 13.3231 108.003 13.3871 107.987L13.4428 108.223ZM12.6077 107.583C12.886 107.583 13.0531 107.333 13.0531 106.943C13.0531 106.553 12.886 106.317 12.6077 106.317C12.3293 106.317 12.1623 106.553 12.1623 106.943C12.1623 107.333 12.3293 107.583 12.6077 107.583Z" fill="#A50835"/>
<path d="M13.7209 106.08H14.0271V107.082C14.0271 107.458 14.1663 107.583 14.3751 107.583C14.5838 107.583 14.7369 107.458 14.7369 107.082V106.08H15.0292V107.054C15.0292 107.625 14.7787 107.848 14.3751 107.848C13.9715 107.848 13.7209 107.625 13.7209 107.054V106.08Z" fill="#A50835"/>
<path d="M16.2262 107.347H15.6417L15.5164 107.82H15.1963L15.7669 106.08H16.1288L16.6855 107.82H16.3654L16.2262 107.347ZM16.1566 107.166V106.957L15.9896 106.372C15.9896 106.567 15.8922 106.762 15.8365 106.957L15.7669 107.166H16.1566Z" fill="#A50835"/>
<path d="M16.8943 106.08H17.2005V107.555H17.9242V107.82H16.8943V106.08Z" fill="#A50835"/>
<path d="M18.2302 106.08H18.5364V107.82H18.2302V106.08Z" fill="#A50835"/>
<path d="M19.316 106.345H18.8149V106.08H20.1232V106.345H19.6222V107.82H19.316V106.345Z" fill="#A50835"/>
<path d="M20.6661 107.166L20.1372 106.066H20.4712L20.6522 106.512C20.7115 106.638 20.7627 106.768 20.8053 106.901L20.9723 106.512L21.1532 106.066H21.4733L20.9583 107.166V107.806H20.6522L20.6661 107.166Z" fill="#A50835"/>
<path d="M11.1325 82.1139C11.1326 82.1815 11.1192 82.2483 11.0929 82.3105C11.0666 82.3727 11.0279 82.4289 10.9794 82.4758L10.7984 82.6428L10.6314 82.7541H10.4783L10.6453 82.6428C10.7057 82.589 10.7532 82.5225 10.7845 82.448C10.7912 82.3832 10.7912 82.3179 10.7845 82.2531C10.788 82.1789 10.7762 82.1049 10.7498 82.0354C10.7235 81.966 10.6832 81.9027 10.6314 81.8495C10.5927 81.7932 10.5407 81.7472 10.48 81.7156C10.4193 81.6841 10.3519 81.6679 10.2835 81.6686V83.0603C10.2835 83.1856 10.2835 83.2413 10.4087 83.2413H10.1721H10.0886H9.97729C9.99192 83.1678 9.99192 83.0921 9.97729 83.0186C9.97729 82.9212 9.97729 82.8237 9.97729 82.7402V82.0165C9.97729 81.933 9.97729 81.8356 9.97729 81.7382C9.99701 81.6511 9.99701 81.5608 9.97729 81.4737H10.2417H10.6453C10.7728 81.471 10.8983 81.5048 11.0072 81.5711C11.0515 81.5982 11.0899 81.6338 11.1203 81.6758C11.1507 81.7179 11.1723 81.7656 11.184 81.8162C11.1956 81.8668 11.1971 81.9191 11.1882 81.9703C11.1794 82.0214 11.1604 82.0702 11.1325 82.1139Z" fill="#FCEE21"/>
<path d="M13.0392 83.5057H12.8444H12.7609C12.7236 83.5222 12.6833 83.5307 12.6426 83.5307C12.6018 83.5307 12.5616 83.5222 12.5243 83.5057C12.4529 83.4257 12.3921 83.3368 12.3434 83.2413L12.2181 83.0464C12.1785 82.9773 12.1266 82.916 12.065 82.8655C12.065 82.8655 11.9537 82.8655 11.8423 82.8655C11.731 82.8655 11.8423 82.8655 11.8423 82.8655V83.3387C11.8423 83.5196 11.8423 83.6031 11.9815 83.6031C11.9815 83.6031 12.1207 83.6031 11.9815 83.6031H11.4666C11.4819 83.5063 11.4819 83.4077 11.4666 83.3109V82.114C11.4796 82.031 11.4796 81.9464 11.4666 81.8634H12.1207C12.2507 81.8616 12.3794 81.8902 12.4965 81.9469C12.5594 81.9795 12.6115 82.0298 12.6461 82.0916C12.6808 82.1535 12.6965 82.2242 12.6913 82.2949C12.6919 82.3983 12.6629 82.4997 12.6078 82.5871C12.5703 82.6616 12.5182 82.7279 12.4547 82.782L12.3573 82.8794V82.9768L12.4965 83.1995C12.5505 83.2736 12.5972 83.3529 12.6356 83.4361L12.8026 83.631H12.8722L13.0392 83.5057ZM12.4408 82.3366C12.4368 82.1953 12.3881 82.0588 12.3016 81.9469C12.2646 81.8826 12.2121 81.8286 12.1489 81.7897C12.0858 81.7508 12.0138 81.7283 11.9398 81.7243H11.8423V82.7263H12.0233C12.1368 82.76 12.2577 82.76 12.3712 82.7263C12.4042 82.678 12.4273 82.6236 12.4392 82.5662C12.4512 82.5089 12.4517 82.4498 12.4408 82.3923V82.3366Z" fill="#FCEE21"/>
<path d="M14.7094 83.5057C14.6657 83.5464 14.6282 83.5933 14.598 83.6449C14.5775 83.6971 14.5543 83.7482 14.5285 83.798C14.5312 83.7656 14.5312 83.733 14.5285 83.7006C14.5285 83.7006 14.4032 83.631 14.2223 83.631H13.4707C13.478 83.5802 13.478 83.5287 13.4707 83.4779C13.4707 83.4083 13.4707 83.3387 13.4707 83.283V82.3784C13.476 82.2903 13.476 82.202 13.4707 82.114C13.4812 82.0308 13.4812 81.9466 13.4707 81.8634H13.3872H13.3037H14.5424C14.509 81.9162 14.4811 81.9721 14.4589 82.0304C14.4589 82.0304 14.4589 82.0304 14.3754 81.9469H14.2779C14.1819 81.9239 14.0817 81.9239 13.9857 81.9469H13.8187C13.8187 81.9469 13.8187 81.9469 13.8187 82.0304V82.1279C13.8187 82.2253 13.8187 82.3645 13.8187 82.5593V82.7124H14.0553C14.2166 82.7122 14.3768 82.684 14.5285 82.6289V82.7263V82.8516C14.3959 82.8186 14.2574 82.8186 14.1248 82.8516H13.7769V83.5475C13.7769 83.5475 13.7769 83.5475 13.7769 83.631C13.8969 83.6489 14.0188 83.6489 14.1388 83.631H14.2501H14.4867C14.5513 83.6403 14.6169 83.6403 14.6816 83.631L14.7094 83.5057Z" fill="#FCEE21"/>
<path d="M17.3675 83.5753H16.9778C16.8943 83.5753 16.8664 83.5753 16.8664 83.5753V82.615V82.1C16.7412 82.3645 16.602 82.6428 16.4907 82.9212C16.3793 83.1995 16.1566 83.5614 16.101 83.5614C15.9746 83.3707 15.8629 83.1706 15.7669 82.9629C15.4608 82.4712 15.3077 82.1882 15.3077 82.114C15.2995 82.2577 15.2995 82.4017 15.3077 82.5454V83.116V83.2274C15.2818 83.2692 15.2681 83.3174 15.2681 83.3666C15.2681 83.4157 15.2818 83.4639 15.3077 83.5057C15.3307 83.5411 15.3615 83.5707 15.3976 83.5924C15.4338 83.6141 15.4744 83.6273 15.5164 83.631H15.3077C15.2201 83.6164 15.1308 83.6164 15.0432 83.631C15.0432 83.631 15.0432 83.5475 15.0432 83.4918V83.3248C15.0758 83.1592 15.099 82.9919 15.1128 82.8238C15.1262 82.5966 15.1262 82.3689 15.1128 82.1418C15.1128 81.947 15.0432 81.8217 14.9041 81.7799H15.3494C15.4535 82.0471 15.5743 82.3074 15.7113 82.5593C15.826 82.7905 15.9562 83.0137 16.101 83.2274C16.1726 83.1079 16.2331 82.9821 16.2819 82.8516C16.3515 82.6846 16.435 82.5037 16.5046 82.3227C16.5874 82.155 16.6482 81.9772 16.6855 81.7939H17.0474C17.0474 81.7939 17.0474 81.7939 17.0474 81.8774V82.615C17.0474 82.8238 17.0474 82.9769 17.0474 83.0604C17.0362 83.204 17.0362 83.3482 17.0474 83.4918C17.0474 83.4918 17.0474 83.4918 17.1309 83.5614L17.3675 83.5753Z" fill="#FCEE21"/>
<path d="M18.2166 83.5753H17.7991V83.1299V82.114V81.933C17.798 81.9028 17.7899 81.8732 17.7754 81.8466C17.7609 81.8201 17.7404 81.7972 17.7156 81.7799H18.1192C18.1031 82.0581 18.1031 82.3369 18.1192 82.615V83.5057C18.1099 83.5046 18.1006 83.5046 18.0914 83.5057L18.2166 83.5753Z" fill="#FCEE21"/>
<path d="M20.5268 83.5057H20.2902H20.0815C20.0706 83.4789 20.0706 83.449 20.0815 83.4222V83.3109L19.8309 83.4361H19.6361H19.4134H19.3299C19.2554 83.4461 19.1796 83.4401 19.1076 83.4185C19.0356 83.3969 18.9691 83.3602 18.9124 83.3109C18.8275 83.1683 18.7886 83.0031 18.801 82.8377V82.114C18.8048 82.063 18.8048 82.0118 18.801 81.9609C18.7976 81.9386 18.7896 81.9172 18.7776 81.8981C18.7657 81.8789 18.75 81.8624 18.7314 81.8495H19.1072V82.0165C19.1155 82.0812 19.1155 82.1467 19.1072 82.2114V82.949C19.0922 83.0272 19.0922 83.1075 19.1072 83.1856C19.1072 83.297 19.1072 83.3526 19.1768 83.3665C19.2264 83.4521 19.3056 83.5165 19.3995 83.5475C19.4775 83.5636 19.558 83.5636 19.6361 83.5475C19.7364 83.574 19.8419 83.574 19.9423 83.5475C19.9925 83.5122 20.0346 83.4667 20.0658 83.4139C20.097 83.3611 20.1165 83.3022 20.1232 83.2413V82.114C20.1232 82.114 20.1232 82.114 20.1232 81.9609C20.1252 81.9433 20.1234 81.9255 20.118 81.9086C20.1126 81.8918 20.1037 81.8763 20.0918 81.8631C20.08 81.85 20.0655 81.8395 20.0493 81.8324C20.0331 81.8252 20.0156 81.8216 19.9979 81.8217C20.0571 81.805 20.1197 81.805 20.1789 81.8217H20.4016V82.3366V82.7681C20.4016 82.949 20.4016 83.0882 20.4016 83.1856C20.3963 83.2551 20.3963 83.3249 20.4016 83.3944C20.3974 83.4407 20.3974 83.4873 20.4016 83.5336C20.4286 83.5431 20.458 83.5431 20.4851 83.5336L20.5268 83.5057Z" fill="#FCEE21"/>
<path d="M23.3104 83.5753H22.9207H22.8093V82.615V82.1001L22.4335 82.9212C22.2248 83.3526 22.0995 83.5614 22.0578 83.5614C21.9314 83.3707 21.8197 83.1706 21.7237 82.9629L21.2645 82.1279C21.2563 82.2716 21.2563 82.4156 21.2645 82.5593V83.13V83.2413C21.2653 83.323 21.2948 83.4019 21.348 83.464C21.3695 83.4976 21.3981 83.5262 21.4317 83.5478C21.4654 83.5695 21.5032 83.5836 21.5428 83.5892H21.3201C21.2327 83.5733 21.1431 83.5733 21.0557 83.5892C21.0532 83.5429 21.0532 83.4964 21.0557 83.4501C21.0617 83.3945 21.0617 83.3386 21.0557 83.283C21.0557 83.283 21.0557 83.0604 21.0557 82.782C21.0557 82.5037 21.0557 82.2253 21.0557 82.1001C21.0557 81.9748 21.0557 81.7799 20.8469 81.7382C20.6382 81.6964 20.8469 81.7382 20.8469 81.7382H21.2227C21.3208 82.0079 21.4419 82.2686 21.5846 82.5176C21.6956 82.748 21.8211 82.9711 21.9603 83.1856C22.0319 83.0661 22.0925 82.9403 22.1413 82.8098C22.2248 82.6428 22.2944 82.4619 22.3779 82.281C22.4546 82.1107 22.5152 81.9337 22.5588 81.7521H22.9207C22.9098 81.7789 22.9098 81.8088 22.9207 81.8356C22.917 81.8773 22.917 81.9192 22.9207 81.9609V82.5733C22.9207 82.782 22.9207 82.9351 22.9207 83.0186C22.9103 83.1622 22.9103 83.3064 22.9207 83.4501C22.9207 83.4501 22.9207 83.4501 23.0042 83.5196C23.0877 83.5892 23.3104 83.5057 23.3104 83.5753Z" fill="#FCEE21"/>
<path d="M21.334 98.5646C20.6595 98.3607 19.9453 98.3251 19.2538 98.461C18.5624 98.5968 17.9147 98.9 17.3675 99.3439L16.6994 99.0795C17.665 98.4773 18.7459 98.0838 19.8727 97.9244C20.0675 97.9244 20.1093 97.5625 19.8727 97.5764C18.574 97.7666 17.3335 98.2419 16.2402 98.9682C15.5648 98.6021 14.8177 98.3876 14.051 98.3395C13.2843 98.2914 12.5163 98.411 11.8004 98.6898C10.4087 99.3718 11.035 100.666 12.4546 100.68C13.8396 100.563 15.1694 100.083 16.3098 99.2883L16.9639 99.5666C16.268 99.9981 15.5721 100.443 15.0989 100.736C14.918 100.833 14.9597 101.181 15.1824 101.056C15.9201 100.652 16.5742 100.151 17.3675 99.6641C18.3634 100.155 19.4582 100.412 20.5685 100.416C21.8768 100.416 22.7397 99.2604 21.334 98.5646ZM15.6835 99.2326C15.4265 99.3855 15.1617 99.5248 14.8902 99.6501L14.3474 99.8728C13.8659 100.074 13.352 100.188 12.8303 100.207C12.5701 100.212 12.3125 100.154 12.0788 100.04C12.0053 100.007 11.9405 99.9578 11.8895 99.8957C11.8385 99.8335 11.8028 99.7602 11.7852 99.6818C11.7676 99.6033 11.7686 99.5218 11.7882 99.4438C11.8078 99.3658 11.8453 99.2935 11.8979 99.2326C12.0502 99.0232 12.2723 98.8751 12.5242 98.8151C13.6643 98.5071 14.8765 98.6106 15.9479 99.1073L15.6835 99.2326ZM21.3201 99.4831C21.2323 99.6204 21.1182 99.739 20.9845 99.8322C20.8508 99.9253 20.6999 99.9912 20.5407 100.026C19.622 100.116 18.6965 99.9469 17.8685 99.5388H17.785C18.0519 99.3949 18.326 99.2648 18.6062 99.1491C18.9948 98.9922 19.4016 98.8846 19.817 98.829C20.5685 98.829 21.0278 98.829 21.2923 99.2048C21.3211 99.2446 21.3388 99.2913 21.3437 99.3402C21.3486 99.3891 21.3404 99.4384 21.3201 99.4831Z" fill="#030506"/>
<g opacity="0.5">
<path d="M15.1684 6.95882C15.1684 5.66448 15.4468 4.38406 15.4328 3.08972C15.4522 2.8955 15.4083 2.70021 15.3076 2.53301C15.1775 2.39531 15.0068 2.30268 14.8205 2.26858L12.4266 1.5727C12.1449 1.46179 11.8316 1.46179 11.5498 1.5727C11.4782 1.60975 11.4199 1.6681 11.3828 1.73971C11.3828 3.34023 11.3828 7.58511 11.522 10.2712C11.5236 10.5746 11.6052 10.8723 11.7586 11.1341C11.943 11.3345 12.1701 11.491 12.4229 11.5922C12.6758 11.6933 12.9482 11.7365 13.2199 11.7186L14.3751 11.8161C14.5716 11.865 14.7771 11.865 14.9736 11.8161C15.1162 11.7244 15.2341 11.599 15.3166 11.4509C15.3992 11.3028 15.4439 11.1366 15.4468 10.9671C15.4706 9.62545 15.3775 8.28428 15.1684 6.95882Z" fill="#E16470"/>
</g>
<g opacity="0.5">
<path d="M12.8163 3.15928C12.8157 2.89964 12.7587 2.64323 12.6493 2.40773C12.5944 2.2894 12.5084 2.18813 12.4007 2.11463C12.2929 2.04113 12.1672 1.99814 12.037 1.9902C11.689 1.9902 11.4942 2.50516 11.4942 2.50516C11.3782 4.53789 11.4294 6.57672 11.6473 8.60107C11.7308 9.31087 11.9256 10.1738 12.5937 10.4243C12.6309 10.4408 12.6712 10.4493 12.712 10.4493C12.7527 10.4493 12.793 10.4408 12.8303 10.4243C12.9555 10.4243 12.9834 10.2016 12.9834 10.0624C13.0795 7.76021 13.0237 5.45415 12.8163 3.15928Z" fill="white"/>
</g>
<g opacity="0.4">
<path d="M21.4731 1.39175L18.0911 2.01805C17.998 2.02666 17.9079 2.05514 17.8267 2.10155C17.5623 2.31032 17.8267 2.72785 17.9937 3.0062C18.4893 3.94578 18.6928 5.012 18.5782 6.06807C18.7304 7.9835 18.3702 9.90492 17.5344 11.6351L20.6798 11.1341C20.8881 11.1319 21.0912 11.069 21.2643 10.9532C21.3785 10.834 21.4651 10.6912 21.518 10.5349C21.5709 10.3785 21.5888 10.2125 21.5705 10.0485C21.6401 7.1954 21.1252 4.28662 21.4731 1.39175Z" fill="#790528"/>
</g>
<path d="M12.6913 48.7812C12.6913 46.3874 13.3037 21.628 13.4985 14.363C13.5342 14.0511 13.4911 13.7353 13.3733 13.4444C13.2341 13.1521 12.3434 12.8738 12.3155 13.6949C12.1068 16.0888 13.2063 41.7529 11.3135 47.8627C10.2457 51.19 8.96255 54.4443 7.47221 57.605C7.20778 58.1896 6.45623 59.6092 6.5954 60.2354C6.79025 61.1679 8.68305 61.2654 9.61553 61.5019C10.1616 61.6033 10.7164 61.6499 11.2717 61.6411C11.5828 61.6315 11.8876 61.5506 12.1625 61.4045C12.7192 61.1123 12.747 60.3468 12.7052 59.7205C12.5243 56.1019 12.747 53.3045 12.6913 48.7812Z" fill="#EC2C5D"/>
<g opacity="0.5">
<path d="M25.9964 59.2056C22.4788 52.8504 20.5095 45.7552 20.2485 38.4961C20.1789 36.2832 20.2485 34.0842 20.3459 31.8713C20.5686 26.1002 20.7866 20.329 21 14.5578C21.0561 14.1546 21.0131 13.7438 20.8748 13.3609C20.801 13.1742 20.6654 13.0184 20.4907 12.9196C20.3159 12.8208 20.1125 12.785 19.9144 12.8181C19.1351 12.8181 18.3557 12.8181 17.5902 12.8181C17.4628 12.8019 17.3335 12.8134 17.2109 12.8518C17.0884 12.8903 16.9757 12.9547 16.8804 13.0408C16.6299 13.3192 16.7969 13.7645 16.95 14.1125C17.5885 15.8344 17.8909 17.6628 17.8407 19.4986C18.1005 26.9213 18.0727 34.3069 17.7572 41.6554C17.6528 43.1985 17.6528 44.7469 17.7572 46.29C18.1052 50.0338 19.7613 53.5689 20.0954 57.3128C20.2206 58.5793 20.0119 60.0963 18.8567 60.6391C18.4809 60.82 17.9242 61.0427 18.0634 61.4324C18.2026 61.8221 18.467 61.7246 18.7175 61.7525C21.0723 61.8889 23.4319 61.5868 25.6763 60.8617C25.837 60.8149 25.9878 60.7395 26.1217 60.6391C26.5114 60.3468 26.2609 59.6787 25.9964 59.2056Z" fill="#790528"/>
</g>
<g opacity="0.6">
<path d="M20.527 15.1563C20.6662 10.146 19.5667 13.6393 19.3997 16.2697C18.8291 25.344 18.161 34.5157 19.4832 43.5065C19.6363 44.5921 21.5291 50.8132 21.1672 47.2086C19.9425 42.4348 20.2069 25.7476 20.527 15.1563Z" fill="#55061C"/>
<path d="M26.5812 59.5813L21.557 50.2983C21.2508 50.2983 21.1951 50.7297 21.2369 51.0359C21.3431 51.8022 21.5202 52.557 21.7657 53.2906C22.2044 54.6441 22.4755 56.0464 22.5729 57.4659C22.6619 57.8914 22.6422 58.3325 22.5157 58.7484C22.3892 59.1644 22.16 59.5418 21.8492 59.8458C21.5013 60.0824 20.9863 60.2494 20.9446 60.6669C20.9028 61.0844 21.4039 61.321 21.7936 61.4185C23.1641 61.762 24.5983 61.762 25.9688 61.4185C26.1363 61.3957 26.297 61.338 26.4409 61.2494C26.5847 61.1607 26.7083 61.0429 26.8039 60.9035C26.8811 60.6822 26.9012 60.445 26.8623 60.2138C26.8233 59.9827 26.7267 59.7652 26.5812 59.5813Z" fill="#55061C"/>
</g>
<g opacity="0.7">
<path d="M11.3132 50.7575C11.1601 51.1751 11.0348 51.5926 10.9096 51.9962C10.7189 52.7403 10.4771 53.4704 10.1859 54.1813C10.1859 54.3065 10.1023 54.4318 10.0745 54.5431L10.1719 54.2787C9.39255 56.2272 8.36265 58.106 7.6946 60.1102C7.65323 60.251 7.65323 60.4008 7.6946 60.5416C7.6946 60.7086 7.9312 60.8061 8.08429 60.8896C8.52721 61.0728 8.99757 61.181 9.47606 61.2097C9.61603 61.2251 9.75729 61.1958 9.87967 61.1262C9.99108 61.0303 10.0731 60.9048 10.1163 60.7643C10.3571 59.9639 10.5293 59.1444 10.6312 58.3148L11.6333 51.7179C11.6333 51.3142 12.1761 45.9281 11.3132 50.7575Z" fill="white"/>
</g>
<g opacity="0.15">
<path d="M10.395 64.6334C10.0193 63.8401 8.83626 63.8262 8.02904 63.4782C7.55519 63.2657 7.05394 63.1205 6.53985 63.0468C5.45428 62.8659 5.28726 63.4504 5.28726 63.4504C2.50374 69.0175 2.04446 75.5448 1.82178 81.8356C1.82178 82.9212 1.9192 84.2851 2.9491 84.6191C3.58171 83.6461 3.91555 82.5091 3.90942 81.3485C4.44791 76.8168 6.15001 72.5016 8.85017 68.8226C9.7409 67.7231 10.9935 65.8999 10.395 64.6334Z" fill="white"/>
</g>
<g opacity="0.5">
<path d="M7.30495 64.2298C7.23238 64.1558 7.14577 64.0969 7.05018 64.0568C6.95458 64.0166 6.85194 63.9959 6.74825 63.9959C6.64456 63.9959 6.54191 64.0166 6.44632 64.0568C6.35073 64.0969 6.26411 64.1558 6.19154 64.2298C4.66849 67.4799 3.67251 70.9517 3.24101 74.5149C2.72606 79.0382 3.96472 74.0974 4.79978 71.5227C5.50396 69.5487 6.30757 67.6117 7.20753 65.719C7.43021 65.2736 7.63897 64.6474 7.30495 64.2298Z" fill="white"/>
</g>
<g opacity="0.15">
<path d="M12.5243 122.085C11.2192 121.968 9.94366 121.63 8.75264 121.083C7.58903 120.619 6.54662 119.896 5.70468 118.968C4.52168 117.172 3.60312 112.733 2.78198 109.323C2.91376 113.113 3.27162 116.891 3.85364 120.638C4.63266 121.376 5.59298 121.894 6.63716 122.141C8.20327 122.494 9.79486 122.722 11.397 122.823C13.0393 122.934 14.6955 123.004 16.3517 123.018C15.1965 122.767 13.8047 122.308 12.5243 122.085Z" fill="white"/>
</g>
<g opacity="0.5">
<path d="M31.3686 85.2315C30.5196 94.2362 28.8773 112.427 28.8773 112.427C28.8974 114.357 28.4586 116.265 27.5969 117.994C25.9825 120.694 22.183 122.169 19.1489 122.99C21.3885 122.883 23.6169 122.608 25.8155 122.169C26.6997 122.11 27.5534 121.822 28.2928 121.334C29.3923 120.485 29.3923 119.079 29.5454 117.701C30.3804 110.214 32.2593 80.2351 31.3686 85.2315Z" fill="#4D494E"/>
</g>
<path d="M21.1115 13.5975V12.2057C20.8749 12.2057 20.5826 12.2893 20.2486 12.3171H20.1094L19.2465 12.3867H18.9125L18.0913 12.5259H14.6398H13.596H13.415C12.7523 12.4923 12.0923 12.418 11.4387 12.3032V12.5119L14.3057 13.1382C16.5348 13.6568 18.833 13.8119 21.1115 13.5975Z" fill="#790528"/>
</svg>
