<svg width="49" height="124" viewBox="0 0 49 124" fill="none" xmlns="http://www.w3.org/2000/svg">
<g clip-path="url(#clip0_57_1792)">
<path d="M44.2373 72.1057L39.0567 67.4868C36.7414 65.4341 34.8643 62.9258 33.5397 60.1152C32.2152 57.3046 31.4711 54.2506 31.3528 51.1396L29.8598 7.21509C29.8598 7.54717 27.4561 7.80377 24.4851 7.80377C21.514 7.80377 19.1103 7.54717 19.1103 7.21509L17.4381 51.2C17.326 54.2879 16.5977 57.3211 15.297 60.1174C13.9962 62.9136 12.1498 65.4151 9.86866 67.4717L4.71784 72.1057C3.05763 73.5866 1.76548 75.4419 0.945885 77.5213C0.126287 79.6007 -0.197749 81.846 -1.64881e-05 84.0755L3.32936 119.532C3.32936 122.008 12.8546 124.06 24.5298 124.06C36.205 124.06 45.7303 122.053 45.7303 119.532C45.7388 119.457 45.7388 119.381 45.7303 119.306L48.9701 84.1358C49.1769 81.8952 48.8558 79.637 48.0332 77.5459C47.2106 75.4549 45.9098 73.5906 44.2373 72.1057Z" fill="#810529"/>
<path d="M42.2965 73.8566L37.6383 69.6906C33.4281 65.9472 15.4525 65.9321 11.302 69.6906L6.65876 73.8566C5.17037 75.2001 4.0142 76.8775 3.28302 78.7544C2.55185 80.6313 2.26604 82.6554 2.44852 84.6642L5.43451 116.649C5.4793 118.883 14.0043 120.755 24.5448 120.755C35.0853 120.755 43.67 118.943 43.67 116.694C43.6769 116.629 43.6769 116.563 43.67 116.498L46.656 84.8C46.8446 82.7567 46.5473 80.6974 45.7889 78.7938C45.0306 76.8902 43.8332 75.1974 42.2965 73.8566Z" fill="#960636"/>
<path d="M33.5026 59.9396C32.2097 57.1817 31.4785 54.189 31.3527 51.1396L29.8597 7.21509C29.8597 7.54717 27.456 7.80377 24.4849 7.80377C21.5139 7.80377 19.1102 7.54717 19.1102 7.21509L17.438 51.2C17.3265 54.2073 16.6262 57.1624 15.3777 59.8943C18.3455 60.7364 21.4176 61.143 24.4999 61.1019C27.5396 61.1387 30.5696 60.7475 33.5026 59.9396Z" fill="#060C0E"/>
<path d="M24.5001 1.26792C21.2454 1.26792 18.6028 0.996227 18.6028 0.633963V8.73962C18.6028 9.10189 21.2454 9.38868 24.5001 9.38868C27.7548 9.38868 30.4721 9.10189 30.4721 8.73962V0.633963C30.4123 0.996227 27.7698 1.26792 24.5001 1.26792Z" fill="#F9BA06"/>
<path d="M24.5001 0C21.2454 0 18.6028 0.286792 18.6028 0.633962C18.6028 0.981132 21.2454 1.26792 24.5001 1.26792C27.7548 1.26792 30.4721 0.996226 30.4721 0.633962C30.4721 0.271698 27.7698 0 24.5001 0Z" fill="#FFD03B"/>
<path d="M24.5596 58.4453C21.778 58.4642 19.0048 58.1346 16.3033 57.4641C16.0416 58.2916 15.7325 59.1031 15.3777 59.8943C18.3455 60.7364 21.4176 61.143 24.4999 61.1019C27.5246 61.1345 30.5392 60.7434 33.4578 59.9396C33.1056 59.1576 32.7965 58.3563 32.5322 57.5396C29.9185 58.1539 27.2429 58.4579 24.5596 58.4453Z" fill="#FFD03B"/>
<path d="M40.5795 90.883H7.92773V105.298H40.5795V90.883Z" fill="#060C0E"/>
<path d="M5.97192 88.8906V107.275H42.5502V88.8906H5.97192ZM41.5649 106.279H6.94237V89.8868H41.5649V106.279Z" fill="#060C0E"/>
<path d="M6.94238 106.279H41.5649V89.8868H6.94238V106.279ZM7.92776 90.883H40.5795V105.283H7.92776V90.883Z" fill="#FFD03B"/>
<path d="M13.2429 93.283H12.4814V97.6H15.0942V96.8604H13.2429V93.283Z" fill="white"/>
<path d="M16.1242 93.283H15.3628V97.6151H16.1242V93.283Z" fill="white"/>
<path d="M18.5578 97.6604C18.8329 97.668 19.1068 97.6199 19.3632 97.5188C19.6196 97.4177 19.8534 97.2657 20.0508 97.0717C20.257 96.8556 20.4186 96.6002 20.5263 96.3203C20.634 96.0404 20.6855 95.7417 20.6778 95.4415C20.658 95.0614 20.5384 94.6934 20.3313 94.3755C20.1243 94.0576 19.8372 93.8011 19.4996 93.6326C19.162 93.464 18.7861 93.3893 18.4105 93.4163C18.035 93.4433 17.6733 93.5709 17.3626 93.786C17.052 94.0011 16.8036 94.296 16.6431 94.6403C16.4825 94.9847 16.4156 95.366 16.4491 95.7452C16.4826 96.1243 16.6154 96.4876 16.8338 96.7977C17.0522 97.1078 17.3484 97.3534 17.6919 97.5094L17.0797 98.3849L17.662 98.8377L17.9307 98.4302L18.3338 98.566C18.592 98.6613 18.8653 98.7073 19.1401 98.7019C19.4202 98.7046 19.6914 98.6024 19.9015 98.4151L20.0657 98.3094L19.7074 97.6906L19.5282 97.8264C19.4072 97.9288 19.253 97.9826 19.0953 97.9774C18.9062 97.9778 18.7187 97.942 18.5429 97.8717H18.3488L18.4682 97.7208L18.5578 97.6604ZM17.1992 95.4415C17.2252 95.1766 17.3269 94.925 17.4917 94.7174C17.6566 94.5098 17.8776 94.3551 18.1278 94.2722C18.378 94.1892 18.6467 94.1816 18.9011 94.2502C19.1556 94.3187 19.3848 94.4606 19.561 94.6585C19.7371 94.8564 19.8526 95.1018 19.8934 95.3648C19.9341 95.6278 19.8984 95.8972 19.7905 96.14C19.6827 96.3829 19.5073 96.5888 19.2858 96.7328C19.0643 96.8768 18.8062 96.9526 18.5429 96.9509C18.3531 96.9521 18.1653 96.9127 17.9917 96.8352C17.8181 96.7577 17.6627 96.6439 17.5358 96.5013C17.4088 96.3587 17.3132 96.1905 17.2552 96.0078C17.1972 95.8252 17.1781 95.6322 17.1992 95.4415Z" fill="white"/>
<path d="M23.8879 95.8641C23.9003 95.9971 23.8853 96.1313 23.8438 96.2581C23.8023 96.385 23.7353 96.5017 23.6469 96.601C23.5585 96.7003 23.4507 96.78 23.3303 96.835C23.2099 96.8901 23.0795 96.9192 22.9474 96.9207C22.8126 96.9263 22.6782 96.902 22.5537 96.8496C22.4292 96.7971 22.3175 96.7178 22.2265 96.6172C22.1355 96.5165 22.0673 96.397 22.0268 96.2669C21.9863 96.1368 21.9743 95.9994 21.9918 95.8641V94.0075C22.0007 93.9035 21.9872 93.7988 21.9522 93.7005C21.9173 93.6023 21.8618 93.5128 21.7895 93.4383C21.7172 93.3637 21.6298 93.3059 21.5333 93.2686C21.4368 93.2314 21.3335 93.2157 21.2304 93.2226C21.104 93.2255 20.98 93.2585 20.8685 93.3188C20.7569 93.3791 20.661 93.4651 20.5884 93.5698L20.469 93.7358L21.0961 94.1887L21.2155 94.0075V95.8641C21.1931 96.1067 21.2211 96.3513 21.2976 96.5824C21.3741 96.8134 21.4974 97.0257 21.6597 97.2058C21.822 97.3859 22.0197 97.5298 22.2402 97.6282C22.4606 97.7266 22.6989 97.7775 22.9399 97.7775C23.1809 97.7775 23.4192 97.7266 23.6396 97.6282C23.8601 97.5298 24.0577 97.3859 24.22 97.2058C24.3823 97.0257 24.5057 96.8134 24.5822 96.5824C24.6587 96.3513 24.6867 96.1067 24.6643 95.8641V93.2679H23.8879V95.8641Z" fill="white"/>
<path d="M31.7857 95.8641C31.7981 95.9971 31.7831 96.1313 31.7416 96.2581C31.7001 96.385 31.633 96.5017 31.5446 96.601C31.4562 96.7003 31.3484 96.78 31.228 96.835C31.1076 96.8901 30.9772 96.9193 30.8451 96.9207C30.711 96.9237 30.5779 96.8977 30.4546 96.8444C30.3312 96.7911 30.2206 96.7118 30.1301 96.6117C30.0396 96.5116 29.9714 96.3932 29.9299 96.2642C29.8884 96.1353 29.8747 95.9989 29.8896 95.8641V94.0075C29.8984 93.9035 29.8849 93.7988 29.85 93.7005C29.815 93.6023 29.7595 93.5128 29.6872 93.4383C29.6149 93.3637 29.5275 93.3059 29.431 93.2686C29.3345 93.2314 29.2312 93.2157 29.1282 93.2226C29.0017 93.2255 28.8777 93.2585 28.7662 93.3188C28.6547 93.3791 28.5587 93.4651 28.4862 93.5698L28.3966 93.6906V93.283H25.5898C25.4846 93.283 25.3805 93.3042 25.2835 93.3453C25.1865 93.3865 25.0986 93.4467 25.0249 93.5226C24.9512 93.5985 24.8932 93.6885 24.8544 93.7873C24.8155 93.8861 24.7965 93.9918 24.7985 94.0981V94.3094H25.3807H25.5151V97.6302H28.5011V96.8906H26.2168V95.7434H27.7098V94.9887H26.2168V94.0528H28.3667V93.7962L28.9639 94.2189L29.0834 94.0377V95.8943C29.061 96.1369 29.089 96.3815 29.1655 96.6126C29.242 96.8436 29.3653 97.0559 29.5276 97.236C29.6899 97.4161 29.8876 97.56 30.108 97.6584C30.3285 97.7568 30.5668 97.8077 30.8078 97.8077C31.0487 97.8077 31.2871 97.7568 31.5075 97.6584C31.7279 97.56 31.9256 97.4161 32.0879 97.236C32.2502 97.0559 32.3736 96.8436 32.4501 96.6126C32.5266 96.3815 32.5545 96.1369 32.5322 95.8943V93.2679H31.7558L31.7857 95.8641Z" fill="white"/>
<path d="M36.2946 96.7094H36.1155V96.9208L35.3242 95.8943C35.5487 95.7863 35.7373 95.6147 35.8672 95.4003C35.997 95.1859 36.0626 94.9381 36.0558 94.6868C36.0625 94.4256 35.9978 94.1675 35.8687 93.9411C35.7396 93.7147 35.5512 93.5288 35.3242 93.4038C35.1546 93.3299 34.9713 93.2939 34.7867 93.2981H33.458C33.341 93.2952 33.2249 93.3195 33.1188 93.3692C33.0126 93.419 32.9192 93.4928 32.8458 93.5849C32.6998 93.7391 32.6194 93.945 32.6219 94.1585V94.3698H33.3236V97.6604H34.085V96.1509C34.2116 96.1584 34.3343 96.1983 34.4414 96.267C34.5485 96.3357 34.6365 96.4308 34.6971 96.5434L35.4138 97.4792C35.5022 97.6039 35.6275 97.6969 35.7716 97.745C35.9157 97.793 36.0712 97.7936 36.2156 97.7466C36.36 97.6996 36.486 97.6074 36.5753 97.4834C36.6646 97.3595 36.7127 97.21 36.7127 97.0566V96.8604L36.2946 96.7094ZM34.1298 95.2906V94.0226H34.7718C35.0853 94.0226 35.2943 94.2792 35.2943 94.6717C35.306 94.7531 35.2992 94.8361 35.2745 94.9145C35.2499 94.9928 35.2079 95.0645 35.1518 95.1241C35.0958 95.1837 35.0271 95.2296 34.9509 95.2584C34.8747 95.2873 34.7931 95.2983 34.7121 95.2906H34.1298Z" fill="white"/>
<path d="M29.8599 101.011C28.5162 100.347 26.8739 101.011 25.4555 101.887L24.7538 101.6C25.8225 100.917 27.0243 100.474 28.2773 100.302C28.5012 100.302 28.546 99.8943 28.2773 99.9094C26.8403 100.107 25.4641 100.623 24.2462 101.419C23.4956 101.011 22.6663 100.772 21.8156 100.72C20.9649 100.668 20.1132 100.803 19.3193 101.117C17.8263 101.887 18.4683 103.336 20.0509 103.351C21.5806 103.236 23.0533 102.715 24.3209 101.842L25.0524 102.143C24.2761 102.641 23.5594 103.14 22.9772 103.472C22.7681 103.577 22.8279 103.97 23.0817 103.834C23.8879 103.366 24.6792 102.823 25.5003 102.325C26.6063 102.874 27.8212 103.163 29.0536 103.17C30.4123 103.094 31.3528 101.796 29.8599 101.011ZM23.6042 101.766C23.3056 101.932 23.022 102.098 22.7234 102.234L22.1262 102.491C21.5807 102.697 21.0061 102.814 20.4241 102.838C20.1391 102.838 19.8579 102.77 19.603 102.642C19.5202 102.606 19.4467 102.552 19.3887 102.483C19.3308 102.413 19.2899 102.331 19.2695 102.243C19.2491 102.154 19.2497 102.062 19.2714 101.974C19.293 101.886 19.335 101.804 19.394 101.736C19.562 101.531 19.7849 101.379 20.036 101.298C21.2994 100.955 22.6419 101.073 23.8282 101.63L23.6042 101.766ZM29.8449 102.053C29.7469 102.206 29.62 102.338 29.4714 102.442C29.3228 102.545 29.1555 102.618 28.979 102.657C27.9527 102.769 26.9161 102.58 25.993 102.113H25.9034C26.1966 101.946 26.5009 101.8 26.8141 101.675C27.2459 101.5 27.6971 101.379 28.1578 101.313C28.9939 101.313 29.5015 101.313 29.8001 101.736C29.8372 101.778 29.8624 101.83 29.8729 101.886C29.8834 101.942 29.8789 101.999 29.8599 102.053H29.8449Z" fill="#FFD03B"/>
<path d="M19.8867 11.9396C19.2148 23.1698 19.8867 33.3283 19.1551 44.5585C18.9461 48.1509 19.2895 50.5962 18.3489 54.0226C20.1554 60.317 20.7974 40.1811 20.8571 32.8906C20.9019 25.0717 20.9019 4.5283 19.8867 11.9396Z" fill="#3D3B40"/>
<g opacity="0.4">
<path d="M22.1113 2.91321C22.2456 1.78113 20.7676 1.8717 19.7075 1.50943C18.976 1.26792 19.2298 4.21132 19.2447 5.29811C19.2447 7.92453 19.3641 8.31698 20.6631 8.42264C21.1601 8.45863 21.659 8.45863 22.156 8.42264C23.0817 8.2717 21.962 4.06038 22.1113 2.91321Z" fill="white"/>
</g>
<g opacity="0.5">
<path d="M44.6255 76.4075C40.6243 70.7472 33.8312 66.9434 31.7559 60.317C31.0393 62.7321 32.5024 65.283 32.3083 67.7887C32.0832 69.0721 31.5933 70.2931 30.8705 71.3724C30.1476 72.4517 29.2081 73.365 28.113 74.0528C24.1779 76.9666 19.4484 78.5798 14.5716 78.6717C13.1066 78.7885 11.6384 78.4906 10.3315 77.8113C9.68434 77.4621 9.15938 76.9196 8.8281 76.2579C8.49683 75.5962 8.37534 74.8473 8.48019 74.1132C8.80865 72.6038 10.2718 71.0943 9.34612 69.9472C8.50042 70.269 7.775 70.8494 7.27086 71.6075C5.97356 72.8664 4.89366 74.3357 4.07586 75.9547C3.79217 76.4044 3.65149 76.9312 3.67275 77.4641C3.77003 77.8605 3.95492 78.2294 4.21351 78.5431C4.4721 78.8569 4.79767 79.1073 5.16575 79.2755C8.34624 80.976 11.8363 82.0032 15.4226 82.2943C25.0673 83.6075 35.3093 83.5472 44.0283 79.1698C44.494 78.9895 44.8805 78.6469 45.1182 78.2038C45.1872 77.8864 45.1783 77.5569 45.0924 77.2438C45.0066 76.9307 44.8463 76.6436 44.6255 76.4075Z" fill="#810529"/>
</g>
<g opacity="0.2">
<path d="M13.1384 118.189C11.6991 117.916 10.3467 117.294 9.19689 116.377C6.43485 113.947 6.2109 108.664 5.62864 104.996C4.47903 97.766 3.65789 84.5283 2.40377 83.1849C1.97081 82.717 4.55368 103.457 5.38976 114.551C5.32621 115.435 5.45884 116.322 5.77794 117.147C6.26379 117.748 6.86464 118.244 7.54449 118.604C8.22433 118.965 8.96917 119.183 9.73437 119.245C12.9355 120.047 16.2546 120.252 19.5284 119.849C18.0653 119.366 14.6165 118.717 13.1384 118.189Z" fill="white"/>
</g>
<path d="M28.5461 10.8981L29.2329 11.0038C29.0686 10.6113 28.4266 10.6566 28.1579 11.0038C27.9269 11.3773 27.827 11.8186 27.8742 12.2566C27.8742 15.2755 28.1579 18.2943 28.4117 21.3132C28.3669 17.7962 28.4416 14.3396 28.5461 10.8981Z" fill="#060C0E"/>
<path d="M29.2925 33.7811C29.188 29.5849 28.7699 25.4189 28.4116 21.2377C28.4116 27.8994 28.6157 34.556 29.0237 41.2075C29.2695 38.7404 29.3593 36.2599 29.2925 33.7811Z" fill="#060C0E"/>
<g opacity="0.2">
<path d="M46.6111 78.2792C44.4612 73.0566 38.9073 70.8528 35.5331 66.3547C30.9497 60.317 29.9941 52.2415 29.4567 44.6189C29.3671 43.4868 29.3223 42.3396 29.2477 41.2075C28.8688 45.9246 27.4833 50.5026 25.1867 54.6264C26.4558 55.9396 28.9491 55.1094 30.1733 56.4528C31.3976 57.7962 30.1733 59.9849 28.6803 60.6641C27.0036 61.1321 25.2685 61.3508 23.5295 61.3132C23.1704 61.3315 22.8237 61.4518 22.5292 61.6604C21.5587 62.5208 22.8278 63.9698 23.9027 64.6792C29.4621 68.5918 33.3714 74.4666 34.8613 81.1472C36.3117 87.7754 36.6398 94.6043 35.8317 101.343C35.3689 106.747 34.3388 112.664 30.1882 116.106C28.1279 117.736 18.9012 120.755 16.4229 121.57C23.2608 123.004 42.4756 120.604 43.6849 118.898C44.8942 117.192 44.8345 112.498 44.8643 110.521C44.9783 105.381 45.4522 100.257 46.2827 95.1849C47.074 89.8717 48.6416 83.2453 46.6111 78.2792Z" fill="#060C0E"/>
</g>
<g opacity="0.2">
<path d="M16.4229 61.7208C16.1428 61.9598 15.9146 62.2549 15.7527 62.5874C15.5909 62.9199 15.4988 63.2826 15.4823 63.6528L15.3628 63.9094C14.4521 67.7887 10.7644 70.2038 7.7635 72.8C6.98715 73.4641 6.18093 74.3094 6.27051 75.3509C6.36708 75.6453 6.52486 75.9154 6.73323 76.1431C6.94161 76.3707 7.19575 76.5506 7.4786 76.6707C7.76145 76.7908 8.06645 76.8483 8.3731 76.8394C8.67975 76.8304 8.98096 76.7552 9.25649 76.6189C10.3559 75.9947 11.2177 75.0172 11.705 73.8415C13.4502 70.3962 14.9761 66.8418 16.2736 63.2C16.4138 62.9836 16.5006 62.7362 16.5266 62.4788C16.5526 62.2214 16.517 61.9614 16.4229 61.7208Z" fill="white"/>
</g>
</g>
<defs>
<clipPath id="clip0_57_1792">
<rect width="49" height="124" fill="white"/>
</clipPath>
</defs>
</svg>
