<svg width="34" height="124" viewBox="0 0 34 124" fill="none" xmlns="http://www.w3.org/2000/svg">
<path d="M26.3543 37.1069C24.7732 35.6595 23.5449 36.0852 23.557 33.6163L21.5867 1.21622H11.9786L10.0083 33.6163C10.0083 35.5744 8.79212 35.6595 7.21103 37.1069C4.9811 39.1084 3.19492 41.5547 1.96744 44.2883C0.739964 47.0218 0.0983826 49.9821 0.0839844 52.9785L0.0839844 116.672C0.0843592 117.934 0.503855 119.159 1.27656 120.156C2.04927 121.154 3.13139 121.866 4.35291 122.181C12.2033 124.216 20.4359 124.27 28.3124 122.34L29.1395 122.133C30.3776 121.833 31.4789 121.125 32.2663 120.124C33.0538 119.122 33.4818 117.885 33.4814 116.611V52.9785C33.467 49.9821 32.8254 47.0218 31.5979 44.2883C30.3704 41.5547 28.5843 39.1084 26.3543 37.1069Z" fill="#517F08"/>
<path d="M16.7823 0C13.7296 0 11.2485 0.510812 11.2485 1.21622C11.2518 1.27985 11.2777 1.34023 11.3215 1.38649C11.735 1.93379 14.0215 2.35947 16.7823 2.35947C19.5432 2.35947 21.8296 1.93379 22.2432 1.38649C22.2827 1.33757 22.308 1.27863 22.3161 1.21622C22.3161 0.510812 19.835 0 16.7823 0Z" fill="#303338"/>
<path d="M22.3286 4.86488C21.9029 5.47299 11.6502 5.47299 11.2245 4.86488L10.0083 33.3123V33.6771C10.5313 34.2244 13.3651 34.6501 16.7948 34.6501C20.2245 34.6501 23.0462 34.2244 23.5691 33.6771V33.3123L22.3286 4.86488Z" fill="#4A7F02"/>
<path d="M16.7829 35.0514C18.1937 35.0514 22.2437 34.8082 23.7883 34.0298C23.8508 33.9996 23.9021 33.9504 23.9349 33.8892C23.9677 33.828 23.9802 33.758 23.9707 33.6893L23.9099 32.4731C23.9076 32.4175 23.8922 32.3634 23.8649 32.3149C23.8377 32.2665 23.7994 32.2252 23.7532 32.1943C23.7069 32.1635 23.6541 32.144 23.5989 32.1375C23.5437 32.131 23.4877 32.1376 23.4356 32.1568C21.3301 32.7526 19.1534 33.0594 16.9653 33.069H16.5883C14.3962 33.0595 12.2141 32.7734 10.0937 32.2177C10.0423 32.2032 9.9883 32.2001 9.9356 32.2088C9.88289 32.2174 9.83273 32.2376 9.78865 32.2677C9.74458 32.2979 9.70766 32.3373 9.6805 32.3833C9.65335 32.4293 9.63662 32.4807 9.6315 32.5339L9.54637 33.6406C9.54156 33.7058 9.55494 33.771 9.585 33.8289C9.61506 33.8869 9.66063 33.9354 9.71664 33.969C11.0302 34.7474 15.3721 35.0514 16.7829 35.0514Z" fill="#303338"/>
<path d="M26.5489 37.1069C25.0773 35.7812 23.9219 36.0001 23.7638 34.1028C23.0478 34.3828 22.3004 34.5748 21.5381 34.6744V35.8906C21.5381 38.1893 23.7759 37.7879 25.1868 39.1258C27.1227 41.0551 28.657 43.349 29.7008 45.875C30.7446 48.401 31.2772 51.1089 31.2678 53.842V113.838C31.2943 114.985 30.9432 116.108 30.2686 117.036C29.5939 117.963 28.6331 118.643 27.5341 118.971L26.8408 119.189C20.0585 120.98 12.9214 120.93 6.16508 119.044C5.08603 118.702 4.14703 118.019 3.48911 117.098C2.83119 116.177 2.48988 115.067 2.51642 113.935V53.7934C2.50165 51.0595 3.0318 48.35 4.07591 45.8233C5.12002 43.2965 6.65715 41.0032 8.59752 39.0771C9.99617 37.7028 12.2462 37.7028 12.2462 35.842V34.6258C11.4926 34.5351 10.7531 34.3513 10.0448 34.0785C9.81374 35.5866 8.70698 35.8055 7.25968 37.1069C5.01673 39.1007 3.21862 41.5443 1.98232 44.2789C0.746019 47.0134 0.099216 49.9775 0.0839844 52.9785L0.0839844 116.672C0.0878359 117.936 0.511608 119.163 1.28872 120.161C2.06583 121.158 3.15223 121.869 4.37724 122.181C12.2895 124.216 20.581 124.27 28.5192 122.34L29.3584 122.133C30.6 121.835 31.7055 121.129 32.4974 120.128C33.2893 119.126 33.7215 117.888 33.7246 116.611V52.9785C33.7094 49.9775 33.0626 47.0134 31.8263 44.2789C30.59 41.5443 28.7919 39.1007 26.5489 37.1069Z" fill="#BCED5D"/>
<path d="M18.5948 37.8974C20.4325 37.6723 22.2909 37.6723 24.1286 37.8974C25.4975 38.3738 26.8898 38.7797 28.3002 39.1136C27.6958 38.3956 27.0458 37.7172 26.3543 37.0825C24.8948 35.7569 23.7516 35.9758 23.5935 34.0785C21.3814 34.7241 19.0869 35.0436 16.7826 35.0271C14.4763 35.0259 12.181 34.7109 9.95964 34.0906C9.81369 35.5866 8.59747 35.8055 7.22314 37.0825C11.0299 36.8636 14.788 37.9825 18.5948 37.8974Z" fill="#0C6303"/>
<g opacity="0.3">
<path d="M12.1488 120.953C11.2123 120.308 10.5556 118.071 10.5556 115.504V52.3947C10.4525 47.0443 11.356 41.7222 13.2191 36.7055C13.5718 35.8542 13.8637 35.4893 14.0583 34.8933C13.4745 34.8933 12.8421 34.7717 12.2948 34.6866C11.8486 35.4 11.3442 36.0753 10.7866 36.7055C7.7614 41.3709 6.20255 46.8354 6.31096 52.3947V115.541C6.31096 118.107 7.41772 120.406 8.98664 120.99C11.3927 121.99 13.97 122.515 16.5759 122.534C14.9804 122.465 13.4406 121.928 12.1488 120.99V120.953Z" fill="white"/>
</g>
<g opacity="0.1">
<path d="M21.4285 120.99C22.3649 120.345 23.0095 118.107 23.0095 115.541V52.4312C23.1102 47.082 22.211 41.7611 20.3582 36.742C20.0055 35.8906 19.7014 35.5258 19.519 34.9298C20.1028 34.9298 20.7352 34.8082 21.2704 34.7231C21.7173 35.4391 22.226 36.1146 22.7906 36.742C25.8041 41.4122 27.358 46.8742 27.2542 52.4312V115.541C27.2542 118.107 26.1596 120.406 24.5785 120.99C22.1727 121.991 19.5952 122.516 16.9893 122.534C18.5884 122.466 20.1322 121.929 21.4285 120.99Z" fill="#59627F"/>
</g>
<g opacity="0.15">
<path d="M14.0585 34.8933C13.8639 35.4771 13.572 35.8542 13.2193 36.7055C11.3562 41.7222 10.4527 47.0443 10.5558 52.3947V115.541C10.5558 118.107 11.2125 120.406 12.149 120.99C13.4408 121.928 14.9807 122.466 16.5761 122.534H16.7828C18.3176 122.495 19.8085 122.014 21.0761 121.148L21.3923 120.953C22.3409 120.333 23.0099 118.071 23.0099 115.48V52.3947C23.113 47.0443 22.2094 41.7222 20.3463 36.7055C19.9572 35.7569 19.6288 35.6109 19.4463 34.9055C18.3517 35.015 17.3423 35.0514 16.7828 35.0514C16.2234 35.0514 15.1774 35.0028 14.0585 34.8933Z" fill="white"/>
</g>
<g opacity="0.3">
<path d="M28.957 49.4515C28.749 45.7872 27.5695 42.2442 25.5394 39.1866C25.1098 38.4375 24.4885 37.8162 23.7394 37.3866C22.5232 36.7785 21.015 37.1798 19.6529 37.3866C17.9434 37.6645 16.1986 37.6439 14.4961 37.3258C12.2096 36.9001 9.91096 35.9879 8.02582 37.3258C7.16231 38.0798 3.53797 41.9717 2.55283 45.7055C2.25517 46.5976 2.25517 47.5621 2.55283 48.4542C2.81524 49.0468 3.2206 49.5649 3.73257 49.9623C6.04908 51.5131 8.72516 52.4428 11.5042 52.6623C16.5607 53.3527 21.6978 53.1758 26.6948 52.1393C27.0833 52.1072 27.4613 51.9969 27.8062 51.8151C28.151 51.6332 28.4555 51.3836 28.7016 51.0812C28.9515 50.5769 29.0407 50.0081 28.957 49.4515Z" fill="white"/>
</g>
<path d="M9.50977 38.0068H9.63139L9.81382 37.8609L9.50977 38.0068Z" fill="white"/>
<g opacity="0.7">
<path d="M10.507 38.6393C10.4195 38.4126 10.2662 38.2174 10.0668 38.0786C9.86736 37.9399 9.63096 37.8641 9.38804 37.8609C8.95126 37.8525 8.51717 37.9311 8.11101 38.092C6.46096 39.1983 5.06744 40.6458 4.02451 42.3366C3.27193 43.4011 2.88758 44.6823 2.92992 45.9853C3.00289 46.7636 3.59884 47.688 4.36505 47.4934C5.13127 47.2988 5.22857 46.338 5.37452 45.5839C5.80019 43.419 7.58804 41.8136 9.37588 40.5244C10.0205 40.0501 10.7502 39.3812 10.507 38.6393Z" fill="white"/>
</g>
<g opacity="0.7">
<path d="M4.00016 117.012C1.94474 111.564 2.78394 74.4448 2.78394 54.365C2.78394 51.9326 1.19069 49.9745 0.996094 54.365C0.996094 54.365 1.21501 96.6773 0.996094 110.98C0.996094 112.902 0.996094 116.757 1.7988 118.496C2.85691 120.783 6.20151 122.048 13.2313 122.437C5.27719 120.576 4.51097 118.362 4.00016 117.012Z" fill="white"/>
</g>
<g opacity="0.4">
<path d="M29.3583 42.5677C27.6711 40.1749 25.8136 37.9068 23.8002 35.7812C23.3624 36.9974 19.8232 35.5744 20.3583 36.8028C21.3921 39.2352 26.9259 45.0731 26.9867 47.7488C27.3516 63.3529 28.0083 94.4759 27.2543 110.056C27.1327 112.488 27.5462 119.08 15.5664 122.644C18.8867 122.485 29.0421 121.16 30.8421 118.995C32.4597 117.085 32.2408 114.86 32.3016 112.354C32.557 99.9611 32.18 72.0245 32.4475 59.6312C32.5692 53.6839 32.5813 47.4326 29.3583 42.5677Z" fill="#0C6303"/>
</g>
<path d="M16.7825 2.29866C13.9852 2.29866 11.6622 1.70271 11.2487 1.15541L10.896 5.87434V6.23921C11.346 6.78651 13.8028 7.21218 16.7825 7.21218C19.7622 7.21218 22.219 6.78651 22.669 6.23921V5.87434L22.3163 1.21622C21.8906 1.70271 19.5433 2.29866 16.7825 2.29866Z" fill="#02050A"/>
<path d="M16.7829 8.173C17.9991 8.173 21.5262 7.92976 22.864 7.15138C22.9178 7.11337 22.9607 7.06194 22.9885 7.00219C23.0162 6.94244 23.0278 6.87646 23.0221 6.81084L22.9613 5.59462C22.9632 5.54485 22.9532 5.49535 22.9323 5.45014C22.9114 5.40494 22.8801 5.36532 22.841 5.33449C22.8019 5.30367 22.756 5.28253 22.7072 5.27278C22.6584 5.26303 22.6079 5.26496 22.56 5.2784C20.7451 5.86997 18.8498 6.17765 16.941 6.19056H16.6005C14.7149 6.19075 12.839 5.92043 11.0302 5.38786C10.9822 5.37442 10.9318 5.37249 10.883 5.38224C10.8341 5.39199 10.7883 5.41313 10.7491 5.44395C10.71 5.47478 10.6787 5.5144 10.6578 5.5596C10.6369 5.60481 10.627 5.65431 10.6288 5.70408L10.5559 6.81084C10.5484 6.87243 10.5568 6.93491 10.5802 6.99237C10.6036 7.04983 10.6413 7.10037 10.6897 7.13922C11.7843 7.86895 15.5667 8.173 16.7829 8.173Z" fill="#303338"/>
<path d="M26.9258 58.6218H6.27441V98.5624H26.9258V58.6218Z" fill="#92BA8E"/>
<path d="M3.84229 55.9461V101.189H29.3829V55.9461H3.84229ZM26.9505 98.5138H6.27472V58.6218H26.9505V98.5138Z" fill="#02050A"/>
<path d="M30.2222 67.5975H2.94238V73.788H30.2222V67.5975Z" fill="white"/>
<path d="M31.4746 66.7218H1.67725V74.6637H31.4746V66.7218ZM2.94211 73.788V67.5975H30.2098V73.788H2.94211Z" fill="#0C6303"/>
<path d="M16.5998 78.5556C15.1724 78.5532 13.7763 78.9745 12.5884 79.766C11.4005 80.5576 10.4742 81.6838 9.92681 83.0022C9.37943 84.3205 9.23558 85.7717 9.51348 87.1718C9.79138 88.572 10.4785 89.8582 11.4879 90.8676C12.4973 91.8769 13.7835 92.5641 15.1836 92.842C16.5838 93.1199 18.0349 92.976 19.3533 92.4286C20.6716 91.8813 21.7979 90.955 22.5894 89.7671C23.381 88.5792 23.8022 87.1831 23.7998 85.7556C23.7966 83.8471 23.037 82.0176 21.6875 80.668C20.3379 79.3184 18.5084 78.5588 16.5998 78.5556Z" fill="white"/>
<path d="M16.6 77.838C15.022 77.838 13.4795 78.306 12.1674 79.1826C10.8554 80.0593 9.83277 81.3054 9.2289 82.7632C8.62504 84.2211 8.46704 85.8253 8.77489 87.3729C9.08274 88.9206 9.84261 90.3422 10.9584 91.458C12.0742 92.5738 13.4958 93.3337 15.0435 93.6415C16.5911 93.9494 18.1953 93.7914 19.6532 93.1875C21.111 92.5837 22.3571 91.561 23.2338 90.249C24.1105 88.937 24.5784 87.3944 24.5784 85.8164C24.5752 83.7014 23.7336 81.674 22.238 80.1784C20.7425 78.6829 18.715 77.8413 16.6 77.838ZM9.3878 85.7556C9.3878 84.3292 9.81079 82.9348 10.6033 81.7488C11.3958 80.5627 12.5221 79.6383 13.84 79.0924C15.1579 78.5466 16.608 78.4038 18.007 78.682C19.406 78.9603 20.6911 79.6472 21.6998 80.6558C22.7084 81.6645 23.3953 82.9496 23.6736 84.3486C23.9519 85.7476 23.809 87.1978 23.2632 88.5156C22.7173 89.8335 21.7929 90.9599 20.6069 91.7523C19.4208 92.5448 18.0264 92.9678 16.6 92.9678C14.6872 92.9678 12.8527 92.208 11.5002 90.8554C10.1477 89.5029 9.3878 87.6684 9.3878 85.7556Z" fill="#0C6303"/>
<path d="M6.74885 71.3069L6.63939 71.5988C6.62771 71.6754 6.62771 71.7533 6.63939 71.8299C6.63939 71.9029 6.63939 71.9272 6.73669 71.9394H6.87048C6.87048 71.9394 6.87048 71.9394 6.7975 71.9394H5.84885H5.77588C5.77588 71.9394 5.77588 71.9394 5.83669 71.9394H5.95831C6.07993 71.9394 6.15291 71.8056 6.22588 71.6353L7.18669 69.4704C7.18669 69.3245 7.28399 69.2637 7.33264 69.2637C7.38129 69.2637 7.33264 69.2637 7.45426 69.4461C7.57588 69.6286 8.14751 71.0151 8.39075 71.5502C8.51237 71.8299 8.59751 71.9151 8.71913 71.9394H8.82859H8.90156C8.90156 71.9394 8.90156 71.9394 8.80427 71.9394H7.81913C7.75832 71.9394 7.74615 71.9394 7.74615 71.9394C7.74615 71.9394 7.74615 71.9394 7.74615 71.8786L7.51507 71.3069H6.74885ZM7.46642 71.0272L7.15021 70.261L6.84615 71.0272H7.46642Z" fill="black"/>
<path d="M9.21745 70.3826C9.21745 69.8596 9.21745 69.7623 9.21745 69.6407C9.21745 69.5191 9.21745 69.4461 9.05934 69.434H8.93772H8.86475C8.86475 69.434 8.86475 69.434 8.93772 69.434H10.1539C10.908 69.434 11.0539 69.7867 11.0539 69.9813C11.0353 70.1152 10.9766 70.2404 10.8854 70.3403C10.7942 70.4402 10.6749 70.51 10.5431 70.5407C10.9202 70.6623 11.2364 70.8813 11.2364 71.3191C11.2364 71.7569 10.8715 72.1097 10.1539 72.1097H9.49718H8.97421H8.90123C8.90123 72.1097 8.90123 72.1097 8.97421 72.1097H9.08367C9.08367 72.1097 9.18096 72.0488 9.19313 71.9151C9.20529 71.7813 9.19313 71.5137 9.19313 71.0637L9.21745 70.3826ZM9.83772 70.9907C9.83772 71.161 9.83772 71.4164 9.83772 71.5988C9.83772 71.7813 9.8134 71.7569 9.93502 71.7569C10.0105 71.7789 10.0906 71.7789 10.1661 71.7569C10.2259 71.7576 10.2852 71.7453 10.3398 71.7208C10.3944 71.6963 10.443 71.6603 10.4823 71.6152C10.5216 71.5701 10.5507 71.517 10.5675 71.4596C10.5843 71.4022 10.5884 71.3418 10.5796 71.2826C10.5849 71.1792 10.5681 71.0758 10.5304 70.9793C10.4927 70.8829 10.4348 70.7955 10.3607 70.7232C10.2686 70.6441 10.1534 70.5972 10.0323 70.5894H9.8134L9.83772 70.9907ZM9.83772 70.4191H10.0688C10.1362 70.4398 10.2082 70.4398 10.2756 70.4191C10.3203 70.3753 10.3545 70.3218 10.3756 70.2628C10.3966 70.2038 10.404 70.1408 10.3972 70.0786C10.3972 69.7867 10.2512 69.5434 9.97151 69.5434H9.84988L9.83772 70.4191Z" fill="black"/>
<path d="M11.7231 72.0002C11.6943 71.9894 11.6701 71.9689 11.6546 71.9424C11.6391 71.9158 11.6332 71.8846 11.638 71.8542C11.6265 71.6801 11.6265 71.5054 11.638 71.3313V71.2461C11.638 71.2461 11.638 71.2461 11.638 71.3069C11.6335 71.3433 11.6335 71.3801 11.638 71.4164C11.6666 71.5515 11.7422 71.672 11.8513 71.7566C11.9604 71.8412 12.096 71.8844 12.2339 71.8786C12.5745 71.8786 12.6839 71.6961 12.6839 71.5502C12.6839 71.4042 12.6839 71.2705 12.3555 71.0637L12.2461 70.9178C11.8082 70.6015 11.6866 70.3583 11.6866 70.0421C11.6866 69.7259 12.0272 69.3002 12.5988 69.3002C12.736 69.2816 12.8751 69.2816 13.0123 69.3002H13.1947C13.1947 69.3002 13.1947 69.4948 13.1947 69.811V69.8961C13.1873 69.8224 13.1623 69.7514 13.1218 69.6894C13.0708 69.6081 12.9984 69.5424 12.9126 69.4995C12.8268 69.4566 12.7309 69.4381 12.6353 69.4461C12.3434 69.4461 12.2339 69.6164 12.2339 69.7745C12.2339 69.9326 12.2339 70.0421 12.5258 70.2002L12.7082 70.3218C13.2069 70.6502 13.365 70.8813 13.365 71.234C13.3688 71.3659 13.3354 71.4963 13.2688 71.6103C13.2021 71.7242 13.1048 71.8172 12.988 71.8786C12.801 71.9905 12.5854 72.0455 12.3677 72.0367C12.1528 72.0724 11.9326 72.0599 11.7231 72.0002Z" fill="black"/>
<path d="M13.985 70.3826C13.985 69.8353 13.985 69.7259 13.985 69.6164C13.985 69.5069 13.985 69.4461 13.8634 69.434H13.7539H13.681C13.681 69.434 13.681 69.434 13.7661 69.434H14.8729H14.9458C14.9458 69.434 14.9458 69.434 14.8729 69.434H14.7756C14.6783 69.434 14.6418 69.434 14.6418 69.6286C14.6418 69.8232 14.6418 69.8353 14.6418 70.3826V71.0151C14.6418 71.2948 14.6418 71.6232 14.6418 71.7813C14.6418 71.9394 14.6418 71.9394 14.7756 71.9637H14.9337C14.9945 71.9637 15.0188 71.9637 15.0188 71.9637C15.0188 71.9637 15.0188 71.9637 14.9337 71.9637H13.7175C13.6566 71.9637 13.6323 71.9637 13.6323 71.9637C13.6323 71.9637 13.6323 71.9637 13.7053 71.9637H13.8148C13.8877 71.9637 13.9121 71.8786 13.9242 71.7691C13.9364 71.6596 13.9242 71.3678 13.9242 71.0151L13.985 70.3826Z" fill="black"/>
<path d="M15.6637 69.4704C15.6637 69.361 15.6637 69.3002 15.6637 69.3002C15.6637 69.3002 15.6637 69.3002 15.8097 69.3853L16.9651 70.4313L17.6705 71.1002V69.7502C17.6705 69.5556 17.6705 69.4583 17.5002 69.434H17.3421H17.2813C17.2813 69.434 17.2813 69.434 17.3543 69.434H18.3273H18.4002C18.4002 69.434 18.4002 69.434 18.3394 69.434H18.2543C18.1327 69.434 18.1083 69.5069 18.0962 69.7259C18.0962 70.4434 18.0962 71.161 18.0962 71.8786C18.0962 72.061 18.0962 72.0975 18.0232 72.0975C17.9502 72.0975 17.8651 72.0123 17.6219 71.8056C17.3786 71.5988 17.0746 71.3191 16.8556 71.1123C16.6367 70.9056 16.2962 70.6015 16.0408 70.3461V71.5623C16.0408 71.8178 16.0408 71.9151 16.1624 71.9515C16.2224 71.9651 16.2848 71.9651 16.3448 71.9515C16.4056 71.9515 16.4178 71.9515 16.4178 71.9515C16.4178 71.9515 16.4178 71.9515 16.3327 71.9515H15.384H15.311C15.311 71.9515 15.311 71.9515 15.3718 71.9515H15.4935C15.6273 71.9515 15.6516 71.8421 15.6637 71.5137C15.6516 70.784 15.6516 69.9326 15.6637 69.4704Z" fill="black"/>
<path d="M20.1881 71.0151C20.1881 71.2948 20.1881 71.6232 20.1881 71.7691C20.1881 71.9151 20.1881 71.9394 20.334 71.9637H20.48H20.5529C20.5529 71.9637 20.5529 71.9637 20.48 71.9637H19.2637H19.1786C19.1786 71.9637 19.1786 71.9637 19.2516 71.9637H19.3732C19.4462 71.9637 19.4705 71.8664 19.4827 71.7691C19.4948 71.6718 19.4827 71.3556 19.4827 71.0151V69.6164C19.3489 69.6164 19.1178 69.6164 18.9475 69.6164C18.7772 69.6164 18.6678 69.6164 18.6191 69.7988V69.884C18.6191 69.884 18.6191 69.884 18.6191 69.811L18.7043 69.3367C18.7043 69.2759 18.7043 69.2394 18.7043 69.2394H18.8259H19.2273H21.0029H21.1124C21.1124 69.2394 21.1124 69.2394 21.1124 69.3488C21.1124 69.4583 21.1124 69.7259 21.1124 69.8232C21.1124 69.9205 21.1124 69.8961 21.1124 69.8961C21.1124 69.8961 21.1124 69.8961 21.1124 69.8232C21.1124 69.7015 21.0516 69.6164 20.8327 69.6042H20.261L20.1881 71.0151Z" fill="black"/>
<path d="M23.5081 70.4434V70.3705C23.5081 69.8232 23.5081 69.7623 23.5081 69.6407C23.5081 69.5191 23.5081 69.4826 23.35 69.4583H23.1919H23.1311C23.1311 69.4583 23.1311 69.4583 23.1919 69.4583H24.4081H24.4811H24.3595C24.2743 69.4583 24.2379 69.5313 24.2257 69.6529V71.0394C24.2257 71.3799 24.2257 71.6353 24.2257 71.7934C24.2257 71.9515 24.2257 71.9637 24.3716 71.988H24.5298H24.5906C24.5906 71.988 24.5906 71.988 24.5176 71.988H23.3014H23.2284C23.2284 71.988 23.2284 71.988 23.2892 71.988H23.3987C23.4838 71.988 23.5081 71.9029 23.5203 71.7813C23.5325 71.6596 23.5203 71.4164 23.5203 71.0759V70.784H22.4014V71.161C22.4014 71.4894 22.4014 71.6353 22.4014 71.7934C22.4014 71.9515 22.4014 71.9637 22.5473 71.988H22.7054H22.7662C22.7662 71.988 22.7662 71.988 22.6933 71.988H21.477H21.4041C21.4041 71.988 21.4041 71.988 21.4649 71.988H21.5743C21.6595 71.988 21.6838 71.8786 21.696 71.7813C21.7081 71.684 21.696 71.3799 21.696 71.0394V70.4191C21.696 69.8596 21.696 69.7745 21.696 69.665C21.696 69.5556 21.696 69.4705 21.5257 69.4583H21.4162C21.3554 69.4583 21.3433 69.4583 21.3433 69.4583C21.3433 69.4583 21.3433 69.4583 21.4284 69.4583H22.6446H22.7176C22.7176 69.4583 22.7176 69.4583 22.6568 69.4583H22.523C22.4379 69.4583 22.4135 69.5677 22.4014 69.665V70.4434H23.5081Z" fill="black"/>
<path d="M25.272 70.3826C25.272 69.7988 25.272 69.7259 25.272 69.6164C25.272 69.5069 25.272 69.4461 25.1382 69.434H25.0166C25.0166 69.434 25.0166 69.434 25.1017 69.434H26.6342H26.8288H26.8409C26.8409 69.434 26.8409 69.434 26.8409 69.5921C26.8409 69.7502 26.8409 69.7867 26.8409 69.9691C26.8409 69.9691 26.8409 70.1515 26.8409 69.9691C26.8456 69.9287 26.8456 69.8879 26.8409 69.8475C26.8409 69.7623 26.7801 69.7137 26.6098 69.7015H26.0747V70.4799H26.5977C26.768 70.4799 26.8166 70.4799 26.8531 70.4069C26.8531 70.4069 26.8531 70.5772 26.8531 70.711V71.0151V71.0759C26.8598 71.0479 26.8598 71.0187 26.8531 70.9907C26.8531 70.8813 26.7923 70.8205 26.622 70.8205H26.1112V71.0637C26.1112 71.1853 26.1112 71.4042 26.1112 71.538C26.1112 71.6718 26.1112 71.8421 26.5612 71.8421C26.67 71.8594 26.7808 71.8594 26.8896 71.8421C26.9869 71.8421 27.0355 71.7205 27.0599 71.5502C27.0599 71.5502 27.0842 71.3799 27.0599 71.5502C27.0599 71.5502 27.0599 71.5502 27.0599 71.6353C27.069 71.7933 27.069 71.9517 27.0599 72.1097C27.0599 72.2069 27.0599 72.2069 26.8774 72.2069H25.7342H25.2234C25.1625 72.2069 25.1382 72.2069 25.1382 72.2069C25.1382 72.2069 25.1382 72.2069 25.2112 72.2069H25.3207C25.418 72.2069 25.4301 72.061 25.4423 71.8299C25.4544 71.5988 25.4423 71.4772 25.4423 71.2583L25.272 70.3826Z" fill="black"/>
<path d="M19.7989 86.8867C19.82 86.8051 19.8669 86.7326 19.9327 86.68C20.0423 86.6378 20.1636 86.6378 20.2732 86.68C20.5403 86.751 20.8203 86.7583 21.0908 86.7013C21.3612 86.6443 21.6144 86.5245 21.83 86.3516C21.227 86.276 20.6147 86.3426 20.0422 86.5462C20.3987 86.2646 20.66 85.8802 20.7906 85.445C20.9211 85.0099 20.9146 84.5451 20.7719 84.1137C20.7719 83.9921 20.6138 83.8583 20.5165 83.9313C20.6077 84.4012 20.6077 84.8843 20.5165 85.3543C20.4211 85.8408 20.148 86.2744 19.7503 86.5705C19.6127 86.0592 19.5837 85.5248 19.6651 85.0016C19.79 84.5546 19.819 84.0862 19.7503 83.6272C19.35 84.2961 19.2278 85.095 19.4097 85.8529C19.2571 85.4668 19.0345 85.1122 18.753 84.807C18.765 85.115 18.8416 85.4171 18.9777 85.6936C19.1139 85.9702 19.3067 86.2151 19.5435 86.4124L18.5097 85.5367C18.4741 85.5255 18.4359 85.5255 18.4003 85.5367C18.303 85.5367 18.303 85.6948 18.4003 85.7921C18.5552 86.062 18.8076 86.2622 19.1057 86.3516C19.3246 86.4246 19.5922 86.4489 19.6895 86.6556C19.725 86.7296 19.7435 86.8107 19.7435 86.8928C19.7435 86.9749 19.725 87.056 19.6895 87.13C19.4141 87.7699 19.0497 88.3677 18.607 88.9056C18.5889 88.9471 18.5576 88.9814 18.5181 89.0034C18.4785 89.0253 18.4329 89.0337 18.3881 89.0273C18.3881 89.0273 18.303 89.0273 18.2665 88.9421C17.9839 88.7175 17.7522 88.4355 17.5866 88.1147C17.421 87.794 17.3252 87.4418 17.3057 87.0813C17.4345 86.5659 17.6661 86.0819 17.9867 85.6583C18.1813 85.3178 18.3273 84.9529 18.5584 84.6245C18.8172 84.3094 19.102 84.0165 19.4097 83.7489C19.8113 83.335 20.155 82.8686 20.4313 82.3624C20.1225 82.4744 19.8523 82.6728 19.653 82.934C19.2648 83.3604 18.8995 83.807 18.5584 84.2718C18.9372 83.7369 19.2477 83.1567 19.4827 82.5448C19.5753 82.3572 19.6295 82.1529 19.6421 81.9441C19.6546 81.7352 19.6252 81.5259 19.5557 81.3286C19.0309 82.206 18.6183 83.1458 18.3273 84.1259C18.5749 83.0494 18.5749 81.9308 18.3273 80.8543C18.1813 80.9272 18.1692 81.134 18.1692 81.2921C18.1692 82.1921 18.2422 83.0799 18.2665 83.9678C18.2658 83.3407 18.0367 82.7354 17.6219 82.2651C17.5592 82.7835 17.6985 83.3062 18.0111 83.7245C18.1143 83.872 18.1771 84.0439 18.1935 84.2232C18.183 84.3643 18.1415 84.5014 18.0719 84.6245C17.8286 85.1475 17.4638 85.6097 17.1962 86.1205C17.0732 86.379 17.0023 86.6592 16.9877 86.9451C16.9731 87.231 17.015 87.517 17.1111 87.7867C16.6399 87.0468 16.4783 86.1514 16.6611 85.2935C16.7901 84.8427 16.8876 84.3835 16.953 83.9191C16.953 83.4327 16.8557 82.9462 16.953 82.4597C17.0514 82.0039 17.1856 81.5565 17.3543 81.1218C17.4543 80.8985 17.4846 80.6501 17.4412 80.4093C17.3978 80.1684 17.2827 79.9463 17.1111 79.7718C17.0868 80.44 16.9764 81.1022 16.7827 81.7421C16.6864 81.9877 16.6249 82.2456 16.6003 82.5083C16.6271 82.9455 16.684 83.3803 16.7705 83.8097C16.7311 84.3343 16.6498 84.8549 16.5273 85.3664C16.4442 84.9029 16.3096 84.4501 16.1259 84.0164C16.1305 84.0934 16.1305 84.1706 16.1259 84.2475C16.0969 84.1357 16.0604 84.026 16.0165 83.9191C15.6203 82.6937 15.0598 81.5277 14.3503 80.4529C14.5692 82.0705 15.7246 83.4083 16.2597 84.9529C16.2597 85.0381 16.2597 85.1354 16.2597 85.2205C15.5685 83.7981 14.6527 82.4963 13.5475 81.3651C14.0944 82.8575 14.9574 84.2142 16.0773 85.3421C16.3609 85.9278 16.4826 86.5787 16.43 87.2273C16.3082 86.9928 16.132 86.791 15.9161 86.6387C15.7003 86.4863 15.4511 86.3879 15.1894 86.3516C15.1053 86.3697 15.0182 86.3697 14.934 86.3516C14.7759 86.2543 14.7638 86.0475 14.7394 85.8651C14.705 85.6211 14.6202 85.387 14.4904 85.1777C14.3605 84.9683 14.1886 84.7882 13.9854 84.6489C14.156 85.1849 14.3887 85.6992 14.6786 86.1813C14.01 85.5513 13.3805 84.8812 12.7935 84.1745C12.8882 84.6015 13.0848 84.9993 13.3664 85.3339C13.6481 85.6685 14.0065 85.93 14.4111 86.0962C13.5134 85.8124 12.6849 85.3443 11.9786 84.7218C12.101 85.0459 12.2998 85.3356 12.5582 85.5664C12.8165 85.7972 13.1267 85.9622 13.4624 86.0475C12.9554 85.9419 12.4589 85.7913 11.9786 85.5975C11.9021 85.556 11.8164 85.5343 11.7293 85.5343C11.6422 85.5343 11.5565 85.556 11.48 85.5975C11.8047 85.998 12.2703 86.2591 12.7813 86.3273C13.2895 86.4003 13.8056 86.4003 14.3138 86.3273C13.8608 86.3487 13.43 86.5296 13.0975 86.8381C12.9657 86.6102 12.7716 86.4246 12.5381 86.3029C12.5932 86.5896 12.7049 86.8625 12.8665 87.1056C12.7876 87.2018 12.7221 87.3081 12.6719 87.4218C12.6719 87.5313 12.5867 87.6773 12.6719 87.7624C12.7112 87.795 12.7606 87.8129 12.8117 87.8129C12.8628 87.8129 12.9123 87.795 12.9516 87.7624C13.0188 87.6847 13.0686 87.5934 13.0975 87.4948C13.4205 87.8474 13.8458 88.0898 14.3138 88.1881C13.7549 88.282 13.1809 88.2179 12.6566 88.003C12.1322 87.7881 11.6784 87.431 11.3462 86.9719C11.4149 87.2488 11.5506 87.5046 11.7415 87.7167C11.9324 87.9288 12.1726 88.0907 12.4408 88.1881C12.9865 88.3803 13.5685 88.4468 14.1435 88.3827C14.7151 88.3827 15.2867 88.2367 15.8584 88.2367C16.1503 88.2367 16.4543 88.2367 16.7462 88.2367C16.8866 88.2432 17.0256 88.2678 17.1597 88.3097C17.5611 88.4678 17.7313 88.9543 18.0597 89.2462C17.3979 89.1202 16.7138 89.1878 16.0894 89.4408C15.7845 89.5765 15.5243 89.796 15.3392 90.0737C15.154 90.3514 15.0515 90.676 15.0435 91.0097C15.0435 91.1556 15.1286 91.3259 15.2746 91.3016C15.4205 91.2773 15.4205 91.1556 15.4449 91.0462C15.5706 90.5698 15.8446 90.1458 16.2272 89.8353C16.6098 89.5249 17.0812 89.3441 17.5732 89.3192C17.8049 89.3111 18.0349 89.3613 18.2422 89.4651C18.4397 89.586 18.6129 89.7428 18.753 89.9273C19.073 90.3174 19.3734 90.7234 19.653 91.1435C19.6853 91.1957 19.7317 91.2379 19.7868 91.2651C19.842 91.2836 19.9018 91.2836 19.957 91.2651L20.6868 91.1435L18.8138 89.4894C18.6586 89.3752 18.5539 89.2051 18.5219 89.0151C18.5401 88.8388 18.6276 88.6769 18.7651 88.5651C19.1939 88.0621 19.5426 87.496 19.7989 86.8867ZM15.8949 85.0259C16.0079 85.1295 16.1061 85.2482 16.1867 85.3786L15.8949 85.0259ZM16.3813 85.2935C16.3872 85.2572 16.3872 85.2203 16.3813 85.184C16.419 85.2712 16.4515 85.3606 16.4786 85.4516C16.4786 85.4516 16.357 85.3543 16.3327 85.2935H16.3813ZM15.6151 87.9692C15.3587 88.0209 15.0982 88.0493 14.8367 88.0543C14.5299 88.0109 14.2362 87.9015 13.9758 87.7335C13.7154 87.5655 13.4946 87.343 13.3286 87.0813C13.4861 86.8487 13.6887 86.6501 13.9246 86.4975C14.0396 86.4117 14.1727 86.3535 14.3138 86.3273C14.4359 86.3141 14.5593 86.3224 14.6786 86.3516C15.1627 86.4423 15.6221 86.6343 16.0267 86.9152C16.4313 87.1961 16.7718 87.5594 17.0259 87.9813C16.5436 87.8956 16.0502 87.8915 15.5665 87.9692H15.6151Z" fill="#0C6303"/>
<path d="M16.0651 84.0164C16.0651 83.8583 16.0043 83.7002 15.9678 83.5543C15.9885 83.7106 16.021 83.8651 16.0651 84.0164Z" fill="#0C6303"/>
<path d="M16.1259 82.5205C16.2354 82.1435 16.3327 81.7664 16.4178 81.3772C16.4988 81.0969 16.5195 80.8026 16.4786 80.5137C16.4736 80.4672 16.452 80.424 16.4178 80.3921C16.3083 80.307 16.1745 80.4651 16.1259 80.5989C15.8916 81.3243 15.8129 82.091 15.8948 82.8489C15.82 81.6634 15.5186 80.5033 15.007 79.4313C14.9566 80.0549 15.0742 80.6807 15.3475 81.2435C15.6176 81.9973 15.833 82.7695 15.9921 83.5543C15.9921 83.4813 15.9921 83.4205 15.9921 83.3475C15.996 83.0668 16.0411 82.7881 16.1259 82.5205Z" fill="#0C6303"/>
<g opacity="0.15">
<path d="M15.5786 2.80947C14.7078 2.80616 13.844 2.65396 13.0245 2.35947C12.4812 2.23605 11.9683 2.00441 11.5164 1.67838C11.5164 1.67838 11.407 1.60541 11.3705 1.67838C11.3646 1.70645 11.3646 1.73545 11.3705 1.76352V2.03109V1.81217C11.3808 2.73428 11.3361 3.65619 11.2367 4.57299C11.2115 4.67277 11.2115 4.77726 11.2367 4.87704C11.3097 5.02299 11.5043 5.05947 11.6624 5.0838C12.4164 5.18109 13.1583 5.40001 13.9002 5.52164C14.6487 5.67942 15.4257 5.63322 16.1502 5.38785L15.1043 4.96218C14.8635 4.87645 14.6378 4.75332 14.4353 4.59731C14.3344 4.51716 14.2557 4.41247 14.2067 4.29323C14.1577 4.174 14.1401 4.0442 14.1556 3.91623C14.1986 3.77703 14.2755 3.65074 14.3796 3.54881C14.4837 3.44687 14.6115 3.3725 14.7516 3.33244C15.2259 3.15001 15.761 3.17433 16.2475 3.01622C16.3327 3.01622 16.4421 2.8946 16.3935 2.82163C16.3505 2.80469 16.3027 2.80469 16.2597 2.82163C16.1016 2.74866 15.8948 2.7973 15.5786 2.80947Z" fill="white"/>
</g>
<g opacity="0.1">
<path d="M21.9758 1.62973C21.3066 2.033 20.5613 2.29385 19.7866 2.39595C19.5555 2.39595 19.3245 2.39595 19.1055 2.49325C18.8866 2.59054 18.9839 2.49325 18.9717 2.59054C18.9596 2.68784 18.9718 2.7 19.0569 2.74865C19.4082 2.95314 19.6948 3.2524 19.8839 3.61217C19.9332 3.81387 19.93 4.02483 19.8746 4.22495C19.8193 4.42507 19.7136 4.60769 19.5677 4.75541C19.2597 5.03768 18.8885 5.24204 18.4853 5.35136C18.0724 5.45166 17.6662 5.57758 17.269 5.72839C17.5755 5.82526 17.9001 5.85023 18.2177 5.80136C19.4255 5.69327 20.6218 5.48168 21.7934 5.16893C21.8628 5.15982 21.9293 5.13547 21.9882 5.09762C22.0471 5.05978 22.0968 5.00936 22.1339 4.95001C22.158 4.87902 22.158 4.80207 22.1339 4.73109C22.2191 3.70947 22.1461 2.66352 21.9758 1.62973Z" fill="white"/>
</g>
<g opacity="0.3">
<path d="M14.7759 29.1041C14.2612 22.5417 14.1231 15.9552 14.3623 9.37705C14.3623 9.02434 14.3623 8.6838 13.9975 8.59867C13.6326 8.51353 13.4623 8.51353 13.2556 8.51353C12.7709 8.39462 12.3073 8.20182 11.8813 7.94191C11.4799 15.4946 11.2488 23.5338 11.1637 31.0501C11.1523 31.2027 11.173 31.356 11.2245 31.5001C11.3168 31.6399 11.441 31.7559 11.5869 31.8384C11.7328 31.9208 11.8962 31.9675 12.0637 31.9744C12.611 32.0717 13.1583 32.169 13.7056 32.242C13.838 32.277 13.9761 32.2854 14.1118 32.2666C14.2476 32.2478 14.3782 32.2022 14.4961 32.1325C14.6318 31.9844 14.717 31.797 14.7394 31.5974C14.8628 30.7716 14.875 29.9331 14.7759 29.1041Z" fill="#BCED5D"/>
</g>
<g opacity="0.5">
<path d="M12.9148 9.72975C12.9254 9.59308 12.9046 9.45581 12.854 9.3284C12.8009 9.23552 12.7179 9.16335 12.6185 9.1236C12.5192 9.08386 12.4093 9.07888 12.3067 9.10948C12.2216 9.10948 12.3067 9.19461 12.2094 9.26759C12.0027 14.7527 11.8324 20.3352 11.7108 26.0879C11.7108 27.0122 11.577 27.9487 11.5162 28.873C11.4808 29.2086 11.5139 29.5479 11.6135 29.8703C11.6651 30.0327 11.7648 30.1755 11.8995 30.2798C12.0342 30.384 12.1975 30.4449 12.3675 30.4541C12.5261 30.4324 12.6758 30.3677 12.8001 30.2669C12.9245 30.1661 13.0189 30.0332 13.073 29.8825C13.1699 29.5762 13.2071 29.2542 13.1824 28.9339C13.1013 22.5365 13.0121 16.1352 12.9148 9.72975Z" fill="white"/>
</g>
<g opacity="0.4">
<path d="M22.3409 7.61354L22.1098 7.75949C21.0124 7.88454 19.9266 8.09601 18.8625 8.39192C19.1921 8.94756 19.3645 9.58236 19.3612 10.2284C19.5071 12.0649 19.6531 13.8771 19.8112 15.7257L20.249 21.2352C20.5651 23.9726 20.6139 26.7343 20.395 29.4812C20.3764 29.9467 20.2472 30.4012 20.0179 30.8068C19.495 31.5974 18.4004 31.7677 17.7314 32.4244C19.3011 32.3851 20.8572 32.1231 22.3531 31.646C22.5559 31.6045 22.7396 31.4977 22.8761 31.342C22.9699 31.1752 23.0161 30.9859 23.0098 30.7947C23.3139 23.1082 21.5625 15.3122 22.3409 7.61354Z" fill="#0C6303"/>
</g>
<path d="M21.9757 10.5446C21.9757 10.3379 21.9757 10.0825 21.7446 9.98516L21.3311 10.3257L21.6595 9.88786C21.482 9.93635 21.3202 10.0303 21.1901 10.1604C21.06 10.2905 20.9661 10.4523 20.9176 10.6298C20.8265 10.9871 20.8018 11.3581 20.8446 11.7244C21.1527 17.7811 21.5135 23.8298 21.927 29.8703C21.927 30.0649 22 30.3204 22.1946 30.3325C22.3892 30.3447 22.523 30.0528 22.523 29.8217C22.6122 23.392 22.4297 16.9663 21.9757 10.5446Z" fill="#0C6303"/>
<path d="M22.4869 8.63516L22.4261 7.29732C20.595 7.84507 18.694 8.12367 16.7828 8.12435C14.8657 8.10674 12.9596 7.83269 11.1152 7.30948V7.40678C12.8349 8.35434 14.7257 8.95087 16.6778 9.16174C18.6299 9.37261 20.6045 9.19362 22.4869 8.63516Z" fill="#0C6303"/>
</svg>
