<svg width="40" height="124" viewBox="0 0 40 124" fill="none" xmlns="http://www.w3.org/2000/svg">
<path d="M30.7696 39.6521C28.9237 37.9727 27.4941 38.4724 27.4941 35.5717V1.38789H11.6305V35.5717C11.6305 37.8617 10.2426 37.9727 8.35511 39.6521C5.73941 42.0044 3.64479 44.8779 2.20587 48.088C0.766952 51.298 0.0155646 54.7737 0 58.2915L0 115.736C0.0115049 117.204 0.507563 118.627 1.41109 119.784C2.31461 120.941 3.57501 121.768 4.99641 122.134C14.1959 124.516 23.8419 124.583 33.0735 122.329L34.045 122.079C35.4945 121.727 36.7836 120.898 37.7049 119.725C38.6262 118.552 39.1263 117.103 39.1247 115.611V58.2915C39.1091 54.7737 38.3577 51.298 36.9188 48.088C35.4799 44.8779 33.3853 42.0044 30.7696 39.6521Z" fill="#BDD0E0"/>
<path d="M31.0611 39.6382C29.2152 37.9588 27.7579 38.4585 27.7579 35.5578V1.38789H11.9082V35.5578C11.9082 37.8478 10.5203 37.9588 8.63273 39.6382C6.01716 41.9927 3.92366 44.869 2.48704 48.0816C1.05042 51.2943 0.302523 54.7722 0.291504 58.2915V115.722C0.299959 117.193 0.794619 118.619 1.69838 119.779C2.60214 120.939 3.86423 121.767 5.28792 122.134C14.466 124.523 24.0924 124.604 33.3095 122.37L34.281 122.121C35.7319 121.769 37.0227 120.941 37.9463 119.768C38.87 118.595 39.373 117.146 39.3745 115.653V58.2915C39.3662 54.7744 38.6222 51.2981 37.1905 48.0856C35.7588 44.8732 33.6709 41.9958 31.0611 39.6382Z" fill="#BDD0E0"/>
<path d="M19.5552 0C15.1834 0 11.6304 0.596794 11.6304 1.38789C11.6392 1.46602 11.6733 1.53912 11.7275 1.59608C12.3243 2.24839 15.5997 2.73415 19.5552 2.73415C23.5107 2.73415 26.8 2.24839 27.3968 1.59608C27.451 1.53912 27.4851 1.46602 27.494 1.38789C27.494 0.596794 23.941 0 19.5552 0Z" fill="#F72806"/>
<path d="M19.5552 2.69251C15.5442 2.69251 12.2272 2.20675 11.6304 1.55444V9.2156C12.2272 9.85403 15.5442 10.3537 19.5552 10.3537C23.5662 10.3537 26.8972 9.85403 27.494 9.2156V1.55444C26.8972 2.20675 23.594 2.69251 19.5552 2.69251Z" fill="#BA0404"/>
<path d="M19.5554 30.2283C15.5444 30.2283 12.2135 29.7286 11.6167 29.0902V35.6549C12.2135 36.2934 15.5444 36.793 19.5554 36.793C23.5665 36.793 26.8974 36.2934 27.4942 35.6549V29.1457C26.8974 29.7286 23.5942 30.2283 19.5554 30.2283Z" fill="#F72806"/>
<path d="M14.1565 36.4183L14.781 36.5016V29.9368L14.1565 29.8536V36.4183Z" fill="#FFD03B"/>
<path d="M12.491 36.0852L13.1155 36.2517V29.6454L12.491 29.4927V36.0852Z" fill="#FFD03B"/>
<path d="M15.8496 36.6126H16.4603V30.1034H15.8496V36.6126Z" fill="#FFD03B"/>
<path d="M17.543 36.7236H18.1536V30.1866H17.543V36.7236Z" fill="#FFD03B"/>
<path d="M19.2227 30.2005V36.7653H19.8472V30.2005H19.2227Z" fill="#FFD03B"/>
<path d="M20.9155 36.7514H21.5401V30.1589H20.9155V36.7514Z" fill="#FFD03B"/>
<path d="M22.6089 36.6681H23.2334V30.0479H22.6089V36.6681Z" fill="#FFD03B"/>
<path d="M24.302 36.5016L24.9266 36.4183V29.8536L24.302 29.9368V36.5016Z" fill="#FFD03B"/>
<path d="M25.9954 29.6454V36.224L26.606 36.0574V29.4927L25.9954 29.6454Z" fill="#FFD03B"/>
<path d="M19.5554 9.38215C15.5306 9.38215 12.2135 8.88251 11.6167 8.24408V29.9646C12.2135 30.6169 15.5306 31.1027 19.5554 31.1027C23.5803 31.1027 26.8835 30.6169 27.4942 29.9646V8.24408C26.8835 8.88251 23.5942 9.38215 19.5554 9.38215Z" fill="#BA0404"/>
<path d="M19.5554 11.4779C21.2208 11.4779 25.9674 11.2003 27.7856 10.2843C27.8554 10.2445 27.9123 10.1853 27.9492 10.1138C27.9862 10.0424 28.0016 9.96181 27.9938 9.88179L27.9105 8.49389C27.9078 8.43053 27.8902 8.3687 27.8592 8.31342C27.8281 8.25815 27.7844 8.211 27.7316 8.17583C27.6788 8.14065 27.6185 8.11844 27.5555 8.111C27.4926 8.10357 27.4287 8.11112 27.3692 8.13304C24.9023 8.8261 22.3537 9.18552 19.7913 9.20172H19.3333C16.7669 9.17856 14.2129 8.843 11.7277 8.20244C11.6679 8.18578 11.6053 8.18267 11.5442 8.19334C11.4831 8.204 11.4252 8.22817 11.3746 8.26408C11.3241 8.29999 11.2822 8.34674 11.252 8.4009C11.2219 8.45507 11.2042 8.51529 11.2003 8.57717L11.1031 9.88179C11.0949 9.95836 11.1089 10.0357 11.1433 10.1046C11.1778 10.1734 11.2312 10.231 11.2974 10.2704C12.8241 11.1031 17.9177 11.4779 19.5554 11.4779Z" fill="#110400"/>
<path d="M19.5554 37.251C21.207 37.251 25.9536 36.9734 27.7717 36.0574C27.8419 36.0205 27.9 35.9643 27.9394 35.8955C27.9787 35.8267 27.9976 35.748 27.9938 35.6688L27.9105 34.2809C27.91 34.2164 27.894 34.1529 27.8638 34.0958C27.8336 34.0388 27.7902 33.9898 27.7371 33.9531C27.684 33.9163 27.6229 33.8929 27.5589 33.8847C27.4948 33.8766 27.4298 33.8839 27.3692 33.9062C24.8987 34.6048 22.3448 34.9643 19.7774 34.9749H19.3333C16.766 34.966 14.2102 34.6302 11.7277 33.9756C11.6671 33.9591 11.6038 33.9561 11.5419 33.9667C11.4801 33.9773 11.4214 34.0013 11.3698 34.037C11.3183 34.0727 11.2751 34.1192 11.2434 34.1734C11.2117 34.2275 11.1923 34.2879 11.1864 34.3503L11.1031 35.6549C11.0949 35.7315 11.1089 35.8088 11.1433 35.8777C11.1778 35.9466 11.2312 36.0042 11.2974 36.0436C12.8241 36.904 17.9177 37.251 19.5554 37.251Z" fill="#110400"/>
<path d="M25.6344 0.99928C23.3722 0.561268 21.0607 0.435185 18.7643 0.624549C17.3123 0.482292 15.8472 0.686833 14.4896 1.22134C14.3786 1.22134 14.2537 1.36013 14.2537 1.48504C14.2537 1.60995 14.3925 1.69323 14.5174 1.74874C15.2099 1.95495 15.9339 2.03487 16.6547 1.98468C19.3011 2.16096 21.9579 2.10058 24.5935 1.80426C24.9651 1.73771 25.3193 1.59603 25.6344 1.38789C26.0646 1.12419 25.6344 0.99928 25.6344 0.99928Z" fill="#F94730"/>
<path d="M18.8059 4.4135C19.0696 4.16368 19.1946 3.70567 18.917 3.48361C18.748 3.3898 18.5539 3.35099 18.3618 3.37258C16.5992 3.37258 14.5312 4.01101 13.1017 2.97009C12.0192 2.19287 12.491 3.85834 12.491 4.53841C12.491 5.21848 12.491 5.91242 12.491 6.60637C12.491 7.71668 13.074 7.99426 13.7263 8.16081C14.0055 8.24404 14.2954 8.28612 14.5868 8.28572C15.5583 8.28572 16.5298 8.28572 17.5013 8.28572C17.6007 8.30746 17.7042 8.30076 17.7999 8.2664C17.8956 8.23203 17.9798 8.17139 18.0426 8.09141C18.0781 7.97375 18.0781 7.84822 18.0426 7.73056C18.0426 7.27256 17.8344 6.84231 17.7511 6.34267C17.7087 6.12347 17.7127 5.89781 17.7629 5.68026C17.8131 5.46271 17.9084 5.25811 18.0426 5.07969C18.285 4.84423 18.5399 4.62186 18.8059 4.4135Z" fill="#F72806"/>
<g opacity="0.5">
<path d="M26.939 2.60924C26.4035 2.9021 25.8351 3.13038 25.2458 3.28931C24.8243 3.373 24.3978 3.42864 23.9689 3.45585L21.1931 3.65016C21.0511 3.65783 20.9109 3.68587 20.7768 3.73343C20.3049 3.96937 20.3465 4.74659 19.8885 5.01029C19.7636 5.07969 19.6387 5.10744 19.5138 5.17684C19.0974 5.3989 19.0419 5.98182 19.1252 6.4537C19.2484 6.90812 19.2484 7.38717 19.1252 7.84159C19.1252 7.98038 18.9725 8.13305 19.028 8.25796C19.0835 8.38287 19.3195 8.39675 19.486 8.41063C21.076 8.50345 22.6712 8.3915 24.2326 8.07753C24.9543 7.94718 25.6679 7.77573 26.37 7.56401C26.4273 7.55026 26.48 7.52153 26.5226 7.48074C26.5226 7.48074 26.8419 7.36971 26.8557 7.30031C26.8557 6.80067 26.7031 6.28715 26.7586 5.78751C26.9844 4.74357 27.0313 3.66888 26.8974 2.60924H26.939Z" fill="#42210B"/>
</g>
<path d="M31.0055 39.6521C29.2845 38.0976 27.9244 38.3752 27.744 36.1546C26.9014 36.4722 26.0264 36.6956 25.1347 36.8208V38.2087C25.1347 40.9012 27.7578 40.4432 29.2984 41.9976C31.5841 44.2503 33.3973 46.9365 34.6318 49.8988C35.8662 52.8611 36.4972 56.0399 36.4877 59.2491V112.419C36.5192 113.762 36.1083 115.078 35.3182 116.164C34.5282 117.25 33.4029 118.046 32.1158 118.429L31.2692 118.651C23.3283 120.743 14.9732 120.681 7.06437 118.47C5.79626 118.075 4.69152 117.278 3.91762 116.198C3.14371 115.119 2.74285 113.816 2.77578 112.489V59.2214C2.7748 56.0097 3.41372 52.83 4.65524 49.868C5.89676 46.906 7.716 44.221 10.0067 41.9699C11.6028 40.4154 14.1704 40.3183 14.2398 38.1809V36.793C13.357 36.676 12.4907 36.4571 11.6583 36.1407C11.4085 37.8756 10.09 38.1254 8.41063 39.6382C5.77835 41.9832 3.6691 44.856 2.22005 48.0697C0.770997 51.2834 0.0145854 54.7662 0 58.2915L0 115.736C0.0154573 117.207 0.516384 118.632 1.42493 119.789C2.33348 120.946 3.59877 121.771 5.02417 122.135C14.2897 124.534 24.003 124.62 33.3094 122.384L34.2948 122.135C35.7497 121.786 37.0454 120.959 37.9741 119.786C38.9028 118.614 39.4106 117.163 39.4161 115.667V58.2915C39.397 54.7689 38.6385 51.2897 37.1897 48.0789C35.7409 44.868 33.634 41.9972 31.0055 39.6521Z" fill="#9494A8"/>
<g opacity="0.3">
<path d="M26.0093 13.8789L26.5644 12.1302L22.4008 12.8935C22.139 12.8972 21.8808 12.9546 21.6421 13.062C21.4034 13.1694 21.1892 13.3246 21.0129 13.5181C20.8073 13.9511 20.763 14.4432 20.888 14.906C21.4252 18.495 21.3218 22.1508 20.5826 25.7038C20.3189 26.9806 20.0691 28.5628 21.0823 29.3956C21.4935 29.6478 21.9539 29.8092 22.4327 29.869C22.9114 29.9289 23.3974 29.8858 23.858 29.7425C24.5558 29.6882 25.2176 29.4108 25.7456 28.9514C26.0037 28.6099 26.1918 28.2208 26.2989 27.8063C26.4061 27.3919 26.4303 26.9603 26.3701 26.5365C26.2452 22.2895 26.1342 18.0426 26.0093 13.8789Z" fill="#42210B"/>
</g>
<path d="M17.0156 27.3276C15.669 23.5921 15.5716 19.5204 16.738 15.7248C16.9302 15.3423 17.0417 14.9244 17.0655 14.4971C17.0894 14.0697 17.0252 13.642 16.8768 13.2405C16.6288 12.8815 16.2948 12.5904 15.9053 12.3939C15.6013 12.1763 15.2566 12.0223 14.8917 11.9413C14.5268 11.8602 14.1493 11.8536 13.7818 11.922C13.5852 12.0047 13.4103 12.1316 13.2707 12.2929C13.1311 12.4542 13.0305 12.6455 12.9768 12.8519L12.8936 12.491L13.3099 26.245C13.2895 26.6612 13.3557 27.0771 13.5042 27.4664C13.9345 28.4102 15.1142 28.6739 16.1412 28.8543C16.4004 28.9235 16.6756 28.8989 16.9184 28.7849C17.3348 28.4518 17.196 27.7578 17.0156 27.3276Z" fill="#F72806"/>
<g opacity="0.3">
<path d="M21.6787 40.582C23.8357 40.3181 26.0169 40.3181 28.174 40.582C29.8256 40.9428 31.3939 41.8172 33.0594 41.9699C32.3501 41.1196 31.5851 40.3175 30.7694 39.5688C29.0623 38.0144 27.7299 38.2919 27.5356 36.0713C24.9425 36.8208 22.2543 37.1901 19.5552 37.1677C16.8573 37.1707 14.1719 36.8018 11.5748 36.0713C11.325 37.8756 10.0343 38.1393 8.32715 39.6382C12.7823 39.3884 17.2235 40.6791 21.6787 40.582Z" fill="#59627F"/>
</g>
<g opacity="0.4">
<path d="M14.1286 120.747C13.0321 119.997 12.2688 117.374 12.2688 114.376V57.5836C12.1473 51.3134 13.2018 45.0759 15.3777 39.1941C15.794 38.1948 16.1549 37.8062 16.3631 37.0706C15.683 37.0012 14.9752 36.9318 14.309 36.8208C13.7725 37.6628 13.1642 38.4568 12.4908 39.1941C8.96898 44.6707 7.16162 51.0738 7.30013 57.5836V114.376C7.30013 117.374 8.59087 119.928 10.4368 120.747C13.2522 121.921 16.2687 122.539 19.3193 122.565C17.4471 122.487 15.6403 121.854 14.1286 120.747Z" fill="#FDFDFD"/>
</g>
<g opacity="0.1">
<path d="M24.982 120.747C26.0784 119.983 26.8418 117.36 26.8418 114.362V57.6253C26.9632 51.355 25.9088 45.1176 23.7329 39.2357C23.3165 38.2364 22.9695 37.8478 22.7475 37.1122C23.4275 37.1122 24.1354 36.9734 24.8154 36.8624C25.3331 37.7031 25.9229 38.4972 26.5781 39.2357C30.1208 44.7049 31.9433 51.1103 31.8104 57.6253V114.418C31.8104 117.416 30.5335 119.969 28.6876 120.802C25.8646 121.966 22.8447 122.578 19.7913 122.606C21.6672 122.513 23.4734 121.866 24.982 120.747Z" fill="#59627F"/>
</g>
<g opacity="0.2">
<path d="M16.3635 37.0706C16.1553 37.7507 15.7944 38.1948 15.3781 39.1941C13.2022 45.0759 12.1477 51.3134 12.2692 57.5836V114.376C12.2692 117.374 13.0325 119.928 14.129 120.747C15.6407 121.854 17.4475 122.487 19.3197 122.565H19.5556C21.355 122.525 23.1045 121.966 24.5937 120.955L24.9823 120.747C26.0926 120.025 26.8837 117.374 26.8837 114.348V57.5836C27.0052 51.3134 25.9507 45.0759 23.7748 39.1941C23.3029 38.0838 22.9282 37.9172 22.72 37.0845C21.4293 37.2094 20.2496 37.251 19.5834 37.251C18.9172 37.251 17.682 37.1955 16.3635 37.0706Z" fill="#FDFDFD"/>
</g>
<g opacity="0.2">
<path d="M33.8368 54.1278C33.5798 49.832 32.1912 45.6806 29.8119 42.0948C29.3236 41.2239 28.6153 40.4965 27.7578 39.9852C26.3005 39.2773 24.5796 39.7492 22.9835 39.9852C20.9819 40.3391 18.9338 40.3391 16.9323 39.9852C14.2675 39.4855 11.575 38.4169 9.36826 39.9852C8.34122 40.8734 4.09427 45.4396 2.95619 49.8114C2.59663 50.8499 2.59663 51.979 2.95619 53.0175C3.299 53.7108 3.81537 54.3037 4.45512 54.7385C7.15528 56.5416 10.2687 57.6304 13.5042 57.9029C19.4274 58.7096 25.4449 58.4984 31.2969 57.2783C31.7498 57.2425 32.1909 57.1159 32.5939 56.906C32.9968 56.6962 33.3534 56.4075 33.6425 56.057C33.8963 55.4472 33.9639 54.7759 33.8368 54.1278Z" fill="white"/>
</g>
<path d="M11.1033 40.7207H11.2559L11.4364 40.582L11.1033 40.7207Z" fill="white"/>
<path d="M13.0324 40.693C12.9286 40.4135 12.7376 40.1749 12.4877 40.0124C12.2377 39.8499 11.942 39.7722 11.6445 39.7909C11.132 39.7745 10.6217 39.8643 10.1456 40.0546C8.21419 41.3513 6.58176 43.0452 5.35735 45.0232C4.51705 46.2807 4.09899 47.7731 4.16376 49.284C4.24704 50.2001 4.94098 51.2687 5.84311 51.0467C6.74524 50.8246 6.85627 49.6588 7.02282 48.826C7.50858 46.2862 9.61818 44.4126 11.7139 42.8859C12.4911 42.3446 13.31 41.6368 13.0324 40.693Z" fill="white"/>
<path d="M5.10718 116.18C2.69225 109.796 3.71929 83.4817 3.71929 59.9292C3.71929 57.1534 1.85951 54.7801 1.63745 59.9292C1.63745 59.9292 1.88727 92.3642 1.63745 109.116C1.63745 111.364 1.63745 115.875 2.56734 117.915C3.81644 120.594 7.7303 122.079 15.9605 122.537C6.59223 120.358 5.6901 117.763 5.10718 116.18Z" fill="white"/>
<g opacity="0.2">
<path d="M33.6703 46.772C31.6893 43.9813 29.5093 41.3374 27.1472 38.861C26.6337 40.3321 27.5497 41.8727 28.1742 43.3161C29.2087 46.2214 29.6797 49.2973 29.5621 52.3791C29.9924 70.6576 30.3532 88.95 29.465 107.215C29.4683 110.13 28.9996 113.026 28.0771 115.792C27.6071 117.164 26.8358 118.413 25.8199 119.448C24.804 120.483 23.5693 121.278 22.2063 121.774C26.5643 122.593 31.7966 122.315 34.4614 118.762C36.224 116.416 36.3489 113.21 36.4044 110.337L37.3204 66.7576C37.4731 59.8875 37.4731 52.5317 33.6703 46.772Z" fill="#59627F"/>
</g>
<path d="M32.7682 61.4142H6.67578V108.214H32.7682V61.4142Z" fill="#D8D8D8"/>
<path d="M3.83057 58.2915V111.295H35.6272V58.2915H3.83057ZM32.782 108.256H6.67575V61.4142H32.782V108.256Z" fill="#BA0404"/>
<path d="M8.45242 61.4142H6.63428V108.214H8.45242V61.4142Z" fill="#9D9D9E"/>
<path d="M11.4917 61.4142H9.67358V108.214H11.4917V61.4142Z" fill="#9D9D9E"/>
<path d="M14.5313 61.4142H12.7131V108.214H14.5313V61.4142Z" fill="#9D9D9E"/>
<path d="M17.5708 61.4142H15.7527V108.214H17.5708V61.4142Z" fill="#9D9D9E"/>
<path d="M20.6101 61.4142H18.792V108.214H20.6101V61.4142Z" fill="#9D9D9E"/>
<path d="M23.6497 61.4142H21.8315V108.214H23.6497V61.4142Z" fill="#9D9D9E"/>
<path d="M26.7029 61.4142H24.8848V108.214H26.7029V61.4142Z" fill="#9D9D9E"/>
<path d="M29.7427 61.4142H27.9246V108.214H29.7427V61.4142Z" fill="#9D9D9E"/>
<path d="M32.782 61.4142H30.9639V108.214H32.782V61.4142Z" fill="#9D9D9E"/>
<path d="M36.6402 71.9344H2.77563L4.12189 75.5707L2.77563 79.1931H36.6402L35.2939 75.5707L36.6402 71.9344Z" fill="white"/>
<path d="M38.1113 70.9213H1.30444L3.02543 75.5707L1.30444 80.2202H38.1113L36.3765 75.5707L38.1113 70.9213ZM2.77561 79.1931L4.1635 75.5707L2.77561 71.9344H36.6402L35.2523 75.5707L36.6402 79.1931H2.77561Z" fill="#110400"/>
<path d="M19.5555 84.7724C17.8832 84.7724 16.2485 85.2685 14.8583 86.1979C13.468 87.1272 12.3847 88.4481 11.7453 89.9934C11.106 91.5386 10.9394 93.2388 11.2667 94.8788C11.594 96.5187 12.4003 98.0248 13.5838 99.2063C14.7673 100.388 16.2746 101.192 17.9151 101.516C19.5556 101.841 21.2555 101.671 22.7997 101.03C24.3439 100.388 25.663 99.3022 26.5901 97.9104C27.5172 96.5186 28.0105 94.8831 28.0078 93.2108C28.0041 90.9716 27.112 88.8253 25.5273 87.2431C23.9426 85.661 21.7948 84.7724 19.5555 84.7724Z" fill="#BA0404"/>
<path d="M19.5556 83.8703C17.7048 83.8703 15.8957 84.4193 14.3571 85.4478C12.8185 86.4763 11.6195 87.938 10.9119 89.6481C10.2043 91.3582 10.0199 93.2398 10.3819 95.0548C10.744 96.8697 11.6363 98.5365 12.9459 99.8442C14.2556 101.152 15.9236 102.042 17.7391 102.401C19.5546 102.76 21.4359 102.573 23.145 101.863C24.854 101.153 26.314 99.9518 27.3402 98.4116C28.3664 96.8715 28.9127 95.0615 28.91 93.2108C28.9063 90.7323 27.9191 88.3565 26.1652 86.6052C24.4113 84.854 22.0341 83.8703 19.5556 83.8703ZM11.1033 93.2108C11.1033 91.5385 11.5994 89.9038 12.5287 88.5136C13.4581 87.1233 14.779 86.04 16.3242 85.4006C17.8695 84.7613 19.5697 84.5947 21.2096 84.922C22.8496 85.2493 24.3556 86.0556 25.5371 87.2391C26.7186 88.4226 27.5225 89.9299 27.8471 91.5704C28.1717 93.2109 28.0023 94.9108 27.3604 96.455C26.7186 97.9992 25.6331 99.3183 24.2413 100.245C22.8495 101.172 21.214 101.666 19.5417 101.663C17.3024 101.659 15.1561 100.767 13.574 99.1826C11.9919 97.5979 11.1033 95.4501 11.1033 93.2108Z" fill="#2D1102"/>
<path d="M14.6284 91.8507V91.934C14.5293 91.9546 14.4379 92.0027 14.3647 92.0727C14.2745 92.1797 14.204 92.3019 14.1566 92.4336L13.3238 94.6542H13.2267L12.38 92.4614C12.3289 92.3158 12.2539 92.1798 12.158 92.0589C12.0888 91.9857 11.9947 91.9411 11.8943 91.934V91.8507H13.1295V91.934C12.9768 91.934 12.9074 92.0172 12.9074 92.1283C12.8971 92.1926 12.8971 92.2582 12.9074 92.3226L13.4487 93.7105L13.9345 92.4058C13.9452 92.3369 13.9452 92.2666 13.9345 92.1977C13.9345 92.045 13.8373 91.9617 13.643 91.934V91.8507H14.6284Z" fill="white"/>
<path d="M17.5708 93.2108C17.5776 93.4037 17.544 93.596 17.4723 93.7752C17.4007 93.9544 17.2924 94.1167 17.1544 94.2517C16.8652 94.5217 16.4811 94.6663 16.0857 94.6542C15.892 94.6599 15.6992 94.6273 15.5182 94.5582C15.3372 94.4891 15.1716 94.385 15.0309 94.2517C14.7653 93.973 14.6172 93.6028 14.6172 93.2178C14.6172 92.8328 14.7653 92.4625 15.0309 92.1838C15.1716 92.0505 15.3372 91.9464 15.5182 91.8773C15.6992 91.8083 15.892 91.7756 16.0857 91.7813C16.4811 91.7692 16.8652 91.9139 17.1544 92.1838C17.2906 92.3172 17.3979 92.4772 17.4695 92.6539C17.5412 92.8306 17.5756 93.0202 17.5708 93.2108ZM16.9184 93.2108C16.9399 92.874 16.8678 92.5378 16.7103 92.2393C16.6456 92.1328 16.5535 92.0457 16.4436 91.9871C16.3338 91.9285 16.2101 91.9006 16.0857 91.9062C15.9634 91.9016 15.842 91.9301 15.7346 91.9888C15.6271 92.0474 15.5374 92.1339 15.475 92.2393C15.3175 92.5378 15.2454 92.874 15.2669 93.2108C15.2488 93.5341 15.3209 93.856 15.475 94.1407C15.5381 94.2445 15.6283 94.3291 15.7359 94.3854C15.8435 94.4417 15.9645 94.4674 16.0857 94.4599C16.2086 94.4656 16.3308 94.4391 16.4403 94.3831C16.5498 94.3271 16.6429 94.2436 16.7103 94.1407C16.8594 93.8642 16.9314 93.5525 16.9184 93.2386V93.2108Z" fill="white"/>
<path d="M17.9175 94.571C18.0211 94.5513 18.1172 94.5033 18.1951 94.4322C18.226 94.3327 18.226 94.2263 18.1951 94.1268V92.3226C18.2218 92.2367 18.2218 92.1447 18.1951 92.0589C18.1121 91.9987 18.0176 91.9562 17.9175 91.934V91.8507H19.3054C19.738 91.8253 20.1642 91.9641 20.499 92.2393C20.6466 92.362 20.7637 92.5175 20.8408 92.6934C20.9179 92.8693 20.9529 93.0607 20.9431 93.2525C20.9523 93.4308 20.9222 93.609 20.8551 93.7744C20.7879 93.9399 20.6853 94.0886 20.5545 94.2101C20.2596 94.4663 19.8756 94.5959 19.4858 94.571H17.9175ZM19.2082 92.0034H18.8612V94.0991C18.8612 94.224 18.8612 94.3073 18.9584 94.3489C19.0712 94.385 19.1925 94.385 19.3054 94.3489C19.4411 94.3577 19.5771 94.3346 19.7023 94.2816C19.8276 94.2286 19.9388 94.1471 20.0271 94.0436C20.2031 93.7808 20.2971 93.4716 20.2971 93.1553C20.2971 92.839 20.2031 92.5299 20.0271 92.2671C19.9183 92.1657 19.7885 92.0896 19.647 92.044C19.5055 91.9984 19.3557 91.9845 19.2082 92.0034Z" fill="white"/>
<path d="M23.164 92.392L22.6505 92.8639L23.7469 94.2517C23.8058 94.335 23.8759 94.4097 23.9551 94.4738C24.0189 94.4897 24.0856 94.4897 24.1494 94.4738H22.9003C23.0252 94.4738 23.0946 94.4738 23.0946 94.335C23.1021 94.2984 23.1021 94.2606 23.0946 94.224L22.2064 93.1969V94.0852C22.1713 94.1792 22.1713 94.2827 22.2064 94.3766C22.2896 94.4506 22.3897 94.5031 22.4978 94.5293H21.2349C21.335 94.5071 21.4294 94.4646 21.5124 94.4044C21.5637 94.3213 21.588 94.2243 21.5818 94.1268V92.3087C21.5905 92.2197 21.5657 92.1307 21.5124 92.0589C21.4363 91.9877 21.3386 91.9438 21.2349 91.934V91.8507H22.5256V91.934C22.4226 91.9466 22.3258 91.9901 22.248 92.0589C22.2 92.1227 22.1755 92.2011 22.1786 92.2809V93.0859L23.0252 92.2809C23.0714 92.2425 23.1012 92.1879 23.1085 92.1283C23.1085 92.0311 23.0252 91.9756 22.8587 91.934V91.8507H23.9829V91.934C23.8516 91.933 23.7224 91.9665 23.6082 92.0311C23.445 92.1315 23.2957 92.2528 23.164 92.392Z" fill="white"/>
<path d="M25.8981 94.571L26.1341 94.4877C26.155 94.4741 26.1722 94.4556 26.1843 94.4338C26.1964 94.4121 26.203 94.3877 26.2035 94.3628C26.219 94.2942 26.219 94.2231 26.2035 94.1546L26.0508 93.7243H24.9821L24.8433 94.0991C24.8257 94.172 24.8257 94.2482 24.8433 94.3211C24.8433 94.4322 24.9405 94.5154 25.1209 94.571H24.2327C24.3428 94.5523 24.442 94.4929 24.5102 94.4044C24.6168 94.2678 24.6968 94.1125 24.7462 93.9464L25.5373 91.8507H25.912L26.7309 94.0297C26.782 94.1752 26.8571 94.3113 26.9529 94.4322C27.0314 94.5103 27.1343 94.5593 27.2444 94.571H25.8981ZM25.107 93.4606H25.912L25.5095 92.3642L25.107 93.4606Z" fill="white"/>
<path d="M6.55103 77.5138V77.3889C6.61642 77.3953 6.68244 77.3872 6.74432 77.3651C6.8062 77.343 6.8624 77.3074 6.90887 77.2609C6.95534 77.2145 6.99092 77.1583 7.01304 77.0964C7.03516 77.0345 7.04327 76.9685 7.03679 76.9031V74.2661C7.05308 74.1334 7.01835 73.9995 6.93964 73.8914C6.82931 73.801 6.69337 73.7476 6.55103 73.7387V73.6277H8.39692C8.78317 73.6047 9.16805 73.6913 9.50724 73.8775C9.62971 73.953 9.73012 74.0595 9.79834 74.1862C9.86657 74.3129 9.9002 74.4554 9.89585 74.5992C9.90558 74.8067 9.83613 75.0101 9.70154 75.1682C9.54518 75.3411 9.34309 75.4662 9.11863 75.5291C9.2358 75.5723 9.33732 75.6497 9.41008 75.7512C9.58875 75.9841 9.74227 76.2353 9.86809 76.5006C9.98735 76.7461 10.1315 76.9786 10.2983 77.1946C10.3976 77.2977 10.5306 77.3617 10.6731 77.375V77.4999H9.54887C9.33088 77.2033 9.14041 76.8874 8.97984 76.5561C8.87645 76.3369 8.7606 76.1237 8.63286 75.9177C8.56895 75.8332 8.48872 75.7624 8.39692 75.7095C8.23674 75.653 8.0668 75.6294 7.89728 75.6401V76.8337C7.88493 76.9682 7.92468 77.1024 8.00831 77.2084C8.0586 77.2609 8.11892 77.3026 8.18568 77.3312C8.25245 77.3598 8.32429 77.3747 8.39692 77.375V77.4999L6.55103 77.5138ZM8.16098 73.8497H7.89728V75.4319H8.07771C8.3205 75.4522 8.56235 75.3831 8.75777 75.2376C8.8335 75.1506 8.89095 75.0492 8.92671 74.9396C8.96248 74.8299 8.97582 74.7141 8.96596 74.5992C8.96596 74.0996 8.70226 73.8497 8.16098 73.8497Z" fill="#BA0404"/>
<path d="M13.7816 77.5138V76.9864C13.6018 77.1819 13.3908 77.3461 13.157 77.4721C12.9638 77.5701 12.749 77.6178 12.5325 77.6109C12.1761 77.6244 11.8282 77.5001 11.5609 77.264C11.4394 77.1426 11.3446 76.9972 11.2825 76.8371C11.2203 76.6769 11.1923 76.5056 11.2001 76.3341V74.28C11.2072 74.1524 11.1731 74.0259 11.1029 73.9191C10.989 73.8214 10.8492 73.7587 10.7004 73.7387V73.6277H12.4908V73.7387C12.3411 73.7554 12.2004 73.8185 12.0883 73.9191C12.0142 74.0345 11.98 74.1711 11.9912 74.3077V76.4867C11.9807 76.6901 12.0505 76.8894 12.1855 77.0419C12.2569 77.1115 12.3417 77.1658 12.4347 77.2016C12.5278 77.2374 12.6271 77.2539 12.7268 77.2501C12.9221 77.2355 13.1121 77.1797 13.2843 77.0864C13.4566 76.9931 13.6071 76.8644 13.726 76.7088V74.28C13.7401 74.1518 13.7054 74.0229 13.6289 73.9191C13.5168 73.8185 13.3761 73.7554 13.2264 73.7387V73.6277H15.1278V73.7387C14.9856 73.7579 14.8512 73.8155 14.7392 73.9053C14.6547 74.0421 14.6204 74.204 14.6421 74.3633V76.8476C14.6298 76.9781 14.6589 77.1092 14.7253 77.2223C14.8444 77.3089 14.9824 77.366 15.1278 77.3889V77.5138H13.7816Z" fill="#BA0404"/>
<path d="M17.8344 73.5583V74.5853H17.7234C17.6437 74.366 17.5101 74.1703 17.3347 74.0163C17.1793 73.8723 16.9775 73.7886 16.7657 73.7803C16.6 73.7772 16.4383 73.8311 16.3077 73.933C16.2518 73.9782 16.2066 74.0353 16.1754 74.1001C16.1442 74.1649 16.1277 74.2358 16.1273 74.3077C16.1141 74.3765 16.1141 74.4472 16.1273 74.5159C16.1653 74.5905 16.2119 74.6603 16.2661 74.7241C16.3355 74.7241 16.5298 74.9184 16.8629 75.1266C17.0936 75.2561 17.3161 75.3998 17.529 75.5568C17.6354 75.6503 17.7288 75.7577 17.8066 75.8761C17.943 76.0661 18.0159 76.2944 18.0148 76.5284C18.0214 76.6834 17.9922 76.8378 17.9297 76.9798C17.8671 77.1218 17.7728 77.2475 17.654 77.3472C17.406 77.5558 17.0894 77.6646 16.7657 77.6526C16.5455 77.6425 16.327 77.6099 16.1134 77.5554C16.0167 77.5426 15.9187 77.5426 15.8219 77.5554C15.7804 77.5527 15.7392 77.5634 15.7042 77.5859C15.6692 77.6083 15.6424 77.6415 15.6276 77.6803H15.5166V76.5145H15.6276C15.6696 76.7828 15.796 77.0308 15.9885 77.2223C16.0777 77.3105 16.1842 77.3794 16.3011 77.4248C16.4181 77.4701 16.5432 77.491 16.6686 77.486C16.8516 77.4911 17.0315 77.4376 17.1821 77.3334C17.2427 77.2852 17.2917 77.2241 17.3253 77.1544C17.359 77.0847 17.3764 77.0083 17.3764 76.9309C17.3754 76.8001 17.3315 76.6734 17.2515 76.57C17.0523 76.3592 16.8173 76.1854 16.5575 76.0565C16.3167 75.9137 16.0849 75.7561 15.8636 75.5846C15.7592 75.4699 15.6747 75.3386 15.6138 75.196C15.5583 75.0545 15.53 74.9038 15.5305 74.7519C15.5252 74.5984 15.5535 74.4455 15.6134 74.3041C15.6734 74.1626 15.7635 74.036 15.8775 73.933C15.9961 73.8108 16.1386 73.7144 16.2963 73.6499C16.4539 73.5854 16.6232 73.5542 16.7935 73.5583C16.9274 73.5485 17.062 73.5485 17.196 73.5583C17.302 73.5706 17.4091 73.5706 17.5152 73.5583C17.5561 73.5572 17.5962 73.5466 17.6324 73.5273C17.6685 73.5081 17.6997 73.4807 17.7234 73.4473L17.8344 73.5583Z" fill="#BA0404"/>
<path d="M20.8183 73.5583V74.5853C20.7453 74.3626 20.6106 74.1653 20.4297 74.0163C20.2742 73.8723 20.0724 73.7886 19.8606 73.7803C19.695 73.7771 19.5332 73.8311 19.4026 73.933C19.3467 73.9782 19.3015 74.0353 19.2703 74.1001C19.2391 74.1649 19.2227 74.2358 19.2222 74.3077C19.2091 74.3765 19.2091 74.4472 19.2222 74.5159C19.2604 74.5938 19.3121 74.6643 19.3749 74.7241C19.5586 74.8729 19.7535 75.0075 19.9578 75.1266C20.1886 75.2561 20.411 75.3998 20.624 75.5568C20.7313 75.6535 20.8289 75.7604 20.9154 75.8761C21.0518 76.0661 21.1247 76.2944 21.1236 76.5284C21.1275 76.6844 21.0957 76.8392 21.0308 76.9811C20.9659 77.1229 20.8695 77.2482 20.7489 77.3472C20.5052 77.5537 20.1937 77.6625 19.8745 77.6526C19.6497 77.6436 19.4264 77.6111 19.2083 77.5554C19.1116 77.5426 19.0136 77.5426 18.9169 77.5554C18.8758 77.5547 18.8354 77.5662 18.8008 77.5884C18.7662 77.6107 18.739 77.6426 18.7226 77.6803H18.5977V76.5145H18.7087C18.7506 76.7828 18.877 77.0308 19.0695 77.2223C19.1593 77.3098 19.2658 77.3783 19.3826 77.4236C19.4995 77.4689 19.6243 77.4902 19.7496 77.486C19.9327 77.4911 20.1126 77.4376 20.2631 77.3333C20.3279 77.2882 20.3808 77.228 20.417 77.1579C20.4533 77.0877 20.4719 77.0098 20.4713 76.9309C20.4654 76.7987 20.4166 76.6721 20.3325 76.57C20.1333 76.3592 19.8984 76.1854 19.6386 76.0565C19.3992 75.9183 19.1718 75.7604 18.9585 75.5846C18.8445 75.4748 18.7547 75.3425 18.6948 75.196C18.6394 75.0545 18.6111 74.9038 18.6115 74.7519C18.6063 74.5983 18.6346 74.4455 18.6945 74.3041C18.7544 74.1626 18.8445 74.036 18.9585 73.933C19.1972 73.7167 19.5109 73.6021 19.8329 73.6138C19.9668 73.603 20.1014 73.603 20.2354 73.6138C20.346 73.6272 20.4578 73.6272 20.5685 73.6138C20.6114 73.6265 20.6569 73.6281 20.7006 73.6184C20.7443 73.6087 20.7848 73.588 20.8183 73.5583Z" fill="#BA0404"/>
<path d="M23.5111 73.6277V73.7387C23.3689 73.7579 23.2345 73.8155 23.1225 73.9053C23.0401 74.0429 23.0059 74.204 23.0253 74.3633V76.8476C23.0091 76.9803 23.0438 77.1142 23.1225 77.2223C23.2362 77.3093 23.3697 77.3665 23.5111 77.3889V77.5138H21.6791V77.3889C21.7865 77.3698 21.8898 77.3322 21.9844 77.2778C22.0446 77.2415 22.0928 77.1885 22.1232 77.1252C22.1451 77.0059 22.1451 76.8836 22.1232 76.7643V74.28C22.1373 74.1518 22.1026 74.0229 22.0261 73.9191C21.9178 73.821 21.7823 73.7581 21.6375 73.7387V73.6277H23.5111Z" fill="#BA0404"/>
<path d="M26.259 77.5138V77.3889C26.3804 77.3731 26.4979 77.3355 26.6059 77.2778C26.6354 77.2578 26.6597 77.2309 26.6766 77.1995C26.6935 77.1681 26.7026 77.1331 26.7031 77.0974C26.6933 76.9916 26.6651 76.8882 26.6198 76.7921L26.37 76.1953H24.9821L24.7878 76.7227C24.7507 76.8208 24.7274 76.9235 24.7184 77.028C24.7184 77.2084 24.8433 77.3195 25.107 77.3889V77.5138H23.8579V77.3889C23.9357 77.3792 24.0105 77.3532 24.0775 77.3125C24.1445 77.2718 24.2021 77.2174 24.2465 77.1529C24.3918 76.9598 24.5043 76.7441 24.5796 76.5145L25.7316 73.5583H26.259L27.4387 76.6672C27.5138 76.877 27.6215 77.0737 27.7579 77.2501C27.8641 77.3594 28.0081 77.424 28.1604 77.4305V77.5554L26.259 77.5138ZM25.1348 75.9177H26.37L25.7732 74.3494L25.1348 75.9177Z" fill="#BA0404"/>
<path d="M31.269 73.7387V73.6277H32.5736V73.7387C32.1988 73.7387 32.0184 73.9747 32.0184 74.3771V77.5554H31.9213L29.1455 74.4049V76.7782C29.1353 76.9342 29.1741 77.0895 29.2565 77.2223C29.391 77.3188 29.5495 77.3764 29.7145 77.3889V77.5138H28.3266V77.3889C28.474 77.3789 28.6125 77.3146 28.7152 77.2084C28.8025 77.0777 28.8417 76.9207 28.8263 76.7643V74.1273C28.7359 74.0147 28.6335 73.9124 28.5209 73.822C28.4592 73.7779 28.3878 73.7493 28.3127 73.7387V73.6277H29.4786L31.7547 76.223V74.4743C31.7717 74.2929 31.7381 74.1103 31.6576 73.9469C31.5585 73.8315 31.4199 73.7573 31.269 73.7387Z" fill="#BA0404"/>
</svg>
