<svg width="70" height="125" viewBox="0 0 70 125" fill="none" xmlns="http://www.w3.org/2000/svg">
<g clip-path="url(#clip0_57_1970)">
<path d="M41.4299 35.1743V11.1898C39.164 11.5598 36.8716 11.7416 34.576 11.7334C32.2751 11.7422 29.9774 11.5604 27.7062 11.1898V35.2383C27.6904 43.554 24.6535 51.5775 19.1667 57.7997L8.75073 69.68C3.16587 76.0608 0.0847597 84.2692 0.0839844 92.7691H0.0839844C0.0839844 101.251 3.43481 109.385 9.39933 115.382C15.3638 121.379 23.4535 124.749 31.8885 124.749H37.3271C41.5038 124.749 45.6395 123.921 49.4982 122.314C53.3569 120.707 56.863 118.352 59.8163 115.382C62.7697 112.412 65.1124 108.887 66.7107 105.007C68.309 101.127 69.1317 96.9687 69.1317 92.7691C69.1274 84.2362 66.0162 76.0001 60.3854 69.6161L49.9535 57.7677C44.4691 51.5326 41.438 43.4982 41.4299 35.1743Z" fill="#E23E05"/>
<g opacity="0.3">
<path d="M38.3446 41.4582V12.6768C37.0497 13.0576 35.7009 13.2197 34.3532 13.1565C33.021 13.2225 31.6875 13.0603 30.4094 12.6768V41.4582C30.4094 48.8295 25.6387 55.9289 20.7726 61.4453L11.5493 71.9825C6.5777 77.6396 3.83958 84.9321 3.85259 92.4813C3.8568 99.9946 6.82699 107.199 12.1106 112.512C17.3943 117.824 24.5592 120.811 32.0314 120.815H36.8021C40.5004 120.821 44.1636 120.094 47.5821 118.676C51.0006 117.257 54.1074 115.175 56.7247 112.547C59.342 109.92 61.4183 106.8 62.835 103.365C64.2517 99.9299 64.981 96.2479 64.981 92.5293C64.9832 84.9685 62.2278 77.6694 57.2365 72.0145L47.9973 61.5093C43.1153 55.9929 38.3446 48.8615 38.3446 41.4582Z" fill="#A00707"/>
</g>
<path d="M51.3371 85.238H44.6899V84.1507C44.7439 82.7824 44.5225 81.4172 44.0389 80.137C43.5554 78.8568 42.8197 77.688 41.876 76.7006C40.9322 75.7133 39.7999 74.9278 38.5468 74.3912C37.2938 73.8547 35.9459 73.5781 34.584 73.5781C33.2221 73.5781 31.8742 73.8547 30.6212 74.3912C29.3681 74.9278 28.2358 75.7133 27.292 76.7006C26.3483 77.688 25.6126 78.8568 25.1291 80.137C24.6455 81.4172 24.4241 82.7824 24.4781 84.1507V85.238H17.8309C17.2236 85.238 16.6412 85.4806 16.2117 85.9124C15.7823 86.3442 15.541 86.9298 15.541 87.5405V98.9412C15.541 99.5518 15.7823 100.137 16.2117 100.569C16.6412 101.001 17.2236 101.244 17.8309 101.244H51.3371C51.9444 101.244 52.5268 101.001 52.9563 100.569C53.3857 100.137 53.627 99.5518 53.627 98.9412V87.5405C53.627 86.9298 53.3857 86.3442 52.9563 85.9124C52.5268 85.4806 51.9444 85.238 51.3371 85.238Z" fill="#FFCF7B"/>
<path d="M51.337 83.0474H46.8207C46.53 79.9866 45.1152 77.1447 42.8526 75.0765C40.5899 73.0082 37.6418 71.8622 34.5839 71.8622C31.526 71.8622 28.5779 73.0082 26.3152 75.0765C24.0526 77.1447 22.6378 79.9866 22.3471 83.0474H17.8308C16.6457 83.0474 15.5091 83.5208 14.6711 84.3634C13.8331 85.206 13.3623 86.3489 13.3623 87.5405V98.9412C13.3665 100.13 13.8392 101.269 14.6767 102.108C15.5143 102.947 16.6485 103.418 17.8308 103.418H51.337C52.5083 103.402 53.6262 102.923 54.4501 102.086C55.2739 101.248 55.7378 100.119 55.7419 98.9412V87.5405C55.742 86.3599 55.28 85.2266 54.4557 84.3858C53.6313 83.545 52.511 83.0642 51.337 83.0474ZM53.6269 98.9412C53.6269 99.5518 53.3856 100.137 52.9562 100.569C52.5267 101.001 51.9443 101.244 51.337 101.244H17.8308C17.2235 101.244 16.6411 101.001 16.2116 100.569C15.7822 100.137 15.5409 99.5518 15.5409 98.9412V87.5405C15.5409 86.9298 15.7822 86.3442 16.2116 85.9124C16.6411 85.4806 17.2235 85.238 17.8308 85.238H24.478V84.1507C24.424 82.7824 24.6454 81.4172 25.129 80.137C25.6125 78.8568 26.3482 77.688 27.2919 76.7006C28.2357 75.7133 29.368 74.9278 30.6211 74.3912C31.8741 73.8547 33.222 73.5781 34.5839 73.5781C35.9458 73.5781 37.2937 73.8547 38.5467 74.3912C39.7998 74.9278 40.9321 75.7133 41.8759 76.7006C42.8196 77.688 43.5553 78.8568 44.0388 80.137C44.5224 81.4172 44.7438 82.7824 44.6898 84.1507V85.238H51.337C51.9443 85.238 52.5267 85.4806 52.9562 85.9124C53.3856 86.3442 53.6269 86.9298 53.6269 87.5405V98.9412Z" fill="#491A12"/>
<path d="M34.576 80.0893C33.8061 80.0925 33.0544 80.3249 32.4158 80.7573C31.7772 81.1897 31.2803 81.8026 30.9878 82.5187C30.6954 83.2348 30.6205 84.0219 30.7726 84.7808C30.9247 85.5397 31.297 86.2362 31.8425 86.7825C32.3881 87.3287 33.0823 87.7002 33.8376 87.8501C34.5929 88 35.3755 87.9215 36.0865 87.6245C36.7975 87.3275 37.405 86.8254 37.8324 86.1815C38.2598 85.5377 38.4879 84.7809 38.4879 84.0068C38.4879 83.491 38.3866 82.9803 38.1898 82.5039C37.993 82.0276 37.7046 81.595 37.3412 81.231C36.9777 80.8671 36.5463 80.5788 36.0718 80.3829C35.5973 80.187 35.0889 80.0872 34.576 80.0893Z" fill="#491A12"/>
<path d="M33.479 80.2172L33.2246 79.3858L32.7793 79.5617L33.1132 80.3451L33.479 80.2172Z" fill="#491A12"/>
<path d="M34.1625 80.0573L34.0671 79.1939H33.606L33.7809 80.0413L34.1625 80.0573Z" fill="#491A12"/>
<path d="M32.6995 80.521L32.286 79.7535L31.8726 80.0094L32.3655 80.7129L32.6995 80.521Z" fill="#491A12"/>
<path d="M31.0777 82.168L30.2985 81.7522C30.219 81.8962 30.1554 82.0401 30.0918 82.184L30.8869 82.5197C30.9664 82.3918 31.03 82.2959 31.0777 82.168Z" fill="#491A12"/>
<path d="M30.7913 82.8875L29.9643 82.6317C29.9643 82.7756 29.8848 82.9355 29.853 83.0954L30.6958 83.2553L30.7913 82.8875Z" fill="#491A12"/>
<path d="M31.5071 81.5124L30.8392 80.9687L30.5688 81.3525L31.2845 81.8162L31.5071 81.5124Z" fill="#491A12"/>
<path d="M34.9416 80.0573V79.1939H34.4805V80.0573H34.9416Z" fill="#491A12"/>
<path d="M32.0478 80.9528L31.5071 80.2972C31.3831 80.3953 31.2661 80.5022 31.1572 80.617L31.7615 81.2246L32.0478 80.9528Z" fill="#491A12"/>
<path d="M38.0429 82.104L38.8062 81.6723C38.7267 81.5444 38.6472 81.4005 38.5518 81.2726L37.8521 81.7682C37.9223 81.8762 37.9861 81.9883 38.0429 82.104Z" fill="#491A12"/>
<path d="M35.9275 79.3698L35.4823 79.2579L35.3232 80.1053C35.449 80.1201 35.5721 80.1524 35.689 80.2012L35.9275 79.3698Z" fill="#491A12"/>
<path d="M38.5038 83.5751L39.3625 83.4791C39.3451 83.3231 39.3185 83.1683 39.283 83.0154L38.4561 83.1913C38.4796 83.3181 38.4956 83.4463 38.5038 83.5751Z" fill="#491A12"/>
<path d="M38.345 82.8076L39.1719 82.5517C39.1719 82.3918 39.0606 82.2479 39.0129 82.104L38.2178 82.4398C38.2673 82.5598 38.3097 82.6826 38.345 82.8076Z" fill="#491A12"/>
<path d="M36.8026 79.7215C36.6659 79.6396 36.5222 79.57 36.3732 79.5137L36.0552 80.3292L36.405 80.4891L36.8026 79.7215Z" fill="#491A12"/>
<path d="M37.6136 81.4644L38.2656 80.9048C38.168 80.7801 38.0617 80.6625 37.9475 80.553L37.3433 81.1766C37.4449 81.2609 37.5357 81.3576 37.6136 81.4644Z" fill="#491A12"/>
<path d="M37.0568 80.9048L37.5975 80.2332L37.2158 79.9614L36.7388 80.6809L37.0568 80.9048Z" fill="#491A12"/>
<path d="M31.1095 85.8936L30.3462 86.3093C30.4217 86.4483 30.5067 86.5819 30.6006 86.709L31.3162 86.2294C31.2416 86.1211 31.1726 86.009 31.1095 85.8936Z" fill="#491A12"/>
<path d="M36.4526 87.5085L36.8502 88.276C36.9936 88.2002 37.1317 88.1147 37.2637 88.0202L36.7866 87.3007L36.4526 87.5085Z" fill="#491A12"/>
<path d="M37.645 86.5172L38.2493 87.0928C38.3547 86.9728 38.4505 86.8444 38.5355 86.709L37.8199 86.2294C37.7693 86.3298 37.7108 86.426 37.645 86.5172Z" fill="#491A12"/>
<path d="M37.0884 87.0928L37.645 87.7644L37.9948 87.4446L37.3746 86.821C37.2908 86.9232 37.1946 87.0145 37.0884 87.0928Z" fill="#491A12"/>
<path d="M30.6484 83.639L29.7896 83.5591C29.7817 83.7082 29.7817 83.8577 29.7896 84.0068H30.6484C30.6404 83.8843 30.6404 83.7615 30.6484 83.639Z" fill="#491A12"/>
<path d="M39.1558 83.9748H38.5356C38.5356 84.1027 38.5356 84.2306 38.5356 84.3586L39.3785 84.4545C39.387 84.2894 39.387 84.1239 39.3785 83.9588L39.1558 83.9748Z" fill="#491A12"/>
<path d="M35.0688 87.9562L35.1484 88.8197H35.6095L35.4505 87.9722L35.0688 87.9562Z" fill="#491A12"/>
<path d="M38.3608 85.158L39.1878 85.4139C39.1878 85.254 39.2673 85.1101 39.2991 84.9502L38.4563 84.7743C38.4396 84.9055 38.4076 85.0344 38.3608 85.158Z" fill="#491A12"/>
<path d="M38.0747 85.8776L38.8221 86.2773C38.9005 86.1437 38.9696 86.0048 39.0288 85.8616L38.2496 85.4938C38.1992 85.6252 38.1408 85.7534 38.0747 85.8776Z" fill="#491A12"/>
<path d="M35.7368 87.8123L35.9913 88.6278L36.4365 88.4679L36.1026 87.6684L35.7368 87.8123Z" fill="#491A12"/>
<path d="M31.5387 86.5332L30.8867 87.0928C30.9821 87.2207 31.0934 87.3326 31.1889 87.4446L31.8091 86.821C31.7074 86.7367 31.6166 86.64 31.5387 86.5332Z" fill="#491A12"/>
<path d="M30.8074 85.174L29.9805 85.4938C29.9805 85.6377 30.0918 85.7816 30.1554 85.9256L30.9346 85.4938C30.8849 85.3903 30.8424 85.2835 30.8074 85.174Z" fill="#491A12"/>
<path d="M34.2104 87.9562L34.1309 88.8197H34.592V87.9562H34.2104Z" fill="#491A12"/>
<path d="M30.648 84.4225L29.8052 84.5025C29.8052 84.6624 29.8052 84.8223 29.8052 84.9822L30.648 84.8063C30.6404 84.6785 30.6404 84.5503 30.648 84.4225Z" fill="#491A12"/>
<path d="M33.2085 88.6918L33.6538 88.8037L33.8287 87.9562L33.4788 87.8123L33.2085 88.6918Z" fill="#491A12"/>
<path d="M32.0954 87.0928L31.5547 87.7644L31.9204 88.0362L32.3975 87.3167C32.2904 87.2512 32.1893 87.1763 32.0954 87.0928Z" fill="#491A12"/>
<path d="M32.334 88.276L32.7633 88.4839L33.0814 87.6844L32.7315 87.5245L32.334 88.276Z" fill="#491A12"/>
<path d="M26.8637 85.4938C26.8637 85.3339 26.8637 85.19 26.8637 85.0461C26.8637 84.9022 26.8637 84.9022 26.8637 84.7743C26.8637 84.6464 26.8637 84.5664 26.8637 84.5345C26.8375 84.3269 26.8706 84.1162 26.9591 83.9268C26.9926 83.8619 27.0426 83.8069 27.1041 83.7676C27.1655 83.7283 27.2362 83.706 27.3089 83.703C27.5634 83.703 27.7383 83.8309 27.8496 84.1187C27.8523 83.9704 27.9089 83.8282 28.0086 83.719C28.0521 83.6686 28.1058 83.6282 28.1662 83.6006C28.2266 83.573 28.2922 83.5589 28.3585 83.5591C28.453 83.5496 28.5483 83.5653 28.6348 83.6046C28.7213 83.6439 28.7961 83.7054 28.8515 83.7829C28.9855 83.9929 29.0573 84.237 29.0582 84.4865V84.6624C29.0508 84.7475 29.0508 84.8331 29.0582 84.9182C29.0497 85.062 29.0497 85.2061 29.0582 85.3499H28.9787L28.8992 85.1421H28.597H27.3566H27.1181V85.3499L26.8637 85.4938ZM27.786 84.7103C27.786 84.7103 27.786 84.6144 27.786 84.5664C27.7874 84.5134 27.7782 84.4607 27.7591 84.4113C27.74 84.3619 27.7113 84.3168 27.6747 84.2786C27.583 84.2167 27.475 84.1837 27.3646 84.1837C27.2542 84.1837 27.1462 84.2167 27.0545 84.2786C27.0201 84.3172 26.995 84.3632 26.9812 84.4131C26.9674 84.4631 26.9652 84.5155 26.975 84.5664V84.6464L27.786 84.7103ZM27.9132 84.7103H28.8515V84.5185C28.8441 84.3979 28.7932 84.2842 28.7083 84.1987C28.6002 84.1271 28.4717 84.0934 28.3426 84.1027C28.2801 84.1027 28.2183 84.1155 28.1609 84.1402C28.1035 84.165 28.0517 84.2012 28.0086 84.2466C27.9659 84.2966 27.935 84.3556 27.9185 84.4194C27.902 84.4831 27.9002 84.5498 27.9132 84.6144V84.7103Z" fill="#E23E05"/>
<path d="M26.9746 82.5197L27.1177 82.136L27.3085 81.3845L27.7856 81.6083V81.7043H27.404L27.2449 82.2799L28.04 82.4878C28.04 82.4078 28.04 82.3119 28.04 82.2159C28.04 82.12 28.04 82.2159 28.04 82.2159L27.8492 82.104V82.0081L28.1673 82.088L28.4853 82.184V82.2799H28.2627C28.2288 82.3736 28.2023 82.4699 28.1832 82.5677L28.7079 82.7116L29.026 82.7916L29.185 82.184L28.8511 81.8961V81.8002L29.4076 81.9761L29.2168 82.7116L29.1055 83.1114L29.0101 83.5111H28.9306V83.2553H28.7875H28.6284L27.4358 82.9355H27.2926H27.1813L27.07 83.1274H26.9905C26.8951 82.7756 26.9269 82.6477 26.9746 82.5197Z" fill="#E23E05"/>
<path d="M28.247 79.8335L28.1039 79.9934C28.0746 80.0871 28.0746 80.1875 28.1039 80.2812C28.113 80.3299 28.1318 80.3762 28.1591 80.4174C28.1864 80.4587 28.2217 80.4939 28.2629 80.521C28.3147 80.5371 28.3701 80.5371 28.422 80.521H28.5651H28.7241L28.8672 80.4091L29.058 80.2972H29.2489H29.4715L29.71 80.3931C29.7926 80.4418 29.8628 80.5089 29.9152 80.5894C29.9676 80.6698 30.0008 80.7613 30.0122 80.8568C30.0173 81.0776 29.9563 81.2948 29.8373 81.4804C29.7377 81.642 29.6144 81.7876 29.4715 81.9121L29.0421 81.5604V81.4644L29.5033 81.6083C29.5732 81.5562 29.6326 81.491 29.6782 81.4165C29.7415 81.3227 29.7696 81.2094 29.7578 81.0967C29.7496 81.0477 29.7312 81.001 29.7038 80.9596C29.6764 80.9183 29.6406 80.8832 29.5987 80.8568H29.4397C29.3879 80.8408 29.3325 80.8408 29.2807 80.8568H29.1217L28.9785 80.9528L28.7877 81.0647C28.7247 81.0772 28.6599 81.0772 28.5969 81.0647C28.5299 81.0878 28.4571 81.0878 28.3902 81.0647C28.3119 81.085 28.2298 81.085 28.1516 81.0647C28.0707 81.0198 28.0022 80.9554 27.9522 80.8772C27.9022 80.7991 27.8724 80.7096 27.8654 80.617C27.8514 80.4075 27.9074 80.1993 28.0244 80.0254C28.12 79.8747 28.232 79.7353 28.3584 79.6096L28.7241 79.9454V80.0254L28.247 79.8335Z" fill="#E23E05"/>
<path d="M30.8071 79.9454L30.4255 80.3132L30.5527 80.1053L30.2982 79.7375L29.2646 78.6183L28.9306 78.9221L29.1056 79.3378L28.708 79.002L29.2646 78.5063L29.5826 78.2185L30.1074 77.7068L30.4255 78.2025L30.0597 77.9627L29.7417 78.2665L30.7594 79.3858L30.9661 79.6096L31.1888 79.4977L30.8071 79.9454Z" fill="#E23E05"/>
<path d="M34.4011 78.5703C34.2579 78.8581 34.1307 79.018 33.9876 79.05C33.8335 79.1062 33.6646 79.1062 33.5105 79.05C33.331 78.9627 33.1815 78.8235 33.0812 78.6502C32.7996 78.7585 32.4881 78.7585 32.2065 78.6502C31.9546 78.4848 31.7775 78.2264 31.7136 77.9307C31.6532 77.7892 31.6221 77.6369 31.6221 77.483C31.6221 77.3291 31.6532 77.1767 31.7136 77.0353C31.7996 76.8959 31.9131 76.7757 32.0471 76.6822C32.1812 76.5887 32.3328 76.5238 32.4928 76.4916C32.6305 76.4304 32.7795 76.3988 32.9301 76.3988C33.0807 76.3988 33.2297 76.4304 33.3674 76.4916C33.493 76.565 33.6018 76.6641 33.6868 76.7826C33.7717 76.9011 33.8309 77.0362 33.8604 77.1792C33.9735 77.4558 33.9735 77.766 33.8604 78.0426C33.8021 78.17 33.7184 78.2841 33.6144 78.3776C33.5105 78.4711 33.3885 78.5421 33.2561 78.5863C33.3514 78.6731 33.469 78.7311 33.5956 78.7538C33.7222 78.7764 33.8525 78.7627 33.9717 78.7142C34.1235 78.6982 34.2701 78.6491 34.4011 78.5703ZM32.2543 77.7388C32.3179 77.9948 32.4435 78.2311 32.62 78.4264C32.6918 78.4893 32.7776 78.5338 32.8702 78.556C32.9628 78.5782 33.0594 78.5774 33.1517 78.5539C33.2439 78.5303 33.3291 78.4845 33.4 78.4205C33.4708 78.3566 33.5251 78.2763 33.5582 78.1865C33.5853 77.9543 33.5581 77.7188 33.4787 77.499C33.4295 77.2457 33.308 77.0123 33.1289 76.8274C33.059 76.7584 32.9709 76.7112 32.8749 76.6913C32.779 76.6715 32.6795 76.6799 32.5882 76.7155C32.4962 76.7318 32.4105 76.7732 32.3403 76.8353C32.2702 76.8973 32.2184 76.9776 32.1906 77.0673C32.1641 77.2931 32.1858 77.5221 32.2543 77.7388Z" fill="#E23E05"/>
<path d="M37.168 78.2345L36.9454 78.4424C36.902 78.4661 36.864 78.4988 36.8341 78.5383L36.9454 78.6502L36.6273 78.4744L36.3252 78.3145H36.5001H36.6114H36.7068L38.2971 76.9873H38.4561L38.1062 79.098C38.0899 79.1554 38.0899 79.2164 38.1062 79.2738L38.2176 79.3858L37.8359 79.1779L37.3747 79.098V79.018H37.5338C37.5274 78.9703 37.5274 78.9219 37.5338 78.8741V78.5703L37.168 78.2345ZM37.8677 77.5949L37.7405 77.7069L37.2952 78.1226L37.7564 78.3464L37.8518 77.7708C37.8518 77.7708 37.8677 77.6429 37.8677 77.5949Z" fill="#E23E05"/>
<path d="M39.8398 78.8581L38.9652 79.7216L38.7266 79.9614L39.156 80.4091L39.6172 80.2332H39.6967L39.2196 80.633L38.6948 80.1053L38.4245 79.8335L38.1064 79.5297L38.2814 79.6256L38.3768 79.5297L38.504 79.4018L39.3786 78.5223L39.474 78.4264H39.5536L39.4581 78.2505L39.7921 78.5863C39.9034 78.7142 40.0306 78.8261 40.126 78.9221L39.9511 78.8261L39.8398 78.9381V78.8581Z" fill="#E23E05"/>
<path d="M40.11 81.1766L39.9669 81.2566H39.8396V81.4644C39.8396 81.3365 39.6965 81.2086 39.6011 81.0487L39.3467 80.633L39.5057 80.7769H39.6329L39.776 80.6969L40.8256 80.0573H40.9528H41.0482V79.8495H41.1277C41.1277 79.9774 41.2709 80.1053 41.3663 80.2652C41.444 80.408 41.5289 80.5468 41.6207 80.6809H41.5412L41.3981 80.521H41.2868H41.1754L40.11 81.1766Z" fill="#E23E05"/>
<path d="M40.1417 82.5677L39.9985 82.072L40.1417 82.2959C40.2398 82.2802 40.3358 82.2533 40.4279 82.2159L41.8909 81.8002L41.7637 81.3685H41.3343L41.8909 81.1766C41.8909 81.4324 42.0181 81.6563 42.0817 81.8802L42.209 82.3119L42.4157 83.0154H41.8273L42.209 82.7916L42.1294 82.2959L40.6823 82.7116L40.3961 82.8076V83.0634L40.1417 82.5677Z" fill="#E23E05"/>
<path d="M34.5762 2.53935C30.2985 2.53935 26.9272 2.17159 26.9272 1.72388V12.1811C26.9272 12.6288 30.3621 13.2364 34.5762 13.2364C38.7904 13.2364 42.2252 12.6288 42.2252 12.1811V1.72388C42.2252 2.17159 38.8063 2.53935 34.5762 2.53935Z" fill="#020407"/>
<path d="M34.5762 0.748505C30.2985 0.748505 26.9272 1.18023 26.9272 1.72388C26.9272 2.26752 30.3621 2.69925 34.5762 2.69925C38.7904 2.69925 42.2252 2.34747 42.2252 1.72388C42.2252 1.10028 38.8063 0.748505 34.5762 0.748505Z" fill="#4B4B4D"/>
<path d="M43.3223 67.6334C40.7621 65.1869 37.2159 64.1636 34.0354 62.6126C30.855 61.0616 27.6745 58.4233 27.4678 54.8736C27.3724 53.2746 27.8812 51.3559 26.9112 50.0767L18.149 62.7565C13.856 66.4111 10.1683 70.7289 7.22417 75.5482C3.51424 81.5741 1.87191 88.657 2.5489 95.7112C3.43943 102.715 7.17647 110.006 13.3625 113.3C12.2175 110.917 11.8994 109.494 10.9612 107.208C7.57402 98.9891 8.32143 87.6684 13.1716 80.1853C15.624 76.4342 19.0032 73.3878 22.9783 71.3444C26.9534 69.3011 31.3882 68.3309 35.8483 68.5288C38.09 68.7241 40.3161 69.0713 42.5113 69.5681C42.7229 69.648 42.9506 69.6752 43.1749 69.6474C43.3992 69.6195 43.6135 69.5375 43.7994 69.4082C44.2765 68.9285 43.8153 68.113 43.3223 67.6334Z" fill="#F9480B"/>
<path d="M31.507 22.8942C31.507 20.5437 31.8886 17.4897 30.5846 15.539C30.4062 15.2156 30.1097 14.9747 29.7577 14.8674C29.392 14.8674 28.9626 15.0912 29.0421 15.459C29.0421 15.459 29.71 17.058 29.0421 44.944C27.6427 50.1886 30.4733 47.0546 30.6323 45.8074C32.0317 38.5001 31.6342 30.3294 31.507 22.8942Z" fill="#FC3508"/>
<g opacity="0.3">
<path d="M30.6481 23.5818C30.8308 21.1242 30.6648 18.653 30.1552 16.2425C30.0438 15.9387 29.9007 15.6349 29.7099 15.555C29.5191 15.475 29.2964 15.7948 29.3282 16.1466C29.3282 16.1466 29.694 17.7455 29.3282 45.6315C28.5808 50.8762 30.0915 47.7582 30.2188 46.511C30.7523 38.8803 30.8956 31.2272 30.6481 23.5818Z" fill="white"/>
</g>
<g opacity="0.6">
<path d="M67.3027 86.5971C65.9033 79.4018 61.7051 73.9173 57.2525 68.129C52.7998 62.3408 47.8701 57.7677 44.5307 51.2599C42.761 47.6883 41.6152 43.8373 41.1435 39.8753C40.5551 30.905 41.3343 19.0887 41.3661 12.5969C40.3643 12.9167 39.2034 12.8367 38.0425 13.1085C37.7245 13.1085 34.5758 13.2364 36.7862 17.2019C38.2174 19.7602 38.2493 22.8462 38.456 25.7564C38.6786 29.2101 38.9171 32.6479 39.1557 36.1017C39.5262 39.2977 39.419 42.5314 38.8376 45.6955C38.372 47.6271 37.5523 49.4545 36.4205 51.084C35.9371 51.6325 35.6223 52.3101 35.5141 53.0348C35.5141 54.4099 36.9771 55.2254 38.2334 55.785C51.305 61.7491 59.3039 76.3477 59.5583 90.7704C59.7403 94.7884 58.9776 98.7929 57.332 102.459C54.7767 107.07 50.8971 110.798 46.2004 113.156C38.0743 117.729 29.01 121.151 20.5977 117.057C11.5334 112.676 14.8252 116.482 23.1421 120.527C32.922 125.324 47.9814 123.453 56.5369 116.818C65.0923 110.182 69.3859 97.3102 67.3027 86.5971Z" fill="#950909"/>
</g>
<g opacity="0.7">
<path d="M24.494 58.4073C24.4234 58.2854 24.327 58.1806 24.2115 58.1005C24.0961 58.0203 23.9645 57.9668 23.8261 57.9436C23.4952 57.9798 23.192 58.1466 22.9833 58.4073C22.3313 59.0949 21.6634 59.7664 21.0114 60.438L22.8402 58.5992C19.2622 62.6126 15.6683 66.594 12.3288 70.8473C9.91162 73.9333 7.55809 77.2431 6.90609 81.1446C6.81068 81.7522 6.90609 82.5357 7.44677 82.7436C10.2774 77.499 13.267 72.0625 18.1331 68.6407C20.0965 67.5383 21.9313 66.219 23.6035 64.7072C25.1142 62.9484 25.8616 60.2301 24.494 58.4073Z" fill="white"/>
<path d="M6.07912 90.1948C6.15837 89.7345 6.15837 89.264 6.07912 88.8037C6.04443 88.5744 5.93777 88.3623 5.77469 88.1984C5.61162 88.0344 5.40068 87.9272 5.17269 87.8923C4.6515 89.6817 4.59674 91.5759 5.01366 93.3927C4.62869 96.3146 5.31863 99.2772 6.95374 101.723C7.1362 101.431 7.25468 101.103 7.30129 100.761C7.3479 100.419 7.32158 100.071 7.22408 99.7406C6.76291 96.5587 5.61795 93.3767 6.07912 90.1948Z" fill="white"/>
</g>
<g opacity="0.2">
<path d="M64.6949 86.5811C65.1725 91.2092 64.6165 95.8861 63.0676 100.271C61.5187 104.655 59.016 108.637 55.7419 111.925C52.4773 115.198 48.518 117.685 44.161 119.2C39.804 120.714 35.1624 121.218 30.5845 120.671C35.2322 122.059 40.1706 122.13 44.8561 120.878C49.5417 119.625 53.7927 117.097 57.1413 113.572C60.4056 109.976 62.7886 105.663 64.1002 100.977C65.4117 96.2904 65.6153 91.3607 64.6949 86.5811Z" fill="white"/>
</g>
<g opacity="0.5">
<path d="M41.4297 17.8095V12.5969C39.1971 13.0637 36.9195 13.2782 34.6394 13.2364C32.3101 13.2884 29.9827 13.063 27.7061 12.5649V14.1638C29.7765 14.7762 31.9116 15.1411 34.067 15.2511C36.72 15.3465 39.2841 16.2375 41.4297 17.8095Z" fill="#42210B"/>
</g>
<path d="M19.4369 93.2488C19.4369 92.3054 19.4369 92.1295 19.4369 91.9217C19.4369 91.7138 19.3415 91.5539 19.1665 91.5379H18.928C18.8326 91.5379 18.8008 91.5379 18.8008 91.5379C18.8008 91.5379 18.8008 91.5379 18.928 91.5379H21.0112C22.3788 91.5379 22.6014 92.1775 22.6014 92.5293C22.5866 92.7681 22.5038 92.9976 22.3628 93.1904C22.2218 93.3832 22.0286 93.5312 21.8063 93.6166C22.1443 93.6711 22.4534 93.8405 22.6821 94.0966C22.9107 94.3527 23.0451 94.68 23.0626 95.0237C23.0626 95.7432 22.3947 96.4468 21.1066 96.4468H19.9298H19.0075C18.9121 96.4468 18.8803 96.4468 18.8803 96.4468C18.8803 96.4468 18.8803 96.4468 19.0075 96.4468H19.1983C19.3097 96.4468 19.3733 96.3348 19.4051 96.095C19.4369 95.8551 19.4051 95.3595 19.4051 94.496L19.4369 93.2488ZM20.55 94.3521C20.55 94.6719 20.55 95.1196 20.55 95.4554C20.55 95.7912 20.55 95.7432 20.7091 95.8072C20.8417 95.8754 20.9895 95.9084 21.1384 95.9031C21.4724 95.9031 21.8699 95.6793 21.8699 95.0237C21.8807 94.8406 21.8522 94.6573 21.7864 94.4862C21.7205 94.3152 21.6188 94.1604 21.4883 94.0323C21.4107 93.9553 21.3189 93.8945 21.2179 93.8534C21.1169 93.8122 21.0088 93.7915 20.8999 93.7925H20.5818L20.55 94.3521ZM20.55 93.3288H20.9476C21.084 93.3385 21.2194 93.2988 21.3292 93.2168C21.4081 93.138 21.469 93.0428 21.5074 92.9378C21.5459 92.8328 21.561 92.7207 21.5519 92.6092C21.5519 92.0816 21.2974 91.6339 20.7886 91.6339H20.55C20.55 91.6339 20.55 91.6339 20.55 91.7618V93.3288Z" fill="#870202"/>
<path d="M24.2554 93.2488C24.2554 92.2575 24.2554 92.1295 24.2554 91.9217C24.2554 91.7138 24.16 91.5699 24.001 91.5379H23.7466H23.6353C23.6353 91.5379 23.6353 91.5379 23.7784 91.5379H25.798C26.2444 91.5028 26.6924 91.5797 27.102 91.7618C27.2839 91.8533 27.436 91.9953 27.5403 92.1709C27.6446 92.3466 27.6966 92.5487 27.6903 92.7531C27.6802 93.0277 27.5946 93.2941 27.443 93.5227C27.2914 93.7513 27.0798 93.9333 26.8316 94.0483C27.2196 94.6408 27.639 95.2119 28.0879 95.7592C28.4218 96.1429 28.5809 96.2549 28.7558 96.2869H28.9148C28.9943 96.2869 29.0261 96.2869 29.0261 96.2869C29.0261 96.2869 29.0261 96.2869 28.8989 96.2869H28.3264C27.9083 96.3422 27.4837 96.258 27.1179 96.047C26.841 95.8358 26.6177 95.5619 26.4659 95.2475C26.1637 94.7518 26.0206 94.496 25.8934 94.3201C25.7662 94.1442 25.8934 94.3201 25.8934 94.3201H25.4799V94.6399C25.46 95.0021 25.46 95.3651 25.4799 95.7272C25.4799 95.9031 25.4799 96.031 25.7185 96.079C25.8189 96.0886 25.9201 96.0886 26.0206 96.079C26.116 96.079 26.1319 96.079 26.1319 96.079C26.1319 96.079 26.1319 96.079 25.9888 96.079H23.8261C23.7148 96.079 23.683 96.079 23.683 96.079C23.683 96.079 23.683 96.079 23.8102 96.079H24.0169C24.16 96.079 24.2077 95.9351 24.2236 95.7112C24.2395 95.4874 24.2236 94.9917 24.2236 94.3681L24.2554 93.2488ZM25.3686 93.6965C25.3615 93.7115 25.3579 93.7279 25.3579 93.7445C25.3579 93.7611 25.3615 93.7775 25.3686 93.7925C25.5255 93.8538 25.6935 93.881 25.8616 93.8724C26.0079 93.8817 26.1532 93.8424 26.275 93.7605C26.3725 93.6505 26.4456 93.5209 26.4895 93.3803C26.5333 93.2397 26.547 93.0913 26.5295 92.945C26.5295 92.0336 25.9411 91.7938 25.6071 91.7938C25.5233 91.7751 25.4365 91.7751 25.3527 91.7938L25.3686 93.6965Z" fill="#870202"/>
<path d="M30.0122 94.9277L29.8213 95.4554C29.7658 95.5883 29.7283 95.7281 29.71 95.8711C29.71 95.9991 29.71 96.047 29.9009 96.063H30.1394C30.2348 96.063 30.2507 96.063 30.2507 96.063C30.2507 96.063 30.2507 96.063 30.1076 96.063H28.5174C28.4219 96.063 28.3901 96.063 28.3901 96.063C28.3901 96.063 28.3901 96.063 28.5015 96.063H28.7082C28.9308 96.063 29.058 95.8232 29.2012 95.5034L30.9186 91.6019C31.0458 91.3301 31.1094 91.2341 31.173 91.2341C31.2366 91.2341 31.3003 91.3141 31.4116 91.5539C31.5229 91.7938 32.6519 94.3841 33.0972 95.3755C33.3198 95.8711 33.463 96.031 33.6856 96.063H33.8923C33.9718 96.063 34.0036 96.063 34.0036 96.063C34.0036 96.063 34.0036 96.063 33.8446 96.063H31.8886C31.7932 96.063 31.7455 96.063 31.7455 96.063C31.7455 96.063 31.7455 96.063 31.8409 96.063C31.9363 96.063 31.9363 96.063 31.9204 95.9511L31.4911 94.9277H30.0122ZM31.3003 94.4161L30.7278 93.025L30.1871 94.4161H31.3003Z" fill="#870202"/>
<path d="M34.3376 91.6019C34.3376 91.394 34.3376 91.2821 34.4489 91.2821C34.5602 91.2821 34.5284 91.2821 34.7034 91.442C34.8783 91.6019 35.3076 91.9856 36.7707 93.3448C37.4385 93.9524 37.8838 94.3841 38.0428 94.544V92.1136C38.0428 91.7618 38.0428 91.5859 37.7407 91.5379H37.4545C37.3749 91.5379 37.3431 91.5379 37.3431 91.5379C37.3431 91.5379 37.3431 91.5379 37.4704 91.5379H39.1401C39.2355 91.5379 39.2832 91.5379 39.2832 91.5379C39.2832 91.5379 39.2832 91.5379 39.1719 91.5379H39.0129C38.7902 91.5379 38.7266 91.6658 38.7107 92.0656C38.7107 93.3608 38.7107 94.6559 38.6312 95.9511C38.6312 96.2869 38.6312 96.3668 38.504 96.3668C38.3768 96.3668 38.2019 96.2069 37.7884 95.8392C37.3749 95.4714 36.7866 94.9437 36.4049 94.576C36.0232 94.2082 35.4031 93.6486 34.926 93.1849V95.3914C34.926 95.8551 34.926 96.031 35.1486 96.095C35.2597 96.105 35.3715 96.105 35.4826 96.095C35.578 96.095 35.6098 96.095 35.6098 96.095C35.6098 96.095 35.6098 96.095 35.4667 96.095H33.781C33.7015 96.095 33.6538 96.095 33.6538 96.095C33.6538 96.095 33.6538 96.095 33.7651 96.095H33.9878C34.2263 96.095 34.2581 95.8871 34.2899 95.2795C34.3217 93.9843 34.3058 92.4333 34.3376 91.6019Z" fill="#870202"/>
<path d="M40.4279 93.2488C40.4279 92.3054 40.4279 92.1295 40.4279 91.9217C40.4279 91.7138 40.4279 91.5539 40.1416 91.5379H39.9031C39.8077 91.5379 39.7759 91.5379 39.7759 91.5379C39.7759 91.5379 39.7759 91.5379 39.919 91.5379H42.0022C42.4548 91.4828 42.9139 91.521 43.3514 91.6502C43.7888 91.7794 44.1955 91.9969 44.5466 92.2894C44.7509 92.5008 44.9111 92.7512 45.0176 93.0258C45.1241 93.3004 45.1748 93.5937 45.1668 93.8884C45.17 94.5486 44.9193 95.1846 44.4671 95.6633C44.1731 95.9404 43.8243 96.1521 43.4434 96.2843C43.0624 96.4166 42.658 96.4665 42.2566 96.4308C42.029 96.4478 41.8005 96.4478 41.5728 96.4308H40.9367H39.9985C39.8872 96.4308 39.8713 96.4308 39.8713 96.4308C39.8713 96.4308 39.8713 96.4308 39.9985 96.4308H40.1893C40.3325 96.4308 40.3961 96.2869 40.412 96.031C40.4279 95.7752 40.412 95.2635 40.412 94.7199L40.4279 93.2488ZM41.5569 93.9843C41.5569 94.6719 41.5569 95.1036 41.5569 95.2315C41.5569 95.3595 41.5569 95.6313 41.6683 95.6952C41.7573 95.7791 41.8625 95.8436 41.9774 95.8849C42.0923 95.9262 42.2144 95.9432 42.3361 95.9351C42.5504 95.9497 42.7652 95.9172 42.9656 95.8399C43.1661 95.7625 43.3474 95.6423 43.497 95.4874C43.8443 95.0322 43.9986 94.4575 43.9264 93.8884C43.9219 93.3529 43.7494 92.8325 43.4334 92.4014C43.2581 92.1767 43.0333 91.9961 42.7766 91.874C42.5199 91.7519 42.2384 91.6916 41.9545 91.6978C41.8388 91.6765 41.7203 91.6765 41.6046 91.6978C41.6046 91.6978 41.6046 91.6978 41.6046 91.8098C41.6046 91.9217 41.6046 92.4973 41.6046 93.025L41.5569 93.9843Z" fill="#870202"/>
<path d="M47.1866 94.592C47.1997 94.3502 47.1386 94.1102 47.0117 93.9044C46.7732 93.4567 46.1371 92.4014 45.9145 92.0656C45.6918 91.7298 45.6123 91.6019 45.4056 91.5379H45.2307H45.1353C45.1353 91.5379 45.1353 91.5379 45.2625 91.5379H47.1707C47.2503 91.5379 47.298 91.5379 47.298 91.5379C47.298 91.5379 47.298 91.5379 47.1707 91.6339C47.0435 91.7298 46.964 91.6339 46.964 91.7618C46.9479 91.8247 46.9479 91.8907 46.964 91.9537L47.9818 93.7605C48.3634 93.025 48.7133 92.3854 48.8405 92.1615C48.8948 92.0631 48.9273 91.954 48.9359 91.8417C48.9359 91.8417 48.9359 91.7138 48.7133 91.6818C48.4906 91.6499 48.602 91.6818 48.602 91.6019C48.602 91.5219 48.602 91.6019 48.7451 91.6019H50.2081C50.2876 91.6019 50.3353 91.6019 50.3353 91.6019C50.3353 91.6019 50.3353 91.6019 50.2081 91.6019H49.9536C49.7787 91.6019 49.7151 91.7778 49.6038 91.9217C49.1434 92.6018 48.7291 93.3123 48.3634 94.0483C48.2967 94.2492 48.2645 94.4601 48.268 94.6719V95.0876C48.268 95.1996 48.268 95.4554 48.268 95.7272C48.268 95.9991 48.268 96.047 48.5383 96.095C48.6548 96.1028 48.7717 96.1028 48.8882 96.095C48.9677 96.095 48.9995 96.095 48.9995 96.095C48.9995 96.095 48.9995 96.095 48.8564 96.095H46.7414C46.646 96.095 46.6142 96.095 46.6142 96.015C46.6142 95.9351 46.6142 96.015 46.7255 96.015H46.9481C47.123 96.015 47.1548 95.8551 47.1707 95.6633C47.1866 95.4714 47.1707 95.1036 47.1707 94.9917L47.1866 94.592Z" fill="#870202"/>
</g>
<defs>
<clipPath id="clip0_57_1970">
<rect width="69" height="124" fill="white" transform="translate(0.0839844 0.748505)"/>
</clipPath>
</defs>
</svg>
