<svg width="52" height="124" viewBox="0 0 52 124" fill="none" xmlns="http://www.w3.org/2000/svg">
<path d="M49.6815 112.196L51.6401 42.091C51.6894 40.4228 51.1663 38.788 50.1579 37.4583C49.1494 36.1286 47.7163 35.184 46.0967 34.7814L39.2594 33.0327C38.0955 32.2022 37.1471 31.1054 36.4931 29.8339C35.8391 28.5624 35.4985 27.153 35.4997 25.7232V1.64377H16.1417V25.7757C16.1429 27.2055 15.8023 28.6149 15.1483 29.8864C14.4943 31.1579 13.5458 32.2546 12.382 33.0852L5.54462 34.8339C3.93713 35.2402 2.51442 36.1785 1.50794 37.4962C0.501469 38.8138 -0.0295511 40.4332 0.00126985 42.091L1.97729 112.196L1.64504 114.784C1.04854 115.809 0.734749 116.973 0.73572 118.159C0.73572 121.744 2.18713 124.035 9.47917 124H41.795C47.8629 124 51.0455 122.094 50.9056 118.159C50.9128 116.975 50.605 115.81 50.0138 114.784L49.6815 112.196Z" fill="#8DC8FC"/>
<g opacity="0.2">
<path d="M18.223 22.1734V27.8217C18.223 30.6196 15.8623 33.2426 13.7464 34.8164L7.591 36.4427C6.10082 36.8885 4.80174 37.8183 3.89916 39.0851C2.99657 40.3519 2.54198 41.8834 2.60724 43.4375L4.35593 110.937L4.05865 113.438C3.51319 114.434 3.23036 115.554 3.23676 116.69C3.23676 120.187 4.53079 122.338 11.0359 122.321H40.2216C45.66 122.321 48.5278 120.572 48.4054 116.69C48.409 115.556 48.1327 114.439 47.601 113.438L47.2163 111.024L48.965 43.5249C49.0303 41.9708 48.5757 40.4393 47.6731 39.1725C46.7705 37.9058 45.4714 36.9759 43.9812 36.5301L37.8258 34.9038C35.7099 33.2776 33.3317 30.6545 33.3317 27.9091V22.1734C30.8217 22.6348 28.2768 22.8805 25.7249 22.9078C23.2092 22.8553 20.7012 22.6097 18.223 22.1734Z" fill="#0E76A5"/>
</g>
<path d="M25.8293 0C20.4784 0 16.1416 0.73445 16.1416 1.64377C16.1455 1.69234 16.1601 1.73944 16.1843 1.78175C16.2085 1.82406 16.2417 1.86053 16.2815 1.88858C16.9985 2.6755 20.9855 3.28754 25.8293 3.28754C30.6732 3.28754 34.6602 2.6755 35.3772 1.88858C35.448 1.8258 35.4919 1.7381 35.4996 1.64377C35.4996 0.73445 31.1628 0 25.8293 0Z" fill="#17272D"/>
<path d="M25.8293 3.28755C20.933 3.28755 16.8761 2.67551 16.1416 1.8886V11.2266C16.8761 12.0135 20.933 12.6081 25.8293 12.6081C30.7257 12.6081 34.7651 12.0135 35.4996 11.2266V1.8886C34.7651 2.67551 30.7257 3.28755 25.8293 3.28755Z" fill="#030506"/>
<path d="M25.8119 11.4364C20.9155 11.4364 16.8761 10.8419 16.1416 10.055V18.9383C16.8761 19.7252 20.9155 20.3198 25.8119 20.3198C30.7082 20.3198 34.7652 19.7252 35.4821 18.9383V10.055C34.7652 10.8419 30.7082 11.4364 25.8119 11.4364Z" fill="#030506"/>
<path d="M25.8294 13.9895C27.8404 13.9895 33.6286 13.6573 35.8494 12.5381C35.9346 12.4892 36.0043 12.4174 36.0507 12.3309C36.0971 12.2443 36.1182 12.1465 36.1117 12.0485L36.0068 10.3872C36.0019 10.3093 35.9796 10.2334 35.9416 10.1651C35.9035 10.0969 35.8508 10.038 35.7871 9.99274C35.7234 9.94749 35.6504 9.91704 35.5735 9.9036C35.4965 9.89016 35.4175 9.89408 35.3423 9.91507C32.335 10.7815 29.2213 11.2229 26.0917 11.2266H25.5496C22.4224 11.2075 19.3095 10.8022 16.2816 10.02C16.2073 9.99864 16.1291 9.99454 16.053 10.008C15.977 10.0215 15.9049 10.0522 15.8425 10.0977C15.7801 10.1433 15.7289 10.2025 15.6929 10.2708C15.6568 10.3392 15.6369 10.4149 15.6346 10.4921L15.5121 12.066C15.5048 12.1553 15.5221 12.2449 15.5622 12.3251C15.6023 12.4053 15.6636 12.4729 15.7395 12.5206C17.6106 13.5523 23.8184 13.9895 25.8294 13.9895Z" fill="#02254F"/>
<path d="M25.812 22.9078C27.8405 22.9078 33.6287 22.5581 35.832 21.4564C35.9202 21.411 35.9925 21.3398 36.0393 21.2524C36.0861 21.165 36.1053 21.0654 36.0943 20.9668L36.0069 19.2181C36.0027 19.1404 35.9807 19.0646 35.9425 18.9967C35.9044 18.9289 35.8511 18.8707 35.7868 18.8267C35.7226 18.7828 35.6491 18.7542 35.572 18.7432C35.4949 18.7322 35.4163 18.7392 35.3424 18.7634C32.3345 19.6269 29.2212 20.0683 26.0918 20.075H25.5497C22.4224 20.0573 19.3093 19.652 16.2817 18.8684C16.209 18.8443 16.1319 18.837 16.056 18.847C15.9801 18.857 15.9075 18.8841 15.8436 18.9261C15.7797 18.9682 15.7261 19.0242 15.6869 19.0899C15.6477 19.1556 15.6238 19.2293 15.6172 19.3055L15.4947 20.8794C15.484 20.9715 15.4997 21.0648 15.5399 21.1484C15.5802 21.232 15.6433 21.3024 15.7221 21.3515C17.6107 22.4707 23.8185 22.9078 25.812 22.9078Z" fill="#02254F"/>
<g opacity="0.2">
<path d="M41.725 112.318H9.91636C9.22639 112.314 8.56514 112.042 8.07238 111.559C7.57962 111.076 7.29398 110.42 7.27583 109.73L5.82442 43.9271C5.81503 43.5753 5.87652 43.2252 6.00522 42.8977C6.13393 42.5702 6.32723 42.2719 6.5736 42.0206C6.81998 41.7694 7.11439 41.5702 7.43932 41.4351C7.76425 41.3 8.11305 41.2316 8.46494 41.2341H43.1764C43.5291 41.2317 43.8787 41.3 44.2046 41.4349C44.5304 41.5698 44.826 41.7687 45.0737 42.0197C45.3215 42.2707 45.5165 42.5688 45.6471 42.8964C45.7778 43.224 45.8415 43.5745 45.8344 43.9271L44.383 109.73C44.3648 110.423 44.0767 111.081 43.5802 111.565C43.0837 112.048 42.418 112.319 41.725 112.318Z" fill="#0E76A5"/>
</g>
<g opacity="0.15">
<path d="M33.2264 1.22408C30.4755 0.679031 27.6614 0.525961 24.8677 0.769423C23.0868 0.584669 21.2876 0.83056 19.6216 1.48639C19.4817 1.48639 19.3418 1.66125 19.3418 1.81864C19.3418 1.97602 19.5167 2.06345 19.6566 2.1334C20.4966 2.37572 21.3722 2.47039 22.2446 2.41319C25.4735 2.64107 28.7164 2.57083 31.9324 2.20335C32.3895 2.13869 32.8293 1.98417 33.2264 1.74869C33.751 1.38146 33.2264 1.22408 33.2264 1.22408Z" fill="white"/>
</g>
<g opacity="0.15">
<path d="M24.9024 5.38595C25.2171 5.08867 25.3745 4.51161 25.0248 4.2493C24.8308 4.13162 24.603 4.08237 24.3778 4.10941C22.2269 4.10941 19.6913 4.89632 17.9426 3.61978C16.6311 2.67548 17.1382 4.70396 17.1207 5.54333C17.1032 6.38271 17.2781 7.29202 17.2256 8.06145C17.2256 9.40794 17.9251 9.67024 18.7295 9.95003C19.0684 10.0576 19.4235 10.105 19.7787 10.0899C20.9503 10.0899 22.1395 10.0899 23.2761 10.0899C23.3791 10.0985 23.4827 10.0841 23.5794 10.0478C23.6762 10.0115 23.7637 9.95422 23.8357 9.88008C23.9083 9.74655 23.9388 9.59412 23.9231 9.44291C23.9231 8.88333 23.6608 8.35873 23.5559 7.79914C23.4935 7.5277 23.4878 7.24633 23.5389 6.97255C23.5901 6.69877 23.697 6.43846 23.8532 6.20784C24.1679 5.8581 24.6051 5.68323 24.9024 5.38595Z" fill="white"/>
</g>
<g opacity="0.1">
<path d="M34.8176 3.18262C34.166 3.54003 33.473 3.81606 32.7541 4.0045C32.2407 4.10986 31.7208 4.17998 31.1978 4.21434L27.7004 4.45916C27.5251 4.44966 27.3504 4.48582 27.1933 4.56408C26.6162 4.84387 26.6512 5.78816 26.0916 6.10293C25.9492 6.17433 25.8033 6.23853 25.6545 6.29528C25.4209 6.47541 25.2485 6.72317 25.1609 7.00482C25.0733 7.28646 25.0747 7.58827 25.1648 7.86911C25.3423 8.43849 25.3423 9.04841 25.1648 9.6178C25.1648 9.79266 24.9725 9.98502 25.0599 10.1424C25.1473 10.2998 25.4096 10.3173 25.6195 10.3173C27.5821 10.4325 29.5514 10.2914 31.4776 9.89759C32.3743 9.72148 33.2615 9.49969 34.1356 9.23308C34.205 9.20871 34.2699 9.17327 34.328 9.12816C34.328 9.12816 34.7302 8.98827 34.7302 8.90083C34.7302 8.28879 34.5378 7.67675 34.6077 7.15214C34.8916 5.87816 34.9508 4.56439 34.7826 3.27005L34.8176 3.18262Z" fill="white"/>
</g>
<g opacity="0.3">
<path d="M39.5915 33.2251H39.2593C38.0954 32.3945 37.147 31.2978 36.493 30.0263C35.839 28.7548 35.4984 27.3454 35.4996 25.9156V21.7187C32.3497 22.6189 29.0878 23.0664 25.8118 23.0477C22.5444 23.0427 19.2923 22.6016 16.1416 21.7362V25.9156C16.1428 27.3454 15.8022 28.7548 15.1482 30.0263C14.4942 31.2978 13.5457 32.3945 12.3819 33.2251H12.0671C13.7284 34.694 19.2193 35.7782 25.8293 35.7782C32.4394 35.7782 37.9128 34.6415 39.5915 33.2251Z" fill="#0E76A5"/>
</g>
<g opacity="0.2">
<path d="M22.0521 23.9046C21.8295 23.7407 21.5591 23.6547 21.2827 23.6598L18.2924 23.2576L17.2432 22.8729C17.39 25.0388 17.2072 27.2145 16.7011 29.3255C16.3894 30.3298 15.8746 31.2594 15.1888 32.0565C14.5029 32.8537 13.6606 33.5014 12.7141 33.9596C11.1228 34.6241 8.79703 34.9913 6.76855 35.5684C7.68889 35.9983 8.67711 36.2646 9.68887 36.3553C13.6409 36.3553 17.1208 36.3553 21.0728 36.3553C22.8215 36.3553 22.0696 35.3235 21.9472 34.9913C21.5023 33.8075 21.2371 32.5638 21.1603 31.3015C21.2876 29.1573 21.5976 27.0278 22.0871 24.9363C22.1221 24.674 22.227 24.1144 22.0521 23.9046Z" fill="#0E76A5"/>
</g>
<g opacity="0.4">
<path d="M40.7107 34.729C39.2804 34.2869 37.9744 33.5141 36.8985 32.4732C35.6665 31.3979 34.8806 29.9011 34.6952 28.2763C34.5027 26.4043 34.5027 24.5175 34.6952 22.6455C34.4154 22.9778 30.5158 24.1844 29.4491 23.6947C30.5333 26.003 31.5825 27.5244 31.5301 30.0775C31.416 31.7766 30.8082 33.4054 29.7814 34.7639C28.9793 35.5114 28.0068 36.0516 26.9485 36.3378C33.3837 36.3378 39.3467 36.2503 45.4146 35.988L40.7107 34.729Z" fill="#0E76A5"/>
</g>
<g opacity="0.3">
<path d="M49.2269 37.8417C48.9605 37.2373 48.4813 36.7518 47.8804 36.4777C47.3058 36.3382 46.7062 36.3382 46.1317 36.4777C44.7528 36.6666 43.3613 36.7484 41.9698 36.7225L13.0639 36.9149C11.2323 37.0457 9.39243 36.8261 7.64301 36.2678C7.18738 36.0245 6.68553 35.8801 6.17027 35.8439C5.655 35.8078 5.13791 35.8807 4.65275 36.058C3.71885 36.6371 2.93452 37.4281 2.36335 38.3669C1.79218 39.3057 1.45023 40.3658 1.36522 41.4614C1.26818 42.2349 1.40203 43.0197 1.74993 43.7173C2.18114 44.2245 2.71697 44.6324 3.32064 44.9131C3.92432 45.1938 4.58156 45.3407 5.24731 45.3435C13.688 46.2939 22.1952 46.5104 30.6733 45.9905L48.6848 45.4135C48.9797 45.4182 49.2721 45.3585 49.5416 45.2386C49.7541 45.0793 49.9276 44.8737 50.0488 44.6374C50.17 44.401 50.2357 44.1402 50.2411 43.8746C50.561 41.8069 50.2053 39.6911 49.2269 37.8417Z" fill="white"/>
</g>
<g opacity="0.5">
<path d="M26.0391 41.1816C19.8662 40.3598 13.2387 40.9893 7.80026 37.9641C7.10067 37.5042 6.33371 37.1561 5.52697 36.9323C5.12316 36.8278 4.69673 36.8526 4.30773 37.0031C3.91874 37.1537 3.58677 37.4225 3.35859 37.7717C2.7978 38.4821 2.43033 39.3255 2.29189 40.2199C2.20768 40.5298 2.21045 40.857 2.29991 41.1654C2.38937 41.4739 2.56205 41.7518 2.79901 41.9686C3.14332 42.1911 3.54325 42.3122 3.95315 42.3183C12.5522 43.2976 21.2347 43.2976 29.8338 42.3183C28.6881 41.6184 27.3809 41.2269 26.0391 41.1816Z" fill="white"/>
</g>
<g opacity="0.5">
<path d="M5.45732 101.704C4.6879 83.9021 4.26822 66.083 4.19827 48.2464C4.236 47.7027 4.14618 47.1578 3.93596 46.655C3.83044 46.4089 3.64601 46.2048 3.41172 46.075C3.17743 45.9452 2.90661 45.897 2.64193 45.9381C2.44463 46.006 2.28144 46.1479 2.18682 46.3339C2.0922 46.5199 2.07355 46.7354 2.13481 46.9348C2.34466 66.6484 2.92755 86.3503 3.8835 106.041C3.8835 106.565 4.23324 107.3 4.70539 107.09C4.87279 106.985 4.99693 106.824 5.05513 106.635C5.53923 105.039 5.67636 103.357 5.45732 101.704Z" fill="white"/>
</g>
<g opacity="0.5">
<path d="M7.66094 92.6806C7.21794 78.5628 7.21211 64.4217 7.64345 50.2574C7.69682 49.8111 7.61133 49.3592 7.39863 48.9633C7.13633 48.6136 6.5068 48.5262 6.29696 48.9633C6.26169 49.1187 6.26169 49.2801 6.29696 49.4355C6.29696 51.1842 6.29696 52.793 6.29696 54.4892V50.9918C7.0489 66.5551 5.78984 82.1884 7.34617 97.6993C7.70461 96.052 7.81074 94.3598 7.66094 92.6806Z" fill="white"/>
</g>
<g opacity="0.3">
<path d="M50.381 54.4717C50.381 49.9426 50.6958 45.7282 50.6958 41.2341L50.2236 39.9226C50.2236 41.4789 49.5941 44.7315 48.1252 45.2561C46.6623 45.7236 45.1314 45.9423 43.5961 45.9031C40.8332 45.9031 35.5696 46.4977 32.0023 46.3578C33.5586 46.8649 36.3565 47.5993 37.126 47.8616C39.0495 48.5261 39.0845 49.3131 39.2594 51.359C40.2211 61.6063 38.9971 71.9411 39.032 82.1884C39.032 90.4248 39.8889 98.6261 40.0813 106.862C40.1484 107.587 40.0711 108.318 39.8539 109.013C39.5217 109.645 39.0496 110.192 38.4738 110.613C37.8981 111.034 37.2337 111.318 36.5314 111.444C35.9505 111.547 35.4004 111.78 34.9226 112.126C34.693 112.308 34.5443 112.574 34.5083 112.865C34.4723 113.156 34.552 113.449 34.7303 113.682C34.8643 113.806 35.0262 113.896 35.2024 113.945C37.1435 114.697 39.2943 113.945 41.3578 113.752C43.4212 113.56 45.9918 114.137 46.6039 116.13C46.7331 116.952 46.5783 117.793 46.165 118.515C45.7517 119.237 45.1046 119.796 44.3306 120.1C42.7673 120.655 41.1064 120.881 39.4517 120.765C36.1615 120.764 32.8742 120.957 29.6066 121.342C28.8372 121.342 27.8579 121.779 27.8579 122.548C33.5336 122.86 39.2256 122.69 44.8727 122.041C45.5774 121.994 46.2691 121.829 46.9186 121.551C47.6208 121.124 48.1946 120.515 48.5794 119.789C48.9641 119.062 49.1455 118.245 49.1045 117.425C49.1045 115.781 48.0028 114.224 48.2127 112.598C49.2794 104.257 50.381 58.3713 50.381 54.4717Z" fill="#0E76A5"/>
</g>
<g opacity="0.6">
<path d="M46.8837 104.344C47.1635 84.6424 47.8222 64.9463 48.8597 45.2561L46.1493 45.7107C45.7721 45.7459 45.4106 45.8785 45.1001 46.0955C44.904 46.3374 44.7632 46.6193 44.6877 46.9214C44.6122 47.2235 44.6037 47.5384 44.6629 47.8442C45.9394 68.2688 43.9109 88.7635 44.9776 109.206C45.0826 110.954 45.5547 113.28 47.3209 113.682C46.888 110.59 46.7416 107.464 46.8837 104.344Z" fill="#0E76A5"/>
</g>
<g opacity="0.4">
<path d="M22.559 112.161C18.9567 111.939 15.3544 111.782 11.7521 111.689C10.6924 111.704 9.635 111.587 8.6045 111.339C8.08767 111.206 7.60294 110.97 7.17929 110.646C6.75565 110.321 6.40178 109.915 6.13884 109.45C6.01885 109.133 5.84753 108.838 5.63172 108.576C5.57593 108.513 5.50731 108.462 5.43043 108.428C5.35355 108.393 5.27016 108.375 5.18581 108.375C5.10145 108.375 5.01807 108.393 4.94118 108.428C4.8643 108.462 4.79568 108.513 4.73989 108.576C4.70653 108.702 4.70653 108.835 4.73989 108.961C4.73989 109.643 4.73989 110.325 4.73989 111.007V109.608C4.53148 110.299 4.44277 111.02 4.47759 111.741C4.49812 112.109 4.61576 112.464 4.81852 112.771C5.02127 113.079 5.30188 113.327 5.63172 113.49C6.06821 113.647 6.53373 113.707 6.9957 113.665C12.9191 113.126 18.8696 112.945 24.8148 113.123C24.5326 112.807 24.1841 112.557 23.7942 112.39C23.4043 112.224 22.9826 112.146 22.559 112.161Z" fill="#0E76A5"/>
</g>
<g opacity="0.2">
<path d="M2.13452 115.816L3.21871 114.714C2.75146 114.959 2.37245 115.345 2.13452 115.816Z" fill="white"/>
</g>
<g opacity="0.2">
<path d="M18.9221 121.167C16.1053 120.965 13.3464 120.267 10.7732 119.103C10.0037 118.754 9.1294 117.932 9.61904 117.25C9.74313 117.11 9.89352 116.997 10.0616 116.916C10.2296 116.835 10.412 116.788 10.5983 116.777C12.8739 116.397 15.1844 116.268 17.4881 116.393C18.4149 116.393 19.5691 116.393 19.9713 115.571C17.5312 114.931 15.0048 114.683 12.4869 114.836C10.7902 114.813 9.09649 114.685 7.41569 114.452C6.45472 114.26 5.47134 114.207 4.49538 114.294C4.09313 114.353 3.70322 114.477 3.34124 114.662C2.81355 115.382 2.44811 116.209 2.27002 117.084C2.09193 117.96 2.1054 118.863 2.30951 119.733C2.5859 120.34 2.99234 120.878 3.50003 121.31C4.00772 121.742 4.60424 122.057 5.24731 122.233C6.51588 122.588 7.82999 122.753 9.14689 122.723C13.5361 122.828 17.8903 122.723 22.3145 122.723C22.8216 122.723 23.5211 122.513 23.4687 121.989C22.0234 121.413 20.4773 121.134 18.9221 121.167Z" fill="white"/>
</g>
<g opacity="0.2">
<path d="M3.21924 114.714H3.34165C3.34481 114.667 3.34481 114.621 3.34165 114.574L3.21924 114.714Z" fill="white"/>
</g>
<path d="M3.49878 115.991C3.49878 115.991 3.6037 115.886 3.63867 115.833C3.67365 115.781 3.83103 115.466 3.91846 115.274L3.49878 115.991Z" fill="#DADADA"/>
<g opacity="0.5">
<path d="M6.31379 116.27C7.02511 116.101 7.75139 116.001 8.48217 115.973C9.32576 115.866 10.1572 115.678 10.9653 115.414C9.48581 115.028 7.96506 114.822 6.4362 114.801C5.9001 114.735 5.35585 114.793 4.84615 114.972C4.33644 115.151 3.87514 115.446 3.4984 115.833C3.20728 116.324 2.98931 116.854 2.85138 117.407C2.74698 117.935 2.78601 118.481 2.96439 118.988C3.14278 119.496 3.454 119.946 3.86562 120.292C4.30235 120.637 4.82615 120.854 5.37875 120.919C5.93136 120.984 6.49112 120.894 6.99578 120.66C6.32803 120.44 5.72657 120.055 5.24709 119.54C5.00757 119.282 4.83841 118.966 4.75575 118.623C4.67309 118.28 4.6797 117.921 4.77494 117.582C4.91726 117.262 5.12934 116.979 5.39563 116.752C5.66192 116.525 5.97565 116.36 6.31379 116.27Z" fill="white"/>
</g>
<path d="M37.4234 52.4082H13.991V103.313H37.4234V52.4082Z" fill="#FFFDBB"/>
<path d="M11.4377 49.6453V106.076H39.9764V49.6453H11.4377ZM37.4233 103.313H13.9908V52.4607H37.4233V103.313Z" fill="#02254F"/>
<path d="M15.6172 52.4082H13.991V103.313H15.6172V52.4082Z" fill="white"/>
<path d="M18.3453 52.4082H16.719V103.313H18.3453V52.4082Z" fill="white"/>
<path d="M21.0728 52.4082H19.4465V103.313H21.0728V52.4082Z" fill="white"/>
<path d="M23.8008 52.4082H22.1746V103.313H23.8008V52.4082Z" fill="white"/>
<path d="M26.5289 52.4082H24.9026V103.313H26.5289V52.4082Z" fill="white"/>
<path d="M29.2745 52.4082H27.6482V103.313H29.2745V52.4082Z" fill="white"/>
<path d="M32.0023 52.4082H30.376V103.313H32.0023V52.4082Z" fill="white"/>
<path d="M34.7303 52.4082H33.104V103.313H34.7303V52.4082Z" fill="white"/>
<path d="M37.4583 52.4082H35.832V103.313H37.4583V52.4082Z" fill="white"/>
<path d="M41.0255 68.0415H10.6333L11.8399 71.2941L10.6333 74.5466H41.0255L39.8189 71.2941L41.0255 68.0415Z" fill="#02254F"/>
<path d="M42.3547 67.1147H9.30444L10.8608 71.2941L9.30444 75.4735H42.3547L40.7983 71.2941L42.3547 67.1147ZM10.6334 74.5467L11.84 71.2941L10.6334 68.0415H41.0257L39.8191 71.2941L41.0257 74.5467H10.6334Z" fill="#FFE255"/>
<path d="M23.6263 72.8854C23.6263 73.2351 23.6263 73.2701 23.5039 73.3051C23.0294 73.4582 22.5336 73.535 22.035 73.5324C20.2863 73.5324 19.1672 72.7805 19.1672 71.1892C19.1507 70.7946 19.2431 70.4032 19.4344 70.0577C19.6256 69.7123 19.9083 69.4261 20.2513 69.2306C20.786 68.9379 21.3912 68.7987 22 68.8284C22.3198 68.7968 22.642 68.7968 22.9618 68.8284H23.5389C23.4974 69.2003 23.4974 69.5757 23.5389 69.9476V70.07C23.5389 70.07 23.5389 70.07 23.5389 69.9651C23.5496 69.8663 23.5496 69.7666 23.5389 69.6678C23.4165 69.2656 22.8919 68.9683 22.0525 68.9683C21.8531 68.9551 21.6534 68.9877 21.4685 69.0634C21.2837 69.1392 21.1186 69.2562 20.9858 69.4055C20.701 69.7739 20.5638 70.2353 20.6011 70.6995C20.6011 71.7837 21.1082 72.9204 22.3498 72.9204C22.4583 72.9519 22.5735 72.9519 22.682 72.9204C22.6943 72.896 22.7007 72.869 22.7007 72.8417C22.7007 72.8143 22.6943 72.7874 22.682 72.763V71.6963C22.682 71.3465 22.5946 71.2241 22.4022 71.1892H22.1399H22.035C22.035 71.1892 22.035 71.1892 22.1574 71.1892H24.1159H24.2558C24.2558 71.1892 24.2558 71.1892 24.1509 71.1892H23.9935C23.8536 71.1892 23.7837 71.2766 23.7662 71.4864C23.7487 71.6963 23.7662 71.9936 23.7662 72.2908L23.6263 72.8854Z" fill="white"/>
<path d="M25.0777 70.6471C25.0777 69.7203 25.0777 69.5454 25.0777 69.353C25.0777 69.1607 24.9903 69.0733 24.8679 69.0558H24.6581H24.5531C24.5531 69.0558 24.5531 69.0558 24.6755 69.0558H26.5466C26.6516 69.0558 26.669 69.0558 26.669 69.0558C26.669 69.0558 26.669 69.0558 26.5641 69.0558H26.3893C26.2319 69.0558 26.1619 69.1607 26.1619 69.3705C26.1619 69.5804 26.1619 69.7203 26.1619 70.6471V71.6963C26.1619 72.1684 26.1619 72.728 26.1619 72.9728C26.1619 73.2176 26.1619 73.2526 26.3893 73.2876H26.669C26.7565 73.2876 26.7915 73.2876 26.7915 73.2876C26.7915 73.2876 26.7915 73.2876 26.669 73.2876H25.5499H24.693C24.5881 73.2876 24.5356 73.2876 24.5356 73.2876C24.5356 73.2876 24.5356 73.2876 24.6581 73.2876H24.8504C24.9728 73.2876 25.0253 73.1477 25.0428 72.9728C25.0603 72.798 25.0428 72.2908 25.0428 71.6963L25.0777 70.6471Z" fill="white"/>
<path d="M27.9804 69.1082C27.9804 68.9334 27.9804 68.8284 28.0853 68.8284C28.1902 68.8284 28.0853 68.8284 28.3301 68.9683L30.2712 70.717C30.8832 71.2766 31.2854 71.6963 31.4603 71.8362V69.5804C31.4603 69.2481 31.4603 69.0907 31.163 69.0383H30.7783H30.6734C30.6734 69.0383 30.6734 69.0383 30.7958 69.0383H32.3521C32.4396 69.0383 32.492 69.0383 32.492 69.0383C32.4761 69.0475 32.458 69.0523 32.4395 69.0523C32.4211 69.0523 32.403 69.0475 32.3871 69.0383H32.2297C32.0374 69.0383 31.9674 69.1607 31.9499 69.5279C31.9499 70.7345 31.9499 71.9411 31.9499 73.1477C31.9499 73.4625 31.9499 73.5149 31.8275 73.5149C31.7051 73.5149 31.5477 73.375 31.163 73.0428L29.7291 71.8886L28.3476 70.5946V72.6406C28.3476 73.0603 28.3476 73.2351 28.5575 73.2876C28.6621 73.2989 28.7676 73.2989 28.8722 73.2876C28.9597 73.2876 28.9946 73.2876 28.9946 73.2876C28.9946 73.2876 28.9946 73.2876 28.8547 73.2876H28.0853H27.2634C27.176 73.2876 27.1235 73.2876 27.1235 73.2876C27.1235 73.2876 27.1235 73.2876 27.2459 73.2876H27.4383C27.6656 73.2876 27.7006 73.0952 27.7181 72.5357C27.8755 71.3291 27.858 69.9476 27.9804 69.1082Z" fill="white"/>
<path d="M36.8117 71.9936L36.0422 71.7837L35.4477 72.3083L35.3952 71.5214L34.7307 71.1017L35.4652 70.8219L35.64 70.035L36.1472 70.6646L36.9341 70.5946L36.5144 71.2591L36.8117 71.9936Z" fill="white"/>
<path d="M16.8936 72.116L16.1242 71.9061L15.5296 72.4307L15.4772 71.6438L14.7952 71.2241L15.5471 70.9443L15.722 70.1574L16.2291 70.787L17.016 70.717L16.5963 71.3815L16.8936 72.116Z" fill="white"/>
<path d="M20.129 90.5821L19.9017 90.4422C19.6744 90.3023 19.6044 90.1799 19.6044 90.0225C19.6044 89.8652 19.7093 89.6728 20.0416 89.6728C20.1483 89.6697 20.254 89.6937 20.3488 89.7427C20.4436 89.7916 20.5244 89.8638 20.5837 89.9526C20.5978 90.0218 20.5978 90.0932 20.5837 90.1624C20.5837 90.1624 20.5837 90.1624 20.5837 90.075C20.5706 89.8887 20.5706 89.7017 20.5837 89.5154H20.3913C20.2286 89.4982 20.0644 89.4982 19.9017 89.5154C19.7808 89.5009 19.6582 89.5108 19.5413 89.5445C19.4243 89.5782 19.3153 89.6351 19.2207 89.7118C19.1261 89.7884 19.0478 89.8833 18.9906 89.9907C18.9334 90.0982 18.8983 90.216 18.8875 90.3373C18.8875 90.687 19.0099 90.9319 19.482 91.2641L19.7268 91.4215C20.0591 91.6488 20.1115 91.7712 20.1115 91.9286C20.1115 92.086 20.0066 92.2434 19.6394 92.2434C19.4829 92.2593 19.3261 92.2161 19.1999 92.1223C19.0737 92.0284 18.9872 91.8907 18.9574 91.7363C18.9492 91.7018 18.9492 91.6658 18.9574 91.6313C18.9574 91.6313 18.9574 91.8936 18.9574 92.2259C18.9541 92.2579 18.9608 92.2902 18.9764 92.3183C18.992 92.3465 19.0159 92.3691 19.0448 92.3833C19.2567 92.4637 19.483 92.4994 19.7093 92.4882C19.9581 92.5014 20.2059 92.447 20.4263 92.3308C20.5622 92.2635 20.6757 92.1584 20.7533 92.0281C20.8308 91.8978 20.8691 91.7479 20.8635 91.5964C20.846 91.1417 20.6886 90.9319 20.129 90.5821Z" fill="#02254F"/>
<path d="M22.5244 92.2609C22.5005 92.2615 22.4767 92.2566 22.4549 92.2466C22.4331 92.2366 22.4139 92.2218 22.3987 92.2032C22.3835 92.1846 22.3728 92.1629 22.3673 92.1395C22.3618 92.1162 22.3617 92.0919 22.3671 92.0685C22.3671 91.9111 22.3671 91.5439 22.3671 91.2641V89.7777C22.3663 89.7322 22.3817 89.6879 22.4105 89.6527C22.4393 89.6175 22.4797 89.5936 22.5244 89.5854H22.6119H22.6993C22.6993 89.5854 22.6993 89.5854 22.6119 89.5854H21.3703C21.2829 89.5854 21.2829 89.5854 21.2829 89.5854H21.4053C21.4927 89.5854 21.5277 89.5854 21.5277 89.7603C21.5446 90.034 21.5446 90.3084 21.5277 90.5821V91.2466C21.5277 91.6139 21.5277 91.8762 21.5277 92.051C21.5277 92.2259 21.5277 92.2259 21.3878 92.2434H21.2654C21.2654 92.2434 21.2654 92.2434 21.3703 92.2434H22.7343L22.5244 92.2609Z" fill="#02254F"/>
<path d="M26.0918 92.1559C26.0918 91.404 26.0918 90.6171 26.0918 89.9001C26.0918 89.6553 26.0918 89.6029 26.2841 89.5854C26.2841 89.5854 26.2841 89.5854 26.1967 89.5854H25.1475H25.0601H25.2174C25.3923 89.5854 25.4273 89.7078 25.4273 89.9176V91.2641L24.6754 90.5996L23.3988 89.4979C23.2939 89.4979 23.2764 89.4979 23.2414 89.4979C23.2065 89.4979 23.2414 89.4979 23.2414 89.7078C23.2414 90.2149 23.2414 91.0892 23.2414 91.8762C23.2414 92.2259 23.2414 92.3133 23.0316 92.3483H22.9092C22.9092 92.3483 22.9092 92.3483 22.9966 92.3483H24.0808H24.1682C24.1682 92.3483 24.1682 92.3483 24.0808 92.3483H23.8884C23.766 92.3483 23.766 92.2084 23.7485 91.9461V90.7045L24.6404 91.4914C24.8153 91.6663 25.13 91.9286 25.4098 92.1559C25.6896 92.3833 25.847 92.5057 25.9169 92.5057C25.9869 92.5057 26.0918 92.3833 26.0918 92.1559Z" fill="#02254F"/>
<path d="M28.82 92.4183C29.0508 92.4307 29.2819 92.4011 29.502 92.3308C29.5289 92.3218 29.5529 92.3056 29.5713 92.2841C29.5898 92.2625 29.6021 92.2364 29.6069 92.2084C29.6069 92.0161 29.6944 91.6838 29.6944 91.6139C29.6944 91.5439 29.6944 91.6139 29.6944 91.6139C29.6944 91.6139 29.6944 91.6139 29.6944 91.7188C29.6639 91.8107 29.6229 91.8987 29.572 91.9811C29.4146 92.156 29.2222 92.1734 28.9075 92.1734C28.243 92.1734 27.8233 91.6314 27.8233 90.8794C27.8113 90.7062 27.8363 90.5324 27.8966 90.3696C27.9569 90.2068 28.0511 90.0587 28.173 89.9351C28.3324 89.8265 28.5223 89.7714 28.7151 89.7777C28.9969 89.7496 29.2787 89.831 29.502 90.0051C29.5508 90.056 29.5884 90.1164 29.6125 90.1827C29.6366 90.2489 29.6466 90.3195 29.6419 90.3898V90.4772C29.6419 90.4772 29.6419 90.4772 29.6419 90.3723C29.651 90.2209 29.651 90.069 29.6419 89.9176C29.6481 89.8303 29.6481 89.7427 29.6419 89.6553H29.2572C29.0708 89.6442 28.884 89.6442 28.6976 89.6553C28.2259 89.6237 27.759 89.7668 27.3861 90.0575C27.2302 90.1849 27.1041 90.3448 27.0165 90.526C26.9289 90.7073 26.882 90.9055 26.879 91.1067C26.8657 91.3205 26.905 91.5343 26.9934 91.7294C27.0818 91.9245 27.2166 92.095 27.3861 92.2259C27.8271 92.4551 28.3342 92.5231 28.82 92.4183Z" fill="#02254F"/>
<path d="M32.3522 91.6488C32.3522 91.6488 32.3521 91.9111 32.1598 91.9461C32.0387 91.9716 31.9137 91.9716 31.7926 91.9461C31.3554 91.9461 31.3029 91.9461 31.3029 91.6139C31.2942 91.4624 31.2942 91.3106 31.3029 91.1592V90.9319H31.845C32.0549 90.9319 32.1073 90.9319 32.1248 91.1417C32.117 91.0311 32.117 90.9201 32.1248 90.8095C32.1248 90.6696 32.1248 90.4947 32.1248 90.4597C32.1248 90.4248 32.1248 90.4597 32.1248 90.4597C32.1248 90.4597 32.0199 90.5472 31.8101 90.5472H31.2505V89.7428H31.845C32.0374 89.7428 32.0898 89.7428 32.1073 89.9001C32.1159 89.9464 32.1159 89.9938 32.1073 90.04C32.1073 90.04 32.1073 89.7253 32.1073 89.6204C32.1108 89.5621 32.1108 89.5037 32.1073 89.4455H30.2362H30.3586C30.3987 89.4537 30.4347 89.4756 30.4603 89.5076C30.4858 89.5395 30.4994 89.5794 30.4985 89.6204C30.5167 89.8998 30.5167 90.1802 30.4985 90.4597V91.6838C30.4985 91.9636 30.4985 92.1035 30.3412 92.121H30.2188C30.2188 92.121 30.2187 92.121 30.3062 92.121H30.9007H32.1948C32.3347 92.121 32.3696 92.121 32.4046 92.0161C32.4184 91.8298 32.4184 91.6428 32.4046 91.4565C32.4046 91.4565 32.3871 91.6488 32.3522 91.6488Z" fill="#02254F"/>
<path d="M22.2796 97.5419C22.1397 97.5419 22.1048 97.437 22.0873 97.2971C22.0672 96.971 22.0672 96.6439 22.0873 96.3178V95.4435C22.0873 94.779 22.0873 94.3243 22.0873 94.2893C22.0873 94.2544 22.0873 94.2893 22.0873 94.2893C22.0476 94.276 22.0046 94.276 21.9649 94.2893C21.72 94.4292 21.1605 94.7965 20.8807 94.9364H21.0031H21.2654C21.2654 94.9364 21.2654 94.9364 21.2654 95.1287V96.3353C21.2654 96.755 21.2654 97.0873 21.2654 97.2796C21.2654 97.472 21.2654 97.5244 21.0555 97.5594H20.8457H22.3846H22.472L22.2796 97.5419Z" fill="#02254F"/>
<path d="M24.0981 94.2544C23.94 94.24 23.7806 94.258 23.6296 94.3071C23.4786 94.3562 23.3392 94.4355 23.2198 94.5402C23.1005 94.6449 23.0036 94.7727 22.9351 94.916C22.8667 95.0592 22.828 95.2149 22.8216 95.3735C22.8164 95.4958 22.837 95.6178 22.8821 95.7316C22.9271 95.8454 22.9954 95.9485 23.0828 96.0343C23.1702 96.12 23.2745 96.1864 23.3892 96.2292C23.5038 96.272 23.6262 96.2903 23.7484 96.2829C23.99 96.2831 24.2222 96.189 24.3954 96.0206H24.1331C23.8708 96.0206 23.5735 95.7932 23.5735 95.1812C23.5735 94.5691 23.7484 94.5342 24.0107 94.5342C24.273 94.5342 24.5528 94.9364 24.5528 95.6708C24.5488 96.0851 24.4309 96.4902 24.2119 96.8419C23.9929 97.1935 23.6812 97.4781 23.3112 97.6643H23.2238H23.3287C23.8484 97.576 24.3237 97.3162 24.6786 96.9264C25.0336 96.5366 25.2478 96.0392 25.2872 95.5134C25.2943 95.3521 25.2688 95.191 25.2124 95.0396C25.1561 94.8883 25.0699 94.7498 24.959 94.6324C24.8481 94.515 24.7148 94.421 24.5669 94.3561C24.419 94.2912 24.2596 94.2566 24.0981 94.2544Z" fill="#02254F"/>
<path d="M27.5607 95.6184C27.3038 95.617 27.053 95.6965 26.8438 95.8457H27.0711C27.4208 95.8457 27.6831 96.1255 27.6831 96.7025C27.6831 97.2796 27.4908 97.3845 27.2634 97.3845C27.0361 97.3845 26.6689 96.9124 26.6689 96.2654C26.6715 95.8614 26.7989 95.4682 27.0337 95.1395C27.2684 94.8107 27.5991 94.5627 27.9804 94.4292C28.0678 94.4292 28.1203 94.4292 28.1203 94.3243C28.1203 94.2194 28.1203 94.3243 28.1203 94.3243H27.9804C27.4422 94.3781 26.9391 94.6165 26.5567 94.999C26.1742 95.3815 25.9358 95.8845 25.882 96.4227C25.8716 96.6038 25.8999 96.785 25.965 96.9542C26.0301 97.1235 26.1306 97.2769 26.2596 97.4043C26.3887 97.5317 26.5434 97.6301 26.7135 97.6931C26.8835 97.756 27.0651 97.782 27.246 97.7692C27.4073 97.7763 27.5684 97.7509 27.7198 97.6945C27.8711 97.6381 28.0096 97.5519 28.127 97.441C28.2444 97.3301 28.3384 97.1968 28.4033 97.0489C28.4682 96.901 28.5028 96.7416 28.505 96.5801C28.5153 96.4527 28.498 96.3246 28.4545 96.2044C28.4109 96.0843 28.342 95.9749 28.2524 95.8837C28.1629 95.7924 28.0548 95.7216 27.9354 95.6758C27.8161 95.63 27.6883 95.6104 27.5607 95.6184Z" fill="#02254F"/>
<path d="M30.2888 97.5419C30.1314 97.5419 30.0964 97.437 30.0789 97.2971C30.0614 97.1572 30.0789 96.7375 30.0789 96.3178V95.4435C30.0789 94.779 30.0789 94.3243 30.0789 94.2893C30.0789 94.2544 30.0789 94.2893 30.0789 94.2893H29.974L28.8898 94.9364H28.9947H29.2745C29.2745 94.9364 29.2745 94.9364 29.2745 95.1287V96.3353C29.2745 96.755 29.2745 97.0873 29.2745 97.2796C29.2745 97.472 29.2745 97.5244 29.0822 97.5594H28.8723H30.4286H30.5161C30.5161 97.5594 30.5161 97.5594 30.4286 97.5594L30.2888 97.5419Z" fill="#02254F"/>
<path d="M31.2329 56.9898C31.1725 56.9873 31.1123 56.9974 31.056 57.0194C30.9997 57.0413 30.9486 57.0748 30.9059 57.1175C30.8632 57.1602 30.8297 57.2113 30.8078 57.2676C30.7858 57.3239 30.7757 57.3841 30.7782 57.4445C30.7607 57.5251 30.7607 57.6086 30.7782 57.6893L27.4382 59.9626L25.8469 55.3285C25.9358 55.2958 26.0123 55.236 26.0656 55.1576C26.1189 55.0792 26.1464 54.9861 26.1442 54.8914C26.1442 54.7708 26.0963 54.6551 26.011 54.5699C25.9257 54.4846 25.8101 54.4367 25.6895 54.4367C25.5689 54.4367 25.4533 54.4846 25.368 54.5699C25.2827 54.6551 25.2348 54.7708 25.2348 54.8914C25.2339 54.9883 25.2639 55.0829 25.3205 55.1616C25.3771 55.2402 25.4574 55.2987 25.5496 55.3285L23.9408 59.9626L20.6183 57.7068C20.634 57.6377 20.634 57.566 20.6183 57.4969C20.6183 57.3763 20.5704 57.2607 20.4851 57.1754C20.3999 57.0902 20.2842 57.0423 20.1636 57.0423C20.0431 57.0423 19.9274 57.0902 19.8422 57.1754C19.7569 57.2607 19.709 57.3763 19.709 57.4969C19.709 57.6175 19.7569 57.7331 19.8422 57.8184C19.9274 57.9037 20.0431 57.9516 20.1636 57.9516C20.2373 57.9769 20.3173 57.9769 20.391 57.9516L21.1779 59.1757C22.297 60.9563 23.0298 62.952 23.3288 65.0338H28.1552C28.4378 62.9479 29.1718 60.9488 30.306 59.1757L31.058 57.9865C31.1148 58.0052 31.1761 58.0052 31.2329 57.9865C31.2926 57.9865 31.3517 57.9748 31.4068 57.9519C31.462 57.9291 31.5121 57.8956 31.5543 57.8534C31.5966 57.8112 31.6301 57.761 31.6529 57.7059C31.6757 57.6507 31.6875 57.5916 31.6875 57.5319C31.7042 57.4649 31.7049 57.395 31.6894 57.3277C31.6739 57.2605 31.6427 57.1978 31.5983 57.145C31.554 57.0921 31.4978 57.0505 31.4342 57.0235C31.3707 56.9965 31.3017 56.985 31.2329 56.9898Z" fill="#02254F"/>
</svg>
