<svg width="29" height="125" viewBox="0 0 29 125" fill="none" xmlns="http://www.w3.org/2000/svg">
<path d="M28.7259 117.42C28.7049 121.282 26.1633 124.4 23.0352 124.4H5.85679C3.48966 124.4 1.45568 122.606 0.596493 120.064C0.314236 119.229 0.166918 118.329 0.163395 117.42C0.0660799 98.4773 -0.170634 47.2955 0.206355 43.7658C0.670138 39.4266 3.59486 37.6191 5.74282 34.3641C7.89078 31.1091 8.53166 10.4276 8.53166 10.4276L20.3603 10.4276C20.3603 10.4276 21.003 31.1103 23.1456 34.3641C25.2883 37.618 28.2192 39.4266 28.683 43.7658C29.0635 47.2955 28.8268 98.4773 28.7259 117.42Z" fill="#C9D4D6"/>
<path d="M26.9785 45.0037C26.5709 41.1847 23.9977 39.5937 22.1057 36.73C20.2138 33.8663 19.2003 10.5588 19.2003 10.5588L9.60112 10.5588C9.60112 10.5588 8.67969 33.8618 6.78686 36.73C4.89403 39.5981 2.32174 41.1847 1.91407 45.0037C1.5818 48.1107 1.79045 97.5904 1.87988 114.263C1.89741 117.663 4.13392 120.407 6.88681 120.407H22.0058C24.7578 120.407 26.9943 117.663 27.0127 114.263C27.1021 97.5938 27.3099 48.1107 26.9785 45.0037Z" fill="#E1ECEF"/>
<path d="M10.5972 10.4276C10.5841 11.3953 10.1974 36.3712 7.49801 38.8166C4.74424 41.3103 3.27662 43.6907 3.27662 45.2773V118.588L0.600003 120.064C0.317745 119.229 0.170427 118.329 0.166905 117.42C0.0660821 98.4773 -0.170631 47.2955 0.206357 43.7658C0.67014 39.4266 3.59487 37.6191 5.74282 34.3641C7.89078 31.1091 8.53166 10.4276 8.53166 10.4276H10.5972Z" fill="#CBDEE3"/>
<path d="M18.2957 10.4276C18.3088 11.3953 18.6954 36.3712 21.3948 38.8166C24.1477 41.3103 25.6162 43.6907 25.6162 45.2773V118.588L28.2929 120.064C28.5751 119.229 28.7224 118.329 28.726 117.42C28.8268 98.4773 29.0635 47.2955 28.6865 43.7658C28.2227 39.4266 25.2954 37.6191 23.15 34.3641C21.0047 31.1091 20.3612 10.4276 20.3612 10.4276H18.2957Z" fill="#CBDEE3"/>
<path d="M0.0115512 57.7445C-0.0410518 75.2057 0.0992228 104.183 0.16673 117.42C0.170252 118.329 0.317571 119.229 0.599828 120.064L3.27644 118.588V57.7445H0.0115512Z" fill="#DBA804"/>
<path d="M25.6162 57.7445V118.588L28.2928 120.064C28.5751 119.229 28.7224 118.329 28.7259 117.42C28.7961 104.183 28.9328 75.2057 28.8802 57.7445H25.6162Z" fill="#DBA804"/>
<path opacity="0.83" d="M25.9301 120.064H2.96008C2.11492 120.064 1.53191 119.054 1.83788 118.124L2.23416 116.91C2.46035 116.214 3.0232 115.757 3.65356 115.757H25.2418C25.8731 115.757 26.4394 116.219 26.6639 116.917L27.0549 118.129C27.3538 119.063 26.7735 120.064 25.9301 120.064Z" fill="#EBB405"/>
<path d="M28.6865 43.7658C28.2227 39.4266 25.2962 37.6191 23.1492 34.3641C21.0021 31.1091 20.3603 10.4276 20.3603 10.4276L8.53166 10.4276C8.53166 10.4276 7.89078 31.1103 5.74282 34.3641C3.59487 37.618 0.67014 39.4266 0.206357 43.7658C-0.170631 47.2955 0.0660821 98.4829 0.166905 117.42C0.170427 118.329 0.317745 119.229 0.600003 120.064C1.45568 122.611 3.48791 124.4 5.8603 124.4H23.0352C26.1633 124.4 28.7049 121.282 28.7259 117.42C28.8268 98.4773 29.0635 47.2955 28.6865 43.7658ZM27.0128 114.263C26.9944 117.663 24.7579 120.407 22.0059 120.407H6.88694C4.13405 120.407 1.89754 117.663 1.88001 114.262C1.79234 97.5938 1.58193 48.1084 1.9142 45.0037C2.32187 41.1847 4.89504 39.5936 6.78699 36.73C8.67895 33.8663 9.60125 10.5588 9.60125 10.5588L19.2004 10.5588C19.2004 10.5588 20.2165 33.8618 22.1059 36.73C23.9952 39.5981 26.571 41.1847 26.9787 45.0037C27.3101 48.1107 27.1023 97.5938 27.0128 114.263Z" fill="#C2CDCF"/>
<path opacity="0.83" d="M27.0128 114.522C26.9953 117.774 24.7579 120.407 22.0059 120.407H6.88777C4.52678 120.407 2.54627 118.475 2.01761 115.871C1.92844 115.432 1.88191 114.98 1.87909 114.526C1.81685 103.252 1.6941 76.3079 1.74495 60.3996C1.74934 58.9218 1.75547 57.5404 1.76337 56.2745H27.1294C27.1373 57.5404 27.1426 58.9218 27.1478 60.3996C27.1978 76.3046 27.0759 103.248 27.0128 114.522Z" fill="#FEC305"/>
<path opacity="0.35" d="M27.0128 114.522C26.9952 117.774 24.7579 120.407 22.0058 120.407H6.88774C4.52674 120.407 2.54624 118.475 2.01758 115.871C4.06647 116.466 13.8585 118.99 17.5451 114.13C20.9336 109.666 21.0686 77.733 19.5282 56.2734H27.1294C27.1373 57.5393 27.1425 58.9207 27.1478 60.3985C27.1978 76.3046 27.0759 103.248 27.0128 114.522Z" fill="#EBB405"/>
<path d="M25.9301 57.7445H2.96008C2.11492 57.7445 1.53191 56.7353 1.83788 55.8036L2.23416 54.5904C2.46035 53.8952 3.0232 53.4377 3.65356 53.4377H25.2418C25.8731 53.4377 26.4394 53.8986 26.6639 54.5982L27.0549 55.8103C27.3538 56.7432 26.7735 57.7445 25.9301 57.7445Z" fill="#FEDA68"/>
<path opacity="0.35" d="M3.27643 117.911C3.27643 117.911 3.884 116.425 5.17452 116.085C6.46505 115.746 11.8332 116.085 11.8332 116.085C11.8332 116.085 5.88291 115.413 4.332 115.749C2.78109 116.085 3.27643 117.911 3.27643 117.911Z" fill="#D9A605"/>
<path opacity="0.35" d="M25.9458 117.911C25.9458 117.911 25.3374 116.425 24.0468 116.085C22.7563 115.746 17.3882 116.085 17.3882 116.085C17.3882 116.085 23.3393 115.413 24.8902 115.749C26.4412 116.085 25.9458 117.911 25.9458 117.911Z" fill="#D9A605"/>
<path opacity="0.53" d="M19.9367 62.9605C15.4357 60.4355 8.3439 67.0374 7.82926 86.9856C7.31463 106.934 17.7169 107.617 18.5717 98.5457C19.4265 89.4748 25.5854 66.137 19.9367 62.9605Z" fill="#FED759"/>
<path opacity="0.89" d="M12.0937 13.2241C12.0937 13.2241 10.0597 12.1891 9.97464 13.7847C9.8896 15.3802 9.0874 33.8551 8.7902 35.9855C8.49299 38.1159 10.6085 38.043 11.1214 36.5696C11.6343 35.0963 13.0879 14.8129 12.0937 13.2241Z" fill="#EFEFEF"/>
<path opacity="0.7" d="M16.799 13.6501C16.799 13.6501 18.833 12.6152 18.918 14.2108C19.0031 15.8063 19.8053 34.2812 20.1025 36.4115C20.3997 38.5419 18.2842 38.469 17.7704 36.9957C17.2567 35.5224 15.8048 15.2401 16.799 13.6501Z" fill="#EFEFEF"/>
<path opacity="0.83" d="M2.01662 62.3539C2.01662 62.3539 1.92895 59.4667 4.06638 58.9565C6.20382 58.4464 16.18 57.7445 16.18 57.7445H2.34714L2.01662 62.3539Z" fill="#E3AE04"/>
<path opacity="0.89" d="M8.87431 40.1767C7.20855 40.4884 5.57698 43.7468 5.29906 45.4466C5.02114 47.1464 5.29906 82.1687 5.29906 82.1687C5.29906 82.1687 6.80964 48.5065 8.18609 45.4466C9.56253 42.3867 12.1971 39.5544 8.87431 40.1767Z" fill="#EFEFEF"/>
<path d="M21.5902 7.27469C21.5025 7.83532 20.8099 8.82538 20.8099 8.82538C20.8099 8.82538 21.5797 10.8235 21.1492 12.4493C21.1492 13.5705 18.1482 14.4675 14.4458 14.4675C13.1511 14.4775 11.8578 14.3537 10.5786 14.0975C8.86378 13.7309 7.74334 13.1287 7.74334 12.4459C7.31199 10.8201 8.08175 8.82202 8.08175 8.82202C8.08175 8.82202 7.39353 7.83644 7.30235 7.27133C7.21117 6.70622 8.08175 5.96731 8.08175 5.96731L7.74334 2.01826L11.8358 2.46004L14.4493 2.74035L21.1492 2.01826L20.8099 5.96731C20.8099 5.96731 21.6823 6.70734 21.5902 7.27469Z" fill="#544101"/>
<g style="mix-blend-mode:multiply">
<path d="M21.5902 7.27468C21.5025 7.8353 20.8099 8.82537 20.8099 8.82537C20.8099 8.82537 21.5797 10.8234 21.1492 12.4493C21.1492 13.5705 18.1482 14.4675 14.4458 14.4675C13.1511 14.4774 11.8578 14.3537 10.5786 14.0975C14.9175 13.8923 15.39 12.0546 15.5514 11.3246C15.7346 10.4938 16.1931 6.41356 13.9303 5.98524C11.6675 5.55692 11.2695 3.79992 11.1757 3.7831L11.8358 2.46002L14.4493 2.74034L21.1492 2.01825L20.8099 5.9673C20.8099 5.9673 21.6822 6.70732 21.5902 7.27468Z" fill="#D6C794"/>
</g>
<path d="M14.4458 4.04323C18.148 4.04323 21.1492 3.13813 21.1492 2.02162C21.1492 0.905109 18.148 0 14.4458 0C10.7436 0 7.74243 0.905109 7.74243 2.02162C7.74243 3.13813 10.7436 4.04323 14.4458 4.04323Z" fill="#695101"/>
<path d="M8.20979 3.47588C8.20979 3.47588 8.67095 3.32451 8.76125 3.85375C8.85155 4.38298 9.0681 6.23304 8.76125 5.96955C8.4544 5.70605 8.02744 3.48822 8.20979 3.47588Z" fill="#695101"/>
<path d="M9.24955 4.04323C9.07947 4.19124 9.40298 6.35525 9.52484 5.98973C9.64671 5.6242 9.66161 3.68667 9.24955 4.04323Z" fill="#695101"/>
<path d="M10.1368 4.26077C9.91238 4.76085 10.2596 6.60307 10.4428 6.1882C10.626 5.77334 10.2902 3.9244 10.1368 4.26077Z" fill="#695101"/>
<path d="M17.7529 4.52761C17.4267 5.18467 17.4171 6.17361 17.7529 6.03121C18.0887 5.88881 17.9984 4.0365 17.7529 4.52761Z" fill="#695101"/>
<path d="M18.549 4.22151C18.4876 4.75411 18.3649 6.65127 18.6709 6.25098C18.9768 5.85069 18.6095 3.68892 18.549 4.22151Z" fill="#695101"/>
<path d="M19.5274 4.13855C19.2775 4.3628 19.3441 6.35526 19.5274 5.98973C19.7106 5.6242 20.312 3.42543 19.5274 4.13855Z" fill="#695101"/>
<path d="M8.16597 6.64343C8.33605 6.55373 8.21155 7.42831 8.76126 7.56286C9.31096 7.69741 12.2515 7.66377 12.4329 7.7389C12.6144 7.81402 9.23644 8.55517 8.39391 8.24682C7.55139 7.93848 7.45232 7.0213 8.16597 6.64343Z" fill="#695101"/>
<path d="M8.16609 10.4276C8.06982 10.6265 8.00523 10.8478 7.97604 11.0787C7.94685 11.3096 7.95364 11.5456 7.99601 11.7731C8.14856 12.5042 8.94023 12.8204 9.39875 12.983C9.85728 13.1456 8.58867 12.086 8.91831 11.3325C9.24796 10.579 8.16609 10.4276 8.16609 10.4276Z" fill="#695101"/>
<path d="M18.2957 7.70188C18.2957 7.70188 20.6908 7.62452 20.7785 7.09641L20.8706 6.5683C20.8706 6.5683 21.4536 6.87888 21.1467 7.47875C20.8399 8.07862 18.6227 7.62452 18.2957 7.70188Z" fill="#695101"/>
</svg>
