<svg width="30" height="124" viewBox="0 0 30 124" fill="none" xmlns="http://www.w3.org/2000/svg">
<g clip-path="url(#clip0_57_1894)">
<path d="M29.6151 121.494V42.5911C29.6159 40.5505 29.078 38.545 28.0545 36.7723C27.0309 34.9997 25.5571 33.5213 23.7785 32.4828C22.6849 31.8416 21.7787 30.9309 21.1485 29.84C20.5184 28.749 20.1858 27.5151 20.1834 26.2592V8.20076C20.1834 8.49315 17.8995 8.74377 15.0799 8.74377C12.2602 8.74377 9.94812 8.49315 9.94812 8.20076V26.3009C9.94905 27.5508 9.62233 28.7796 8.99975 29.8678C8.37717 30.956 7.47994 31.8665 6.39538 32.5107C4.64567 33.5532 3.19731 35.0232 2.18984 36.779C1.18238 38.5348 0.649761 40.5173 0.643311 42.5354L0.643311 121.577C0.643311 122.97 7.12848 124 15.1363 124C23.144 124 29.6433 122.914 29.6433 121.577C29.6433 121.55 29.6151 121.522 29.6151 121.494Z" fill="#5B102B"/>
<path d="M15.1222 1.1974C12.0065 1.1974 9.48291 0.932854 9.48291 0.598698V8.18684C9.48291 8.521 12.0206 8.78554 15.1222 8.78554C18.2238 8.78554 20.7615 8.521 20.7615 8.18684V0.598698C20.7897 0.932854 18.252 1.1974 15.1222 1.1974Z" fill="#010101"/>
<path d="M15.1222 0C12.0065 0 9.48291 0.264541 9.48291 0.598698C9.48291 0.932854 12.0206 1.1974 15.1222 1.1974C18.2238 1.1974 20.7615 0.932854 20.7615 0.598698C20.7615 0.264541 18.252 0 15.1222 0Z" fill="#4D4D4D"/>
<path d="M25.6676 60.5102H4.63306V104.661H25.6676V60.5102Z" fill="#89022C"/>
<g opacity="0.7">
<path d="M26.8659 39.2356C26.82 38.9857 26.724 38.7473 26.5836 38.5345C26.4432 38.3217 26.2612 38.1388 26.0482 37.9964C25.5415 37.7651 24.9837 37.6644 24.4269 37.704C20.8392 37.6243 17.3274 36.6676 14.2057 34.9194C13.0035 34.1426 11.7345 33.4717 10.4133 32.9144C9.44262 32.5676 8.39417 32.4906 7.38219 32.6917C6.02155 33.4749 4.85247 34.5447 3.95818 35.825C3.06388 37.1053 2.46636 38.5645 2.20815 40.0988C2.08532 40.6283 2.1296 41.1822 2.33504 41.6861C2.54306 42.0649 2.84966 42.3822 3.22322 42.605C5.36119 43.8379 7.79664 44.4777 10.2723 44.4568C14.4097 44.8501 18.5846 44.5536 22.6224 43.5796C23.7171 43.3459 24.7439 42.8698 25.6253 42.1873C26.0714 41.842 26.4199 41.389 26.6372 40.872C26.8545 40.355 26.9333 39.7914 26.8659 39.2356Z" fill="#89022C"/>
</g>
<path d="M7.22705 32.7334H7.38213C7.77685 32.5109 8.18668 32.3155 8.60867 32.1487L7.22705 32.7334Z" fill="#89022C"/>
<path d="M7.22723 32.7334C6.88728 32.8283 6.56399 32.9738 6.26855 33.1651L7.22723 32.7334Z" fill="#89022C"/>
<path d="M2.75806 58.6584V106.499H27.5286V58.6584H2.75806ZM25.6535 104.605H4.63312V60.5102H25.6535V104.605Z" fill="#F9D006"/>
<g opacity="0.4">
<path d="M23.9053 43.9695C24.1804 43.921 24.462 43.921 24.7371 43.9695L24.2436 43.3847H24.3423C24.2847 43.2426 24.2037 43.1109 24.1027 42.9948C24.0543 42.8712 23.9825 42.7578 23.8912 42.6607C23.792 42.5689 23.6605 42.5189 23.5246 42.5214C23.3977 42.5214 23.2568 42.605 23.144 42.5214C23.144 42.5214 23.581 42.6607 23.7643 42.5214C23.8087 42.4917 23.847 42.4539 23.8771 42.4101C23.9963 42.2796 24.1047 42.1399 24.2013 41.9924C24.2826 41.894 24.3273 41.7712 24.3282 41.6443C24.3186 41.5841 24.2925 41.5276 24.2528 41.481C24.213 41.4343 24.1611 41.3993 24.1027 41.3797C23.9879 41.3444 23.865 41.3444 23.7502 41.3797C23.6568 41.3939 23.5617 41.3939 23.4682 41.3797H23.3554H23.2004C23.0755 41.4053 22.9562 41.4525 22.8479 41.519C22.7633 41.519 22.6505 41.6025 22.5941 41.519C22.5378 41.4354 22.5941 41.3241 22.7069 41.2962C22.8086 41.2878 22.9084 41.2644 23.003 41.2266C23.1722 41.1152 23.1299 40.8228 23.3132 40.7393C23.0984 40.7743 22.8794 40.7743 22.6646 40.7393H22.58H22.5096C22.2701 40.8135 22.067 40.9727 21.9395 41.1861C21.8119 41.3995 21.7689 41.652 21.8187 41.8949C21.84 41.9959 21.84 42.1002 21.8187 42.2012C21.8256 42.2427 21.8256 42.285 21.8187 42.3265C21.5125 41.9242 21.1352 41.5799 20.705 41.3101C20.0847 41.0177 19.0132 41.5747 18.703 40.8367C18.9709 40.3216 18.8581 39.4444 20.4371 39.514C20.2354 39.2048 19.9462 38.9607 19.6054 38.8123C19.2645 38.6638 18.8871 38.6173 18.5198 38.6786C18.3147 39.0244 18.1671 39.4005 18.0827 39.7925C18.0934 39.91 18.073 40.0282 18.0235 40.1355C17.9741 40.2429 17.8974 40.3358 17.8008 40.4051C17.4201 40.781 16.3909 40.4051 15.9116 40.4051C15.6437 40.4051 13.7123 40.0013 12.387 39.9039C12.3777 39.8585 12.3806 39.8114 12.3954 39.7674C12.4102 39.7234 12.4365 39.6841 12.4716 39.6533C12.7959 39.347 13.3457 39.3887 13.6982 39.1242C13.947 38.9642 14.1229 38.7149 14.1887 38.429C14.2545 38.1431 14.205 37.8431 14.0506 37.5926C13.9095 37.1918 13.689 36.8226 13.4021 36.5066L12.951 35.9218C12.8805 35.8383 12.81 35.7408 12.6972 35.7269C12.5844 35.713 12.4716 35.8244 12.528 35.9218L11.9218 35.532C11.8666 35.8564 11.937 36.1895 12.1192 36.4649C12.3025 36.7294 12.5844 37.0357 12.4434 37.3142C12.4218 37.3561 12.3873 37.3903 12.3448 37.4116C12.2179 37.4952 12.0487 37.342 11.9923 37.2028C11.9359 37.0636 11.8513 36.5066 11.6821 36.2003C11.5796 36.0201 11.4225 35.8762 11.2328 35.7888C11.0431 35.7014 10.8305 35.6749 10.6248 35.713C10.6248 35.713 10.5402 35.713 10.4979 35.713H9.652L9.84937 35.8801C9.51338 35.9332 9.17437 35.9658 8.8343 35.9775C9.08583 36.5239 9.46806 37.0017 9.94806 37.3699C10.0411 37.4359 10.1181 37.5215 10.1736 37.6205C10.1823 37.647 10.1856 37.6749 10.1831 37.7027C10.1807 37.7304 10.1727 37.7574 10.1596 37.7821C10.1464 37.8067 10.1284 37.8285 10.1066 37.8462C10.0848 37.8639 10.0597 37.8771 10.0326 37.885C9.93396 37.885 9.86347 37.8015 9.79298 37.7179C9.58515 37.4727 9.30483 37.2979 8.99131 37.218C8.6778 37.1381 8.34682 37.1571 8.0448 37.2724C8.0448 37.2724 8.0448 37.342 8.0448 37.3838C8.02513 37.3936 8.0034 37.3987 7.98136 37.3987C7.95933 37.3987 7.9376 37.3936 7.91792 37.3838L7.2835 37.5091C7.33931 37.4969 7.39739 37.4995 7.45186 37.5166C7.50633 37.5337 7.55525 37.5648 7.59366 37.6066L6.5222 38.066L6.70547 38.1774C6.30418 38.5792 5.82458 38.8966 5.29565 39.1103L6.79006 39.6533H6.57859C6.82235 39.8593 7.10507 40.0154 7.41038 40.1127V40.1823C7.41038 40.1823 7.41038 40.252 7.41038 40.2659C7.62775 40.437 7.87675 40.5646 8.14349 40.6418C8.27547 40.6803 8.4143 40.6903 8.55053 40.671C8.68676 40.6518 8.8172 40.6039 8.93299 40.5304C9.14446 40.3773 9.32774 40.0988 9.58151 40.1267C9.60499 40.1268 9.62796 40.1334 9.64788 40.1457C9.66779 40.158 9.68386 40.1755 9.69429 40.1963C9.70826 40.2369 9.70826 40.2809 9.69429 40.3216C9.45462 40.6975 8.79201 40.5304 8.55234 40.8924C8.49858 40.9818 8.46492 41.0815 8.45365 41.1848C8.45365 41.5329 8.34087 41.8949 8.31267 42.2569C8.27304 42.516 8.32269 42.7808 8.45365 43.0088C8.53508 43.1 8.63847 43.1695 8.75428 43.2109C8.87008 43.2522 8.99458 43.2641 9.11627 43.2455C9.36084 43.2063 9.59265 43.111 9.79298 42.967C9.942 42.8454 10.1148 42.7553 10.3005 42.7024C10.385 42.7091 10.4698 42.7091 10.5543 42.7024C10.6372 42.6695 10.7135 42.6223 10.7799 42.5632C10.9785 42.39 11.1496 42.1881 11.2874 41.9645C11.3861 41.8114 11.5271 41.6164 11.7103 41.6721C11.7498 41.6869 11.7835 41.7139 11.8063 41.749C11.8291 41.784 11.84 41.8254 11.8372 41.8671C11.2886 42.2464 10.8115 42.7176 10.4274 43.2594C9.78352 44.1613 9.51133 45.2714 9.6661 46.3642C9.30941 46.4449 8.98534 46.6292 8.73562 46.8933C8.49652 47.2088 8.3673 47.5923 8.3673 47.9863C8.3673 48.3804 8.49652 48.7638 8.73562 49.0793C8.57533 49.5302 8.53523 50.0142 8.61918 50.4848C8.70313 50.9554 8.9083 51.3968 9.21495 51.7665C9.21495 51.85 9.58151 51.7665 9.51102 51.6968C9.17058 51.2646 8.93868 50.7588 8.8343 50.221C8.79426 49.9193 8.83309 49.6125 8.94709 49.3299C9.0287 49.4478 9.13664 49.5456 9.26258 49.6158C9.38852 49.686 9.5291 49.7267 9.67348 49.7348C9.81786 49.7429 9.9622 49.7181 10.0954 49.6624C10.2285 49.6066 10.3469 49.5215 10.4415 49.4134C11.1323 48.7033 9.99036 48.3135 9.42643 48.5363C9.22419 48.6186 9.04169 48.7419 8.8907 48.8983C8.75348 48.6961 8.66226 48.4669 8.62332 48.2265C8.58438 47.9862 8.59864 47.7403 8.66512 47.5059C8.75971 47.2977 8.90891 47.1182 9.09728 46.9861C9.28565 46.8539 9.50637 46.7738 9.73659 46.7541C9.775 46.8779 9.82211 46.9988 9.87757 47.1161C10.1031 47.5895 10.6389 48.1464 11.2874 47.8123C11.9359 47.4781 11.2874 46.6149 10.7799 46.4199C10.5421 46.351 10.2942 46.3227 10.0467 46.3364C10.0467 46.3364 10.0467 46.225 10.0467 46.2111C9.97831 45.7076 10.0167 45.1955 10.1595 44.7074C10.3835 43.913 10.8108 43.189 11.4002 42.605C11.2592 42.967 11.5975 43.4404 11.4002 43.7467C11.7724 43.5061 12.1819 43.3274 12.6126 43.2176C12.6729 43.2039 12.7356 43.2039 12.7959 43.2176H12.9369C12.9807 43.2061 13.02 43.1819 13.0497 43.148C13.2167 42.9038 13.3284 42.6268 13.377 42.3361C13.4257 42.0453 13.4102 41.7476 13.3316 41.4633C14.5044 41.0992 15.7074 40.8383 16.9267 40.6836C17.2904 40.6095 17.6297 40.4468 17.9135 40.2102C17.8672 40.336 17.8006 40.4535 17.7162 40.5583C17.4201 40.9481 16.9408 41.1709 16.7152 41.6304C16.6509 41.7621 16.6081 41.9031 16.5883 42.0481C16.3687 42.045 16.1515 42.0927 15.9539 42.1873C15.6765 42.2985 15.4118 42.4385 15.1644 42.605C15.169 42.5727 15.169 42.5399 15.1644 42.5075C14.9456 42.325 14.6684 42.2248 14.3819 42.2248C14.0955 42.2248 13.8183 42.325 13.5995 42.5075C13.3738 42.7133 13.2041 42.9719 13.1061 43.2594C12.9604 43.5479 12.9017 43.8717 12.9369 44.1922C12.9243 44.2425 12.9243 44.2951 12.9369 44.3454C12.6126 44.4718 12.3331 44.6897 12.1333 44.9719C11.8684 45.4374 11.7928 45.985 11.9218 46.5035C11.9504 46.6995 12.0364 46.8829 12.1691 47.0314C12.3019 47.1798 12.4756 47.2866 12.669 47.3389H12.7818C12.6288 47.7383 12.5662 48.1661 12.5985 48.592C12.5819 48.8095 12.6109 49.0282 12.6836 49.2342C12.7564 49.4402 12.8714 49.6292 13.0215 49.7894C13.2049 49.9176 13.4241 49.9865 13.6488 49.9865C13.8736 49.9865 14.0928 49.9176 14.2762 49.7894C14.1354 49.9813 14.0347 50.199 13.9801 50.4298C13.8352 50.8829 13.8352 51.3691 13.9801 51.8221C14.0579 52.0719 14.193 52.3006 14.3749 52.4905C14.4689 52.5841 14.581 52.6582 14.7045 52.7084C14.828 52.7586 14.9604 52.7839 15.0939 52.7828H15.1926C15.0094 52.9357 14.8686 53.1322 14.7837 53.3537C14.688 53.6605 14.6734 53.9865 14.7414 54.3005C14.7663 54.5485 14.8461 54.7881 14.9753 55.0023C15.1044 55.2164 15.2797 55.3999 15.4887 55.5396C15.6485 55.6375 15.8381 55.677 16.0244 55.651C16.405 55.651 16.6165 55.2055 16.7716 54.8713C16.9255 54.5458 17.0255 54.1979 17.0677 53.841C17.1121 53.4788 17.0109 53.1138 16.7857 52.8246C16.9417 52.8728 17.109 52.8728 17.265 52.8246C17.6316 52.8246 17.8572 52.393 17.9981 52.0449C18.1602 51.7224 18.2606 51.3731 18.2942 51.0146C18.3084 50.9316 18.3084 50.8469 18.2942 50.764C18.3708 50.8371 18.4613 50.8944 18.5606 50.9327C18.6598 50.9709 18.7657 50.9893 18.8722 50.9867C19.3093 50.9867 19.6053 50.5134 19.6899 50.0817C19.8029 49.5377 19.7589 48.9733 19.563 48.4527C19.6649 48.5087 19.774 48.5508 19.8873 48.578C20.1207 48.6545 20.3729 48.6545 20.6063 48.578C20.7981 48.4986 20.9619 48.3651 21.0772 48.1943C21.1926 48.0234 21.2544 47.8227 21.2548 47.6173C21.2493 47.2091 21.1325 46.8098 20.9165 46.4617C20.7507 46.1211 20.5098 45.8214 20.2116 45.5846C20.0602 45.4715 19.8873 45.3898 19.7031 45.3443C19.519 45.2989 19.3275 45.2906 19.1401 45.32H18.985C18.9856 45.0762 18.9572 44.8332 18.9004 44.596C19.0773 44.6934 19.2759 44.746 19.4784 44.7492C19.6669 44.7552 19.8518 44.6979 20.0029 44.5866C20.1541 44.4753 20.2624 44.3166 20.3102 44.1365C20.3272 43.9501 20.2931 43.7625 20.2116 43.5935C20.092 43.2552 19.931 42.9326 19.7322 42.6328C19.5913 42.4047 19.3919 42.2174 19.1542 42.0898C18.9885 42.0419 18.8123 42.0419 18.6467 42.0898C18.513 42.0876 18.3806 42.1168 18.2606 42.1749C18.1405 42.233 18.036 42.3183 17.9558 42.424L17.4201 42.2291L17.2227 42.1594C17.5735 41.6228 18.0173 41.1515 18.5339 40.7671C18.6587 40.9326 18.8276 41.0606 19.0218 41.1368C19.2159 41.213 19.4277 41.2345 19.6335 41.1987C20.0988 41.1987 19.9014 40.7393 20.6909 41.1987C20.9729 41.3658 21.1561 41.7139 21.4099 41.9227L21.706 42.1873C21.4804 42.1873 21.2689 42.0898 21.0433 42.1873C20.9406 42.2082 20.8466 42.2593 20.7736 42.3338C20.7007 42.4083 20.6522 42.5028 20.6345 42.605C20.5923 42.8071 20.5923 43.0155 20.6345 43.2176V43.5796C20.6244 43.6015 20.6191 43.6252 20.6191 43.6492C20.6191 43.6733 20.6244 43.697 20.6345 43.7188H20.7473L20.8742 44.0391C20.9792 43.9197 21.0346 43.7655 21.0292 43.6075C21.0292 43.4404 21.0292 43.2455 21.0997 43.1619C21.1843 43.1619 21.2125 43.2733 21.1984 43.3429C21.1843 43.4125 21.0856 43.6771 21.0856 43.8441C21.0872 43.9439 21.119 44.0409 21.1767 44.1228C21.2345 44.2046 21.3157 44.2676 21.4099 44.3036L21.8046 44.5264V44.415L22.2558 44.6099C22.2959 44.3128 22.2571 44.0105 22.143 43.7328C22.1285 43.6827 22.1285 43.6297 22.143 43.5796C22.143 43.5796 22.2135 43.4682 22.2558 43.4961C22.2981 43.5239 22.2558 43.5796 22.3263 43.6214C22.3519 43.777 22.4273 43.9205 22.5414 44.0308C22.6556 44.141 22.8025 44.2122 22.9607 44.234L23.2709 44.3315C23.2448 44.3225 23.2211 44.3078 23.2016 44.2885C23.182 44.2692 23.1672 44.2458 23.1581 44.2201H23.722L23.9053 43.9695ZM11.2169 47.7009C10.7235 48.2996 10.3287 47.492 10.1313 46.9073C10.8221 46.8794 11.5412 47.2275 11.1464 47.7009H11.2169ZM16.6729 40.5583C16.504 40.572 16.3343 40.572 16.1654 40.5583L15.2913 40.6975C14.6194 40.8185 13.9625 41.0099 13.3316 41.2684C13.2449 41.0267 13.1108 40.8043 12.9369 40.614C12.7726 40.4637 12.6259 40.2955 12.4998 40.1127C12.4275 39.9962 12.4023 39.857 12.4293 39.7229C14.0083 39.876 16.7857 40.4608 17.4201 40.3494C17.5611 40.3773 17.1663 40.5583 16.6024 40.5583H16.6729ZM14.5441 46.768L14.248 46.587C14.118 46.5587 13.9833 46.5587 13.8533 46.587C13.9308 46.4439 13.9968 46.2949 14.0506 46.1415C14.1968 45.8135 14.2551 45.4539 14.2198 45.0972C14.2038 44.9754 14.1656 44.8575 14.107 44.7492H14.2198C14.5384 44.5343 14.8114 44.2599 15.0234 43.9416C15.2251 43.6889 15.3255 43.3717 15.3054 43.0505C15.3109 42.9996 15.3109 42.9483 15.3054 42.8974L15.6014 42.7024C15.7988 42.5771 16.4332 42.1316 16.6306 42.3265C16.6257 42.41 16.6257 42.4937 16.6306 42.5771C16.5879 43.1077 16.3922 43.615 16.0667 44.0391C15.7783 43.9446 15.4668 43.9446 15.1785 44.0391C14.9266 44.2055 14.7159 44.4259 14.5621 44.6838C14.4084 44.9417 14.3154 45.2306 14.2903 45.5289C14.2565 45.7215 14.2641 45.919 14.3127 46.1085C14.3613 46.298 14.4497 46.4753 14.5723 46.6288C14.6764 46.7466 14.8074 46.8383 14.9545 46.8964C15.1015 46.9545 15.2605 46.9773 15.4182 46.9629V47.1022C15.2894 47.3696 15.2084 47.6569 15.1785 47.9515C15.1714 47.7194 15.1106 47.4921 15.0006 47.2869C14.8906 47.0817 14.7344 46.9042 14.5441 46.768ZM15.2349 49.2324C15.1476 49.2261 15.06 49.2377 14.9775 49.2665C14.895 49.2952 14.8195 49.3405 14.7555 49.3995C14.9622 49.0779 15.0789 48.708 15.0939 48.3274C15.0871 48.3922 15.0871 48.4575 15.0939 48.5223C15.1632 48.8366 15.3194 49.1258 15.545 49.3577C15.4569 49.2859 15.3487 49.2422 15.2349 49.2324ZM16.3768 44.4707C16.3409 44.3506 16.2937 44.2341 16.2359 44.1226C16.3925 43.9474 16.5296 43.756 16.6447 43.5518C16.7414 43.3695 16.8036 43.1713 16.828 42.967C16.9126 43.1619 17.0113 43.3429 17.0817 43.5378C16.8707 43.6182 16.6923 43.765 16.5742 43.9555C16.4743 44.1126 16.4072 44.2877 16.3768 44.4707ZM15.7424 49.5666C15.7132 49.5307 15.6801 49.498 15.6437 49.4691C15.7552 49.5594 15.8785 49.6344 16.0103 49.6919C16.1352 49.744 16.2694 49.7708 16.405 49.7708C16.5406 49.7708 16.6749 49.744 16.7998 49.6919H16.6729C16.4576 49.8278 16.2748 50.0083 16.1372 50.221C16.0401 49.9843 15.907 49.7636 15.7424 49.5666ZM16.109 52.3512C16.006 52.3376 15.9017 52.3376 15.7988 52.3512C15.9312 52.2086 16.0362 52.0435 16.109 51.8639C16.1863 52.057 16.2959 52.2358 16.4332 52.393C16.3404 52.3726 16.2441 52.3726 16.1513 52.393L16.109 52.3512ZM18.1673 46.9629C18.2467 46.9476 18.3229 46.9193 18.3929 46.8794C18.4103 46.9992 18.4435 47.1162 18.4916 47.2275C18.3323 47.2319 18.1808 47.2967 18.0686 47.4085C17.855 47.5827 17.6981 47.8151 17.6175 48.0768C17.5209 48.6254 17.5596 49.189 17.7303 49.7197C17.5995 49.622 17.4427 49.564 17.2791 49.5527C17.1284 49.5567 16.9799 49.5898 16.8421 49.6501C17.0345 49.5121 17.1857 49.3256 17.28 49.11C17.3742 48.8944 17.408 48.6578 17.3778 48.4249C17.4324 47.6753 17.1954 46.9333 16.7152 46.3503C16.6541 46.2735 16.5774 46.2103 16.4899 46.1647C16.4025 46.1192 16.3063 46.0923 16.2077 46.0858C16.3247 45.9245 16.4151 45.7459 16.4755 45.5567C16.4695 45.6122 16.4695 45.6683 16.4755 45.7238C16.6182 46.0823 16.8453 46.4021 17.1381 46.6566C17.2683 46.7926 17.43 46.8953 17.6093 46.956C17.7886 47.0166 17.98 47.0333 18.1673 47.0047V46.9629ZM17.8572 42.5354C17.7206 42.7981 17.6952 43.1035 17.7867 43.3847H17.6175H17.3778C17.2461 43.1218 17.1284 42.8522 17.0254 42.5771C17.0552 42.4704 17.0978 42.3676 17.1522 42.2708L17.8572 42.5354Z" fill="black"/>
</g>
<g opacity="0.6">
<path d="M23.5671 44.1505C23.8422 44.1017 24.1238 44.1017 24.3989 44.1505L23.9054 43.5657H24.0041C23.9479 43.4187 23.8669 43.2822 23.7645 43.1619C23.7104 43.0412 23.6392 42.9287 23.553 42.8278C23.5059 42.7796 23.4486 42.7421 23.3853 42.7181C23.322 42.694 23.2541 42.6839 23.1864 42.6885C23.0596 42.6885 22.9186 42.7721 22.8058 42.6885C22.8058 42.6885 23.2428 42.8278 23.4261 42.6885C23.4705 42.6588 23.5088 42.621 23.5389 42.5771L23.8632 42.1594C23.9464 42.0568 23.9912 41.9289 23.99 41.7974C23.9781 41.7397 23.951 41.6862 23.9114 41.6422C23.8718 41.5982 23.8211 41.5653 23.7645 41.5468C23.6496 41.5123 23.5269 41.5123 23.412 41.5468C23.3186 41.561 23.2235 41.561 23.13 41.5468C23.13 41.5468 23.0596 41.5468 23.0173 41.5468C22.9705 41.54 22.923 41.54 22.8763 41.5468C22.7477 41.5748 22.6241 41.6217 22.5097 41.6861C22.5097 41.6861 22.3265 41.7696 22.2701 41.6861C22.2137 41.6025 22.2701 41.5051 22.3828 41.4772C22.4845 41.4688 22.5843 41.4454 22.6789 41.4076C22.8481 41.2962 22.8058 40.9899 22.9891 40.9203C22.7705 40.9325 22.5514 40.909 22.3405 40.8507H22.256H22.1855C21.9478 40.9275 21.7466 41.0872 21.6195 41.2999C21.4924 41.5125 21.448 41.7637 21.4947 42.0063C21.5081 42.1126 21.5081 42.2202 21.4947 42.3265C21.5015 42.368 21.5015 42.4103 21.4947 42.4518C21.1884 42.0495 20.8111 41.7052 20.3809 41.4354C19.7606 41.143 18.6891 41.6861 18.379 40.962C18.6468 40.4469 18.534 39.5697 20.113 39.6393C19.9093 39.3314 19.6203 39.0876 19.2804 38.937C18.9406 38.7865 18.5641 38.7355 18.1957 38.79C17.9851 39.1382 17.8372 39.5198 17.7586 39.9178C17.7679 40.0351 17.7469 40.1529 17.6976 40.26C17.6483 40.3671 17.5723 40.4602 17.4767 40.5304C17.096 40.9064 16.0668 40.6 15.5875 40.5304C15.3196 40.5304 13.3882 40.1267 12.063 40.0292C12.0536 39.9838 12.0565 39.9367 12.0713 39.8927C12.0862 39.8487 12.1124 39.8094 12.1475 39.7786C12.4718 39.4723 13.0216 39.514 13.3741 39.2356C13.5331 39.093 13.647 38.908 13.702 38.703C13.7571 38.498 13.7509 38.2816 13.6843 38.0799C13.5431 37.6791 13.3226 37.3099 13.0357 36.9939L12.6128 36.2003C12.5423 36.1168 12.4718 36.0193 12.359 36.0054C12.2462 35.9915 12.1334 36.1029 12.1898 36.2003L11.64 35.7548C11.5848 36.0792 11.6552 36.4122 11.8374 36.6876C12.0066 36.9522 12.3026 37.2446 12.1616 37.5369C12.1323 37.5611 12.0989 37.58 12.063 37.5926C11.922 37.6622 11.7669 37.523 11.7105 37.3838C11.6541 37.2446 11.5695 36.6876 11.4003 36.3813C11.2967 36.2014 11.14 36.057 10.951 35.9674C10.7621 35.8778 10.5499 35.8474 10.343 35.8801C10.343 35.8801 10.343 35.8801 10.343 35.9497C10.343 36.0193 10.2584 35.9497 10.2161 35.9497H9.31381L9.51118 36.1029C9.17649 36.1674 8.83699 36.2047 8.49611 36.2142C8.74765 36.7606 9.12987 37.2384 9.60987 37.6066C9.70249 37.6692 9.7757 37.7559 9.82134 37.8572C9.83245 37.8826 9.83793 37.9101 9.83743 37.9378C9.83694 37.9655 9.83047 37.9927 9.81847 38.0178C9.80646 38.0428 9.78919 38.065 9.76781 38.0829C9.74643 38.1009 9.72142 38.1141 9.69446 38.1217C9.59577 38.1217 9.51118 38.0382 9.45479 37.9546C9.23689 37.719 8.94931 37.5571 8.63294 37.4921C8.31656 37.4272 7.98749 37.4623 7.69252 37.5926C7.69252 37.5926 7.69252 37.6622 7.69252 37.704C7.67284 37.7138 7.65111 37.7189 7.62907 37.7189C7.60704 37.7189 7.58531 37.7138 7.56563 37.704L6.93121 37.8293C6.98486 37.8167 7.04099 37.8192 7.0933 37.8364C7.14561 37.8536 7.19201 37.8849 7.22728 37.9268L6.2827 38.428C6.34857 38.4569 6.41021 38.4943 6.46597 38.5394C6.06467 38.9412 5.58508 39.2586 5.05615 39.4723L6.55056 40.0153H6.33909C6.58079 40.2241 6.86415 40.3807 7.17088 40.4747C7.17088 40.4747 7.08629 40.4747 7.10039 40.4747C7.11449 40.4747 7.10039 40.5444 7.17088 40.5583C7.39168 40.7241 7.63965 40.8512 7.90399 40.9342C8.03696 40.9707 8.17634 40.9783 8.3126 40.9567C8.44886 40.9351 8.57878 40.8847 8.69349 40.8089C8.90496 40.6697 9.08824 40.3912 9.34201 40.419C9.36549 40.4192 9.38846 40.4258 9.40837 40.4381C9.42829 40.4504 9.44436 40.4679 9.45479 40.4887C9.46876 40.5293 9.46876 40.5733 9.45479 40.614C9.21512 40.976 8.55251 40.8228 8.31284 41.1848C8.25732 41.2734 8.22353 41.3735 8.21415 41.4772C8.21415 41.8253 8.10136 42.1873 8.07317 42.5493C8.03354 42.8084 8.08318 43.0732 8.21415 43.3011C8.29782 43.3895 8.40149 43.457 8.51666 43.4981C8.63183 43.5393 8.75524 43.5529 8.87677 43.5378C9.11832 43.5032 9.34664 43.4073 9.53938 43.2594C9.6739 43.2039 9.81684 43.171 9.96233 43.1619H10.2161C10.299 43.1289 10.3753 43.0818 10.4417 43.0227C10.6404 42.8494 10.8115 42.6476 10.9492 42.424C11.0479 42.2708 11.1889 42.0759 11.3721 42.1316C11.4116 42.1464 11.4453 42.1733 11.4681 42.2084C11.4909 42.2435 11.5018 42.2849 11.499 42.3265C10.9504 42.7058 10.4733 43.177 10.0892 43.7188C9.44268 44.6195 9.17024 45.7307 9.32791 46.8237C8.97122 46.9044 8.64715 47.0887 8.39743 47.3528C8.15833 47.6683 8.02911 48.0517 8.02911 48.4458C8.02911 48.8398 8.15833 49.2233 8.39743 49.5387C8.23714 49.9896 8.19704 50.4737 8.28099 50.9443C8.36494 51.4149 8.57011 51.8563 8.87677 52.2259C8.87677 52.3095 9.24332 52.2259 9.17283 52.2259C8.8324 51.7936 8.60049 51.2879 8.49611 50.7501C8.45607 50.4484 8.4949 50.1416 8.6089 49.859C8.69223 49.9746 8.80083 50.0703 8.92665 50.1389C9.05247 50.2075 9.1923 50.2472 9.33578 50.2553C9.47927 50.2633 9.62275 50.2393 9.75561 50.1852C9.88846 50.1311 10.0073 50.0481 10.1033 49.9425C10.7941 49.2324 9.65217 48.8287 9.08824 49.0654C8.88358 49.1432 8.70014 49.2672 8.55251 49.4274C8.41529 49.2251 8.32407 48.996 8.28513 48.7556C8.24619 48.5153 8.26045 48.2694 8.32693 48.035C8.42152 47.8268 8.57072 47.6473 8.75909 47.5151C8.94746 47.383 9.16818 47.3029 9.3984 47.2832C9.43922 47.4061 9.48627 47.5269 9.53938 47.6452C9.76495 48.1186 10.2866 48.6755 10.9492 48.3274C11.6118 47.9793 10.9492 47.13 10.4417 46.9351C10.2053 46.8596 9.95612 46.8312 9.70856 46.8516C9.7108 46.8098 9.7108 46.768 9.70856 46.7263C9.64012 46.2227 9.67853 45.7106 9.82134 45.2225C10.0453 44.4282 10.4726 43.7042 11.062 43.1201C10.921 43.4821 11.2594 43.9555 11.062 44.2618C11.4311 44.0158 11.8417 43.8366 12.2744 43.7328C12.3338 43.7126 12.3983 43.7126 12.4577 43.7328C12.4577 43.7328 12.5564 43.7328 12.5987 43.7328C12.6162 43.7414 12.6355 43.7458 12.6551 43.7458C12.6746 43.7458 12.6939 43.7414 12.7115 43.7328C12.9471 43.4857 13.1158 43.1839 13.202 42.8554C13.2883 42.5268 13.2893 42.1821 13.2049 41.8531C14.3772 41.4844 15.5803 41.2189 16.8 41.0595C17.105 40.8951 17.366 40.6612 17.5613 40.3773C17.5127 40.5021 17.4463 40.6193 17.3639 40.7254C17.0678 41.1152 16.5885 41.338 16.3629 41.7974C16.3 41.9249 16.2573 42.061 16.236 42.2012C16.0162 42.2092 15.8004 42.2613 15.6016 42.3544C15.3242 42.4656 15.0596 42.6056 14.8121 42.7721C14.8167 42.7397 14.8167 42.7069 14.8121 42.6746C14.5921 42.4946 14.3154 42.3961 14.0297 42.3961C13.744 42.3961 13.4672 42.4946 13.2472 42.6746C13.024 42.888 12.8549 43.1503 12.7538 43.4404C12.6074 43.7287 12.5486 44.0527 12.5846 44.3732C12.5705 44.4186 12.5705 44.4671 12.5846 44.5125C12.2621 44.6487 11.984 44.8704 11.781 45.1529C11.51 45.6161 11.4292 46.1643 11.5554 46.6845C11.5889 46.8786 11.6766 47.0596 11.8086 47.2072C11.9406 47.3548 12.1117 47.4631 12.3026 47.5199H12.4154C12.2624 47.9193 12.1998 48.3471 12.2321 48.773C12.2155 48.9905 12.2445 49.2092 12.3173 49.4152C12.39 49.6212 12.505 49.8102 12.6551 49.9704C12.8393 50.0967 13.0582 50.1644 13.2825 50.1644C13.5067 50.1644 13.7256 50.0967 13.9098 49.9704C13.7719 50.1588 13.6714 50.3714 13.6138 50.5969C13.4679 51.0498 13.4679 51.5363 13.6138 51.9892C13.6914 52.2432 13.8264 52.4764 14.0085 52.6715C14.1025 52.7651 14.2146 52.8392 14.3381 52.8894C14.4616 52.9396 14.594 52.9649 14.7275 52.9638H14.8262C14.643 53.1167 14.5023 53.3132 14.4174 53.5347C14.3336 53.8449 14.3336 54.1713 14.4174 54.4815C14.4402 54.7319 14.5191 54.9743 14.6483 55.191C14.7775 55.4077 14.9539 55.5933 15.1646 55.7346C15.3262 55.8277 15.5157 55.8621 15.7003 55.832C16.0668 55.7624 16.2924 55.4004 16.4475 55.0662C16.5996 54.74 16.6995 54.3924 16.7436 54.0359C16.788 53.6737 16.6868 53.3088 16.4616 53.0195C16.6103 53.0909 16.7777 53.1152 16.9409 53.0892C17.3075 53.0195 17.519 52.6436 17.674 52.3095C17.8298 51.9846 17.9299 51.6364 17.9701 51.2791C17.9843 51.1962 17.9843 51.1115 17.9701 51.0285C18.0467 51.1016 18.1372 51.159 18.2365 51.1972C18.3357 51.2355 18.4416 51.2538 18.5481 51.2513C18.9852 51.2513 19.2812 50.7779 19.3658 50.3463C19.4788 49.8023 19.4348 49.2378 19.2389 48.7173C19.3408 48.7732 19.4499 48.8154 19.5632 48.8426C19.7976 48.9127 20.0478 48.9127 20.2822 48.8426C20.4729 48.7617 20.6357 48.6278 20.7508 48.4573C20.866 48.2867 20.9285 48.0868 20.9307 47.8819C20.923 47.4696 20.8064 47.0664 20.5924 46.7123C20.4184 46.3808 20.1787 46.0873 19.8875 45.8491C19.7396 45.7298 19.5669 45.6443 19.3817 45.5986C19.1965 45.5528 19.0033 45.5481 18.816 45.5846H18.6609C18.6638 45.3398 18.6306 45.0959 18.5622 44.8605C18.7448 44.9565 18.9476 45.009 19.1544 45.0137C19.3428 45.0198 19.5277 44.9625 19.6788 44.8512C19.83 44.7399 19.9383 44.5812 19.9861 44.4011C20.003 44.2101 19.9689 44.0181 19.8875 43.8441C19.762 43.5127 19.6013 43.1954 19.4081 42.8974C19.2672 42.6693 19.0678 42.482 18.8301 42.3544C18.6655 42.2992 18.4871 42.2992 18.3226 42.3544C18.1904 42.3527 18.0596 42.3806 17.9399 42.4361C17.8202 42.4916 17.7149 42.5731 17.6317 42.6746L17.096 42.4936L16.8986 42.424C17.2494 41.8873 17.6932 41.416 18.2098 41.0317C18.3329 41.1984 18.5022 41.3266 18.6972 41.4007C18.8923 41.4748 19.1049 41.4917 19.3094 41.4494C19.7747 41.4494 19.5773 41.0038 20.3668 41.4494C20.6488 41.6164 20.832 41.9645 21.0858 42.1734L21.3819 42.4379C21.1563 42.4379 20.9448 42.3404 20.7193 42.3683C20.6162 42.3936 20.5227 42.4478 20.4502 42.5244C20.3776 42.6009 20.3291 42.6967 20.3104 42.7999C20.2682 43.002 20.2682 43.2104 20.3104 43.4125C20.3036 43.5331 20.3036 43.654 20.3104 43.7745C20.3003 43.7964 20.295 43.8201 20.295 43.8441C20.295 43.8682 20.3003 43.8919 20.3104 43.9138H20.4232L20.5501 44.234C20.6521 44.1083 20.7025 43.9492 20.6911 43.7885C20.6911 43.6353 20.6911 43.4404 20.7756 43.3568C20.8602 43.3568 20.8884 43.4543 20.8743 43.5378C20.8602 43.6214 20.7615 43.8581 20.7615 44.0391C20.7612 44.1393 20.7921 44.2372 20.8502 44.3194C20.9082 44.4016 20.9905 44.4642 21.0858 44.4985L21.4806 44.7213V44.6099L21.9317 44.8049C21.9718 44.5078 21.933 44.2054 21.8189 43.9277C21.8189 43.9277 21.8189 43.8163 21.8189 43.7745C21.8189 43.7328 21.8189 43.6631 21.9317 43.691C22.0445 43.7188 21.9317 43.7606 22.0022 43.8163C22.0278 43.972 22.1032 44.1154 22.2174 44.2257C22.3315 44.3359 22.4785 44.4072 22.6366 44.4289L22.9468 44.5403C22.9207 44.5313 22.897 44.5167 22.8775 44.4974C22.8579 44.4781 22.8431 44.4547 22.834 44.4289H23.3979L23.5671 44.1505ZM10.8787 47.8819C10.3853 48.4806 9.99052 47.673 9.77905 47.0883C10.5122 47.0604 11.203 47.3389 10.8082 47.8819H10.8787ZM16.3347 40.7393C16.1658 40.7522 15.9961 40.7522 15.8272 40.7393L14.9531 40.8785C14.3031 40.988 13.6656 41.1605 13.0498 41.3937C12.974 41.1461 12.844 40.9179 12.6692 40.7254C12.5018 40.5832 12.3548 40.4193 12.2321 40.238C12.1598 40.1215 12.1346 39.9823 12.1616 39.8482C13.7406 39.9874 16.518 40.5861 17.1524 40.4747C17.1947 40.5165 16.8282 40.7254 16.2642 40.7393H16.3347ZM14.2059 46.949C14.1131 46.8798 14.014 46.8192 13.9098 46.768C13.7791 46.7467 13.6458 46.7467 13.5151 46.768C13.5925 46.6296 13.6585 46.4853 13.7124 46.3364C13.8598 46.0038 13.9181 45.6395 13.8816 45.2782C13.8655 45.1609 13.8273 45.0475 13.7688 44.9441L13.8816 44.8745C14.1969 44.6557 14.4692 44.3821 14.6852 44.0669C14.8802 43.8108 14.9798 43.4961 14.9672 43.1758C14.9738 43.125 14.9738 43.0735 14.9672 43.0227L15.2633 42.8138C15.4606 42.7024 16.095 42.2569 16.2924 42.4379C16.4898 42.6189 16.2924 42.6189 16.2924 42.6885C16.2381 43.2207 16.0437 43.7295 15.7285 44.1644C15.4419 44.0599 15.1269 44.0599 14.8403 44.1644C14.5901 44.3294 14.3805 44.5475 14.2269 44.8029C14.0732 45.0583 13.9793 45.3444 13.9521 45.6402C13.9214 45.8351 13.9305 46.034 13.9789 46.2254C14.0274 46.4167 14.1141 46.5965 14.2341 46.7541C14.3383 46.8719 14.4693 46.9636 14.6163 47.0217C14.7634 47.0798 14.9223 47.1026 15.08 47.0883V47.2275C14.9513 47.4949 14.8702 47.7822 14.8403 48.0768C14.8249 47.8543 14.7601 47.6379 14.6505 47.443C14.5408 47.2481 14.389 47.0794 14.2059 46.949ZM14.8967 49.4134C14.8092 49.4034 14.7205 49.4132 14.6374 49.4421C14.5544 49.4711 14.4791 49.5184 14.4174 49.5805C14.624 49.2589 14.7407 48.889 14.7557 48.5084C14.7421 48.5819 14.7374 48.6566 14.7416 48.7312C14.8109 49.0455 14.9671 49.3346 15.1928 49.5666C15.112 49.4872 15.0088 49.4338 14.8967 49.4134ZM16.0387 44.6378C16.0021 44.5201 15.95 44.4077 15.8836 44.3036C16.0486 44.1319 16.1907 43.94 16.3065 43.7328C16.4033 43.5505 16.4654 43.3523 16.4898 43.148C16.5744 43.3429 16.6731 43.5239 16.7436 43.7049C16.532 43.7915 16.3542 43.9428 16.236 44.1365C16.1354 44.2881 16.0682 44.4589 16.0387 44.6378ZM15.4042 49.7476L15.3055 49.6501C15.417 49.7404 15.5403 49.8154 15.6721 49.8729C15.9259 49.9708 16.2078 49.9708 16.4616 49.8729H16.3347C16.1131 50.0009 15.9286 50.1831 15.799 50.402C15.7019 50.1653 15.5688 49.9446 15.4042 49.7476ZM15.7708 52.5322C15.6685 52.5108 15.5629 52.5108 15.4606 52.5322C15.593 52.3896 15.6981 52.2245 15.7708 52.0449C15.8486 52.2348 15.953 52.4129 16.0809 52.574C15.9796 52.5454 15.8721 52.5454 15.7708 52.574V52.5322ZM17.8291 47.1439C17.9085 47.1286 17.9847 47.1003 18.0547 47.0604C18.0721 47.1802 18.1053 47.2972 18.1534 47.4085C17.9941 47.4129 17.8426 47.4777 17.7304 47.5895C17.5191 47.7599 17.3624 47.9872 17.2793 48.2439C17.1821 48.7971 17.2208 49.3653 17.3921 49.9007C17.2683 49.7911 17.1072 49.7315 16.9409 49.7337C16.7902 49.7377 16.6417 49.7708 16.5039 49.8311C16.6899 49.6875 16.8365 49.5001 16.9301 49.286C17.0237 49.0719 17.0614 48.8381 17.0396 48.6059C17.0962 47.8537 16.8534 47.1094 16.3629 46.5313C16.3041 46.4542 16.2301 46.3898 16.1452 46.3419C16.0604 46.294 15.9666 46.2637 15.8695 46.2529C15.9795 46.0895 16.0649 45.9113 16.1232 45.7238L16.1514 45.9466C16.2941 46.3051 16.5212 46.6249 16.8141 46.8794C16.9468 47.0059 17.108 47.0995 17.2844 47.1528C17.4608 47.206 17.6475 47.2173 17.8291 47.1857V47.1439ZM17.5613 42.7581C17.4262 43.0212 17.4009 43.3261 17.4908 43.6075H17.3216H17.0819C16.9691 43.329 16.8141 43.0784 16.7295 42.7999C16.757 42.6924 16.7997 42.5893 16.8563 42.4936L17.5613 42.7581Z" fill="#B20665"/>
</g>
<g opacity="0.2">
<path d="M12.9934 68.6971L15.094 71.4678L17.2088 68.6971L15.1363 65.982L17.2088 63.2809L15.094 60.5102L12.9934 63.2809L15.0517 65.982L12.9934 68.6971Z" fill="#B20665"/>
<path d="M23.5811 65.982L25.6536 63.2809L23.5388 60.4963L21.4382 63.2809L19.3235 60.4963L17.2087 63.2809L19.2812 65.982L17.2087 68.7667L19.3235 71.5513L21.4382 68.7667L23.5388 71.5513L25.6536 68.7667L23.5811 65.982ZM23.4965 65.982L21.4382 68.7667L19.3658 65.982L21.4382 63.2809L23.4965 65.982Z" fill="#B20665"/>
<path d="M10.8786 71.4678L12.9933 68.6831L10.9209 65.8985L12.9933 63.1974L10.8786 60.4128L8.80612 63.2113L6.73369 60.5102L4.63306 63.2949L6.69139 65.996L4.63306 68.7806L6.73369 71.5652L8.80612 68.8502L10.8786 71.4678ZM8.80612 68.6831L6.77598 65.982L8.80612 63.3366L10.8363 65.982L8.80612 68.6831Z" fill="#B20665"/>
<path d="M12.9934 74.2385L15.094 77.0092L17.2088 74.2385L15.094 71.4678L12.9934 74.2385Z" fill="#B20665"/>
<path d="M19.3235 71.4678L17.2087 74.2385L19.3235 77.0092L21.4382 74.2385L23.5388 77.0092L25.6536 74.2385L23.5388 71.4678L21.4382 74.2385L19.3235 71.4678Z" fill="#B20665"/>
<path d="M10.8786 77.0092L12.9933 74.2385L10.8786 71.4678L8.80612 74.1828L6.73369 71.4678L4.63306 74.2385L6.73369 77.0092L8.80612 74.2942L10.8786 77.0092Z" fill="#B20665"/>
<path d="M12.9934 79.7799L15.094 82.5367L17.2088 79.7799L15.094 77.0092L12.9934 79.7799Z" fill="#B20665"/>
<path d="M19.3235 77.0092L17.2087 79.7799L19.3235 82.5367L21.4382 79.7799L23.5388 82.5367L25.6536 79.7799L23.5388 77.0092L21.4382 79.7799L19.3235 77.0092Z" fill="#B20665"/>
<path d="M10.8786 82.5367L12.9933 79.7799L10.8786 77.0092L8.80612 79.7103L6.73369 77.0092L4.63306 79.7799L6.73369 82.5367L8.80612 79.8356L10.8786 82.5367Z" fill="#B20665"/>
<path d="M12.9934 85.3074L15.0799 88.0642L12.9934 90.8071L15.094 93.5778L17.2088 90.8071L15.1081 88.0642L17.2088 85.3074L15.094 82.5367L12.9934 85.3074Z" fill="#B20665"/>
<path d="M19.3235 82.5367L17.2087 85.3214L19.3094 88.106L17.2087 90.8906L19.3235 93.6753L21.4382 90.8906L23.5388 93.6753L25.6536 90.8906L23.5529 88.106L25.6536 85.3214L23.5388 82.5367L21.4382 85.3214L19.3235 82.5367ZM21.4382 85.3214L23.5247 88.106L21.4382 90.8906L19.3376 88.106L21.4382 85.3214Z" fill="#B20665"/>
<path d="M10.8786 93.5778L12.9933 90.7932L10.8927 88.0085L12.9933 85.2239L10.8786 82.4393L8.80612 85.2517L6.73369 82.5367L4.63306 85.3214L6.71959 88.106L4.63306 90.8906L6.73369 93.6753L8.80612 90.9603L10.8786 93.5778ZM8.80612 90.7932L6.74779 88.0642L8.80612 85.3631L10.8645 88.0642L8.80612 90.7932Z" fill="#B20665"/>
<path d="M12.9934 96.3485L15.094 99.1192L17.2088 96.3485L15.094 93.5778L12.9934 96.3485Z" fill="#B20665"/>
<path d="M19.3235 93.5778L17.2087 96.3485L19.3235 99.1192L21.4382 96.3485L23.5388 99.1192L25.6536 96.3485L23.5388 93.5778L21.4382 96.3485L19.3235 93.5778Z" fill="#B20665"/>
<path d="M10.8786 99.1192L12.9933 96.3485L10.8786 93.5778L8.80612 96.2928L6.73369 93.5778L4.63306 96.3485L6.73369 99.1192L8.80612 96.4042L10.8786 99.1192Z" fill="#B20665"/>
<path d="M12.9934 101.89L15.094 104.661L17.2088 101.89L15.094 99.1192L12.9934 101.89Z" fill="#B20665"/>
<path d="M19.3235 99.1192L17.2087 101.89L19.3235 104.661L21.4382 101.89L23.5388 104.661L25.6536 101.89L23.5388 99.1192L21.4382 101.89L19.3235 99.1192Z" fill="#B20665"/>
<path d="M8.80612 101.834L6.73369 99.1192L4.63306 101.89L6.73369 104.661L8.80612 101.946L10.8786 104.661L12.9933 101.89L10.8786 99.1192L8.80612 101.834Z" fill="#B20665"/>
</g>
<path d="M15.1362 70.2286C13.5189 70.2286 11.938 70.7022 10.5933 71.5896C9.24862 72.4769 8.20056 73.7381 7.58167 75.2137C6.96277 76.6893 6.80084 78.313 7.11635 79.8795C7.43186 81.446 8.21064 82.8849 9.35421 84.0143C10.4978 85.1436 11.9548 85.9128 13.5409 86.2244C15.1271 86.5359 16.7712 86.376 18.2654 85.7648C19.7595 85.1536 21.0366 84.1185 21.9351 82.7905C22.8336 81.4625 23.3131 79.9012 23.3131 78.3041C23.3094 76.1635 22.4467 74.1116 20.9141 72.5979C19.3814 71.0843 17.3037 70.2323 15.1362 70.2286Z" fill="white"/>
<path d="M15.1363 69.3097C13.3356 69.3124 11.5762 69.8423 10.0803 70.8323C8.58448 71.8223 7.41935 73.228 6.7322 74.8717C6.04504 76.5155 5.86669 78.3235 6.21969 80.0673C6.57269 81.8111 7.4412 83.4125 8.71546 84.669C9.98972 85.9255 11.6125 86.7807 13.3788 87.1266C15.1451 87.4726 16.9756 87.2936 18.6389 86.6125C20.3023 85.9313 21.7238 84.7784 22.7239 83.2996C23.7241 81.8208 24.2578 80.0824 24.2578 78.3041C24.2541 75.9173 23.2914 73.6296 21.5812 71.9432C19.871 70.2569 17.5531 69.3097 15.1363 69.3097ZM15.1363 86.3795C13.5191 86.3795 11.9381 85.9059 10.5934 85.0186C9.24874 84.1312 8.20068 82.87 7.58179 81.3944C6.9629 79.9188 6.80096 78.2951 7.11647 76.7286C7.43198 75.1621 8.21076 73.7232 9.35433 72.5939C10.4979 71.4645 11.9549 70.6954 13.5411 70.3838C15.1272 70.0722 16.7714 70.2321 18.2655 70.8433C19.7596 71.4545 21.0367 72.4896 21.9352 73.8176C22.8337 75.1456 23.3133 76.7069 23.3133 78.3041C23.2947 80.435 22.4255 82.4726 20.8944 83.9743C19.3633 85.4759 17.2941 86.3202 15.1363 86.3238V86.3795Z" fill="#F9D006"/>
<path d="M8.24219 77.9699C8.24219 77.4408 8.69333 77.0649 9.91987 77.0649H10.4274V77.5104H10.2159L10.5684 78.9028L11.0195 77.0927H11.4002L11.9218 78.8192L12.2743 77.4269H12.0064V76.9814H12.951V77.4269H12.7113L12.1333 79.5711H11.6399L11.2169 78.0674L10.794 79.5711H10.3005L9.7084 77.4269C8.9471 77.4269 8.70743 77.594 8.70743 77.8864C8.7053 77.9125 8.70895 77.9388 8.71811 77.9634C8.72728 77.988 8.74175 78.0103 8.76052 78.0289C8.77929 78.0474 8.80191 78.0617 8.82683 78.0707C8.85174 78.0798 8.87834 78.0834 8.9048 78.0813C9.10218 78.1091 9.10218 77.9699 9.10218 77.8724H9.56742C9.56742 78.0423 9.49909 78.2052 9.37747 78.3253C9.25585 78.4454 9.0909 78.5129 8.9189 78.5129C8.7469 78.5129 8.58195 78.4454 8.46033 78.3253C8.33871 78.2052 8.27038 78.0423 8.27038 77.8724L8.24219 77.9699Z" fill="#5B102B"/>
<path d="M12.782 77.9699C12.782 77.4408 13.2331 77.0649 14.4597 77.0649H15.0941V77.5104H14.7416V79.2091H15.0941V79.6546H13.9239V79.2091H14.2482V77.4548C13.4869 77.4548 13.2472 77.6079 13.2472 77.9142C13.2428 77.9396 13.2443 77.9656 13.2517 77.9903C13.2591 78.015 13.2722 78.0377 13.2899 78.0566C13.3077 78.0754 13.3296 78.09 13.354 78.0991C13.3784 78.1082 13.4045 78.1117 13.4305 78.1091C13.5715 78.1091 13.6138 77.9978 13.6138 77.8725H14.079C14.0894 77.9609 14.0801 78.0506 14.0518 78.1352C14.0235 78.2198 13.9768 78.2972 13.9151 78.3622C13.8533 78.4271 13.778 78.478 13.6943 78.5113C13.6106 78.5445 13.5206 78.5593 13.4305 78.5547C13.3486 78.5604 13.2663 78.5495 13.1888 78.5229C13.1112 78.4962 13.04 78.4543 12.9793 78.3996C12.9187 78.3449 12.8699 78.2786 12.836 78.2048C12.8021 78.1309 12.7837 78.051 12.782 77.9699Z" fill="#5B102B"/>
<path d="M15.0234 77.9699C15.0234 77.4408 15.4746 77.0649 16.7011 77.0649H16.9831L18.0686 78.7914V77.5104H17.7444V77.0649H18.9709V77.5104H18.6044V79.6546H18.1391L17.0254 77.8864V79.2787H17.3496V79.7242H16.1513V79.2787H16.5037V77.4548C15.7424 77.4548 15.5028 77.6079 15.5028 77.9142C15.5006 77.9404 15.5043 77.9666 15.5135 77.9912C15.5226 78.0158 15.5371 78.0382 15.5559 78.0567C15.5746 78.0753 15.5973 78.0895 15.6222 78.0986C15.6471 78.1076 15.6737 78.1112 15.7002 78.1091C15.827 78.1091 15.8693 77.9978 15.8693 77.8725H16.3346C16.3449 77.9609 16.3356 78.0506 16.3073 78.1352C16.279 78.2198 16.2324 78.2972 16.1706 78.3622C16.1089 78.4271 16.0335 78.478 15.9499 78.5113C15.8662 78.5445 15.7761 78.5593 15.6861 78.5547C15.603 78.5624 15.5193 78.553 15.44 78.5273C15.3608 78.5015 15.2878 78.4599 15.2256 78.405C15.1634 78.3501 15.1134 78.2832 15.0786 78.2083C15.0438 78.1334 15.025 78.0523 15.0234 77.9699Z" fill="#5B102B"/>
<path d="M18.7876 77.9699C18.7876 77.4408 19.2387 77.0649 20.4653 77.0649H22.002V77.8307H21.579V77.5104H20.7472V78.1509H21.0433V77.9281H21.4663V78.8192H21.0433V78.5965H20.7472V79.2091H21.6072V78.8888H22.0443V79.6546H19.9014V79.2091H20.2679V77.4548C19.5066 77.4548 19.2669 77.6079 19.2669 77.9142C19.2669 78.2205 19.2669 78.1091 19.4502 78.1091C19.6335 78.1091 19.6194 77.9978 19.6194 77.8725H20.0987C20.1091 77.9609 20.0998 78.0506 20.0715 78.1352C20.0432 78.2198 19.9965 78.2972 19.9348 78.3622C19.873 78.4271 19.7977 78.478 19.714 78.5113C19.6303 78.5445 19.5403 78.5593 19.4502 78.5547C19.3676 78.5603 19.2847 78.5496 19.2063 78.5231C19.1279 78.4966 19.0558 78.4548 18.994 78.4003C18.9322 78.3458 18.8822 78.2797 18.8467 78.2057C18.8113 78.1318 18.7912 78.0516 18.7876 77.9699Z" fill="#5B102B"/>
<g opacity="0.2">
<path d="M13.1626 7.42106C12.9088 6.73883 12.4718 6.14013 12.218 5.45789C12.062 5.12831 12.0018 4.7624 12.0441 4.40099C12.0865 4.03959 12.2296 3.6969 12.4577 3.41118C12.6041 3.29703 12.7408 3.17131 12.8665 3.03526C12.9793 2.8821 13.3882 2.53402 13.1485 2.1581C13.1485 2.06063 12.7115 2.03279 12.6128 2.01886C11.7102 1.93388 10.815 1.78498 9.93412 1.57332C9.93412 1.57332 9.93412 4.73389 9.93412 6.39075C9.88506 6.79447 9.99067 7.20171 10.2302 7.53245C10.4738 7.75895 10.7857 7.90072 11.1184 7.93622C11.643 8.04075 12.1763 8.09668 12.7115 8.1033C12.8637 8.11845 13.0158 8.07339 13.1344 7.97799C13.1845 7.89439 13.2133 7.8 13.2182 7.70297C13.2231 7.60594 13.204 7.50919 13.1626 7.42106Z" fill="white"/>
</g>
<g opacity="0.15">
<path d="M16.1513 2.06063C16.0924 2.03809 16.027 2.03809 15.9681 2.06063C15.9383 2.10109 15.9222 2.14984 15.9222 2.19987C15.9222 2.2499 15.9383 2.29864 15.9681 2.3391C16.3205 2.99349 17.0536 3.41118 17.3779 4.0795C17.5295 4.43594 17.5919 4.82318 17.56 5.2085C17.5281 5.59382 17.4028 5.96589 17.1946 6.29329C16.7726 6.9471 16.2269 7.51439 15.5874 7.96407C15.672 8.11722 15.8835 8.15899 16.0667 8.18684C17.3375 8.32426 18.623 8.22988 19.8592 7.90838C20.0563 7.89433 20.2416 7.81025 20.3808 7.67168C20.4148 7.54391 20.4148 7.40961 20.3808 7.28183C20.3808 5.34651 20.2821 3.41118 20.2398 1.47586C20.2398 1.47586 17.5611 1.94925 16.1513 2.06063Z" fill="#B9B5AF"/>
</g>
<g opacity="0.1">
<path d="M6.4376 117.902C5.78854 117.042 5.31017 116.069 5.02778 115.033C2.17994 105.816 2.34912 95.9865 2.53239 86.3238C2.53239 82.5785 2.68747 78.8192 2.75796 75.0739C2.94124 65.3276 3.13862 55.4422 5.30974 45.8352C6.00055 42.786 7.02972 39.5697 9.5392 37.6205C10.949 36.5623 12.8241 35.5042 12.5703 33.8194C12.3165 32.1347 10.3428 31.7867 8.80609 32.0234C7.76563 32.2661 6.7863 32.716 5.92812 33.3457C5.06995 33.9753 4.351 34.7714 3.81533 35.6852C2.76652 37.5543 2.16377 39.6354 2.05305 41.7696C1.88634 44.3312 1.93822 46.9022 2.20813 49.4552C2.20813 49.4552 1.39044 92.2273 1.84158 116.593C1.80452 117.289 1.92993 117.985 2.20813 118.626C2.88578 119.551 3.8934 120.188 5.02778 120.408C7.84742 121.382 11.2733 122.246 13.4867 120.408C10.9208 120.185 8.05889 119.879 6.4376 117.902Z" fill="white"/>
</g>
<g opacity="0.2">
<path d="M22.2278 32.4271C20.8342 31.3068 19.9264 29.7031 19.6901 27.9439C19.4693 26.1984 19.4173 24.4361 19.535 22.6809C19.535 18.4204 19.6337 14.327 19.7606 9.99686C19.7606 9.71839 19.8875 9.34247 19.8875 9.02223C19.8875 8.702 19.5773 8.89692 19.5773 8.89692C17.9185 9.16134 16.2375 9.26394 14.5583 9.20323C15.6104 10.0825 16.3918 11.2353 16.8141 12.5309C17.1861 13.7861 17.4038 15.081 17.4626 16.3876C17.6388 19.8477 17.6388 23.3143 17.4626 26.7743C17.3905 27.6921 17.2107 28.5986 16.9268 29.4754C16.5385 30.7188 15.9533 31.8936 15.1928 32.9562C15.1928 34.0144 18.4213 33.6245 19.8593 33.8612C21.2973 34.0979 22.6789 33.5131 27.2749 36.9104C26.429 34.9751 22.8622 32.8866 22.2278 32.4271Z" fill="#010101"/>
</g>
<g opacity="0.3">
<path d="M16.9267 33.9865C16.4846 33.7628 16.0083 33.6123 15.5169 33.541C14.8715 33.3677 14.2723 33.0574 13.761 32.6317C13.2496 32.2061 12.8385 31.6753 12.5562 31.0766C11.6117 29.0438 12.3166 26.6629 12.1756 24.4352C12.1792 24.2494 12.1304 24.0662 12.0346 23.9061C11.7667 23.5163 11.0759 23.6834 10.8363 24.0871C10.6326 24.5218 10.5639 25.0063 10.6389 25.4795C10.6389 26.6212 10.6389 27.4844 10.6389 27.4844C10.7253 28.403 10.4642 29.3206 9.90578 30.0602C9.34941 30.8025 8.64388 31.4235 7.83335 31.8841C7.59368 32.0373 7.29762 32.3436 7.49499 32.5664C7.53349 32.6094 7.58181 32.6428 7.63597 32.6638C10.4703 33.8847 13.5392 34.4833 16.6306 34.4181C16.828 34.4181 17.11 34.3346 17.0677 34.1536C17.0419 34.0834 16.992 34.0243 16.9267 33.9865Z" fill="#B20665"/>
</g>
<g opacity="0.2">
<path d="M10.6531 34.4181C11.1043 33.6941 9.84955 33.6106 8.83448 33.4574C7.42466 33.2486 6.74794 32.8448 5.70468 33.8751C4.67504 34.8551 3.85886 36.0323 3.30613 37.3347C2.75341 38.6371 2.47579 40.0373 2.49029 41.4494C2.49029 42.2708 3.167 47.9933 3.81552 42.1594C3.93512 40.7306 4.44378 39.3602 5.28761 38.1935C6.13145 37.0268 7.27905 36.1072 8.60891 35.532C9.36372 35.3107 10.0611 34.9308 10.6531 34.4181Z" fill="white"/>
</g>
<g opacity="0.3">
<path d="M7.21313 38.609C7.7097 39.0157 8.3051 39.2874 8.94054 39.3973C9.57597 39.5072 10.2294 39.4514 10.8364 39.2356C10.1976 38.7601 9.40687 38.5278 8.60886 38.5812C8.14462 38.5253 7.67471 38.5347 7.21313 38.609Z" fill="white"/>
<path d="M9.99059 36.1168L9.84961 36.5762C10.188 36.5762 10.3994 36.9243 10.5686 37.2306C10.7378 37.5369 11.0903 37.8433 11.3722 37.6483C11.6542 37.4534 11.5132 37.0496 11.2876 36.799C10.9502 36.4277 10.4908 36.1861 9.99059 36.1168Z" fill="white"/>
<path d="M12.077 46.0858C12.1762 46.0774 12.2715 46.0438 12.3537 45.9883C12.436 45.9328 12.5023 45.8573 12.5462 45.7691C12.5902 45.6808 12.6103 45.5828 12.6047 45.4847C12.599 45.3865 12.5678 45.2914 12.514 45.2086C12.3413 45.2717 12.1996 45.3979 12.1183 45.5611C12.037 45.7243 12.0222 45.9121 12.077 46.0858Z" fill="white"/>
<path d="M13.233 47.868C13.1062 48.2382 13.1062 48.6394 13.233 49.0097C13.3035 49.2046 13.5009 49.3995 13.6842 49.302C13.8674 49.2046 13.811 49.135 13.8392 49.0236C13.9617 48.7052 13.9617 48.3535 13.8392 48.035C13.769 47.9476 13.6725 47.8843 13.5636 47.8543C13.4547 47.8243 13.339 47.8291 13.233 47.868Z" fill="white"/>
<path d="M15.0095 45.9466C15.101 45.6945 15.101 45.4189 15.0095 45.1669L14.8826 45.5149C14.6571 45.6124 14.7416 45.9466 15.0095 45.9466Z" fill="white"/>
<path d="M15.1222 50.945L14.8543 50.7222C14.657 50.945 14.6992 51.3766 14.9812 51.4462C15.2632 51.5158 15.4183 50.945 15.1222 50.945Z" fill="white"/>
<path d="M15.9258 47.9933C15.7848 48.1186 15.7425 48.3831 15.9258 48.4806C15.9737 48.4081 15.9993 48.3235 15.9993 48.2369C15.9993 48.1504 15.9737 48.0657 15.9258 47.9933Z" fill="white"/>
<path d="M15.7709 53.7575L15.4607 54.4397H15.8836C15.9338 54.3928 15.9715 54.3345 15.9936 54.2699C16.0157 54.2053 16.0214 54.1364 16.0103 54.0691C15.9992 54.0018 15.9715 53.9382 15.9298 53.8839C15.8881 53.8296 15.8335 53.7862 15.7709 53.7575Z" fill="white"/>
</g>
<g opacity="0.4">
<path d="M28.4167 44.1922C28.4167 41.7139 28.4168 38.8179 27.1338 36.6598C25.724 34.2789 22.2699 32.7334 21.0998 31.0905C20.174 29.3794 19.7126 27.4607 19.7605 25.5212C19.5314 22.122 19.5597 18.7106 19.845 15.3155C20.1424 13.465 20.0851 11.5758 19.6759 9.74624H19.2811C18.9287 9.34247 18.2097 9.59308 17.9841 10.0665C17.8143 10.568 17.8143 11.1104 17.9841 11.6119C18.9014 16.8322 19.2089 22.1392 18.9005 27.4287C18.9408 29.3924 18.4073 31.326 17.3638 32.998C17.2803 33.0939 17.2222 33.2087 17.1946 33.3321C17.1946 33.7359 17.7444 33.8334 18.1533 33.8194C19.6278 33.8497 21.0655 34.28 22.3088 35.0634C23.5522 35.8469 24.5532 36.9531 25.2024 38.2609C26.6108 40.9047 27.4054 43.825 27.5286 46.8098C27.6695 49.7337 28.304 55.1637 28.6987 60.2318C28.6423 56.5143 28.459 47.8123 28.4167 44.1922Z" fill="#010101"/>
</g>
<g opacity="0.2">
<path d="M27.9514 39.7229C28.0385 40.5403 27.9072 41.3659 27.5708 42.1177C26.9121 43.4559 25.8863 44.5847 24.6101 45.3757C23.9757 45.8073 23.2003 46.3225 23.2003 47.0883C23.2522 47.4349 23.3771 47.7669 23.5669 48.0629C24.6173 50.4479 25.0996 53.0391 24.9767 55.6371C25.5124 73.9972 26.0435 92.3665 26.5698 110.745C26.7233 112.702 26.5999 114.67 26.2032 116.593C25.9945 117.553 25.5875 118.46 25.0078 119.258C24.428 120.056 23.6879 120.727 22.8338 121.229C20.9587 122.204 18.6043 122.009 16.7292 122.928C20.0425 123.481 23.4445 123.169 26.598 122.023C27.3358 121.831 27.9713 121.368 28.3744 120.728C28.5461 120.256 28.5993 119.749 28.5294 119.252C28.036 109.45 29.5304 44.3872 27.9514 39.7229Z" fill="#010101"/>
</g>
<g opacity="0.2">
<path d="M5.78923 119.141C4.7284 118.286 3.96037 117.129 3.58991 115.827C3.06828 114.435 2.9132 110.982 2.47616 109.576V113.502C2.19337 115.117 2.28984 116.775 2.75812 118.347C3.37844 119.74 7.18496 120.519 9.53935 120.714C8.21566 120.381 6.95112 119.85 5.78923 119.141Z" fill="white"/>
</g>
<g opacity="0.3">
<path d="M27.8811 109.576C27.5992 111.469 26.9084 119.057 25.3435 120.185C23.7786 121.313 21.0294 121.925 19.8875 122.594C22.3586 122.313 24.8046 121.847 27.2044 121.201C27.8811 121.062 28.0362 119.907 28.0644 119.6C28.1772 118.472 27.9516 111.149 27.8811 109.576Z" fill="#010101"/>
</g>
<g opacity="0.2">
<path d="M22.7915 115.938C19.5169 116.318 16.2168 116.439 12.9227 116.3C11.864 116.296 10.8125 116.127 9.80704 115.799C9.30044 115.632 8.83715 115.357 8.44983 114.994C8.06252 114.631 7.76062 114.188 7.56543 113.697C7.62922 114.549 7.87899 115.377 8.29757 116.124C8.71615 116.872 9.29363 117.521 9.99032 118.027C10.4557 118.341 10.9635 118.59 11.4988 118.765C11.8221 118.73 12.1483 118.73 12.4716 118.765L20.6486 118.932C21.3131 119.001 21.9842 118.895 22.5941 118.626C23.1399 118.237 23.5726 117.714 23.8489 117.108C23.975 116.929 24.0393 116.714 24.0321 116.495C23.9757 115.938 23.299 115.883 22.7915 115.938Z" fill="#B20665"/>
</g>
<g opacity="0.4">
<path d="M19.0698 10.6373C19.4552 10.7802 19.8201 10.9721 20.1553 11.2082V8.42354C18.49 8.67228 16.8062 8.77942 15.1223 8.74377C13.3917 8.80061 11.6595 8.69806 9.94824 8.43746V8.71592C12.1617 9.23108 14.3751 9.67662 16.6026 10.1082C17.44 10.2074 18.2661 10.3846 19.0698 10.6373Z" fill="#010101"/>
</g>
<g opacity="0.2">
<path d="M12.0205 19.7152C11.9218 16.7078 11.8231 13.6865 11.7103 10.6652C11.767 9.98872 11.5825 9.31398 11.1887 8.75769C11.0514 8.86254 10.945 9.00174 10.8806 9.16088C10.8161 9.32001 10.7959 9.49327 10.8221 9.6627L10.6812 9.25893C10.6812 14.8282 10.7422 20.3975 10.8644 25.9668C10.8567 26.1407 10.8956 26.3136 10.9772 26.468C11.0166 26.5437 11.0838 26.6017 11.165 26.6301C11.2462 26.6586 11.3354 26.6554 11.4143 26.6212C11.483 26.5792 11.5409 26.522 11.5834 26.4541C12.0671 24.2417 12.2144 21.9705 12.0205 19.7152Z" fill="white"/>
</g>
</g>
<defs>
<clipPath id="clip0_57_1894">
<rect width="29" height="124" fill="white" transform="translate(0.643311)"/>
</clipPath>
</defs>
</svg>
