<svg width="12" height="44" viewBox="0 0 12 44" fill="none" xmlns="http://www.w3.org/2000/svg">
<path fill-rule="evenodd" clip-rule="evenodd" d="M4.95924 0.113388C4.46438 0.285927 4.01978 0.656886 3.83747 1.04928C3.70943 1.32483 3.67368 1.60858 3.6722 2.36178L3.67027 3.3227H5.68046H7.69065L7.68873 2.36178C7.68724 1.60858 7.6515 1.32483 7.52346 1.04928C7.13794 0.219559 5.92457 -0.22332 4.95924 0.113388ZM3.67027 7.62678C3.67027 11.6702 3.63339 12.0832 3.15051 13.4452C2.83229 14.3428 2.58398 14.8107 1.79931 15.9919C1.0087 17.1819 0.833459 17.5112 0.520306 18.3955C-0.023581 19.9313 -0.000595357 19.3663 0.000366037 31.1859L0.00124089 41.9732L0.206978 42.405C0.452921 42.9213 1.00703 43.4091 1.55477 43.5914C2.14786 43.7889 9.21306 43.7889 9.80616 43.5914C10.3539 43.4091 10.908 42.9213 11.1539 42.405L11.3597 41.9732L11.3606 31.1859C11.3615 19.3663 11.3845 19.9313 10.8406 18.3955C10.5275 17.5112 10.3522 17.1819 9.56161 15.9919C8.77694 14.8107 8.52864 14.3428 8.21042 13.4452C7.72753 12.0832 7.69065 11.6702 7.69065 7.62678V3.92061H5.68046H3.67027V7.62678ZM9.78824 28.8192V34.9264H5.68046H1.57268V28.8192V22.712H5.68046H9.78824V28.8192Z" fill="white"/>
</svg>
