<svg width="24" height="33" viewBox="0 0 24 33" fill="none" xmlns="http://www.w3.org/2000/svg">
<path fill-rule="evenodd" clip-rule="evenodd" d="M11.9969 0.0746328C11.5136 0.237422 11.2041 0.48483 10.261 1.46247L9.32497 2.43275L8.72314 1.8232C7.90081 0.99016 7.50184 0.790608 6.66194 0.792349C6.14206 0.793445 6.01683 0.817116 5.66109 0.981388C5.29477 1.1505 5.06032 1.36759 3.29425 3.17298C2.21614 4.27516 1.25395 5.29536 1.15599 5.44022C0.845848 5.89898 0.700849 6.45443 0.736629 7.04728C0.783419 7.82278 0.967201 8.18925 1.68976 8.94747C2.01616 9.29001 2.2832 9.59727 2.2832 9.63023C2.2832 9.66319 1.84845 10.1403 1.31712 10.6906C0.10803 11.9427 0 12.1332 0 13.0132C0 13.9025 0.100586 14.0758 1.39532 15.4174C2.97848 17.0578 2.87708 17.0639 4.67587 15.2191L5.97385 13.888V21.5154C5.97385 30.0586 5.95509 29.6762 6.42355 30.6816C6.78229 31.4516 7.48277 32.1729 8.23772 32.5496C9.1916 33.0257 8.99856 33.0134 15.1902 32.9921C20.3347 32.9745 20.7283 32.9652 21.0492 32.8553C22.3911 32.3959 23.3426 31.4483 23.8117 30.1048L23.958 29.6855L23.9748 20.1239L23.9916 10.5623H16.5942H9.19692L12.6167 7.03115C16.3941 3.13067 16.2393 3.32616 16.0199 2.73395C15.8632 2.31092 14.0016 0.433684 13.5075 0.200465C13.0698 -0.00618127 12.4018 -0.0617772 11.9969 0.0746328ZM6.9622 2.78574C7.05509 2.83631 7.32776 3.08339 7.56809 3.3348L8.00502 3.79182L5.83079 6.0323L3.65656 8.27271L3.1263 7.71733C2.55424 7.11829 2.491 6.95447 2.68567 6.57645C2.78644 6.38084 6.18547 2.877 6.38045 2.76775C6.55379 2.67068 6.76271 2.67713 6.9622 2.78574ZM22.2377 5.44893C21.9523 5.50072 16.143 7.27076 15.9082 7.3775C15.5063 7.56028 15.1728 7.97106 15.0407 8.44633L14.9903 8.62744H19.4952H24L23.9785 7.57937C23.9548 6.42953 23.9239 6.31266 23.5382 5.91498C23.2156 5.58231 22.64 5.37605 22.2377 5.44893ZM11.3005 15.18C11.3918 15.2281 11.5255 15.3659 11.5976 15.4862C11.7283 15.7043 11.7288 15.724 11.7288 21.7989V27.8928L11.5868 28.1119C11.1924 28.7206 10.3778 28.6804 10.0085 28.0341C9.88626 27.82 9.88307 27.6828 9.86655 21.9255C9.8551 17.9444 9.87099 15.954 9.91559 15.7833C10.082 15.146 10.7136 14.871 11.3005 15.18ZM15.482 15.1992C15.568 15.2627 15.7017 15.4107 15.7791 15.5279L15.9198 15.7411V21.7684C15.9198 28.4348 15.9417 28.0714 15.5212 28.3808C15.3794 28.4851 15.2366 28.5246 15.0018 28.5246C14.6519 28.5246 14.4395 28.4064 14.2035 28.0805C14.0753 27.9036 14.0745 27.8629 14.0745 21.7847C14.0745 15.711 14.0755 15.6657 14.2033 15.4849C14.2741 15.3847 14.4571 15.2363 14.6099 15.1549C14.9229 14.9882 15.2164 15.0031 15.482 15.1992ZM19.7266 15.2523C20.1291 15.5673 20.1109 15.2586 20.1109 21.7945C20.1109 27.6104 20.1082 27.7481 19.9858 28.0086C19.6531 28.7172 18.6606 28.7218 18.3358 28.0163C18.2445 27.8176 18.2343 27.1973 18.2343 21.7879C18.2343 15.2987 18.2182 15.6166 18.5642 15.2833C18.8841 14.9754 19.3567 14.9627 19.7266 15.2523Z" fill="white"/>
</svg>
