<svg width="58" height="85" viewBox="0 0 58 85" fill="none" xmlns="http://www.w3.org/2000/svg">
<rect x="2" width="54" height="1" fill="black"/>
<rect x="2" y="84" width="54" height="1" fill="black"/>
<rect x="56" y="1" width="1" height="1" fill="black"/>
<rect x="56" y="83" width="1" height="1" fill="black"/>
<rect x="1" y="83" width="1" height="1" fill="black"/>
<rect x="2" y="83" width="54" height="1" fill="#8B9AC6"/>
<rect x="1" y="2" width="56" height="1" fill="#DEE2EF"/>
<rect x="1" y="1" width="55" height="1" fill="#DEE2EF"/>
<rect x="56" y="82" width="1" height="1" fill="#8B9AC6"/>
<rect x="1" y="82" width="1" height="1" fill="#8B9AC6"/>
<rect x="2" y="82" width="54" height="1" fill="#FEFEFC"/>
<rect x="56" y="81" width="1" height="1" fill="#FEFEFC"/>
<rect x="57" y="2" width="1" height="81" fill="black"/>
<rect y="2" width="1" height="81" fill="black"/>
<rect x="5" y="3" width="52" height="78" fill="#EEF0F9"/>
<rect x="1" y="1" width="1" height="1" fill="black"/>
<rect x="1" y="81" width="56" height="1" fill="#DCE2F0"/>
<rect x="1" y="80" width="55" height="1" fill="#DCE2F0"/>
<rect x="1" y="79" width="54" height="1" fill="#DCE2F0"/>
<rect x="1" y="78" width="54" height="1" fill="#DCE2F0"/>
<rect x="1" y="76" width="52" height="1" fill="#DCE2F0"/>
<rect x="1" y="75" width="52" height="1" fill="#DCE2F0"/>
<rect x="1" y="73" width="50" height="1" fill="#DCE2F0"/>
<rect x="1" y="72" width="50" height="1" fill="#DCE2F0"/>
<rect x="1" y="70" width="48" height="1" fill="#DCE2F0"/>
<rect x="1" y="69" width="48" height="1" fill="#DCE2F0"/>
<rect x="1" y="77" width="53" height="1" fill="#DCE2F0"/>
<rect x="1" y="74" width="51" height="1" fill="#DCE2F0"/>
<rect x="1" y="71" width="49" height="1" fill="#DCE2F0"/>
<rect x="1" y="68" width="47" height="1" fill="#DCE2F0"/>
<rect x="1" y="67" width="46" height="1" fill="#DCE2F0"/>
<rect x="1" y="66" width="46" height="1" fill="#DCE2F0"/>
<rect x="1" y="64" width="44" height="1" fill="#DCE2F0"/>
<rect x="1" y="63" width="44" height="1" fill="#DCE2F0"/>
<rect x="1" y="61" width="42" height="1" fill="#DCE2F0"/>
<rect x="1" y="60" width="42" height="1" fill="#DCE2F0"/>
<rect x="1" y="58" width="40" height="1" fill="#DCE2F0"/>
<rect x="1" y="57" width="40" height="1" fill="#DCE2F0"/>
<rect x="1" y="65" width="45" height="1" fill="#DCE2F0"/>
<rect x="1" y="62" width="43" height="1" fill="#DCE2F0"/>
<rect x="1" y="59" width="41" height="1" fill="#DCE2F0"/>
<rect x="1" y="55" width="38" height="1" fill="#DCE2F0"/>
<rect x="1" y="54" width="38" height="1" fill="#DCE2F0"/>
<rect x="1" y="52" width="37" height="1" fill="#DCE2F0"/>
<rect x="1" y="51" width="36" height="1" fill="#DCE2F0"/>
<rect x="1" y="49" width="34" height="1" fill="#DCE2F0"/>
<rect x="1" y="48" width="34" height="1" fill="#DCE2F0"/>
<rect x="1" y="56" width="39" height="1" fill="#DCE2F0"/>
<rect x="1" y="53" width="37" height="1" fill="#DCE2F0"/>
<rect x="1" y="50" width="35" height="1" fill="#DCE2F0"/>
<rect x="1" y="47" width="33" height="1" fill="#DCE2F0"/>
<rect x="1" y="46" width="32" height="1" fill="#DCE2F0"/>
<rect x="1" y="45" width="32" height="1" fill="#DCE2F0"/>
<rect x="1" y="43" width="30" height="1" fill="#DCE2F0"/>
<rect x="1" y="42" width="30" height="1" fill="#DCE2F0"/>
<rect x="1" y="40" width="28" height="1" fill="#DCE2F0"/>
<rect x="1" y="39" width="28" height="1" fill="#DCE2F0"/>
<rect x="1" y="37" width="26" height="1" fill="#DCE2F0"/>
<rect x="1" y="36" width="26" height="1" fill="#DCE2F0"/>
<rect x="1" y="44" width="31" height="1" fill="#DCE2F0"/>
<rect x="1" y="41" width="29" height="1" fill="#DCE2F0"/>
<rect x="1" y="38" width="27" height="1" fill="#DCE2F0"/>
<rect x="1" y="35" width="25" height="1" fill="#DCE2F0"/>
<rect x="1" y="33" width="24" height="1" fill="#DCE2F0"/>
<rect x="1" y="32" width="23" height="1" fill="#DCE2F0"/>
<rect x="1" y="30" width="22" height="1" fill="#DCE2F0"/>
<rect x="1" y="29" width="21" height="1" fill="#DCE2F0"/>
<rect x="1" y="34" width="24" height="1" fill="#DCE2F0"/>
<rect x="1" y="31" width="22" height="1" fill="#DCE2F0"/>
<rect x="1" y="28" width="20" height="1" fill="#DCE2F0"/>
<rect x="1" y="27" width="20" height="1" fill="#DCE2F0"/>
<rect x="1" y="26" width="19" height="1" fill="#DCE2F0"/>
<rect x="1" y="24" width="18" height="1" fill="#DCE2F0"/>
<rect x="1" y="23" width="17" height="1" fill="#DCE2F0"/>
<rect x="1" y="21" width="16" height="1" fill="#DCE2F0"/>
<rect x="1" y="20" width="15" height="1" fill="#DCE2F0"/>
<rect x="1" y="18" width="14" height="1" fill="#DCE2F0"/>
<rect x="1" y="17" width="13" height="1" fill="#DCE2F0"/>
<rect x="1" y="25" width="18" height="1" fill="#DCE2F0"/>
<rect x="1" y="22" width="16" height="1" fill="#DCE2F0"/>
<rect x="1" y="19" width="14" height="1" fill="#DCE2F0"/>
<rect x="1" y="15" width="12" height="1" fill="#DCE2F0"/>
<rect x="1" y="14" width="11" height="1" fill="#DCE2F0"/>
<rect x="1" y="16" width="12" height="1" fill="#DCE2F0"/>
<rect x="1" y="13" width="10" height="1" fill="#DCE2F0"/>
<rect x="1" y="12" width="10" height="1" fill="#DCE2F0"/>
<rect x="1" y="11" width="9" height="1" fill="#DCE2F0"/>
<rect x="1" y="9" width="8" height="1" fill="#DCE2F0"/>
<rect x="1" y="8" width="7" height="1" fill="#DCE2F0"/>
<rect x="1" y="6" width="6" height="1" fill="#DCE2F0"/>
<rect x="1" y="5" width="5" height="1" fill="#DCE2F0"/>
<rect x="1" y="3" width="4" height="1" fill="#DCE2F0"/>
<rect x="1" y="10" width="8" height="1" fill="#DCE2F0"/>
<rect x="1" y="7" width="6" height="1" fill="#DCE2F0"/>
<rect x="1" y="4" width="4" height="1" fill="#DCE2F0"/>
</svg>
