<svg width="211" height="73" viewBox="0 0 211 73" fill="none" xmlns="http://www.w3.org/2000/svg">
<g style="mix-blend-mode:multiply" opacity="0.5">
<g style="mix-blend-mode:multiply" opacity="0.7">
<path d="M173.664 14.5684H37.3374C21.7852 14.5684 9.17773 27.1577 9.17773 42.6875V42.7658C9.17773 58.2955 21.7852 70.8849 37.3374 70.8849H173.664C189.217 70.8849 201.824 58.2955 201.824 42.7658V42.6875C201.824 27.1577 189.217 14.5684 173.664 14.5684Z" fill="white"/>
</g>
<g style="mix-blend-mode:multiply" opacity="0.7">
<path d="M173.664 14.2549H37.3374C21.7852 14.2549 9.17773 26.8442 9.17773 42.374V42.4523C9.17773 57.9821 21.7852 70.5714 37.3374 70.5714H173.664C189.217 70.5714 201.824 57.9821 201.824 42.4523V42.374C201.824 26.8442 189.217 14.2549 173.664 14.2549Z" fill="#F3F3F3"/>
</g>
<g style="mix-blend-mode:multiply" opacity="0.7">
<path d="M173.664 13.9424H37.3374C21.7852 13.9424 9.17773 26.5317 9.17773 42.0615V42.1398C9.17773 57.6696 21.7852 70.2589 37.3374 70.2589H173.664C189.217 70.2589 201.824 57.6696 201.824 42.1398V42.0615C201.824 26.5317 189.217 13.9424 173.664 13.9424Z" fill="#E7E7E7"/>
</g>
<g style="mix-blend-mode:multiply" opacity="0.7">
<path d="M173.664 13.6289H37.3374C21.7852 13.6289 9.17773 26.2183 9.17773 41.748V41.8263C9.17773 57.3561 21.7852 69.9454 37.3374 69.9454H173.664C189.217 69.9454 201.824 57.3561 201.824 41.8263V41.748C201.824 26.2183 189.217 13.6289 173.664 13.6289Z" fill="#DBDBDB"/>
</g>
<g style="mix-blend-mode:multiply" opacity="0.7">
<path d="M173.664 13.3936H37.3374C21.7852 13.3936 9.17773 25.9829 9.17773 41.5127V41.591C9.17773 57.1207 21.7852 69.7101 37.3374 69.7101H173.664C189.217 69.7101 201.824 57.1207 201.824 41.591V41.5127C201.824 25.9829 189.217 13.3936 173.664 13.3936Z" fill="#CECECE"/>
</g>
<g style="mix-blend-mode:multiply" opacity="0.7">
<path d="M173.664 13.0801H37.3374C21.7852 13.0801 9.17773 25.6694 9.17773 41.1992V41.2775C9.17773 56.8073 21.7852 69.3966 37.3374 69.3966H173.664C189.217 69.3966 201.824 56.8073 201.824 41.2775V41.1992C201.824 25.6694 189.217 13.0801 173.664 13.0801Z" fill="#C2C2C2"/>
</g>
<g style="mix-blend-mode:multiply" opacity="0.7">
<path d="M173.664 12.7676H37.3374C21.7852 12.7676 9.17773 25.3569 9.17773 40.8867V40.965C9.17773 56.4948 21.7852 69.0841 37.3374 69.0841H173.664C189.217 69.0841 201.824 56.4948 201.824 40.965V40.8867C201.824 25.3569 189.217 12.7676 173.664 12.7676Z" fill="#B6B6B6"/>
</g>
<g style="mix-blend-mode:multiply" opacity="0.7">
<path d="M173.664 12.4541H37.3374C21.7852 12.4541 9.17773 25.0434 9.17773 40.5732V40.6515C9.17773 56.1813 21.7852 68.7706 37.3374 68.7706H173.664C189.217 68.7706 201.824 56.1813 201.824 40.6515V40.5732C201.824 25.0434 189.217 12.4541 173.664 12.4541Z" fill="#AAAAAA"/>
</g>
<g style="mix-blend-mode:multiply" opacity="0.7">
<path d="M173.664 12.2188H37.3374C21.7852 12.2188 9.17773 24.8081 9.17773 40.3379V40.4162C9.17773 55.9459 21.7852 68.5353 37.3374 68.5353H173.664C189.217 68.5353 201.824 55.9459 201.824 40.4162V40.3379C201.824 24.8081 189.217 12.2188 173.664 12.2188Z" fill="#9E9E9E"/>
</g>
<g style="mix-blend-mode:multiply" opacity="0.7">
<path d="M173.664 11.9053H37.3374C21.7852 11.9053 9.17773 24.4946 9.17773 40.0244V40.1027C9.17773 55.6324 21.7852 68.2218 37.3374 68.2218H173.664C189.217 68.2218 201.824 55.6324 201.824 40.1027V40.0244C201.824 24.4946 189.217 11.9053 173.664 11.9053Z" fill="#929292"/>
</g>
<g style="mix-blend-mode:multiply" opacity="0.7">
<path d="M173.664 11.5918H37.3374C21.7852 11.5918 9.17773 24.1811 9.17773 39.7109V39.7892C9.17773 55.319 21.7852 67.9083 37.3374 67.9083H173.664C189.217 67.9083 201.824 55.319 201.824 39.7892V39.7109C201.824 24.1811 189.217 11.5918 173.664 11.5918Z" fill="#868686"/>
</g>
<g style="mix-blend-mode:multiply" opacity="0.7">
<path d="M173.664 11.2793H37.3374C21.7852 11.2793 9.17773 23.8686 9.17773 39.3984V39.4767C9.17773 55.0065 21.7852 67.5958 37.3374 67.5958H173.664C189.217 67.5958 201.824 55.0065 201.824 39.4767V39.3984C201.824 23.8686 189.217 11.2793 173.664 11.2793Z" fill="#797979"/>
</g>
<g style="mix-blend-mode:multiply" opacity="0.7">
<path d="M173.664 10.9658H37.3374C21.7852 10.9658 9.17773 23.5552 9.17773 39.0849V39.1632C9.17773 54.693 21.7852 67.2823 37.3374 67.2823H173.664C189.217 67.2823 201.824 54.693 201.824 39.1632V39.0849C201.824 23.5552 189.217 10.9658 173.664 10.9658Z" fill="#6D6D6D"/>
</g>
<g style="mix-blend-mode:multiply" opacity="0.7">
<path d="M173.664 10.7305H37.3374C21.7852 10.7305 9.17773 23.3198 9.17773 38.8496V38.9279C9.17773 54.4576 21.7852 67.047 37.3374 67.047H173.664C189.217 67.047 201.824 54.4576 201.824 38.9279V38.8496C201.824 23.3198 189.217 10.7305 173.664 10.7305Z" fill="#616161"/>
</g>
<g style="mix-blend-mode:multiply" opacity="0.7">
<path d="M173.664 10.417H37.3374C21.7852 10.417 9.17773 23.0063 9.17773 38.5361V38.6144C9.17773 54.1442 21.7852 66.7335 37.3374 66.7335H173.664C189.217 66.7335 201.824 54.1442 201.824 38.6144V38.5361C201.824 23.0063 189.217 10.417 173.664 10.417Z" fill="#555555"/>
</g>
<g style="mix-blend-mode:multiply" opacity="0.7">
<path d="M173.664 10.1045H37.3374C21.7852 10.1045 9.17773 22.6938 9.17773 38.2236V38.3019C9.17773 53.8317 21.7852 66.421 37.3374 66.421H173.664C189.217 66.421 201.824 53.8317 201.824 38.3019V38.2236C201.824 22.6938 189.217 10.1045 173.664 10.1045Z" fill="#494949"/>
</g>
<g style="mix-blend-mode:multiply" opacity="0.7">
<path d="M173.664 9.79102H37.3374C21.7852 9.79102 9.17773 22.3804 9.17773 37.9101V37.9884C9.17773 53.5182 21.7852 66.1075 37.3374 66.1075H173.664C189.217 66.1075 201.824 53.5182 201.824 37.9884V37.9101C201.824 22.3804 189.217 9.79102 173.664 9.79102Z" fill="#3D3D3D"/>
</g>
<g style="mix-blend-mode:multiply" opacity="0.7">
<path d="M173.664 9.55566H37.3374C21.7852 9.55566 9.17773 22.145 9.17773 37.6748V37.7531C9.17773 53.2828 21.7852 65.8722 37.3374 65.8722H173.664C189.217 65.8722 201.824 53.2828 201.824 37.7531V37.6748C201.824 22.145 189.217 9.55566 173.664 9.55566Z" fill="#313131"/>
</g>
<g style="mix-blend-mode:multiply" opacity="0.7">
<path d="M173.664 9.24219H37.3374C21.7852 9.24219 9.17773 21.8315 9.17773 37.3613V37.4396C9.17773 52.9694 21.7852 65.5587 37.3374 65.5587H173.664C189.217 65.5587 201.824 52.9694 201.824 37.4396V37.3613C201.824 21.8315 189.217 9.24219 173.664 9.24219Z" fill="#242424"/>
</g>
<g style="mix-blend-mode:multiply" opacity="0.7">
<path d="M173.664 8.92871H37.3374C21.7852 8.92871 9.17773 21.5181 9.17773 37.0478V37.1261C9.17773 52.6559 21.7852 65.2452 37.3374 65.2452H173.664C189.217 65.2452 201.824 52.6559 201.824 37.1261V37.0478C201.824 21.5181 189.217 8.92871 173.664 8.92871Z" fill="#181818"/>
</g>
<g style="mix-blend-mode:multiply" opacity="0.7">
<path d="M173.664 8.61621H37.3374C21.7852 8.61621 9.17773 21.2056 9.17773 36.7353V36.8136C9.17773 52.3434 21.7852 64.9327 37.3374 64.9327H173.664C189.217 64.9327 201.824 52.3434 201.824 36.8136V36.7353C201.824 21.2056 189.217 8.61621 173.664 8.61621Z" fill="#0C0C0C"/>
</g>
<g style="mix-blend-mode:multiply" opacity="0.7">
<path d="M173.664 8.38086H37.3374C21.7852 8.38086 9.17773 20.9702 9.17773 36.5V36.5783C9.17773 52.108 21.7852 64.6974 37.3374 64.6974H173.664C189.217 64.6974 201.824 52.108 201.824 36.5783V36.5C201.824 20.9702 189.217 8.38086 173.664 8.38086Z" fill="black"/>
</g>
</g>
<path d="M173.664 8.38086H37.3374C21.7852 8.38086 9.17773 20.9702 9.17773 36.5V36.5783C9.17773 52.108 21.7852 64.6974 37.3374 64.6974H173.664C189.217 64.6974 201.824 52.108 201.824 36.5783V36.5C201.824 20.9702 189.217 8.38086 173.664 8.38086Z" fill="url(#paint0_radial_333_1836)"/>
<g style="mix-blend-mode:screen" opacity="0.64">
<path style="mix-blend-mode:screen" opacity="0.64" d="M173.586 8.85079C177.341 8.65101 181.097 9.21703 184.626 10.5143C188.155 11.8116 191.382 13.813 194.11 16.3965C196.839 18.98 199.012 22.0913 200.497 25.5409C201.982 28.9905 202.748 32.706 202.748 36.4608C202.748 40.2156 201.982 43.9311 200.497 47.3806C199.012 50.8302 196.839 53.9416 194.11 56.525C191.382 59.1085 188.155 61.1099 184.626 62.4072C181.097 63.7045 177.341 64.2705 173.586 64.0707H37.3374C30.6748 63.1978 24.5575 59.9353 20.1259 54.8914C15.6942 49.8476 13.2506 43.3666 13.2506 36.6566C13.2506 29.9466 15.6942 23.4656 20.1259 18.4217C24.5575 13.3779 30.6748 10.1154 37.3374 9.24242H173.586V8.85079ZM173.586 8.77246H37.3374C29.869 8.77246 22.7065 11.735 17.4255 17.0084C12.1445 22.2817 9.17773 29.4339 9.17773 36.8916C9.17773 44.3492 12.1445 51.5014 17.4255 56.7748C22.7065 62.0481 29.869 65.0107 37.3374 65.0107H173.586C181.054 65.0107 188.217 62.0481 193.498 56.7748C198.779 51.5014 201.746 44.3492 201.746 36.8916C201.746 29.4339 198.779 22.2817 193.498 17.0084C188.217 11.735 181.054 8.77246 173.586 8.77246V8.77246Z" fill="url(#paint1_linear_333_1836)"/>
</g>
<path opacity="0.05" d="M175.233 0H35.7682C16.014 0 0 15.9909 0 35.7167V37.2833C0 57.0091 16.014 73 35.7682 73H175.233C194.987 73 211.001 57.0091 211.001 37.2833V35.7167C211.001 15.9909 194.987 0 175.233 0Z" fill="white"/>
<g style="mix-blend-mode:screen">
<g style="mix-blend-mode:screen">
<path d="M175.233 0H35.7682C16.014 0 0 15.9909 0 35.7167V37.2833C0 57.0091 16.014 73 35.7682 73H175.233C194.987 73 211.001 57.0091 211.001 37.2833V35.7167C211.001 15.9909 194.987 0 175.233 0Z" fill="url(#paint2_linear_333_1836)" fill-opacity="0.1" style="mix-blend-mode:screen"/>
<path d="M175.233 0H35.7682C16.014 0 0 15.9909 0 35.7167V37.2833C0 57.0091 16.014 73 35.7682 73H175.233C194.987 73 211.001 57.0091 211.001 37.2833V35.7167C211.001 15.9909 194.987 0 175.233 0Z" fill="url(#paint3_linear_333_1836)" fill-opacity="0.3" style="mix-blend-mode:screen"/>
</g>
<path style="mix-blend-mode:screen" d="M175.233 1.09657C184.414 1.11731 193.213 4.77394 199.698 11.2642C206.183 17.7545 209.825 26.5485 209.825 35.7167V37.2833C209.825 46.4516 206.183 55.2455 199.698 61.7358C193.213 68.2261 184.414 71.8827 175.233 71.9034H35.7682C26.5731 71.9034 17.7547 68.256 11.2528 61.7634C4.75088 55.2709 1.09815 46.4651 1.09815 37.2833V35.7167C1.09815 26.5349 4.75088 17.7291 11.2528 11.2366C17.7547 4.74404 26.5731 1.09657 35.7682 1.09657H175.233ZM175.233 0H35.7682C26.2883 0.0206915 17.2025 3.79034 10.4992 10.484C3.7958 17.1778 0.0207213 26.2504 0 35.7167L0 37.2833C0.0207213 46.7496 3.7958 55.8222 10.4992 62.516C17.2025 69.2097 26.2883 72.9793 35.7682 73H175.233C184.706 72.9588 193.78 69.1825 200.479 62.4933C207.178 55.804 210.96 46.7432 211.001 37.2833V35.7167C210.96 26.2568 207.178 17.196 200.479 10.5067C193.78 3.81746 184.706 0.0412205 175.233 0V0Z" fill="url(#paint4_linear_333_1836)"/>
</g>
<g opacity="0.2">
<path opacity="0.2" d="M44.2401 6.97132C50.7505 20.5217 32.0036 21.305 28.5523 24.9863C25.101 28.6677 21.9634 47.466 8.15812 36.3436C3.37334 30.2342 7.29529 18.7202 17.1786 10.6526C27.0619 2.58505 39.22 0.861875 44.2401 6.97132Z" fill="white"/>
</g>
<g style="mix-blend-mode:screen">
<g style="mix-blend-mode:screen" opacity="0.03">
<path d="M32.4734 12.7667C31.2062 13.0264 29.9704 13.4202 28.7868 13.9416C27.6346 14.4065 26.5311 14.9836 25.4923 15.6648V15.6648C23.4007 17.0285 21.5681 18.7524 20.08 20.756C18.732 22.4934 17.6483 24.4201 16.864 26.4738C16.864 27.257 16.3934 28.0403 16.1581 28.7452C15.609 31.1734 16.1581 32.8965 16.1581 33.1315C16.1581 33.3665 17.2562 33.1315 18.1975 31.6433L20.0016 29.2152L22.3548 26.4738C22.7165 26.0285 23.1097 25.6097 23.5314 25.2206C23.9236 24.8289 24.3158 24.359 24.7864 23.9673L26.2767 22.7141L28.0024 21.5392L28.6299 21.0693C32.0971 18.9571 35.8856 17.4227 39.8467 16.5264C42.9843 15.6648 45.0237 15.1948 44.9452 14.3332C44.8668 13.4716 44.3177 13.4716 43.298 13.08H42.3567H41.337H40.082H39.2192C37.0009 12.6239 34.7246 12.5181 32.4734 12.7667V12.7667Z" fill="#080808"/>
</g>
<g style="mix-blend-mode:screen" opacity="0.06">
<path d="M32.3169 12.923C31.0867 13.1916 29.8801 13.5583 28.7087 14.0196C27.5989 14.4908 26.5241 15.0404 25.4927 15.6645V15.6645C23.4141 16.9523 21.6032 18.6276 20.1588 20.599C18.8821 22.313 17.8278 24.1816 17.0213 26.1602C16.7367 26.9012 16.5009 27.6599 16.3153 28.4316C15.7662 30.7814 16.3153 32.4263 16.3153 32.7396C16.3153 33.0529 17.4135 32.7396 18.3547 31.2514C19.296 29.7632 19.4529 29.7632 20.1588 28.9016C20.8712 27.9758 21.6304 27.087 22.4336 26.2385C22.9042 25.7685 23.2964 25.2202 23.8455 24.7503L25.1005 23.4971L26.5908 22.3222C27.0904 21.8432 27.643 21.4227 28.2381 21.069H28.8656C32.252 18.964 35.962 17.4292 39.847 16.526C42.9062 15.7428 44.9456 15.2728 44.8671 14.4112C44.7887 13.5496 44.2396 13.628 43.2199 13.2363H42.3571H41.3374H40.0824H38.7489C36.6282 12.8485 34.4653 12.7432 32.3169 12.923Z" fill="#101010"/>
</g>
<g style="mix-blend-mode:screen" opacity="0.1">
<path d="M32.1601 13.0018C30.9612 13.3234 29.7826 13.7157 28.6303 14.1767C27.553 14.663 26.5054 15.2123 25.4927 15.8216V15.8216C23.5014 17.1008 21.7494 18.7178 20.3157 20.5995C19.0344 22.2688 18.0038 24.1158 17.2566 26.0823C16.9618 26.7929 16.7257 27.5264 16.5507 28.2754C16.0016 30.5469 16.5507 32.1917 16.5507 32.4267C16.5507 32.6617 17.6488 32.4267 18.5117 30.9385L20.3157 28.6671L22.512 26.0823L23.9239 24.6724L25.1005 23.4975L26.5909 22.3226L28.2381 21.1478L28.8656 20.7561C32.1986 18.765 35.8252 17.3112 39.6118 16.4482C42.5925 15.6649 44.5534 15.195 44.5534 14.4117C44.5534 13.6284 44.0044 13.6284 42.9846 13.2368H42.1218H41.1021H39.8471H38.5921C36.4682 12.8714 34.3049 12.7924 32.1601 13.0018V13.0018Z" fill="#191919"/>
</g>
<g style="mix-blend-mode:screen" opacity="0.13">
<path d="M32.0032 13.1583C30.8345 13.4637 29.6825 13.8297 28.5519 14.2549C27.5059 14.6656 26.4845 15.1363 25.4928 15.6647V15.6647C23.5499 16.9169 21.8493 18.5089 20.4727 20.3643C19.2331 21.9624 18.2293 23.7296 17.492 25.6122C17.1972 26.3228 16.9611 27.0562 16.7861 27.8053C16.237 29.9984 16.3939 31.565 16.7861 31.8783C17.1783 32.1916 17.8058 31.8783 18.6686 30.3901L20.4727 28.1969L22.669 25.6122L24.0025 24.2806L25.179 23.4974L26.6694 22.2441L28.2382 21.1476L28.8657 20.6776C32.0842 18.7554 35.5748 17.3295 39.2196 16.448C42.1219 15.6647 44.0829 15.2731 44.0829 14.4115C44.0829 13.5499 43.5338 13.6283 42.5925 13.2366H41.7297H40.71H39.455H38.3568C36.2558 12.8818 34.1123 12.8553 32.0032 13.1583V13.1583Z" fill="#212121"/>
</g>
<g style="mix-blend-mode:screen" opacity="0.16">
<path d="M31.8464 13.3146C30.7035 13.6205 29.5776 13.9866 28.4735 14.4112C27.5322 14.8811 26.5125 15.3511 25.4928 15.9777C23.6213 17.2004 21.9759 18.7374 20.6296 20.5206C19.4149 22.0933 18.4371 23.8349 17.7273 25.6901C17.4342 26.3476 17.1981 27.0289 17.0214 27.7266C16.4723 29.9198 17.0214 31.4863 17.0214 31.7213C17.0214 31.9562 18.0411 31.7213 18.9039 30.3114L20.6296 28.1183L22.7474 25.8468L24.0809 24.5153L25.2575 23.497L26.6694 22.3221L28.2382 21.1472H28.8657C32.0432 19.0381 35.5389 17.4514 39.2196 16.4477C42.0434 15.6644 44.0044 15.2728 43.926 14.4895C43.8475 13.7062 43.4553 13.7062 42.5925 13.3146H41.6512H40.6315L39.2196 12.688H38.1215C36.0111 12.6148 33.9004 12.8255 31.8464 13.3146V13.3146Z" fill="#292929"/>
</g>
<g style="mix-blend-mode:screen" opacity="0.19">
<path d="M31.3751 13.4717C30.2442 13.7306 29.1409 14.0978 28.0807 14.5682C27.108 15.0026 26.1648 15.4997 25.2568 16.0564V16.0564C23.4324 17.2473 21.816 18.7291 20.4721 20.4427C19.2774 21.9718 18.3007 23.6588 17.5698 25.4556C17.5698 26.1605 17.0992 26.8654 16.9423 27.492C16.3932 29.6069 16.5501 31.0951 16.9423 31.33C17.3345 31.565 17.962 31.33 18.8248 29.9985C19.6877 28.6669 19.8446 28.6669 20.5505 27.8837L22.6684 25.4556L23.9234 24.124L25.3353 23.4974L26.6688 22.3225L28.2375 21.226L28.865 20.8343C32.0391 18.7904 35.5414 17.3067 39.219 16.4481C41.9644 15.6648 43.7685 15.2732 43.7685 14.4899C43.7685 13.7066 43.2978 13.785 42.435 13.3933H41.5722H40.5525L39.219 12.7667H37.8855C35.6915 12.6486 33.4928 12.8867 31.3751 13.4717V13.4717Z" fill="#313131"/>
</g>
<g style="mix-blend-mode:screen" opacity="0.23">
<path d="M31.3751 13.6283C30.3231 13.8619 29.298 14.2031 28.316 14.6465C27.3353 15.0642 26.3909 15.5619 25.4922 16.1347V16.1347C23.7198 17.2714 22.1547 18.7018 20.8643 20.3643C19.7073 21.8764 18.7577 23.5359 18.0405 25.2989C18.0405 26.0038 17.5699 26.6304 17.413 27.257C16.8639 29.2935 17.413 30.7817 17.413 31.0167C17.413 31.2517 18.4327 31.0167 19.2171 29.6852C19.845 29.0248 20.4219 28.3178 20.9427 27.5703L22.9822 25.2206C22.9822 24.8289 23.7665 24.359 24.2372 23.9673L25.4138 23.4974L26.7472 22.3225L28.2376 21.3043H28.8651C31.918 19.4055 35.2542 18.0042 38.7484 17.153C41.4153 16.448 43.2194 16.0564 43.2194 15.2731C43.2194 14.4899 43.2194 14.5682 41.9644 14.2549H41.1016H40.0819L39.219 12.845H37.6503C35.5328 12.823 33.422 13.0865 31.3751 13.6283V13.6283Z" fill="#3A3A3A"/>
</g>
<g style="mix-blend-mode:screen" opacity="0.26">
<path d="M31.3755 13.7852C30.3522 14.0306 29.3543 14.3715 28.3949 14.8034C27.4412 15.1946 26.5228 15.6662 25.6495 16.2133V16.2133C23.942 17.3751 22.4324 18.8031 21.1785 20.4429C20.0505 21.8754 19.1266 23.4569 18.4331 25.1425C18.4331 25.8474 17.9625 26.474 17.8056 27.1007C17.2565 29.0588 17.4134 30.4687 17.8056 30.7037C18.1978 30.9386 18.8253 30.7037 19.6097 29.4504L21.2569 27.414L23.2179 25.1425L24.4729 23.8893L25.5711 22.871L26.9045 21.7745L28.3949 20.7562L29.0224 20.2863C32.014 18.4682 35.2681 17.1209 38.6704 16.2916C41.2589 15.5867 42.9845 15.1951 43.063 14.4901C43.1414 13.7852 43.063 13.7852 41.8864 13.4719H41.0236H40.0038H38.8273H37.4154C35.397 13.3165 33.3669 13.4218 31.3755 13.7852V13.7852Z" fill="#424242"/>
</g>
<g style="mix-blend-mode:screen" opacity="0.29">
<path d="M31.3752 13.8635L28.2376 14.8817C27.3093 15.2734 26.417 15.7451 25.5707 16.2916V16.2916C23.8929 17.3997 22.4089 18.7757 21.1781 20.3645C20.0746 21.7711 19.1767 23.3271 18.5112 24.9858C18.2447 25.5648 18.0346 26.1681 17.8837 26.7873C17.3346 28.7454 17.8837 30.1553 17.8837 30.3903C17.8837 30.6253 18.825 30.3903 19.6093 29.1371L21.2566 27.1789C21.9647 26.3978 22.7247 25.6651 23.5313 24.9858L24.3941 23.4976L25.4923 22.5577L26.8257 21.4611C27.2686 21.0849 27.7407 20.7444 28.2376 20.4429L28.7867 20.0512C31.7328 18.2719 34.9333 16.9513 38.2778 16.1349C40.7879 15.43 42.5135 15.0384 42.592 14.3334C42.6704 13.6285 42.592 13.7068 41.4154 13.3152H40.5526H39.6113H38.4347H37.2581C35.2816 13.2427 33.3041 13.427 31.3752 13.8635V13.8635Z" fill="#4A4A4A"/>
</g>
<g style="mix-blend-mode:screen" opacity="0.32">
<path d="M31.3753 14.0196C30.4103 14.2893 29.4664 14.6296 28.5515 15.0378L26.0414 16.3694C24.4514 17.4685 23.0253 18.787 21.8057 20.2857C20.7292 21.6397 19.8571 23.1438 19.2172 24.7503C18.9508 25.3293 18.7406 25.9326 18.5897 26.5518C18.0407 28.4316 18.5897 29.7632 18.5897 29.9981C18.5897 30.2331 19.6094 29.9981 20.3154 28.8232C20.8716 28.1978 21.3953 27.5443 21.8842 26.8651L23.5314 24.7503L24.4727 23.4971L25.5708 22.5571L26.8258 21.5389L28.2377 20.5207H28.7868C31.6702 18.8014 34.7878 17.5087 38.0426 16.6827C40.4742 15.9777 42.1999 15.5861 42.2783 14.9595C42.3568 14.3329 42.2783 14.3329 41.1802 13.9413H40.3174L39.2192 13.2363H38.0426H37.0229C35.1146 13.2548 33.2165 13.518 31.3753 14.0196V14.0196Z" fill="#525252"/>
</g>
<g style="mix-blend-mode:screen" opacity="0.35">
<path d="M30.8269 14.177C29.8962 14.443 28.9799 14.7567 28.0815 15.1169C27.246 15.5138 26.4342 15.9584 25.6499 16.4485V16.4485C24.1124 17.4945 22.738 18.7613 21.5711 20.2081C20.5517 21.5723 19.6838 23.043 18.9826 24.5944C18.7642 25.157 18.5808 25.7324 18.4335 26.3176C17.8844 28.1191 18.0413 29.3723 18.4335 29.6073C18.8257 29.8423 19.3748 29.6073 20.1592 28.5107L21.6495 26.6309C22.1986 25.9259 22.9045 25.221 23.6105 24.4377L24.5518 23.4978L25.6499 22.5579L26.8265 21.5397L28.2384 20.5998L28.7875 20.2081C31.5749 18.4838 34.62 17.2147 37.808 16.4485C40.2396 15.7435 41.8084 15.3519 41.8868 14.7253C41.9652 14.0987 41.8868 14.0987 40.9455 13.7854C40.6606 13.7304 40.3677 13.7304 40.0827 13.7854L39.2199 13.3154H38.0433H36.7883C34.7711 13.3298 32.7654 13.6197 30.8269 14.177V14.177Z" fill="#5A5A5A"/>
</g>
<g style="mix-blend-mode:screen" opacity="0.39">
<path d="M30.5916 14.3337C29.6989 14.717 28.8339 15.1619 28.0031 15.6652C27.1874 16.0214 26.4006 16.4404 25.6499 16.9184V16.9184C24.1857 17.9395 22.8891 19.1814 21.8064 20.5998C20.7393 21.8456 19.8667 23.2451 19.2179 24.7511C19.2179 25.3777 18.8257 25.9259 18.6688 26.4742C18.1198 28.1974 18.6688 29.4506 18.6688 29.6856C18.6688 29.9206 19.6101 29.6856 20.3161 28.5107C20.8471 27.9393 21.3447 27.3378 21.8064 26.7092L23.5321 24.3594C23.884 24.0548 24.2505 23.7673 24.6302 23.4978L25.6499 22.5579L26.9049 21.5397L28.2384 20.3648H28.7875C31.5114 18.6806 34.4727 17.4133 37.5727 16.6051C39.9258 15.9785 41.4946 15.5869 41.573 14.9603C41.6515 14.3337 41.573 14.412 40.7102 14.0987H39.8474L39.2199 13.3154H36.8667C34.7341 13.32 32.6159 13.6637 30.5916 14.3337V14.3337Z" fill="#636363"/>
</g>
<g style="mix-blend-mode:screen" opacity="0.42">
<path d="M30.4341 14.4897L27.9241 15.6646L25.6493 16.9178C24.1976 17.8639 22.9232 19.0568 21.8842 20.4425C20.8524 21.6701 20.0067 23.0424 19.3742 24.5155C19.3742 25.0637 19.3742 25.612 18.8251 26.082C18.276 27.8052 18.4329 28.9801 18.8251 29.215C19.2173 29.45 19.6879 29.215 20.3939 28.1185L21.8842 26.3953L23.5315 24.1238C23.9169 23.7781 24.2834 23.4121 24.6296 23.0273L25.6493 22.1657L26.8259 21.2258L28.1594 20.2858H28.7084C31.3872 18.7144 34.262 17.5029 37.2583 16.6828C39.533 16.0562 41.0234 15.6646 41.1803 15.1163C41.3371 14.568 41.1803 14.568 40.3174 14.2547C40.0591 14.1973 39.7913 14.1973 39.533 14.2547H38.5918H36.2386C34.3016 14.0867 32.3511 14.1657 30.4341 14.4897V14.4897Z" fill="#6B6B6B"/>
</g>
<g style="mix-blend-mode:screen" opacity="0.45">
<path d="M30.2772 14.6462C29.4384 14.9139 28.6248 15.2547 27.8456 15.6644L25.6493 16.8393C24.2861 17.7773 23.0701 18.9123 22.0411 20.2073C21.0531 21.3942 20.2347 22.7122 19.6095 24.1236C19.3714 24.6249 19.1874 25.15 19.0604 25.6902C18.5114 27.335 19.0604 28.5099 19.0604 28.7449C19.0604 28.9799 20.0017 28.7449 20.7077 27.6483L22.1196 26.0035C22.6686 25.3769 23.2177 24.6719 23.9237 23.967C24.2829 23.6475 24.6234 23.3075 24.9434 22.9487L25.9631 22.0872L27.1397 21.1472L28.3947 20.2857L28.9438 19.894C31.547 18.3023 34.3768 17.1139 37.3367 16.3693C39.2193 15.6644 40.7881 15.6644 40.9449 14.7245C41.1018 13.7846 40.9449 14.1762 40.1605 13.8629L39.2193 13.6279H38.3564H36.1602C34.1628 13.7069 32.1847 14.0492 30.2772 14.6462V14.6462Z" fill="#737373"/>
</g>
<g style="mix-blend-mode:screen" opacity="0.48">
<path d="M30.1207 14.8034C29.3125 15.0212 28.5251 15.3095 27.7675 15.665L25.7281 16.7616C24.4346 17.6677 23.2731 18.7484 22.2768 19.973C21.3413 21.1536 20.5513 22.4422 19.9236 23.811C19.6814 24.2925 19.4717 24.7897 19.2961 25.2992C18.8255 26.8657 19.2961 27.9622 19.2961 28.1972C19.2961 28.4322 20.1589 28.1972 20.8649 27.179L22.2768 25.5341C22.6514 24.8294 23.0706 24.1492 23.5318 23.4977L24.6299 22.4794C24.9255 22.173 25.2399 21.8853 25.5712 21.6178L26.6694 20.7562C27.0557 20.4252 27.4765 20.1363 27.9244 19.8947H28.4735C30.9179 18.393 33.5572 17.2334 36.3174 16.4483C39.2196 15.665 40.4746 15.665 40.6315 14.8034C40.7884 13.9419 40.6315 14.2552 39.9256 13.9419L39.2196 13.7069H38.2783H36.788C36.506 13.6264 36.2071 13.6264 35.9252 13.7069C33.9501 13.8125 31.9979 14.1813 30.1207 14.8034V14.8034Z" fill="#7B7B7B"/>
</g>
<g style="mix-blend-mode:screen" opacity="0.52">
<path d="M29.9633 14.8812L27.6886 15.6645L25.7276 16.7611C24.4606 17.6409 23.325 18.6957 22.3547 19.8941C21.3766 20.9572 20.5814 22.1747 20.0015 23.4971L19.374 24.907C18.9034 26.4735 18.9818 27.5701 19.374 27.805C19.7662 28.04 20.2369 27.805 20.8644 26.7868L22.2763 25.2203C22.7941 24.5913 23.372 24.0142 24.0019 23.4971L25.0216 22.5572C25.298 22.2317 25.6142 21.9423 25.9629 21.6956L27.0611 20.834C27.4256 20.5109 27.8195 20.2225 28.2376 19.9724H28.7867C31.2234 18.4748 33.8659 17.3402 36.6306 16.6044C38.67 15.9778 40.0035 15.6645 40.2388 15.1162C40.4741 14.5679 40.2388 14.6463 39.5329 14.3329C39.2756 14.2666 39.0057 14.2666 38.7485 14.3329H37.8072C37.4422 14.2935 37.074 14.2935 36.7091 14.3329H35.6894C33.7647 14.2606 31.8391 14.4449 29.9633 14.8812V14.8812Z" fill="#848484"/>
</g>
<g style="mix-blend-mode:screen" opacity="0.55">
<path d="M29.8066 15.0386C29.0572 15.1812 28.3221 15.3909 27.6103 15.6652L25.7278 16.6834C24.5307 17.5316 23.4495 18.5321 22.5118 19.6598C21.5851 20.8465 20.7957 22.134 20.1586 23.4978L19.6096 24.9077C19.1389 26.3959 19.6096 27.4141 19.6096 27.6491C19.6096 27.884 20.394 27.6491 21.0999 26.7092L22.4334 25.1426L24.0806 23.4978L25.1003 22.5579L25.9631 21.7746L27.0613 20.913L28.2379 20.1298H28.7869C31.2446 18.692 33.8822 17.5858 36.6308 16.8401C38.5918 16.2918 39.9253 15.9785 40.0822 15.4302C40.239 14.8819 40.0822 14.9602 39.5331 14.7252C39.2758 14.6589 39.0059 14.6589 38.7487 14.7252H37.8074C37.4424 14.6858 37.0743 14.6858 36.7093 14.7252H35.4543C33.5661 14.5817 31.6672 14.687 29.8066 15.0386V15.0386Z" fill="#8C8C8C"/>
</g>
<g style="mix-blend-mode:screen" opacity="0.58">
<path d="M29.5716 15.1952L27.5321 15.6652L25.728 16.6834C24.6005 17.4995 23.5737 18.446 22.6689 19.5031C21.7506 20.7372 20.9867 22.0787 20.3942 23.4978C20.3942 23.9677 20.002 24.4377 19.8451 24.8293C19.6882 25.221 19.8451 27.2574 19.8451 27.4141C19.8451 27.5707 20.7079 27.4141 21.3355 26.5525L22.6689 25.0643L24.1593 23.4978L25.179 22.5579L26.0418 21.7746L27.0615 20.9913L28.2381 20.2081H28.7872C31.2394 18.7784 33.8795 17.6975 36.6311 16.9967C38.1214 15.6652 39.2196 15.6652 39.6118 14.8819C40.004 14.0986 39.6118 14.4119 39.1411 14.0986H38.2783H35.2192C33.2966 14.2153 31.3978 14.584 29.5716 15.1952V15.1952Z" fill="#949494"/>
</g>
<g style="mix-blend-mode:screen" opacity="0.61">
<path d="M29.4146 15.665L27.5321 16.4482C26.9324 16.7145 26.3553 17.0288 25.8064 17.3881V17.3881C24.7307 18.1505 23.7556 19.0452 22.9042 20.0512C22.0547 21.0201 21.3421 22.1006 20.7863 23.2626C20.7863 23.7326 20.7863 24.2025 20.2372 24.5941C19.6882 24.9858 19.845 26.8656 20.2372 27.1006C20.6294 27.3356 21.0216 27.1006 21.6491 26.239L22.9042 24.7508L24.5514 23.1059L25.4926 22.2444L26.3555 21.4611L27.3752 20.6778L28.4733 19.8946H29.0224C31.2657 18.5115 33.6959 17.4565 36.2388 16.7615C37.8076 15.665 39.2195 15.665 39.2195 14.8817C39.2195 14.0984 39.2195 14.8817 39.2195 14.1768H38.3567H35.0622C33.1228 14.4249 31.2241 14.9252 29.4146 15.665V15.665Z" fill="#9C9C9C"/>
</g>
<g style="mix-blend-mode:screen" opacity="0.65">
<path d="M29.2576 15.6648L27.4535 16.3697L25.8062 17.3096C24.7581 18.047 23.8091 18.9157 22.9824 19.8944C22.1693 20.8173 21.4834 21.8446 20.943 22.9491C20.943 23.3407 20.5508 23.8107 20.3939 24.124C20.2371 24.4373 20.3939 26.3954 20.3939 26.5521C20.3939 26.7087 21.1783 26.5521 21.8058 25.7688L22.9824 24.359L24.5512 22.7141L25.4925 21.8525L26.3553 21.1476L27.2966 20.3643L28.2378 19.5811H28.7085C30.9064 18.237 33.2829 17.2086 35.768 16.5263C37.4937 15.6648 38.7487 15.6648 39.2193 14.9598C39.69 14.2549 39.2193 14.4899 39.2193 14.2549H38.4349H34.8267C32.9097 14.4412 31.0319 14.9165 29.2576 15.6648V15.6648Z" fill="#A5A5A5"/>
</g>
<g style="mix-blend-mode:screen" opacity="0.68">
<path d="M29.1006 15.6646C28.5119 15.8652 27.9357 16.1006 27.375 16.3695C26.8099 16.6065 26.2816 16.9231 25.8062 17.3094V17.3094C24.8266 18.0136 23.9318 18.8284 23.1393 19.7375C22.3708 20.6209 21.7124 21.594 21.1783 22.6356L20.5508 23.4972C20.0802 24.7504 20.1586 25.612 20.5508 25.847C20.943 26.0819 21.2567 25.847 21.8843 24.9854L23.0608 23.7321C23.5439 23.1716 24.0682 22.6479 24.6296 22.1656L25.4925 21.304L26.3553 20.5991L27.2966 19.8942L28.3163 19.1892H28.7869C30.9056 17.8729 33.2042 16.8703 35.6111 16.2128C36.7203 15.9751 37.7812 15.5514 38.7487 14.9596C38.7487 14.9596 38.7487 14.9596 38.7487 14.333H37.9643H34.5914C32.7033 14.4912 30.8511 14.9404 29.1006 15.6646V15.6646Z" fill="#ADADAD"/>
</g>
<g style="mix-blend-mode:screen" opacity="0.71">
<path d="M28.944 15.6652L27.2968 16.2918C26.7827 16.577 26.2852 16.8908 25.8064 17.2317C24.9736 17.968 24.212 18.781 23.5317 19.6598C22.7766 20.5252 22.1189 21.4708 21.5707 22.4796L20.7863 23.4978C20.3157 24.6727 20.7863 25.5343 20.7863 25.691C20.7863 25.8476 21.5707 25.691 22.1198 24.9077C22.6404 24.4904 23.1138 24.0177 23.5317 23.4978L25.022 22.0096L25.8849 21.2264L26.6692 20.5214L27.6105 19.8165C27.9207 19.5629 28.2637 19.3522 28.6302 19.1899H29.1009C31.21 17.9823 33.4459 17.0104 35.7682 16.2918C36.8321 16.1092 37.8469 15.7092 38.7489 15.1169C38.7489 15.1169 38.7489 15.1169 38.7489 14.5686C38.6125 14.5105 38.4657 14.4805 38.3175 14.4805C38.1692 14.4805 38.0224 14.5105 37.886 14.5686H34.3563C32.5083 14.6687 30.6849 15.0382 28.944 15.6652V15.6652Z" fill="#B5B5B5"/>
</g>
<g style="mix-blend-mode:screen" opacity="0.74">
<path d="M28.7085 15.6648L27.2182 16.3697L25.8063 17.2313C24.9477 17.9408 24.1833 18.7567 23.5315 19.6594C22.8211 20.4576 22.1906 21.3233 21.649 22.2442L21.0215 23.4974C20.5509 24.594 20.6293 25.3772 21.0215 25.6122C21.4137 25.8472 21.7274 25.6122 22.355 24.829L23.5315 23.4974L24.9434 22.0092L25.8063 21.3043L26.5907 20.5993L27.4535 19.9727L28.4732 19.2678H28.9438C30.9573 18.0552 33.1192 17.1074 35.3758 16.448C36.3719 16.2427 37.3264 15.872 38.1996 15.3515C38.1996 15.3515 38.1996 15.3515 38.1996 14.7249C37.9449 14.6412 37.67 14.6412 37.4153 14.7249H34.1208C32.2843 14.8099 30.4659 15.1257 28.7085 15.6648V15.6648Z" fill="#BDBDBD"/>
</g>
<g style="mix-blend-mode:screen" opacity="0.77">
<path d="M28.5519 16.0561L27.14 16.6827L25.8849 17.5443C25.0293 18.1364 24.2403 18.8192 23.5318 19.5808C22.872 20.3728 22.2691 21.2103 21.7277 22.0872L21.257 23.0272C20.7864 24.1237 21.257 24.907 21.257 25.0636C21.257 25.2203 21.963 25.0636 22.512 24.3587L23.5318 23.4971L24.9437 22.1656C25.2244 21.9245 25.4867 21.6627 25.728 21.3823L26.5124 20.834L27.3753 20.1291L28.3165 19.5025H28.7872C30.7213 18.3173 32.8053 17.3954 34.9839 16.7611C35.9468 16.5286 36.8714 16.1593 37.7292 15.6645C37.7292 15.6645 37.7292 15.6645 37.7292 15.1162H36.9448H33.8857C32.0757 15.2086 30.2842 15.5243 28.5519 16.0561V16.0561Z" fill="#C5C5C5"/>
</g>
<g style="mix-blend-mode:screen" opacity="0.81">
<path d="M28.3948 16.2134L27.0613 16.84L25.8847 17.6233C25.0234 18.1473 24.2326 18.779 23.5316 19.5031C22.8514 20.2228 22.2469 21.0101 21.7275 21.8529C21.5395 22.1497 21.3818 22.4645 21.2568 22.7928C20.7862 23.811 20.8646 24.516 21.2568 24.6726C21.649 24.8293 21.9628 24.6726 22.4334 24.046L23.5316 22.9494L24.865 21.6179L25.6494 20.913L26.4338 20.3647L27.2182 19.6597L28.1595 19.1115H28.6301C30.5023 17.9867 32.504 17.0925 34.5915 16.4484C35.5188 16.2191 36.4145 15.8771 37.2584 15.4301C37.2584 15.4301 37.2584 15.4301 37.2584 14.8818H36.474H34.513H33.7287C31.8936 15.0546 30.0953 15.5035 28.3948 16.2134V16.2134Z" fill="#CECECE"/>
</g>
<g style="mix-blend-mode:screen" opacity="0.84">
<path d="M28.2379 16.37L26.9828 16.9966C26.5831 17.1746 26.2128 17.4123 25.8847 17.7016V17.7016C25.2219 18.2363 24.5931 18.8118 24.0021 19.4248C23.3476 20.1184 22.7691 20.8799 22.2765 21.6962C22.0606 21.9471 21.9002 22.2407 21.8059 22.5578C21.3352 23.4977 21.8059 24.2027 21.8059 24.3593C21.8059 24.516 22.5118 24.3593 23.0609 23.7327L23.5315 22.7145C23.9358 22.2322 24.382 21.7866 24.865 21.3829L25.5709 20.7563L26.2769 20.208L27.1397 19.5814L28.0025 18.9548H28.4732C30.2489 17.8255 32.1771 16.9551 34.1992 16.37C35.0982 16.1306 35.9667 15.789 36.7877 15.3518C36.7877 15.3518 36.7877 15.3518 36.7877 14.8818H36.0033H33.4933C31.6765 15.111 29.9047 15.6127 28.2379 16.37V16.37Z" fill="#D6D6D6"/>
</g>
<g style="mix-blend-mode:screen" opacity="0.87">
<path d="M28.0816 16.5265L26.905 17.0748L25.8853 17.7797C25.2132 18.2453 24.6065 18.7985 24.0812 19.4246C23.4574 20.0608 22.8807 20.7415 22.3555 21.4611C22.1929 21.7327 22.0614 22.0217 21.9633 22.3227C21.4927 23.1842 21.4927 23.8108 21.9633 23.9675C22.434 24.1242 22.6693 23.9675 23.1399 23.4192L24.1596 22.401C24.5402 21.971 24.9604 21.5776 25.4146 21.2261L26.1206 20.5995L26.8266 20.0512L27.6109 19.4246L28.4738 18.8763H28.9444C30.6921 17.8712 32.5304 17.032 34.4351 16.3699C35.3107 16.1718 36.1551 15.8556 36.9452 15.4299C36.9452 15.4299 36.9452 15.4299 36.9452 15.0383C36.9452 14.6467 36.9452 15.0383 36.1608 15.0383H33.2586C31.4685 15.2752 29.7237 15.7767 28.0816 16.5265V16.5265Z" fill="#DEDEDE"/>
</g>
<g style="mix-blend-mode:screen" opacity="0.9">
<path d="M27.9238 16.6832L26.8257 17.2315L25.9628 17.8581C25.3607 18.2923 24.8083 18.7913 24.3156 19.3463C23.7212 19.9595 23.1707 20.6139 22.6684 21.3044C22.6425 21.5387 22.6425 21.7751 22.6684 22.0094C22.1978 22.8709 22.1978 23.4975 22.6684 23.6542C23.139 23.8109 22.59 23.4975 23.0606 23.4975L24.0019 22.5576L25.2569 21.3827L25.9628 20.7561L26.6688 20.2862L27.4532 19.7379L28.2376 19.1896H28.7082C30.3697 18.198 32.1312 17.3841 33.9636 16.7615C34.7934 16.5316 35.6059 16.2437 36.3952 15.8999C36.3952 15.8999 36.3952 15.8999 36.3952 15.43C36.1405 15.3463 35.8656 15.3463 35.6109 15.43H33.0224C31.2711 15.5994 29.5537 16.0215 27.9238 16.6832V16.6832Z" fill="#E6E6E6"/>
</g>
<g style="mix-blend-mode:screen" opacity="0.94">
<path d="M27.6891 16.7613L26.7479 17.3096L25.9635 17.9362C25.4307 18.3382 24.9322 18.7835 24.4731 19.2678C23.9032 19.8258 23.3786 20.4282 22.9044 21.0693C22.7445 21.2869 22.6127 21.5237 22.5122 21.7742C22.0415 22.5575 22.0415 23.1057 22.5122 23.2624C22.9828 23.419 22.8259 23.4974 23.5319 22.7924L24.3947 21.8525L25.6497 20.756L26.2772 20.2077L26.9832 19.7377L27.6891 19.1894L28.4735 18.7195H28.9442C30.5093 17.7238 32.1966 16.9341 33.9643 16.3697C34.741 16.1337 35.5009 15.8459 36.239 15.5081C36.239 15.5081 36.239 15.5081 36.239 15.1165C35.9842 15.0328 35.7094 15.0328 35.4546 15.1165H32.7877C31.0162 15.4106 29.2981 15.9648 27.6891 16.7613V16.7613Z" fill="#EFEFEF"/>
</g>
<g style="mix-blend-mode:screen" opacity="0.97">
<path d="M27.5322 16.9175L26.6693 17.4658L25.9634 18.0141L24.6299 19.189C24.0808 19.8156 23.5318 20.3639 23.1396 20.9122L22.6689 21.5388C22.6689 22.2437 22.6689 22.792 22.6689 22.8703C22.6689 22.9487 23.2965 22.8703 23.7671 22.4004L24.6299 21.6171L25.8065 20.5989L26.5125 20.0506L27.14 19.5806L27.7675 19.0323L28.5519 18.5624H29.0225C30.5448 17.6102 32.178 16.8474 33.8857 16.2909L35.6898 15.6643C35.6898 15.6643 35.6898 15.6643 35.6898 15.2727C35.6898 14.8811 35.6898 15.2727 34.9839 15.2727H33.3367H32.6307C30.8493 15.525 29.1246 16.0814 27.5322 16.9175V16.9175Z" fill="#F7F7F7"/>
</g>
<g style="mix-blend-mode:screen">
<path d="M27.3749 17.0747L26.6689 17.5446L25.963 18.0929C25.5092 18.4159 25.0888 18.7832 24.7079 19.1895C24.0164 19.8063 23.3859 20.4883 22.8254 21.2259C22.4332 21.9309 22.4332 22.4008 22.8254 22.5575C23.2176 22.7141 23.5313 22.4792 23.5313 22.0875L25.5708 20.3644L26.7474 19.4244L27.4533 18.9545L28.1593 18.4845C32.0028 15.9781 36.0032 15.4298 36.0032 14.9598C36.0032 14.4899 36.0032 14.9598 35.2188 14.9598C34.5928 14.897 33.9622 14.897 33.3362 14.9598C31.2259 15.2532 29.1975 15.9728 27.3749 17.0747V17.0747Z" fill="white"/>
</g>
</g>
<g opacity="0.01">
<path opacity="0.01" d="M19.2954 32.0233C20.1959 30.1999 20.2015 28.3649 19.3079 27.9249C18.4143 27.4848 16.9598 28.6063 16.0593 30.4298C15.1587 32.2532 15.1531 34.0882 16.0468 34.5282C16.9404 34.9683 18.3948 33.8468 19.2954 32.0233Z" fill="white"/>
<path opacity="0.01" d="M18.9039 28.0402C19.5314 28.0402 19.6883 29.9984 18.9039 31.7999C18.1195 33.6014 16.9429 34.3063 16.3154 34.3063C15.6095 34.3063 15.531 32.3482 16.3154 30.4684C17.0998 28.5885 18.198 27.9619 18.9039 27.9619V28.0402ZM18.9039 27.9619C18.0411 27.9619 16.8645 29.0585 16.0801 30.625C15.2957 32.1915 15.1388 34.3063 16.0801 34.698H16.4723C17.3351 34.698 18.5117 33.6797 19.2177 32.1132C19.9236 30.5467 20.1589 28.4319 19.2177 27.9619H18.9039Z" fill="url(#paint5_linear_333_1836)"/>
</g>
<g opacity="0.03">
<path opacity="0.03" d="M19.0846 31.9206C19.8893 30.2911 19.9117 28.66 19.1347 28.2773C18.3576 27.8947 17.0753 28.9054 16.2706 30.5349C15.4658 32.1644 15.4434 33.7956 16.2205 34.1782C16.9975 34.5609 18.2798 33.5501 19.0846 31.9206Z" fill="white"/>
<path opacity="0.03" d="M18.7474 28.1982C19.2964 28.1982 19.3749 29.8431 18.7474 31.4879C18.1199 33.1328 17.1001 33.7594 16.3942 33.7594C15.7667 33.7594 15.6882 32.0362 16.3942 30.3914C17.1001 28.7465 17.963 28.1982 18.6689 28.1982H18.7474ZM18.6689 28.1982C17.8845 28.1982 16.8648 29.1382 16.1589 30.548C15.4529 31.9579 15.3745 33.7594 16.1589 34.151C16.9433 34.151 17.963 33.2111 18.6689 31.8012C19.3749 30.3914 19.5318 28.5899 18.6689 28.1982Z" fill="url(#paint6_linear_333_1836)"/>
</g>
<g opacity="0.05">
<path opacity="0.05" d="M18.9442 31.8501C19.6531 30.4146 19.6608 28.9717 18.9615 28.6273C18.2621 28.2829 17.1205 29.1675 16.4116 30.6029C15.7026 32.0384 15.6949 33.4813 16.3942 33.8257C17.0936 34.1701 18.2352 33.2856 18.9442 31.8501Z" fill="white"/>
<path opacity="0.05" d="M18.6684 28.5107C18.7464 28.683 18.7867 28.87 18.7867 29.059C18.7867 29.2481 18.7464 29.435 18.6684 29.6073C18.6219 30.2659 18.4347 30.9069 18.1193 31.4871C17.4918 32.8187 16.629 33.5236 16.0799 33.5236C16.0799 33.5236 15.6877 32.9753 15.6877 32.5054C15.6932 31.8254 15.8542 31.1556 16.1583 30.5472C16.8643 29.2157 17.7271 28.5891 18.2762 28.5891L18.6684 28.5107ZM18.2762 28.5891C17.5702 28.5891 16.629 29.4507 16.0015 30.7039C15.3739 31.9571 15.2955 33.6019 16.0015 33.9152C16.7074 33.9152 17.5702 33.0537 18.1978 31.8788C18.8253 30.7039 18.9037 28.9807 18.1978 28.5891H18.2762Z" fill="url(#paint7_linear_333_1836)"/>
</g>
<g opacity="0.1">
<path opacity="0.1" d="M18.8033 31.7807C19.4739 30.4228 19.5136 29.0739 18.892 28.7677C18.2703 28.4616 17.2227 29.3143 16.5521 30.6722C15.8815 32.0301 15.8418 33.379 16.4635 33.6851C17.0851 33.9913 18.1327 33.1386 18.8033 31.7807Z" fill="white"/>
<path opacity="0.1" d="M18.5901 28.9023C19.0608 28.9023 19.1392 30.3905 18.5901 31.7221C18.0411 33.0536 17.2567 33.6019 16.7076 33.6019C16.237 33.6019 16.1585 32.192 16.7076 30.7822C17.2567 29.3723 18.1195 28.9807 18.6686 28.9807L18.5901 28.9023ZM18.6686 28.9807C18.0411 28.9807 17.1782 29.7639 16.5507 30.8605C15.9232 31.9571 15.9232 33.6019 16.5507 33.9152C17.1782 33.9152 18.0411 33.132 18.5901 31.9571C19.1392 30.7822 19.2961 29.294 18.5901 28.9807H18.6686Z" fill="url(#paint8_linear_333_1836)"/>
</g>
<g opacity="0.1">
<path opacity="0.1" d="M18.7324 31.7464C19.3455 30.5049 19.3701 29.2658 18.7873 28.9788C18.2045 28.6918 17.235 29.4656 16.6219 30.7071C16.0088 31.9486 15.9842 33.1877 16.567 33.4747C17.1498 33.7617 18.1193 32.9879 18.7324 31.7464Z" fill="white"/>
<path opacity="0.1" d="M18.5108 29.0586C18.5108 29.0586 18.9814 30.3901 18.5108 31.7217C18.0401 33.0532 17.1773 33.4449 16.7851 33.4449C16.3145 33.4449 16.236 32.1133 16.7851 30.8601C17.3342 29.6069 18.1186 29.1369 18.5892 29.1369L18.5108 29.0586ZM18.5892 29.1369C17.9617 29.1369 17.1773 29.8419 16.6282 30.9384C16.0792 32.035 16.0007 33.4449 16.6282 33.7582C17.1773 33.7582 17.9617 33.0532 18.5108 31.9567C19.0598 30.8601 19.1383 29.4502 18.5108 29.2152L18.5892 29.1369Z" fill="url(#paint9_linear_333_1836)"/>
</g>
<g opacity="0.1">
<path opacity="0.1" d="M18.6629 31.7121C19.2377 30.5482 19.2627 29.3876 18.7188 29.1197C18.1749 28.8518 17.2679 29.5782 16.6931 30.7422C16.1183 31.9061 16.0933 33.0668 16.6372 33.3346C17.1812 33.6025 18.0881 32.8761 18.6629 31.7121Z" fill="white"/>
<path opacity="0.1" d="M18.434 29.1379C18.434 29.1379 18.434 29.1379 18.434 29.9995C18.5336 30.5169 18.5336 31.0486 18.434 31.566C17.8849 32.6626 17.179 33.2109 16.7083 33.2109C16.2377 33.2109 16.1593 31.9576 16.7083 30.7827C17.2574 29.6079 17.8849 29.1379 18.3556 29.1379H18.434ZM18.3556 29.1379C17.8065 29.1379 17.1005 29.7645 16.5515 30.7827C16.0024 31.801 16.0024 33.1325 16.5515 33.4458C17.1005 33.4458 17.8849 32.7409 18.3556 31.7227C18.8262 30.7044 18.9831 29.3729 18.3556 29.0596V29.1379Z" fill="url(#paint10_linear_333_1836)"/>
</g>
<g opacity="0.1">
<path opacity="0.1" d="M18.6624 31.7121C19.2181 30.587 19.2275 29.4577 18.6836 29.1899C18.1397 28.922 17.2483 29.617 16.6926 30.7421C16.137 31.8672 16.1275 32.9964 16.6714 33.2643C17.2154 33.5322 18.1068 32.8372 18.6624 31.7121Z" fill="white"/>
<path opacity="0.1" d="M18.4327 29.1377C18.4327 29.1377 18.9033 30.3126 18.4327 31.4875C17.9621 32.6624 17.2561 32.9757 16.8639 32.9757C16.8075 32.8528 16.7783 32.7192 16.7783 32.584C16.7783 32.4489 16.8075 32.3153 16.8639 32.1924C16.8828 31.6384 17.0449 31.0988 17.3346 30.6259C17.8052 29.686 18.5111 29.1377 18.9033 29.1377H18.4327ZM18.9033 29.1377C18.3543 29.1377 17.6483 29.7643 17.1777 30.7825C16.707 31.8008 16.6286 32.9757 17.1777 33.2107C17.6483 33.2107 18.4327 32.584 18.9033 31.6441C19.374 30.7042 19.4524 29.3727 18.9033 29.1377Z" fill="url(#paint11_linear_333_1836)"/>
</g>
<g opacity="0.1">
<path opacity="0.1" d="M18.592 31.6769C19.1093 30.6293 19.1192 29.5785 18.6141 29.3298C18.109 29.0811 17.2802 29.7286 16.7629 30.7761C16.2455 31.8237 16.2356 32.8745 16.7407 33.1232C17.2458 33.3719 18.0746 32.7244 18.592 31.6769Z" fill="white"/>
<path opacity="0.1" d="M18.3548 29.2941C18.3548 29.2941 18.3548 29.6858 18.3548 30.0774C18.442 30.5433 18.442 31.0214 18.3548 31.4873C17.8842 32.4272 17.2567 32.8971 16.8645 32.8971C16.4723 32.8971 16.4723 31.8006 16.8645 30.7823C17.2567 29.7641 17.9626 29.2941 18.3548 29.2941ZM18.3548 29.2941C17.8842 29.2941 17.1783 29.9208 16.7861 30.7823C16.3939 31.6439 16.237 32.8972 16.7861 33.1321C17.3351 33.1321 17.9626 32.5055 18.4333 31.5656C18.9039 30.6257 18.9824 29.5291 18.4333 29.2158L18.3548 29.2941Z" fill="url(#paint12_linear_333_1836)"/>
</g>
<g opacity="0.1">
<path opacity="0.1" d="M18.5215 31.6426C19.0005 30.6727 19.0109 29.7003 18.5447 29.4707C18.0784 29.2411 17.3121 29.8412 16.8331 30.8112C16.3541 31.7811 16.3438 32.7535 16.81 32.9831C17.2763 33.2127 18.0425 32.6125 18.5215 31.6426Z" fill="white"/>
<path opacity="0.1" d="M18.3544 29.5283C18.3544 29.5283 18.3544 29.5283 18.3544 30.2333C18.4551 30.6714 18.4551 31.1266 18.3544 31.5648C17.9622 32.3481 17.3347 32.9747 16.9425 32.9747C16.7261 32.3936 16.7261 31.7542 16.9425 31.1732C16.9425 30.3116 17.9622 29.8416 18.3544 29.8416V29.5283ZM18.3544 29.8416C17.8837 29.8416 17.2562 30.4682 16.7856 31.2515C16.315 32.0348 16.315 33.288 16.7856 33.523C17.2562 33.523 17.8837 32.9747 18.2759 32.1131C18.6681 31.2515 18.825 30.1549 18.2759 29.92L18.3544 29.8416Z" fill="url(#paint13_linear_333_1836)"/>
</g>
<g opacity="0.1">
<path opacity="0.1" d="M18.4516 31.6084C18.9115 30.6773 18.9378 29.7518 18.5104 29.5414C18.083 29.3309 17.3638 29.9151 16.9039 30.8463C16.4441 31.7774 16.4178 32.7028 16.8451 32.9133C17.2725 33.1238 17.9918 32.5395 18.4516 31.6084Z" fill="white"/>
<path opacity="0.1" d="M18.2768 29.6072C18.3609 29.8347 18.3609 30.0847 18.2768 30.3122C18.3705 30.643 18.3972 30.9892 18.3553 31.3304C18.3553 32.192 17.414 32.5836 17.0218 32.5836C17.0218 32.5836 17.0218 31.5654 17.0218 30.6255C17.0218 29.6856 18.0415 29.3723 18.3553 29.3723L18.2768 29.6072ZM18.3553 29.3723C17.9631 29.3723 17.3356 29.8422 16.9434 30.7038C16.5512 31.5654 16.4727 32.5053 16.9434 32.7403C17.414 32.7403 17.9631 32.192 18.4337 31.4088C18.9043 30.6255 18.9043 29.5289 18.4337 29.2939L18.3553 29.3723Z" fill="url(#paint14_linear_333_1836)"/>
</g>
<g opacity="0.1">
<path opacity="0.1" d="M18.4511 31.6083C18.8918 30.716 18.9026 29.822 18.4752 29.6115C18.0478 29.4011 17.3441 29.9539 16.9034 30.8462C16.4627 31.7385 16.4519 32.6325 16.8793 32.843C17.3067 33.0534 18.0104 32.5007 18.4511 31.6083Z" fill="white"/>
<path opacity="0.1" d="M18.2763 29.6859C18.2763 29.6859 18.2763 29.6859 18.2763 30.3126C18.3379 30.7018 18.3379 31.0982 18.2763 31.4875C18.2763 32.2707 17.335 32.6623 17.0213 32.6623C17.0213 32.6623 16.6291 31.7224 17.0213 30.8608C17.4135 29.9993 17.9625 29.6076 18.2763 29.6076V29.6859ZM18.2763 29.6076C17.9656 29.6859 17.68 29.8421 17.4467 30.0614C17.2133 30.2807 17.0399 30.5559 16.9428 30.8608C16.4722 31.7224 16.4722 32.584 16.9428 32.819C16.9428 32.819 17.8841 32.2707 18.2763 31.4875C18.6685 30.7042 18.7469 29.7643 18.2763 29.5293V29.6076Z" fill="url(#paint15_linear_333_1836)"/>
</g>
<g opacity="0.1">
<path opacity="0.1" d="M18.3807 31.5731C18.783 30.7584 18.7942 29.9428 18.4057 29.7515C18.0172 29.5601 17.376 30.0655 16.9737 30.8802C16.5713 31.695 16.5601 32.5106 16.9486 32.7019C17.3371 32.8932 17.9783 32.3878 18.3807 31.5731Z" fill="white"/>
<path opacity="0.1" d="M18.1976 29.6855C18.2392 29.771 18.2609 29.8647 18.2609 29.9597C18.2609 30.0547 18.2392 30.1484 18.1976 30.2338C18.3046 30.6182 18.3046 31.0244 18.1976 31.4087C18.1055 31.6732 17.9502 31.9113 17.7452 32.1024C17.5402 32.2934 17.2916 32.4317 17.021 32.5053V32.5053C16.8794 32.0193 16.8794 31.5031 17.021 31.0171C17.4132 30.2338 17.8839 29.8422 18.1976 29.8422V29.6855ZM18.1976 29.8422C18.1976 29.8422 17.3348 30.3122 16.9426 31.0171C16.5504 31.722 16.5504 32.6619 16.9426 32.8969C16.9426 32.8969 17.8839 32.427 18.1976 31.722C18.5114 31.0171 18.6682 30.0772 18.1976 29.9205V29.8422Z" fill="url(#paint16_linear_333_1836)"/>
</g>
<g opacity="0.2">
<path opacity="0.2" d="M18.3107 31.5379C18.6939 30.762 18.7211 29.9934 18.3714 29.8212C18.0218 29.649 17.4276 30.1384 17.0444 30.9144C16.6612 31.6903 16.6341 32.4589 16.9837 32.6311C17.3334 32.8033 17.9275 32.3139 18.3107 31.5379Z" fill="white"/>
<path opacity="0.2" d="M18.1979 29.8418C18.1979 29.8418 18.1979 30.6251 18.1979 31.4083C18.1979 32.1916 17.4135 32.5049 17.0997 32.5049C17.0997 32.5049 17.0997 32.5049 17.0997 31.9566C17.0759 31.6176 17.0759 31.2774 17.0997 30.9384C17.0997 30.2334 17.8841 29.9201 18.1979 29.9201V29.8418ZM18.1979 29.9201C18.1979 29.9201 17.335 29.9201 17.0213 31.0167C16.7075 32.1133 17.0213 32.5049 17.0213 32.6615C17.0213 32.6615 17.8841 32.1916 18.1979 31.565C18.5116 30.9384 18.5901 29.9984 18.1979 29.8418V29.9201Z" fill="url(#paint17_linear_333_1836)"/>
</g>
<g opacity="0.3">
<path opacity="0.3" d="M18.3107 31.5388C18.6556 30.8404 18.6517 30.1347 18.302 29.9625C17.9523 29.7903 17.3893 30.2169 17.0444 30.9152C16.6995 31.6136 16.7034 32.3193 17.0531 32.4915C17.4027 32.6637 17.9658 32.2371 18.3107 31.5388Z" fill="white"/>
<path opacity="0.3" d="M18.1193 29.9209C18.1193 29.9209 18.1193 30.7042 18.1193 31.4091C18.1193 32.114 17.4133 32.349 17.0996 32.349C17.0996 32.349 17.0996 31.5657 17.0996 30.8608C17.0996 30.1559 17.8055 29.9209 18.0408 29.9209H18.1193ZM18.0408 29.9209C18.0408 29.9209 17.2564 30.3125 17.0211 30.9391C16.7858 31.5657 16.6289 32.349 17.0211 32.5057C17.0211 32.5057 17.8055 32.114 18.1193 31.4874C18.433 30.8608 18.1193 30.1559 18.1193 29.9992C18.1193 29.8426 18.1193 29.9992 18.1193 29.9992L18.0408 29.9209Z" fill="url(#paint18_linear_333_1836)"/>
</g>
<g opacity="0.01">
<path opacity="0.01" d="M192.409 53.2615C193.752 53.2615 194.841 52.1744 194.841 50.8334C194.841 49.4924 193.752 48.4053 192.409 48.4053C191.066 48.4053 189.978 49.4924 189.978 50.8334C189.978 52.1744 191.066 53.2615 192.409 53.2615Z" fill="white"/>
<path opacity="0.01" d="M192.411 48.6406C192.981 48.7187 193.497 49.0168 193.849 49.4708C194.201 49.9248 194.36 50.4985 194.294 51.0687C194.253 51.6158 194.002 52.1259 193.592 52.4913C193.182 52.8566 192.646 53.0487 192.097 53.0269V53.0269C191.816 53.0212 191.54 52.9469 191.294 52.8104C191.048 52.6739 190.839 52.4793 190.685 52.2436C190.498 52.0318 190.36 51.7822 190.278 51.5118C190.197 51.2414 190.175 50.9567 190.215 50.6771C190.254 50.1438 190.495 49.6453 190.888 49.282C191.281 48.9187 191.797 48.7175 192.333 48.7189L192.411 48.6406ZM192.333 48.7189C191.752 48.7328 191.196 48.9537 190.764 49.3416C190.332 49.7294 190.054 50.2588 189.979 50.8338C189.936 51.1487 189.956 51.4692 190.04 51.7758C190.124 52.0825 190.269 52.369 190.467 52.618C190.665 52.867 190.912 53.0732 191.192 53.2243C191.472 53.3753 191.78 53.4681 192.097 53.4968V53.4968C192.657 53.3951 193.164 53.1003 193.529 52.6637C193.894 52.2271 194.094 51.6765 194.094 51.1079C194.094 50.5393 193.894 49.9887 193.529 49.5521C193.164 49.1155 192.657 48.8207 192.097 48.7189H192.333Z" fill="url(#paint19_linear_333_1836)"/>
</g>
<g opacity="0.03">
<path opacity="0.03" d="M192.412 52.9484C193.581 52.9484 194.53 52.0015 194.53 50.8336C194.53 49.6656 193.581 48.7188 192.412 48.7188C191.242 48.7188 190.294 49.6656 190.294 50.8336C190.294 52.0015 191.242 52.9484 192.412 52.9484Z" fill="white"/>
<path opacity="0.03" d="M192.411 48.875C192.678 48.8987 192.936 48.9812 193.166 49.1167C193.397 49.2521 193.595 49.4371 193.745 49.6583C193.905 49.8528 194.023 50.0788 194.091 50.3217C194.158 50.5645 194.174 50.8188 194.137 51.0681C194.062 51.5315 193.823 51.9525 193.463 52.2544C193.103 52.5563 192.646 52.719 192.176 52.713C191.733 52.6231 191.334 52.383 191.048 52.0332C190.762 51.6835 190.605 51.2457 190.605 50.794C190.605 50.3423 190.762 49.9045 191.048 49.5548C191.334 49.205 191.733 48.9649 192.176 48.875H192.411ZM192.176 48.875C191.661 48.8735 191.165 49.0664 190.787 49.4151C190.408 49.7637 190.176 50.2423 190.137 50.7548C190.07 51.3044 190.221 51.8583 190.558 52.2976C190.896 52.7369 191.392 53.0267 191.941 53.1046V53.1046C192.469 53.1265 192.985 52.9427 193.38 52.592C193.775 52.2413 194.018 51.7511 194.059 51.2248C194.091 50.9468 194.068 50.6651 193.991 50.396C193.914 50.1269 193.784 49.8758 193.609 49.6572C193.434 49.4386 193.217 49.2569 192.971 49.1226C192.725 48.9884 192.455 48.9042 192.176 48.875Z" fill="url(#paint20_linear_333_1836)"/>
</g>
<g opacity="0.05">
<path opacity="0.05" d="M192.411 52.7138C193.451 52.7138 194.293 51.8721 194.293 50.8339C194.293 49.7957 193.451 48.9541 192.411 48.9541C191.371 48.9541 190.528 49.7957 190.528 50.8339C190.528 51.8721 191.371 52.7138 192.411 52.7138Z" fill="white"/>
<path opacity="0.05" d="M192.411 48.9541C192.859 49.0362 193.27 49.2551 193.588 49.5807C193.738 49.985 193.738 50.4297 193.588 50.8339C193.548 51.2633 193.349 51.6623 193.03 51.9524C192.71 52.2424 192.294 52.4023 191.862 52.4005C191.634 52.3716 191.415 52.2978 191.216 52.1833C191.018 52.0688 190.844 51.916 190.705 51.7337C190.566 51.5514 190.465 51.3433 190.408 51.1215C190.351 50.8998 190.338 50.6689 190.372 50.4423C190.411 50.0338 190.601 49.6546 190.906 49.3792C191.211 49.1039 191.608 48.9523 192.019 48.9541V48.9541H192.411ZM192.019 48.9541C191.566 48.9524 191.13 49.1206 190.795 49.4252C190.461 49.7299 190.254 50.1488 190.215 50.599C190.182 50.8461 190.198 51.0974 190.264 51.338C190.329 51.5787 190.441 51.804 190.595 52.0008C190.748 52.1976 190.939 52.362 191.157 52.4844C191.374 52.6068 191.614 52.6848 191.862 52.7138V52.7138C192.361 52.7138 192.84 52.5157 193.193 52.1632C193.546 51.8107 193.744 51.3325 193.744 50.8339C193.744 50.3354 193.546 49.8572 193.193 49.5047C192.84 49.1522 192.361 48.9541 191.862 48.9541H192.019Z" fill="url(#paint21_linear_333_1836)"/>
</g>
<g opacity="0.1">
<path opacity="0.1" d="M192.411 52.5567C193.364 52.5567 194.137 51.7852 194.137 50.8335C194.137 49.8818 193.364 49.1104 192.411 49.1104C191.458 49.1104 190.686 49.8818 190.686 50.8335C190.686 51.7852 191.458 52.5567 192.411 52.5567Z" fill="white"/>
<path opacity="0.1" d="M192.411 49.0324C192.612 49.0414 192.807 49.0953 192.984 49.1903C193.161 49.2852 193.313 49.4186 193.431 49.5807C193.576 49.959 193.576 50.3773 193.431 50.7556C193.374 51.15 193.176 51.5103 192.873 51.7696C192.57 52.0289 192.183 52.1696 191.784 52.1655V52.1655C191.372 52.095 190.99 51.9042 190.686 51.6172C190.579 51.2329 190.579 50.8266 190.686 50.4423C190.723 50.0469 190.903 49.6784 191.191 49.4049C191.479 49.1314 191.857 48.9712 192.255 48.9541V48.9541L192.411 49.0324ZM192.255 48.9541C191.85 49.0397 191.487 49.2615 191.227 49.5823C190.967 49.9032 190.825 50.3035 190.825 50.7164C190.825 51.1293 190.967 51.5297 191.227 51.8505C191.487 52.1714 191.85 52.3931 192.255 52.4788V52.4788C192.695 52.4825 193.121 52.3253 193.454 52.0368C193.786 51.7482 194.001 51.3482 194.059 50.9123C194.08 50.6858 194.057 50.4573 193.989 50.24C193.922 50.0226 193.812 49.8208 193.666 49.646C193.521 49.4712 193.341 49.3271 193.14 49.2217C192.938 49.1164 192.717 49.0521 192.49 49.0324L192.255 48.9541Z" fill="url(#paint22_linear_333_1836)"/>
</g>
<g opacity="0.1">
<path opacity="0.1" d="M192.411 52.4782C193.321 52.4782 194.058 51.7417 194.058 50.8333C194.058 49.9249 193.321 49.1885 192.411 49.1885C191.501 49.1885 190.764 49.9249 190.764 50.8333C190.764 51.7417 191.501 52.4782 192.411 52.4782Z" fill="white"/>
<path opacity="0.1" d="M192.411 49.1885C192.605 49.2072 192.792 49.2656 192.962 49.36C193.132 49.4545 193.28 49.5829 193.398 49.7374C193.516 49.8918 193.601 50.0688 193.647 50.2574C193.693 50.446 193.699 50.6421 193.666 50.8333C193.627 51.2003 193.453 51.5397 193.178 51.7858C192.902 52.0318 192.545 52.1669 192.176 52.1649V52.1649C191.804 52.1073 191.468 51.9115 191.234 51.6166C191.145 51.4476 191.099 51.2594 191.099 51.0683C191.099 50.8772 191.145 50.689 191.234 50.52C191.255 50.1599 191.412 49.8211 191.675 49.5734C191.937 49.3257 192.285 49.1879 192.646 49.1885V49.1885H192.411ZM192.646 49.1885C192.256 49.1865 191.879 49.3299 191.589 49.5906C191.299 49.8513 191.117 50.2106 191.078 50.5984C191.044 50.8147 191.055 51.0354 191.108 51.2477C191.161 51.4599 191.257 51.6594 191.388 51.8345C191.52 52.0096 191.685 52.1567 191.874 52.2672C192.063 52.3777 192.272 52.4495 192.49 52.4782V52.4782C192.901 52.4801 193.297 52.3284 193.602 52.0531C193.907 51.7777 194.098 51.3985 194.137 50.99C194.181 50.5655 194.059 50.1402 193.796 49.804C193.532 49.4679 193.148 49.2471 192.725 49.1885H192.646Z" fill="url(#paint23_linear_333_1836)"/>
</g>
<g opacity="0.1">
<path opacity="0.1" d="M192.41 52.4006C193.276 52.4006 193.978 51.6993 193.978 50.8341C193.978 49.9689 193.276 49.2676 192.41 49.2676C191.543 49.2676 190.841 49.9689 190.841 50.8341C190.841 51.6993 191.543 52.4006 192.41 52.4006Z" fill="white"/>
<path opacity="0.1" d="M192.411 49.2676C192.783 49.3251 193.119 49.521 193.352 49.8159C193.429 49.9747 193.468 50.1487 193.468 50.325C193.468 50.5012 193.429 50.6752 193.352 50.8341C193.313 51.1803 193.148 51.4998 192.887 51.7312C192.626 51.9626 192.289 52.0895 191.94 52.0873V52.0873C191.573 52.0165 191.241 51.8231 190.999 51.539C190.922 51.3802 190.883 51.2062 190.883 51.0299C190.883 50.8537 190.922 50.6797 190.999 50.5208C191.019 50.1814 191.168 49.8625 191.416 49.6295C191.664 49.3965 191.992 49.267 192.332 49.2676V49.2676H192.411ZM192.332 49.2676C191.956 49.2846 191.598 49.4364 191.324 49.6953C191.051 49.9542 190.879 50.3028 190.842 50.6774C190.82 50.8731 190.838 51.0711 190.893 51.2599C190.949 51.4488 191.041 51.6248 191.165 51.7778C191.289 51.9308 191.442 52.0577 191.616 52.1511C191.789 52.2446 191.979 52.3028 192.176 52.3223V52.3223C192.554 52.3266 192.921 52.1942 193.209 51.9495C193.498 51.7048 193.688 51.3643 193.744 50.9908C193.789 50.5869 193.675 50.1815 193.426 49.86C193.178 49.5384 192.814 49.326 192.411 49.2676H192.332Z" fill="url(#paint24_linear_333_1836)"/>
</g>
<g opacity="0.1">
<path opacity="0.1" d="M192.411 52.3221C193.234 52.3221 193.902 51.6558 193.902 50.8339C193.902 50.012 193.234 49.3457 192.411 49.3457C191.588 49.3457 190.921 50.012 190.921 50.8339C190.921 51.6558 191.588 52.3221 192.411 52.3221Z" fill="white"/>
<path opacity="0.1" d="M192.411 49.3457C192.591 49.3537 192.767 49.4003 192.928 49.4824C193.088 49.5644 193.229 49.6799 193.34 49.8211C193.452 49.9623 193.532 50.1258 193.574 50.3006C193.617 50.4754 193.622 50.6572 193.588 50.8339C193.549 51.1592 193.392 51.459 193.146 51.6757C192.9 51.8925 192.582 52.0111 192.254 52.0088V52.0088C191.882 51.9512 191.546 51.7554 191.313 51.4605C191.237 51.3154 191.198 51.1542 191.198 50.9906C191.198 50.8269 191.237 50.6657 191.313 50.5206C191.333 50.202 191.474 49.903 191.707 49.6846C191.94 49.4663 192.248 49.3451 192.568 49.3457V49.3457H192.411ZM192.568 49.3457C192.207 49.3451 191.859 49.4829 191.596 49.7306C191.334 49.9783 191.176 50.3171 191.156 50.6772C191.134 50.8626 191.15 51.0504 191.201 51.2298C191.253 51.4092 191.339 51.5766 191.456 51.7223C191.573 51.8681 191.717 51.9892 191.881 52.0787C192.045 52.1682 192.225 52.2243 192.411 52.2438C192.769 52.2482 193.116 52.1241 193.39 51.894C193.663 51.6639 193.845 51.3433 193.901 50.9906C193.928 50.6109 193.815 50.2347 193.584 49.932C193.353 49.6293 193.02 49.4209 192.646 49.3457H192.568Z" fill="url(#paint25_linear_333_1836)"/>
</g>
<g opacity="0.1">
<path opacity="0.1" d="M192.411 52.165C193.147 52.165 193.744 51.5689 193.744 50.8335C193.744 50.0981 193.147 49.502 192.411 49.502C191.674 49.502 191.077 50.0981 191.077 50.8335C191.077 51.5689 191.674 52.165 192.411 52.165Z" fill="white"/>
<path opacity="0.1" d="M192.41 49.4238C192.576 49.4432 192.736 49.4951 192.881 49.5767C193.026 49.6583 193.153 49.7679 193.255 49.8991C193.357 50.0304 193.432 50.1806 193.476 50.341C193.519 50.5014 193.531 50.6689 193.509 50.8337C193.499 50.9881 193.458 51.139 193.39 51.2778C193.321 51.4166 193.226 51.5405 193.109 51.6424C192.993 51.7442 192.857 51.8221 192.71 51.8715C192.563 51.9209 192.408 51.9409 192.254 51.9303V51.9303C191.923 51.8699 191.621 51.7052 191.391 51.4603C191.321 51.3134 191.285 51.1529 191.285 50.9904C191.285 50.8278 191.321 50.6673 191.391 50.5204C191.411 50.2226 191.543 49.9435 191.762 49.7398C191.98 49.5361 192.268 49.4232 192.567 49.4238V49.4238H192.41ZM192.567 49.4238C192.232 49.4404 191.914 49.5757 191.67 49.8053C191.425 50.035 191.271 50.344 191.234 50.677C191.21 51.0268 191.317 51.373 191.534 51.6481C191.752 51.9233 192.064 52.1077 192.41 52.1652V52.1652C192.752 52.1876 193.089 52.0782 193.351 51.8595C193.614 51.6408 193.783 51.3297 193.822 50.9904C193.846 50.62 193.731 50.254 193.499 49.9642C193.267 49.6744 192.934 49.4817 192.567 49.4238V49.4238Z" fill="url(#paint26_linear_333_1836)"/>
</g>
<g opacity="0.1">
<path opacity="0.1" d="M192.41 52.0875C193.103 52.0875 193.665 51.5264 193.665 50.8343C193.665 50.1421 193.103 49.5811 192.41 49.5811C191.717 49.5811 191.155 50.1421 191.155 50.8343C191.155 51.5264 191.717 52.0875 192.41 52.0875Z" fill="white"/>
<path opacity="0.1" d="M192.411 49.6592C192.534 49.6029 192.667 49.5737 192.803 49.5737C192.938 49.5737 193.072 49.6029 193.195 49.6592C193.265 49.8061 193.301 49.9666 193.301 50.1292C193.301 50.2917 193.265 50.4523 193.195 50.5991C193.157 50.8829 193.016 51.1429 192.799 51.3304C192.583 51.5179 192.305 51.6199 192.018 51.6174V51.6174C191.71 51.558 191.432 51.3915 191.234 51.1474C191.158 51.0164 191.118 50.8679 191.118 50.7166C191.118 50.5654 191.158 50.4168 191.234 50.2858C191.254 50.0088 191.378 49.7496 191.582 49.5606C191.786 49.3716 192.054 49.2669 192.332 49.2676L192.411 49.6592ZM192.332 49.2676C192.018 49.2839 191.719 49.4109 191.489 49.6259C191.26 49.8409 191.114 50.1302 191.077 50.4425C191.055 50.7833 191.164 51.1197 191.383 51.3821C191.602 51.6446 191.914 51.8129 192.254 51.8523V51.8523C192.574 51.8748 192.891 51.7736 193.139 51.5696C193.387 51.3656 193.548 51.0743 193.587 50.7558C193.611 50.4061 193.504 50.0598 193.287 49.7847C193.069 49.5095 192.757 49.3252 192.411 49.2676H192.332Z" fill="url(#paint27_linear_333_1836)"/>
</g>
<g opacity="0.1">
<path opacity="0.1" d="M192.411 52.0865C193.104 52.0865 193.666 51.5254 193.666 50.8333C193.666 50.1412 193.104 49.5801 192.411 49.5801C191.718 49.5801 191.156 50.1412 191.156 50.8333C191.156 51.5254 191.718 52.0865 192.411 52.0865Z" fill="white"/>
<path opacity="0.1" d="M192.411 49.5801C192.695 49.6183 192.956 49.7587 193.144 49.9751C193.331 50.1914 193.434 50.4688 193.431 50.755C193.421 50.8992 193.383 51.0399 193.318 51.1692C193.254 51.2985 193.164 51.4137 193.055 51.5084C192.945 51.603 192.818 51.6751 192.681 51.7206C192.544 51.766 192.399 51.7839 192.254 51.7733C191.956 51.7341 191.684 51.5824 191.495 51.3493C191.305 51.1162 191.212 50.8195 191.235 50.52C191.273 50.2571 191.405 50.0169 191.607 49.8441C191.809 49.6712 192.067 49.5774 192.333 49.5801V49.5801H192.411ZM192.333 49.5801C192.039 49.5962 191.76 49.7149 191.545 49.9153C191.33 50.1157 191.193 50.3852 191.156 50.6767C191.134 50.8372 191.146 51.0005 191.19 51.1563C191.235 51.3122 191.311 51.4571 191.414 51.5822C191.517 51.7072 191.645 51.8096 191.79 51.883C191.934 51.9563 192.092 51.9989 192.254 52.0082V52.0082C192.55 52.0135 192.838 51.9142 193.068 51.7279C193.298 51.5416 193.454 51.2802 193.509 50.99C193.531 50.8252 193.52 50.6577 193.477 50.4973C193.433 50.3369 193.358 50.1867 193.256 50.0555C193.154 49.9242 193.027 49.8146 192.881 49.733C192.736 49.6514 192.577 49.5995 192.411 49.5801H192.333Z" fill="url(#paint28_linear_333_1836)"/>
</g>
<g opacity="0.1">
<path opacity="0.1" d="M192.411 52.009C193.061 52.009 193.588 51.4829 193.588 50.8341C193.588 50.1852 193.061 49.6592 192.411 49.6592C191.761 49.6592 191.234 50.1852 191.234 50.8341C191.234 51.4829 191.761 52.009 192.411 52.009Z" fill="white"/>
<path opacity="0.1" d="M192.411 49.7375C192.638 49.6461 192.891 49.6461 193.117 49.7375C193.239 49.8918 193.313 50.0778 193.33 50.2731C193.348 50.4684 193.309 50.6647 193.218 50.8384C193.127 51.0121 192.988 51.1558 192.817 51.2523C192.646 51.3488 192.451 51.394 192.255 51.3824V51.3824C192.144 51.4321 192.023 51.4578 191.902 51.4578C191.78 51.4578 191.66 51.4321 191.549 51.3824C191.47 51.1272 191.47 50.8543 191.549 50.5991C191.597 50.3547 191.722 50.132 191.905 49.963C192.088 49.7941 192.32 49.6877 192.568 49.6592L192.411 49.7375ZM192.568 49.6592C192.295 49.675 192.036 49.7853 191.836 49.9711C191.635 50.157 191.506 50.4067 191.47 50.6774C191.448 50.9769 191.541 51.2736 191.73 51.5067C191.92 51.7397 192.192 51.8914 192.49 51.9306V51.9306C192.634 51.9413 192.779 51.9234 192.916 51.8779C193.054 51.8325 193.181 51.7603 193.29 51.6657C193.399 51.5711 193.489 51.4558 193.554 51.3266C193.618 51.1973 193.656 51.0565 193.666 50.9124C193.689 50.6129 193.596 50.3162 193.406 50.0831C193.217 49.8501 192.945 49.6984 192.647 49.6592H192.568Z" fill="url(#paint29_linear_333_1836)"/>
</g>
<g opacity="0.1">
<path opacity="0.1" d="M192.412 51.9304C193.018 51.9304 193.51 51.4395 193.51 50.8339C193.51 50.2283 193.018 49.7373 192.412 49.7373C191.805 49.7373 191.313 50.2283 191.313 50.8339C191.313 51.4395 191.805 51.9304 192.412 51.9304Z" fill="white"/>
<path opacity="0.1" d="M192.411 49.8158C192.616 49.7549 192.834 49.7549 193.039 49.8158C193.106 50.046 193.106 50.2906 193.039 50.5208C193.029 50.6444 192.995 50.7648 192.938 50.8751C192.881 50.9854 192.803 51.0834 192.709 51.1635C192.614 51.2436 192.504 51.3041 192.386 51.3417C192.267 51.3793 192.143 51.3931 192.019 51.3824V51.3824C191.816 51.454 191.595 51.454 191.392 51.3824C191.313 51.1272 191.313 50.8543 191.392 50.5991C191.427 50.3699 191.539 50.1596 191.711 50.003C191.882 49.8463 192.101 49.7527 192.333 49.7375L192.411 49.8158ZM192.333 49.7375C192.081 49.753 191.841 49.855 191.656 50.0262C191.47 50.1975 191.349 50.4275 191.313 50.6774C191.277 50.8188 191.273 50.9667 191.304 51.1095C191.335 51.2523 191.398 51.386 191.489 51.5C191.581 51.6141 191.698 51.7053 191.83 51.7664C191.963 51.8276 192.108 51.857 192.254 51.8523C192.528 51.8365 192.786 51.7262 192.987 51.5403C193.187 51.3545 193.317 51.1048 193.353 50.8341C193.375 50.6942 193.367 50.5513 193.331 50.4144C193.295 50.2776 193.23 50.1498 193.142 50.0392C193.053 49.9286 192.942 49.8377 192.817 49.7723C192.691 49.7069 192.553 49.6683 192.411 49.6592L192.333 49.7375Z" fill="url(#paint30_linear_333_1836)"/>
</g>
<g opacity="0.2">
<path opacity="0.2" d="M192.411 51.8519C192.974 51.8519 193.431 51.396 193.431 50.8337C193.431 50.2713 192.974 49.8154 192.411 49.8154C191.848 49.8154 191.392 50.2713 191.392 50.8337C191.392 51.396 191.848 51.8519 192.411 51.8519Z" fill="white"/>
<path opacity="0.2" d="M192.411 49.8936C192.411 49.8936 192.882 49.8936 192.96 49.8936C193.039 50.095 193.039 50.3187 192.96 50.5202C192.923 50.7415 192.807 50.942 192.635 51.0857C192.462 51.2293 192.244 51.3066 192.019 51.3035V51.3035C191.905 51.2936 191.795 51.2615 191.694 51.2088C191.593 51.1561 191.504 51.084 191.431 50.9967C191.358 50.9093 191.303 50.8084 191.269 50.6997C191.236 50.591 191.224 50.4768 191.235 50.3635C191.266 50.1462 191.367 49.9449 191.523 49.7897C191.678 49.6344 191.88 49.5335 192.097 49.502L192.411 49.8936ZM192.097 49.502C191.866 49.5171 191.646 49.6108 191.475 49.7674C191.304 49.9241 191.191 50.1344 191.156 50.3635C191.134 50.4931 191.139 50.6258 191.171 50.7532C191.204 50.8806 191.262 50.9998 191.344 51.1031C191.425 51.2065 191.527 51.2916 191.643 51.3531C191.76 51.4146 191.888 51.451 192.019 51.4601V51.4601C192.143 51.4708 192.267 51.457 192.386 51.4194C192.504 51.3819 192.614 51.3213 192.708 51.2412C192.803 51.1611 192.881 51.0631 192.938 50.9528C192.995 50.8425 193.029 50.7221 193.039 50.5985C193.061 50.469 193.056 50.3363 193.023 50.2089C192.991 50.0815 192.932 49.9623 192.851 49.8589C192.77 49.7556 192.668 49.6704 192.551 49.609C192.435 49.5475 192.307 49.511 192.176 49.502H192.097Z" fill="url(#paint31_linear_333_1836)"/>
</g>
<g opacity="0.3">
<path opacity="0.3" d="M192.411 51.7734C192.931 51.7734 193.352 51.3526 193.352 50.8335C193.352 50.3144 192.931 49.8936 192.411 49.8936C191.891 49.8936 191.47 50.3144 191.47 50.8335C191.47 51.3526 191.891 51.7734 192.411 51.7734Z" fill="white"/>
<path opacity="0.3" d="M192.411 49.8936C192.625 49.932 192.818 50.0503 192.949 50.2247C193.08 50.3991 193.14 50.6167 193.116 50.8335C193.079 51.0339 192.972 51.2147 192.814 51.3438C192.656 51.4728 192.458 51.5418 192.254 51.5384V51.5384C192.168 51.58 192.074 51.6016 191.979 51.6016C191.884 51.6016 191.79 51.58 191.705 51.5384C191.638 51.3616 191.638 51.1669 191.705 50.9901C191.722 50.7883 191.811 50.5992 191.954 50.4559C192.097 50.3127 192.287 50.2245 192.489 50.2069V50.2069L192.411 49.8936ZM192.489 50.2069C192.282 50.2337 192.089 50.3231 191.934 50.4632C191.78 50.6032 191.673 50.7871 191.626 50.9901C191.604 51.1093 191.607 51.2319 191.635 51.3498C191.663 51.4677 191.716 51.5783 191.79 51.6744C191.864 51.7706 191.958 51.85 192.065 51.9075C192.172 51.9651 192.289 51.9994 192.411 52.0084C192.635 52.0115 192.854 51.9343 193.026 51.7906C193.199 51.6469 193.314 51.4464 193.352 51.2251C193.375 50.9877 193.307 50.7504 193.161 50.5613C193.015 50.3722 192.803 50.2455 192.567 50.2069H192.489Z" fill="url(#paint32_linear_333_1836)"/>
</g>
<g opacity="0.01">
<path opacity="0.01" d="M187.825 59.893C190.669 57.915 192.111 55.0742 191.046 53.5478C189.982 52.0215 186.813 52.3877 183.969 54.3657C181.126 56.3438 179.683 59.1846 180.748 60.7109C181.813 62.2372 184.981 61.871 187.825 59.893Z" fill="white"/>
<path opacity="0.01" d="M188.803 53.1054C189.158 53.0595 189.519 53.1077 189.85 53.2452C190.18 53.3827 190.469 53.6046 190.686 53.8887C191.156 54.437 191.078 55.3769 190.686 56.4735C189.986 57.7581 188.992 58.8587 187.784 59.6848C186.425 60.6538 184.822 61.2236 183.156 61.3297C182.789 61.3742 182.417 61.3258 182.075 61.1889C181.732 61.052 181.429 60.831 181.195 60.5464C180.253 59.2149 181.744 56.5518 184.332 54.7503C185.674 53.7491 187.287 53.1758 188.96 53.1054H188.803ZM188.96 52.6355C187.196 52.743 185.504 53.3699 184.097 54.437C181.273 56.3951 179.783 59.2932 180.881 60.7814C181.138 61.1343 181.484 61.4138 181.883 61.5924C182.282 61.771 182.721 61.8425 183.156 61.7997C184.999 61.729 186.777 61.1008 188.254 59.9981C191.078 58.04 192.49 55.1419 191.47 53.6537C191.203 53.3118 190.856 53.0403 190.459 52.8629C190.063 52.6854 189.629 52.6074 189.196 52.6355H188.96Z" fill="url(#paint33_linear_333_1836)"/>
</g>
<g opacity="0.03">
<path opacity="0.03" d="M187.601 59.5712C190.125 57.8157 191.408 55.2991 190.467 53.9503C189.526 52.6015 186.718 52.9311 184.194 54.6866C181.67 56.4421 180.387 58.9587 181.328 60.3075C182.269 61.6564 185.077 61.3267 187.601 59.5712Z" fill="white"/>
<path opacity="0.03" d="M188.254 53.5742C188.577 53.5395 188.905 53.5858 189.206 53.7088C189.507 53.8319 189.773 54.0279 189.98 54.2792C190.187 54.6217 190.297 55.0145 190.297 55.4149C190.297 55.8153 190.187 56.2081 189.98 56.5506C189.384 57.704 188.49 58.6775 187.391 59.3704C186.199 60.2399 184.785 60.7557 183.312 60.8586C183 60.8946 182.684 60.8484 182.395 60.7248C182.106 60.6011 181.854 60.4043 181.665 60.1536C181.457 59.8111 181.348 59.4183 181.348 59.0179C181.348 58.6175 181.457 58.2247 181.665 57.8822C182.292 56.6384 183.24 55.5839 184.41 54.8275C185.56 54.0815 186.885 53.6494 188.254 53.5742ZM188.254 53.5742C186.719 53.6704 185.246 54.2152 184.018 55.1408C181.508 56.8639 180.253 59.4487 181.194 60.7803C181.43 61.0686 181.73 61.297 182.071 61.4468C182.412 61.5966 182.784 61.6634 183.155 61.6418C184.718 61.5609 186.22 61.0154 187.469 60.0753C189.98 58.3521 191.235 55.7674 190.293 54.4358C190.097 54.0638 189.804 53.7513 189.445 53.5308C189.086 53.3104 188.675 53.1901 188.254 53.1826V53.5742Z" fill="url(#paint34_linear_333_1836)"/>
</g>
<g opacity="0.05">
<path opacity="0.05" d="M187.421 59.3136C189.66 57.7559 190.793 55.5148 189.952 54.308C189.11 53.1011 186.612 53.3855 184.372 54.9432C182.133 56.5009 181 58.742 181.842 59.9489C182.684 61.1557 185.182 60.8713 187.421 59.3136Z" fill="white"/>
<path opacity="0.05" d="M188.253 53.6531C188.535 53.6208 188.82 53.6614 189.081 53.7712C189.342 53.881 189.57 54.0561 189.744 54.2797C190.45 55.2979 189.352 57.4127 187.312 58.8226C186.274 59.6236 185.015 60.0882 183.704 60.1542C183.423 60.1865 183.138 60.1458 182.876 60.036C182.615 59.9263 182.387 59.7511 182.214 59.5275C181.429 58.5093 182.214 56.3945 184.645 54.9846C185.72 54.2949 186.976 53.9404 188.253 53.9664V53.9664V53.6531ZM188.253 53.9664C186.893 53.9089 185.542 54.2058 184.331 54.828C182.135 56.3945 180.959 58.666 181.821 59.8408C182.032 60.1127 182.307 60.3271 182.623 60.4641C182.938 60.601 183.283 60.6561 183.625 60.6241C184.996 60.5523 186.311 60.0599 187.391 59.2142C189.665 57.726 190.763 55.4546 189.901 54.2014C189.687 53.9898 189.427 53.8303 189.141 53.7353C188.855 53.6402 188.552 53.6121 188.253 53.6531V53.9664Z" fill="url(#paint35_linear_333_1836)"/>
</g>
<g opacity="0.1">
<path opacity="0.1" d="M187.332 59.1858C189.429 57.727 190.487 55.6236 189.695 54.4878C188.902 53.3519 186.56 53.6137 184.462 55.0725C182.365 56.5313 181.307 58.6347 182.1 59.7705C182.892 60.9064 185.235 60.6446 187.332 59.1858Z" fill="white"/>
<path opacity="0.1" d="M188.254 53.8883C188.516 53.8602 188.781 53.8953 189.027 53.9907C189.272 54.0862 189.491 54.239 189.666 54.4366C189.831 54.7224 189.918 55.0465 189.918 55.3765C189.918 55.7065 189.831 56.0306 189.666 56.3164C189.182 57.2738 188.45 58.0849 187.548 58.6662C186.566 59.3959 185.396 59.8307 184.175 59.9194C183.913 59.9475 183.648 59.9124 183.402 59.817C183.156 59.7216 182.937 59.5687 182.763 59.3711C182.057 58.3529 182.763 56.3947 185.038 55.0632C186.008 54.4808 187.122 54.1822 188.254 54.2016V54.2016V53.8883ZM188.254 54.2016C186.984 54.2864 185.762 54.7202 184.724 55.4548C182.606 56.943 181.508 59.0578 182.371 60.1544C182.56 60.405 182.812 60.6019 183.101 60.7255C183.39 60.8492 183.706 60.8953 184.018 60.8593C185.285 60.7629 186.504 60.3302 187.548 59.6061C189.666 58.1179 190.685 56.0031 189.901 54.9065C189.738 54.6089 189.501 54.3586 189.212 54.1801C188.923 54.0016 188.593 53.9011 188.254 53.8883V54.2016Z" fill="url(#paint36_linear_333_1836)"/>
</g>
<g opacity="0.1">
<path opacity="0.1" d="M187.242 59.057C189.197 57.6971 190.18 55.7315 189.437 54.6666C188.694 53.6017 186.507 53.8409 184.552 55.2008C182.597 56.5607 181.614 58.5263 182.357 59.5912C183.1 60.6561 185.287 60.4169 187.242 59.057Z" fill="white"/>
<path opacity="0.1" d="M188.253 54.3576C188.501 54.3525 188.748 54.3985 188.977 54.4929C189.207 54.5872 189.414 54.7278 189.587 54.9058C190.214 55.8458 189.194 57.6473 187.469 58.9005C186.549 59.5689 185.464 59.975 184.331 60.0754C184.083 60.0854 183.835 60.0416 183.604 59.947C183.374 59.8523 183.167 59.7091 182.998 59.5271C182.37 58.5872 182.998 56.7857 185.116 55.5324C186.028 54.8493 187.116 54.4416 188.253 54.3576V54.3576ZM188.253 54.3576C187.063 54.4161 185.917 54.8249 184.959 55.5324C182.998 56.864 181.978 58.8221 182.762 59.9187C182.961 60.1333 183.204 60.301 183.476 60.4094C183.747 60.5178 184.04 60.5643 184.331 60.5453C185.519 60.4734 186.661 60.066 187.626 59.3704C189.587 58.0389 190.528 56.0807 189.822 54.9842C189.636 54.7542 189.394 54.5758 189.12 54.466C188.845 54.3563 188.547 54.3189 188.253 54.3576V54.3576Z" fill="url(#paint37_linear_333_1836)"/>
</g>
<g opacity="0.1">
<path opacity="0.1" d="M187.153 58.9294C189.001 57.6436 189.937 55.7957 189.244 54.8018C188.551 53.8079 186.49 54.0445 184.642 55.3302C182.793 56.6159 181.857 58.4639 182.55 59.4578C183.244 60.4517 185.304 60.2151 187.153 58.9294Z" fill="white"/>
<path opacity="0.1" d="M187.705 54.2803V54.8286C187.943 54.8131 188.181 54.8548 188.399 54.9502C188.618 55.0456 188.81 55.1919 188.96 55.3768C189.113 55.6241 189.194 55.9088 189.194 56.1993C189.194 56.4897 189.113 56.7745 188.96 57.0217C188.512 57.8675 187.866 58.5929 187.077 59.1365C186.19 59.7299 185.162 60.0809 184.097 60.1547C183.836 60.1974 183.568 60.1566 183.331 60.038C183.095 59.9195 182.902 59.7294 182.78 59.4948C182.658 59.2603 182.614 58.9933 182.653 58.732C182.692 58.4707 182.813 58.2285 182.999 58.0399C183.42 57.1762 184.072 56.4447 184.881 55.9251C185.692 55.2866 186.675 54.9047 187.705 54.8286V54.2803ZM187.705 54.8286C186.588 54.8951 185.519 55.3055 184.646 56.0035C182.763 57.2567 181.9 59.0582 182.528 60.0764C182.714 60.2849 182.945 60.4493 183.202 60.5576C183.46 60.666 183.739 60.7157 184.018 60.703C185.16 60.6423 186.256 60.2321 187.156 59.5281C188.96 58.2749 189.901 56.4734 189.195 55.4552C189.013 55.2421 188.783 55.0746 188.524 54.9658C188.266 54.857 187.985 54.81 187.705 54.8286V54.8286Z" fill="url(#paint38_linear_333_1836)"/>
</g>
<g opacity="0.1">
<path opacity="0.1" d="M187.062 58.8007C188.804 57.5892 189.694 55.8589 189.05 54.936C188.407 54.0131 186.473 54.2471 184.731 55.4586C182.989 56.6702 182.099 58.4005 182.743 59.3234C183.387 60.2463 185.321 60.0123 187.062 58.8007Z" fill="white"/>
<path opacity="0.1" d="M187.626 54.8291C187.846 54.8038 188.068 54.8335 188.274 54.9155C188.479 54.9976 188.661 55.1294 188.802 55.299C188.94 55.5515 189.012 55.8342 189.012 56.1214C189.012 56.4087 188.94 56.6914 188.802 56.9439C188.349 57.6973 187.733 58.3397 186.998 58.8237C186.195 59.4754 185.208 59.859 184.174 59.9203C183.951 59.9132 183.732 59.861 183.53 59.7668C183.328 59.6725 183.147 59.5382 182.998 59.372C182.449 58.5887 182.998 57.0222 184.959 55.8473C185.728 55.2532 186.656 54.899 187.626 54.8291V54.8291ZM187.626 54.8291C186.572 54.9039 185.563 55.2851 184.724 55.9256C182.998 57.1005 182.057 58.8237 182.763 59.7636C182.916 59.9691 183.119 60.1337 183.351 60.243C183.584 60.3523 183.839 60.4028 184.096 60.3902C185.175 60.3214 186.211 59.9404 187.077 59.2936C188.802 58.1188 189.665 56.3956 189.038 55.4557C188.867 55.2488 188.651 55.0845 188.406 54.9758C188.161 54.867 187.894 54.8168 187.626 54.8291Z" fill="url(#paint39_linear_333_1836)"/>
</g>
<g opacity="0.1">
<path opacity="0.1" d="M187.018 58.7362C188.653 57.5988 189.477 55.9574 188.858 55.07C188.239 54.1826 186.411 54.3853 184.776 55.5226C183.141 56.66 182.317 58.3014 182.936 59.1888C183.555 60.0762 185.383 59.8735 187.018 58.7362Z" fill="white"/>
<path opacity="0.1" d="M187.548 54.8284C187.756 54.8095 187.965 54.8425 188.157 54.9246C188.348 55.0066 188.517 55.1351 188.646 55.2984C188.777 55.5246 188.846 55.7813 188.846 56.0425C188.846 56.3037 188.777 56.5604 188.646 56.7866C188.176 57.5418 187.546 58.1854 186.801 58.6724C186.056 59.1595 185.213 59.4782 184.332 59.6063C184.124 59.6331 183.912 59.6036 183.719 59.5209C183.526 59.4383 183.358 59.3055 183.234 59.1364C183.234 59.1364 183.234 58.2748 183.234 57.6482C183.629 56.9233 184.194 56.305 184.881 55.8467C185.657 55.2644 186.581 54.9115 187.548 54.8284V54.8284ZM187.548 54.8284C186.557 54.9095 185.607 55.2618 184.803 55.8467C183.155 57.0216 182.293 58.5881 182.92 59.528C183.086 59.7144 183.293 59.8606 183.524 59.9556C183.755 60.0506 184.004 60.0919 184.254 60.0763C185.245 59.9953 186.195 59.643 186.999 59.0581C188.646 57.8832 189.431 56.2383 188.803 55.3767C188.649 55.1965 188.456 55.0535 188.239 54.9586C188.021 54.8636 187.785 54.8191 187.548 54.8284V54.8284Z" fill="url(#paint40_linear_333_1836)"/>
</g>
<g opacity="0.1">
<path opacity="0.1" d="M186.733 58.8667C188.26 57.8065 189.038 56.2856 188.47 55.4697C187.902 54.6539 186.203 54.852 184.676 55.9123C183.148 56.9725 182.371 58.4934 182.938 59.3093C183.506 60.1251 185.205 59.927 186.733 58.8667Z" fill="white"/>
<path opacity="0.1" d="M187.469 54.8277C187.657 54.8173 187.846 54.8469 188.021 54.9144C188.197 54.9819 188.357 55.0858 188.489 55.2193C188.606 55.436 188.667 55.6782 188.667 55.9242C188.667 56.1703 188.606 56.4125 188.489 56.6292C188.122 57.3279 187.582 57.9211 186.92 58.3523C186.197 58.9103 185.323 59.2378 184.41 59.2922C184.215 59.305 184.019 59.2687 183.841 59.1866C183.663 59.1045 183.508 58.9793 183.391 58.8223C183.256 58.6264 183.183 58.3943 183.183 58.1565C183.183 57.9188 183.256 57.6866 183.391 57.4907C183.758 56.792 184.298 56.1988 184.959 55.7676C185.678 55.2007 186.555 54.8721 187.469 54.8277V54.8277ZM187.469 54.8277C186.509 54.8793 185.583 55.2055 184.803 55.7676C183.312 56.8641 182.528 58.4307 183.077 59.2139C183.222 59.4042 183.414 59.5543 183.633 59.6502C183.853 59.7462 184.093 59.7847 184.332 59.7622C185.271 59.7235 186.176 59.3951 186.92 58.8223C188.489 57.7257 189.274 56.1592 188.646 55.3759C188.513 55.192 188.335 55.0451 188.129 54.9491C187.923 54.8532 187.696 54.8114 187.469 54.8277Z" fill="url(#paint41_linear_333_1836)"/>
</g>
<g opacity="0.1">
<path opacity="0.1" d="M186.883 58.5432C188.34 57.5294 189.08 56.0746 188.536 55.2937C187.991 54.5128 186.368 54.7015 184.91 55.7152C183.453 56.729 182.713 58.1838 183.258 58.9647C183.803 59.7456 185.426 59.5569 186.883 58.5432Z" fill="white"/>
<path opacity="0.1" d="M187.312 54.8285C187.704 54.8285 188.096 54.8285 188.331 54.8285C188.567 54.8285 188.331 55.6117 188.331 56.16C187.942 56.7745 187.436 57.3067 186.841 57.7266C186.159 58.24 185.34 58.5398 184.488 58.5881C184.488 58.5881 183.704 58.5881 183.547 58.1965C183.412 58.0006 183.34 57.7685 183.34 57.5307C183.34 57.293 183.412 57.0609 183.547 56.865C183.867 56.1999 184.388 55.6519 185.037 55.2984C185.738 54.9371 186.525 54.7745 187.312 54.8285ZM187.312 54.8285C186.438 54.8879 185.596 55.186 184.88 55.6901C183.468 56.7083 182.684 58.1965 183.233 58.9798C183.382 59.1396 183.565 59.2646 183.769 59.3458C183.972 59.4271 184.191 59.4625 184.41 59.4497C185.286 59.4029 186.131 59.1036 186.841 58.5881C188.331 57.5699 189.037 56.0817 188.488 55.2984C188.342 55.134 188.16 55.0058 187.956 54.9242C187.752 54.8427 187.531 54.8099 187.312 54.8285V54.8285Z" fill="url(#paint42_linear_333_1836)"/>
</g>
<g opacity="0.1">
<path opacity="0.1" d="M186.643 58.7393C187.993 57.8023 188.667 56.4389 188.149 55.694C187.63 54.9491 186.115 55.1048 184.765 56.0417C183.416 56.9787 182.742 58.3421 183.26 59.0871C183.779 59.832 185.293 59.6763 186.643 58.7393Z" fill="white"/>
<path opacity="0.1" d="M187.234 55.2207C187.382 55.156 187.542 55.1226 187.704 55.1226C187.866 55.1226 188.026 55.156 188.175 55.2207C188.175 55.2207 188.175 55.9257 188.175 56.474C187.858 57.0961 187.368 57.6131 186.763 57.9621C186.145 58.4819 185.374 58.7846 184.567 58.8237C184.418 58.8884 184.258 58.9218 184.096 58.9218C183.934 58.9218 183.774 58.8884 183.625 58.8237C183.529 58.629 183.478 58.4145 183.478 58.1971C183.478 57.9797 183.529 57.7653 183.625 57.5705C183.985 56.9584 184.465 56.4255 185.037 56.004C185.692 55.563 186.447 55.2937 187.234 55.2207V55.2207ZM187.234 55.2207C186.415 55.2522 185.623 55.5247 184.959 56.004C183.625 57.0222 182.919 58.3538 183.39 59.0587C183.524 59.2169 183.693 59.3418 183.883 59.4234C184.074 59.505 184.281 59.541 184.488 59.5287C185.348 59.5183 186.179 59.2142 186.841 58.6671C188.175 57.7272 188.881 56.3956 188.332 55.6907C187.783 54.9858 187.783 54.8291 187.234 54.8291V55.2207Z" fill="url(#paint43_linear_333_1836)"/>
</g>
<g opacity="0.1">
<path opacity="0.1" d="M186.794 58.4152C188.074 57.5251 188.71 56.228 188.214 55.5181C187.719 54.8082 186.28 54.9543 185.001 55.8444C183.721 56.7345 183.085 58.0316 183.58 58.7415C184.075 59.4514 185.514 59.3053 186.794 58.4152Z" fill="white"/>
<path opacity="0.1" d="M187.156 55.3774C187.293 55.3192 187.439 55.2892 187.588 55.2892C187.736 55.2892 187.883 55.3192 188.019 55.3774C188.49 56.004 188.019 57.1789 186.686 58.0405C186.061 58.4714 185.326 58.7159 184.568 58.7454C184.288 58.8409 183.984 58.8409 183.705 58.7454C183.313 58.1188 183.705 56.9439 185.117 56.0823C185.713 55.6537 186.422 55.4086 187.156 55.3774V55.3774ZM187.156 55.3774C186.391 55.4383 185.658 55.7094 185.038 56.1606C183.705 57.1006 183.077 58.3538 183.548 59.0587C183.665 59.2157 183.82 59.3409 183.998 59.423C184.176 59.5051 184.372 59.5414 184.568 59.5287C185.368 59.4593 186.131 59.1601 186.764 58.6671C188.019 57.8055 188.646 56.5523 188.176 55.8473C188.158 55.5833 188.044 55.3348 187.857 55.1477C187.669 54.9605 187.421 54.8474 187.156 54.8291V55.3774Z" fill="url(#paint44_linear_333_1836)"/>
</g>
<g opacity="0.2">
<path opacity="0.2" d="M186.704 58.2866C187.877 57.4706 188.466 56.2912 188.021 55.6523C187.575 55.0134 186.263 55.1569 185.09 55.9728C183.917 56.7887 183.327 57.9681 183.773 58.6071C184.219 59.246 185.531 59.1025 186.704 58.2866Z" fill="white"/>
<path opacity="0.2" d="M187.077 55.5339C187.077 55.5339 187.704 55.5339 187.861 55.5339C188.018 55.5339 187.861 57.1788 186.606 57.8837C186.067 58.3088 185.409 58.5553 184.723 58.5887C184.59 58.6573 184.442 58.6932 184.292 58.6932C184.142 58.6932 183.994 58.6573 183.861 58.5887C183.468 58.0404 183.861 56.9438 185.194 56.1605C185.756 55.7907 186.405 55.5747 187.077 55.5339ZM187.077 55.5339C186.36 55.5985 185.679 55.8707 185.116 56.3172C183.861 57.1005 183.312 58.2753 183.782 58.902C184.253 59.5286 184.253 58.902 184.723 58.902C185.431 58.8559 186.11 58.6116 186.684 58.197C187.861 57.4138 188.489 56.2389 188.018 55.5339C187.9 55.4023 187.755 55.2988 187.592 55.231C187.429 55.1632 187.253 55.1329 187.077 55.1423V55.5339Z" fill="url(#paint45_linear_333_1836)"/>
</g>
<g opacity="0.3">
<path opacity="0.3" d="M186.659 58.2212C187.761 57.4547 188.313 56.3442 187.892 55.7407C187.471 55.1373 186.237 55.2695 185.135 56.036C184.033 56.8025 183.481 57.913 183.902 58.5164C184.323 59.1199 185.557 58.9877 186.659 58.2212Z" fill="white"/>
<path opacity="0.3" d="M186.999 55.6112C187.11 55.5615 187.23 55.5358 187.352 55.5358C187.473 55.5358 187.593 55.5615 187.704 55.6112C187.802 55.763 187.855 55.9398 187.855 56.1204C187.855 56.3009 187.802 56.4777 187.704 56.6295C187.473 57.1277 187.088 57.5392 186.606 57.8044C186.124 58.2225 185.518 58.4703 184.881 58.5093C184.628 58.6057 184.349 58.6057 184.096 58.5093C184.096 57.961 184.096 56.9428 185.273 56.2379C185.807 55.8709 186.43 55.6545 187.077 55.6112H186.999ZM187.077 55.6112C186.391 55.6446 185.733 55.8911 185.194 56.3162C184.096 57.0994 183.547 58.1177 184.018 58.7443C184.153 58.8073 184.3 58.8399 184.449 58.8399C184.598 58.8399 184.746 58.8073 184.881 58.7443C185.541 58.7052 186.173 58.4585 186.685 58.0394C187.783 57.2561 188.332 56.1595 187.94 55.6112C187.805 55.5483 187.657 55.5156 187.508 55.5156C187.359 55.5156 187.212 55.5483 187.077 55.6112V55.6112Z" fill="url(#paint46_linear_333_1836)"/>
</g>
<defs>
<radialGradient id="paint0_radial_333_1836" cx="0" cy="0" r="1" gradientUnits="userSpaceOnUse" gradientTransform="translate(103.697 28.6705) scale(131.699 36.8227)">
<stop stop-color="#FE6C56"/>
<stop offset="0.104167" stop-color="#FE6C56"/>
<stop offset="0.21" stop-color="#FE6C56"/>
<stop offset="0.822917" stop-color="#E9533F"/>
<stop offset="1" stop-color="#CE4F3C"/>
</radialGradient>
<linearGradient id="paint1_linear_333_1836" x1="105.501" y1="64.619" x2="105.501" y2="8.38083" gradientUnits="userSpaceOnUse">
<stop/>
<stop offset="1" stop-color="white"/>
</linearGradient>
<linearGradient id="paint2_linear_333_1836" x1="170.84" y1="149.603" x2="45.7653" y2="-67.4382" gradientUnits="userSpaceOnUse">
<stop stop-color="#FAFAFA" stop-opacity="0.09"/>
<stop offset="0.145833" stop-color="white"/>
<stop offset="0.541667" stop-color="white"/>
<stop offset="0.864583" stop-color="#E0E0E0" stop-opacity="0"/>
<stop offset="1" stop-color="white" stop-opacity="0"/>
</linearGradient>
<linearGradient id="paint3_linear_333_1836" x1="193.884" y1="65" x2="26.9806" y2="-12.2081" gradientUnits="userSpaceOnUse">
<stop stop-color="#FAFAFA"/>
<stop offset="0.145833" stop-color="white" stop-opacity="0"/>
<stop offset="0.541667" stop-color="white" stop-opacity="0.02"/>
<stop offset="0.864583" stop-color="white" stop-opacity="0"/>
<stop offset="1" stop-color="white"/>
</linearGradient>
<linearGradient id="paint4_linear_333_1836" x1="158.247" y1="68.0573" x2="142.091" y2="-12.9111" gradientUnits="userSpaceOnUse">
<stop stop-color="white"/>
<stop offset="0.51" stop-color="white" stop-opacity="0"/>
<stop offset="1" stop-color="white"/>
</linearGradient>
<linearGradient id="paint5_linear_333_1836" x1="16.0017" y1="34.5413" x2="19.2885" y2="27.8798" gradientUnits="userSpaceOnUse">
<stop stop-color="white" stop-opacity="0"/>
<stop offset="1" stop-color="white" stop-opacity="0.6"/>
</linearGradient>
<linearGradient id="paint6_linear_333_1836" x1="16.2373" y1="34.151" x2="19.1328" y2="28.2733" gradientUnits="userSpaceOnUse">
<stop stop-color="white" stop-opacity="0"/>
<stop offset="1" stop-color="white" stop-opacity="0.6"/>
</linearGradient>
<linearGradient id="paint7_linear_333_1836" x1="16.3937" y1="33.8369" x2="18.9761" y2="28.5861" gradientUnits="userSpaceOnUse">
<stop stop-color="white" stop-opacity="0"/>
<stop offset="1" stop-color="white" stop-opacity="0.6"/>
</linearGradient>
<linearGradient id="paint8_linear_333_1836" x1="16.4723" y1="33.6802" x2="18.8983" y2="28.8212" gradientUnits="userSpaceOnUse">
<stop stop-color="white" stop-opacity="0"/>
<stop offset="1" stop-color="white" stop-opacity="0.6"/>
</linearGradient>
<linearGradient id="paint9_linear_333_1836" x1="16.5498" y1="33.5232" x2="18.8193" y2="28.9777" gradientUnits="userSpaceOnUse">
<stop stop-color="white" stop-opacity="0"/>
<stop offset="1" stop-color="white" stop-opacity="0.6"/>
</linearGradient>
<linearGradient id="paint10_linear_333_1836" x1="16.6299" y1="33.3675" x2="18.7428" y2="29.0572" gradientUnits="userSpaceOnUse">
<stop stop-color="white" stop-opacity="0"/>
<stop offset="1" stop-color="white" stop-opacity="0.6"/>
</linearGradient>
<linearGradient id="paint11_linear_333_1836" x1="16.707" y1="33.2107" x2="18.6635" y2="29.2138" gradientUnits="userSpaceOnUse">
<stop stop-color="white" stop-opacity="0"/>
<stop offset="1" stop-color="white" stop-opacity="0.6"/>
</linearGradient>
<linearGradient id="paint12_linear_333_1836" x1="16.7076" y1="33.1321" x2="18.5858" y2="29.292" gradientUnits="userSpaceOnUse">
<stop stop-color="white" stop-opacity="0"/>
<stop offset="1" stop-color="white" stop-opacity="0.6"/>
</linearGradient>
<linearGradient id="paint13_linear_333_1836" x1="16.7856" y1="33.053" x2="18.5855" y2="29.4479" gradientUnits="userSpaceOnUse">
<stop stop-color="white" stop-opacity="0"/>
<stop offset="1" stop-color="white" stop-opacity="0.6"/>
</linearGradient>
<linearGradient id="paint14_linear_333_1836" x1="16.8649" y1="32.8969" x2="18.5083" y2="29.5271" gradientUnits="userSpaceOnUse">
<stop stop-color="white" stop-opacity="0"/>
<stop offset="1" stop-color="white" stop-opacity="0.6"/>
</linearGradient>
<linearGradient id="paint15_linear_333_1836" x1="16.8644" y1="32.819" x2="18.4295" y2="29.6058" gradientUnits="userSpaceOnUse">
<stop stop-color="white" stop-opacity="0"/>
<stop offset="1" stop-color="white" stop-opacity="0.6"/>
</linearGradient>
<linearGradient id="paint16_linear_333_1836" x1="16.9426" y1="32.7403" x2="18.4295" y2="29.7622" gradientUnits="userSpaceOnUse">
<stop stop-color="white" stop-opacity="0"/>
<stop offset="1" stop-color="white" stop-opacity="0.6"/>
</linearGradient>
<linearGradient id="paint17_linear_333_1836" x1="17.0213" y1="32.5832" x2="18.3516" y2="29.8403" gradientUnits="userSpaceOnUse">
<stop stop-color="white" stop-opacity="0"/>
<stop offset="1" stop-color="white" stop-opacity="0.6"/>
</linearGradient>
<linearGradient id="paint18_linear_333_1836" x1="17.0211" y1="32.5057" x2="18.2733" y2="29.9978" gradientUnits="userSpaceOnUse">
<stop stop-color="white" stop-opacity="0"/>
<stop offset="1" stop-color="white" stop-opacity="0.6"/>
</linearGradient>
<linearGradient id="paint19_linear_333_1836" x1="192.176" y1="53.1835" x2="192.723" y2="48.4055" gradientUnits="userSpaceOnUse">
<stop stop-color="white" stop-opacity="0"/>
<stop offset="1" stop-color="white" stop-opacity="0.6"/>
</linearGradient>
<linearGradient id="paint20_linear_333_1836" x1="192.176" y1="52.948" x2="192.645" y2="48.7182" gradientUnits="userSpaceOnUse">
<stop stop-color="white" stop-opacity="0"/>
<stop offset="1" stop-color="white" stop-opacity="0.6"/>
</linearGradient>
<linearGradient id="paint21_linear_333_1836" x1="192.254" y1="52.7138" x2="192.645" y2="48.954" gradientUnits="userSpaceOnUse">
<stop stop-color="white" stop-opacity="0"/>
<stop offset="1" stop-color="white" stop-opacity="0.6"/>
</linearGradient>
<linearGradient id="paint22_linear_333_1836" x1="192.255" y1="52.5571" x2="192.646" y2="49.1106" gradientUnits="userSpaceOnUse">
<stop stop-color="white" stop-opacity="0"/>
<stop offset="1" stop-color="white" stop-opacity="0.6"/>
</linearGradient>
<linearGradient id="paint23_linear_333_1836" x1="192.254" y1="52.4782" x2="192.645" y2="49.1884" gradientUnits="userSpaceOnUse">
<stop stop-color="white" stop-opacity="0"/>
<stop offset="1" stop-color="white" stop-opacity="0.6"/>
</linearGradient>
<linearGradient id="paint24_linear_333_1836" x1="192.254" y1="52.3223" x2="192.645" y2="49.2674" gradientUnits="userSpaceOnUse">
<stop stop-color="white" stop-opacity="0"/>
<stop offset="1" stop-color="white" stop-opacity="0.6"/>
</linearGradient>
<linearGradient id="paint25_linear_333_1836" x1="192.254" y1="52.2438" x2="192.645" y2="49.3456" gradientUnits="userSpaceOnUse">
<stop stop-color="white" stop-opacity="0"/>
<stop offset="1" stop-color="white" stop-opacity="0.6"/>
</linearGradient>
<linearGradient id="paint26_linear_333_1836" x1="192.254" y1="52.1652" x2="192.566" y2="49.4237" gradientUnits="userSpaceOnUse">
<stop stop-color="white" stop-opacity="0"/>
<stop offset="1" stop-color="white" stop-opacity="0.6"/>
</linearGradient>
<linearGradient id="paint27_linear_333_1836" x1="192.332" y1="52.0873" x2="192.567" y2="49.5025" gradientUnits="userSpaceOnUse">
<stop stop-color="white" stop-opacity="0"/>
<stop offset="1" stop-color="white" stop-opacity="0.6"/>
</linearGradient>
<linearGradient id="paint28_linear_333_1836" x1="192.333" y1="52.0082" x2="192.568" y2="49.5801" gradientUnits="userSpaceOnUse">
<stop stop-color="white" stop-opacity="0"/>
<stop offset="1" stop-color="white" stop-opacity="0.6"/>
</linearGradient>
<linearGradient id="paint29_linear_333_1836" x1="192.333" y1="51.9306" x2="192.568" y2="49.6591" gradientUnits="userSpaceOnUse">
<stop stop-color="white" stop-opacity="0"/>
<stop offset="1" stop-color="white" stop-opacity="0.6"/>
</linearGradient>
<linearGradient id="paint30_linear_333_1836" x1="192.333" y1="51.8523" x2="192.568" y2="49.7374" gradientUnits="userSpaceOnUse">
<stop stop-color="white" stop-opacity="0"/>
<stop offset="1" stop-color="white" stop-opacity="0.6"/>
</linearGradient>
<linearGradient id="paint31_linear_333_1836" x1="192.333" y1="51.7734" x2="192.567" y2="49.8152" gradientUnits="userSpaceOnUse">
<stop stop-color="white" stop-opacity="0"/>
<stop offset="1" stop-color="white" stop-opacity="0.6"/>
</linearGradient>
<linearGradient id="paint32_linear_333_1836" x1="192.332" y1="51.6951" x2="192.567" y2="49.8935" gradientUnits="userSpaceOnUse">
<stop stop-color="white" stop-opacity="0"/>
<stop offset="1" stop-color="white" stop-opacity="0.6"/>
</linearGradient>
<linearGradient id="paint33_linear_333_1836" x1="180.724" y1="60.7814" x2="191.068" y2="53.6398" gradientUnits="userSpaceOnUse">
<stop stop-color="white" stop-opacity="0"/>
<stop offset="1" stop-color="white" stop-opacity="0.6"/>
</linearGradient>
<linearGradient id="paint34_linear_333_1836" x1="181.351" y1="60.3886" x2="190.442" y2="54.0319" gradientUnits="userSpaceOnUse">
<stop stop-color="white" stop-opacity="0"/>
<stop offset="1" stop-color="white" stop-opacity="0.6"/>
</linearGradient>
<linearGradient id="paint35_linear_333_1836" x1="181.821" y1="59.9975" x2="189.893" y2="54.3471" gradientUnits="userSpaceOnUse">
<stop stop-color="white" stop-opacity="0"/>
<stop offset="1" stop-color="white" stop-opacity="0.6"/>
</linearGradient>
<linearGradient id="paint36_linear_333_1836" x1="182.136" y1="59.8411" x2="189.659" y2="54.5831" gradientUnits="userSpaceOnUse">
<stop stop-color="white" stop-opacity="0"/>
<stop offset="1" stop-color="white" stop-opacity="0.6"/>
</linearGradient>
<linearGradient id="paint37_linear_333_1836" x1="182.37" y1="59.6837" x2="189.423" y2="54.7396" gradientUnits="userSpaceOnUse">
<stop stop-color="white" stop-opacity="0"/>
<stop offset="1" stop-color="white" stop-opacity="0.6"/>
</linearGradient>
<linearGradient id="paint38_linear_333_1836" x1="182.528" y1="59.5281" x2="189.189" y2="54.8979" gradientUnits="userSpaceOnUse">
<stop stop-color="white" stop-opacity="0"/>
<stop offset="1" stop-color="white" stop-opacity="0.6"/>
</linearGradient>
<linearGradient id="paint39_linear_333_1836" x1="182.763" y1="59.372" x2="189.032" y2="55.0556" gradientUnits="userSpaceOnUse">
<stop stop-color="white" stop-opacity="0"/>
<stop offset="1" stop-color="white" stop-opacity="0.6"/>
</linearGradient>
<linearGradient id="paint40_linear_333_1836" x1="182.92" y1="59.293" x2="188.797" y2="55.1338" gradientUnits="userSpaceOnUse">
<stop stop-color="white" stop-opacity="0"/>
<stop offset="1" stop-color="white" stop-opacity="0.6"/>
</linearGradient>
<linearGradient id="paint41_linear_333_1836" x1="183.077" y1="59.1356" x2="188.641" y2="55.2901" gradientUnits="userSpaceOnUse">
<stop stop-color="white" stop-opacity="0"/>
<stop offset="1" stop-color="white" stop-opacity="0.6"/>
</linearGradient>
<linearGradient id="paint42_linear_333_1836" x1="183.233" y1="59.0581" x2="188.483" y2="55.3697" gradientUnits="userSpaceOnUse">
<stop stop-color="white" stop-opacity="0"/>
<stop offset="1" stop-color="white" stop-opacity="0.6"/>
</linearGradient>
<linearGradient id="paint43_linear_333_1836" x1="183.39" y1="58.9021" x2="188.327" y2="55.5274" gradientUnits="userSpaceOnUse">
<stop stop-color="white" stop-opacity="0"/>
<stop offset="1" stop-color="white" stop-opacity="0.6"/>
</linearGradient>
<linearGradient id="paint44_linear_333_1836" x1="183.548" y1="58.8237" x2="188.172" y2="55.6061" gradientUnits="userSpaceOnUse">
<stop stop-color="white" stop-opacity="0"/>
<stop offset="1" stop-color="white" stop-opacity="0.6"/>
</linearGradient>
<linearGradient id="paint45_linear_333_1836" x1="183.782" y1="58.667" x2="188.014" y2="55.6849" gradientUnits="userSpaceOnUse">
<stop stop-color="white" stop-opacity="0"/>
<stop offset="1" stop-color="white" stop-opacity="0.6"/>
</linearGradient>
<linearGradient id="paint46_linear_333_1836" x1="183.939" y1="58.5876" x2="187.858" y2="55.8409" gradientUnits="userSpaceOnUse">
<stop stop-color="white" stop-opacity="0"/>
<stop offset="1" stop-color="white" stop-opacity="0.6"/>
</linearGradient>
</defs>
</svg>
