<svg width="33" height="33" viewBox="0 0 33 33" fill="none" xmlns="http://www.w3.org/2000/svg">
<path fill-rule="evenodd" clip-rule="evenodd" d="M16.0399 0.139229C15.8209 0.265158 15.7043 0.442156 15.1111 1.54812L14.4327 2.81289L13.2002 3.02091C12.5224 3.13523 11.8524 3.25813 11.7113 3.29385C11.1915 3.42565 10.8465 4.05246 11.0296 4.53232C11.0687 4.63504 11.5556 5.19582 12.1114 5.77846L13.1221 6.83774L12.9327 8.17087C12.8285 8.90407 12.7482 9.59742 12.754 9.71168C12.779 10.1941 13.1928 10.5678 13.7018 10.5678C13.9512 10.5678 14.2063 10.4653 15.2258 9.95529C15.8993 9.61838 16.4945 9.34273 16.5484 9.34273C16.6023 9.34273 17.1975 9.61838 17.871 9.95529C18.8905 10.4653 19.1456 10.5678 19.395 10.5678C19.904 10.5678 20.3178 10.1941 20.3428 9.71168C20.3487 9.59742 20.2683 8.90452 20.1643 8.17196L19.975 6.84L21.0122 5.74899C21.7452 4.97801 22.0625 4.59803 22.0943 4.4534C22.1844 4.0435 21.97 3.56286 21.6154 3.37961C21.5159 3.32816 20.8102 3.17869 20.0472 3.04734L18.66 2.80864L17.9831 1.54599C17.3921 0.443252 17.2747 0.265029 17.0564 0.139229C16.7342 -0.0464095 16.3628 -0.0464095 16.0399 0.139229ZM4.62062 2.89691C4.33211 2.98325 4.17011 3.17327 3.5712 4.12764L3.01482 5.01437L1.91063 5.28422C1.30334 5.43259 0.72624 5.61081 0.628111 5.68026C0.254821 5.94443 0.12095 6.57563 0.360305 6.94336C0.422886 7.0395 0.763659 7.46242 1.11759 7.88316L1.76108 8.64815L1.6883 9.78532C1.61663 10.9052 1.61772 10.9268 1.7594 11.2083C1.85043 11.3891 1.98579 11.537 2.12804 11.6113C2.51546 11.8133 2.84101 11.7606 3.93553 11.3188L4.93552 10.9151L5.96778 11.3285C7.10952 11.7857 7.40481 11.821 7.79088 11.5461C8.15404 11.2877 8.19829 11.0471 8.1172 9.77378L8.04546 8.64815L8.68894 7.88316C9.50526 6.91267 9.55913 6.8271 9.56416 6.49193C9.5692 6.15915 9.42249 5.85326 9.17255 5.67536C9.07081 5.60295 8.51016 5.4246 7.92094 5.27726L6.85365 5.01025L6.29855 4.12564C5.68501 3.1478 5.54314 2.98564 5.22049 2.89317C4.96591 2.82018 4.87514 2.82076 4.62062 2.89691ZM27.8464 2.89691C27.5579 2.98325 27.3959 3.17327 26.7983 4.12564L26.2432 5.01025L25.1759 5.27726C24.5867 5.4246 24.026 5.60295 23.9243 5.67536C23.6743 5.85326 23.5276 6.15915 23.5327 6.49193C23.5377 6.8271 23.5916 6.91267 24.4079 7.88316L25.0514 8.64815L24.9786 9.78532C24.9069 10.9052 24.908 10.9268 25.0497 11.2083C25.2192 11.545 25.5239 11.7298 25.9022 11.7255C26.065 11.7236 26.533 11.5724 27.1613 11.3188L28.1613 10.9151L29.1936 11.3285C30.0718 11.6802 30.2702 11.7375 30.524 11.7131C30.9057 11.6765 31.2091 11.4602 31.3614 11.1161C31.476 10.8572 31.4765 10.8029 31.3757 9.74682L31.2707 8.64705L31.9385 7.88258C32.3057 7.46217 32.6466 7.06948 32.6959 7.01003C32.9662 6.68434 32.8928 6.08448 32.5422 5.75402C32.3509 5.5738 32.1894 5.51667 31.2028 5.28087L30.081 5.0127L29.5251 4.12687C28.9107 3.1478 28.769 2.9857 28.4463 2.89317C28.1917 2.82018 28.1009 2.82076 27.8464 2.89691ZM2.23256 13.6362C1.4903 13.8166 0.733659 14.3974 0.369273 15.0664C-0.0124687 15.7675 4.73981e-05 15.4894 4.73981e-05 23.2704C4.73981e-05 31.0514 -0.0124687 30.7734 0.369273 31.4744C0.593659 31.8864 1.07043 32.3651 1.5025 32.6122C2.24121 33.0346 1.26811 33.0104 16.7234 32.9916L30.7419 32.9747L31.1123 32.8252C31.8728 32.5183 32.5433 31.8485 32.8499 31.0895L33 30.7179V23.2704V15.823L32.8499 15.4513C32.5433 14.6924 31.8728 14.0226 31.1123 13.7156L30.7419 13.5662L16.6774 13.555C4.65914 13.5454 2.55759 13.5573 2.23256 13.6362ZM28.5823 17.5325C28.7463 17.6161 28.8833 17.7531 28.9669 17.9169C29.0938 18.1656 29.0968 18.2873 29.0968 23.2704C29.0968 28.2536 29.0938 28.3752 28.9669 28.6239C28.8833 28.7878 28.7463 28.9247 28.5823 29.0083C28.3299 29.137 28.2267 29.1381 16.5114 29.1381H4.69501L4.43765 28.9935C4.28662 28.9087 4.12972 28.7499 4.05791 28.6092C3.94075 28.3797 3.93565 28.1525 3.93824 23.2569C3.94127 17.5104 3.91075 17.8673 4.4254 17.5559L4.67746 17.4034L16.5026 17.4031C28.2271 17.4027 28.3299 17.4038 28.5823 17.5325ZM5.87101 23.2704V27.2037H8.77423H11.6775V23.2704V19.3371H8.77423H5.87101V23.2704ZM13.6129 23.2704V27.2037H16.5162H19.4194V23.2704V19.3371H16.5162H13.6129V23.2704ZM21.3549 23.2704V27.2037H24.2581H27.1613V23.2704V19.3371H24.2581H21.3549V23.2704ZM9.22752 21.4013C9.68474 21.6345 9.74197 21.8423 9.74197 23.2704C9.74197 24.6985 9.68474 24.9063 9.22752 25.1395C8.897 25.308 8.6272 25.3037 8.30862 25.1247C7.85423 24.8695 7.8061 24.6894 7.8092 23.2569C7.81229 21.8411 7.85139 21.6939 8.29636 21.4247C8.60526 21.2378 8.89262 21.2306 9.22752 21.4013ZM16.9694 21.4013C17.4267 21.6345 17.4839 21.8423 17.4839 23.2704C17.4839 24.6985 17.4267 24.9063 16.9694 25.1395C16.6389 25.308 16.3691 25.3037 16.0505 25.1247C15.5962 24.8695 15.548 24.6894 15.5511 23.2569C15.5542 21.8411 15.5933 21.6939 16.0383 21.4247C16.3472 21.2378 16.6345 21.2306 16.9694 21.4013ZM24.7114 21.4013C25.1686 21.6345 25.2258 21.8423 25.2258 23.2704C25.2258 24.6985 25.1686 24.9063 24.7114 25.1395C24.3809 25.308 24.111 25.3037 23.7925 25.1247C23.3381 24.8695 23.2899 24.6894 23.293 23.2569C23.2961 21.8411 23.3352 21.6939 23.7802 21.4247C24.0891 21.2378 24.3765 21.2306 24.7114 21.4013Z" fill="white"/>
</svg>
