<svg width="68" height="68" viewBox="0 0 68 68" fill="none" xmlns="http://www.w3.org/2000/svg">
<g style="mix-blend-mode:darken" opacity="0.7">
<g style="mix-blend-mode:darken">
<path d="M33.5863 67.8777C48.3747 67.8777 60.363 55.7693 60.363 40.8329C60.363 25.8965 48.3747 13.7881 33.5863 13.7881C18.7979 13.7881 6.80957 25.8965 6.80957 40.8329C6.80957 55.7693 18.7979 67.8777 33.5863 67.8777Z" fill="white"/>
</g>
<g style="mix-blend-mode:darken">
<path d="M33.5863 67.6414C48.3747 67.6414 60.363 55.533 60.363 40.5966C60.363 25.6601 48.3747 13.5518 33.5863 13.5518C18.7979 13.5518 6.80957 25.6601 6.80957 40.5966C6.80957 55.533 18.7979 67.6414 33.5863 67.6414Z" fill="#F5F5F5"/>
</g>
<g style="mix-blend-mode:darken">
<path d="M33.5863 67.4653C48.3747 67.4653 60.363 55.3305 60.363 40.3615C60.363 25.3926 48.3747 13.2578 33.5863 13.2578C18.7979 13.2578 6.80957 25.3926 6.80957 40.3615C6.80957 55.3305 18.7979 67.4653 33.5863 67.4653Z" fill="#EBEBEB"/>
</g>
<g style="mix-blend-mode:darken">
<path d="M33.5863 67.1704C48.3747 67.1704 60.363 55.0356 60.363 40.0666C60.363 25.0976 48.3747 12.9629 33.5863 12.9629C18.7979 12.9629 6.80957 25.0976 6.80957 40.0666C6.80957 55.0356 18.7979 67.1704 33.5863 67.1704Z" fill="#E2E2E2"/>
</g>
<g style="mix-blend-mode:darken">
<path d="M33.5863 66.935C48.3747 66.935 60.363 54.8003 60.363 39.8313C60.363 24.8623 48.3747 12.7275 33.5863 12.7275C18.7979 12.7275 6.80957 24.8623 6.80957 39.8313C6.80957 54.8003 18.7979 66.935 33.5863 66.935Z" fill="#D8D8D8"/>
</g>
<g style="mix-blend-mode:darken">
<path d="M33.5863 66.6987C48.3747 66.6987 60.363 54.5639 60.363 39.5949C60.363 24.626 48.3747 12.4912 33.5863 12.4912C18.7979 12.4912 6.80957 24.626 6.80957 39.5949C6.80957 54.5639 18.7979 66.6987 33.5863 66.6987Z" fill="#CECECE"/>
</g>
<g style="mix-blend-mode:darken">
<path d="M33.5863 66.5226C48.3747 66.5226 60.363 54.3614 60.363 39.3599C60.363 24.3584 48.3747 12.1973 33.5863 12.1973C18.7979 12.1973 6.80957 24.3584 6.80957 39.3599C6.80957 54.3614 18.7979 66.5226 33.5863 66.5226Z" fill="#C4C4C4"/>
</g>
<g style="mix-blend-mode:darken">
<path d="M33.5863 66.2863C48.3747 66.2863 60.363 54.1251 60.363 39.1236C60.363 24.1221 48.3747 11.9609 33.5863 11.9609C18.7979 11.9609 6.80957 24.1221 6.80957 39.1236C6.80957 54.1251 18.7979 66.2863 33.5863 66.2863Z" fill="#BABABA"/>
</g>
<g style="mix-blend-mode:darken">
<path d="M33.5863 65.9913C48.3747 65.9913 60.363 53.8302 60.363 38.8287C60.363 23.8272 48.3747 11.666 33.5863 11.666C18.7979 11.666 6.80957 23.8272 6.80957 38.8287C6.80957 53.8302 18.7979 65.9913 33.5863 65.9913Z" fill="#B1B1B1"/>
</g>
<g style="mix-blend-mode:darken">
<path d="M33.5863 65.8152C48.3747 65.8152 60.363 53.6277 60.363 38.5936C60.363 23.5596 48.3747 11.3721 33.5863 11.3721C18.7979 11.3721 6.80957 23.5596 6.80957 38.5936C6.80957 53.6277 18.7979 65.8152 33.5863 65.8152Z" fill="#A7A7A7"/>
</g>
<g style="mix-blend-mode:darken">
<path d="M33.5863 65.5789C48.3747 65.5789 60.363 53.3914 60.363 38.3573C60.363 23.3233 48.3747 11.1357 33.5863 11.1357C18.7979 11.1357 6.80957 23.3233 6.80957 38.3573C6.80957 53.3914 18.7979 65.5789 33.5863 65.5789Z" fill="#9D9D9D"/>
</g>
<g style="mix-blend-mode:darken">
<path d="M33.5863 65.3435C48.3747 65.3435 60.363 53.156 60.363 38.122C60.363 23.0879 48.3747 10.9004 33.5863 10.9004C18.7979 10.9004 6.80957 23.0879 6.80957 38.122C6.80957 53.156 18.7979 65.3435 33.5863 65.3435Z" fill="#939393"/>
</g>
<g style="mix-blend-mode:darken">
<path d="M33.5863 65.1079C48.3747 65.1079 60.363 52.894 60.363 37.8274C60.363 22.7608 48.3747 10.5469 33.5863 10.5469C18.7979 10.5469 6.80957 22.7608 6.80957 37.8274C6.80957 52.894 18.7979 65.1079 33.5863 65.1079Z" fill="#898989"/>
</g>
<g style="mix-blend-mode:darken">
<path d="M33.5863 64.8725C48.3747 64.8725 60.363 52.6586 60.363 37.592C60.363 22.5254 48.3747 10.3115 33.5863 10.3115C18.7979 10.3115 6.80957 22.5254 6.80957 37.592C6.80957 52.6586 18.7979 64.8725 33.5863 64.8725Z" fill="#808080"/>
</g>
<g style="mix-blend-mode:darken">
<path d="M33.5863 64.6362C48.3747 64.6362 60.363 52.4223 60.363 37.3557C60.363 22.2891 48.3747 10.0752 33.5863 10.0752C18.7979 10.0752 6.80957 22.2891 6.80957 37.3557C6.80957 52.4223 18.7979 64.6362 33.5863 64.6362Z" fill="#767676"/>
</g>
<g style="mix-blend-mode:darken">
<path d="M33.5863 64.4008C48.3747 64.4008 60.363 52.1869 60.363 37.1203C60.363 22.0537 48.3747 9.83984 33.5863 9.83984C18.7979 9.83984 6.80957 22.0537 6.80957 37.1203C6.80957 52.1869 18.7979 64.4008 33.5863 64.4008Z" fill="#6C6C6C"/>
</g>
<g style="mix-blend-mode:darken">
<path d="M33.5863 64.2238C48.3747 64.2238 60.363 51.9835 60.363 36.8843C60.363 21.7852 48.3747 9.54492 33.5863 9.54492C18.7979 9.54492 6.80957 21.7852 6.80957 36.8843C6.80957 51.9835 18.7979 64.2238 33.5863 64.2238Z" fill="#626262"/>
</g>
<g style="mix-blend-mode:darken">
<path d="M33.5863 63.9298C48.3747 63.9298 60.363 51.6895 60.363 36.5904C60.363 21.4912 48.3747 9.25098 33.5863 9.25098C18.7979 9.25098 6.80957 21.4912 6.80957 36.5904C6.80957 51.6895 18.7979 63.9298 33.5863 63.9298Z" fill="#585858"/>
</g>
<g style="mix-blend-mode:darken">
<path d="M33.5863 63.6935C48.3747 63.6935 60.363 51.4532 60.363 36.3541C60.363 21.2549 48.3747 9.01465 33.5863 9.01465C18.7979 9.01465 6.80957 21.2549 6.80957 36.3541C6.80957 51.4532 18.7979 63.6935 33.5863 63.6935Z" fill="#4E4E4E"/>
</g>
<g style="mix-blend-mode:darken">
<path d="M33.5863 63.5174C48.3747 63.5174 60.363 51.2507 60.363 36.119C60.363 20.9874 48.3747 8.7207 33.5863 8.7207C18.7979 8.7207 6.80957 20.9874 6.80957 36.119C6.80957 51.2507 18.7979 63.5174 33.5863 63.5174Z" fill="#454545"/>
</g>
<g style="mix-blend-mode:darken">
<path d="M33.5863 63.2811C48.3747 63.2811 60.363 51.0144 60.363 35.8827C60.363 20.751 48.3747 8.48438 33.5863 8.48438C18.7979 8.48438 6.80957 20.751 6.80957 35.8827C6.80957 51.0144 18.7979 63.2811 33.5863 63.2811Z" fill="#3B3B3B"/>
</g>
<g style="mix-blend-mode:darken">
<path d="M33.5863 62.9871C48.3747 62.9871 60.363 50.7205 60.363 35.5888C60.363 20.4571 48.3747 8.19043 33.5863 8.19043C18.7979 8.19043 6.80957 20.4571 6.80957 35.5888C6.80957 50.7205 18.7979 62.9871 33.5863 62.9871Z" fill="#313131"/>
</g>
<g style="mix-blend-mode:darken">
<path d="M33.5863 62.81C48.3747 62.81 60.363 50.517 60.363 35.3528C60.363 20.1885 48.3747 7.89551 33.5863 7.89551C18.7979 7.89551 6.80957 20.1885 6.80957 35.3528C6.80957 50.517 18.7979 62.81 33.5863 62.81Z" fill="#272727"/>
</g>
<g style="mix-blend-mode:darken">
<path d="M33.5863 62.5747C48.3747 62.5747 60.363 50.2816 60.363 35.1174C60.363 19.9532 48.3747 7.66016 33.5863 7.66016C18.7979 7.66016 6.80957 19.9532 6.80957 35.1174C6.80957 50.2816 18.7979 62.5747 33.5863 62.5747Z" fill="#1D1D1D"/>
</g>
<g style="mix-blend-mode:darken">
<path d="M33.5863 62.3383C48.3747 62.3383 60.363 50.0453 60.363 34.8811C60.363 19.7169 48.3747 7.42383 33.5863 7.42383C18.7979 7.42383 6.80957 19.7169 6.80957 34.8811C6.80957 50.0453 18.7979 62.3383 33.5863 62.3383Z" fill="#141414"/>
</g>
<g style="mix-blend-mode:darken">
<path d="M33.5863 62.103C48.3747 62.103 60.363 49.81 60.363 34.6457C60.363 19.4815 48.3747 7.18848 33.5863 7.18848C18.7979 7.18848 6.80957 19.4815 6.80957 34.6457C6.80957 49.81 18.7979 62.103 33.5863 62.103Z" fill="#0A0A0A"/>
</g>
<g style="mix-blend-mode:darken">
<path d="M33.5863 61.8673C48.3747 61.8673 60.363 49.5479 60.363 34.3511C60.363 19.1544 48.3747 6.83496 33.5863 6.83496C18.7979 6.83496 6.80957 19.1544 6.80957 34.3511C6.80957 49.5479 18.7979 61.8673 33.5863 61.8673Z" fill="black"/>
</g>
</g>
<path d="M33.5863 61.0424C48.3747 61.0424 60.363 48.9077 60.363 33.9387C60.363 18.9697 48.3747 6.83496 33.5863 6.83496C18.7979 6.83496 6.80957 18.9697 6.80957 33.9387C6.80957 48.9077 18.7979 61.0424 33.5863 61.0424Z" fill="#FE6C56"/>
<path style="mix-blend-mode:soft-light" d="M33.5863 61.0424C48.3747 61.0424 60.363 48.9077 60.363 33.9387C60.363 18.9697 48.3747 6.83496 33.5863 6.83496C18.7979 6.83496 6.80957 18.9697 6.80957 33.9387C6.80957 48.9077 18.7979 61.0424 33.5863 61.0424Z" fill="url(#paint0_radial_339_1550)"/>
<path style="mix-blend-mode:multiply" opacity="0.58" d="M33.5863 61.0424C48.3747 61.0424 60.363 48.9077 60.363 33.9387C60.363 18.9697 48.3747 6.83496 33.5863 6.83496C18.7979 6.83496 6.80957 18.9697 6.80957 33.9387C6.80957 48.9077 18.7979 61.0424 33.5863 61.0424Z" fill="url(#paint1_radial_339_1550)"/>
<path opacity="0.05" d="M33.5867 67.8772C52.1043 67.8772 67.1158 52.6824 67.1158 33.9386C67.1158 15.1948 52.1043 0 33.5867 0C15.0691 0 0.0576172 15.1948 0.0576172 33.9386C0.0576172 52.6824 15.0691 67.8772 33.5867 67.8772Z" fill="white"/>
<g style="mix-blend-mode:screen">
<path style="mix-blend-mode:screen" d="M33.5867 67.8772C52.1043 67.8772 67.1158 52.6824 67.1158 33.9386C67.1158 15.1948 52.1043 0 33.5867 0C15.0691 0 0.0576172 15.1948 0.0576172 33.9386C0.0576172 52.6824 15.0691 67.8772 33.5867 67.8772Z" fill="url(#paint2_linear_339_1550)" fill-opacity="0.4"/>
<path style="mix-blend-mode:screen" d="M33.5865 1.23707C39.9777 1.23723 46.2258 3.15278 51.5431 6.7422C56.8603 10.3316 61.0086 15.4342 63.4649 21.4066C65.9212 27.3791 66.5756 33.9539 65.3455 40.3022C64.1155 46.6506 61.0561 52.4882 56.553 57.079C52.05 61.6698 46.3049 64.8084 40.0421 66.0989C33.7794 67.3895 27.2793 66.7742 21.3615 64.3308C15.4437 61.8874 10.3731 57.7251 6.78892 52.3688C3.20478 47.0125 1.2676 40.702 1.22162 34.2329C1.1909 29.911 2.00537 25.6256 3.6181 21.6238C5.23083 17.6219 7.60994 13.9825 10.6184 10.9155C13.6268 7.8484 17.2051 5.41421 21.147 3.75314C25.0889 2.09207 29.3166 1.23695 33.5865 1.23707V1.23707ZM33.5865 0.0586435C26.9626 0.0471649 20.4837 2.02193 14.9674 5.73374C9.45106 9.44556 5.14452 14.7281 2.59116 20.9148C0.0378122 27.1015 -0.647935 33.9151 0.620453 40.4959C1.88884 47.0767 5.05453 53.1298 9.71805 57.8913C14.3816 62.6528 20.334 65.9094 26.8241 67.2502C33.3143 68.5911 40.0514 67.9559 46.1853 65.4251C52.3193 62.8942 57.5752 58.581 61.2898 53.0296C65.0045 47.4783 67.0114 40.9376 67.0574 34.2329C67.0959 29.759 66.2585 25.3218 64.5936 21.1772C62.9288 17.0327 60.4694 13.263 57.3575 10.0857C54.2456 6.90841 50.5428 4.38648 46.4629 2.66547C42.3829 0.944467 38.0066 0.0584744 33.5865 0.0586435V0.0586435Z" fill="url(#paint3_linear_339_1550)"/>
</g>
<g opacity="0.2">
<path opacity="0.2" d="M33.8196 7.36553C38.5929 17.3232 24.9717 17.9713 22.585 20.6228C20.1984 23.2742 17.8118 37.2975 7.68322 29.0485C4.01597 24.5705 6.92649 16.0269 14.1446 10.017C21.3626 4.00702 30.1524 2.8286 33.8196 7.36553Z" fill="white"/>
</g>
<defs>
<radialGradient id="paint0_radial_339_1550" cx="0" cy="0" r="1" gradientUnits="userSpaceOnUse" gradientTransform="translate(35.3128 34.0942) scale(26.7342 27.0607)">
<stop stop-color="white"/>
<stop offset="1"/>
</radialGradient>
<radialGradient id="paint1_radial_339_1550" cx="0" cy="0" r="1" gradientUnits="userSpaceOnUse" gradientTransform="translate(35.3128 34.0942) scale(26.7342 27.0607)">
<stop offset="0.56" stop-color="white"/>
<stop offset="0.63" stop-color="#FEFDFC"/>
<stop offset="0.69" stop-color="#FAF8F2"/>
<stop offset="0.74" stop-color="#F4F0E1"/>
<stop offset="0.79" stop-color="#ECE4C9"/>
<stop offset="0.84" stop-color="#E1D4AA"/>
<stop offset="0.89" stop-color="#D3C184"/>
<stop offset="0.93" stop-color="#C3AA57"/>
<stop offset="0.97" stop-color="#B19125"/>
<stop offset="1" stop-color="#A47E00"/>
</radialGradient>
<linearGradient id="paint2_linear_339_1550" x1="54.3523" y1="139.104" x2="-63.6003" y2="69.1452" gradientUnits="userSpaceOnUse">
<stop stop-color="#FAFAFA" stop-opacity="0.09"/>
<stop offset="0.145833" stop-color="white"/>
<stop offset="0.541667" stop-color="white"/>
<stop offset="0.864583" stop-color="#E0E0E0" stop-opacity="0"/>
<stop offset="1" stop-color="white" stop-opacity="0"/>
</linearGradient>
<linearGradient id="paint3_linear_339_1550" x1="50.2929" y1="63.34" x2="16.2085" y2="4.9537" gradientUnits="userSpaceOnUse">
<stop stop-color="white"/>
<stop offset="0.51" stop-color="white" stop-opacity="0"/>
<stop offset="1" stop-color="white"/>
</linearGradient>
</defs>
</svg>
