<svg width="69" height="68" viewBox="0 0 69 68" fill="none" xmlns="http://www.w3.org/2000/svg">
<g style="mix-blend-mode:darken" opacity="0.7">
<g style="mix-blend-mode:darken">
<path d="M34.0885 67.8777C49.0976 67.8777 61.2648 55.7693 61.2648 40.8329C61.2648 25.8965 49.0976 13.7881 34.0885 13.7881C19.0794 13.7881 6.91211 25.8965 6.91211 40.8329C6.91211 55.7693 19.0794 67.8777 34.0885 67.8777Z" fill="white"/>
</g>
<g style="mix-blend-mode:darken">
<path d="M34.0885 67.6414C49.0976 67.6414 61.2648 55.533 61.2648 40.5966C61.2648 25.6601 49.0976 13.5518 34.0885 13.5518C19.0794 13.5518 6.91211 25.6601 6.91211 40.5966C6.91211 55.533 19.0794 67.6414 34.0885 67.6414Z" fill="#F5F5F5"/>
</g>
<g style="mix-blend-mode:darken">
<path d="M34.0885 67.4057C49.0976 67.4057 61.2648 55.2709 61.2648 40.302C61.2648 25.333 49.0976 13.1982 34.0885 13.1982C19.0794 13.1982 6.91211 25.333 6.91211 40.302C6.91211 55.2709 19.0794 67.4057 34.0885 67.4057Z" fill="#EBEBEB"/>
</g>
<g style="mix-blend-mode:darken">
<path d="M34.0885 67.1704C49.0976 67.1704 61.2648 55.0356 61.2648 40.0666C61.2648 25.0976 49.0976 12.9629 34.0885 12.9629C19.0794 12.9629 6.91211 25.0976 6.91211 40.0666C6.91211 55.0356 19.0794 67.1704 34.0885 67.1704Z" fill="#E2E2E2"/>
</g>
<g style="mix-blend-mode:darken">
<path d="M34.0885 66.935C49.0976 66.935 61.2648 54.8003 61.2648 39.8313C61.2648 24.8623 49.0976 12.7275 34.0885 12.7275C19.0794 12.7275 6.91211 24.8623 6.91211 39.8313C6.91211 54.8003 19.0794 66.935 34.0885 66.935Z" fill="#D8D8D8"/>
</g>
<g style="mix-blend-mode:darken">
<path d="M34.0885 66.6987C49.0976 66.6987 61.2648 54.5639 61.2648 39.595C61.2648 24.626 49.0976 12.4912 34.0885 12.4912C19.0794 12.4912 6.91211 24.626 6.91211 39.595C6.91211 54.5639 19.0794 66.6987 34.0885 66.6987Z" fill="#CECECE"/>
</g>
<g style="mix-blend-mode:darken">
<path d="M34.0885 66.5226C49.0976 66.5226 61.2648 54.3614 61.2648 39.3599C61.2648 24.3584 49.0976 12.1973 34.0885 12.1973C19.0794 12.1973 6.91211 24.3584 6.91211 39.3599C6.91211 54.3614 19.0794 66.5226 34.0885 66.5226Z" fill="#C4C4C4"/>
</g>
<g style="mix-blend-mode:darken">
<path d="M34.0885 66.2277C49.0976 66.2277 61.2648 54.0665 61.2648 39.065C61.2648 24.0635 49.0976 11.9023 34.0885 11.9023C19.0794 11.9023 6.91211 24.0635 6.91211 39.065C6.91211 54.0665 19.0794 66.2277 34.0885 66.2277Z" fill="#BABABA"/>
</g>
<g style="mix-blend-mode:darken">
<path d="M34.0885 65.9913C49.0976 65.9913 61.2648 53.8302 61.2648 38.8287C61.2648 23.8272 49.0976 11.666 34.0885 11.666C19.0794 11.666 6.91211 23.8272 6.91211 38.8287C6.91211 53.8302 19.0794 65.9913 34.0885 65.9913Z" fill="#B1B1B1"/>
</g>
<g style="mix-blend-mode:darken">
<path d="M34.0885 65.8152C49.0976 65.8152 61.2648 53.6277 61.2648 38.5936C61.2648 23.5596 49.0976 11.3721 34.0885 11.3721C19.0794 11.3721 6.91211 23.5596 6.91211 38.5936C6.91211 53.6277 19.0794 65.8152 34.0885 65.8152Z" fill="#A7A7A7"/>
</g>
<g style="mix-blend-mode:darken">
<path d="M34.0885 65.5789C49.0976 65.5789 61.2648 53.3914 61.2648 38.3573C61.2648 23.3233 49.0976 11.1357 34.0885 11.1357C19.0794 11.1357 6.91211 23.3233 6.91211 38.3573C6.91211 53.3914 19.0794 65.5789 34.0885 65.5789Z" fill="#9D9D9D"/>
</g>
<g style="mix-blend-mode:darken">
<path d="M34.0885 65.285C49.0976 65.285 61.2648 53.0974 61.2648 38.0634C61.2648 23.0293 49.0976 10.8418 34.0885 10.8418C19.0794 10.8418 6.91211 23.0293 6.91211 38.0634C6.91211 53.0974 19.0794 65.285 34.0885 65.285Z" fill="#939393"/>
</g>
<g style="mix-blend-mode:darken">
<path d="M34.0885 65.1079C49.0976 65.1079 61.2648 52.894 61.2648 37.8274C61.2648 22.7608 49.0976 10.5469 34.0885 10.5469C19.0794 10.5469 6.91211 22.7608 6.91211 37.8274C6.91211 52.894 19.0794 65.1079 34.0885 65.1079Z" fill="#898989"/>
</g>
<g style="mix-blend-mode:darken">
<path d="M34.0885 64.8725C49.0976 64.8725 61.2648 52.6586 61.2648 37.592C61.2648 22.5254 49.0976 10.3115 34.0885 10.3115C19.0794 10.3115 6.91211 22.5254 6.91211 37.592C6.91211 52.6586 19.0794 64.8725 34.0885 64.8725Z" fill="#808080"/>
</g>
<g style="mix-blend-mode:darken">
<path d="M34.0885 64.6362C49.0976 64.6362 61.2648 52.4223 61.2648 37.3557C61.2648 22.2891 49.0976 10.0752 34.0885 10.0752C19.0794 10.0752 6.91211 22.2891 6.91211 37.3557C6.91211 52.4223 19.0794 64.6362 34.0885 64.6362Z" fill="#767676"/>
</g>
<g style="mix-blend-mode:darken">
<path d="M34.0885 64.4008C49.0976 64.4008 61.2648 52.1869 61.2648 37.1203C61.2648 22.0537 49.0976 9.83984 34.0885 9.83984C19.0794 9.83984 6.91211 22.0537 6.91211 37.1203C6.91211 52.1869 19.0794 64.4008 34.0885 64.4008Z" fill="#6C6C6C"/>
</g>
<g style="mix-blend-mode:darken">
<path d="M34.0885 64.1652C49.0976 64.1652 61.2648 51.9249 61.2648 36.8257C61.2648 21.7266 49.0976 9.48633 34.0885 9.48633C19.0794 9.48633 6.91211 21.7266 6.91211 36.8257C6.91211 51.9249 19.0794 64.1652 34.0885 64.1652Z" fill="#626262"/>
</g>
<g style="mix-blend-mode:darken">
<path d="M34.0885 63.9298C49.0976 63.9298 61.2648 51.6895 61.2648 36.5904C61.2648 21.4912 49.0976 9.25098 34.0885 9.25098C19.0794 9.25098 6.91211 21.4912 6.91211 36.5904C6.91211 51.6895 19.0794 63.9298 34.0885 63.9298Z" fill="#585858"/>
</g>
<g style="mix-blend-mode:darken">
<path d="M34.0885 63.6935C49.0976 63.6935 61.2648 51.4532 61.2648 36.3541C61.2648 21.2549 49.0976 9.01465 34.0885 9.01465C19.0794 9.01465 6.91211 21.2549 6.91211 36.3541C6.91211 51.4532 19.0794 63.6935 34.0885 63.6935Z" fill="#4E4E4E"/>
</g>
<g style="mix-blend-mode:darken">
<path d="M34.0885 63.5174C49.0976 63.5174 61.2648 51.2507 61.2648 36.119C61.2648 20.9874 49.0976 8.7207 34.0885 8.7207C19.0794 8.7207 6.91211 20.9874 6.91211 36.119C6.91211 51.2507 19.0794 63.5174 34.0885 63.5174Z" fill="#454545"/>
</g>
<g style="mix-blend-mode:darken">
<path d="M34.0885 63.2225C49.0976 63.2225 61.2648 50.9558 61.2648 35.8241C61.2648 20.6924 49.0976 8.42578 34.0885 8.42578C19.0794 8.42578 6.91211 20.6924 6.91211 35.8241C6.91211 50.9558 19.0794 63.2225 34.0885 63.2225Z" fill="#3B3B3B"/>
</g>
<g style="mix-blend-mode:darken">
<path d="M34.0885 62.9871C49.0976 62.9871 61.2648 50.7205 61.2648 35.5888C61.2648 20.4571 49.0976 8.19043 34.0885 8.19043C19.0794 8.19043 6.91211 20.4571 6.91211 35.5888C6.91211 50.7205 19.0794 62.9871 34.0885 62.9871Z" fill="#313131"/>
</g>
<g style="mix-blend-mode:darken">
<path d="M34.0885 62.81C49.0976 62.81 61.2648 50.517 61.2648 35.3528C61.2648 20.1885 49.0976 7.89551 34.0885 7.89551C19.0794 7.89551 6.91211 20.1885 6.91211 35.3528C6.91211 50.517 19.0794 62.81 34.0885 62.81Z" fill="#272727"/>
</g>
<g style="mix-blend-mode:darken">
<path d="M34.0885 62.5747C49.0976 62.5747 61.2648 50.2816 61.2648 35.1174C61.2648 19.9532 49.0976 7.66016 34.0885 7.66016C19.0794 7.66016 6.91211 19.9532 6.91211 35.1174C6.91211 50.2816 19.0794 62.5747 34.0885 62.5747Z" fill="#1D1D1D"/>
</g>
<g style="mix-blend-mode:darken">
<path d="M34.0885 62.3384C49.0976 62.3384 61.2648 50.0453 61.2648 34.8811C61.2648 19.7169 49.0976 7.42383 34.0885 7.42383C19.0794 7.42383 6.91211 19.7169 6.91211 34.8811C6.91211 50.0453 19.0794 62.3384 34.0885 62.3384Z" fill="#141414"/>
</g>
<g style="mix-blend-mode:darken">
<path d="M34.0885 62.0444C49.0976 62.0444 61.2648 49.7514 61.2648 34.5871C61.2648 19.4229 49.0976 7.12988 34.0885 7.12988C19.0794 7.12988 6.91211 19.4229 6.91211 34.5871C6.91211 49.7514 19.0794 62.0444 34.0885 62.0444Z" fill="#0A0A0A"/>
</g>
<g style="mix-blend-mode:darken">
<path d="M34.0885 61.8673C49.0976 61.8673 61.2648 49.5479 61.2648 34.3512C61.2648 19.1544 49.0976 6.83496 34.0885 6.83496C19.0794 6.83496 6.91211 19.1544 6.91211 34.3512C6.91211 49.5479 19.0794 61.8673 34.0885 61.8673Z" fill="black"/>
</g>
</g>
<path d="M34.0885 61.0424C49.0976 61.0424 61.2648 48.9077 61.2648 33.9387C61.2648 18.9697 49.0976 6.83496 34.0885 6.83496C19.0794 6.83496 6.91211 18.9697 6.91211 33.9387C6.91211 48.9077 19.0794 61.0424 34.0885 61.0424Z" fill="#FCCB23"/>
<path style="mix-blend-mode:soft-light" d="M34.0885 61.0424C49.0976 61.0424 61.2648 48.9077 61.2648 33.9387C61.2648 18.9697 49.0976 6.83496 34.0885 6.83496C19.0794 6.83496 6.91211 18.9697 6.91211 33.9387C6.91211 48.9077 19.0794 61.0424 34.0885 61.0424Z" fill="url(#paint0_radial_333_2223)"/>
<path style="mix-blend-mode:multiply" opacity="0.58" d="M34.0885 61.0424C49.0976 61.0424 61.2648 48.9077 61.2648 33.9387C61.2648 18.9697 49.0976 6.83496 34.0885 6.83496C19.0794 6.83496 6.91211 18.9697 6.91211 33.9387C6.91211 48.9077 19.0794 61.0424 34.0885 61.0424Z" fill="url(#paint1_radial_333_2223)"/>
<path opacity="0.05" d="M34.0881 67.8772C52.8821 67.8772 68.1177 52.6824 68.1177 33.9386C68.1177 15.1948 52.8821 0 34.0881 0C15.2941 0 0.0585938 15.1948 0.0585938 33.9386C0.0585938 52.6824 15.2941 67.8772 34.0881 67.8772Z" fill="white"/>
<g style="mix-blend-mode:screen">
<g style="mix-blend-mode:screen">
<path d="M34.0881 67.8772C52.8821 67.8772 68.1177 52.6824 68.1177 33.9386C68.1177 15.1948 52.8821 0 34.0881 0C15.2941 0 0.0585938 15.1948 0.0585938 33.9386C0.0585938 52.6824 15.2941 67.8772 34.0881 67.8772Z" fill="url(#paint2_linear_333_2223)" fill-opacity="0.1" style="mix-blend-mode:screen"/>
<path d="M34.0881 67.8772C52.8821 67.8772 68.1177 52.6824 68.1177 33.9386C68.1177 15.1948 52.8821 0 34.0881 0C15.2941 0 0.0585938 15.1948 0.0585938 33.9386C0.0585938 52.6824 15.2941 67.8772 34.0881 67.8772Z" fill="url(#paint3_linear_333_2223)" fill-opacity="0.3" style="mix-blend-mode:screen"/>
<path d="M34.0881 67.8772C52.8821 67.8772 68.1177 52.6824 68.1177 33.9386C68.1177 15.1948 52.8821 0 34.0881 0C15.2941 0 0.0585938 15.1948 0.0585938 33.9386C0.0585938 52.6824 15.2941 67.8772 34.0881 67.8772Z" fill="url(#paint4_linear_333_2223)" fill-opacity="0.1" style="mix-blend-mode:screen"/>
<path d="M34.0881 67.8772C52.8821 67.8772 68.1177 52.6824 68.1177 33.9386C68.1177 15.1948 52.8821 0 34.0881 0C15.2941 0 0.0585938 15.1948 0.0585938 33.9386C0.0585938 52.6824 15.2941 67.8772 34.0881 67.8772Z" fill="url(#paint5_linear_333_2223)" fill-opacity="0.3" style="mix-blend-mode:screen"/>
</g>
<path style="mix-blend-mode:screen" d="M34.0886 1.23707C40.5711 1.24872 46.9047 3.17651 52.289 6.77684C57.6733 10.3772 61.8667 15.4885 64.3394 21.4649C66.8121 27.4413 67.453 34.0145 66.1811 40.3541C64.9093 46.6936 61.7818 52.5149 57.1939 57.0823C52.6059 61.6498 46.7634 64.7584 40.4046 66.0154C34.0458 67.2725 27.4561 66.6215 21.4681 64.1447C15.4802 61.6678 10.3628 57.4764 6.76247 52.1C3.16219 46.7236 1.24064 40.4035 1.24062 33.9383C1.25627 25.26 4.72394 16.9424 10.8824 10.8115C17.0409 4.68047 25.387 1.23706 34.0886 1.23707ZM34.0886 0.0586448C27.3532 0.0469927 20.7658 2.02904 15.1606 5.75378C9.55541 9.47851 5.1846 14.7784 2.60167 20.9822C0.0187311 27.1861 -0.660145 34.0149 0.651008 40.6038C1.96216 47.1928 5.20437 53.2454 9.96704 57.9954C14.7297 62.7453 20.7986 65.9789 27.4052 67.2865C34.0118 68.5942 40.8589 67.9171 47.0794 65.3411C53.2999 62.765 58.6139 58.4059 62.3487 52.8157C66.0834 47.2255 68.0707 40.6557 68.059 33.9383C68.059 29.4892 67.1804 25.0836 65.4732 20.9731C63.766 16.8627 61.2638 13.1278 58.1093 9.98178C54.9549 6.83576 51.21 4.34019 47.0885 2.63758C42.967 0.934968 38.5496 0.0586448 34.0886 0.0586448V0.0586448Z" fill="url(#paint6_linear_333_2223)"/>
</g>
<g opacity="0.2">
<path opacity="0.2" d="M34.3252 7.36553C39.1697 17.3232 25.3452 17.9124 22.9229 20.6228C20.5007 23.3332 18.0785 37.2386 7.79869 29.0485C4.07671 24.5705 7.03067 16.0269 14.3565 10.017C21.6823 4.00703 30.6032 2.8286 34.3252 7.36553Z" fill="white"/>
</g>
<defs>
<radialGradient id="paint0_radial_333_2223" cx="0" cy="0" r="1" gradientUnits="userSpaceOnUse" gradientTransform="translate(34.0885 33.9387) scale(27.1764 27.1037)">
<stop stop-color="white"/>
<stop offset="1"/>
</radialGradient>
<radialGradient id="paint1_radial_333_2223" cx="0" cy="0" r="1" gradientUnits="userSpaceOnUse" gradientTransform="translate(34.0885 33.9387) scale(27.1764 27.1037)">
<stop offset="0.56" stop-color="white"/>
<stop offset="0.63" stop-color="#FEFDFC"/>
<stop offset="0.69" stop-color="#FAF8F2"/>
<stop offset="0.74" stop-color="#F4F0E1"/>
<stop offset="0.79" stop-color="#ECE4C9"/>
<stop offset="0.84" stop-color="#E1D4AA"/>
<stop offset="0.89" stop-color="#D3C184"/>
<stop offset="0.93" stop-color="#C3AA57"/>
<stop offset="0.97" stop-color="#B19125"/>
<stop offset="1" stop-color="#A47E00"/>
</radialGradient>
<linearGradient id="paint2_linear_333_2223" x1="55.1637" y1="139.105" x2="-63.6198" y2="67.6009" gradientUnits="userSpaceOnUse">
<stop stop-color="#FAFAFA" stop-opacity="0.09"/>
<stop offset="0.145833" stop-color="white"/>
<stop offset="0.541667" stop-color="white"/>
<stop offset="0.864583" stop-color="#E0E0E0" stop-opacity="0"/>
<stop offset="1" stop-color="white" stop-opacity="0"/>
</linearGradient>
<linearGradient id="paint3_linear_333_2223" x1="62.5966" y1="60.4386" x2="-1.11824" y2="50.2142" gradientUnits="userSpaceOnUse">
<stop stop-color="#FAFAFA"/>
<stop offset="0.145833" stop-color="white" stop-opacity="0"/>
<stop offset="0.541667" stop-color="white" stop-opacity="0.02"/>
<stop offset="0.864583" stop-color="white" stop-opacity="0"/>
<stop offset="1" stop-color="white"/>
</linearGradient>
<linearGradient id="paint4_linear_333_2223" x1="55.1637" y1="139.105" x2="-63.6198" y2="67.6009" gradientUnits="userSpaceOnUse">
<stop stop-color="#FAFAFA" stop-opacity="0.09"/>
<stop offset="0.145833" stop-color="white"/>
<stop offset="0.541667" stop-color="white"/>
<stop offset="0.864583" stop-color="#E0E0E0" stop-opacity="0"/>
<stop offset="1" stop-color="white" stop-opacity="0"/>
</linearGradient>
<linearGradient id="paint5_linear_333_2223" x1="62.5966" y1="60.4386" x2="-1.11824" y2="50.2142" gradientUnits="userSpaceOnUse">
<stop stop-color="#FAFAFA"/>
<stop offset="0.145833" stop-color="white" stop-opacity="0"/>
<stop offset="0.541667" stop-color="white" stop-opacity="0.02"/>
<stop offset="0.864583" stop-color="white" stop-opacity="0"/>
<stop offset="1" stop-color="white"/>
</linearGradient>
<linearGradient id="paint6_linear_333_2223" x1="51.0432" y1="63.34" x2="17.2088" y2="4.5174" gradientUnits="userSpaceOnUse">
<stop stop-color="white"/>
<stop offset="0.51" stop-color="white" stop-opacity="0"/>
<stop offset="1" stop-color="white"/>
</linearGradient>
</defs>
</svg>
