<svg width="30" height="29" viewBox="0 0 30 29" fill="none" xmlns="http://www.w3.org/2000/svg">
<path fill-rule="evenodd" clip-rule="evenodd" d="M13.6214 0.0660932C11.8747 0.366618 10.1658 1.14816 8.7763 2.2818C8.56708 2.4525 8.42341 2.52362 8.28766 2.52362C7.63325 2.52362 6.3304 2.90313 5.48037 3.34136C3.41234 4.40745 2.20373 6.24734 1.91927 8.76242C1.8353 9.50463 1.87863 10.9435 2.03051 12.4569L2.13137 13.4623L1.83524 13.6223C-0.151869 14.6962 -0.618988 17.4236 0.896718 19.1023C1.46311 19.7296 2.02171 20.0505 2.8487 20.2238L3.15884 20.2888L3.38331 20.8647C4.70129 24.2455 7.3838 26.9471 10.6815 28.2147C12.9906 29.1023 15.6754 29.2442 18.0921 28.6063C20.2693 28.0316 22.1632 26.9099 23.801 25.2251C25.0672 23.9225 25.9669 22.5287 26.6156 20.8647L26.8401 20.2888L27.1502 20.2238C27.9287 20.0607 28.4451 19.7815 28.9917 19.2281C30.0328 18.1741 30.2953 16.5626 29.6499 15.1874C29.4093 14.6747 28.6666 13.8865 28.181 13.6286C27.9129 13.4861 27.8513 13.4265 27.872 13.3288C27.9689 12.8724 28.0983 10.9533 28.1007 9.93837C28.1045 8.31748 27.935 7.45737 27.3741 6.25387C26.7201 4.85058 25.4263 3.42852 23.9345 2.47344C22.1484 1.32999 19.9737 0.546691 17.4934 0.153436C16.5031 -0.00357523 14.3136 -0.0529666 13.6214 0.0660932ZM10.8269 10.077C13.1751 12.0942 17.311 13.249 22.9912 13.4735C23.6938 13.5013 24.2788 13.5345 24.2912 13.5473C24.3036 13.56 24.5812 14.5352 24.9082 15.7143L25.5027 17.858L25.3781 18.4586C24.9571 20.488 23.8056 22.5957 22.3356 24.0271C19.0718 27.2052 14.4017 27.9685 10.3963 25.9788C8.22955 24.9024 6.51863 23.1391 5.46272 20.8941C5.06069 20.0393 4.74714 19.118 4.59498 18.3441L4.49822 17.8521L5.1154 15.6243C5.45486 14.399 5.75281 13.3788 5.77749 13.3573C5.80218 13.3357 6.11268 13.2017 6.46744 13.0592C7.71177 12.5599 8.62015 11.9671 9.43165 11.1249C9.73963 10.8052 10.093 10.3735 10.217 10.1654C10.3409 9.95732 10.4529 9.78705 10.4658 9.78705C10.4788 9.78705 10.6413 9.91749 10.8269 10.077ZM9.3821 14.9219C8.99409 15.0648 8.69221 15.3108 8.44734 15.6834C8.19753 16.0634 8.1199 16.3834 8.15221 16.8992C8.19619 17.6005 8.56948 18.1744 9.18473 18.4862C9.46502 18.6283 9.58969 18.6543 9.9858 18.653C10.599 18.651 10.9649 18.4883 11.3601 18.0419C12.0282 17.2873 12.0282 16.2084 11.3601 15.4537C10.8578 14.8865 10.0602 14.672 9.3821 14.9219ZM19.4853 14.8919C19.1001 15.0237 18.9059 15.1502 18.6517 15.4349C18.3502 15.7725 18.2563 15.96 18.1685 16.3998C18.0003 17.2422 18.4607 18.1418 19.2508 18.5144C19.696 18.7243 20.3683 18.7122 20.8142 18.4862C21.1788 18.3014 21.4893 17.9834 21.6963 17.5828C21.8092 17.3643 21.8306 17.2312 21.8306 16.7478C21.8306 16.1037 21.7435 15.8604 21.354 15.4153C20.9285 14.929 20.0754 14.6901 19.4853 14.8919ZM11.4352 21.3882C11.1455 21.5355 10.992 21.7994 10.9677 22.1915C10.9423 22.6031 11.0356 22.7781 11.4979 23.1858C12.4842 24.0555 14.0026 24.568 15.3172 24.4746C16.4395 24.3949 17.613 23.9363 18.3995 23.27C18.8934 22.8517 19.0456 22.6164 19.0456 22.2713C19.0456 21.7374 18.7352 21.3584 18.252 21.3023C17.8848 21.2595 17.7699 21.3052 17.3259 21.6703C15.9356 22.8139 14.1418 22.8461 12.7791 21.7519C12.6061 21.613 12.395 21.4518 12.31 21.3937C12.1153 21.2607 11.691 21.258 11.4352 21.3882Z" fill="white"/>
</svg>
