<svg width="35" height="33" viewBox="0 0 35 33" fill="none" xmlns="http://www.w3.org/2000/svg">
<path fill-rule="evenodd" clip-rule="evenodd" d="M19.4465 0.0407206C19.3768 0.0588163 16.7059 2.18334 13.5111 4.76177L7.7025 9.44987L4.67247 9.46921C1.68577 9.48827 1.63807 9.49076 1.32934 9.64429C0.820436 9.89736 0.470306 10.2481 0.225298 10.7505L0 11.2123V16.4989V21.7855L0.225298 22.2473C0.470306 22.7497 0.820436 23.1005 1.32934 23.3535C1.63807 23.5071 1.68577 23.5095 4.67247 23.5286L7.7025 23.5479L13.5047 28.2309C16.6959 30.8065 19.3823 32.9342 19.4743 32.959C19.9893 33.098 20.544 32.875 20.8061 32.4235L20.9763 32.1306V16.4989V0.867252L20.8061 0.574268C20.5452 0.124914 19.9784 -0.0974837 19.4465 0.0407206ZM29.0461 4.54717C28.5563 4.69691 28.2307 5.15186 28.2307 5.68651C28.2307 6.10271 28.2797 6.18836 28.9439 6.93304C29.9964 8.113 30.6334 9.04997 31.2496 10.325C32.8443 13.6241 33.0969 17.4112 31.9554 20.9116C31.3203 22.8595 30.4033 24.4286 28.9439 26.0648C28.2797 26.8095 28.2307 26.8951 28.2307 27.3113C28.2307 28.1028 28.9238 28.6461 29.6793 28.4469C29.9113 28.3857 30.0909 28.2499 30.5041 27.8229C32.4973 25.7628 34.0083 22.8938 34.6312 19.9864C35.762 14.7078 34.2585 9.2294 30.5862 5.24745C29.9626 4.57128 29.5623 4.38929 29.0461 4.54717ZM25.7636 7.88818C25.2413 8.06209 24.9464 8.46006 24.946 8.99126C24.9456 9.41975 25.0537 9.61977 25.6303 10.2582C27.1727 11.9658 27.973 14.0978 27.973 16.4989C27.973 18.8836 27.1839 21.0019 25.6588 22.7107C25.0462 23.3971 24.9462 23.5771 24.9462 23.9927C24.9462 24.5525 25.2762 24.9892 25.8012 25.1243C26.1286 25.2085 26.498 25.1375 26.7776 24.9366C27.0683 24.7277 27.9288 23.6968 28.391 23.0037C28.8298 22.3455 29.4219 21.1572 29.6888 20.3985C30.1815 18.9983 30.4234 17.0646 30.2911 15.5838C30.0553 12.9434 29.1606 10.7782 27.4873 8.79856C26.753 7.9299 26.322 7.70225 25.7636 7.88818Z" fill="white"/>
</svg>
