<svg width="33" height="33" viewBox="0 0 33 33" fill="none" xmlns="http://www.w3.org/2000/svg">
<path fill-rule="evenodd" clip-rule="evenodd" d="M0.643543 0.131623C0.139764 0.380949 -0.117414 0.983083 0.0519314 1.517C0.115645 1.71784 0.872153 2.50882 3.9441 5.58648L7.75714 9.40664H7.39891C6.8685 9.40664 6.31513 9.52527 5.96754 9.71348C5.56029 9.93392 5.1141 10.4199 4.90052 10.8755L4.72769 11.2442V16.4989V21.7536L4.92728 22.1727C5.18085 22.7054 5.58145 23.1059 6.11418 23.3594L6.53335 23.5589L9.55068 23.5786L12.5681 23.5982L18.3408 28.2095C21.5158 30.7457 24.2125 32.8621 24.3335 32.9126C24.6179 33.0314 24.89 33.0291 25.1862 32.9054C25.4925 32.7774 25.639 32.6418 25.7898 32.3463C25.9027 32.1252 25.912 31.9381 25.912 29.8801C25.912 28.6553 25.9332 27.6531 25.9593 27.6531C25.9854 27.6531 27.1969 28.8405 28.6517 30.2918C31.2487 32.8826 31.3023 32.9312 31.6022 32.9747C32.1609 33.0556 32.6396 32.8172 32.8689 32.3437C33.0309 32.0091 33.0419 31.7344 32.9067 31.4067C32.7686 31.0721 2.00205 0.290619 1.63227 0.117116C1.29268 -0.0422018 0.985716 -0.0377531 0.643543 0.131623ZM24.3273 0.0845564C24.1525 0.160702 14.1078 8.11056 13.7405 8.46349L13.5961 8.60231L19.754 14.7587L25.912 20.9152V10.903C25.912 1.20552 25.9081 0.883275 25.7898 0.651551C25.639 0.356061 25.4925 0.220406 25.1862 0.0924224C24.8978 -0.0280173 24.5924 -0.0308542 24.3273 0.0845564Z" fill="white"/>
</svg>
