<svg width="29" height="29" viewBox="0 0 29 29" fill="none" xmlns="http://www.w3.org/2000/svg">
<path fill-rule="evenodd" clip-rule="evenodd" d="M18.3524 1.02654C10.8503 1.86933 8.99694 2.09354 8.83377 2.17794C8.72232 2.23561 8.55467 2.39125 8.46118 2.52384L8.2912 2.76491L8.27636 12.154C8.2682 17.3181 8.24837 21.5432 8.23228 21.5432C8.21619 21.5432 8.05709 21.4697 7.87878 21.38C6.28928 20.5797 4.22763 20.5407 2.62946 21.2804C0.915244 22.0739 -0.100649 23.5509 0.00790904 25.0919C0.133578 26.8759 1.57492 28.327 3.76756 28.8772C4.18735 28.9825 4.41976 29.0024 5.2033 28.9998C6.02502 28.9971 6.20519 28.9788 6.69212 28.8487C8.47891 28.3717 9.72201 27.2992 10.2256 25.8003C10.3254 25.5031 10.3312 25.0962 10.3462 17.3577L10.3619 9.22747L10.488 9.2008C10.5574 9.1861 14.2092 8.77616 18.6031 8.28978C22.997 7.80344 26.6621 7.39164 26.7478 7.37467L26.9036 7.34379V13.4182V19.4925L26.3713 19.2399C23.5178 17.8857 19.9181 19.0192 18.8778 21.5993C17.9497 23.9014 19.8722 26.4414 22.8757 26.8814C23.5444 26.9794 24.7583 26.9224 25.3738 26.7643C27.1424 26.31 28.5128 25.0796 28.8883 23.6088C28.9976 23.1804 29 22.9323 29 11.9877V0.804314L28.8798 0.555643C28.7142 0.212804 28.4177 0.0260594 27.9981 0.000233007C27.8078 -0.0115166 23.7309 0.42231 18.3524 1.02654Z" fill="white"/>
</svg>
