<svg width="27" height="33" viewBox="0 0 27 33" fill="none" xmlns="http://www.w3.org/2000/svg">
<path d="M25.9173 15.1097C25.3101 13.6172 24.3975 12.2718 23.2396 11.162C22.1808 9.99206 21.0324 8.90848 19.8052 7.92136C17.4215 5.89687 14.802 4.17535 12.005 2.79521C10.7561 2.0857 9.42705 1.53174 8.04671 1.14541C7.38105 0.97406 6.68619 0.953875 6.01192 1.0863C5.33765 1.21873 4.70066 1.50049 4.14662 1.9114C3.59715 2.343 3.1414 2.88455 2.80778 3.50227C0.956213 11.4524 0.522525 19.6733 1.52716 27.7778C1.93302 29.0733 2.67717 30.2337 3.68094 31.1363C4.23773 31.5688 4.8764 31.8809 5.55731 32.0532C6.23822 32.2256 6.94686 32.2544 7.63924 32.1379C8.33654 31.9855 9.01853 31.7686 9.67659 31.4898L11.7722 30.606L15.6723 28.8384C18.2676 27.3131 20.655 25.4511 22.7739 23.2998C23.356 22.7106 23.8799 22.0624 24.462 21.4143C24.9544 20.8341 25.3838 20.202 25.7426 19.5288C26.3655 18.1346 26.4281 16.5498 25.9173 15.1097Z" fill="#FDFBF5" stroke="#A47E00" stroke-width="0.07" stroke-miterlimit="10"/>
</svg>
