<svg width="32" height="33" viewBox="0 0 32 33" fill="none" xmlns="http://www.w3.org/2000/svg">
<path d="M29.9241 20.8489L28.4472 20.0829L26.9702 19.3169C26.5566 19.3169 26.6748 18.6688 26.9702 18.2563C27.2656 17.8439 26.9702 17.0779 26.9702 16.4887C26.9702 15.8995 26.9702 15.9584 26.9702 15.7227C26.9411 15.5274 26.9411 15.3288 26.9702 15.1335C26.9702 14.7211 27.6791 14.6621 28.0336 14.5443L29.2743 14.014C29.7726 13.8893 30.2241 13.6233 30.574 13.248C31.342 12.3053 30.574 11.2447 30.574 10.302C30.1594 9.29817 29.6237 8.34845 28.9789 7.47377C28.329 6.64887 27.6791 5.64721 26.4385 5.82398C25.9242 5.87752 25.4442 6.10645 25.0796 6.47211L23.7799 7.65053C23.4845 7.65053 23.1891 8.41651 22.7165 8.23975L22.1848 8.06298L21.4167 7.59161L19.9398 6.88456C19.5262 6.88456 19.5853 6.35427 19.9398 5.94182C19.9684 5.39226 19.9684 4.84159 19.9398 4.29203C20.027 3.74554 20.027 3.18872 19.9398 2.64223C19.831 2.15585 19.5337 1.73218 19.1127 1.46381C18.5891 1.2411 18.0275 1.12107 17.4584 1.11028C16.2222 0.963239 14.9727 0.963239 13.7365 1.11028C13.1808 1.12913 12.6362 1.26996 12.1413 1.52273C11.9416 1.65884 11.7709 1.83306 11.6391 2.03532C11.5073 2.23758 11.417 2.46388 11.3733 2.70115C11.2829 3.22762 11.2829 3.76557 11.3733 4.29203L11.7278 5.8829C11.7278 6.23643 11.7278 6.64887 11.7278 6.88456C11.7278 7.12024 10.6644 7.41485 10.1917 7.70945C9.99833 7.76207 9.79433 7.76207 9.60093 7.70945C9.42504 7.74028 9.24511 7.74028 9.06922 7.70945L7.94672 6.47211C7.11961 5.82398 6.23343 4.94016 5.11092 5.41153C4.62555 5.64817 4.21625 6.01555 3.92934 6.47211L2.86592 7.8273C2.20377 8.77452 1.63026 9.7804 1.15263 10.8323C0.949124 11.3228 0.949124 11.8737 1.15263 12.3642C1.25086 12.6119 1.40224 12.8352 1.59615 13.0185C1.79006 13.2017 2.0218 13.3404 2.27513 13.4248L3.87026 14.3086L4.63829 14.7211C4.90749 14.8223 5.14997 14.9836 5.34724 15.1924C5.39706 15.3254 5.39706 15.4719 5.34724 15.6049C5.31802 15.8988 5.31802 16.1948 5.34724 16.4887C5.37646 16.7826 5.37646 17.0786 5.34724 17.3725C5.53899 17.6275 5.64264 17.9376 5.64264 18.2563C5.64264 18.6688 4.87461 18.7866 4.52013 18.9634L2.925 19.6115C2.38813 19.784 1.91504 20.1122 1.56618 20.5543C1.46706 20.7872 1.41598 21.0377 1.41598 21.2908C1.41598 21.5438 1.46706 21.7943 1.56618 22.0273C1.91266 23.0939 2.41 24.1058 3.04316 25.0323C3.32371 25.5257 3.63962 25.9983 3.98842 26.4464C4.28641 26.9018 4.72043 27.2522 5.22908 27.448C6.35159 27.8016 7.17869 26.7999 8.0058 26.2107L9.24646 25.3269C9.66001 25.3269 9.89633 25.3269 10.3099 25.3269L11.5505 26.3875C11.905 26.3875 12.1413 26.741 12.0232 27.1534C12.0565 27.6635 12.0565 28.1753 12.0232 28.6854C12.0232 29.2746 12.0232 29.8638 12.0232 30.453C12.0073 30.69 12.0411 30.9276 12.1225 31.1508C12.2039 31.374 12.331 31.5778 12.4958 31.7493C12.9024 32.1143 13.4259 32.3232 13.9728 32.3385C15.1893 32.4848 16.4191 32.4848 17.6357 32.3385C18.6991 32.3385 19.9988 32.3385 20.4715 31.219C20.6169 30.6786 20.6169 30.1096 20.4715 29.5692C20.4715 28.98 20.4715 28.3908 20.4715 27.8016C20.4715 27.2124 20.4715 26.9767 20.4715 26.6821C20.6858 26.6376 20.907 26.6376 21.1213 26.6821L21.8894 26.3285L22.5392 25.975C22.5392 25.975 22.8937 25.6215 23.13 25.6215C23.3664 25.6215 23.8981 25.975 24.1344 26.2107L25.4932 27.3302C25.8342 27.7412 26.2848 28.0475 26.7929 28.214C27.9745 28.214 28.6835 27.448 29.3924 26.6231C30.0598 25.7097 30.6525 24.7442 31.1648 23.736C31.44 23.251 31.5826 22.7024 31.5783 22.1451C31.4962 21.7712 31.2863 21.4374 30.9845 21.201C30.6827 20.9645 30.3078 20.84 29.9241 20.8489V20.8489ZM12.2004 14.6032C12.6548 13.7842 13.355 13.1278 14.2028 12.7261C15.0505 12.3245 16.0031 12.198 16.9267 12.3642C17.9328 12.4955 18.8619 12.9717 19.5545 13.7112C20.2472 14.4507 20.6603 15.4074 20.7232 16.4175C20.786 17.4275 20.4947 18.4279 19.899 19.2471C19.3034 20.0664 18.4406 20.6535 17.4584 20.9078C16.6132 21.2124 15.6945 21.2498 14.8272 21.015C13.9599 20.7802 13.1862 20.2845 12.6115 19.5954C12.0368 18.9063 11.689 18.0573 11.6155 17.1641C11.5419 16.2708 11.7462 15.3766 12.2004 14.6032V14.6032Z" fill="#FDFBF5" stroke="#A47E00" stroke-width="0.07" stroke-miterlimit="10"/>
</svg>
