<svg width="31" height="32" viewBox="0 0 31 32" fill="none" xmlns="http://www.w3.org/2000/svg">
<path fill-rule="evenodd" clip-rule="evenodd" d="M24.1639 0.0716789C22.3721 0.400248 20.8034 1.55619 20.0021 3.13855C19.5513 4.02859 19.4342 4.53791 19.4335 5.61158C19.4329 6.42136 19.4519 6.57982 19.6089 7.07868C19.7481 7.52145 19.7673 7.64798 19.7007 7.68599C19.6544 7.71234 17.4908 8.97259 14.8925 10.4865L10.1684 13.2389L9.74894 12.8595C7.94922 11.2315 5.43078 10.8609 3.23619 11.901C1.74926 12.6058 0.594471 13.9664 0.15194 15.535C-0.0506466 16.2531 -0.0506466 17.6343 0.15194 18.3524C1.12033 21.785 4.98922 23.5238 8.2916 22.0108C8.9575 21.7057 9.48678 21.3201 10.0813 20.7072L10.5524 20.2214L15.0813 22.4664C17.5722 23.7011 19.6224 24.7232 19.6373 24.7376C19.6522 24.752 19.61 24.9694 19.5434 25.2207C19.3696 25.877 19.3856 27.1214 19.5769 27.8063C20.12 29.7516 21.742 31.3207 23.7603 31.8531C24.5029 32.049 25.9313 32.049 26.6738 31.8531C28.2959 31.4251 29.703 30.3085 30.4318 28.8706C30.8831 27.9802 31 27.4715 31 26.3976C31 25.3236 30.8831 24.815 30.4318 23.9245C29.8754 22.8268 28.9078 21.891 27.7745 21.3545C25.4627 20.2603 22.7661 20.7434 20.9971 22.5687L20.5231 23.0578L15.9909 20.8115C13.4982 19.5759 11.4402 18.5454 11.4175 18.5214C11.3947 18.4973 11.4327 18.224 11.5018 17.9141C11.6589 17.2098 11.6266 16.2658 11.4215 15.5663C11.3458 15.3081 11.2795 15.0292 11.2742 14.9467C11.2656 14.8123 11.7614 14.5073 16.0223 12.026L20.78 9.25533L21.2266 9.66278C23.0455 11.322 25.5618 11.703 27.7745 10.6543C29.2614 9.94953 30.4162 8.58886 30.8587 7.02027C30.9737 6.61288 31 6.34999 31 5.61158C31 4.5381 30.8833 4.02972 30.4322 3.13855C29.704 1.69994 28.2712 0.565221 26.6738 0.16196C25.9883 -0.0110894 24.8404 -0.0523483 24.1639 0.0716789Z" fill="white"/>
</svg>
