<svg width="31" height="30" viewBox="0 0 31 30" fill="none" xmlns="http://www.w3.org/2000/svg">
<path d="M29.4157 10.6189H29.0612L23.1533 9.7351L21.3219 9.4405C20.9083 9.4405 20.7311 8.79237 20.6129 8.49776L17.8953 3.01809L17.2454 1.66291C17.029 1.34963 16.7035 1.12786 16.3322 1.04073C15.961 0.953602 15.5704 1.00735 15.2367 1.19153C14.9621 1.37659 14.7548 1.6453 14.6459 1.95751L13.6416 4.01974L11.1012 9.08696C11.1012 9.08696 11.1012 9.44049 10.6876 9.49941H10.0378L7.49735 9.91185L2.23932 10.6778C1.97348 10.7211 1.72456 10.836 1.51948 11.0101C1.3144 11.1843 1.16097 11.411 1.07579 11.6659C0.990619 11.9207 0.976939 12.1939 1.03624 12.456C1.09553 12.718 1.22555 12.9589 1.41221 13.1525L2.65287 14.3899L6.96564 18.5733L7.3792 18.9857L6.96564 21.1658L6.02038 27.0579C5.95933 27.3295 5.95933 27.6112 6.02038 27.8828C6.06166 28.0791 6.14271 28.265 6.25856 28.4289C6.37441 28.5929 6.52262 28.7316 6.6941 28.8364C6.86557 28.9412 7.05671 29.01 7.25579 29.0385C7.45487 29.067 7.65769 29.0547 7.85183 29.0023C8.40169 28.8307 8.92033 28.5721 9.38789 28.2363L14.8232 25.4081C14.8232 25.4081 15.5321 24.8778 15.8866 24.9957H16.4183L17.5408 25.5849L22.7988 28.3542H23.2715C23.5963 28.5348 23.9774 28.5866 24.3388 28.4992C24.7002 28.4119 25.0153 28.1918 25.2211 27.8828C25.6346 27.2936 25.2211 26.4687 25.2211 25.8206L24.1577 19.9285V18.9268H24.5121L25.2211 18.2197L29.5929 13.9185C30.1246 13.4471 30.7745 12.9758 30.7154 12.2098C30.7488 11.8281 30.6317 11.4485 30.389 11.1515C30.1464 10.8545 29.7972 10.6635 29.4157 10.6189V10.6189Z" fill="#FDFBF5" stroke="#A47E00" stroke-width="0.07" stroke-miterlimit="10"/>
</svg>
