<svg width="29" height="35" viewBox="0 0 29 35" fill="none" xmlns="http://www.w3.org/2000/svg">
<path fill-rule="evenodd" clip-rule="evenodd" d="M12.8008 0.0463412C9.51088 0.360019 6.57135 1.42758 4.32292 3.12516C3.64946 3.63358 2.63015 4.63873 2.1387 5.27902C1.37699 6.27137 0.72219 7.61292 0.375723 8.89076C0.0157722 10.2184 0.00147233 10.5088 0.000110431 16.5075C-0.00104719 21.8267 0.00453647 22.0788 0.134666 22.5976C0.513207 24.1064 1.58264 25.4304 2.93535 26.0649C3.36653 26.2672 3.39118 26.292 3.4972 26.6299C3.78157 27.5365 4.68811 29.0993 5.54087 30.1529C7.99481 33.1848 11.7799 35.1532 14.8436 34.9906C19.0192 34.7691 23.6478 31.1922 25.3985 26.8341L25.6184 26.2866L26.1396 26.0307C27.4768 25.3742 28.516 24.0421 28.8746 22.5248C29.0093 21.9548 29.0125 21.779 28.9886 16.1407C28.9648 10.4991 28.9601 10.3244 28.8167 9.66215C28.0575 6.15758 25.9443 3.50808 22.5362 1.78806C21.0429 1.03445 19.1912 0.463688 17.3227 0.181214C16.2357 0.0168485 13.8549 -0.0541122 12.8008 0.0463412ZM15.2246 12.1549C17.2552 14.6045 20.0058 16.1819 22.981 16.6031C23.2806 16.6455 23.6276 16.6957 23.7521 16.7146L23.9785 16.749L23.9489 20.4913C23.9169 24.5166 23.9192 24.4883 23.5311 25.6251C22.4532 28.7823 19.1542 31.8314 15.952 32.6303C15.1731 32.8245 13.8806 32.8417 13.1632 32.6673C11.3074 32.2161 9.64598 31.2312 8.06243 29.6433C6.49686 28.0734 5.65881 26.6424 5.19481 24.747C5.10377 24.3749 5.0813 23.6851 5.05733 20.5255L5.02873 16.7488L5.2546 16.7145C5.37887 16.6957 5.72568 16.6455 6.0253 16.6031C8.00414 16.3229 9.86286 15.547 11.575 14.2861C12.2488 13.79 13.4442 12.6146 14.0472 11.8556L14.5304 11.2473L14.636 11.4097C14.694 11.499 14.9589 11.8344 15.2246 12.1549ZM8.8172 17.5851C8.36988 17.7341 8.14435 17.8771 7.84909 18.199C7.49901 18.5806 7.38999 18.7926 7.28798 19.2898C7.09269 20.2422 7.6273 21.2592 8.54481 21.6804C9.06179 21.9177 9.8425 21.9041 10.3603 21.6485C10.7837 21.4396 11.1443 21.08 11.3847 20.6272C11.5157 20.3802 11.5406 20.2297 11.5406 19.6833C11.5406 18.9551 11.4395 18.68 10.9872 18.1768C10.493 17.6271 9.50237 17.357 8.8172 17.5851ZM18.8752 17.619C18.4246 17.7806 18.074 18.0586 17.7897 18.48C17.4996 18.9095 17.4094 19.2713 17.4469 19.8543C17.498 20.6472 17.9315 21.296 18.646 21.6485C18.9715 21.8091 19.1162 21.8385 19.5762 21.8371C20.2883 21.8348 20.7132 21.6509 21.1721 21.1463C21.948 20.2932 21.948 19.0734 21.1721 18.2203C20.5888 17.5789 19.6626 17.3365 18.8752 17.619ZM10.5321 25.5972C9.88533 25.8332 9.62044 26.4919 9.91856 27.1232C10.1762 27.6688 11.7527 28.6538 12.8351 28.9454C14.1228 29.2924 15.7016 29.1921 16.9205 28.6857C17.836 28.3054 18.8426 27.5849 19.0759 27.1431C19.3183 26.6839 19.2057 26.0848 18.8196 25.7797C18.3683 25.4229 17.8259 25.4641 17.3134 25.8941C16.4134 26.6492 15.6058 26.9537 14.5031 26.9537C13.3866 26.9537 12.6465 26.6724 11.6785 25.8801C11.4689 25.7086 11.2449 25.5677 11.1808 25.5672C11.1168 25.5667 11.003 25.5519 10.9281 25.5343C10.8532 25.5168 10.675 25.545 10.5321 25.5972Z" fill="white"/>
</svg>
