<svg width="306" height="307" viewBox="0 0 306 307" fill="none" xmlns="http://www.w3.org/2000/svg">
<path d="M153 0.5C237.222 0.5 305.5 68.9989 305.5 153.5C305.5 238.001 237.222 306.5 153 306.5C68.7781 306.5 0.5 238.001 0.5 153.5C0.5 68.9989 68.7781 0.5 153 0.5Z" fill="url(#paint0_linear_333_2262)" fill-opacity="0.4" style="mix-blend-mode:screen"/>
<path d="M153 0.5C237.222 0.5 305.5 68.9989 305.5 153.5C305.5 238.001 237.222 306.5 153 306.5C68.7781 306.5 0.5 238.001 0.5 153.5C0.5 68.9989 68.7781 0.5 153 0.5Z" stroke="url(#paint1_linear_333_2262)"/>
<g filter="url(#filter0_i_333_2262)">
<circle cx="153" cy="153" r="139" fill="#69AEFF"/>
</g>
<g filter="url(#filter1_i_333_2262)">
<circle cx="153" cy="153" r="131" fill="#FE6C56"/>
</g>
<circle cx="153.5" cy="153.5" r="111.5" stroke="white" stroke-width="2"/>
<path d="M152.665 33.444C153.057 32.8128 153.976 32.8145 154.365 33.4472L159.052 41.0552C159.463 41.7221 158.982 42.5811 158.198 42.5796L148.797 42.5619C148.014 42.5604 147.536 41.6996 147.949 41.0342L152.665 33.444Z" fill="white"/>
<path d="M154.344 273.641C153.952 274.272 153.033 274.27 152.643 273.638L147.957 266.03C147.546 265.363 148.027 264.504 148.81 264.505L158.212 264.523C158.995 264.525 159.473 265.385 159.059 266.051L154.344 273.641Z" fill="white"/>
<path d="M273.606 153.323C274.235 153.719 274.228 154.638 273.594 155.024L265.962 159.671C265.292 160.079 264.436 159.593 264.442 158.81L264.508 149.409C264.513 148.625 265.377 148.152 266.04 148.569L273.606 153.323Z" fill="white"/>
<path d="M33.4031 153.762C32.774 153.366 32.7805 152.447 33.4151 152.061L41.0472 147.414C41.7163 147.006 42.5728 147.492 42.5673 148.275L42.5009 157.676C42.4954 158.46 41.6322 158.933 40.9689 158.516L33.4031 153.762Z" fill="white"/>
<path d="M239.652 237.227C239.826 237.949 239.18 238.602 238.456 238.436L229.747 236.435C228.984 236.26 228.709 235.315 229.26 234.758L235.87 228.073C236.421 227.516 237.369 227.779 237.553 228.541L239.652 237.227Z" fill="white"/>
<path d="M67.3571 69.8594C67.1826 69.1372 67.8289 68.4836 68.553 68.65L77.2617 70.6504C78.0252 70.8258 78.2997 71.7711 77.7489 72.3282L71.1386 79.0133C70.5878 79.5704 69.6394 79.3065 69.4555 78.5451L67.3571 69.8594Z" fill="white"/>
<path d="M241.124 71.4028C241.854 71.2623 242.476 71.9383 242.276 72.6539L239.871 81.2596C239.66 82.014 238.703 82.244 238.172 81.6678L231.803 74.7521C231.273 74.1759 231.581 73.2409 232.35 73.0927L241.124 71.4028Z" fill="white"/>
<path d="M65.8837 235.683C65.1541 235.824 64.5315 235.148 64.7315 234.432L67.137 225.826C67.3479 225.072 68.305 224.842 68.8357 225.418L75.2044 232.334C75.7351 232.91 75.4272 233.845 74.658 233.993L65.8837 235.683Z" fill="white"/>
<path d="M153 153L74.5 75.0005C90.5 57.0005 126 40.0005 154 42.0005L153 153Z" fill="#69AEFF"/>
<path d="M153.412 153.507L232.289 231.126C216.377 249.203 180.96 266.375 152.95 264.511L153.412 153.507Z" fill="#69AEFF"/>
<path d="M153.32 152.739L152.966 42.077C177.008 40.6628 214.131 53.7443 232.515 74.9575L153.32 152.739Z" fill="#88D25C"/>
<path d="M153.252 153.39L154.142 264.049C130.107 265.58 92.9212 252.678 74.4338 231.554L153.252 153.39Z" fill="#88D25C"/>
<path d="M153.995 153.112L264.637 155.257C265.508 179.324 251.592 216.143 229.969 234.044L153.995 153.112Z" fill="#C37235"/>
<path d="M153.347 153.03L42.6956 151.421C41.708 127.358 55.4457 90.4726 76.9816 72.4669L153.347 153.03Z" fill="#C37235"/>
<path d="M153.733 152.781L232.115 74.6633C250.037 90.751 266.863 126.334 264.727 154.323L153.733 152.781Z" fill="#FDD622"/>
<path d="M153.223 153.191L75.2202 231.688C57.2208 215.687 40.222 180.186 42.2231 152.187L153.223 153.191Z" fill="#FDD622"/>
<path d="M103.941 178.188C99.8867 179.057 96.0328 177.111 95.3116 173.832L91.3508 155.822C90.805 153.341 92.2168 150.795 94.6836 149.308C95.4938 148.82 96.4027 148.458 97.3555 148.244C117.192 143.775 170.795 131.726 174.582 131.307C179.238 130.793 181.807 133.442 185.715 134.944C189.623 136.445 211.452 132.348 211.452 132.348L214.18 144.749C214.18 144.749 192.645 150.192 189.728 153.188C186.81 156.185 185.59 159.674 181.148 161.161C177.535 162.374 123.823 173.927 103.941 178.188Z" fill="#C9D4D6"/>
<path d="M179.457 159.66C183.367 158.352 184.441 155.288 187.007 152.644C189.573 150 213.775 143.564 213.775 143.564L211.561 133.5C211.561 133.5 186.919 137.907 183.475 136.584C180.032 135.261 177.776 132.93 173.678 133.383C170.344 133.751 118.519 145.378 101.06 149.316C97.5 150.119 95.1393 153.096 95.774 155.982L99.26 171.832C99.8945 174.717 103.287 176.429 106.855 175.665C124.352 171.915 176.276 160.724 179.457 159.66Z" fill="#E1ECEF"/>
<path d="M211.929 134.514C210.911 134.723 184.638 140.076 181.452 137.81C178.203 135.498 175.369 134.508 173.705 134.874L96.8484 151.777L94.6843 149.311C95.4946 148.823 96.4035 148.461 97.3563 148.248C117.192 143.775 170.795 131.725 174.582 131.307C179.238 130.793 181.807 133.442 185.715 134.943C189.623 136.445 211.452 132.348 211.452 132.348L211.929 134.514Z" fill="#CBDEE3"/>
<path d="M213.703 142.585C212.692 142.822 186.597 148.986 184.656 152.38C182.676 155.841 180.519 157.929 178.856 158.295L101.999 175.198L101.069 178.344C102.009 178.448 102.986 178.395 103.941 178.189C123.823 173.927 177.535 162.374 181.148 161.165C185.59 159.678 186.81 156.193 189.728 153.193C192.646 150.194 214.179 144.75 214.179 144.75L213.703 142.585Z" fill="#CBDEE3"/>
<path d="M159.882 134.327C141.564 138.297 111.217 145.126 97.3555 148.248C96.4027 148.462 95.4938 148.824 94.6836 149.312L96.8476 151.778L160.634 137.749L159.882 134.327Z" fill="#DBA804"/>
<path d="M165.785 161.169L101.998 175.198L101.069 178.344C102.009 178.447 102.986 178.394 103.94 178.188C117.833 175.21 148.244 168.672 166.538 164.591L165.785 161.169Z" fill="#DBA804"/>
<path opacity="0.83" d="M100.525 175.867L95.2285 151.786C95.0337 150.9 95.9572 150.056 97.0034 150.163L98.3678 150.298C99.1488 150.375 99.7581 150.859 99.9035 151.52L104.881 174.153C105.027 174.815 104.673 175.515 103.992 175.911L102.812 176.601C101.901 177.129 100.719 176.752 100.525 175.867Z" fill="#EBB405"/>
<path d="M181.149 161.165C185.591 159.678 186.811 156.193 189.728 153.192C192.646 150.19 214.18 144.749 214.18 144.749L211.452 132.348C211.452 132.348 189.622 136.445 185.715 134.943C181.809 133.442 179.238 130.793 174.582 131.307C170.795 131.725 117.186 143.776 97.3563 148.248C96.4034 148.461 95.4946 148.823 94.6843 149.311C92.2109 150.796 90.8046 153.339 91.3516 155.826L95.3115 173.832C96.0328 177.111 99.8867 179.057 103.941 178.188C123.823 173.926 177.535 162.374 181.149 161.165ZM106.855 175.665C103.287 176.429 99.8947 174.717 99.2601 171.832L95.7742 155.982C95.1395 153.096 97.5002 150.118 101.061 149.316C118.516 145.381 170.347 133.75 173.678 133.383C177.776 132.93 180.037 135.26 183.475 136.584C186.914 137.907 211.561 133.5 211.561 133.5L213.775 143.563C213.775 143.563 189.579 150.001 187.008 152.643C184.436 155.285 183.367 158.352 179.457 159.66C176.276 160.723 124.352 171.915 106.855 175.665V175.665Z" fill="#C2CDCF"/>
<path opacity="0.83" d="M106.584 175.725C103.171 176.456 99.8947 174.718 99.2602 171.832L95.7745 155.983C95.2301 153.508 96.7988 150.986 99.4064 149.832C99.8466 149.637 100.31 149.484 100.785 149.376C112.59 146.711 140.809 140.37 157.498 136.756C159.049 136.42 160.498 136.108 161.827 135.824L167.676 162.417C166.351 162.717 164.904 163.041 163.356 163.387C146.693 167.107 118.418 173.192 106.584 175.725Z" fill="#FEC305"/>
<path opacity="0.35" d="M106.583 175.724C103.17 176.456 99.8943 174.717 99.2598 171.832L95.774 155.983C95.2297 153.508 96.7984 150.986 99.406 149.831C99.2554 152.116 98.8671 162.964 104.812 165.708C110.273 168.232 143.782 161.01 165.924 154.448L167.677 162.416C166.351 162.716 164.904 163.04 163.356 163.387C146.692 167.107 118.417 173.191 106.583 175.724Z" fill="#EBB405"/>
<path d="M165.858 161.498L160.562 137.417C160.367 136.531 161.29 135.687 162.338 135.793L163.701 135.929C164.482 136.006 165.091 136.49 165.236 137.151L170.214 159.784C170.36 160.445 170.007 161.145 169.325 161.542L168.145 162.231C167.236 162.76 166.052 162.382 165.858 161.498Z" fill="#FEDA68"/>
<path opacity="0.35" d="M97.5585 151.622C97.5585 151.622 99.2561 151.916 99.9099 153.191C100.564 154.465 101.445 160.171 101.445 160.171C101.445 160.171 100.778 153.778 100.068 152.23C99.358 150.681 97.5585 151.622 97.5585 151.622Z" fill="#D9A605"/>
<path opacity="0.35" d="M102.785 175.387C102.785 175.387 104.202 174.407 104.261 172.976C104.319 171.544 102.725 165.995 102.725 165.995C102.725 165.995 104.803 172.079 104.808 173.782C104.813 175.486 102.785 175.387 102.785 175.387Z" fill="#D9A605"/>
<path opacity="0.53" d="M159.008 156.418C160.617 151.117 152.061 145.204 131.029 149.264C109.997 153.324 111.68 164.387 121.387 163.191C131.093 161.996 156.98 163.072 159.008 156.418Z" fill="#FED759"/>
<path opacity="0.89" d="M209.342 136.727C209.342 136.727 209.958 134.356 208.266 134.635C206.574 134.914 187.02 138.333 184.718 138.512C182.416 138.692 182.98 140.893 184.643 141.091C186.306 141.289 207.906 138.136 209.342 136.727Z" fill="#EFEFEF"/>
<path opacity="0.7" d="M209.979 141.759C209.979 141.759 211.533 143.652 209.88 144.11C208.227 144.567 189.044 149.667 186.879 150.47C184.714 151.273 184.302 149.038 185.729 148.16C187.155 147.282 208.083 141.083 209.979 141.759Z" fill="#EFEFEF"/>
<path opacity="0.83" d="M155.511 137.491C155.511 137.491 158.518 136.733 159.546 138.857C160.573 140.98 163.609 151.277 163.609 151.277L160.42 136.775L155.511 137.491Z" fill="#E3AE04"/>
<path opacity="0.89" d="M180.343 139.568C179.632 137.893 175.84 136.934 173.994 137.034C172.148 137.135 135.496 145.501 135.496 145.501C135.496 145.501 171.134 139.324 174.66 140.061C178.185 140.799 181.762 142.908 180.343 139.568Z" fill="#EFEFEF"/>
<path d="M217.769 145.312C217.161 145.35 215.963 144.852 215.963 144.852C215.963 144.852 214.046 146.119 212.242 146.043C211.067 146.302 209.434 143.362 208.581 139.481C208.272 138.126 208.103 136.741 208.077 135.341C208.066 133.459 208.439 132.145 209.155 131.988C210.76 131.161 213.032 131.507 213.032 131.507C213.032 131.507 213.906 130.558 214.478 130.332C215.049 130.107 216.025 130.849 216.025 130.849L220.087 129.584L220.567 133.976L220.876 136.78L223.178 143.638L218.959 144.193C218.959 144.193 218.385 145.278 217.769 145.312Z" fill="#544101"/>
<g style="mix-blend-mode:multiply">
<path d="M217.768 145.312C217.161 145.349 215.963 144.851 215.963 144.851C215.963 144.851 214.046 146.119 212.242 146.043C211.066 146.301 209.434 143.362 208.58 139.48C208.271 138.125 208.103 136.741 208.077 135.341C209.292 139.842 211.328 139.914 212.13 139.915C213.044 139.915 217.427 139.455 217.354 136.984C217.281 134.513 219.032 133.691 219.028 133.589L220.567 133.976L220.876 136.78L223.177 143.638L218.959 144.192C218.959 144.192 218.384 145.278 217.768 145.312Z" fill="#D6C794"/>
</g>
<path d="M219.509 137.077C220.363 140.958 222.003 143.896 223.174 143.639C224.344 143.381 224.601 140.026 223.748 136.145C222.894 132.264 221.253 129.326 220.083 129.583C218.912 129.841 218.655 133.196 219.509 137.077Z" fill="#695101"/>
<path d="M218.666 130.408C218.666 130.408 218.931 130.856 218.397 131.073C217.863 131.29 215.973 131.943 216.179 131.561C216.384 131.179 218.611 130.22 218.666 130.408Z" fill="#695101"/>
<path d="M218.311 131.629C218.117 131.485 215.923 132.323 216.334 132.367C216.745 132.41 218.78 131.979 218.311 131.629Z" fill="#695101"/>
<path d="M218.288 132.609C217.712 132.489 215.86 133.278 216.338 133.375C216.815 133.471 218.676 132.693 218.288 132.609Z" fill="#695101"/>
<path d="M219.764 140.655C219 140.465 217.961 140.683 218.187 141.002C218.414 141.321 220.335 140.799 219.764 140.655Z" fill="#695101"/>
<path d="M220.268 141.419C219.695 141.478 217.678 141.786 218.168 142.015C218.658 142.243 220.84 141.36 220.268 141.419Z" fill="#695101"/>
<path d="M220.581 142.427C220.288 142.216 218.215 142.746 218.64 142.853C219.066 142.961 221.509 143.085 220.581 142.427Z" fill="#695101"/>
<path d="M215.335 131.092C215.469 131.25 214.523 131.321 214.509 131.928C214.494 132.536 215.208 135.611 215.171 135.818C215.134 136.026 213.578 132.655 213.707 131.701C213.836 130.747 214.775 130.431 215.335 131.092Z" fill="#695101"/>
<path d="M211.368 131.965C211.138 131.91 210.891 131.893 210.642 131.916C210.393 131.938 210.147 132 209.918 132.097C209.187 132.425 209.038 133.328 208.974 133.846C208.909 134.365 209.727 132.79 210.593 132.962C211.459 133.134 211.368 131.965 211.368 131.965Z" fill="#695101"/>
<path d="M216.561 141.957C216.561 141.957 217.194 144.45 217.768 144.42L218.343 144.395C218.343 144.395 218.152 145.078 217.452 144.894C216.752 144.711 216.717 142.282 216.561 141.957Z" fill="#695101"/>
<defs>
<filter id="filter0_i_333_2262" x="14" y="14" width="278" height="278" filterUnits="userSpaceOnUse" color-interpolation-filters="sRGB">
<feFlood flood-opacity="0" result="BackgroundImageFix"/>
<feBlend mode="normal" in="SourceGraphic" in2="BackgroundImageFix" result="shape"/>
<feColorMatrix in="SourceAlpha" type="matrix" values="0 0 0 0 0 0 0 0 0 0 0 0 0 0 0 0 0 0 127 0" result="hardAlpha"/>
<feOffset/>
<feGaussianBlur stdDeviation="1"/>
<feComposite in2="hardAlpha" operator="arithmetic" k2="-1" k3="1"/>
<feColorMatrix type="matrix" values="0 0 0 0 0 0 0 0 0 0 0 0 0 0 0 0 0 0 0.25 0"/>
<feBlend mode="normal" in2="shape" result="effect1_innerShadow_333_2262"/>
</filter>
<filter id="filter1_i_333_2262" x="22" y="21" width="262" height="263" filterUnits="userSpaceOnUse" color-interpolation-filters="sRGB">
<feFlood flood-opacity="0" result="BackgroundImageFix"/>
<feBlend mode="normal" in="SourceGraphic" in2="BackgroundImageFix" result="shape"/>
<feColorMatrix in="SourceAlpha" type="matrix" values="0 0 0 0 0 0 0 0 0 0 0 0 0 0 0 0 0 0 127 0" result="hardAlpha"/>
<feOffset dy="-1"/>
<feGaussianBlur stdDeviation="10.5"/>
<feComposite in2="hardAlpha" operator="arithmetic" k2="-1" k3="1"/>
<feColorMatrix type="matrix" values="0 0 0 0 0 0 0 0 0 0 0 0 0 0 0 0 0 0 0.25 0"/>
<feBlend mode="normal" in2="shape" result="effect1_innerShadow_333_2262"/>
</filter>
<linearGradient id="paint0_linear_333_2262" x1="247.758" y1="629.152" x2="-287.987" y2="308.562" gradientUnits="userSpaceOnUse">
<stop stop-color="#FAFAFA" stop-opacity="0.09"/>
<stop offset="0.145833" stop-color="white"/>
<stop offset="0.541667" stop-color="white"/>
<stop offset="0.864583" stop-color="#E0E0E0" stop-opacity="0"/>
<stop offset="1" stop-color="white" stop-opacity="0"/>
</linearGradient>
<linearGradient id="paint1_linear_333_2262" x1="16.0796" y1="55.2404" x2="313.914" y2="255.259" gradientUnits="userSpaceOnUse">
<stop stop-color="white"/>
<stop offset="0.384128" stop-color="white" stop-opacity="0"/>
<stop offset="1" stop-color="white" stop-opacity="0.95"/>
</linearGradient>
</defs>
</svg>
